<svg xmlns="http://www.w3.org/2000/svg" xmlns:xlink="http://www.w3.org/1999/xlink" width="375.644" height="222.95" viewBox="0 0 375.644 222.95"><defs><clipPath id="a"><rect width="375.644" height="222.95" fill="none"/></clipPath><clipPath id="d"><rect width="35.228" height="8.22" fill="none"/></clipPath><clipPath id="e"><rect width="3.399" height="2.707" fill="none"/></clipPath><clipPath id="f"><rect width="15.682" height="1.592" fill="none"/></clipPath><clipPath id="g"><rect width="9.407" height="0.776" fill="none"/></clipPath><clipPath id="h"><rect width="3.479" height="2.771" fill="none"/></clipPath><clipPath id="i"><rect width="16.05" height="1.63" fill="none"/></clipPath><clipPath id="j"><rect width="9.627" height="0.794" fill="none"/></clipPath><clipPath id="l"><rect width="3.815" height="3.126" fill="none"/></clipPath><clipPath id="m"><rect width="17.8" height="1.747" fill="none"/></clipPath><clipPath id="n"><rect width="4.742" height="3.123" fill="none"/></clipPath><clipPath id="o"><rect width="16.129" height="7.963" fill="none"/></clipPath><clipPath id="p"><rect width="3.174" height="18.359" fill="none"/></clipPath><clipPath id="q"><rect width="29.513" height="3.705" fill="none"/></clipPath><clipPath id="s"><rect width="3.435" height="2.625" fill="none"/></clipPath><clipPath id="t"><rect width="15.738" height="1.736" fill="none"/></clipPath><clipPath id="u"><rect width="37.928" height="43.097" fill="none"/></clipPath><clipPath id="x"><rect width="24.353" height="13.163" fill="none"/></clipPath><clipPath id="z"><rect width="4.848" height="18.19" fill="none"/></clipPath></defs><g clip-path="url(#a)"><rect width="66.9" height="120.181" transform="translate(278.805 3.279)" fill="#ebebeb"/><rect width="60.864" height="113.116" transform="translate(281.478 6.764)" fill="#fafafa"/><path d="M563.992,13.423,503.128,90.845V12.091h60.864Z" transform="translate(-221.65 -5.326)" fill="#f5f5f5"/><rect width="62.186" height="1.205" transform="translate(281.477 39.305)" fill="#ebebeb"/><rect width="62.186" height="1.205" transform="translate(281.477 66.242)" fill="#ebebeb"/><rect width="62.186" height="1.205" transform="translate(281.477 93.179)" fill="#ebebeb"/><rect width="3.075" height="83.181" transform="translate(310.372 39.906)" fill="#ebebeb"/><rect width="1.393" height="33.142" transform="translate(293.197 6.764)" fill="#ebebeb"/><rect width="1.393" height="33.142" transform="translate(305.213 6.764)" fill="#ebebeb"/><rect width="1.393" height="33.142" transform="translate(317.227 6.764)" fill="#ebebeb"/><rect width="1.393" height="33.142" transform="translate(329.243 6.764)" fill="#ebebeb"/><rect width="2.83" height="122.963" transform="translate(275.975 1.241)" fill="#f5f5f5"/><path d="M620.759,125.52l-2.83-1.083V2.217h2.83Z" transform="translate(-272.226 -0.977)" fill="#e0e0e0"/><rect width="72.559" height="3.279" transform="translate(275.975)" fill="#e0e0e0"/><rect width="76.482" height="3.055" transform="translate(273.967 124.948)" fill="#e0e0e0"/><path d="M561.441,220.679l4.745,1.488H489.7l4.837-1.488Z" transform="translate(-215.736 -97.219)" fill="#ebebeb"/><g clip-path="url(#a)"><path d="M643.518,306.5a14.334,14.334,0,0,1,8.893-1.081,7.389,7.389,0,0,1,4.393,1.961c1.1,1.212,1.306,3.344.045,4.386a4.208,4.208,0,0,1-2.77.7c-2.351-.027-4.959-.441-6.837.973-1.072.807-1.785,2.148-3.066,2.546a3.029,3.029,0,0,1-3.332-1.483,5.175,5.175,0,0,1-.377-3.82,5.834,5.834,0,0,1,3.051-4.185" transform="translate(-282.069 -134.442)" fill="#ebebeb"/><path d="M633.765,266.849c1.654,2.363,4.869,1.58,6.359.138s2.12-3.532,2.694-5.525c1.31-4.553,2.632-9.33,1.657-13.967a7.766,7.766,0,0,0-1.784-3.8,4.055,4.055,0,0,0-3.842-1.278c-1.621.429-2.628,2.016-3.357,3.526a33.3,33.3,0,0,0-3.29,14.288,11.548,11.548,0,0,0,1.562,6.615" transform="translate(-278.514 -106.75)" fill="#ebebeb"/><path d="M611.876,276.225a8.6,8.6,0,0,0,1.338-7.91,15.251,15.251,0,0,0-4.685-6.8,25.229,25.229,0,0,0-8.389-4.95,8.954,8.954,0,0,0-3.774-.641,3.96,3.96,0,0,0-3.166,1.916c-.883,1.684-.036,3.726.879,5.393a63.924,63.924,0,0,0,5.51,8.391c1.652,2.129,3.544,4.23,6.061,5.192s5.132.849,6.466-.9" transform="translate(-261.167 -112.736)" fill="#ebebeb"/><path d="M634.77,332.76a5.186,5.186,0,0,0,.15-1.074c.076-.781.171-1.762.285-2.929a42.354,42.354,0,0,1,.659-4.3,33.122,33.122,0,0,1,1.562-5.071,18.693,18.693,0,0,1,2.59-4.589,9.67,9.67,0,0,1,3.274-2.722,9.155,9.155,0,0,1,2.757-.858,5.183,5.183,0,0,0,1.069-.155,5.04,5.04,0,0,0-1.088-.017,8.357,8.357,0,0,0-2.875.748,9.661,9.661,0,0,0-3.454,2.746,18.27,18.27,0,0,0-2.684,4.682,30.989,30.989,0,0,0-1.551,5.154,36.336,36.336,0,0,0-.571,4.351c-.093,1.244-.128,2.251-.145,2.948a5.037,5.037,0,0,0,.022,1.084" transform="translate(-279.631 -137.025)" fill="#e0e0e0"/><path d="M634.972,307.706a2.153,2.153,0,0,0,.029-.5c0-.374,0-.845,0-1.424,0-1.236,0-3.024.063-5.234.11-4.417.49-9.172,1.225-15.876.7-6.3,1.63-13.638,2.615-18.408.211-1.084.424-2.06.624-2.915s.354-1.595.512-2.192c.135-.563.245-1.021.333-1.385a.25.25,0,1,0-.086-.024l-.413,1.365c-.183.592-.372,1.326-.586,2.179s-.459,1.825-.69,2.908a161.621,161.621,0,0,0-2.749,17.08c-.736,6.717-1.067,12.833-1.1,17.263-.026,2.214.021,4.007.078,5.244.035.578.064,1.05.087,1.424a2.1,2.1,0,0,0,.06.495" transform="translate(-279.631 -114.225)" fill="#e0e0e0"/><path d="M622.782,298.749a9.5,9.5,0,0,0-.011-1.488c-.055-.956-.186-2.338-.455-4.031A53.034,53.034,0,0,0,621,287.357a48.106,48.106,0,0,0-2.456-6.95,37.026,37.026,0,0,0-7.213-11.231,18.249,18.249,0,0,0-1.7-1.577c-.26-.22-.49-.44-.724-.614l-.658-.454a9.473,9.473,0,0,0-1.253-.8,44.32,44.32,0,0,1,4.106,3.663,39.007,39.007,0,0,1,7.033,11.19,55.017,55.017,0,0,1,2.47,6.886c.644,2.158,1.071,4.143,1.395,5.815.307,1.676.485,3.044.592,3.991a9.617,9.617,0,0,0,.182,1.474" transform="translate(-267.411 -117.065)" fill="#e0e0e0"/><path d="M614.828,361.946l1.182,16.194h20.8L638,361.946Z" transform="translate(-270.859 -159.453)" fill="#e0e0e0"/><rect width="27.659" height="6.383" transform="translate(341.959 196.11)" fill="#e0e0e0"/><path d="M611.236,389.784v1.77h27.2v-1.77Z" transform="translate(-269.277 -171.717)" fill="#ebebeb"/><path d="M614.833,396.061l-1.274-3.114h24.912l-1.486,3.114Z" transform="translate(-270.3 -173.111)" fill="#e0e0e0"/><path d="M637.886,369.615a.7.7,0,0,1-.1.149l-.311.412-1.212,1.551-.054.069-.052-.072-2.977-4.118h.171l-2.931,4.151-.092.13-.1-.123-3.477-4.137.2,0-.191.24-3.109,3.9-.1.13-.1-.135-2.933-4.15.171.008-3.612,4.115-.064.073-.049-.082-1.131-1.9-.29-.506a.8.8,0,0,1-.088-.181.815.815,0,0,1,.121.161l.321.487,1.187,1.866-.113-.01,3.554-4.165.09-.105.081.113,2.96,4.131-.2-.006,3.1-3.9.191-.24.1-.124.1.121,3.467,4.144-.195.008,2.961-4.13.087-.121.084.121,2.915,4.162-.106,0,1.26-1.512.338-.39a.677.677,0,0,1,.125-.126" transform="translate(-271.135 -161.83)" fill="#f5f5f5"/><path d="M638.422,361.653c0,.072-5.213.129-11.642.129s-11.643-.058-11.643-.129,5.212-.129,11.643-.129,11.642.058,11.642.129" transform="translate(-270.995 -159.267)" fill="#f5f5f5"/><path d="M638.709,393.157c0,.072-5.665.13-12.652.13s-12.653-.058-12.653-.13,5.664-.129,12.653-.129,12.652.058,12.652.129" transform="translate(-270.232 -173.146)" fill="#f5f5f5"/><path d="M16.382,187.59s-4.239-.3-3.848,9.2a110.142,110.142,0,0,0,1.36,14.574s-.124,2.109-1.757,1.695-4.7-2.466-6.221-.931c-1.574,1.591-1.015,4.03,1.072,6.9s6.428,9.338,6.819,9.924.537,1.654-.62,1.55-8.97-2.752-10.005,1.031,6.1,10.834,6.86,11.619.806,1.282.5,1.757-2.853-.662-5.106-1.324-4.982-1.035-5.4,1.2,2.726,8.766,14.486,15.632l5.658,2.825,5.355-3.415c11.015-8.008,13.486-14.823,12.851-17s-3.313-1.536-5.489-.652S28.3,244.447,27.948,244s-.365-.939.318-1.8,7.07-8.587,5.663-12.247-8.917-.243-10.058-.025-1.1-.869-.773-1.48,4-7.488,5.792-10.556,2.1-5.552.377-6.978c-1.663-1.374-4.514.975-6.1,1.55s-1.918-1.51-1.918-1.51a110.155,110.155,0,0,0-.1-14.637c-.563-9.5-4.852-8.733-4.852-8.733" transform="translate(0 -82.635)" fill="#ebebeb"/><path d="M29.88,202.824s.011.067.023.2.026.334.045.583c.036.523.087,1.278.152,2.246.13,1.95.3,4.773.49,8.263.388,6.979.841,16.624,1.306,27.277s.895,20.3,1.243,27.282c.177,3.483.321,6.3.421,8.266.048.968.086,1.724.112,2.247.01.25.018.444.023.585s0,.2,0,.2-.012-.067-.023-.2-.026-.335-.045-.583c-.036-.524-.087-1.278-.153-2.246-.13-1.95-.3-4.773-.489-8.262-.388-6.979-.841-16.624-1.307-27.281s-.894-20.3-1.243-27.278c-.177-3.483-.321-6.3-.421-8.266-.048-.968-.086-1.724-.112-2.248-.01-.249-.018-.444-.023-.585s0-.2,0-.2" transform="translate(-13.163 -89.353)" fill="#e0e0e0"/><path d="M18.046,236.905a1.848,1.848,0,0,1,.352.293c.218.2.524.493.9.863.747.74,1.751,1.788,2.837,2.966l2.767,3.027.842.914a1.852,1.852,0,0,1,.295.35,1.844,1.844,0,0,1-.354-.29c-.217-.2-.523-.495-.893-.868-.74-.747-1.73-1.808-2.815-2.986l-2.788-3.006-.847-.91a1.86,1.86,0,0,1-.293-.352" transform="translate(-7.95 -104.367)" fill="#e0e0e0"/><path d="M33.331,244.107c-.043-.042,2.026-2.209,4.621-4.839s4.733-4.729,4.776-4.687-2.026,2.208-4.621,4.839-4.732,4.729-4.775,4.687" transform="translate(-14.684 -103.343)" fill="#e0e0e0"/><path d="M33.291,276.042a1.912,1.912,0,0,1,.394-.251l1.107-.622c.934-.525,2.222-1.253,3.612-2.109s2.628-1.667,3.518-2.263l1.056-.7a1.947,1.947,0,0,1,.4-.238,1.968,1.968,0,0,1-.354.307c-.236.186-.582.448-1.018.761-.869.629-2.094,1.467-3.493,2.322s-2.7,1.568-3.652,2.059c-.479.243-.868.436-1.141.561a1.935,1.935,0,0,1-.432.176" transform="translate(-14.666 -118.883)" fill="#e0e0e0"/><path d="M16.538,270.657a1.661,1.661,0,0,1,.39.184c.245.13.6.326,1.026.57.861.49,2.044,1.178,3.343,1.951s2.469,1.483,3.31,2.006c.42.261.759.477.99.629a1.642,1.642,0,0,1,.348.256,1.656,1.656,0,0,1-.391-.183c-.245-.13-.6-.325-1.025-.57-.862-.49-2.044-1.178-3.343-1.951s-2.469-1.483-3.31-2.006c-.421-.261-.76-.476-.991-.629a1.645,1.645,0,0,1-.348-.256" transform="translate(-7.285 -119.236)" fill="#e0e0e0"/><path d="M13.214,296.523a2.73,2.73,0,0,1,.5.241l1.316.727c1.107.622,2.629,1.493,4.3,2.467s3.184,1.867,4.271,2.523l1.282.785a2.712,2.712,0,0,1,.455.314,2.687,2.687,0,0,1-.5-.241l-1.316-.727c-1.107-.621-2.629-1.493-4.3-2.467s-3.184-1.866-4.271-2.522l-1.282-.785a2.679,2.679,0,0,1-.455-.314" transform="translate(-5.821 -130.631)" fill="#e0e0e0"/><path d="M34.456,302.235a3.13,3.13,0,0,1,.492-.33l1.375-.837c1.161-.707,2.76-1.689,4.5-2.822s3.285-2.194,4.4-2.971l1.323-.919a3.058,3.058,0,0,1,.5-.317,3.1,3.1,0,0,1-.45.384c-.3.237-.736.571-1.283.975-1.094.81-2.63,1.9-4.372,3.028s-3.355,2.1-4.537,2.772c-.592.336-1.074.6-1.411.779a3.118,3.118,0,0,1-.534.256" transform="translate(-15.179 -129.537)" fill="#e0e0e0"/><path d="M37.33,326.141H21.678l5.108,38.67h5.435Z" transform="translate(-9.55 -143.68)" fill="#e0e0e0"/><path d="M23.129,333.383c-.006,0,.017.055.084.138a.991.991,0,0,0,.377.27,1.9,1.9,0,0,0,1.653-.2,12.583,12.583,0,0,1,2.03-1.336,4.445,4.445,0,0,1,2.878.057,12.345,12.345,0,0,1,2.68,1.3,18.555,18.555,0,0,0,2.18,1.17,6.027,6.027,0,0,0,1.607.464,2.893,2.893,0,0,0,.454.031c.1,0,.158,0,.159-.013a8.2,8.2,0,0,1-2.147-.647,21.543,21.543,0,0,1-2.132-1.206,11.91,11.91,0,0,0-2.726-1.341,4.6,4.6,0,0,0-3.038-.033,4.005,4.005,0,0,0-1.144.707,8.875,8.875,0,0,1-.9.694,1.84,1.84,0,0,1-1.525.265,1.567,1.567,0,0,1-.5-.315" transform="translate(-10.189 -146.168)" fill="#f5f5f5"/><path d="M24.15,345.133c.021.013.124-.159.369-.415a3.488,3.488,0,0,1,1.25-.793,5.584,5.584,0,0,1,2.177-.328,22.974,22.974,0,0,1,2.723.371,9.357,9.357,0,0,0,2.789.116,7.671,7.671,0,0,0,2.194-.627,6.991,6.991,0,0,0,1.32-.784,1.875,1.875,0,0,0,.418-.376,14.071,14.071,0,0,1-1.81.995,8.011,8.011,0,0,1-2.15.558,9.6,9.6,0,0,1-2.72-.134,20.422,20.422,0,0,0-2.757-.354,5.508,5.508,0,0,0-2.251.4,3.292,3.292,0,0,0-1.257.893,2.255,2.255,0,0,0-.237.347c-.046.084-.066.13-.058.135" transform="translate(-10.638 -150.796)" fill="#f5f5f5"/><path d="M37.344,353.334a1.307,1.307,0,0,0-.431-.224,4.627,4.627,0,0,0-1.3-.279,8.284,8.284,0,0,0-1.961.112c-.73.118-1.512.319-2.334.494a9.834,9.834,0,0,1-2.331.263,5.077,5.077,0,0,1-1.851-.4,4.28,4.28,0,0,1-1.4-1.045,1.215,1.215,0,0,0,.265.408,3.3,3.3,0,0,0,1.062.8,4.985,4.985,0,0,0,1.916.472,9.386,9.386,0,0,0,2.394-.248c.831-.176,1.607-.384,2.322-.512a8.941,8.941,0,0,1,1.911-.163,7.188,7.188,0,0,1,1.739.322" transform="translate(-11.337 -155.184)" fill="#f5f5f5"/><path d="M26.623,363.054a2.536,2.536,0,0,1,1.519-.153,7.387,7.387,0,0,1,1.59.592,6.021,6.021,0,0,0,2.064.569,6.194,6.194,0,0,0,3.744-.868,5.307,5.307,0,0,0,.931-.717c.19-.2.288-.319.276-.331a13.728,13.728,0,0,1-1.3.892,6.416,6.416,0,0,1-3.631.769c-1.482-.084-2.619-.968-3.647-1.085a2.333,2.333,0,0,0-1.181.1.774.774,0,0,0-.369.229" transform="translate(-11.728 -159.541)" fill="#f5f5f5"/><path d="M28.181,375.334a3.006,3.006,0,0,0,1.305-.26c.787-.262,1.76-.866,2.9-1.318a4.717,4.717,0,0,1,1.663-.349,3.061,3.061,0,0,1,1.338.305,2.955,2.955,0,0,1,.967.834.717.717,0,0,0-.148-.33,2.151,2.151,0,0,0-.733-.664,3.073,3.073,0,0,0-1.419-.382,4.672,4.672,0,0,0-1.758.345c-1.179.47-2.121,1.091-2.873,1.389-.742.321-1.245.387-1.239.427" transform="translate(-12.415 -164.399)" fill="#f5f5f5"/><path d="M29.553,383.2a3.662,3.662,0,0,0,.991.322,18.168,18.168,0,0,0,4.989.49,3.653,3.653,0,0,0,1.035-.123c0-.077-1.586-.01-3.521-.2s-3.474-.56-3.493-.485" transform="translate(-13.019 -168.813)" fill="#f5f5f5"/></g><rect width="4.092" height="49.028" transform="translate(75.38 166.212)" fill="#455a64"/><g clip-path="url(#a)"><path d="M143.374,292.094H84.848a6.353,6.353,0,0,1,6.353-6.353h45.821a6.353,6.353,0,0,1,6.353,6.353" transform="translate(-37.379 -125.882)" fill="#455a64"/><path d="M139.16,297.2a21.511,21.511,0,0,1-3.591.151,21.507,21.507,0,0,1-3.59-.151,21.511,21.511,0,0,1,3.59-.151,21.515,21.515,0,0,1,3.591.151" transform="translate(-58.143 -130.865)" fill="#263238"/><path d="M142.056,378.5h-.579a17.412,17.412,0,1,0-34.823,0h-.579a17.991,17.991,0,1,1,35.981,0" transform="translate(-46.731 -158.822)" fill="#455a64"/><path d="M107.166,389.962a2.7,2.7,0,1,1-2.7-2.7,2.7,2.7,0,0,1,2.7,2.7" transform="translate(-44.835 -170.607)" fill="#263238"/><path d="M170.654,390.184a2.7,2.7,0,1,1-2.7-2.7,2.7,2.7,0,0,1,2.7,2.7" transform="translate(-72.804 -170.705)" fill="#455a64"/><path d="M142.544,384.612c0,.083-7.828.151-17.484.151s-17.485-.067-17.485-.151,7.827-.15,17.485-.15,17.484.067,17.484.15" transform="translate(-47.392 -169.373)" fill="#455a64"/><path d="M82.464,207.331v36.092a8.571,8.571,0,0,0,8.57,8.57h27.811l-3.777-44.662a3.819,3.819,0,0,0-3.82-3.819H86.283a3.819,3.819,0,0,0-3.819,3.819" transform="translate(-36.329 -89.656)" fill="#455a64"/><path d="M96.741,250.876a2.279,2.279,0,0,1-.309-.341c-.2-.228-.472-.579-.8-1.048a17.17,17.17,0,0,1-2.914-7.62,30.046,30.046,0,0,1-.145-3.85c0-2.708-.008-5.681-.012-8.8.017-6.233.032-11.874.043-15.991.02-2.024.035-3.672.046-4.846q.017-.827.027-1.318a2.74,2.74,0,0,1,.029-.459,2.689,2.689,0,0,1,.03.459q.01.492.027,1.318c.011,1.174.027,2.822.046,4.846.011,4.118.026,9.759.043,15.991,0,3.121-.008,6.093-.012,8.8a30.759,30.759,0,0,0,.116,3.821,17.079,17.079,0,0,0,.7,3.244,17.651,17.651,0,0,0,2.067,4.341c.314.476.573.836.755,1.076a3.438,3.438,0,0,1,.264.378" transform="translate(-40.776 -91.017)" fill="#263238"/><path d="M109.821,285.48a5.2,5.2,0,0,1-.884.063l-2.409.063c-2.034.041-4.843.077-7.947.1l-4.377.029a14.749,14.749,0,0,0-3.522.32,5.771,5.771,0,0,0-2.129,1.014c-.45.34-.652.586-.677.562-.008-.007.041-.069.139-.184a3.624,3.624,0,0,1,.467-.467,5.53,5.53,0,0,1,2.147-1.125,14.158,14.158,0,0,1,3.57-.389c1.342-.035,2.824-.036,4.376-.051,3.106-.022,5.917-.026,7.953-.014l2.41.029a5.156,5.156,0,0,1,.884.05" transform="translate(-38.713 -125.729)" fill="#263238"/><path d="M231.473,165.633l-2.713,2.785-5.434-5.788,1.807-3.093c.1-.394.2-.835.291-1.337a5.361,5.361,0,0,0,.033-1.776,8.182,8.182,0,0,0-.534-2.143c-.313-.6.247-1.276.791-1.005s1.443,1.906,1.572,4.092,2.087-.6,2.819-1.6,3.139-3.991,3.619-4c.7-.016.855.754.1,1.737s-2.81,4.094-2.274,4.468l.021,0a2.646,2.646,0,0,1,2.688,1.507c.465.987.973,2.38.493,2.983a34.739,34.739,0,0,1-3.28,3.175" transform="translate(-98.385 -66.86)" fill="#b78876"/><path d="M207.965,171.185l-19.508,16.061,7.835,10.941L213.4,176.973Z" transform="translate(-83.024 -75.415)" fill="#b78876"/><path d="M237.858,163.386a7.3,7.3,0,0,1-.973,1.09l-1.112,1.125-.665.658a1.406,1.406,0,0,1-.975.49.689.689,0,0,1-.534-.313.922.922,0,0,1-.142-.559,1.569,1.569,0,0,1,.457-.9,14.284,14.284,0,0,1,1.14-1.114,5.123,5.123,0,0,1,1.18-.868,12.516,12.516,0,0,1-1.04,1.019c-.318.313-.692.7-1.077,1.14a1.345,1.345,0,0,0-.374.738.494.494,0,0,0,.41.564,1.177,1.177,0,0,0,.758-.406l.675-.643,1.155-1.08a7.3,7.3,0,0,1,1.116-.942" transform="translate(-102.848 -71.806)" fill="#aa6550"/><path d="M239.323,165.706a6.706,6.706,0,0,1-.933,1.051l-1.069,1.083c-.208.2-.4.415-.655.632a1.584,1.584,0,0,1-.442.272.767.767,0,0,1-.585,0,.849.849,0,0,1-.417-.993,1.945,1.945,0,0,1,.509-.81,14.34,14.34,0,0,1,1.1-1.064,4.862,4.862,0,0,1,1.138-.83,10.944,10.944,0,0,1-1,.981c-.308.3-.666.667-1.042,1.093a1.74,1.74,0,0,0-.431.7.574.574,0,0,0,.255.657c.226.1.509-.046.731-.229s.44-.412.648-.6l1.112-1.038a6.774,6.774,0,0,1,1.076-.9" transform="translate(-103.613 -72.712)" fill="#aa6550"/><path d="M240.937,167.88a6.241,6.241,0,0,1-.892,1.011l-1.024,1.039a4.338,4.338,0,0,1-.664.591,1.064,1.064,0,0,1-.488.181.688.688,0,0,1-.542-.193.933.933,0,0,1-.157-1.021,2.532,2.532,0,0,1,.535-.732,14.246,14.246,0,0,1,1.063-1.014,4.562,4.562,0,0,1,1.1-.791,9.7,9.7,0,0,1-.957.943c-.3.288-.641.638-1,1.044a2.366,2.366,0,0,0-.468.657.655.655,0,0,0,.1.705.527.527,0,0,0,.672-.022,4.487,4.487,0,0,0,.629-.543l1.067-.995a6.189,6.189,0,0,1,1.036-.863" transform="translate(-104.448 -73.549)" fill="#aa6550"/><path d="M231.537,170.749a6.324,6.324,0,0,1,.131-.822,4.122,4.122,0,0,0-1.245-3.559c-.363-.352-.637-.521-.614-.561s.331.076.751.407a3.755,3.755,0,0,1,1.312,3.749,1.563,1.563,0,0,1-.334.786" transform="translate(-101.24 -73.043)" fill="#aa6550"/><path d="M136.085,184.628l2.909,29.223-35.9.783.195-23.525-2.6-20.288c1.7-9.491,15.009-10.144,15.009-10.144l10.442-.169a18.37,18.37,0,0,1,10.272,2.279s10.6,5.77,10.5,20.43" transform="translate(-44.361 -70.684)" fill="#a3314f"/><path d="M101.42,168.69c-3.132,2.995-6.167,9.006-5.042,21.042l16.694-.689-.43-16.467a5.561,5.561,0,0,0-2.153-4.251,6.976,6.976,0,0,0-9.069.365" transform="translate(-42.354 -73.495)" fill="#a3314f"/><path d="M140.248,247.081a1.584,1.584,0,0,1-.3.222,4.793,4.793,0,0,1-.97.455,7.641,7.641,0,0,1-3.908.151c-1.646-.3-3.465-1.114-5.559-1.669a18.7,18.7,0,0,0-7-.435,27.09,27.09,0,0,0-6.76,2,21.064,21.064,0,0,1-5.6,1.564,9.177,9.177,0,0,1-3.9-.382,6.516,6.516,0,0,1-.976-.439,1.752,1.752,0,0,1-.313-.2c.015-.029.45.251,1.324.533a9.481,9.481,0,0,0,3.841.284,21.543,21.543,0,0,0,5.526-1.608,26.635,26.635,0,0,1,6.821-2.044,18.637,18.637,0,0,1,7.1.464c1.066.277,2.041.648,2.957.966a21.047,21.047,0,0,0,2.576.761,6.693,6.693,0,0,0,5.136-.627" transform="translate(-46.242 -108.095)" fill="#fafafa"/><g transform="translate(58.777 133.377)" opacity="0.2"><g clip-path="url(#d)"><path d="M105.063,243.806a1.791,1.791,0,0,0,.143.115,13.24,13.24,0,0,0,13.878,1.333c1.685-.867,3.187-2.109,4.98-2.721,2.548-.869,5.33-.364,7.989.06s5.832.711,8.237-.5l-.314-3.689-34.826.909" transform="translate(-105.062 -238.405)"/></g></g><path d="M160.723,390.728l-.086-3.493-9.336.323.052,5.451.577.038c2.567.148,13.062.57,14.779.053,1.915-.577-5.986-2.372-5.986-2.372" transform="translate(-66.655 -170.594)" fill="#e8505b"/><g transform="translate(84.672 219.641)" opacity="0.5"><g clip-path="url(#e)"><path d="M154.746,395.306a3.283,3.283,0,0,0-1.123-2.044,2.714,2.714,0,0,0-2.276-.631l.036,2.609Z" transform="translate(-151.347 -392.598)" fill="#fff"/></g></g><g transform="translate(84.698 221.148)" opacity="0.5"><g clip-path="url(#f)"><path d="M164.624,395.292s2.768.8,2.422,1.26-10.968.429-15.651.007l.015-.208,12.389.137s.284-1.175.826-1.2" transform="translate(-151.394 -395.292)" fill="#fff"/></g></g><path d="M151.161,397.17a.836.836,0,0,0,.16.018l.459.029,1.691.077c1.428.055,3.4.1,5.582.112s4.155-.03,5.583-.076l1.692-.066.459-.026a.873.873,0,0,0,.16-.017.894.894,0,0,0-.161-.006l-.46.005-1.691.03c-1.429.025-3.4.049-5.582.042s-4.152-.044-5.58-.079l-1.692-.041-.46-.008a.843.843,0,0,0-.16.005" transform="translate(-66.593 -174.969)" fill="#263238"/><path d="M173.548,396.542a2.46,2.46,0,0,1,.9-1.452,1.5,1.5,0,0,0-.9,1.452" transform="translate(-76.449 -174.053)" fill="#263238"/><path d="M168.657,394.577c.026.017.158-.143.294-.356s.225-.4.2-.417-.158.143-.294.356-.225.4-.2.417" transform="translate(-74.299 -173.488)" fill="#263238"/><path d="M167.314,394.059c.021.023.168-.074.328-.218s.274-.279.253-.3-.168.074-.328.218-.274.279-.253.3" transform="translate(-73.708 -173.37)" fill="#263238"/><path d="M166.469,392.861a2.117,2.117,0,1,0,.487-.05,1.093,1.093,0,0,0-.487.05" transform="translate(-73.337 -173.051)" fill="#263238"/><path d="M166.18,391.785a1.366,1.366,0,0,0,1.1.086,3.037,3.037,0,0,0-.551-.039,2.937,2.937,0,0,0-.55-.046" transform="translate(-73.209 -172.595)" fill="#263238"/><path d="M169.229,393.081a1.71,1.71,0,0,0,.6,0,3.523,3.523,0,0,0,.637-.139,1.735,1.735,0,0,0,.365-.149.324.324,0,0,0,.148-.185.235.235,0,0,0-.09-.239,1.1,1.1,0,0,0-1.357.317,1.073,1.073,0,0,0-.2.4.343.343,0,0,0-.016.161,1.7,1.7,0,0,1,.274-.509,1.081,1.081,0,0,1,.511-.331.928.928,0,0,1,.712.05c.095.07.058.182-.048.245a1.807,1.807,0,0,1-.336.143,4.142,4.142,0,0,1-.616.158c-.359.063-.586.063-.586.081" transform="translate(-74.553 -172.803)" fill="#263238"/><path d="M168.892,392.879a.592.592,0,0,0,.07-.415.973.973,0,0,0-.162-.437.6.6,0,0,0-.5-.306.238.238,0,0,0-.185.276.647.647,0,0,0,.1.267,1.787,1.787,0,0,0,.281.362.861.861,0,0,0,.341.243c.011-.015-.119-.107-.283-.3a2.1,2.1,0,0,1-.25-.359c-.082-.127-.137-.354.013-.38s.3.135.393.255a.982.982,0,0,1,.168.389,2.192,2.192,0,0,1,.009.4" transform="translate(-74.062 -172.57)" fill="#263238"/><path d="M151.511,392.577c0,.021.266-.025.687.026a2.915,2.915,0,0,1,2.431,1.949c.141.4.154.667.175.665a.531.531,0,0,0,0-.187,2.444,2.444,0,0,0-.1-.5,2.829,2.829,0,0,0-2.5-2,2.443,2.443,0,0,0-.512.012.545.545,0,0,0-.183.041" transform="translate(-66.747 -172.921)" fill="#263238"/><path d="M159.52,395.813a7.653,7.653,0,0,0,2.718.033c0-.033-.61,0-1.359-.007s-1.355-.058-1.359-.026" transform="translate(-70.276 -174.369)" fill="#263238"/><path d="M156.258,395.805c-.023.023.049.129.111.269s.1.263.127.261.048-.147-.025-.308-.194-.244-.214-.222" transform="translate(-68.837 -174.368)" fill="#263238"/><path d="M155.033,394.274c-.022.022.037.119.134.217s.191.159.214.138-.037-.119-.134-.216-.191-.159-.214-.138" transform="translate(-68.297 -173.693)" fill="#263238"/><path d="M153.281,393.532c.007.031.13.031.266.079s.235.121.26.1-.053-.149-.223-.207-.313,0-.3.027" transform="translate(-67.527 -173.345)" fill="#263238"/><path d="M152.03,393.224c-.011.029.042.077.119.107s.149.031.16,0-.042-.077-.119-.107-.149-.031-.16,0" transform="translate(-66.975 -173.224)" fill="#263238"/><g transform="translate(84.646 218.376)" opacity="0.3"><g clip-path="url(#g)"><path d="M151.322,391.113l9.385-.395v-.381H151.3Z" transform="translate(-151.301 -390.337)"/></g></g><path d="M215.263,389.774l-.087-3.574-9.556.331.053,5.579.59.039c2.627.151,13.368.582,15.125.054,1.96-.591-6.126-2.428-6.126-2.428" transform="translate(-90.585 -170.138)" fill="#e8505b"/><g transform="translate(115.061 219.132)" opacity="0.5"><g clip-path="url(#h)"><path d="M209.146,394.459A3.362,3.362,0,0,0,208,392.367a2.778,2.778,0,0,0-2.33-.646l.037,2.67Z" transform="translate(-205.667 -391.688)" fill="#fff"/></g></g><g transform="translate(115.088 220.675)" opacity="0.5"><g clip-path="url(#i)"><path d="M219.255,394.446s2.834.823,2.479,1.29-11.225.439-16.019.007l.016-.213,12.68.14s.29-1.2.845-1.224" transform="translate(-205.715 -394.446)" fill="#fff"/></g></g><path d="M205.476,396.368a.92.92,0,0,0,.163.018l.47.029,1.73.079c1.461.057,3.482.107,5.713.115s4.253-.031,5.715-.077l1.73-.068.471-.026a.859.859,0,0,0,.163-.017.932.932,0,0,0-.164-.006l-.47.005-1.732.031c-1.462.026-3.481.05-5.713.044s-4.25-.046-5.711-.081l-1.731-.042-.471-.008a.879.879,0,0,0-.164.005" transform="translate(-90.521 -174.616)" fill="#263238"/><path d="M228.389,395.725a2.513,2.513,0,0,1,.917-1.486,1.54,1.54,0,0,0-.917,1.486" transform="translate(-100.608 -173.678)" fill="#263238"/><path d="M223.383,393.714c.027.017.162-.146.3-.365s.231-.41.2-.426-.162.146-.3.364-.23.41-.2.427" transform="translate(-98.408 -173.1)" fill="#263238"/><path d="M222.009,393.184c.021.024.172-.076.336-.223s.28-.285.259-.309-.172.076-.336.223-.28.285-.259.309" transform="translate(-97.804 -172.979)" fill="#263238"/><path d="M221.144,391.957a1.117,1.117,0,0,0,.5.064,1.132,1.132,0,0,0,.5-.05,2.165,2.165,0,0,0-.995-.014" transform="translate(-97.424 -172.652)" fill="#263238"/><path d="M220.848,390.856a1.4,1.4,0,0,0,1.127.088,3.07,3.07,0,0,0-.564-.04,3.023,3.023,0,0,0-.563-.048" transform="translate(-97.293 -172.186)" fill="#263238"/><path d="M223.968,392.183a1.772,1.772,0,0,0,.611,0,3.566,3.566,0,0,0,.652-.142,1.781,1.781,0,0,0,.374-.153.332.332,0,0,0,.152-.19.239.239,0,0,0-.092-.245,1.122,1.122,0,0,0-1.389.325,1.09,1.09,0,0,0-.2.408.341.341,0,0,0-.016.165,1.73,1.73,0,0,1,.28-.521,1.1,1.1,0,0,1,.523-.339.949.949,0,0,1,.73.051c.1.072.059.186-.05.251a1.875,1.875,0,0,1-.344.146,4.219,4.219,0,0,1-.631.162c-.366.064-.6.064-.6.083" transform="translate(-98.668 -172.398)" fill="#263238"/><path d="M223.624,391.976a.6.6,0,0,0,.072-.425,1,1,0,0,0-.166-.448.615.615,0,0,0-.509-.313.244.244,0,0,0-.189.282.672.672,0,0,0,.1.274,1.837,1.837,0,0,0,.288.37.894.894,0,0,0,.35.249c.011-.015-.121-.11-.29-.3a2.128,2.128,0,0,1-.255-.368c-.084-.13-.14-.362.013-.389s.309.138.4.261a1.013,1.013,0,0,1,.172.4,2.232,2.232,0,0,1,.009.412" transform="translate(-98.166 -172.161)" fill="#263238"/><path d="M205.835,391.667c0,.021.272-.025.7.027a2.981,2.981,0,0,1,2.488,1.994c.144.408.158.683.179.68a.55.55,0,0,0,0-.192,2.525,2.525,0,0,0-.1-.514,2.893,2.893,0,0,0-2.558-2.05,2.542,2.542,0,0,0-.524.012.564.564,0,0,0-.187.043" transform="translate(-90.68 -172.519)" fill="#263238"/><path d="M214.032,394.979a7.819,7.819,0,0,0,2.782.034c0-.034-.625,0-1.391-.007s-1.387-.06-1.391-.026" transform="translate(-94.291 -174.001)" fill="#263238"/><path d="M210.692,394.971c-.023.024.05.132.114.275s.1.27.13.267.05-.15-.025-.314-.2-.251-.219-.228" transform="translate(-92.818 -174.001)" fill="#263238"/><path d="M209.439,393.4c-.023.022.039.121.137.222s.2.163.219.141-.039-.121-.137-.222-.2-.163-.219-.141" transform="translate(-92.265 -173.31)" fill="#263238"/><path d="M207.646,392.645c.007.032.133.031.273.081s.24.124.265.1-.054-.153-.228-.212-.319,0-.31.028" transform="translate(-91.477 -172.954)" fill="#263238"/><path d="M206.366,392.33c-.012.03.043.079.122.11s.152.032.164,0-.043-.079-.122-.11-.152-.032-.164,0" transform="translate(-90.913 -172.829)" fill="#263238"/><g transform="translate(115.035 217.837)" opacity="0.3"><g clip-path="url(#j)"><path d="M205.641,390.168l9.606-.4v-.389H205.62Z" transform="translate(-205.62 -389.374)"/></g></g><path d="M178.527,256.139l-38.138-.478,7.972,17.932,21.874.168a2.764,2.764,0,0,1,2.741,2.646l2.35,54.846,14.753-1.117-1.492-62.785a11.581,11.581,0,0,0-10.061-11.212" transform="translate(-61.848 -112.63)" fill="#263238"/><path d="M126.681,275.052,128.3,331.7l18.3-1.3s-1.009-53.426-2.377-68.094c-.937-10.04-39.241-5.723-39.241-5.723-.556,19.986,21.7,18.475,21.7,18.475" transform="translate(-46.243 -112.627)" fill="#263238"/><path d="M143.338,282.411a21.8,21.8,0,0,1,.29,5.106,21.723,21.723,0,0,1-.29-5.106" transform="translate(-63.119 -124.415)" fill="#455a64"/><path d="M142.195,255.834a1.327,1.327,0,0,1,.326-.013l.933.02c.81.025,1.982.063,3.429.144s3.172.209,5.074.492a14.887,14.887,0,0,1,5.88,2.111,6.719,6.719,0,0,1,1.261,1.1,4.306,4.306,0,0,1,.824,1.413,14.363,14.363,0,0,1,.6,2.97,49.148,49.148,0,0,1,.212,5.095c0,1.417,0,2.577,0,3.429,0,.378.006.686.008.932a1.359,1.359,0,0,1-.015.327,1.3,1.3,0,0,1-.046-.323c-.021-.213-.045-.527-.064-.932-.044-.81-.07-1.983-.1-3.431s-.056-3.173-.275-5.066a14.387,14.387,0,0,0-.608-2.9,4.844,4.844,0,0,0-1.976-2.356,14.883,14.883,0,0,0-5.752-2.086c-1.885-.3-3.6-.444-5.045-.554l-3.422-.24-.93-.077a1.354,1.354,0,0,1-.323-.047" transform="translate(-62.643 -112.7)" fill="#455a64"/><path d="M96.567,197.425a1.124,1.124,0,0,0,.292.013l.834-.017,3.066-.114c2.589-.109,6.163-.278,10.11-.482l2.023-.106.133-.007v-.133c-.018-3.455-.035-6.511-.047-8.753-.017-1.07-.032-1.945-.043-2.594-.01-.279-.018-.51-.024-.7a.861.861,0,0,0-.026-.243.862.862,0,0,0-.026.243c-.006.19-.015.42-.024.7-.011.649-.025,1.523-.043,2.594-.012,2.242-.029,5.3-.047,8.753l.133-.14-2.024.1c-3.946.2-7.52.405-10.1.564l-3.061.2-.831.069a1.148,1.148,0,0,0-.289.044" transform="translate(-42.542 -81.188)" fill="#263238"/><path d="M110.416,165.223a10.378,10.378,0,0,1,1.947-.06,6.906,6.906,0,0,1,4.129,1.979,8.2,8.2,0,0,1,2.12,4.1c.239,1.184.191,1.945.244,1.944a1.718,1.718,0,0,0,.057-.53,7.721,7.721,0,0,0-.1-1.45,7.922,7.922,0,0,0-2.116-4.266,6.777,6.777,0,0,0-4.314-1.979,5.356,5.356,0,0,0-1.455.1,1.62,1.62,0,0,0-.509.161" transform="translate(-48.643 -72.669)" fill="#263238"/><path d="M163.882,180.488a8.615,8.615,0,0,0-.1,1.579c-.024.98-.031,2.352,0,3.854.031,1.425.06,2.713.083,3.77.007.6.012,1.034.017,1.464.005-.487.01-.979.017-1.66.023-1.057.051-2.347.083-3.773.029-1.442.022-2.737,0-3.687a8.393,8.393,0,0,0-.1-1.545" transform="translate(-72.145 -79.513)" fill="#263238"/><path d="M100.035,207.35l.4,16.457a6.26,6.26,0,0,0,7.585,5.779L132.9,222.7l1.87-9.193L111.5,217.977l-.3-11.186Z" transform="translate(-44.07 -91.101)" fill="#b78876"/><path d="M115.758,230.713a1.434,1.434,0,0,1-.081-.788,3.817,3.817,0,0,1,2.04-3.1c.44-.224.745-.27.755-.237a4.757,4.757,0,0,0-2.715,4.12" transform="translate(-50.958 -99.82)" fill="#aa6550"/><path d="M112.33,188.046c.01,0,0,.07-.019.2a3.731,3.731,0,0,1-.143.558,4.838,4.838,0,0,1-1.131,1.784,4.933,4.933,0,0,1-2.779,1.434,8.334,8.334,0,0,1-3.788-.575,14.408,14.408,0,0,0-3.639-.927,5.049,5.049,0,0,0-2.9.716A5.386,5.386,0,0,0,96.4,192.6c-.3.391-.42.636-.444.623s.015-.069.069-.189a3.574,3.574,0,0,1,.283-.5,5.055,5.055,0,0,1,1.517-1.47,5.144,5.144,0,0,1,3.022-.809,13.971,13.971,0,0,1,3.716.919,8.293,8.293,0,0,0,3.659.585,4.824,4.824,0,0,0,2.673-1.316,5.123,5.123,0,0,0,1.169-1.678c.185-.453.239-.723.267-.717" transform="translate(-42.271 -82.843)" fill="#fafafa"/><path d="M113.92,169.826c.013.012-.084.149-.288.371a6.945,6.945,0,0,1-.957.849,8.217,8.217,0,0,1-8.062.991,7.013,7.013,0,0,1-1.134-.591c-.252-.167-.379-.275-.369-.29.027-.045.581.328,1.577.69a8.636,8.636,0,0,0,7.869-.967c.878-.592,1.326-1.089,1.363-1.052" transform="translate(-45.425 -74.815)" fill="#fafafa"/><path d="M155.488,179.286a4.936,4.936,0,0,0-.878-.856,4.883,4.883,0,0,0-3.167-.8,10.05,10.05,0,0,0-4.553,1.843c-.8.5-1.617,1.067-2.526,1.57a9.736,9.736,0,0,1-3.005,1.147,6.089,6.089,0,0,1-3.206-.305,15.079,15.079,0,0,1-2.671-1.341,13.278,13.278,0,0,0-4.5-2.069,4.631,4.631,0,0,0-3.208.554,4.5,4.5,0,0,0-.913.815,1.228,1.228,0,0,1,.172-.275,3.176,3.176,0,0,1,.679-.636,4.653,4.653,0,0,1,3.3-.662,13.116,13.116,0,0,1,4.6,2.043,15.2,15.2,0,0,0,2.629,1.3,5.839,5.839,0,0,0,3.061.288,9.553,9.553,0,0,0,2.918-1.11c.894-.491,1.714-1.049,2.52-1.548a10.075,10.075,0,0,1,4.684-1.822,4.88,4.88,0,0,1,3.247.913,3.175,3.175,0,0,1,.648.666,1.384,1.384,0,0,1,.163.28" transform="translate(-55.889 -78.161)" fill="#fafafa"/><path d="M156.935,164.993a4.246,4.246,0,0,1-1.178.688,10.608,10.608,0,0,1-6.471.7,4.234,4.234,0,0,1-1.3-.419,13.417,13.417,0,0,0,8.946-.973" transform="translate(-65.196 -72.684)" fill="#fafafa"/><path d="M140.11,208.489c-.02.022-.223-.2-.672-.463a4.581,4.581,0,0,0-2.1-.591,7.466,7.466,0,0,0-3.191.617c-1.158.449-2.354,1.137-3.707,1.686a13.252,13.252,0,0,1-7.317.934,8.473,8.473,0,0,1-2.147-.7,5.526,5.526,0,0,1-.537-.3c-.12-.072-.18-.115-.175-.123a12.215,12.215,0,0,0,2.894.915,13.617,13.617,0,0,0,7.172-1c1.327-.537,2.533-1.22,3.719-1.665a7.444,7.444,0,0,1,3.3-.573,4.438,4.438,0,0,1,2.148.7,2.806,2.806,0,0,1,.476.393c.1.1.143.159.136.166" transform="translate(-52.982 -91.285)" fill="#fafafa"/><path d="M134.776,147.956h0a5.954,5.954,0,0,0,5.953-6.023c-.022-2.069-.057-3.859-.057-3.859s4.785-.444,5.136-5.179.2-15.666.2-15.666a16.5,16.5,0,0,0-16.676,1.059l-.736.5.227,23.275a5.953,5.953,0,0,0,5.953,5.895" transform="translate(-56.652 -50.865)" fill="#b78876"/><path d="M145.423,154.08a11.04,11.04,0,0,1-6.069-2.137s1.25,3.5,6,3.365Z" transform="translate(-61.392 -66.938)" fill="#aa6550"/><path d="M128.623,130.742c-.088-.033-3-.412-2.723,3.025s3.654,2.022,3.653,1.923-.93-4.948-.93-4.948" transform="translate(-55.457 -57.585)" fill="#b78876"/><path d="M129.1,135.5c-.016-.01-.057.047-.154.1a.6.6,0,0,1-.447.045,1.486,1.486,0,0,1-.792-1.274,1.984,1.984,0,0,1,.1-.871.694.694,0,0,1,.413-.5.306.306,0,0,1,.366.136c.054.092.037.163.056.167s.069-.063.03-.2a.38.38,0,0,0-.152-.2.454.454,0,0,0-.338-.061.843.843,0,0,0-.582.582,2.038,2.038,0,0,0-.131.975,1.559,1.559,0,0,0,.992,1.414.644.644,0,0,0,.54-.135c.1-.093.111-.172.1-.177" transform="translate(-56.148 -58.519)" fill="#aa6550"/><path d="M143.86,112.932c1.17-.289,1.592-2.04,1.549-3.245a3.345,3.345,0,0,0-1.971-2.813,4.332,4.332,0,0,0-3.509.057,3.789,3.789,0,0,0-7.479.208c-.115-.915-1.149-1.425-2.069-1.481a3.034,3.034,0,0,0-2.5.916,1.866,1.866,0,0,0,.022,2.5,4.221,4.221,0,0,0-2.941.7,3.1,3.1,0,0,0-1.307,2.659,2.468,2.468,0,0,0,1.851,2.212c.347.072.434-.162.621.14a3,3,0,0,1,.135.992,13.493,13.493,0,0,0,.193,3.243,1.321,1.321,0,0,1,1.653.738,3.842,3.842,0,0,1,.187,1.983c.291.439,1.028.309,1.346-.111a2.518,2.518,0,0,0,.345-1.514q.034-2.742.069-5.482a1.818,1.818,0,0,0,2.7-1.5,3.62,3.62,0,0,0,5.571-.68,8.645,8.645,0,0,0,1.8,1.2,2.912,2.912,0,0,0,2.107.181c.683-.236,1.641-.181,1.63-.9" transform="translate(-54.473 -45.75)" fill="#263238"/><path d="M156.441,131.7a.665.665,0,0,1-.641.67.636.636,0,0,1-.685-.6.665.665,0,0,1,.64-.67.636.636,0,0,1,.685.6" transform="translate(-68.335 -57.755)" fill="#263238"/><path d="M155.677,130.288c-.082.087-.586-.286-1.3-.284s-1.239.359-1.316.271c-.038-.039.046-.195.275-.361a1.822,1.822,0,0,1,1.053-.325,1.75,1.75,0,0,1,1.035.334c.219.169.294.326.253.364" transform="translate(-67.426 -57.09)" fill="#263238"/><path d="M143.93,132a.664.664,0,0,1-.641.67.635.635,0,0,1-.684-.6.664.664,0,0,1,.639-.67.636.636,0,0,1,.685.6" transform="translate(-62.824 -57.887)" fill="#263238"/><path d="M143.119,130.526c-.082.087-.586-.286-1.3-.284s-1.239.359-1.316.271c-.038-.039.045-.195.274-.361a1.819,1.819,0,0,1,1.053-.325,1.752,1.752,0,0,1,1.035.334c.219.169.294.326.254.364" transform="translate(-61.894 -57.195)" fill="#263238"/><path d="M149.56,135.861a4.707,4.707,0,0,1,1.161-.209c.182-.019.355-.055.386-.18a.93.93,0,0,0-.122-.541q-.257-.662-.54-1.39a23.9,23.9,0,0,1-1.212-3.635,23.883,23.883,0,0,1,1.5,3.529l.518,1.4a1.059,1.059,0,0,1,.095.716.458.458,0,0,1-.3.267,1.239,1.239,0,0,1-.31.043,4.629,4.629,0,0,1-1.177,0" transform="translate(-65.74 -57.229)" fill="#263238"/><path d="M145.971,141.434c.116-.007.117.769.782,1.32s1.49.465,1.5.573c.011.049-.184.151-.533.161a1.932,1.932,0,0,1-1.249-.435,1.685,1.685,0,0,1-.606-1.107c-.03-.324.057-.516.11-.512" transform="translate(-64.256 -62.308)" fill="#263238"/><path d="M142.948,125.647c-.07.194-.784.1-1.622.2-.841.084-1.517.33-1.628.156-.05-.083.068-.266.341-.454a2.842,2.842,0,0,1,2.477-.273c.308.124.463.276.432.369" transform="translate(-61.538 -55.117)" fill="#263238"/><path d="M155.358,126.557c-.126.162-.618-.006-1.21-.014-.592-.029-1.093.109-1.209-.061-.05-.082.029-.245.248-.4a1.751,1.751,0,0,1,1.949.06c.209.167.278.334.223.413" transform="translate(-67.37 -55.428)" fill="#263238"/><path d="M123.106,115.078a1.286,1.286,0,0,0,.222.509,2.426,2.426,0,0,0,1.39.745,5.5,5.5,0,0,0,2.527.1,2.925,2.925,0,0,0,1.363-.737,1.569,1.569,0,0,0,.515-1.531.745.745,0,0,0-.639-.495.509.509,0,0,0-.579.481,1.738,1.738,0,0,0,1.119,1.537,2.667,2.667,0,0,0,2.149.02,4.429,4.429,0,0,0,1.826-1.48,2.072,2.072,0,0,0,.429-1.094.83.83,0,0,0-.6-.848,1.075,1.075,0,0,0-1.08.282,1.387,1.387,0,0,0-.3,1.15,2.329,2.329,0,0,0,1.817,1.69,3.822,3.822,0,0,0,2.687-.3,3.592,3.592,0,0,0,1.814-1.98,1.362,1.362,0,0,0-.1-1.221.763.763,0,0,0-1.017-.3,1.065,1.065,0,0,0-.509,1.014,2.045,2.045,0,0,0,.507,1.115,3.53,3.53,0,0,0,2.112,1.2,3.316,3.316,0,0,0,3.674-2.067,1.318,1.318,0,0,0-.773-1.624,1.127,1.127,0,0,0-1.343.908,2.014,2.014,0,0,0,.4,1.622,2.587,2.587,0,0,0,1.262.878,2.316,2.316,0,0,0,1.341.03,2.408,2.408,0,0,0,.986-.572,2.625,2.625,0,0,0,.768-1.384c.069-.364.043-.563.059-.563a1.666,1.666,0,0,1,0,.573,2.623,2.623,0,0,1-.746,1.455,2.511,2.511,0,0,1-1.025.624,2.452,2.452,0,0,1-1.429-.008,2.745,2.745,0,0,1-1.361-.921,2.2,2.2,0,0,1-.457-1.781,1.474,1.474,0,0,1,.55-.867,1.184,1.184,0,0,1,1.059-.21,1.549,1.549,0,0,1,.942,1.9,3.1,3.1,0,0,1-1.5,1.812,3.738,3.738,0,0,1-2.451.46,3.8,3.8,0,0,1-2.283-1.288,2.317,2.317,0,0,1-.575-1.273,1.348,1.348,0,0,1,.65-1.284.984.984,0,0,1,.777-.089,1.2,1.2,0,0,1,.617.469,1.648,1.648,0,0,1,.137,1.475,3.875,3.875,0,0,1-1.96,2.151,4.11,4.11,0,0,1-2.893.317,3.286,3.286,0,0,1-1.293-.671,2.1,2.1,0,0,1-.73-1.255,1.666,1.666,0,0,1,.379-1.385,1.35,1.35,0,0,1,1.367-.357,1.085,1.085,0,0,1,.6.426,1.175,1.175,0,0,1,.2.694,2.323,2.323,0,0,1-.485,1.245,4.676,4.676,0,0,1-1.947,1.561,2.917,2.917,0,0,1-2.347-.038,2.4,2.4,0,0,1-.9-.716,1.544,1.544,0,0,1-.344-1.066.775.775,0,0,1,.27-.519.745.745,0,0,1,.553-.151.957.957,0,0,1,.813.641,1.751,1.751,0,0,1-.58,1.73,3.086,3.086,0,0,1-1.455.764,5.524,5.524,0,0,1-2.593-.147,2.427,2.427,0,0,1-1.41-.821,1.022,1.022,0,0,1-.168-.4.484.484,0,0,1-.007-.147" transform="translate(-54.232 -48.896)" fill="#455a64"/><path d="M135.962,213.413h43.4l7.155-27.713H150.305l-5.732,25.908-8.611.2Z" transform="translate(-59.898 -81.809)" fill="#e0e0e0"/></g><rect width="4.092" height="49.028" transform="translate(293.14 165.002)" fill="#455a64"/><g clip-path="url(#a)"><path d="M475.878,293.9H534.4a6.353,6.353,0,0,0-6.353-6.353H482.231a6.353,6.353,0,0,0-6.353,6.353" transform="translate(-209.646 -126.676)" fill="#263238"/><path d="M520.525,299.007a42.906,42.906,0,0,0,7.181,0,42.906,42.906,0,0,0-7.181,0" transform="translate(-229.314 -131.659)" fill="#263238"/><path d="M495.637,376.342h.579a17.412,17.412,0,1,1,34.823,0h.579a17.991,17.991,0,1,0-35.981,0" transform="translate(-218.35 -157.87)" fill="#455a64"/><path d="M554.613,389.981a2.7,2.7,0,1,0,2.7-2.7,2.7,2.7,0,0,0-2.7,2.7" transform="translate(-244.332 -170.616)" fill="#263238"/><path d="M491.091,389.317a2.7,2.7,0,1,0,2.7-2.7,2.7,2.7,0,0,0-2.7,2.7" transform="translate(-216.348 -170.323)" fill="#455a64"/><path d="M495.947,382.45c0,.083,7.828.151,17.484.151s17.485-.067,17.485-.151-7.827-.151-17.485-.151-17.484.067-17.484.151" transform="translate(-218.487 -168.42)" fill="#455a64"/><path d="M554.915,205.168V241.26a8.571,8.571,0,0,1-8.57,8.57h-27.81l3.777-44.662a3.82,3.82,0,0,1,3.82-3.819h24.963a3.82,3.82,0,0,1,3.82,3.819" transform="translate(-228.437 -88.703)" fill="#263238"/><path d="M565.992,250.933s.018-.039.064-.106l.2-.3c.185-.256.448-.639.765-1.146a18.99,18.99,0,0,0,2.072-4.6,18.7,18.7,0,0,0,.689-3.413,35.015,35.015,0,0,0,.11-4.008c0-2.839-.008-5.954-.012-9.225.017-6.534.032-12.448.042-16.762.02-2.124.035-3.852.046-5.079q.018-.869.027-1.381a2.954,2.954,0,0,1,.03-.481,3,3,0,0,1,.029.481q.01.513.027,1.381c.011,1.227.027,2.956.046,5.079.011,4.314.026,10.228.043,16.762,0,3.271-.008,6.387-.012,9.225a34.311,34.311,0,0,1-.138,4.035,18.516,18.516,0,0,1-.732,3.446,18.106,18.106,0,0,1-2.174,4.6c-.333.5-.613.875-.813,1.12a2.456,2.456,0,0,1-.314.366" transform="translate(-249.344 -90.064)" fill="#455a64"/><path d="M538.925,287.512a5.267,5.267,0,0,1,.883-.05l2.41-.029c2.035-.012,4.847-.008,7.953.014,1.553.015,3.034.017,4.376.051a14.137,14.137,0,0,1,3.571.389,5.514,5.514,0,0,1,2.147,1.124,3.551,3.551,0,0,1,.467.467c.1.114.147.176.139.183-.025.023-.227-.223-.677-.562a5.786,5.786,0,0,0-2.129-1.014,14.785,14.785,0,0,0-3.522-.32l-4.377-.028c-3.1-.022-5.913-.059-7.946-.1l-2.409-.063a5.068,5.068,0,0,1-.884-.064" transform="translate(-237.421 -126.624)" fill="#455a64"/><path d="M520.872,215.246c-.655-5.408-1.525-10.019-1.525-10.019H507.624s1.456,6.862,1.13,8.453c-.283,1.386-23,2.3-28.92,2.4-.352-.266-.864.18-1.32-.217a4.734,4.734,0,0,1-1.007-1.242,7.4,7.4,0,0,1-.811-1.834.605.605,0,0,0-1.123-.257c-.237.507.03,2.194,1.155,3.825s-1.824.783-2.9.494-4.462-1.022-4.811-.751c-.512.4-.191,1.032.894,1.3s4.285,1.286,4.11,1.864-5.65-.978-5.65-.978-1.119-.525-1.343.135c-.4,1.191,5.537,2.4,6.105,2.5.395.069.226.7-.194.606s-5.43-1.674-5.852-.465c-.324.928,4.878,1.038,5.739,1.955s-3.937-.5-4.212.4c-.1.335,1.894.491,4.763.893a73.493,73.493,0,0,0,8.87.316c6.655.365,30.177.851,35.2.5,5.854-.414,3.657-8.009,3.432-9.866" transform="translate(-205.736 -90.412)" fill="#ffbe9d"/><path d="M429.82,167.8s-3.229-3.291-3.854-3.422-6.674-3.165-6.674-3.165a1.036,1.036,0,0,0,.177,1.54c.9.711,3.012,1.993,3.012,1.993l-1.495,2.919s1.434,4.787,1.694,4.689.5-.94.5-.94l-.446-1.509,2.928,2.444,1.272-.147Z" transform="translate(-184.597 -71.022)" fill="#ffb29d"/><path d="M430.949,168.8a14.521,14.521,0,0,1-2.038-.991l.025.01-1.6-.429.177-.121a2.026,2.026,0,0,0,.426,1.34,5.074,5.074,0,0,0,1.629,1.355l.106.059-.04.106a3.575,3.575,0,0,0-.067,2.232c.154.543.33.83.3.846a1.832,1.832,0,0,1-.455-.8,3.518,3.518,0,0,1-.031-2.373l.066.165a5.068,5.068,0,0,1-1.746-1.423,2.267,2.267,0,0,1-.469-1.539l.018-.168.159.048L429,167.6l.015,0,.01.006a14.489,14.489,0,0,1,1.923,1.2" transform="translate(-188.214 -73.606)" fill="#eb9078"/><path d="M424.218,172.891a17.243,17.243,0,0,0,1.255,3.668,2.838,2.838,0,0,0,.571-1.17" transform="translate(-186.887 -76.166)" fill="#ffb29d"/><path d="M426.03,175.388a1.814,1.814,0,0,1-.474,1.251l-.117.156-.094-.183a12.243,12.243,0,0,1-.527-1.183,7.066,7.066,0,0,1-.613-2.539c.082-.018.37,1.107.885,2.434.167.435.337.838.484,1.18l-.211-.027a7.783,7.783,0,0,0,.667-1.089" transform="translate(-186.873 -76.166)" fill="#eb9078"/><path d="M426.711,168.956a4.94,4.94,0,0,1,.576,1.243,6.119,6.119,0,0,1,.347,1.462,3.763,3.763,0,0,1-.261,1.842,2.763,2.763,0,0,1-.421.685l-.145.172-.1-.2a14.771,14.771,0,0,1-.94-2.623,3.734,3.734,0,0,1-.185-1.107c.081-.021.434,1.63,1.385,3.606l-.24-.031a2.61,2.61,0,0,0,.374-.617,4.654,4.654,0,0,0-.015-3.124,8.9,8.9,0,0,1-.38-1.306" transform="translate(-187.486 -74.432)" fill="#eb9078"/><path d="M436.054,172.986l22.931,15.523-6.693,8.363L433.17,177.389Z" transform="translate(-190.831 -76.208)" fill="#ffb29d"/><path d="M476.292,387.085l-.115-5.637,10.557-.284.257,8.245-.653.06c-2.909.24-14.808,1.016-16.771.478-2.19-.6,6.726-2.862,6.726-2.862" transform="translate(-206.713 -167.92)" fill="#e8505b"/><g transform="translate(276.448 218.383)" opacity="0.5"><g clip-path="url(#l)"><path d="M494.137,393.475a3.662,3.662,0,0,1,1.287-2.287,3.558,3.558,0,0,1,2.447-.834l.082,2.951Z" transform="translate(-494.137 -390.35)" fill="#fff"/></g></g><g transform="translate(262.477 220.426)" opacity="0.4"><g clip-path="url(#m)"><path d="M471.917,394s-3.12.991-2.713,1.5,12.46.176,17.764-.436l-.023-.236-14.056.507s-.355-1.325-.971-1.334" transform="translate(-469.166 -394.002)" fill="#fff"/></g></g><path d="M487.131,395.458a.969.969,0,0,1-.181.025l-.521.046-1.916.135c-1.619.1-3.858.215-6.332.286s-4.717.083-6.339.072L469.921,396l-.522-.016a.949.949,0,0,1-.182-.015,1,1,0,0,1,.182-.011l.523-.008,1.921-.014c1.621-.012,3.862-.04,6.336-.11s4.711-.168,6.331-.248l1.918-.1.522-.022a.992.992,0,0,1,.182,0" transform="translate(-206.711 -174.215)" fill="#263238"/><path d="M475,395.4a2.788,2.788,0,0,0-1.058-1.622A1.706,1.706,0,0,1,475,395.4" transform="translate(-208.791 -173.474)" fill="#263238"/><path d="M480.858,393.02c-.029.02-.183-.158-.344-.4s-.267-.448-.238-.467.184.157.344.4.267.448.238.467" transform="translate(-211.581 -172.762)" fill="#263238"/><path d="M482.293,392.4c-.023.027-.192-.079-.379-.238s-.319-.308-.3-.335.192.079.379.238.319.309.3.336" transform="translate(-212.173 -172.613)" fill="#263238"/><path d="M482.874,391.007a2.405,2.405,0,1,1-.554-.043,1.242,1.242,0,0,1,.554.043" transform="translate(-212.242 -172.236)" fill="#263238"/><path d="M483.058,389.771a1.552,1.552,0,0,1-1.246.129,3.362,3.362,0,0,1,.624-.06,3.417,3.417,0,0,1,.623-.068" transform="translate(-212.26 -171.707)" fill="#263238"/><path d="M479.055,391.354a1.958,1.958,0,0,1-.679.015,4.007,4.007,0,0,1-.727-.139,2.005,2.005,0,0,1-.418-.159.367.367,0,0,1-.173-.206.267.267,0,0,1,.1-.274,1.245,1.245,0,0,1,1.549.322,1.22,1.22,0,0,1,.234.446c.03.116.03.182.022.183a1.91,1.91,0,0,0-.325-.57,1.221,1.221,0,0,0-.59-.361,1.055,1.055,0,0,0-.807.077c-.105.083-.06.209.062.276a2.005,2.005,0,0,0,.385.153,4.674,4.674,0,0,0,.7.162c.408.061.667.055.667.076" transform="translate(-210.161 -172.007)" fill="#263238"/><path d="M480.248,391.093a.67.67,0,0,1-.091-.469,1.105,1.105,0,0,1,.172-.5.679.679,0,0,1,.555-.361.27.27,0,0,1,.218.308.732.732,0,0,1-.107.306,2.045,2.045,0,0,1-.309.419.973.973,0,0,1-.381.285c-.012-.016.132-.125.313-.345a2.361,2.361,0,0,0,.272-.415c.089-.145.146-.405-.025-.431-.17-.011-.339.162-.439.3a1.115,1.115,0,0,0-.18.446,2.463,2.463,0,0,0,0,.458" transform="translate(-211.529 -171.708)" fill="#263238"/><path d="M497.819,390.263c0,.024-.3-.021-.779.049a3.31,3.31,0,0,0-2.7,2.28c-.149.457-.156.761-.18.759a.617.617,0,0,1-.006-.213,2.8,2.8,0,0,1,.1-.572,3.209,3.209,0,0,1,2.78-2.344,2.757,2.757,0,0,1,.581,0,.607.607,0,0,1,.209.042" transform="translate(-217.693 -171.904)" fill="#263238"/><path d="M498.523,382.509a36.917,36.917,0,0,1,.175,4.337,36.918,36.918,0,0,1-.175-4.337" transform="translate(-219.612 -168.512)" fill="#263238"/><path d="M489.283,394.155a8.682,8.682,0,0,1-3.084.114c0-.037.693-.014,1.542-.046s1.537-.1,1.542-.068" transform="translate(-214.192 -173.638)" fill="#263238"/><path d="M495.183,394.052c.026.025-.053.148-.119.308s-.1.3-.137.3-.059-.166.019-.35.213-.284.237-.258" transform="translate(-218.023 -173.596)" fill="#263238"/><path d="M496.449,392.279c.025.024-.04.136-.146.25s-.213.186-.239.162.039-.136.146-.25.213-.186.239-.162" transform="translate(-218.536 -172.815)" fill="#263238"/><path d="M498.259,391.391c-.006.036-.147.039-.3.1s-.263.145-.291.121.055-.171.247-.241.355-.011.345.022" transform="translate(-219.242 -172.401)" fill="#263238"/><path d="M499.889,391c.013.032-.045.088-.132.125s-.168.04-.182.007.045-.088.132-.125.168-.039.182-.007" transform="translate(-220.085 -172.245)" fill="#263238"/><path d="M430.379,333.841l2.448-5.079,9.543,4.524-3.5,7.469-.61-.242c-2.7-1.1-13.665-5.794-15.172-7.162-1.681-1.526,7.293.491,7.293.491" transform="translate(-186.296 -144.834)" fill="#e8505b"/><g transform="translate(249.147 192.656)" opacity="0.5"><g clip-path="url(#n)"><path d="M445.339,345.912a3.663,3.663,0,0,1,2.182-1.457,3.557,3.557,0,0,1,2.56.364l-1.262,2.668Z" transform="translate(-445.339 -344.363)" fill="#fff"/></g></g><g transform="translate(236.529 187.957)" opacity="0.4"><g clip-path="url(#o)"><path d="M425.887,336.169s-3.231-.528-3.1.109,11.032,5.794,16.038,7.649l.086-.221L426.148,337.8s.283-1.342-.262-1.629" transform="translate(-422.785 -335.964)" fill="#fff"/></g></g><path d="M439.127,343.892a1.008,1.008,0,0,1-.172-.06l-.485-.195-1.77-.746c-1.49-.641-3.538-1.554-5.776-2.61s-4.245-2.06-5.686-2.8l-1.7-.893-.458-.251a.922.922,0,0,1-.156-.1,1.027,1.027,0,0,1,.167.072l.469.23,1.719.857c1.451.723,3.462,1.711,5.7,2.769s4.277,1.982,5.758,2.643l1.753.783.476.217a1,1,0,0,1,.162.083" transform="translate(-186.316 -148.128)" fill="#263238"/><path d="M428.51,337.993a4.335,4.335,0,0,0,.068-.982,4.275,4.275,0,0,0-.277-.944,1.706,1.706,0,0,1,.209,1.926" transform="translate(-188.684 -148.052)" fill="#263238"/><path d="M434.8,338.524a2.148,2.148,0,0,1-.128-1.033,2.151,2.151,0,0,1,.128,1.033" transform="translate(-191.48 -148.68)" fill="#263238"/><path d="M436.371,338.618c-.032.013-.135-.158-.23-.384s-.145-.42-.112-.433.136.158.23.383.144.42.112.434" transform="translate(-192.086 -148.816)" fill="#263238"/><path d="M437.493,337.7a1.235,1.235,0,0,1-.528-.172c-.277-.127-.489-.256-.474-.289a1.255,1.255,0,0,1,.528.172c.277.128.49.257.474.289" transform="translate(-192.293 -148.564)" fill="#263238"/><path d="M438.2,336.714a1.552,1.552,0,0,1-1.17-.449,50.9,50.9,0,0,0,1.17.449" transform="translate(-192.53 -148.138)" fill="#263238"/><path d="M433.814,336.361a1.948,1.948,0,0,1-.611-.294,3.932,3.932,0,0,1-.585-.453,2.007,2.007,0,0,1-.3-.331.369.369,0,0,1-.062-.262.268.268,0,0,1,.209-.2,1.244,1.244,0,0,1,1.235.987,1.21,1.21,0,0,1,.006.5c-.025.116-.055.176-.063.173a1.9,1.9,0,0,0-.031-.656,1.223,1.223,0,0,0-.363-.589,1.05,1.05,0,0,0-.755-.3c-.132.026-.148.158-.07.274a2.006,2.006,0,0,0,.275.311,4.649,4.649,0,0,0,.554.463c.336.239.57.35.561.369" transform="translate(-190.425 -147.503)" fill="#263238"/><path d="M434.73,336.74a.668.668,0,0,1,.131-.459,1.111,1.111,0,0,1,.379-.369.68.68,0,0,1,.659-.071.27.27,0,0,1,.055.373.739.739,0,0,1-.234.225,2.069,2.069,0,0,1-.465.234.982.982,0,0,1-.468.082c0-.02.174-.053.435-.167a2.364,2.364,0,0,0,.431-.246c.145-.09.313-.3.173-.4a.606.606,0,0,0-.527.069,1.111,1.111,0,0,0-.363.317,2.455,2.455,0,0,0-.206.408" transform="translate(-191.515 -147.926)" fill="#263238"/><path d="M450.074,344.605c-.012.021-.261-.156-.717-.309a3.309,3.309,0,0,0-3.443.81c-.34.34-.484.609-.5.6a.612.612,0,0,1,.091-.192,2.75,2.75,0,0,1,.347-.465,3.209,3.209,0,0,1,3.54-.832,2.766,2.766,0,0,1,.519.262c.114.076.172.125.167.132" transform="translate(-196.223 -151.545)" fill="#263238"/><path d="M453.916,337.149a18.516,18.516,0,0,1-.845,2,18.317,18.317,0,0,1-.962,1.946,36.763,36.763,0,0,1,1.807-3.946" transform="translate(-199.173 -148.529)" fill="#263238"/><path d="M441.772,343.431a8.68,8.68,0,0,1-2.8-1.294c.019-.032.624.3,1.4.657s1.418.6,1.405.637" transform="translate(-193.386 -150.726)" fill="#263238"/><path d="M446.923,346.02c.012.034-.114.108-.245.221s-.226.223-.258.205.022-.174.175-.3.318-.156.328-.123" transform="translate(-196.664 -152.431)" fill="#263238"/><path d="M448.91,345.045c.012.033-.1.1-.243.157s-.274.07-.286.037.1-.1.243-.157.274-.069.286-.036" transform="translate(-197.532 -152)" fill="#263238"/><path d="M450.976,345.053c-.022.029-.148-.032-.312-.049s-.3.01-.315-.024.128-.128.329-.1.321.151.3.176" transform="translate(-198.399 -151.932)" fill="#263238"/><path d="M452.648,345.4c0,.035-.081.058-.175.051s-.167-.041-.165-.076.081-.058.175-.052.167.041.165.076" transform="translate(-199.262 -152.132)" fill="#263238"/><path d="M551.4,204.787a114.807,114.807,0,0,1-12.234.043,114.809,114.809,0,0,1,12.234-.043" transform="translate(-237.525 -90.155)" fill="#263238"/><path d="M521.51,189.142l-2.245-11.26c-1.654-9.216-14.574-9.851-14.574-9.851l-10.14-.164s-7.516-1.01-12.156,4.219c-4.8,5.413-10.7,11.81-10.7,11.81l4.505,11.331,10.667-8.8a10.908,10.908,0,0,0-1.431,5.121c0,3,3.132,4.386,3.132,4.386l.96,9.137-3.184,14.752,33.11-1.328a32.927,32.927,0,0,0-4.882-13.913l.615-15.438Z" transform="translate(-207.804 -73.918)" fill="#a3314f"/><path d="M496.7,198.4a8.556,8.556,0,0,1,.4-1.522c.14-.464.31-1.017.523-1.626.106-.3.224-.622.359-.948.074-.176.166-.326.213-.473a1.488,1.488,0,0,0,.06-.486,7.259,7.259,0,0,0-.158-1.039q-.095-.509-.184-.989c-.1-.6-.2-1.163-.293-1.678a7.536,7.536,0,0,1-.188-1.563,7.517,7.517,0,0,1,.415,1.518c.111.511.232,1.068.361,1.665l.2.985a6.883,6.883,0,0,1,.17,1.093,1.766,1.766,0,0,1-.078.6c-.067.2-.166.35-.227.5-.136.317-.258.629-.371.927-.21.571-.406,1.1-.586,1.6a6.757,6.757,0,0,1-.617,1.448" transform="translate(-218.814 -82.855)" fill="#263238"/><g transform="translate(299.879 105.653)" opacity="0.2"><g clip-path="url(#p)"><path d="M536.02,188.85c.411,6.28.656,12.066.777,18.359a4.75,4.75,0,0,0,2.363-.743c.325-2.683-1.708-10.849-3.139-17.616" transform="translate(-536.02 -188.85)"/></g></g><path d="M501.326,249.971s-43.3-9.07-47.488-7.084-23.523,49.767-23.523,49.767l15.563,6.7,16.751-40.6s30.312,11.072,35.608,9.972,3.089-18.751,3.089-18.751" transform="translate(-189.573 -106.877)" fill="#455a64"/><path d="M500.688,260.327c-.662.22-25.707,10.516-27.472,13.825s2.571,58.262,2.571,58.262h14.245l-.882-48.84,27.8-7.044Z" transform="translate(-208.287 -114.686)" fill="#455a64"/><path d="M521.472,280.216a1.964,1.964,0,0,1-.411-.05l-1.165-.206c-1.01-.186-2.469-.473-4.266-.855-3.6-.76-8.545-1.907-13.938-3.453-2.7-.78-5.242-1.594-7.541-2.384-2.291-.815-4.344-1.578-6.035-2.3-.852-.345-1.611-.686-2.275-.989s-1.237-.562-1.7-.8l-1.057-.533a1.956,1.956,0,0,1-.359-.205,1.944,1.944,0,0,1,.387.147l1.082.477c.466.216,1.042.465,1.715.744s1.433.613,2.289.943c1.7.695,3.755,1.433,6.046,2.231,2.3.773,4.844,1.577,7.534,2.355,5.383,1.544,10.318,2.725,13.9,3.541l4.243.956,1.152.267a1.947,1.947,0,0,1,.4.115" transform="translate(-212.664 -118.26)" fill="#263238"/><path d="M472.9,294.178a4.075,4.075,0,0,1-.131-.823c-.063-.6-.143-1.352-.238-2.253-.091-.975-.2-2.1-.311-3.346a15.3,15.3,0,0,1-.006-4.144,6.466,6.466,0,0,1,2.079-3.581,10.937,10.937,0,0,1,2.849-1.832,22.373,22.373,0,0,1,2.115-.833,3.875,3.875,0,0,1,.8-.233c.024.058-1.1.45-2.815,1.274a11.287,11.287,0,0,0-2.744,1.845,6.266,6.266,0,0,0-1.964,3.422,15.8,15.8,0,0,0-.015,4.057c.09,1.244.171,2.375.242,3.352.054.9.1,1.663.134,2.262a4.074,4.074,0,0,1,.005.833" transform="translate(-207.969 -122.088)" fill="#263238"/><path d="M495.894,299.153a10.474,10.474,0,0,1,3.372,1.484,10.478,10.478,0,0,1-3.372-1.484" transform="translate(-218.463 -131.784)" fill="#263238"/><path d="M498.129,296.478c.088-.038.483.752,1.134,1.608s1.3,1.456,1.237,1.531a5.146,5.146,0,0,1-2.371-3.139" transform="translate(-219.442 -130.611)" fill="#263238"/><path d="M505.343,300.508c.011.007-.042.118-.219.224a1.679,1.679,0,0,1-.826.2,9.7,9.7,0,0,0-1.184.031.828.828,0,0,0-.708.906,23.094,23.094,0,0,1-.177,3.8,21.682,21.682,0,0,1-.149-3.82,1.334,1.334,0,0,1,.269-.81,1.105,1.105,0,0,1,.716-.375,6.888,6.888,0,0,1,1.235.036,2.035,2.035,0,0,0,1.043-.189" transform="translate(-221.188 -132.386)" fill="#263238"/><g transform="translate(280.739 134.391)" opacity="0.2"><g clip-path="url(#q)"><path d="M501.808,241.551l29.513,2.37-1.26-3.3-27.964-.406Z" transform="translate(-501.808 -240.217)"/></g></g><path d="M500.2,120.328c-2.163.7-4.678,2.138-3.432,8.911.548,2.979,1.244,6.018,3.243,8.3a1.426,1.426,0,0,0,1.159.639,1.459,1.459,0,0,0,.8-.542,18.149,18.149,0,0,0,4.819-8.7c.613-3.3-.307-7.026-2.907-9.153" transform="translate(-218.705 -52.768)" fill="#263238"/><path d="M506.333,148.089c-.072-3.116-.2-6.46-.2-6.46a5.72,5.72,0,0,1-4.946-5.438c-.2-4.84-.253-13.316-.253-13.316l9.257-6.858,6.5,8.946.159,22.967a5.259,5.259,0,0,1-10.517.159" transform="translate(-220.682 -51.111)" fill="#ffb29d"/><path d="M510.223,160.177a11.543,11.543,0,0,0,6.278-2.055s-1.475,3.525-6.2,3.243Z" transform="translate(-224.776 -69.66)" fill="#eb9078"/><path d="M510.948,150.462a.569.569,0,0,1,.578-.8.9.9,0,0,1,.906-.792,1.013,1.013,0,0,1,.917.824,1.169,1.169,0,0,1-.517,1.146,1.383,1.383,0,0,1-1.276.093,1.009,1.009,0,0,1-.644-.76" transform="translate(-225.074 -65.582)" fill="#eb9078"/><path d="M502.99,138.652a.665.665,0,0,0,.641.67.636.636,0,0,0,.685-.6.665.665,0,0,0-.64-.67.636.636,0,0,0-.685.6" transform="translate(-221.589 -60.818)" fill="#263238"/><path d="M502.723,137.24c.082.087.586-.286,1.3-.284s1.239.359,1.316.271c.038-.039-.046-.195-.274-.361a1.826,1.826,0,0,0-1.054-.324,1.747,1.747,0,0,0-1.034.334c-.22.169-.294.326-.254.364" transform="translate(-221.467 -60.153)" fill="#263238"/><path d="M515.5,138.952a.664.664,0,0,0,.641.67.635.635,0,0,0,.684-.6.664.664,0,0,0-.64-.67.636.636,0,0,0-.685.6" transform="translate(-227.101 -60.95)" fill="#263238"/><path d="M515.281,137.478c.082.087.586-.286,1.3-.284s1.238.359,1.316.271c.039-.039-.045-.195-.274-.361a1.819,1.819,0,0,0-1.053-.325,1.755,1.755,0,0,0-1.035.334c-.219.169-.294.326-.253.364" transform="translate(-227 -60.258)" fill="#263238"/><path d="M509.218,142.814a4.7,4.7,0,0,0-1.161-.209c-.182-.019-.355-.055-.386-.18a.93.93,0,0,1,.122-.541l.54-1.389a23.923,23.923,0,0,0,1.212-3.635,23.878,23.878,0,0,0-1.5,3.529c-.181.488-.353.953-.517,1.4a1.058,1.058,0,0,0-.095.716.458.458,0,0,0,.3.267,1.24,1.24,0,0,0,.31.043,4.629,4.629,0,0,0,1.177,0" transform="translate(-223.531 -60.292)" fill="#263238"/><path d="M512.618,148.387c-.116-.007-.117.769-.782,1.32s-1.49.465-1.5.573c-.011.049.184.151.533.161a1.932,1.932,0,0,0,1.249-.435,1.685,1.685,0,0,0,.606-1.107c.03-.324-.057-.516-.11-.512" transform="translate(-224.828 -65.371)" fill="#263238"/><path d="M514.711,134.754c.07.194.784.1,1.622.2.841.084,1.517.33,1.628.156.05-.083-.068-.266-.341-.454a2.842,2.842,0,0,0-2.477-.273c-.308.124-.463.276-.432.369" transform="translate(-226.752 -59.129)" fill="#263238"/><path d="M503.186,133.51c.125.162.618-.006,1.21-.014.592-.029,1.093.109,1.209-.061.05-.082-.029-.245-.248-.4a1.751,1.751,0,0,0-1.949.06c-.209.167-.278.334-.222.413" transform="translate(-221.668 -58.491)" fill="#263238"/><path d="M513.032,125.637a3.717,3.717,0,0,0,2.356-.84c.428,1.142.42,2.407.812,3.563s1.315,5.917,2.521,5.736c1.107-.167,1.893-4.969,2.176-6.053a9.9,9.9,0,0,0-2.188-8.662c-2.363-2.811-6.3-5.209-9.964-4.949a8.242,8.242,0,0,0-4.541,1.6s-1.977,1.524-1.812,3.468c.23,2.709,4.181,4.454,6.9,4.372l.387.377a4.7,4.7,0,0,0,3.353,1.391" transform="translate(-221.322 -50.403)" fill="#263238"/><path d="M500.788,128.643a4.013,4.013,0,0,0,1.349-2.168,11.972,11.972,0,0,0,.314-2.576c.012-.251-.024-.573-.266-.64s-.43.178-.544.392a8.345,8.345,0,0,0-.855,5.241c.051-.048-.162.136-.11.088" transform="translate(-220.566 -54.296)" fill="#263238"/><path d="M528,151.6a5.733,5.733,0,0,0,1.891-4.942c-.173-1.391-.863-2.714-.8-4.115a11.983,11.983,0,0,1,.927-3.17,10.991,10.991,0,0,0,.424-5.341,5.572,5.572,0,0,0-1.974-3.677,2.867,2.867,0,0,0-3.85.328l-.417.13a11.61,11.61,0,0,0,1.48,12.368,6.335,6.335,0,0,0,.106,8.509,6.947,6.947,0,0,0-.876,6.951c.013.029.03.057.043.084a6.123,6.123,0,0,0-.209,8.173,6.076,6.076,0,0,0-2.061,3.541,3.3,3.3,0,0,0,1.712,3.419,3.925,3.925,0,0,0,1.057,6.6,12.1,12.1,0,0,1,1.993-1.629,2.05,2.05,0,0,1-.918-.885,2.586,2.586,0,0,0,1.55.488l-.668-3.044a3.988,3.988,0,0,0-.585-1.567c-.024-.032-.052-.061-.078-.092a3.631,3.631,0,0,0,1.74-1.884,5.853,5.853,0,0,0-.619-4.825,13.257,13.257,0,0,0,1.68-5.542,5.952,5.952,0,0,0-.566-2.563,7.331,7.331,0,0,0,1.2-3.911A3.749,3.749,0,0,0,528,151.6" transform="translate(-230.252 -57.17)" fill="#263238"/><path d="M529.04,196.066a2.069,2.069,0,0,1-2.61.04c.039-.077.591.17,1.307.153s1.262-.267,1.3-.192" transform="translate(-231.915 -86.37)" fill="#455a64"/><path d="M529.879,183.684a9.157,9.157,0,0,0-4.388,5.7,2.79,2.79,0,0,1,.167-1.093,7.255,7.255,0,0,1,3.206-4.163,2.792,2.792,0,0,1,1.014-.441" transform="translate(-231.496 -80.919)" fill="#455a64"/><path d="M530.333,181.979a2.04,2.04,0,0,1-2.554.005c.039-.076.577.163,1.277.156s1.238-.236,1.277-.161" transform="translate(-232.509 -80.164)" fill="#455a64"/><path d="M531.789,176.032a7.46,7.46,0,0,0-2.689-5.417,2.1,2.1,0,0,1,.792.5,5.773,5.773,0,0,1,1.977,3.982,2.088,2.088,0,0,1-.079.934" transform="translate(-233.091 -75.162)" fill="#455a64"/><path d="M531.074,167.383c.065.042-.231.506-.838.74s-1.136.1-1.117.024.486-.084,1.011-.3.88-.524.943-.468" transform="translate(-233.101 -73.737)" fill="#455a64"/><path d="M528.89,162.335a2,2,0,0,1-.616-1.031,4.439,4.439,0,0,1,.132-2.89,7.722,7.722,0,0,1,1.575-2.426,4,4,0,0,1,.879-.806,6.2,6.2,0,0,1-.723.94,9.152,9.152,0,0,0-1.458,2.4,4.659,4.659,0,0,0-.206,2.729,9.881,9.881,0,0,0,.418,1.088" transform="translate(-232.648 -68.364)" fill="#455a64"/><path d="M531.054,153.545a2.35,2.35,0,0,1-2.61-.533c.049-.07.567.246,1.281.386s1.312.063,1.33.147" transform="translate(-232.802 -67.404)" fill="#455a64"/><path d="M531.777,136.711a3.065,3.065,0,0,1-1.29.093,6.227,6.227,0,0,1-5.052-3.323,3.073,3.073,0,0,1-.425-1.222c.046-.016.2.452.6,1.121a6.693,6.693,0,0,0,4.895,3.22c.774.106,1.265.063,1.268.111" transform="translate(-231.288 -58.266)" fill="#455a64"/><path d="M531.2,139.839c.008.011-.106.126-.373.24a2.263,2.263,0,0,1-1.207.109,5.778,5.778,0,0,1-3.287-2.138,7.332,7.332,0,0,1-1.591-3.6,6.029,6.029,0,0,1-.056-1.2,1.269,1.269,0,0,1,.069-.434c.057,0,0,.626.191,1.6a7.785,7.785,0,0,0,1.613,3.446,5.963,5.963,0,0,0,3.1,2.119,2.634,2.634,0,0,0,1.544-.147" transform="translate(-231.146 -58.515)" fill="#455a64"/><path d="M521.252,124.642a2.244,2.244,0,0,1-.545.267,6.086,6.086,0,0,1-1.64.372,6.819,6.819,0,0,1-2.529-.244,6.676,6.676,0,0,1-2.769-1.573l.146.032a7.485,7.485,0,0,1-5.78-.4,7.3,7.3,0,0,1-2.444-2.032,7.1,7.1,0,0,1-1.046-1.868,5.181,5.181,0,0,1-.17-.557c-.03-.129-.041-.2-.032-.2a9.652,9.652,0,0,0,1.409,2.5,7.228,7.228,0,0,0,6.075,2.656,7.261,7.261,0,0,0,1.9-.366l.083-.027.063.06a6.558,6.558,0,0,0,2.641,1.539,6.929,6.929,0,0,0,2.445.3,9.515,9.515,0,0,0,2.2-.454" transform="translate(-222.228 -52.178)" fill="#455a64"/><path d="M519.7,120.147a2.3,2.3,0,0,1-.58.1c-.374.043-.917.1-1.589.154l-2.359.191a15.513,15.513,0,0,1-2.919.027,9.89,9.89,0,0,1-4.887-1.973,8.783,8.783,0,0,1-1.182-1.089,2.1,2.1,0,0,1-.356-.47c.041-.039.572.617,1.66,1.394a10.335,10.335,0,0,0,4.8,1.848,16.609,16.609,0,0,0,2.868-.006l2.363-.129c.673-.032,1.219-.054,1.6-.062a2.271,2.271,0,0,1,.587.017" transform="translate(-222.842 -51.58)" fill="#455a64"/><path d="M528.8,207.359a2.258,2.258,0,0,1-2.892.176,4.581,4.581,0,0,0,2.892-.176" transform="translate(-231.683 -91.347)" fill="#455a64"/><path d="M527.764,204.6a5.363,5.363,0,0,1,.076-.877,5.707,5.707,0,0,0-1.181-3.9c-.328-.423-.58-.651-.55-.688s.323.147.707.554a4.932,4.932,0,0,1,1.229,4.057,1.862,1.862,0,0,1-.281.854" transform="translate(-231.774 -87.725)" fill="#455a64"/><path d="M520.872,215.246c-.655-5.408-1.525-10.019-1.525-10.019H507.624s1.456,6.862,1.13,8.453c-.283,1.386-23,2.3-28.92,2.4-.352-.266-.864.18-1.32-.217a4.734,4.734,0,0,1-1.007-1.242,7.4,7.4,0,0,1-.811-1.834.605.605,0,0,0-1.123-.257c-.237.507.03,2.194,1.155,3.825s-1.824.783-2.9.494-4.462-1.022-4.811-.751c-.512.4-.191,1.032.894,1.3s4.285,1.286,4.11,1.864-5.65-.978-5.65-.978-1.119-.525-1.343.135c-.4,1.191,5.537,2.4,6.105,2.5.395.069.226.7-.194.606s-5.43-1.674-5.852-.465c-.324.928,4.878,1.038,5.739,1.955s-3.937-.5-4.212.4c-.1.335,1.894.491,4.763.893a73.493,73.493,0,0,0,8.87.316c6.655.365,30.177.851,35.2.5,5.854-.414,3.657-8.009,3.432-9.866" transform="translate(-205.736 -90.412)" fill="#ffb29d"/><path d="M424.311,184.747l9.647,28.19H477.64l-.322-1.452-17.664-.546-8.137-26.208Z" transform="translate(-186.928 -81.382)" fill="#e0e0e0"/><path d="M456.284,207.086a2,2,0,0,1-1.1,2.527,1.925,1.925,0,0,1-2.149-1.657,2,2,0,0,1,1.1-2.527,1.926,1.926,0,0,1,2.149,1.656" transform="translate(-199.543 -90.481)" fill="#fff"/></g><path d="M117.319,235.138v3.656H229.936v82.372H255.39V238.794H367.749v-3.656Z" transform="translate(-51.684 -103.589)" fill="#263238"/><path d="M310.64,368.847l-.564-28.214,10.809-1.79-1.7,29.881Z" transform="translate(-136.602 -149.276)" fill="#eb996e"/><g clip-path="url(#a)"><path d="M319.773,391.916l-.029-1-9.38.232.06,3.285.58.024c2.58.085,13.124.25,14.834-.311,1.908-.626-6.066-2.234-6.066-2.234" transform="translate(-136.729 -172.218)" fill="#e8505b"/><g transform="translate(173.645 219.46)" opacity="0.4"><g clip-path="url(#s)"><path d="M313.816,394.884a3.242,3.242,0,0,0-1.236-1.964,3.147,3.147,0,0,0-2.2-.629l.057,2.61Z" transform="translate(-310.382 -392.275)" fill="#fff"/></g></g><g transform="translate(173.695 220.623)" opacity="0.4"><g clip-path="url(#t)"><path d="M323.72,394.353s2.8.74,2.462,1.205-11,.7-15.71.392l.011-.209,12.438-.167s.256-1.186.8-1.221" transform="translate(-310.472 -394.353)" fill="#fff"/></g></g><path d="M310.228,396.561a.89.89,0,0,0,.161.014l.462.017,1.7.036c1.435.02,3.417.022,5.606-.024s4.171-.132,5.6-.213l1.7-.108.46-.037a.887.887,0,0,0,.16-.021.87.87,0,0,0-.161,0l-.462.016-1.7.072c-1.433.06-3.413.133-5.6.18s-4.168.058-5.6.058h-1.7l-.462,0a.881.881,0,0,0-.161.009" transform="translate(-136.669 -174.553)" fill="#263238"/><path d="M332.71,395.627a3.853,3.853,0,0,1,.3-.817,3.789,3.789,0,0,1,.564-.662,1.51,1.51,0,0,0-.864,1.48" transform="translate(-146.565 -173.638)" fill="#263238"/><path d="M327.741,393.782c.027.016.155-.147.286-.365s.217-.407.19-.423-.155.147-.286.364-.217.407-.19.424" transform="translate(-144.382 -173.131)" fill="#263238"/><path d="M326.376,393.293c.021.023.167-.079.324-.227s.268-.286.247-.309-.167.078-.324.227-.268.286-.247.309" transform="translate(-143.782 -173.026)" fill="#263238"/><path d="M325.489,392.113a2.124,2.124,0,1,0,.487-.062,1.1,1.1,0,0,0-.487.062" transform="translate(-143.392 -172.716)" fill="#263238"/><path d="M325.171,391.049a1.376,1.376,0,0,0,1.107.059,2.964,2.964,0,0,0-.553-.026,3.039,3.039,0,0,0-.553-.033" transform="translate(-143.252 -172.27)" fill="#263238"/><path d="M328.279,392.253a1.724,1.724,0,0,0,.6-.017,3.513,3.513,0,0,0,.636-.155,1.743,1.743,0,0,0,.362-.159.324.324,0,0,0,.145-.19.237.237,0,0,0-.1-.238,1.1,1.1,0,0,0-1.354.352,1.066,1.066,0,0,0-.187.4.334.334,0,0,0-.012.162,1.689,1.689,0,0,1,.262-.517,1.083,1.083,0,0,1,.505-.345.934.934,0,0,1,.716.033c.1.069.062.182-.043.247a1.767,1.767,0,0,1-.334.152,4.117,4.117,0,0,1-.614.175c-.358.072-.587.077-.586.1" transform="translate(-144.622 -172.424)" fill="#263238"/><path d="M327.925,392.077a.589.589,0,0,0,.06-.418.98.98,0,0,0-.173-.435.6.6,0,0,0-.506-.295.239.239,0,0,0-.179.281.644.644,0,0,0,.108.266,1.832,1.832,0,0,0,.291.357.87.87,0,0,0,.349.236c.01-.015-.122-.105-.291-.291a2.115,2.115,0,0,1-.26-.355c-.085-.125-.147-.351,0-.382s.307.128.4.246a.992.992,0,0,1,.178.386,2.216,2.216,0,0,1,.018.4" transform="translate(-144.112 -172.221)" fill="#263238"/><path d="M310.469,392.2c0,.021.267-.031.69.009a2.927,2.927,0,0,1,2.489,1.9c.151.4.171.666.192.663a.557.557,0,0,0,0-.189,2.474,2.474,0,0,0-.113-.5,2.837,2.837,0,0,0-2.558-1.949,2.453,2.453,0,0,0-.514.024.55.55,0,0,0-.182.046" transform="translate(-136.775 -172.747)" fill="#263238"/><path d="M318.586,395.23a7.681,7.681,0,0,0,2.73-.034c0-.032-.613.018-1.365.026s-1.362-.025-1.364.008" transform="translate(-140.351 -174.097)" fill="#263238"/><path d="M315.311,395.329c-.022.023.053.128.118.267s.1.262.134.259.045-.149-.032-.308-.2-.241-.22-.218" transform="translate(-138.907 -174.158)" fill="#263238"/><path d="M314.045,393.821c-.022.022.041.119.139.214s.2.155.218.133-.04-.118-.139-.214-.2-.156-.218-.133" transform="translate(-138.349 -173.494)" fill="#263238"/><path d="M312.268,393.118c.007.031.131.027.27.073s.238.116.262.095-.056-.149-.229-.2-.313.006-.3.035" transform="translate(-137.568 -173.161)" fill="#263238"/><path d="M311,392.842c-.011.03.044.076.122.1s.151.027.161,0-.044-.077-.123-.1-.15-.027-.161,0" transform="translate(-137.011 -173.055)" fill="#263238"/><path d="M331.761,368.665l-.74-28.6,10.86-1.218L340.469,368.6Z" transform="translate(-145.83 -149.276)" fill="#ffbe9d"/><path d="M274.438,248.779c10.588.069,21.191.138,31.736,1.1,4.207.384,8.757,1.08,11.683,4.126,2.74,2.852,3.377,7.063,3.882,10.985l4.619,35.881a165.436,165.436,0,0,1-43.94-1.395q.154-13.334.308-26.668l.232-4.176-16.305-1.062Z" transform="translate(-117.473 -109.598)" fill="#a3314f"/><path d="M344.911,269.618a27.005,27.005,0,0,1,2.37-5.071,26.962,26.962,0,0,1-2.37,5.071" transform="translate(-151.946 -116.545)" fill="#fafafa"/><path d="M352,292.043a20.144,20.144,0,0,1-2.946-3.833A20.138,20.138,0,0,1,352,292.043" transform="translate(-153.774 -126.968)" fill="#fafafa"/><path d="M348.421,307.7a16.842,16.842,0,0,1-3.215,3.038,16.844,16.844,0,0,1,3.215-3.038" transform="translate(-152.078 -135.552)" fill="#fafafa"/><path d="M364.059,316.741a19.872,19.872,0,0,1-1.167-4.664,19.875,19.875,0,0,1,1.167,4.664" transform="translate(-159.863 -137.484)" fill="#fafafa"/><path d="M352.11,330.792a14.893,14.893,0,0,1-1.4-3.916,14.892,14.892,0,0,1,1.4,3.916" transform="translate(-154.498 -144.003)" fill="#fafafa"/><path d="M337.413,299.154a20.755,20.755,0,0,1-1.126,4.78,20.761,20.761,0,0,1,1.126-4.78" transform="translate(-148.142 -131.791)" fill="#fafafa"/><rect width="43.085" height="2.096" transform="translate(178.609 128.308)" fill="#263238"/><path d="M382.315,209.242l8.082-30.286H356.755l-7.318,30.286Z" transform="translate(-153.943 -78.838)" fill="#263238"/><path d="M353.04,208.052h30.054l7-26.593H359.881Z" transform="translate(-155.53 -79.941)" fill="#f5f5f5"/><path d="M365.137,190.665l-1.862,7.532H383.2l2.125-7.532Z" transform="translate(-160.039 -83.997)" fill="#e0e0e0"/><path d="M382.885,188.776c0,.081-3.5.145-7.806.145s-7.807-.065-7.807-.145,3.495-.145,7.807-.145,7.806.065,7.806.145" transform="translate(-161.8 -83.1)" fill="#455a64"/><path d="M373.989,193.127a34.1,34.1,0,0,1-6.293,0,34.1,34.1,0,0,1,6.293,0" transform="translate(-161.987 -85.017)" fill="#263238"/><path d="M384.737,192.915a14.491,14.491,0,0,1-4.1,0,14.5,14.5,0,0,1,4.1,0" transform="translate(-167.689 -84.924)" fill="#263238"/><path d="M384.594,195.567c0,.081-3.854.145-8.607.145s-8.608-.065-8.608-.145,3.854-.145,8.608-.145,8.607.065,8.607.145" transform="translate(-161.846 -86.092)" fill="#455a64"/><path d="M372.322,197.8a26.832,26.832,0,0,1-5.58,0,26.832,26.832,0,0,1,5.58,0" transform="translate(-161.566 -87.074)" fill="#e8505b"/><path d="M382.817,200.979c0,.081-3.575.145-7.984.145s-7.985-.065-7.985-.145,3.574-.145,7.985-.145,7.984.065,7.984.145" transform="translate(-161.613 -88.476)" fill="#455a64"/><path d="M369.52,207.876a32.825,32.825,0,0,1-6.174,0,32.825,32.825,0,0,1,6.174,0" transform="translate(-160.07 -91.515)" fill="#455a64"/><path d="M380.507,207.9a15.316,15.316,0,0,1-4.215-.034,15.315,15.315,0,0,1,4.215.034" transform="translate(-165.773 -91.519)" fill="#263238"/><path d="M387.728,207.664c0,.081-.4.145-.891.145s-.89-.065-.89-.145.4-.145.89-.145.891.065.891.145" transform="translate(-170.027 -91.421)" fill="#263238"/><path d="M365.517,210.635c0,.081-.439.145-.98.145s-.98-.065-.98-.145.439-.145.98-.145.98.065.98.145" transform="translate(-160.164 -92.73)" fill="#e8505b"/><path d="M373.871,210.635a18.976,18.976,0,0,1-4.69,0,18.982,18.982,0,0,1,4.69,0" transform="translate(-162.641 -92.73)" fill="#263238"/><path d="M392.743,210.317c0,.081-2.8.145-6.263.145s-6.263-.065-6.263-.145,2.8-.145,6.263-.145,6.263.065,6.263.145" transform="translate(-167.503 -92.59)" fill="#455a64"/><path d="M364.939,213.5c0,.081-.452.145-1.009.145s-1.009-.065-1.009-.145.452-.145,1.009-.145,1.009.065,1.009.145" transform="translate(-159.883 -93.992)" fill="#263238"/><path d="M370.131,213.394a5.163,5.163,0,0,1-2.434,0,5.162,5.162,0,0,1,2.434,0" transform="translate(-161.987 -93.946)" fill="#263238"/><path d="M382.277,213.181a53.643,53.643,0,0,1-7.9,0,53.649,53.649,0,0,1,7.9,0" transform="translate(-164.932 -93.852)" fill="#455a64"/><path d="M372.267,218.169a78.555,78.555,0,0,1-9.557,0,78.58,78.58,0,0,1,9.557,0" transform="translate(-159.79 -96.049)" fill="#455a64"/><path d="M386.355,217.956a16.212,16.212,0,0,1-4.334,0,16.211,16.211,0,0,1,4.334,0" transform="translate(-168.297 -95.955)" fill="#e8505b"/><path d="M398.913,217.956a44.413,44.413,0,0,1-7.183,0,44.408,44.408,0,0,1,7.183,0" transform="translate(-172.575 -95.955)" fill="#263238"/><path d="M399.952,188.564c0,.081-.332.145-.742.145s-.742-.065-.742-.145.332-.145.742-.145.742.065.742.145" transform="translate(-175.543 -83.007)" fill="#263238"/><path d="M371.492,186.76a9.234,9.234,0,0,1-3.265,0,9.233,9.233,0,0,1,3.265,0" transform="translate(-162.22 -82.212)" fill="#e8505b"/><path d="M394.573,183.37H364.359l.508-1.912h30.209Z" transform="translate(-160.517 -79.941)" fill="#ebebeb"/><path d="M367.612,182.926a.33.33,0,1,1-.33-.33.33.33,0,0,1,.33.33" transform="translate(-161.659 -80.442)" fill="#fafafa"/><path d="M369.644,182.926a.33.33,0,1,1-.331-.33.33.33,0,0,1,.331.33" transform="translate(-162.554 -80.442)" fill="#fafafa"/><path d="M371.675,182.926a.33.33,0,1,1-.33-.33.33.33,0,0,1,.33.33" transform="translate(-163.449 -80.442)" fill="#fafafa"/><path d="M307.58,201.062l4.314,12.991c1.165,3.508,4.23,4.108,7.927,4.108h24v-5.383l-21.923-3.13L316.669,196.3Z" transform="translate(-135.503 -86.479)" fill="#ffbe9d"/><path d="M374.99,220.041l1.9-.9s2.052-3.967,2.524-3.808.609,1.326-.215,3.149l2.53-.723s5.484,2.534,5.242,2.875a1.267,1.267,0,0,1-1.887.539c-1.194-.611-2.759-1.328-2.759-1.328l-2.955.844,3.81.483,3.583,3.26a1.755,1.755,0,0,1-2.192-.054l-9.307,2-2.915.165V221.16Z" transform="translate(-164.038 -94.861)" fill="#ffbe9d"/><path d="M390.243,230c-.04.027-.213-.248-.548-.615a2.845,2.845,0,0,0-.677-.523,2.783,2.783,0,0,0-1.005-.263,13.969,13.969,0,0,1-2.793-.476,13.849,13.849,0,0,1,2.829.187,2.754,2.754,0,0,1,1.1.319,2.613,2.613,0,0,1,.7.622,1.66,1.66,0,0,1,.392.749" transform="translate(-169.706 -100.486)" fill="#eb996e"/><path d="M389.162,231.612c-.035,0-.064-.192-.326-.248s-.69-.1-1.131-.144a9.2,9.2,0,0,1-1.636-.166,3.282,3.282,0,0,1,1.665-.124,4.969,4.969,0,0,1,1.172.24.467.467,0,0,1,.283.293c.024.1-.009.153-.026.15" transform="translate(-170.081 -101.721)" fill="#eb996e"/><path d="M275.468,117.442l-1.3,26.393,11.3,1.065.625-6.405s3.985.985,5.2-2.7c.774-2.356,1.462-20.806,1.462-20.806Z" transform="translate(-120.782 -50.656)" fill="#ffbe9d"/><path d="M291.351,115.353c.313,2.469-3.141,3.9-3.141,3.9l-.6,5.842a11.539,11.539,0,0,0-1.624-.014c.291-2.742-3.239-2.207-3.6-.337-.346,1.8,1.7,3,1.7,3a26.744,26.744,0,0,1-3.992,5.344c-2.171,2.2-3.338,2.377-5.578,2.311l-2.469-.114a30.97,30.97,0,0,1-1.523-7.091c-.31-2.4-2.181-5.536-1.648-9.432,1.513-11.072,12.122-9.9,12.122-9.9,5.5.153,9.628.764,10.354,6.5" transform="translate(-118.41 -47.941)" fill="#263238"/><path d="M294.59,109.456a15.259,15.259,0,0,1,6.984,1.4c2.1,1.149,3.8,4.223,3.364,6.582-.4.072-.83.233-1.229.3-.165-.294-.366-1.392-.531-1.687,0,.471-.144,1.529-.14,2-.7.2-1.251-.2-1.953,0a15.322,15.322,0,0,0-1.865-5.1" transform="translate(-129.78 -48.22)" fill="#263238"/><path d="M283.467,188.408l2.175,7.073,13-3.043c-.421-1.309-4.026-9.577-7.734-18.828a15.906,15.906,0,0,0-12.141-9.787,69.528,69.528,0,0,0-11.215-1.1c-6.567.073-15.075,2.833-16.374,9.271-.992,4.915,1.215,12.944,1.215,23.486l-1.554,22.135,32.629,1.107L280.161,199.3Z" transform="translate(-110.505 -71.686)" fill="#a3314f"/><g transform="translate(139.511 120.752)" opacity="0.2"><g clip-path="url(#u)"><path d="M249.369,216.212c4.1.837,8.3-.007,12.474-.255,2.53-.15,5.337-.423,7.338,1.132,1.587,1.233,2.226,3.306,2.684,5.263.993,4.241,1.673,13.014,2.148,21.2a15.41,15.41,0,0,0,8.518,12.9c1.306.651,4.744.672,4.767,1.111l-33.453,1.371Z" transform="translate(-249.369 -215.838)"/></g></g><rect width="4.092" height="49.028" transform="translate(159.262 165.288)" fill="#455a64"/><path d="M223.3,207.372v36.092a8.571,8.571,0,0,0,8.571,8.57h24.033V207.372a3.819,3.819,0,0,0-3.819-3.819H227.122a3.819,3.819,0,0,0-3.82,3.819" transform="translate(-98.375 -89.674)" fill="#455a64"/><path d="M293.309,290.442H234.783a6.353,6.353,0,0,1,6.353-6.353h45.821a6.353,6.353,0,0,1,6.353,6.353" transform="translate(-103.432 -125.154)" fill="#455a64"/><path d="M262.217,282.583a.941.941,0,0,1,.016.276,3.359,3.359,0,0,1-.1.789,4.318,4.318,0,0,1-3.426,3.259,17.225,17.225,0,0,1-2.313.087l-5.258.017c-3.732,0-7.11-.009-9.555-.034l-2.9-.045-.787-.027a.939.939,0,0,1-.275-.03.951.951,0,0,1,.275-.031l.787-.029,2.9-.051c2.445-.03,5.823-.05,9.555-.054l5.259.006a17.914,17.914,0,0,0,2.269-.055,4.1,4.1,0,0,0,1.773-.751,4.255,4.255,0,0,0,1.583-2.29c.176-.652.158-1.038.192-1.036" transform="translate(-104.686 -124.49)" fill="#263238"/><path d="M289.095,295.551a42.905,42.905,0,0,1-7.181,0,42.9,42.9,0,0,1,7.181,0" transform="translate(-124.196 -130.137)" fill="#263238"/><path d="M303.117,272.813a9.787,9.787,0,0,1-.363-1.719c-.195-1.112-.457-2.725-.768-4.718a25.083,25.083,0,0,0-1.625-6.8,16.634,16.634,0,0,0-2.175-3.471,15.557,15.557,0,0,0-3.262-2.939,14.583,14.583,0,0,0-3.955-1.907,14.855,14.855,0,0,0-4.035-.7c-2.649-.061-5.066-.05-7.079-.087s-3.651-.06-4.779-.1a9.834,9.834,0,0,1-1.753-.117,9.718,9.718,0,0,1,1.753-.117c1.128-.036,2.761-.068,4.779-.1s4.412-.073,7.1-.041a15.085,15.085,0,0,1,4.193.688,14.885,14.885,0,0,1,4.116,1.97,15.839,15.839,0,0,1,3.382,3.064,16.836,16.836,0,0,1,2.226,3.621c.133.312.243.629.364.937.059.154.116.308.174.46l.13.468q.128.464.254.915l.163.9c.207,1.185.314,2.275.454,3.277.257,2,.455,3.623.578,4.745a9.742,9.742,0,0,1,.131,1.752" transform="translate(-120.411 -110.137)" fill="#455a64"/><path d="M291.992,376.852h-.579a17.412,17.412,0,1,0-34.823,0h-.579a17.991,17.991,0,1,1,35.981,0" transform="translate(-112.784 -158.094)" fill="#455a64"/><path d="M257.1,390.492a2.7,2.7,0,1,1-2.7-2.7,2.7,2.7,0,0,1,2.7,2.7" transform="translate(-110.888 -170.841)" fill="#263238"/><path d="M320.623,389.827a2.7,2.7,0,1,1-2.7-2.7,2.7,2.7,0,0,1,2.7,2.7" transform="translate(-138.872 -170.548)" fill="#263238"/><path d="M292.479,382.96c0,.083-7.828.151-17.484.151s-17.485-.067-17.485-.151,7.827-.151,17.485-.151,17.484.067,17.484.151" transform="translate(-113.445 -168.645)" fill="#455a64"/><path d="M271.9,140.79a38.585,38.585,0,0,0,6.674-.215,14.492,14.492,0,0,0,6.828-3.12c1.132-1.036,1.417-1.581,1.481-3.752l.182-3.158-3.178-8.684-8.127-.67-7.521,3.44-.686,11.386a4.507,4.507,0,0,0,4.348,4.775" transform="translate(-117.863 -53.389)" fill="#263238"/><path d="M279.158,135.247c-.021,1.3-1.174,2.256-2.261,2.96s-2.313,1.47-2.633,2.725c-.623,2.442,2.545,4.285,2.846,6.788.22,1.823-1.116,3.409-1.963,5.038a10.31,10.31,0,0,0-.258,8.839c-3.42.3-6.86.594-10.3.724l-2.378-4.656-1.767,4.721a57.267,57.267,0,0,1-9.005-.737c1.77-1.4,1.906-4,1.791-6.251s-.542-6.242.956-7.93c1.033-1.165,2.648-1.671,3.713-2.807,1.541-1.646.807-2.3.048-4.086a12.349,12.349,0,0,1-.772-6.68c.355-2.233,1.747-4.134,2.87-6.1s1.189-3.355,1.811-6.075" transform="translate(-110.772 -53.624)" fill="#263238"/><path d="M264.2,119.126a7.867,7.867,0,0,1-6.014,4.04,4.791,4.791,0,0,0,3.984.58,9.475,9.475,0,0,1-3.866,2.247c.486,1.251,1.974,1.79,3.313,1.882a9.3,9.3,0,0,0,6.607-2.187,8.464,8.464,0,0,0,2.011-9.181" transform="translate(-113.743 -51.327)" fill="#263238"/><path d="M269.376,113.722a3.063,3.063,0,0,0,2.81-1.907,5.2,5.2,0,0,0,.067-3.538,3.926,3.926,0,0,0-1.876-2.54,3.71,3.71,0,0,0-3.671.661,5.561,5.561,0,0,0-2.256,3.849,4.427,4.427,0,0,0,1.781,4,3.692,3.692,0,0,0,4.287-.077" transform="translate(-116.494 -46.472)" fill="#263238"/><path d="M260.908,127.109a11.33,11.33,0,0,0,2.747.387,8.587,8.587,0,0,0,2.935-.548,7.759,7.759,0,0,0,4.834-5.143,8.577,8.577,0,0,0,.365-2.963,11.343,11.343,0,0,0-.556-2.717c.009,0,.043.054.1.169a4.584,4.584,0,0,1,.223.515,7.434,7.434,0,0,1,.439,2.02,8.4,8.4,0,0,1-.313,3.054,7.842,7.842,0,0,1-5,5.318,8.4,8.4,0,0,1-3.028.5,7.439,7.439,0,0,1-2.043-.313,4.525,4.525,0,0,1-.528-.191c-.119-.049-.178-.079-.175-.089" transform="translate(-114.942 -51.158)" fill="#455a64"/><path d="M268.921,127.426a7.917,7.917,0,0,0,3.823-4.994,2.226,2.226,0,0,1-.119.964,6.133,6.133,0,0,1-2.8,3.663,2.237,2.237,0,0,1-.9.366" transform="translate(-118.471 -53.937)" fill="#455a64"/><path d="M265.522,110.375a1.119,1.119,0,0,1,.218-.439,3.189,3.189,0,0,1,.985-.911,3.715,3.715,0,0,1,1.925-.523,3.978,3.978,0,0,1,2.3.807,4.551,4.551,0,0,1,1.5,1.926,5.207,5.207,0,0,1,.379,1.951,5.334,5.334,0,0,1-.165,1.323,1.3,1.3,0,0,1-.169.458,12.745,12.745,0,0,0,.128-1.776,5.338,5.338,0,0,0-.42-1.852,4.438,4.438,0,0,0-1.423-1.8,3.822,3.822,0,0,0-2.134-.773,3.658,3.658,0,0,0-1.817.433,4.379,4.379,0,0,0-1.305,1.171" transform="translate(-116.973 -47.8)" fill="#455a64"/><path d="M280.484,119.2c.045-.024.434.765,1.178,1.958a9.4,9.4,0,0,0,1.542,1.895,5.48,5.48,0,0,0,2.61,1.334,17.245,17.245,0,0,0,3,.3,13.023,13.023,0,0,0,2.457-.066,5.436,5.436,0,0,0,2.1-.772,1.634,1.634,0,0,1-.479.395,4.566,4.566,0,0,1-1.591.58,11.932,11.932,0,0,1-2.5.131,16.114,16.114,0,0,1-3.051-.286,5.618,5.618,0,0,1-2.728-1.42,8.921,8.921,0,0,1-1.536-1.984c-.36-.615-.609-1.132-.775-1.492a2.374,2.374,0,0,1-.227-.573" transform="translate(-123.565 -52.514)" fill="#455a64"/><path d="M280.484,119.2a4,4,0,0,1,.307.634c.188.411.467,1,.835,1.721s.821,1.568,1.344,2.5a17.735,17.735,0,0,0,1.886,2.888,9.425,9.425,0,0,0,2.6,2.212,7.249,7.249,0,0,0,2.637.879,7.528,7.528,0,0,0,2.573-.17c0,.01-.053.037-.165.082a4.039,4.039,0,0,1-.5.162,5.8,5.8,0,0,1-1.931.13,7.156,7.156,0,0,1-2.744-.849,9.371,9.371,0,0,1-2.692-2.26,16.869,16.869,0,0,1-1.9-2.945c-.512-.943-.949-1.8-1.293-2.539s-.6-1.342-.755-1.768a2.788,2.788,0,0,1-.2-.677" transform="translate(-123.564 -52.515)" fill="#455a64"/><path d="M278.464,115.2a3.514,3.514,0,0,1,.595-.533,14.031,14.031,0,0,1,1.81-1.211,12.2,12.2,0,0,1,3.007-1.2,9.729,9.729,0,0,1,3.964-.16,7.872,7.872,0,0,1,3.63,1.6,6.98,6.98,0,0,1,1.971,2.574,5.947,5.947,0,0,1,.506,2.126,4.061,4.061,0,0,1-.018.594c-.014.135-.026.205-.036.2a7.225,7.225,0,0,0-.64-2.839,6.982,6.982,0,0,0-1.951-2.45,7.781,7.781,0,0,0-3.512-1.521,9.73,9.73,0,0,0-3.852.134,12.741,12.741,0,0,0-2.971,1.121,17.931,17.931,0,0,0-1.841,1.122,5.184,5.184,0,0,1-.662.441" transform="translate(-122.675 -49.324)" fill="#455a64"/><path d="M286.232,108.969a10.114,10.114,0,0,0-6.267,3.5,2.855,2.855,0,0,1,.611-.91,7.764,7.764,0,0,1,4.56-2.544,2.85,2.85,0,0,1,1.1-.042" transform="translate(-123.336 -47.992)" fill="#455a64"/><path d="M270,117.56a8.039,8.039,0,0,0,1.464.134,3.962,3.962,0,0,0,3.777-4.823,8.045,8.045,0,0,0-.481-1.389c.013-.01.114.1.256.317a3.544,3.544,0,0,1,.426,1.028,4.031,4.031,0,0,1-3.974,5.073,3.525,3.525,0,0,1-1.1-.168c-.249-.084-.375-.157-.369-.172" transform="translate(-118.946 -49.113)" fill="#e8505b"/><path d="M277.147,162.482a2.347,2.347,0,0,1-.187-.385c-.112-.257-.275-.637-.475-1.13a22.053,22.053,0,0,1-1.322-4.317,11.5,11.5,0,0,1-.143-3.129,8.086,8.086,0,0,1,1.093-3.428c.646-1.088,1.63-2.062,1.892-3.374a5.863,5.863,0,0,0-.98-3.926c-.349-.632-.736-1.231-1.089-1.851a15.873,15.873,0,0,1-.928-1.89,7.7,7.7,0,0,1-.624-3.923,7.252,7.252,0,0,1,1.527-3.253,11.552,11.552,0,0,0,1.587-2.634,9.854,9.854,0,0,0,.583-2.467c.087-.746.1-1.4.117-1.927.005-.51.009-.916.012-1.224a2.323,2.323,0,0,1,.018-.428,2.4,2.4,0,0,1,.041.426c.015.28.036.693.043,1.226a17.8,17.8,0,0,1-.069,1.944,9.778,9.778,0,0,1-.552,2.524,11.573,11.573,0,0,1-1.582,2.7,7.046,7.046,0,0,0-1.458,3.151,7.462,7.462,0,0,0,.622,3.779,15.722,15.722,0,0,0,.915,1.854c.347.608.739,1.213,1.093,1.853a9.83,9.83,0,0,1,.877,1.993,4.425,4.425,0,0,1,.128,2.13,5.167,5.167,0,0,1-.853,1.87c-.37.553-.768,1.06-1.09,1.588a7.9,7.9,0,0,0-1.082,3.313,11.478,11.478,0,0,0,.106,3.07,23.925,23.925,0,0,0,1.225,4.311l.424,1.149a2.333,2.333,0,0,1,.132.407" transform="translate(-120.854 -54.273)" fill="#455a64"/><path d="M265.688,135.884a1.792,1.792,0,0,1-.2.307l-.6.854a13.627,13.627,0,0,0-1.779,3.358,7.181,7.181,0,0,0-.379,2.567,5.31,5.31,0,0,0,.254,1.415,8.311,8.311,0,0,0,.641,1.4,7.431,7.431,0,0,1,1.221,3.164,3.475,3.475,0,0,1-.441,1.776,6.632,6.632,0,0,1-1.126,1.488,30.179,30.179,0,0,0-2.564,2.511,5.3,5.3,0,0,0-1.063,3.046,14.908,14.908,0,0,0,.2,3,23.47,23.47,0,0,1,.283,2.646,6.086,6.086,0,0,1-.93,3.708,3.5,3.5,0,0,1-.716.771,2.03,2.03,0,0,1-.223.158c-.052.033-.08.048-.083.044a5.148,5.148,0,0,0,.926-1.036,6.12,6.12,0,0,0,.818-3.638,24.544,24.544,0,0,0-.316-2.618,14.841,14.841,0,0,1-.234-3.054,5.551,5.551,0,0,1,1.1-3.2,29.083,29.083,0,0,1,2.582-2.54,4.345,4.345,0,0,0,1.49-3.052,7.268,7.268,0,0,0-1.173-3.045,8.564,8.564,0,0,1-.648-1.448,5.534,5.534,0,0,1-.251-1.484,7.3,7.3,0,0,1,.425-2.643,12.867,12.867,0,0,1,1.881-3.357c.272-.364.492-.639.644-.824a1.689,1.689,0,0,1,.245-.271" transform="translate(-113.745 -59.863)" fill="#263238"/><path d="M286.252,161.894s-.035-.012-.1-.047a2.757,2.757,0,0,1-.267-.17,3.419,3.419,0,0,1-.831-.892,5.9,5.9,0,0,1-.634-4.358,21.228,21.228,0,0,1,.9-2.954,15.529,15.529,0,0,0,.9-3.374,10.87,10.87,0,0,0-.214-3.823,11.911,11.911,0,0,0-1.671-3.764,13.208,13.208,0,0,1-1.855-3.78,12.256,12.256,0,0,1-.267-3.917c.191-2.493.67-4.688.614-6.562a9.487,9.487,0,0,0-.909-4.279,10.02,10.02,0,0,0-.9-1.346,4.746,4.746,0,0,1,1,1.292,9.294,9.294,0,0,1,1.014,4.329c.082,1.9-.378,4.121-.552,6.583a12.108,12.108,0,0,0,.276,3.828,13.073,13.073,0,0,0,1.827,3.7,12.089,12.089,0,0,1,1.7,3.852,11.052,11.052,0,0,1,.2,3.922,15.566,15.566,0,0,1-.939,3.422,21.684,21.684,0,0,0-.923,2.914,5.878,5.878,0,0,0,.528,4.257,4.213,4.213,0,0,0,1.1,1.169" transform="translate(-123.799 -54.023)" fill="#455a64"/><path d="M341.321,391.894l-.029-1-9.38.232.06,3.285.58.024c2.58.085,13.124.25,14.834-.31,1.908-.626-6.066-2.234-6.066-2.234" transform="translate(-146.223 -172.208)" fill="#e8505b"/><g transform="translate(185.7 219.448)" opacity="0.4"><g clip-path="url(#s)"><path d="M335.365,394.861a3.242,3.242,0,0,0-1.236-1.964,3.147,3.147,0,0,0-2.2-.629l.057,2.61Z" transform="translate(-331.93 -392.252)" fill="#fff"/></g></g><g transform="translate(185.75 220.61)" opacity="0.4"><g clip-path="url(#t)"><path d="M345.268,394.33s2.8.74,2.462,1.205-11,.7-15.71.392l.011-.209,12.438-.167s.256-1.186.8-1.221" transform="translate(-332.02 -394.33)" fill="#fff"/></g></g><path d="M331.776,396.538a.884.884,0,0,0,.161.014l.462.018,1.7.036c1.435.02,3.417.021,5.606-.025s4.171-.132,5.6-.213l1.7-.108.46-.037a.819.819,0,0,0,.16-.021.869.869,0,0,0-.161,0l-.462.016-1.7.072c-1.433.06-3.413.133-5.6.18s-4.169.057-5.6.058h-1.7l-.462,0a.878.878,0,0,0-.161.009" transform="translate(-146.162 -174.543)" fill="#263238"/><path d="M354.257,395.6a2.471,2.471,0,0,1,.864-1.48,1.51,1.51,0,0,0-.864,1.48" transform="translate(-156.058 -173.628)" fill="#263238"/><path d="M349.289,393.76c.027.016.155-.147.286-.365s.216-.407.19-.423-.155.147-.286.364-.217.407-.19.424" transform="translate(-153.875 -173.121)" fill="#263238"/><path d="M347.924,393.271c.021.023.167-.079.324-.227s.268-.287.247-.309-.167.078-.324.227-.268.286-.247.309" transform="translate(-153.275 -173.016)" fill="#263238"/><path d="M347.037,392.09a2.125,2.125,0,1,0,.487-.062,1.1,1.1,0,0,0-.487.062" transform="translate(-152.885 -172.706)" fill="#263238"/><path d="M346.719,391.027a1.373,1.373,0,0,0,1.107.059,42.5,42.5,0,0,1-1.107-.059" transform="translate(-152.745 -172.26)" fill="#263238"/><path d="M349.827,392.23a1.726,1.726,0,0,0,.6-.017,3.523,3.523,0,0,0,.636-.155,1.761,1.761,0,0,0,.363-.159.325.325,0,0,0,.144-.19.238.238,0,0,0-.1-.238,1.1,1.1,0,0,0-1.354.352,1.066,1.066,0,0,0-.187.4.333.333,0,0,0-.012.162,1.72,1.72,0,0,1,.262-.517,1.083,1.083,0,0,1,.505-.345.933.933,0,0,1,.716.033c.1.069.062.182-.043.247a1.836,1.836,0,0,1-.334.151,4.112,4.112,0,0,1-.614.175c-.358.072-.587.077-.586.1" transform="translate(-154.114 -172.413)" fill="#263238"/><path d="M349.473,392.054a.589.589,0,0,0,.06-.418.98.98,0,0,0-.173-.435.6.6,0,0,0-.506-.295.239.239,0,0,0-.178.281.651.651,0,0,0,.107.266,1.852,1.852,0,0,0,.291.357.857.857,0,0,0,.349.235c.01-.015-.122-.1-.292-.291a2.145,2.145,0,0,1-.259-.355c-.085-.125-.147-.351,0-.382s.307.128.4.246a.982.982,0,0,1,.178.386,2.191,2.191,0,0,1,.019.4" transform="translate(-153.605 -172.211)" fill="#263238"/><path d="M332.016,392.173c0,.021.267-.031.69.009a2.927,2.927,0,0,1,2.489,1.9c.151.4.171.666.192.663a.54.54,0,0,0,0-.189,2.434,2.434,0,0,0-.113-.5,2.836,2.836,0,0,0-2.558-1.949,2.44,2.44,0,0,0-.513.024.552.552,0,0,0-.183.046" transform="translate(-146.268 -172.737)" fill="#263238"/><path d="M340.133,395.208a7.681,7.681,0,0,0,2.73-.034c0-.032-.613.018-1.365.026s-1.362-.025-1.365.008" transform="translate(-149.844 -174.087)" fill="#263238"/><path d="M336.859,395.307c-.022.023.053.128.118.267s.1.262.134.259.045-.149-.032-.308-.2-.241-.22-.218" transform="translate(-148.4 -174.149)" fill="#263238"/><path d="M335.592,393.8c-.022.022.041.118.139.214s.2.155.218.133-.041-.118-.139-.214-.2-.155-.218-.133" transform="translate(-147.841 -173.484)" fill="#263238"/><path d="M333.816,393.1c.007.031.131.027.27.073s.238.116.262.094-.056-.149-.229-.2-.313.006-.3.035" transform="translate(-147.06 -173.151)" fill="#263238"/><path d="M332.552,392.819c-.011.03.044.076.122.1s.151.027.161,0-.044-.077-.122-.1-.15-.027-.161,0" transform="translate(-146.503 -173.045)" fill="#263238"/><path d="M325.186,318.113c-.08-.006.2-5.01.625-11.176s.836-11.162.916-11.157-.2,5.009-.625,11.177-.836,11.161-.916,11.156" transform="translate(-143.253 -130.304)" fill="#263238"/><path d="M333.177,319.506a5.613,5.613,0,0,1-.1-.923c-.043-.645-.1-1.493-.167-2.518-.139-2.126-.346-5.062-.637-8.3s-.61-6.164-.853-8.281c-.116-1.02-.211-1.866-.284-2.507a5.738,5.738,0,0,1-.071-.925,5.59,5.59,0,0,1,.183.909c.1.588.229,1.441.376,2.5.3,2.112.647,5.038.939,8.281s.466,6.183.552,8.314c.043,1.065.068,1.928.074,2.524a5.6,5.6,0,0,1-.018.928" transform="translate(-145.848 -130.425)" fill="#263238"/><g transform="translate(165.233 164.973)" opacity="0.2"><g clip-path="url(#x)"><path d="M319.7,294.882a25.779,25.779,0,0,1-17.442,12.923,6.514,6.514,0,0,1-4.53-.338c-1.829-1.063-2.4-3.449-2.372-5.564s.006-5-.008-7.021Z" transform="translate(-295.346 -294.881)"/></g></g><path d="M280.75,229.636c-.011-.08,2.789-.512,6.253-.966s6.281-.757,6.291-.677-2.789.512-6.254.966-6.28.757-6.29.677" transform="translate(-123.683 -100.435)" fill="#263238"/><path d="M294.113,226.607a4.442,4.442,0,0,1-.948-.637l-.979-.757a1.224,1.224,0,0,1-.474-.648.875.875,0,0,1,.307-.837,1.024,1.024,0,0,1,.841-.258,1.287,1.287,0,0,1,.706.381,1.864,1.864,0,0,1,.5,1.19,2.6,2.6,0,0,1-.128,1.146c-.054,0,0-.447-.077-1.123a1.737,1.737,0,0,0-.482-1.023.83.83,0,0,0-1.164-.1.6.6,0,0,0-.222.557.994.994,0,0,0,.369.506l.936.8a4.5,4.5,0,0,1,.818.8" transform="translate(-128.504 -98.443)" fill="#263238"/><path d="M295.342,227.142a1.908,1.908,0,0,1,.265-.935,4.2,4.2,0,0,1,.577-.894,4.049,4.049,0,0,1,.446-.456,1.03,1.03,0,0,1,.714-.244.443.443,0,0,1,.369.284.542.542,0,0,1-.034.425,2.4,2.4,0,0,1-.395.521,4.475,4.475,0,0,1-.81.688,1.967,1.967,0,0,1-.885.4,8.928,8.928,0,0,1,.764-.566,5.383,5.383,0,0,0,.731-.7,2.439,2.439,0,0,0,.335-.46c.074-.159.024-.285-.113-.3-.352-.029-.67.314-.921.587a5,5,0,0,0-.6.814c-.291.5-.4.852-.446.839" transform="translate(-130.107 -98.951)" fill="#263238"/><path d="M326.882,335.213a30.023,30.023,0,0,1,2.15-5.5,30.026,30.026,0,0,1-2.15,5.5" transform="translate(-144.002 -145.252)" fill="#fafafa"/><path d="M305.924,331.437a12.078,12.078,0,0,1-4.208-3.648c.064-.056.922.849,2.082,1.85s2.173,1.727,2.126,1.8" transform="translate(-132.918 -144.405)" fill="#fafafa"/><path d="M312.778,308.555a16.111,16.111,0,0,1-2.5-3.527,16.144,16.144,0,0,1,2.5,3.527" transform="translate(-136.687 -134.378)" fill="#fafafa"/><path d="M303.319,276.261a23.421,23.421,0,0,1-3.246-4.083,23.406,23.406,0,0,1,3.246,4.083" transform="translate(-132.194 -119.906)" fill="#fafafa"/><path d="M323.383,275.376a23.282,23.282,0,0,1-5.195.208,23.275,23.275,0,0,1,5.195-.208" transform="translate(-140.176 -121.282)" fill="#fafafa"/><path d="M330.905,259.724a14.07,14.07,0,0,1-1.971-3.522,14.024,14.024,0,0,1,1.971,3.522" transform="translate(-144.906 -112.868)" fill="#fafafa"/><path d="M307,259.7a15.332,15.332,0,0,1-3.821,1.793A15.359,15.359,0,0,1,307,259.7" transform="translate(-133.564 -114.407)" fill="#fafafa"/><path d="M293.586,257.884A81.053,81.053,0,0,1,288.8,254.3a19.008,19.008,0,0,1,4.784,3.585" transform="translate(-127.23 -112.028)" fill="#fafafa"/><path d="M291.949,236.462c.027.082-1.256.539-2.742,1.3s-2.615,1.523-2.666,1.453a12.42,12.42,0,0,1,5.408-2.754" transform="translate(-126.233 -104.168)" fill="#fafafa"/><path d="M289.134,215.864a21.1,21.1,0,0,1-3.507-3.5,21.1,21.1,0,0,1,3.507,3.5" transform="translate(-125.83 -93.556)" fill="#fafafa"/><path d="M302.063,205.415a12.587,12.587,0,0,1-3.177,2.125,12.613,12.613,0,0,1,3.177-2.125" transform="translate(-131.672 -90.492)" fill="#fafafa"/><path d="M292.056,200.358a17.618,17.618,0,0,1-2.9-3.467,17.621,17.621,0,0,1,2.9,3.467" transform="translate(-127.384 -86.738)" fill="#fafafa"/><path d="M306.73,183.961a113.677,113.677,0,0,1-4.439,2.46,12.376,12.376,0,0,1,4.439-2.46" transform="translate(-133.172 -81.039)" fill="#fafafa"/><path d="M318.587,192.67a16.144,16.144,0,0,1,1.279-4.132,16.14,16.14,0,0,1-1.279,4.132" transform="translate(-140.345 -83.059)" fill="#fafafa"/><path d="M319.276,207.534a8.432,8.432,0,0,1-3.93-2.526c.057-.063.863.6,1.944,1.3s2.02,1.152,1.986,1.23" transform="translate(-138.923 -90.313)" fill="#fafafa"/><path d="M299.513,173.5a23.616,23.616,0,0,1,2.722-4.473,23.614,23.614,0,0,1-2.722,4.473" transform="translate(-131.947 -74.461)" fill="#fafafa"/><path d="M271.924,198.055a32.536,32.536,0,0,1-6.043-1.164,32.537,32.537,0,0,1,6.043,1.164" transform="translate(-117.132 -86.732)" fill="#fafafa"/></g><rect width="41.488" height="31.42" transform="translate(194.945 61.729)" fill="#f5f5f5"/><rect width="4.848" height="19.299" transform="translate(225.42 69.123)" fill="#e8505b"/><rect width="4.848" height="20.761" transform="translate(217.45 67.662)" fill="#e8505b"/><rect width="4.848" height="18.19" transform="translate(209.722 70.232)" fill="#e8505b"/><g clip-path="url(#a)"><g transform="translate(209.722 70.232)" opacity="0.3"><g clip-path="url(#z)"><rect width="4.848" height="18.19" transform="translate(0)" fill="#fff"/></g></g></g><rect width="4.848" height="15.35" transform="translate(201.876 73.073)" fill="#e8505b"/><rect width="4.848" height="19.299" transform="translate(225.42 69.123)" fill="#e8505b"/><g clip-path="url(#a)"><path d="M390.143,158.061c0,.081-7.967.145-17.791.145s-17.793-.065-17.793-.145,7.965-.145,17.793-.145,17.791.065,17.791.145" transform="translate(-156.199 -69.569)" fill="#263238"/><path d="M390.112,125.583c0,.032-.554-.068-1.551-.02a9.17,9.17,0,0,0-4,1.191,8.6,8.6,0,0,0-2.229,1.827c-.693.781-1.313,1.722-2.05,2.661a7.69,7.69,0,0,1-2.863,2.417,10.376,10.376,0,0,1-3.949.775c-1.377.049-2.713-.019-3.993.04a18.363,18.363,0,0,0-3.652.5,10.9,10.9,0,0,0-3.062,1.269,7.834,7.834,0,0,0-2.13,1.93,6.822,6.822,0,0,0-1.44,3.87,8.869,8.869,0,0,0,.162,1.536,4.239,4.239,0,0,1-.276-1.537,6.782,6.782,0,0,1,1.388-3.993,7.958,7.958,0,0,1,2.167-2.012,11.013,11.013,0,0,1,3.123-1.324,18.349,18.349,0,0,1,3.706-.525c1.3-.063,2.636,0,4-.046a10.177,10.177,0,0,0,3.841-.744,7.465,7.465,0,0,0,2.771-2.325c.733-.92,1.364-1.863,2.08-2.654a8.7,8.7,0,0,1,2.308-1.846,8.974,8.974,0,0,1,4.095-1.124,8.087,8.087,0,0,1,1.158.059,2.047,2.047,0,0,1,.4.074" transform="translate(-158.191 -55.266)" fill="#263238"/><path d="M337.975,99.042a1.3,1.3,0,0,1-.258.014l-.754,0-2.862-.026-10.228-.165-.122,0v-.123c-.006-4.348-.013-9.506-.021-15.022.017-8.034.032-15.306.043-20.6.019-2.618.035-4.745.046-6.241.012-.719.021-1.287.027-1.7.006-.18.011-.325.015-.441a.588.588,0,0,1,.015-.15.572.572,0,0,1,.015.15c0,.116.009.261.015.441.007.411.016.978.027,1.7.011,1.5.027,3.623.046,6.241.011,5.291.026,12.563.043,20.6-.008,5.516-.015,10.674-.021,15.022l-.121-.124,10.226.269,2.86.095.753.035a1.273,1.273,0,0,1,.258.025" transform="translate(-142.618 -24.051)" fill="#263238"/><path d="M437.657,91.242a1.747,1.747,0,0,1-.365.029l-1.048.027-3.854.046-12.714.043-7.364-.013.133-.133c-.022,3.11-.04,5.753-.053,7.66-.016.909-.028,1.641-.038,2.181-.008.232-.015.422-.021.578a.1.1,0,1,1-.044,0c-.006-.156-.012-.346-.021-.578-.009-.54-.022-1.272-.037-2.181-.013-1.907-.031-4.55-.053-7.66V91.11h.134l7.364-.013,12.714.043,3.854.046,1.048.027a1.7,1.7,0,0,1,.365.029" transform="translate(-181.583 -40.132)" fill="#263238"/><path d="M295.324,140.3a1.011,1.011,0,0,1-.2.013l-.589.009-2.265.007-8.329-.029-27.478-.205-21.861-.223h-.079l-.031-.072-4.856-11.357-1.334-3.169-.342-.836a1.942,1.942,0,0,1-.106-.291,2.018,2.018,0,0,1,.14.277l.375.822,1.395,3.142,4.95,11.318-.109-.073,21.861.172,27.478.29,8.328.121,2.264.048.589.02a1.025,1.025,0,0,1,.2.017" transform="translate(-100.379 -54.691)" fill="#263238"/><path d="M243.115,150.247a2.544,2.544,0,1,1-2.544-2.544,2.544,2.544,0,0,1,2.544,2.544" transform="translate(-104.862 -65.07)" fill="#e0e0e0"/><path d="M215.972,119.963H200.659a3.882,3.882,0,1,1,0-7.765h15.313a3.882,3.882,0,0,1,0,7.765" transform="translate(-86.689 -49.428)" fill="#455a64"/><rect width="35.663" height="23.679" transform="translate(119.988 27.67)" fill="#f5f5f5"/><rect width="23.681" height="9.402" transform="translate(139.492 34.808)" fill="#e8505b"/><path d="M232.795,62.829a52.833,52.833,0,0,1-5.541.145,52.824,52.824,0,0,1-5.541-.145,52.824,52.824,0,0,1,5.541-.145,52.833,52.833,0,0,1,5.541.145" transform="translate(-97.674 -27.615)" fill="#e0e0e0"/><path d="M232.795,65.9a52.552,52.552,0,0,1-5.541.146,52.542,52.542,0,0,1-5.541-.146,53.108,53.108,0,0,1,5.541-.145,53.117,53.117,0,0,1,5.541.145" transform="translate(-97.674 -28.968)" fill="#e0e0e0"/><path d="M232.795,68.97a52.827,52.827,0,0,1-5.541.145,52.817,52.817,0,0,1-5.541-.145,52.828,52.828,0,0,1,5.541-.145,52.837,52.837,0,0,1,5.541.145" transform="translate(-97.674 -30.32)" fill="#e0e0e0"/><path d="M232.795,72.041a52.833,52.833,0,0,1-5.541.145,52.824,52.824,0,0,1-5.541-.145,52.821,52.821,0,0,1,5.541-.145,52.83,52.83,0,0,1,5.541.145" transform="translate(-97.674 -31.673)" fill="#e0e0e0"/><path d="M232.795,75.111a52.83,52.83,0,0,1-5.541.145,52.821,52.821,0,0,1-5.541-.145,52.828,52.828,0,0,1,5.541-.145,52.837,52.837,0,0,1,5.541.145" transform="translate(-97.674 -33.026)" fill="#e0e0e0"/><path d="M228.22,78.182a36.472,36.472,0,0,1-6.508,0,36.471,36.471,0,0,1,6.508,0" transform="translate(-97.674 -34.379)" fill="#e0e0e0"/><path d="M249.854,55.556c0,.081-7.921.145-17.689.145s-17.691-.065-17.691-.145,7.919-.145,17.691-.145,17.689.065,17.689.145" transform="translate(-94.485 -24.411)" fill="#e0e0e0"/><path d="M381.745,83.769a1.89,1.89,0,0,1-.014-.257c0-.185-.009-.424-.015-.722-.008-.651-.019-1.562-.032-2.709-.016-2.337-.038-5.632-.064-9.577l.126.126-13.265.02c-.033.031.275-.275.144-.143v1.8q0,.9,0,1.773c0,1.17,0,2.316,0,3.429-.005,2.226-.01,4.327-.015,6.257l-.126-.126,9.577.064,2.709.032.722.015a1.881,1.881,0,0,1,.257.014,1.316,1.316,0,0,1-.23.014l-.7.015-2.681.033-9.657.064h-.126v-.127c0-1.93-.01-4.031-.015-6.257,0-1.114,0-2.259,0-3.429q0-.877,0-1.773v-1.8c-.13.129.177-.18.147-.148l13.265.02h.127V70.5c-.026,3.978-.049,7.3-.064,9.657-.014,1.136-.025,2.038-.032,2.681-.006.289-.011.52-.015.7a1.314,1.314,0,0,1-.014.23" transform="translate(-162.253 -30.995)" fill="#263238"/><rect width="6.633" height="6.633" transform="translate(222.203 33.831)" fill="#e0e0e0"/><path d="M473.81,92.182H458.5a3.882,3.882,0,1,1,0-7.765H473.81a3.882,3.882,0,0,1,0,7.765" transform="translate(-200.278 -37.189)" fill="#455a64"/><path d="M412.832,89.442a2.544,2.544,0,1,1-2.544-2.544,2.544,2.544,0,0,1,2.544,2.544" transform="translate(-179.63 -38.282)" fill="#e0e0e0"/><path d="M325.026,130.883a2.544,2.544,0,1,1-2.544-2.544,2.544,2.544,0,0,1,2.544,2.544" transform="translate(-140.947 -56.539)" fill="#e0e0e0"/><path d="M322.561,56.5H307.248a3.882,3.882,0,1,1,0-7.765h15.313a3.882,3.882,0,0,1,0,7.765" transform="translate(-133.646 -21.469)" fill="#455a64"/></g></g></svg>