<svg xmlns="http://www.w3.org/2000/svg" width="123" height="123" viewBox="0 0 123 123"><g transform="translate(-1158 -2898)"><circle cx="61.5" cy="61.5" r="61.5" transform="translate(1158 2898)" fill="#ced371"/><g transform="translate(1183.987 2926.958)"><g transform="translate(0 0)"><path d="M0,53.76a8.723,8.723,0,0,1,2.3-3.211A1.235,1.235,0,0,1,4.026,50.3c.44.791.405,1.082-.213,1.716-.211.216-.427.428-.64.641-1.457,1.459-1.465,2.761-.022,4.2Q13.623,67.334,24.1,77.8c.179.179.373.343.56.515.45.466.894.939,1.351,1.4,1.488,1.493,2.775,1.5,4.253.021L51.294,58.706q5.418-5.418,10.842-10.831a2.112,2.112,0,0,0,.75-1.92,5.15,5.15,0,0,0-.372-1.315,22.639,22.639,0,0,0-4.358-6.649l-1.412-1.706a2.366,2.366,0,0,1-.272.241c-.067.063-.135.126-.2.195a6.722,6.722,0,0,1-6.132,2.264,6.9,6.9,0,1,1,7.344-9.5A2.393,2.393,0,0,0,58.7,31.122c1.075.718,2.039,1.6,3.049,2.417.127.1.252.207.449.369-.194-3.314-.361-6.514-.577-9.71a3.116,3.116,0,0,0-2.375-2.783,14.119,14.119,0,0,0-2.068-.185,2.041,2.041,0,0,0-.335-.076c-6.56-.378-13.12-.744-19.679-1.141a2.687,2.687,0,0,0-2.229.867Q21.456,34.4,7.945,47.886c-.763.763-.952.8-1.819.412-.463-.792-.427-1.128.221-1.776Q20,32.867,33.653,19.211a4.126,4.126,0,0,1,3.319-1.293c6.052.361,12.106.7,18.158,1.064a40.267,40.267,0,0,1,4.3.335,5.258,5.258,0,0,1,4.306,4.968q.338,6.019.7,12.037a1.6,1.6,0,0,0,.28.754,39.509,39.509,0,0,1,6.417,17.67A28.866,28.866,0,0,1,70.3,66.814,13.887,13.887,0,0,1,66.514,73.2c-3.085,2.829-7.382,3.2-11.3.972a22.187,22.187,0,0,1-7.531-7.586c-.151-.233-.3-.47-.5-.787-.211.2-.405.376-.59.561Q39.1,73.855,31.613,81.351A4.5,4.5,0,0,1,26.537,82.6a5.014,5.014,0,0,1-1.72-1.137Q13.107,69.806,1.459,58.089A12.012,12.012,0,0,1,0,55.712V53.76m66.654,7.294c-.72-.163-.911-.661-.94-1.341-.076-1.761-.1-3.534-.335-5.275-.257-1.87-.739-3.709-1.125-5.574l-12.98,12.95c1.02,1.44,2.016,2.979,3.151,4.408a10.676,10.676,0,0,0,4.155,3.307c1.995.848,3.605.482,4.811-1.315a17.253,17.253,0,0,0,1.58-3.373c.273-.7.627-1.115,1.41-1.042a1.139,1.139,0,0,1,.684,1.426,12.145,12.145,0,0,1-2.275,4.65,5.487,5.487,0,0,1-6.5,1.757,12.546,12.546,0,0,1-2.843-1.574,20.432,20.432,0,0,1-5.355-6.343c-.1-.166-.207-.325-.274-.43l-1.148.978c.642.956,1.211,1.886,1.86,2.755A17.717,17.717,0,0,0,56.8,72.629a7.429,7.429,0,0,0,5.2.694,8.067,8.067,0,0,0,5.218-4.479,19.563,19.563,0,0,0,2.071-8.8,37.606,37.606,0,0,0-4.717-19.235,21.13,21.13,0,0,0-7.126-8.047c-3.878-2.458-8.024-1.791-10.591,1.744l.924,1.179c.163-.206.263-.331.362-.458a5.673,5.673,0,0,1,7.244-1.878A13.108,13.108,0,0,1,60.543,37.5a34.9,34.9,0,0,1,7.265,22.383c-.005.8-.3,1.06-1.154,1.176M54.968,29.48c-.836-1.689-3.282-2.537-5.308-1.941-1.575.464-3.435,2.247-3.275,4.282a9.051,9.051,0,0,1,8.583-2.341m-5.279,7.21a4.427,4.427,0,0,0,4.92-1.332,3.519,3.519,0,0,0-4.92,1.332" transform="translate(0 -17.91)" fill="#030303"/><path d="M15.188,57.454c.867.393,1.057.351,1.82-.412Q30.508,43.543,44,30.035a2.686,2.686,0,0,1,2.229-.867c6.559.4,13.119.763,19.679,1.141a2.044,2.044,0,0,1,.336.076c.046,1.5.085,3,.141,4.5.03.806.1,1.61.135,2.415.022.447.021.9.031,1.344a6.918,6.918,0,1,0-7.344,9.5,6.722,6.722,0,0,0,6.131-2.264c.062-.069.13-.132.2-.2a2.408,2.408,0,0,0,.272-.241l1.413,1.706c.044.989.083,1.978.132,2.967.042.85.136,1.7.129,2.55a2.674,2.674,0,0,1-.788,1.933c-1.335,1.342-2.647,2.707-3.968,4.063-.166-.191-.322-.393-.5-.572Q56.1,51.964,49.981,45.848c-.611-.61-.973-.623-1.7-.113l-2.152-2.25c.438-.8.406-1.075-.227-1.715q-1.325-1.338-2.661-2.664c-1.206-1.2-2.153-1.208-3.343-.019Q28.314,50.673,16.729,62.26c-1.2,1.2-1.2,2.147,0,3.349q8.059,8.063,16.122,16.122c1.084,1.084,2.176,2.16,3.265,3.24l-2.4,2.5c-.187-.171-.381-.335-.56-.515Q22.686,76.49,12.213,66.016c-1.442-1.443-1.434-2.744.022-4.2.213-.214.429-.425.64-.641.618-.634.653-.926.213-1.716l2.1-2" transform="translate(-9.062 -27.065)" fill="#b55a72"/><path d="M161.36,137.21c1.321-1.356,2.633-2.721,3.968-4.064a2.673,2.673,0,0,0,.788-1.932c.007-.85-.087-1.7-.129-2.55-.049-.989-.088-1.978-.132-2.967a22.64,22.64,0,0,1,4.358,6.649,5.153,5.153,0,0,1,.372,1.315,2.112,2.112,0,0,1-.75,1.92q-5.434,5.4-10.842,10.831l-21.032,21.032c-1.477,1.477-2.765,1.472-4.253-.021-.457-.459-.9-.932-1.351-1.4l2.4-2.5a2.028,2.028,0,0,0,2.741-.55q11.6-11.6,23.207-23.191a2.22,2.22,0,0,0,.657-2.57" transform="translate(-107.699 -105.616)" fill="#a3314f"/><path d="M271,122.276q.136-1.372.273-2.744c.853-.116,1.149-.379,1.154-1.175a34.9,34.9,0,0,0-7.265-22.384A13.105,13.105,0,0,0,260,91.831a5.673,5.673,0,0,0-7.243,1.877c-.1.126-.2.252-.362.458l-.924-1.179c2.567-3.536,6.714-4.2,10.592-1.744a21.133,21.133,0,0,1,7.126,8.047,37.6,37.6,0,0,1,4.717,19.235,19.558,19.558,0,0,1-2.071,8.8,8.066,8.066,0,0,1-5.218,4.479,7.428,7.428,0,0,1-5.2-.694,17.719,17.719,0,0,1-6.272-5.612c-.65-.869-1.218-1.8-1.86-2.755l1.148-.979c.067.1.176.264.274.43a20.427,20.427,0,0,0,5.355,6.343,12.541,12.541,0,0,0,2.843,1.574,5.487,5.487,0,0,0,6.5-1.757,12.142,12.142,0,0,0,2.275-4.65,1.138,1.138,0,0,0-.684-1.426" transform="translate(-204.62 -76.388)" fill="#636363"/><path d="M307.227,43.986c-.01-.448-.009-.9-.03-1.344-.039-.805-.1-1.61-.135-2.415-.056-1.5-.095-3-.141-4.5a14.117,14.117,0,0,1,2.068.185,3.115,3.115,0,0,1,2.375,2.783c.216,3.2.383,6.4.577,9.71-.2-.162-.322-.266-.449-.369-1.01-.815-1.974-1.7-3.049-2.417a2.393,2.393,0,0,1-1.216-1.634" transform="translate(-249.741 -32.408)" fill="#a3314f"/><path d="M83.219,98.135a2.22,2.22,0,0,1-.657,2.57Q70.945,112.288,59.356,123.9a2.028,2.028,0,0,1-2.741.55c-1.088-1.08-2.18-2.156-3.265-3.24q-8.063-8.059-16.122-16.122c-1.2-1.2-1.2-2.15,0-3.349Q48.81,90.148,60.4,78.563c1.19-1.19,2.137-1.183,3.343.019q1.334,1.329,2.661,2.664c.634.64.665.915.227,1.715-.819.423-1.075.393-1.718-.253-.943-.947-1.876-1.9-2.839-2.884l-.735.807c-.1.088-.217.169-.314.266Q49.963,91.953,38.906,103.013c-.128.128-.242.269-.364.406.086.095.146.166.211.231q7.684,7.685,15.371,15.368a3.263,3.263,0,0,0,.266.216l3.3,3.124L81.166,98.883c-.131-.11-.339-.261-.519-.44Q74.88,92.684,69.114,86.924c-.519-.517-.778-1.034-.333-1.714.724-.509,1.085-.5,1.7.113Q76.6,91.438,82.719,97.563c.179.179.334.381.5.573" transform="translate(-29.559 -66.541)" fill="#030302"/><path d="M147.674,94.588c-.445.68-.186,1.2.333,1.714q5.776,5.75,11.533,11.519c.18.179.388.33.519.44l-23.481,23.476-3.3-3.124a5.958,5.958,0,0,1,.526-.7q9.826-9.84,19.661-19.671a3.569,3.569,0,0,0,0-5.208q-6.281-6.288-12.572-12.565a4.325,4.325,0,0,0-.668-.457l.735-.807c.963.979,1.9,1.937,2.839,2.884.643.646.9.676,1.718.253l2.153,2.25" transform="translate(-108.451 -75.919)" fill="#f7f4f4"/><path d="M71.01,93.532a4.326,4.326,0,0,1,.668.457q6.293,6.275,12.572,12.565a3.569,3.569,0,0,1,0,5.208q-9.83,9.836-19.661,19.671a5.941,5.941,0,0,0-.526.7,3.293,3.293,0,0,1-.266-.216q-7.687-7.683-15.371-15.368c-.065-.065-.125-.137-.211-.231.123-.137.237-.278.364-.406Q59.636,104.855,70.7,93.8c.1-.1.209-.177.314-.265m-7.136,30.24c.134.057.26.108.384.165a6.927,6.927,0,0,0,8-11.038c-.394-.427-.821-.822-1.223-1.241a1.352,1.352,0,0,1-.139-2.033,1.368,1.368,0,0,1,2.036.113c.3.29.58.6.891.883a1.734,1.734,0,0,1,.595,1.674,2.773,2.773,0,0,0,2.316,3.131,2.81,2.81,0,0,0,3.212-2.392,6.754,6.754,0,0,0-.54-4.075c-.181-.376-.187-.623.15-.892a3.6,3.6,0,0,0,.618-.659,2.76,2.76,0,0,0-1.282-4.289,2.525,2.525,0,0,0-2.878.647,1.313,1.313,0,0,1-1.76.334,6.9,6.9,0,0,0-7.573,11.066c.464.518.981.99,1.46,1.5a1.352,1.352,0,1,1-1.92,1.895c-.371-.351-.724-.722-1.086-1.082a1.554,1.554,0,0,1-.448-1.457,2.785,2.785,0,0,0-2.322-3.191,2.817,2.817,0,0,0-3.174,2.27,5.914,5.914,0,0,0,.279,3.559,1.546,1.546,0,0,1-.379,2.056,2.649,2.649,0,0,0,.084,3.765,2.752,2.752,0,0,0,3.785.172c.319-.266.6-.573.921-.875" transform="translate(-39.232 -79.443)" fill="#fcfcfc"/><path d="M108.091,164.817c-.317.3-.6.609-.921.875a2.752,2.752,0,0,1-3.785-.172,2.648,2.648,0,0,1-.084-3.765,1.546,1.546,0,0,0,.379-2.056,5.914,5.914,0,0,1-.279-3.559,2.817,2.817,0,0,1,3.174-2.27,2.785,2.785,0,0,1,2.321,3.191,1.554,1.554,0,0,0,.448,1.457c.363.361.715.732,1.086,1.082a1.352,1.352,0,1,0,1.92-1.895c-.479-.506-1-.978-1.46-1.5a6.905,6.905,0,0,1,7.573-11.066,1.313,1.313,0,0,0,1.76-.334,2.525,2.525,0,0,1,2.878-.647,2.76,2.76,0,0,1,1.282,4.289,3.59,3.59,0,0,1-.618.659c-.338.268-.331.516-.15.891a6.754,6.754,0,0,1,.54,4.075,2.81,2.81,0,0,1-3.212,2.392,2.773,2.773,0,0,1-2.316-3.131,1.733,1.733,0,0,0-.594-1.674c-.31-.279-.589-.593-.891-.883a1.368,1.368,0,0,0-2.036-.113,1.352,1.352,0,0,0,.139,2.033c.4.419.83.814,1.223,1.241a6.927,6.927,0,0,1-7.995,11.038c-.124-.056-.249-.107-.384-.165m7.976-18.031a9.62,9.62,0,0,0-1.1.132,4.831,4.831,0,0,0-2.349,8.089c.446.474.926.915,1.371,1.389a3.4,3.4,0,0,1,.393,4.179,3.233,3.233,0,0,1-3.932,1.4,10.477,10.477,0,0,1-2.51-1.913,3.313,3.313,0,0,1-1.114-3.2.69.69,0,0,0-.554-.9c-.464-.085-.716.2-.809.659a4.758,4.758,0,0,0,.757,3.58,1.132,1.132,0,0,1-.175,1.729c-.339.351-.682.7-1.035,1.035s-.489.706-.107,1.083.76.23,1.1-.1.656-.658.987-.984c.67-.661,1.014-.694,1.832-.179a4.859,4.859,0,0,0,6.356-.944,4.782,4.782,0,0,0-.288-6.516c-.5-.518-1.041-1-1.491-1.56a3.352,3.352,0,0,1,.382-4.7,3.4,3.4,0,0,1,4.67.08q.683.647,1.331,1.33a3.293,3.293,0,0,1,.94,2.929c-.082.5.035.919.6.98.524.057.709-.3.779-.777a4.818,4.818,0,0,0-.776-3.444c-.495-.759-.454-1.067.176-1.711.357-.366.732-.715,1.076-1.092a.705.705,0,0,0,.055-1.058.693.693,0,0,0-1.048.1c-.344.345-.686.694-1.037,1.033-.663.64-1,.679-1.778.177a4.836,4.836,0,0,0-2.7-.818" transform="translate(-83.449 -120.488)" fill="#030303"/><path d="M125.308,156.052a4.836,4.836,0,0,1,2.7.818c.775.5,1.116.463,1.778-.177.351-.339.692-.688,1.037-1.033a.693.693,0,0,1,1.048-.1.705.705,0,0,1-.055,1.058c-.344.378-.718.727-1.076,1.092-.63.644-.671.952-.176,1.711a4.818,4.818,0,0,1,.776,3.444c-.07.477-.256.834-.779.777-.567-.062-.684-.483-.6-.98a3.293,3.293,0,0,0-.94-2.929q-.647-.683-1.331-1.33a3.4,3.4,0,0,0-4.67-.08,3.352,3.352,0,0,0-.382,4.7c.45.558.991,1.042,1.491,1.56a4.782,4.782,0,0,1,.288,6.516,4.859,4.859,0,0,1-6.356.944c-.818-.515-1.162-.482-1.832.179-.331.327-.657.657-.987.984s-.717.48-1.1.1-.246-.746.107-1.083.7-.684,1.035-1.035a1.132,1.132,0,0,0,.175-1.729,4.758,4.758,0,0,1-.757-3.58c.093-.46.346-.744.809-.659a.69.69,0,0,1,.554.9,3.313,3.313,0,0,0,1.114,3.2,10.479,10.479,0,0,0,2.51,1.913,3.233,3.233,0,0,0,3.932-1.4,3.4,3.4,0,0,0-.393-4.179c-.445-.474-.925-.915-1.371-1.389a4.831,4.831,0,0,1,2.349-8.089,9.618,9.618,0,0,1,1.1-.132" transform="translate(-92.69 -129.754)" fill="#ced371"/></g></g></g></svg>