<svg xmlns="http://www.w3.org/2000/svg" width="136" height="136" viewBox="0 0 136 136"><g transform="translate(-810 -840)"><circle cx="68" cy="68" r="68" transform="translate(810 840)" fill="#ced371"/><g transform="translate(835.834 854.917)"><g transform="translate(0 12.083)"><path d="M0,190.351a1.915,1.915,0,0,1,1.741-.7c1.412.038,2.827.011,4.339.011v-.869q0-8.079,0-16.158c0-1.41.324-1.732,1.729-1.733,1.031,0,2.061-.009,3.092,0,.917.01,1.245.307,1.371,1.194-.045.808-.522,1.117-1.276,1.114-.839,0-1.679,0-2.558,0V189.63c.309.015.584.04.86.04q7.331,0,14.663,0c.255,0,.51-.034.765-.053h2.888V173.246H24.73q-3.915-.016-7.83-.033c-1.013,0-1.255-.189-1.521-1.139.251-.935.543-1.169,1.522-1.17,3.552,0,7.1,0,10.755,0V168.58c0-1.519.034-3.04-.013-4.558-.027-.868.244-1.443,1.121-1.652,1.016.314,1.212.576,1.212,1.661q0,12.316,0,24.631v1h.966q7.1,0,14.2,0c.358,0,.716-.032,1.074-.049h2.911V153.569H29.976c0,1.47.006,2.881,0,4.293-.006.948-.281,1.272-1.212,1.48a1.233,1.233,0,0,1-1.113-1.406c.021-1.777,0-3.555.009-5.332,0-.957.41-1.375,1.356-1.376q10.547-.009,21.093,0c.992,0,1.4.412,1.4,1.414.006,2.934,0,5.869,0,8.916h.85c2.575,0,5.151.015,7.726-.009.822-.008,1.333.29,1.476,1.123-.231.937-.536,1.193-1.5,1.2-2.573.007-5.146,0-7.72,0-.269,0-.538.022-.791.034v25.76h.879q7.218,0,14.436,0c.332,0,.665-.032,1-.049h2.843V163.905H67.875L66.1,163.87c-.957-.017-1.263-.261-1.5-1.2a1.236,1.236,0,0,1,1.4-1.122c1.88.022,3.76,0,5.641.009,1.041,0,1.426.389,1.43,1.462.009,2.576,0,5.153,0,7.729v18.912c1.511,0,2.946,0,4.381,0,1.371,0,1.7.323,1.7,1.663,0,1.417.007,2.834,0,4.251-.006.979-.429,1.391-1.418,1.413-.129,0-.258,0-.386,0q-37.786,0-75.572.01A1.818,1.818,0,0,1,0,196.228Zm73.9,4.288h2.9v-2.6H73.909c-.231-.012-.461-.036-.692-.036q-35.028,0-70.057,0H2.344v2.523l.132.124c.206.007.412.019.617.019q35.054,0,70.109,0c.231,0,.462-.018.694-.028" transform="translate(0 -122.49)" fill="#030404"/><path d="M139.278,168.357c.932-.207,1.207-.531,1.212-1.48.008-1.412,0-2.823,0-4.293h16.254q0,3.435,0,6.87-.006,14.588-.013,29.176c-.358.017-.716.049-1.074.049q-7.1,0-14.2,0h-.966v-1q0-12.315,0-24.631c0-1.085-.2-1.347-1.212-1.661q0-1.514,0-3.028" transform="translate(-110.516 -131.505)" fill="#c7e973"/><path d="M262.7,206.664c.233.937.539,1.181,1.5,1.2.59.011,1.181.023,1.771.035q-.006,12.855-.012,25.709c-.332.017-.665.049-1,.049q-7.218,0-14.435,0h-.879V207.9c.253-.011.522-.033.791-.034,2.573,0,5.146,0,7.719,0,.96,0,1.265-.259,1.5-1.2H262.7" transform="translate(-198.088 -166.482)" fill="#9cc5fa"/><path d="M57.147,269.737c-.255.018-.51.053-.765.053q-7.331,0-14.662,0c-.275,0-.551-.025-.86-.04V253.334c.879,0,1.718,0,2.558,0,.754,0,1.232-.307,1.276-1.114L47.8,252.2c.267.95.509,1.134,1.521,1.139q3.915.019,7.83.033,0,8.185-.005,16.369" transform="translate(-32.422 -202.611)" fill="#a3314f"/><path d="M144.667,28.943c.169-.963.35-2.081.567-3.192a1.272,1.272,0,0,0-.429-1.363c-.74-.639-1.412-1.355-2.115-2.037a2.729,2.729,0,0,1,1.55-4.754c.995-.13,1.982-.318,2.979-.428a1.087,1.087,0,0,0,1-.694c.423-.936.908-1.843,1.358-2.767a2.728,2.728,0,0,1,5,.022c.457.949.9,1.907,1.414,2.824a1.32,1.32,0,0,0,.8.57c1.059.208,2.135.327,3.2.488a2.717,2.717,0,0,1,1.588,4.589c-.732.761-1.483,1.507-2.272,2.208a1.23,1.23,0,0,0-.42,1.294c.194.984.353,1.976.527,2.964a2.624,2.624,0,0,1-.995,2.678,2.592,2.592,0,0,1-2.9.29c-.923-.451-1.841-.919-2.724-1.442a1.3,1.3,0,0,0-1.481.017c-.911.526-1.841,1.03-2.8,1.465a2.74,2.74,0,0,1-3.85-2.731m11.727-9.465a3.406,3.406,0,0,1-2.728-2.317c-.325-.78-.729-1.527-1.123-2.276a2.48,2.48,0,0,0-.448-.481,2.386,2.386,0,0,0-.509.5c-.456.861-.91,1.725-1.3,2.617a3.112,3.112,0,0,1-2.729,1.946c-.968.107-1.934.252-2.894.419-.649.113-.734.392-.279.859a20.3,20.3,0,0,0,1.772,1.714,3.54,3.54,0,0,1,1.317,3.967c-.145.808-.3,1.614-.426,2.426-.031.2,0,.569.1.611a.95.95,0,0,0,.7-.058q1.382-.678,2.73-1.422a2.858,2.858,0,0,1,2.933-.026c.946.515,1.9,1.018,2.866,1.5a.778.778,0,0,0,.627.006c.106-.058.131-.367.1-.55-.156-.989-.332-1.975-.516-2.959a3.062,3.062,0,0,1,.976-3.069c.765-.686,1.492-1.416,2.211-2.151.417-.426.326-.736-.255-.832-1.036-.171-2.082-.284-3.124-.422" transform="translate(-112.488 -12.083)" fill="#050403"/><path d="M240.847,83.3a2.957,2.957,0,0,1,.437.126c.905.416,1.818.817,2.705,1.269a1.147,1.147,0,1,1-.966,2.08c-.914-.4-1.812-.828-2.7-1.277a.968.968,0,0,1-.569-1.271,4.6,4.6,0,0,1,.924-1.058l.17.131" transform="translate(-190.179 -68.49)" fill="#060606"/><path d="M124.481,85.407a3.089,3.089,0,0,1-.746.818,26.139,26.139,0,0,1-2.562,1.213,1.148,1.148,0,1,1-.97-2.078c.866-.438,1.743-.857,2.637-1.234.8-.339,1.634.207,1.642,1.282" transform="translate(-94.821 -69.168)" fill="#060606"/><path d="M251.377,61.268c.437,0,.875-.017,1.31,0a1.073,1.073,0,0,1,1.111,1.053,1.093,1.093,0,0,1-1.01,1.232,22.535,22.535,0,0,1-2.926-.007,1.078,1.078,0,0,1-1.012-1.162,1.13,1.13,0,0,1,1.139-1.12c.051,0,.1,0,.154,0h1.234Z" transform="translate(-197.462 -51.106)" fill="#050505"/><path d="M113,61.26c.437,0,.875-.02,1.31,0a1.114,1.114,0,0,1,1.137,1.118,1.08,1.08,0,0,1-1.014,1.161,22.607,22.607,0,0,1-2.926.006,1.092,1.092,0,0,1-1.008-1.234,1.072,1.072,0,0,1,1.113-1.05c.462-.02.925,0,1.388,0" transform="translate(-87.674 -51.098)" fill="#050505"/><path d="M11.349,351.217v-2.523H82.222c.231,0,.461.024.692.036q-.007,1.3-.013,2.6c-.231.01-.463.027-.694.027q-35.054,0-70.109,0c-.206,0-.412-.012-.618-.019l-.132-.125" transform="translate(-9.005 -279.182)" fill="#4073c7"/><path d="M223.821,198.63q.007-14.588.013-29.176,0-3.435,0-6.87h2.9V198.63Z" transform="translate(-177.601 -131.505)" fill="#b5e045"/><path d="M328.627,238.344q.006-12.855.012-25.709h2.831v25.709Z" transform="translate(-260.764 -171.22)" fill="#7badf1"/><path d="M119.732,274.24q0-8.185.005-16.369h2.882V274.24Z" transform="translate(-95.007 -207.115)" fill="#a3314f"/><path d="M357.84,351.475q.007-1.3.013-2.6h2.882v2.6Z" transform="translate(-283.944 -279.325)" fill="#345ea5"/><path d="M11.349,360.91l.132.125-.132-.125" transform="translate(-9.005 -288.876)" fill="#345ea5"/><path d="M156.448,35.348a3.539,3.539,0,0,0-1.317-3.967,20.34,20.34,0,0,1-1.772-1.714c-.455-.467-.37-.746.279-.859.96-.167,1.925-.312,2.894-.419a3.113,3.113,0,0,0,2.729-1.946c.391-.891.845-1.756,1.3-2.617a2.386,2.386,0,0,1,.509-.5,2.481,2.481,0,0,1,.448.481c.394.749.8,1.5,1.123,2.276a3.406,3.406,0,0,0,2.728,2.317,8.825,8.825,0,0,1-8.921,6.951" transform="translate(-121.462 -21.003)" fill="#ffb500"/><path d="M167.737,54.843a8.825,8.825,0,0,0,8.921-6.951c1.042.138,2.088.251,3.124.422.582.1.672.406.255.832-.719.735-1.446,1.465-2.211,2.151a3.062,3.062,0,0,0-.976,3.069c.184.984.361,1.97.516,2.959.029.183,0,.492-.1.55a.778.778,0,0,1-.627-.006c-.966-.477-1.92-.98-2.866-1.5a2.858,2.858,0,0,0-2.933.026q-1.348.743-2.73,1.422a.95.95,0,0,1-.7.058c-.1-.042-.132-.406-.1-.611.122-.812.281-1.618.426-2.426" transform="translate(-132.751 -40.497)" fill="#ffb500"/></g></g></g></svg>