<svg xmlns="http://www.w3.org/2000/svg" xmlns:xlink="http://www.w3.org/1999/xlink" width="136" height="136" viewBox="0 0 136 136"><defs><clipPath id="a"><rect width="93.9" height="93.906" fill="none"/></clipPath></defs><g transform="translate(-810 -1063)"><circle cx="68" cy="68" r="68" transform="translate(810 1063)" fill="#ced371"/><g transform="translate(831.05 1084.047)"><g clip-path="url(#a)"><path d="M53.342,84.749c1.2.273,1.371.774.592,1.714-.213.257-.415.523-.622.785-.419.444-.842.883-1.255,1.331q-2.454,2.661-4.9,5.327a4.216,4.216,0,0,1-1.091-.634q-3.056-3.356-6.042-6.776a4.634,4.634,0,0,1-.529-1.056c.382-.217.751-.587,1.148-.62,1.043-.088,2.1-.03,3.226-.03,0-.73,0-1.341,0-1.951q-.015-13.726-.031-27.453,0-1.023,0-2.047V50.107H9.116c0,1.049-.03,2.037.009,3.022.035.912-.291,1.379-1.258,1.23q-3.551-3.188-7.1-6.377c-1.011-.91-1.019-1.148-.042-2.022C2.918,44,5.1,42.025,7.333,40.1a4.318,4.318,0,0,1,1.331-.515A5.04,5.04,0,0,1,9.1,40.852c.065.981.021,1.969.021,2.977h1.21l2.069.006,2.664,0c.371.01.743.048,1.111.025a.991.991,0,0,1,1.187.828c-.374.275-.741.777-1.122.787-2.569.07-5.141.036-7.712.037a.938.938,0,0,1-1.059-1.082c.006-.689,0-1.379,0-2.275l-5.378,4.8L7.467,51.72c0-.719,0-1.2,0-1.676,0-1.552.094-1.647,1.617-1.647H43.946c1.463,0,1.568.107,1.568,1.585q0,17.434,0,34.867c0,.137-.007.275,0,.411.045.82-.333,1.209-1.161,1.187-.659-.018-1.319,0-2.19,0l4.795,5.379,4.777-5.378c-.752,0-1.261,0-1.77,0-1.459,0-1.571-.115-1.571-1.593q0-17.485,0-34.97c0-1.344.138-1.484,1.464-1.484q9.306,0,18.613,0,8.278,0,16.557,0c1.241,0,1.406.174,1.413,1.438,0,.562,0,1.125,0,1.912l5.374-4.8-5.374-4.783c0,.707,0,1.175,0,1.643,0,1.613-.1,1.711-1.667,1.712H50.015c-1.528,0-1.622-.1-1.622-1.643q0-17.382,0-34.764c0-.171.007-.343,0-.514A.952.952,0,0,1,49.5,7.46c.672.011,1.345,0,2.249,0l-4.8-5.384L42.178,7.462c.795,0,1.342,0,1.889,0,1.277.007,1.44.162,1.446,1.4.005,1.3,0,2.606,0,3.908q0,15.634,0,31.267c0,1.263-.168,1.468-1.278,1.471-3.565.009-7.13,0-10.695.009-.623,0-1.074-.171-1.224-.83.154-.727.666-.834,1.313-.83,3.08.018,6.161.008,9.242.008h1c0-2.317,0-4.473,0-6.629q-.014-11.091-.03-22.182l0-2.665q0-1.035-.006-2.069V9.112c-1.039,0-2.06.042-3.075-.021-.394-.024-.967-.192-1.1-.469a1.363,1.363,0,0,1,.323-1.146C41.988,5.149,44.043,2.855,46.1.564c.685-.763,1.033-.752,1.752.044q3.265,3.617,6.511,7.253c.145.966-.326,1.293-1.234,1.26-1.011-.037-2.025-.009-3.024-.009V43.836h3.232l2.047,0c.137.01.273.029.409.029q14.089,0,28.177,0c.26,0,.519-.048.82-.077,0-1.1-.059-2.127.029-3.144.035-.4.4-.77.613-1.154a5.343,5.343,0,0,1,1.135.591Q89.912,43,93.2,45.991a4.755,4.755,0,0,1,.7,1.165c-.454.457-.891.933-1.366,1.367-1.759,1.6-3.53,3.2-5.3,4.791-.26.206-.525.407-.781.619-.929.771-1.445.593-1.7-.591V50.125H50.107V84.749Z" transform="translate(0 -0.001)"/><path d="M46.233,72.965c-.581-.015-1.162-.036-1.743-.043-1.278-.016-1.5-.225-1.5-1.489q0-10.638,0-21.276c0-1.953.022-3.906-.009-5.858-.015-.965.385-1.343,1.351-1.342q13.616.026,27.233.013c1.132,0,1.354.243,1.373,1.4.01.615.029,1.231.044,1.846-.014.375-.04.751-.041,1.126q0,12.017,0,24.033c0,1.33-.216,1.547-1.547,1.547q-8.369,0-16.738,0c-2.806,0-5.611.026-8.417.04m25-26.746v-1.5H44.686v1.5a1.925,1.925,0,0,0-.048.3c0,7.95.01,15.9-.021,23.849,0,.864.39.911,1.061.91,8.154-.015,16.308-.029,24.462.015,1.007.006,1.169-.347,1.162-1.235-.035-5.174-.012-10.348-.02-15.522,0-2.773-.032-5.547-.049-8.32" transform="translate(-31.167 -31.153)"/><path d="M195.227,42.814c2.528.016,5.057.044,7.585.048q7.641.011,15.282,0c1.4,0,1.561.177,1.571,1.61,0,.546.028,1.092.043,1.637-.014.375-.04.751-.04,1.126q0,12.016,0,24.032c0,1.329-.217,1.547-1.548,1.548q-8.471,0-16.943,0c-2.737,0-5.474.026-8.211.04l-2.057,0a1.149,1.149,0,0,1-1.2-1.323q.024-13.708,0-27.415c0-.924.411-1.285,1.315-1.273,1.4.02,2.8-.022,4.2-.038m22.712,1.793h-26.5v26.5h26.5Z" transform="translate(-137.575 -31.049)"/><path d="M46.13,219.717c-.545-.015-1.091-.039-1.637-.043-1.417-.011-1.609-.191-1.609-1.581q0-10.869,0-21.737c0-.374-.031-.749-.047-1.123q.023-2.052.047-4.1c.015-1.154.246-1.407,1.368-1.408q13.606-.007,27.212-.015c.888,0,1.363.311,1.417,1.206q0,1.028,0,2.057c-.014.375-.04.75-.041,1.126q0,12.017,0,24.033c0,1.33-.216,1.547-1.547,1.547q-8.369,0-16.738,0c-2.806,0-5.611.026-8.417.04m24.96-28.274H44.624v26.54H71.089Z" transform="translate(-31.064 -137.575)"/><path d="M219.7,192.967c-.014,2.737-.037,5.475-.04,8.212q-.009,8.473,0,16.946c0,1.329-.217,1.547-1.548,1.548q-12.014,0-24.028,0c-.375,0-.75.027-1.126.041l-2.057,0c-.892-.063-1.206-.544-1.2-1.429q.029-13.62,0-27.24c0-.964.387-1.345,1.352-1.343q13.618.026,27.235,0c.888,0,1.364.31,1.418,1.206q0,1.028,0,2.057M218.012,204.8c0-4.149-.016-8.3.015-12.446.006-.75-.187-1.007-.974-1q-12.341.04-24.681,0c-.834,0-1.032.261-1.03,1.055q.038,12.291,0,24.583c0,.788.187,1.062,1.026,1.058q12.341-.046,24.681,0c.783,0,.984-.247.978-1-.032-4.08-.015-8.16-.015-12.24" transform="translate(-137.57 -137.575)"/><path d="M22.876,50.173h2.614c.149.657.6.834,1.221.83q3.849-.022,7.7,0c.624,0,1.071-.175,1.221-.831h2.2c.149.659.6.833,1.224.83,3.565-.013,7.13,0,10.695-.009,1.11,0,1.278-.207,1.278-1.471q0-15.633,0-31.267c0-1.3,0-2.606,0-3.908,0-1.242-.168-1.4-1.446-1.4-.547,0-1.094,0-1.889,0L52.467,7.56l4.8,5.384c-.9,0-1.576.009-2.249,0-.778-.013-1.139.362-1.1,1.134.007.171,0,.343,0,.514q0,17.382,0,34.764C53.91,50.9,54,51,55.532,51H90.29c1.572,0,1.666-.1,1.667-1.711,0-.468,0-.936,0-1.643l5.374,4.783-5.374,4.8c0-.787,0-1.35,0-1.912-.008-1.264-.173-1.437-1.413-1.438q-8.278,0-16.557,0-9.307,0-18.613,0c-1.325,0-1.463.14-1.463,1.484q0,17.485,0,34.97c0,1.478.112,1.59,1.571,1.593.509,0,1.019,0,1.77,0L52.475,97.3,47.68,91.925c.871,0,1.531-.014,2.191,0,.828.023,1.206-.367,1.161-1.187-.007-.137,0-.274,0-.411q0-17.434,0-34.867c0-1.479-.106-1.585-1.568-1.585H14.6c-1.523,0-1.616.1-1.617,1.648,0,.478,0,.957,0,1.676L7.607,52.439l5.378-4.8c0,.9,0,1.585,0,2.275A.938.938,0,0,0,14.042,51c2.571,0,5.143.034,7.711-.037.381-.01.748-.512,1.122-.787" transform="translate(-5.517 -5.483)" fill="#a3314f"/><path d="M75.563,49.358c.017,2.94.045,5.879.049,8.819.008,5.484-.016,10.969.02,16.453.006.941-.155,1.314-1.162,1.309-8.154-.047-16.308-.032-24.462-.016-.671,0-1.065-.049-1.061-.965.031-8.426.019-16.852.021-25.278a2.154,2.154,0,0,1,.048-.32H75.563" transform="translate(-35.496 -35.795)" fill="#ffb500"/><path d="M222.522,75.841h-26.5v-26.5h26.5Zm-13.14-14.092c-2.361,0-4.723.007-7.084,0-.637,0-1.248.076-1.221.866.024.716.617.787,1.207.786q6.982-.008,13.963,0c.635,0,1.249-.09,1.221-.876-.025-.716-.612-.781-1.208-.777-2.293.013-4.586.005-6.879.005" transform="translate(-142.158 -35.78)" fill="#f3f9ff"/><path d="M75.813,222.568H49.348v-26.54H75.813ZM62.626,208.459c-2.361,0-4.723.007-7.084,0-.609,0-1.162.112-1.159.828s.57.825,1.17.824q7.033-.007,14.066,0c.6,0,1.165-.117,1.159-.836s-.562-.82-1.17-.817c-2.327.013-4.654.005-6.981.005" transform="translate(-35.788 -142.161)" fill="#b0c0d2"/><path d="M222.352,209.136c0,4.08-.017,8.16.015,12.24.006.754-.195,1-.978,1q-12.34-.039-24.681,0c-.84,0-1.029-.27-1.026-1.059q.037-12.291,0-24.583c0-.794.2-1.058,1.03-1.055q12.341.045,24.681,0c.788,0,.98.255.975,1-.032,4.149-.015,8.3-.015,12.446m-13.429.718c2.36,0,4.72,0,7.08,0,.635,0,1.249-.1,1.215-.883-.032-.716-.627-.771-1.217-.769q-6.978.012-13.955,0c-.592,0-1.184.059-1.215.774-.034.791.585.88,1.217.878,2.292-.006,4.583,0,6.875,0" transform="translate(-141.91 -141.911)" fill="#ced371"/><path d="M82.823,160.442c-.15.656-.6.835-1.221.831q-3.849-.022-7.7,0c-.623,0-1.072-.173-1.221-.83.144-.646.569-.836,1.2-.831q3.873.03,7.747,0c.631,0,1.053.185,1.2.831" transform="translate(-52.71 -115.751)"/><path d="M75.863,94.489c2.326,0,4.653.007,6.979,0,.635,0,1.25.073,1.224.864-.024.715-.617.789-1.207.788q-6.979-.008-13.957,0c-.63,0-1.252-.08-1.224-.871.025-.716.614-.784,1.207-.781,2.326.011,4.653,0,6.979,0" transform="translate(-49.079 -68.521)"/><path d="M222.714,94.488c2.293,0,4.586.008,6.879-.005.6,0,1.183.062,1.208.777.027.785-.586.877-1.221.876q-6.982-.009-13.963,0c-.59,0-1.183-.071-1.207-.786-.027-.79.584-.869,1.221-.866,2.361.012,4.723,0,7.084,0" transform="translate(-155.49 -68.519)"/><path d="M75.912,241.25c2.327,0,4.654.008,6.981-.005.608,0,1.164.1,1.17.817s-.556.836-1.159.836q-7.033-.007-14.066,0c-.6,0-1.168-.1-1.17-.824s.55-.831,1.159-.828c2.361.012,4.723,0,7.084,0" transform="translate(-49.073 -174.952)"/><path d="M222.508,242.9c-2.292,0-4.583,0-6.875,0-.632,0-1.251-.087-1.217-.878.031-.714.623-.774,1.215-.774q6.978.012,13.955,0c.591,0,1.185.054,1.217.769.035.786-.579.885-1.215.883-2.36-.007-4.72,0-7.08,0" transform="translate(-155.495 -174.956)"/></g></g></g></svg>