<svg xmlns="http://www.w3.org/2000/svg" width="136" height="136" viewBox="0 0 136 136"><g transform="translate(-180 -1063)"><circle cx="68" cy="68" r="68" transform="translate(180 1063)" fill="#ced371"/><g transform="translate(203.531 1086.846)"><g transform="translate(5.98 6.154)"><path d="M47.327,44.826q4.716-3.343,9.431-6.687c1.154-.819,2.289-1.667,3.463-2.455a.921.921,0,0,1,.834-.034c7.28,5.176,14.543,10.377,21.893,15.636A27.823,27.823,0,0,1,66.262,61.745a29.006,29.006,0,0,1-19.445-2.85c.141.256.277.515.426.766Q54.3,71.618,61.365,83.576c1.327,2.252.373,4.829-2.055,5.292a12.314,12.314,0,0,1-3.554,0,3.1,3.1,0,0,1-2.294-1.755q-2.376-4.1-4.793-8.178a1.182,1.182,0,0,0-.762-.578c-3.274-.039-6.549-.026-9.917-.026,0,1.442,0,2.848,0,4.254,0,1.028.023,2.057-.009,3.084a3.419,3.419,0,0,1-3.3,3.325c-.388.016-.778.01-1.167,0a3.419,3.419,0,0,1-3.526-3.521c-.015-2.356,0-4.712,0-7.147H24.8c-1.473,0-2.946.024-4.417-.013a1.064,1.064,0,0,0-1.111.62c-1.45,2.554-3.013,5.047-4.409,7.629A4.107,4.107,0,0,1,10.546,89c-.579-.051-1.178.036-1.744-.068A3.415,3.415,0,0,1,6.535,83.7c1.939-3.329,3.917-6.636,5.877-9.953q4.738-8.018,9.473-16.037c.122-.207.237-.418.41-.723H20.042c-2.834,0-5.668.006-8.5,0a2.675,2.675,0,0,1-2.89-2.919q-.005-16.712,0-33.423v-.9c-2.085-.545-2.667-1.313-2.667-3.483,0-1.445,0-2.889,0-4.334A2.7,2.7,0,0,1,8.926,8.977q19.337,0,38.674-.016a4.041,4.041,0,0,0,1.587-.337A29.559,29.559,0,0,1,59.329,6.186v.892q0,12.878.015,25.755A1.334,1.334,0,0,1,58.66,34.1c-3.672,2.493-7.321,5.019-10.976,7.537-.134.092-.254.206-.38.31q-3.438,2.338-6.876,4.677c-1.183.806-2.363,1.617-3.586,2.455A28.355,28.355,0,0,1,36.675,19.7h-25.3V54.254H40.947l-2.6-2.941c.382-.274.672-.481.961-.69l8.016-5.8M56.661,9.181C39.8,12.019,30.507,30.464,37.834,45.128c.094-.053.191-.1.278-.158q9.054-6.225,18.116-12.436a1.041,1.041,0,0,0,.434-1.057q0-10.75,0-21.5ZM78.983,51.729,60.665,38.623l-18.309,13.1a25.173,25.173,0,0,0,36.626,0M43.622,11.7H8.708v5.281c9.856,0,19.654,0,29.452-.012a.983.983,0,0,0,.63-.276c1.643-1.677,3.268-3.372,4.832-4.993M29,56.988a20.066,20.066,0,0,1-2.21-.015,1.884,1.884,0,0,0-2.073,1.147c-5.083,8.7-10.231,17.355-15.336,26.039-.312.532-1.03,1.038-.59,1.775.429.719,1.22.287,1.844.4.93.162,1.439-.271,1.9-1.075,3.056-5.317,6.167-10.6,9.257-15.9,2.375-4.072,4.747-8.146,7.206-12.366m9.983,0c1.83,3.133,3.579,6.123,5.324,9.115q5.641,9.671,11.3,19.335a1.855,1.855,0,0,0,.994.85,6.758,6.758,0,0,0,1.908.031c.73-.043,1-.561.664-1.221-.2-.394-.444-.769-.67-1.151q-7.77-13.152-15.555-26.3a1.318,1.318,0,0,0-.816-.633c-.992-.078-1.994-.03-3.144-.03m-9.016,3.644-8.74,14.986h8.74Zm8.071.031V75.6h8.713L38.033,60.663m-2.751-3.627H32.71v18.59h2.573Zm-2.626,21.32c0,2.411,0,4.735,0,7.058,0,.942.669.916,1.338.919s1.323,0,1.324-.936q0-1.661,0-3.323V78.356Z" transform="translate(-5.98 -6.179)" fill="#020202"/><path d="M66.141,91.987l-8.016,5.8c-.289.209-.579.416-.961.69l2.6,2.941H30.185V66.86h25.3a28.356,28.356,0,0,0,.167,29.377c1.223-.837,2.4-1.649,3.586-2.455q3.437-2.341,6.876-4.677.012,1.441.024,2.881m-22.7,4.137V85.531H40.764v10.56H38.088V90.874H35.44v5.274h-2.6v2.628h18.59V96.131H48.784V80.19H46.112V96.124Zm-10.618-18.7H48.752V74.856H32.821Zm15.92-7.895h-7.88v2.578h7.88ZM32.82,72.091h5.261V69.524H32.82Z" transform="translate(-24.794 -53.34)" fill="#cbd0d8"/><path d="M257.455,6.154A28.108,28.108,0,0,1,279.89,49.012q-1.91-1.308-3.816-2.612-9.02-6.2-18.04-12.4c-.345-.237-.62-.426-.618-.958q.037-13.211.018-26.422c0-.136.012-.271.021-.469M275.7,18.026l-2.928-2.53c-3.472,3.476-6.926,7.1-10.574,10.511-1.59,1.488-2.435,2.99-2.133,5.177.1.745.147,1.342.935,1.551l14.7-14.71m-9.13,18.6c4.132-4.142,8.229-8.243,12.309-12.359a.709.709,0,0,0,.142-.634c-.543-1.084-1.134-2.143-1.679-3.154L263.386,34.439l3.186,2.192m13.793-9.75-11.394,11.4,3.068,2.1a2.509,2.509,0,0,0,.29-.212q4.3-4.291,8.587-8.593a.859.859,0,0,0,.252-.632c-.246-1.382-.539-2.755-.8-4.063M267.439,11.512c-2.049,2.048-3.975,4.081-6.028,5.978a3.569,3.569,0,0,0-1.333,3.235c.118,1.158.024,2.337.024,3.573l10.719-10.7-3.383-2.081m11.541,33.64a25.03,25.03,0,0,0,2.429-9.961L274.5,42.077l4.478,3.075M260.143,9.058V14.7l4.434-4.456-4.434-1.19" transform="translate(-201.418 -6.154)" fill="#040202"/><path d="M249.51,270.228a4,4,0,1,1-3.984,3.973,4.013,4.013,0,0,1,3.984-3.973m1.346,4.006a1.331,1.331,0,1,0-1.316,1.325,1.341,1.341,0,0,0,1.316-1.325" transform="translate(-192.176 -211.416)" fill="#030303"/><path d="M301.432,274.251a4,4,0,1,1-3.932-4.024,4.017,4.017,0,0,1,3.932,4.024m-4.015-1.356a1.332,1.332,0,1,0,1.346,1.295,1.34,1.34,0,0,0-1.346-1.295" transform="translate(-229.414 -211.414)" fill="#030303"/><path d="M345.318,270.229a4,4,0,1,1-3.979,3.977,4.014,4.014,0,0,1,3.979-3.977m-.018,5.33a1.332,1.332,0,1,0-1.292-1.349,1.345,1.345,0,0,0,1.292,1.349" transform="translate(-266.651 -211.416)" fill="#030303"/><path d="M159.009,19.635v.795q0,10.75,0,21.5a1.042,1.042,0,0,1-.434,1.057Q149.5,49.179,140.46,55.423c-.087.06-.184.105-.278.158-7.327-14.663,1.97-33.108,18.827-35.946m-10.671,7.831v2.642h-2.665c0,1.291,0,2.507,0,3.724a3.993,3.993,0,0,0,3.947,4.264,1.314,1.314,0,0,1,1.35,1.12,9.353,9.353,0,0,1,.016,1.532c-2.4.077-2.406.067-2.718-2.609h-2.553c-.238,2.138.267,3.873,2.292,4.925a.872.872,0,0,1,.317.646c.038.791.015,1.584.015,2.358h2.67V43.425h2.665c0-1.291,0-2.507,0-3.724a4,4,0,0,0-3.948-4.263,1.313,1.313,0,0,1-1.35-1.119,9.4,9.4,0,0,1-.016-1.532c2.4-.077,2.406-.068,2.718,2.609h2.554c.233-2.136-.267-3.875-2.29-4.93a.867.867,0,0,1-.32-.641c-.038-.791-.015-1.584-.015-2.359Z" transform="translate(-108.328 -16.633)" fill="#fad56f"/><path d="M205.941,164.939a25.173,25.173,0,0,1-36.626,0l18.309-13.1,18.317,13.106m-21.484,3.339,7.921-7.909-1.615-1.656-7.936,7.936,1.63,1.629m.483-8.748a1.332,1.332,0,1,0,1.344,1.3,1.337,1.337,0,0,0-1.344-1.3m6.679,6.693a1.332,1.332,0,1,0-1.339,1.305,1.342,1.342,0,0,0,1.339-1.305" transform="translate(-132.938 -119.389)" fill="#b2db7e"/><path d="M53.141,30.929c-1.563,1.621-3.188,3.316-4.832,4.993a.984.984,0,0,1-.63.276c-9.8.013-19.6.012-29.452.012v-5.28Z" transform="translate(-15.499 -25.411)" fill="#a9b1bc"/><path d="M38.3,234.165c-2.459,4.22-4.831,8.295-7.206,12.366-3.09,5.3-6.2,10.583-9.257,15.9-.462.8-.971,1.237-1.9,1.075-.625-.108-1.415.323-1.844-.4-.44-.737.277-1.243.59-1.775,5.1-8.684,10.253-17.343,15.336-26.039a1.884,1.884,0,0,1,2.073-1.147,20.064,20.064,0,0,0,2.21.015" transform="translate(-15.288 -183.356)" fill="#cb9b74"/><path d="M154.146,234.24c1.151,0,2.152-.049,3.144.03a1.318,1.318,0,0,1,.816.633q7.8,13.137,15.555,26.3c.226.382.467.756.669,1.151.339.661.065,1.179-.664,1.222a6.776,6.776,0,0,1-1.908-.031,1.856,1.856,0,0,1-.994-.85q-5.672-9.653-11.3-19.335c-1.745-2.992-3.494-5.982-5.324-9.115" transform="translate(-121.148 -183.431)" fill="#cc9b74"/><rect width="2.573" height="18.59" transform="translate(26.73 50.857)" fill="#ce9d76"/><path d="M125.757,330.238h2.665v3.719q0,1.661,0,3.323c0,.935-.645.939-1.324.936s-1.336.023-1.338-.919c0-2.323,0-4.647,0-7.058" transform="translate(-99.081 -258.061)" fill="#ce9d75"/><path d="M52.7,142.648H55.37V126.714h2.672v15.941h2.644V145.3H42.1v-2.628h2.6V137.4h2.648v5.217h2.676v-10.56H52.7Z" transform="translate(-34.053 -99.864)"/><rect width="15.931" height="2.572" transform="translate(8.026 21.516)"/><rect width="7.88" height="2.578" transform="translate(16.067 16.193)"/><rect width="5.261" height="2.567" transform="translate(8.026 16.184)"/><path d="M284.744,50.631l-14.7,14.71c-.788-.21-.832-.806-.935-1.551-.3-2.187.543-3.689,2.133-5.177,3.648-3.414,7.1-7.035,10.574-10.512l2.927,2.53" transform="translate(-210.46 -38.759)" fill="#fd816d"/><path d="M287.409,86.64l-3.186-2.192L298.18,70.493c.546,1.012,1.137,2.071,1.679,3.155a.708.708,0,0,1-.142.634c-4.081,4.116-8.177,8.217-12.309,12.359" transform="translate(-222.255 -56.164)" fill="#fd816d"/><path d="M320.689,99.218c.264,1.308.556,2.682.8,4.063a.859.859,0,0,1-.252.632q-4.28,4.31-8.587,8.593a2.477,2.477,0,0,1-.29.212l-3.068-2.1,11.394-11.4" transform="translate(-241.743 -78.492)" fill="#fc816d"/><path d="M276.647,30.212l3.383,2.081L269.31,43c0-1.236.094-2.415-.024-3.573a3.569,3.569,0,0,1,1.334-3.235c2.053-1.9,3.978-3.93,6.027-5.978" transform="translate(-210.626 -24.854)" fill="#fd816d"/><path d="M338.609,146.495l-4.479-3.075,6.907-6.886a25.029,25.029,0,0,1-2.429,9.961" transform="translate(-261.048 -107.497)" fill="#fb806c"/><path d="M269.66,19.194l4.434,1.19L269.66,24.84Z" transform="translate(-210.936 -16.29)" fill="#fc806d"/><path d="M260.168,283.546a1.331,1.331,0,1,1-1.3-1.337,1.342,1.342,0,0,1,1.3,1.337" transform="translate(-201.488 -220.728)" fill="#f27b68"/><path d="M306.732,282.21a1.332,1.332,0,1,1-1.315,1.325,1.342,1.342,0,0,1,1.315-1.325" transform="translate(-238.729 -220.729)" fill="#f27b68"/><path d="M354.615,284.867a1.332,1.332,0,1,1,1.369-1.272,1.341,1.341,0,0,1-1.369,1.272" transform="translate(-275.965 -220.725)" fill="#f27b68"/><path d="M176.288,54.8h2.67c0,.774-.023,1.568.015,2.359a.866.866,0,0,0,.32.641c2.024,1.054,2.523,2.793,2.29,4.93h-2.554c-.312-2.677-.321-2.686-2.718-2.609a9.4,9.4,0,0,0,.016,1.532,1.313,1.313,0,0,0,1.35,1.119,4,4,0,0,1,3.948,4.263c0,1.217,0,2.433,0,3.724h-2.665V73.4h-2.67c0-.774.023-1.567-.015-2.358a.872.872,0,0,0-.317-.646c-2.024-1.052-2.53-2.787-2.292-4.925h2.553c.311,2.677.321,2.686,2.718,2.609a9.353,9.353,0,0,0-.016-1.532,1.314,1.314,0,0,0-1.35-1.12,3.993,3.993,0,0,1-3.947-4.264c0-1.216,0-2.433,0-3.724h2.665Z" transform="translate(-136.279 -43.965)" fill="#010101"/><path d="M231.615,192.29l-1.63-1.629,7.936-7.936,1.615,1.656-7.921,7.909" transform="translate(-180.097 -143.401)" fill="#040503"/><path d="M234.872,186.393a1.332,1.332,0,1,1-1.319,1.322,1.342,1.342,0,0,1,1.319-1.322" transform="translate(-182.87 -146.252)" fill="#080a06"/><path d="M260.164,211.7a1.332,1.332,0,1,1-1.284-1.359,1.344,1.344,0,0,1,1.284,1.359" transform="translate(-201.484 -164.868)" fill="#080a06"/></g></g></g></svg>