<svg xmlns="http://www.w3.org/2000/svg" width="124" height="124" viewBox="0 0 124 124"><g transform="translate(-318 -2898)"><circle cx="62" cy="62" r="62" transform="translate(318 2898)" fill="#ced371"/><g transform="translate(345.048 2925.738)"><g transform="translate(0 0)"><path d="M20.187,38.333,37.479,21.04c-1.092-1.081-2.163-2.172-3.28-3.215-.184-.172-.571-.129-.865-.183A3.2,3.2,0,0,0,30.29,18.86c-4.873,4.961-9.814,9.856-14.727,14.777a6.15,6.15,0,0,0-.454.559L9.981,29.065c.105-.11.279-.3.461-.481q8.7-8.7,17.409-17.387a1.65,1.65,0,0,1,1.034-.444q3.92-.055,7.84,0a1.558,1.558,0,0,1,.979.407c2.614,2.574,5.2,5.176,7.8,7.77.165.165.338.323.489.465l9.1-9.1,9.1,9.156,4.191-4.2L63.9,10.767h14.32V25.005l-4.47-4.5-4.046,4.047,5.083,5.09,4.385-4.4.18.12V39.49H65.683C73.826,43,78.707,48.9,79.308,57.657c.6,8.769-3.406,15.305-10.941,19.84h11v2.274H10.391V77.536l1.084-.049V44.163h11.51v33.3h2.3c.01-.193.031-.4.031-.607q0-16.4-.017-32.808a1.655,1.655,0,0,0-.443-1.036c-1.5-1.551-3.039-3.061-4.663-4.683M73.229,70.306a18.384,18.384,0,1,0-29.07.016c.748-1.289,2.115-1.662,3.3-2.3a1.356,1.356,0,0,0,.677-2.113,7.86,7.86,0,0,1-.953-4.7A4.193,4.193,0,0,1,49,57.774a15.514,15.514,0,0,0,3.069-2.293,8.1,8.1,0,0,1,2.306-1.275,1.348,1.348,0,0,0,.674-2.112,8.038,8.038,0,0,1-.952-4.777,4.652,4.652,0,0,1,4.163-4.332,4.532,4.532,0,0,1,4.894,3.545,7.6,7.6,0,0,1-.768,5.491c-.606,1.037-.346,1.693.691,2.21a11.212,11.212,0,0,1,1.527.789c.593.421,1.11.948,1.667,1.421a2.716,2.716,0,0,0,.746.562,4.713,4.713,0,0,1,3.2,4.41,8.133,8.133,0,0,1-.993,4.556,1.334,1.334,0,0,0,.694,2.052c1.2.625,2.546,1.024,3.313,2.285m-38.758,7.17V40.668H28.823c-1.049,0-1.206.157-1.206,1.2q0,17.4,0,34.81v.8Zm-20.619-.025h6.82V46.458h-6.82Zm28.774-58L23.751,38.322l1.771,1.836L42.715,22.945,55.279,35.535,73.807,17l2.116,2.491v-6.4H69.706l-.147.2,2.109,1.945L55.037,31.866,42.626,19.446M30.434,38.38h6.4v39.1h2.293v-.731c0-3.38.007-6.761-.009-10.141a4.7,4.7,0,0,0-.2-1.332,18.209,18.209,0,0,1-.494-10.135,29.087,29.087,0,0,0,.7-7.672q.006-8.2,0-16.4v-.812h7.239l-3.877-3.929L30.434,38.38M15.058,30.951c.2-.224.393-.466.611-.685q6.124-6.133,12.254-12.259c.881-.881,1.626-2.1,2.691-2.538,1.092-.446,2.5-.15,3.768-.109a1.714,1.714,0,0,1,1.042.43c1.242,1.189,2.436,2.427,3.613,3.613l1.85-1.807c-1.444-1.448-2.871-2.9-4.33-4.318a1.206,1.206,0,0,0-.77-.231c-1.966-.018-3.932.005-5.9-.021a1.42,1.42,0,0,0-1.121.474q-7.563,7.593-15.146,15.165c-.149.149-.288.307-.405.432l1.839,1.853m26.4,16.538a1.21,1.21,0,0,0,.188-.162,21.3,21.3,0,0,1,6.326-5.98,1.02,1.02,0,0,0,.346-.754c.026-2.468.016-4.936.013-7.4,0-.182-.031-.364-.046-.522H41.457ZM63.7,57.123c-.788-.395-1.5-.791-2.25-1.105a1.207,1.207,0,0,0-.9,0A3.762,3.762,0,0,1,56.834,56a.872.872,0,0,0-.649-.1c-.835.375-1.644.8-2.5,1.232,2.193,1.49,2.665,2.461,2.719,5.066a7.268,7.268,0,0,1-.937,3.634,1.382,1.382,0,0,0,.7,2.22c.852.429,1.7.874,2.517,1.3.886-.454,1.777-.912,2.671-1.365a1.323,1.323,0,0,0,.679-1.911c-.119-.287-.272-.56-.41-.838A6.039,6.039,0,0,1,63.7,57.123m.886-27.215L55.8,38.686c.06-.122.218-.148.377-.167a21.227,21.227,0,0,1,8.534.725.873.873,0,0,0,.7-.048c1.446-1.393,2.86-2.818,4.245-4.2l-5.073-5.091M59.85,77.469a18.332,18.332,0,0,0,11.016-4.579,1.081,1.081,0,0,0-.252-1.943c-.717-.384-1.469-.7-2.178-1.1a.951.951,0,0,0-1.056-.005,2.833,2.833,0,0,1-2.818.278c-1.127-.656-1.967-.235-2.889.278a7.406,7.406,0,0,0-1.139.6,1.612,1.612,0,0,0-.655.936c-.063,1.816-.03,3.635-.03,5.537m-2.318,0c0-1.9.033-3.741-.032-5.578a1.433,1.433,0,0,0-.684-.915,18.459,18.459,0,0,0-2.306-1.161,1.1,1.1,0,0,0-.841,0,3.8,3.8,0,0,1-3.777-.008,1.011,1.011,0,0,0-.778-.019c-.809.357-1.6.762-2.379,1.18a1.07,1.07,0,0,0-.237,1.9,18.361,18.361,0,0,0,11.033,4.6m5.1-56.254-7.453-7.469-7.319,7.325,1.708,1.854,5.765-5.783,5.685,5.693,1.615-1.62m3.431,6.833,6.993,6.981-2.21,2.141h6.212V30.938l-.158-.112L74.7,33.189,67.859,26.25l-1.791,1.8m-10.879.466,3.965-3.963-3.91-3.917L51.275,24.6l3.914,3.92M56.342,48.3l-.144.071a20.475,20.475,0,0,0,.828,2.453,3.678,3.678,0,0,1,.507,2.252c-.137.772.379.957.918,1.092a1.073,1.073,0,0,0,1.387-1.1,3.131,3.131,0,0,1,.453-2.05,5.308,5.308,0,0,0,.7-3.584,2.315,2.315,0,0,0-2.049-2.153,2.242,2.242,0,0,0-2.418,1.606,8.987,8.987,0,0,0-.177,1.412M54.277,62.2l-.191-.063c0-.287.014-.575,0-.861a2.331,2.331,0,0,0-2.1-2.18,2.249,2.249,0,0,0-2.44,1.864,5.047,5.047,0,0,0,.449,3.483,3.937,3.937,0,0,1,.656,2.576c-.057.607.457,1.005,1.158.995s1.166-.4,1.123-1.033a4.588,4.588,0,0,1,.551-2.392,17.8,17.8,0,0,0,.8-2.39m8.969-.1-.135.067a17.5,17.5,0,0,0,.782,2.394,4.67,4.67,0,0,1,.565,2.462c-.047.609.458,1.006,1.16,1a1.01,1.01,0,0,0,1.131-1.034,3.242,3.242,0,0,1,.4-2.062,5.366,5.366,0,0,0,.745-3.644A2.34,2.34,0,0,0,65.866,59.1a2.244,2.244,0,0,0-2.434,1.584,8.923,8.923,0,0,0-.186,1.411M48.908,77.488a23.044,23.044,0,0,1-7.43-6.875v6.875Zm5.863-38.811-4.113-4.111v5.34l4.113-1.229" transform="translate(-9.981 -10.289)" fill="#020202"/><path d="M200.658,197.965c-.767-1.26-2.118-1.659-3.313-2.285a1.334,1.334,0,0,1-.694-2.052,8.133,8.133,0,0,0,.993-4.556,4.713,4.713,0,0,0-3.2-4.41,2.714,2.714,0,0,1-.746-.562c-.557-.473-1.074-1-1.667-1.421a11.226,11.226,0,0,0-1.527-.789c-1.036-.517-1.3-1.173-.691-2.21a7.594,7.594,0,0,0,.768-5.491,4.532,4.532,0,0,0-4.894-3.545,4.653,4.653,0,0,0-4.163,4.333,8.037,8.037,0,0,0,.952,4.777,1.348,1.348,0,0,1-.674,2.112,8.1,8.1,0,0,0-2.307,1.274,15.5,15.5,0,0,1-3.069,2.294,4.194,4.194,0,0,0-1.809,3.433,7.86,7.86,0,0,0,.953,4.7,1.356,1.356,0,0,1-.677,2.113c-1.189.635-2.556,1.008-3.3,2.3a18.385,18.385,0,1,1,29.07-.016" transform="translate(-137.41 -137.948)" fill="#ffb500"/><path d="M108.6,205.176h-6.855c0-.287,0-.543,0-.8q0-17.405,0-34.81c0-1.041.158-1.2,1.206-1.2H108.6Z" transform="translate(-84.111 -137.989)" fill="#a3314f"/><rect width="6.82" height="30.993" transform="translate(3.871 36.169)" fill="#a3314f"/><path d="M100.51,31.212l12.411,12.42L129.551,27l-2.109-1.945.147-.2h6.217v6.4l-2.116-2.491L113.163,47.3,100.6,34.711,83.406,51.924l-1.771-1.836L100.51,31.212" transform="translate(-67.865 -22.055)" fill="#ffb500"/><path d="M28.668,42.454,26.829,40.6c.117-.125.257-.283.405-.432Q34.81,32.589,42.38,25a1.42,1.42,0,0,1,1.121-.474c1.966.026,3.932,0,5.9.021a1.206,1.206,0,0,1,.769.23c1.458,1.419,2.886,2.87,4.33,4.318l-1.85,1.807c-1.177-1.186-2.371-2.424-3.613-3.613a1.714,1.714,0,0,0-1.042-.43c-1.268-.041-2.676-.337-3.768.109-1.065.435-1.81,1.658-2.691,2.539Q35.4,35.638,29.279,41.77c-.218.218-.412.461-.611.685" transform="translate(-23.591 -21.792)" fill="#a3314f"/><path d="M173.77,141.555V126.732H180.6c.015.158.046.34.046.522,0,2.468.012,4.936-.013,7.4a1.02,1.02,0,0,1-.346.754,21.3,21.3,0,0,0-6.326,5.98,1.23,1.23,0,0,1-.188.162" transform="translate(-142.294 -104.354)" fill="#a3314f"/><path d="M247.429,248.719a6.039,6.039,0,0,0-2.069,8.111c.138.279.292.551.41.838a1.322,1.322,0,0,1-.679,1.911c-.894.453-1.785.912-2.671,1.366-.822-.425-1.666-.869-2.517-1.3a1.382,1.382,0,0,1-.7-2.22,7.267,7.267,0,0,0,.937-3.634c-.053-2.6-.525-3.576-2.718-5.066.851-.427,1.661-.857,2.5-1.232a.87.87,0,0,1,.649.1,3.762,3.762,0,0,0,3.711.016,1.206,1.206,0,0,1,.9,0c.748.315,1.462.711,2.25,1.105" transform="translate(-193.712 -201.885)" fill="#ced371"/><path d="M269.443,327.136c0-1.9-.033-3.721.03-5.537a1.613,1.613,0,0,1,.655-.937,7.405,7.405,0,0,1,1.139-.6c.922-.513,1.762-.935,2.889-.278a2.832,2.832,0,0,0,2.818-.278.951.951,0,0,1,1.056.006c.709.4,1.46.718,2.178,1.1a1.082,1.082,0,0,1,.252,1.943,18.33,18.33,0,0,1-11.016,4.579" transform="translate(-219.574 -259.955)" fill="#ced371"/><path d="M209.037,327.294a18.361,18.361,0,0,1-11.033-4.6,1.07,1.07,0,0,1,.237-1.9c.781-.417,1.57-.822,2.379-1.179a1.01,1.01,0,0,1,.778.019,3.8,3.8,0,0,0,3.777.008,1.105,1.105,0,0,1,.841,0,18.484,18.484,0,0,1,2.306,1.161,1.434,1.434,0,0,1,.684.915c.065,1.838.032,3.679.032,5.578" transform="translate(-161.486 -260.112)" fill="#ced371"/><path d="M221.883,35.758l-1.615,1.62-5.685-5.693-5.765,5.783-1.708-1.854,7.319-7.325,7.454,7.469" transform="translate(-169.227 -24.83)" fill="#a3314f"/><path d="M301.83,95.142l1.791-1.8,6.837,6.939,2.209-2.364.159.112v6.234h-6.212l2.209-2.141-6.993-6.98" transform="translate(-245.744 -77.381)" fill="#a3314f"/><path d="M250.619,195.344a8.985,8.985,0,0,1,.177-1.412,2.242,2.242,0,0,1,2.418-1.606,2.315,2.315,0,0,1,2.049,2.153,5.309,5.309,0,0,1-.7,3.585,3.131,3.131,0,0,0-.453,2.05,1.073,1.073,0,0,1-1.387,1.1c-.539-.135-1.055-.32-.918-1.092a3.68,3.68,0,0,0-.507-2.252,20.474,20.474,0,0,1-.828-2.453l.144-.072" transform="translate(-204.258 -157.332)" fill="#fcde9c"/><path d="M220.149,267.323a17.818,17.818,0,0,1-.8,2.39,4.588,4.588,0,0,0-.551,2.392c.043.63-.421,1.022-1.123,1.033s-1.215-.388-1.158-.994a3.938,3.938,0,0,0-.656-2.577,5.045,5.045,0,0,1-.449-3.483,2.249,2.249,0,0,1,2.44-1.864,2.331,2.331,0,0,1,2.1,2.18c.017.286,0,.574,0,.861l.191.063" transform="translate(-175.853 -215.413)" fill="#fcde9c"/><path d="M286.583,267.207a8.938,8.938,0,0,1,.186-1.411,2.245,2.245,0,0,1,2.434-1.584,2.34,2.34,0,0,1,2.032,2.173,5.367,5.367,0,0,1-.745,3.644,3.241,3.241,0,0,0-.4,2.062,1.01,1.01,0,0,1-1.131,1.034c-.7.011-1.206-.386-1.16-1a4.668,4.668,0,0,0-.565-2.462,17.492,17.492,0,0,1-.782-2.394l.135-.067" transform="translate(-233.318 -215.402)" fill="#fcde9c"/><path d="M181.305,331.062h-7.43v-6.875a23.044,23.044,0,0,0,7.43,6.875" transform="translate(-142.379 -263.863)" fill="#a3314f"/></g></g></g></svg>