<svg xmlns="http://www.w3.org/2000/svg" width="133.339" height="133.271" viewBox="0 0 133.339 133.271"><g transform="translate(0 -1.082)"><g transform="translate(0 1.082)"><path d="M9.711,237.4a60.338,60.338,0,0,0,21.4,27.828A59.41,59.41,0,0,0,65.557,276.7a12.439,12.439,0,0,1,1.3.066,2.582,2.582,0,0,1,2.453,2.683,2.509,2.509,0,0,1-2.658,2.466c-2.6-.063-5.216-.109-7.792-.43a66.559,66.559,0,0,1-53.3-40.316c-.117-.277-.244-.551-.247-.558a11.644,11.644,0,0,1-2.831,1.279c-1.191.193-1.87-.845-2.482-1.748v-2.084c.338-.993.722-1.973,1-2.981.417-1.5.743-3.019,1.138-4.522.638-2.427,2.427-3.14,4.521-1.79,2.179,1.4,4.34,2.84,6.5,4.271,1.7,1.128,2.176,2.544,1.322,3.912s-2.383,1.545-4.091.51a4.384,4.384,0,0,0-.462-.213L9.7,237.1c0,.1.008.2.012.306" transform="translate(0 -149.085)" fill="#030303"/><path d="M237.664,254.181c-2.438-.684-4.869-1.4-7.317-2.044-3.036-.8-3.691-2.4-1.983-5.012q2.03-3.1,4.077-6.19c1.078-1.623,2.5-2.076,3.839-1.245,1.371.852,1.573,2.429.525,4.1l-.574.912c1.044-.411,1.844-.685,2.61-1.033,19.1-8.678,31.262-23.116,35.907-43.638.817-3.61.881-7.39,1.288-11.092.024-.215.014-.434.021-.651.076-2.244,1.031-3.447,2.7-3.407,1.69.041,2.534,1.275,2.514,3.53a66.179,66.179,0,0,1-40.641,60.151c-.318.134-.628.29-.676.312a11.666,11.666,0,0,1,1.278,2.825c.2,1.194-.846,1.868-1.746,2.484Z" transform="translate(-148.281 -120.91)" fill="#030303"/><path d="M94.768,144.919l-7.31-3.02c-1.05,1.081-2.144,2.255-3.291,3.376a2.567,2.567,0,0,1-4.009.032q-6.155-6.1-12.251-12.249a2.567,2.567,0,0,1-.016-4.008c1.116-1.152,2.287-2.25,3.393-3.332l-3.022-7.289c-1.571,0-3.176.02-4.78-.005a2.6,2.6,0,0,1-2.819-2.85q-.028-8.6,0-17.193a2.61,2.61,0,0,1,2.885-2.916c1.562-.021,3.124,0,4.714,0l3.031-7.327c-1.021-.984-2.165-2.046-3.263-3.154-1.449-1.46-1.445-2.826.013-4.29q5.973-6,11.976-11.972c1.454-1.446,2.821-1.425,4.293.029,1.08,1.066,2.133,2.161,3.179,3.222l7.28-3c0-1.543-.016-3.147,0-4.751a2.588,2.588,0,0,1,2.814-2.852q8.663-.03,17.326,0a2.588,2.588,0,0,1,2.821,2.845c.022,1.6,0,3.208,0,4.743l7.356,3.054c.951-1,2-2.151,3.1-3.252,1.469-1.469,2.838-1.486,4.29-.043q6.005,5.969,11.977,11.971c1.459,1.466,1.456,2.828.022,4.3-1.06,1.087-2.152,2.144-3.237,3.221l2.988,7.257c1.511,0,3.115-.016,4.718,0a2.612,2.612,0,0,1,2.89,2.913q.025,8.532,0,17.063a2.642,2.642,0,0,1-2.95,2.986c-1.561.017-3.123,0-4.724,0-.467,1.233-.893,2.448-1.386,3.637-.48,1.157-1.028,2.287-1.652,3.661,1.049.992,2.2,2.033,3.3,3.131,1.509,1.511,1.5,2.872-.01,4.391q-5.929,5.953-11.884,11.879c-1.507,1.5-2.864,1.484-4.387-.035-1.074-1.071-2.116-2.175-3.077-3.166-2.358.939-4.57,1.794-6.751,2.721a1.237,1.237,0,0,0-.559.925c-.062,1.387-.007,2.778-.032,4.167a2.572,2.572,0,0,1-2.751,2.782q-8.728.037-17.456,0a2.57,2.57,0,0,1-2.751-2.782c-.026-1.6-.006-3.21-.006-4.821M65.962,100.672v12.545c1.309,0,2.523,0,3.738,0,2.062.006,2.691.613,3.394,2.509,1.064,2.873,2.237,5.712,3.513,8.5.813,1.773.826,2.66-.6,4.058-.916.9-1.9,1.722-2.734,2.468l9.115,9.127c.856-.912,1.751-1.915,2.7-2.864,1.184-1.186,2.162-1.222,3.642-.565,2.959,1.313,5.948,2.568,8.967,3.737,1.612.624,2.262,1.308,2.28,3.03.014,1.333,0,2.667,0,4.043h12.545c0-1.4-.012-2.731,0-4.066.018-1.675.651-2.373,2.177-2.97q4.583-1.793,9.087-3.783c1.433-.631,2.427-.613,3.546.5.983.976,1.9,2.019,2.731,2.91l9.051-9.076c-.874-.83-1.871-1.733-2.817-2.686-1.173-1.181-1.193-2.146-.526-3.647q1.972-4.437,3.732-8.968c.621-1.6,1.3-2.233,3.05-2.248,1.331-.011,2.661,0,4.008,0V100.786a1.34,1.34,0,0,0-.3-.1c-1.216-.009-2.431-.007-3.647-.019-1.819-.017-2.486-.642-3.131-2.323q-1.716-4.473-3.681-8.849c-.7-1.563-.688-2.514.556-3.747.952-.943,1.965-1.824,2.764-2.56L130.08,74.1c-.837.877-1.743,1.872-2.7,2.814-1.171,1.153-2.158,1.167-3.655.5-2.917-1.3-5.863-2.543-8.845-3.685-1.7-.653-2.337-1.307-2.352-3.108-.011-1.327,0-2.654,0-3.968H99.979c0,1.379.01,2.676,0,3.973-.017,1.794-.658,2.452-2.36,3.1-2.982,1.143-5.929,2.387-8.846,3.688-1.494.667-2.5.659-3.65-.513-.964-.98-1.85-2.038-2.7-2.98l-9.15,9.141c.923.857,1.934,1.744,2.884,2.692,1.221,1.218,1.234,2.209.539,3.756-1.292,2.873-2.521,5.78-3.635,8.726-.685,1.814-1.326,2.424-3.317,2.432-1.249.005-2.5,0-3.782,0" transform="translate(-39.54 -40.375)" fill="#020202"/><path d="M45.768,10.662Q20.6,20.619,10.489,45.723a56.663,56.663,0,0,0-4.026,20.69c0,.391-.006.783-.043,1.171a2.632,2.632,0,0,1-2.76,2.664,2.543,2.543,0,0,1-2.418-2.836c.161-3.2.231-6.435.71-9.6A66.435,66.435,0,0,1,41.732,6.64c.4-.167.783-.356,1.2-.546-1.9-1.342-2.342-3.138-.909-4.3a3.544,3.544,0,0,1,2.586-.666C47.325,1.649,50,2.4,52.679,3.11c2.347.617,3.054,2.427,1.745,4.464C52.994,9.8,51.53,12,50.069,14.2c-1.067,1.61-2.518,2.069-3.843,1.236-1.368-.859-1.558-2.379-.519-4.1a4.243,4.243,0,0,0,.212-.464l.155-.23Z" transform="translate(-0.807 -1.082)" fill="#030303"/><path d="M335.408,89.342A59.568,59.568,0,0,0,326.3,73.253c-.347-.444-.719-.871-1.041-1.332a2.587,2.587,0,0,1,.5-3.691,2.522,2.522,0,0,1,3.587.527c2.188,3.009,4.414,6.008,6.356,9.175,1.643,2.68,2.91,5.591,4.323,8.358.426-.37.887-1.085,1.467-1.2a3.411,3.411,0,0,1,2.5.307,3.045,3.045,0,0,1,1.018,2.427c-.6,3.052-1.4,6.07-2.277,9.059-.513,1.758-2.388,2.278-4.022,1.232q-3.557-2.276-7.064-4.63a2.6,2.6,0,0,1-1.016-3.692c.815-1.3,2.339-1.552,3.872-.645.22.13.459.227.689.34l.226.154Z" transform="translate(-211.698 -44.52)" fill="#030303"/><path d="M189.256,2.035a65.305,65.305,0,0,1,29.075,7.914,4.807,4.807,0,0,1,1.572,1.3,2.463,2.463,0,0,1-.306,3.11,2.7,2.7,0,0,1-3.231.457c-3.151-1.422-6.251-2.985-9.482-4.2a56.193,56.193,0,0,0-18.845-3.423,9.634,9.634,0,0,1-1.94-.169A2.517,2.517,0,0,1,184.206,4.4a2.442,2.442,0,0,1,2.062-2.343,26.136,26.136,0,0,1,2.987-.023" transform="translate(-120.092 -1.681)" fill="#030303"/><path d="M300.916,46.607a2.522,2.522,0,0,1,2.449-2.636,2.594,2.594,0,0,1,2.747,2.506,2.694,2.694,0,0,1-2.615,2.679,2.612,2.612,0,0,1-2.58-2.548" transform="translate(-196.185 -29.042)" fill="#060606"/><path d="M27.881,254.264c0-.1-.008-.2-.012-.306l.232.153-.221.153" transform="translate(-18.169 -165.947)" fill="#fdfdfd"/><path d="M75.916,110.6c1.284,0,2.533,0,3.783,0,1.991-.008,2.632-.618,3.317-2.432,1.113-2.946,2.343-5.852,3.635-8.726.7-1.547.682-2.538-.539-3.756-.95-.948-1.961-1.835-2.884-2.692l9.15-9.141c.847.942,1.733,2,2.7,2.98,1.153,1.172,2.156,1.18,3.65.513,2.917-1.3,5.863-2.545,8.846-3.688,1.7-.652,2.343-1.31,2.36-3.1.012-1.3,0-2.595,0-3.973h12.545c0,1.314-.009,2.641,0,3.968.015,1.8.649,2.456,2.352,3.108,2.982,1.143,5.929,2.385,8.845,3.685,1.5.668,2.485.655,3.656-.5.957-.942,1.862-1.938,2.7-2.814l9.042,9.092c-.8.736-1.812,1.617-2.764,2.56-1.244,1.232-1.256,2.184-.556,3.747q1.958,4.372,3.681,8.849c.645,1.681,1.312,2.306,3.131,2.323,1.216.011,2.431.009,3.647.019a1.342,1.342,0,0,1,.3.1v12.432c-1.347,0-2.677-.009-4.008,0-1.748.015-2.429.644-3.05,2.248q-1.754,4.528-3.731,8.968c-.667,1.5-.647,2.467.526,3.647.946.953,1.943,1.856,2.817,2.686l-9.05,9.076c-.831-.891-1.748-1.934-2.731-2.91-1.119-1.111-2.113-1.129-3.546-.5q-4.5,1.984-9.087,3.783c-1.525.6-2.158,1.3-2.177,2.97-.015,1.335,0,2.671,0,4.066H109.933c0-1.376.012-2.71,0-4.043-.018-1.722-.668-2.406-2.28-3.03-3.019-1.169-6.008-2.424-8.967-3.737-1.48-.657-2.458-.621-3.642.565-.948.95-1.844,1.952-2.7,2.864l-9.115-9.127c.831-.746,1.818-1.571,2.734-2.468,1.427-1.4,1.413-2.286.6-4.059-1.277-2.785-2.449-5.624-3.513-8.5-.7-1.9-1.331-2.5-3.393-2.509-1.215,0-2.429,0-3.738,0Zm62.6,6.348c0-3.6-.023-7.205.011-10.807a3.283,3.283,0,0,0-1.8-3.182q-9.371-5.348-18.687-10.794a3.3,3.3,0,0,0-3.655,0q-9.316,5.445-18.686,10.8a3.282,3.282,0,0,0-1.819,3.164q.034,10.742,0,21.484a3.381,3.381,0,0,0,1.911,3.248q9.267,5.27,18.466,10.658a3.466,3.466,0,0,0,3.881.019q9.2-5.377,18.467-10.654a3.464,3.464,0,0,0,1.928-3.379c-.054-3.515-.017-7.031-.017-10.547" transform="translate(-49.494 -50.304)" fill="#ced371"/><path d="M129.183,28.584l.306-.013-.155.23-.151-.217" transform="translate(-84.222 -19.004)" fill="#fdfdfd"/><path d="M355.048,129.868c0,.1.008.2.012.3l-.226-.154.214-.148" transform="translate(-231.338 -85.045)" fill="#fdfdfd"/><path d="M172.17,145.105c0,3.516-.037,7.032.017,10.547a3.464,3.464,0,0,1-1.928,3.379q-9.263,5.275-18.467,10.655a3.466,3.466,0,0,1-3.881-.019q-9.2-5.393-18.465-10.658a3.38,3.38,0,0,1-1.911-3.248q.045-10.742,0-21.484a3.282,3.282,0,0,1,1.819-3.164q9.376-5.34,18.686-10.8a3.3,3.3,0,0,1,3.655,0q9.323,5.433,18.686,10.794a3.283,3.283,0,0,1,1.8,3.182c-.033,3.6-.011,7.2-.011,10.807M152.465,163c.24,0,.34.031.4,0,4.5-2.588,9.014-5.167,13.489-7.806a1.683,1.683,0,0,0,.574-1.258c.044-3.859.026-7.719.026-11.579v-4.18c-4.807,2.779-9.411,5.431-13.994,8.119a1.24,1.24,0,0,0-.475.92c-.029,5.246-.021,10.493-.021,15.787m-19.7-24.834c0,5.364.024,10.474-.023,15.583a1.689,1.689,0,0,0,1.005,1.719c4.182,2.369,8.331,4.8,12.5,7.2.28.161.592.268,1.01.454,0-5.428.009-10.712-.024-15.995a1.244,1.244,0,0,0-.538-.892c-4.556-2.666-9.133-5.3-13.926-8.065m31.518-4.466c-.372-.244-.649-.447-.946-.618-3.746-2.167-7.557-4.233-11.216-6.538a3.657,3.657,0,0,0-4.507,0c-3.956,2.475-8.056,4.72-12.214,7.125,4.723,2.725,9.319,5.388,13.935,8.015a1.245,1.245,0,0,0,1.043.017c4.621-2.63,9.221-5.3,13.9-8" transform="translate(-83.147 -78.46)" fill="#030302"/><path d="M199.164,197.48c0-5.295-.008-10.541.021-15.787a1.242,1.242,0,0,1,.476-.92c4.583-2.688,9.187-5.339,13.994-8.119v4.18c0,3.86.018,7.72-.026,11.579a1.686,1.686,0,0,1-.574,1.259c-4.474,2.639-8.984,5.217-13.489,7.805-.062.035-.161,0-.4,0" transform="translate(-129.846 -112.94)" fill="#ffb500"/><path d="M142.517,172.631c4.794,2.768,9.37,5.4,13.926,8.065a1.245,1.245,0,0,1,.538.892c.033,5.283.024,10.566.024,15.995-.419-.186-.73-.293-1.01-.454-4.164-2.4-8.314-4.827-12.5-7.2a1.69,1.69,0,0,1-1.006-1.719c.047-5.109.023-10.219.023-15.583" transform="translate(-92.9 -112.925)" fill="#ffb500"/><path d="M179.015,144.937c-4.684,2.7-9.284,5.37-13.9,8a1.245,1.245,0,0,1-1.043-.017c-4.616-2.628-9.212-5.29-13.935-8.015,4.158-2.4,8.259-4.65,12.214-7.125a3.657,3.657,0,0,1,4.507,0c3.659,2.305,7.469,4.371,11.216,6.538.3.171.574.374.946.618" transform="translate(-97.88 -89.697)" fill="#ffb500"/></g></g></svg>