<svg xmlns="http://www.w3.org/2000/svg" xmlns:xlink="http://www.w3.org/1999/xlink" width="124" height="124" viewBox="0 0 124 124"><defs><clipPath id="a"><rect width="71" height="74" fill="none"/></clipPath></defs><g transform="translate(-318 -6638)"><circle cx="62" cy="62" r="62" transform="translate(318 6638)" fill="#ced371"/><g transform="translate(345 6663.404)"><g transform="translate(0 -0.404)" clip-path="url(#a)"><path d="M58.578,29.525c-.748-.46-.885-.741-.631-1.579.377-1.245.8-2.476,1.228-3.8-1.185-.983-1.718-2.591-2.339-4.1a4.108,4.108,0,0,1-.048-2.222c.352-1.742,3.387-3.278,4.975-2.682a3.313,3.313,0,0,1,1.907,1.567c.6,1.175,1.165,2.374,1.776,3.626.266-.144.6-.32.935-.506,2.315-1.3,4.623-2.6,6.95-3.877a.965.965,0,0,0,.559-1c-.018-4.448,0-8.9-.019-13.344A1.757,1.757,0,0,1,74.528,0h.835l.877,1.627h.59q5.7,0,11.41,0c.954,0,1.483.318,1.738,1.018a1.65,1.65,0,0,1-.661,1.942c-.915.837-1.835,1.669-2.784,2.532.942.857,1.851,1.673,2.746,2.5a2.868,2.868,0,0,1,.637.746,1.561,1.561,0,0,1-1.557,2.243c-3.873.011-7.746,0-11.618,0h-.771c0,.387.008.672,0,.955-.018.521-.1,1.03.607,1.213.206.053.4.456.467.732a6.882,6.882,0,0,1-.729,5.11,2.669,2.669,0,0,0-.329,1.193c-.021,5.77-.014,11.54-.014,17.31v.743a1.3,1.3,0,0,0,.218.056c1.9,0,3.8,0,5.7.007A5.3,5.3,0,0,1,83,40.017a3.656,3.656,0,0,1,2.853,3.934q.006,13.324,0,26.648v.808c.933,0,1.789-.016,2.645,0a1.015,1.015,0,0,1,1.06,1.311,3.305,3.305,0,0,1-.556.839H26.655c-.472-.351-.866-.755-.635-1.422s.755-.759,1.356-.739c.691.023,1.384.005,2.134.005,0-1.193,0-2.334,0-3.475.011-2.586,1.429-4.057,3.916-4.06,2.365,0,4.729-.012,7.094.006.827.006,1.653.083,2.554.132,0-.855,0-1.8,0-2.742a3.613,3.613,0,0,1,3.692-3.858c.927-.018,1.856.022,2.781-.022a.843.843,0,0,0,.615-.395q2.2-4.7,4.351-9.434a2.328,2.328,0,0,0,.183-.828c.131-2.557.144-5.125.405-7.667a35.483,35.483,0,0,1,1.06-4.655c.151-.625.337-1.24.515-1.858.249-.864.531-1.068,1.4-1.024a1.21,1.21,0,0,1,.607,1.6c-.19.581-.3,1.188-.449,1.784l-.5,1.638c1.587-.673,3.018-1.273,4.442-1.891a.726.726,0,0,0,.388-.351c.567-1.7,1.11-3.408,1.64-5.053l-1.1-.362c-.482-.788-.417-1.3.221-1.766.167-.121.332-.244.5-.366l.179-.1.026-.013c.576-.352,1.156-.7,1.729-1.056q3.587-2.245,7.17-4.5a4.542,4.542,0,0,0,2.2-3.729l-1.729,1.015c-3.254,1.813-6.519,3.607-9.759,5.445-2.829,1.6-2.636.922-3.714,4.707-.236.828-.509,1.02-1.355.991m3.405,7.567c-1.531.648-2.912,1.257-4.313,1.811a.779.779,0,0,0-.547.843c-.087,2.246-.167,4.494-.337,6.734a7.567,7.567,0,0,1-.581,2.406c-1.13,2.593-2.344,5.148-3.524,7.718-.1.222-.188.453-.281.68l.179.166a3.515,3.515,0,0,0,.662-.55c1.879-2.551,3.69-5.159,5.631-7.658a8.008,8.008,0,0,0,1.746-4.272c.041-.426.144-.846.218-1.269.371-2.136.742-4.273,1.052-6.54l-.024.052c.018,0,.04.005.053,0s.009-.03.013-.047c-.014,0-.028,0,.054-.071m9.342,23.558c-.893-.2-1.114-.472-1.116-1.418,0-1.555,0-3.11,0-4.666,0-1.4-.534-1.954-1.889-1.955q-3.789,0-7.578,0c-1.531,0-2,.475-2,2.049q0,7.968,0,15.935c0,.253.022.506.034.777h11.43v-.732c0-1.794,0-3.589,0-5.383,0-.953.2-1.2,1.116-1.416a1.217,1.217,0,0,1,.979,1.423c-.027.477,0,.957,0,1.436v4.668H83.716c.014-.2.035-.359.035-.521q0-13.5,0-27.009c0-1.2-.548-1.738-1.725-1.741q-3.9-.009-7.793,0c-1.447,0-1.931.495-1.931,1.973q0,7.578.007,15.157a1.25,1.25,0,0,1-.981,1.426M56.588,71.369a2.627,2.627,0,0,0,.039-.305c0-3.277.012-6.554,0-9.83a1.463,1.463,0,0,0-1.653-1.659q-4.031-.02-8.062,0c-1.234,0-1.741.559-1.742,1.868q0,4.664,0,9.328c0,.2.023.409.035.6ZM69.007,50.435l1.2.3c0-2.316,0-4.564,0-6.812a4.636,4.636,0,0,1,.083-1.068,3.632,3.632,0,0,1,3.525-2.957V23.072c-2.249,1.407-4.424,2.76-6.586,4.136a1.12,1.12,0,0,0-.349.581c-.736,2.261-1.451,4.529-2.191,6.788a.88.88,0,0,0,.189.954q2.092,2.542,4.133,5.129a3.77,3.77,0,0,1,.8,2.943c-.291,2.248-.537,4.5-.811,6.831m7-40.028H86.972c-.755-.691-1.413-1.29-2.068-1.893a1.634,1.634,0,0,1-.018-2.769c.662-.614,1.33-1.221,2.091-1.919H76ZM43.07,71.371c0-1.325.026-2.613-.009-3.9a1.374,1.374,0,0,0-1.38-1.419q-4.344-.041-8.69,0a1.316,1.316,0,0,0-1.353,1.354c-.044,1.308-.012,2.619-.012,3.963Zm20.938-33.6c-.184,1.061-.347,1.92-.48,2.782-.195,1.262-.193,1.276.9,1.936a2.443,2.443,0,0,1,1.17,1.853c.087.613.109,1.237.169,1.854.136,1.4.277,2.79.413,4.157.712.26.766-.2.819-.639.237-1.966.475-3.932.7-5.9a2.329,2.329,0,0,0-.362-1.9c-1.08-1.309-2.128-2.647-3.324-4.142m-.763-17.063a3.213,3.213,0,0,0-.164-.5c-.37-.769-.74-1.538-1.137-2.292a1.184,1.184,0,0,0-1.756-.573,8.817,8.817,0,0,0-.8.425,1.241,1.241,0,0,0-.544,1.759c.349.752.736,1.485,1.1,2.23a1.223,1.223,0,0,0,1.475.774c1.019-.235,1.79-.943,1.824-1.636,0-.024,0-.048,0-.191m.817,29.714c-.181-1.917-.339-3.771-.55-5.618-.03-.262-.319-.493-.487-.738-.551,2.308-.622,4.625-2.525,6.356Zm-7.447,7.261V55.856l-1.1,1.546,1.1.285" transform="translate(-22.341 0.347)" fill="#030303"/><path d="M257.326,139.082c.846.029,1.119-.162,1.355-.991,1.078-3.785.885-3.1,3.714-4.707,3.241-1.838,6.505-3.632,9.759-5.445-.008.137.038.333-.033.4a13.266,13.266,0,0,1-1.831,1.693c-2.111,1.4-4.275,2.705-6.412,4.058a2.123,2.123,0,0,0-1.1,2.114l-.026.013-.179.1c-.166.122-.332.245-.5.366-.637.462-.7.979-.221,1.766a25.166,25.166,0,0,1-2.064,3.676,16.969,16.969,0,0,1-2.808,2.343c.147-.6.259-1.2.449-1.784a1.21,1.21,0,0,0-.607-1.6l.5-2" transform="translate(-221.089 -109.21)" fill="#81d6fb"/><path d="M352.021,311.524A1.249,1.249,0,0,0,353,310.1q-.02-7.578-.007-15.157c0-1.478.484-1.971,1.931-1.973q3.9,0,7.793,0c1.177,0,1.724.545,1.725,1.741q.008,13.5,0,27.009c0,.162-.021.323-.035.521H353v-4.668c0-.479-.022-.959,0-1.436a1.216,1.216,0,0,0-.979-1.423q0-1.595,0-3.19" transform="translate(-303.037 -250.528)" fill="#a3314f"/><path d="M274.182,374.21q0,1.595,0,3.19c-.916.219-1.113.463-1.116,1.417,0,1.794,0,3.589,0,5.383v.732h-11.43c-.012-.271-.034-.524-.034-.777q0-7.968,0-15.935c0-1.574.465-2.049,2-2.049q3.789,0,7.578,0c1.356,0,1.887.553,1.889,1.955,0,1.555,0,3.11,0,4.666,0,.945.223,1.22,1.116,1.418" transform="translate(-225.197 -313.214)" fill="#a3314f"/><path d="M175.443,426.383H164.056c-.012-.191-.035-.4-.035-.6q0-4.664,0-9.328c0-1.309.508-1.863,1.742-1.868q4.031-.015,8.062,0a1.463,1.463,0,0,1,1.653,1.659c.016,3.276.005,6.554,0,9.83a2.585,2.585,0,0,1-.039.305" transform="translate(-141.195 -354.666)" fill="#a3314f"/><path d="M385.637,33.206V26.624h10.974c-.761.7-1.43,1.305-2.091,1.919a1.634,1.634,0,0,0,.018,2.769c.655.6,1.313,1.2,2.068,1.893Z" transform="translate(-331.975 -22.452)" fill="#ffb500"/><path d="M78.1,464.941H66.657c0-1.344-.032-2.655.012-3.963a1.316,1.316,0,0,1,1.353-1.354q4.345-.04,8.69,0a1.375,1.375,0,0,1,1.38,1.419c.035,1.286.009,2.573.009,3.9" transform="translate(-57.372 -393.223)" fill="#a3314f"/><path d="M225.6,258.162l-1.148,6.608c-.074.423-.177.843-.218,1.269a8.009,8.009,0,0,1-1.746,4.272c-1.941,2.5-3.752,5.107-5.631,7.658a3.509,3.509,0,0,1-.662.55l-.178-.166c.093-.227.179-.457.281-.68,1.18-2.57,2.394-5.124,3.524-7.718a7.564,7.564,0,0,0,.581-2.406c.17-2.24.25-4.488.337-6.734a.779.779,0,0,1,.547-.843c1.4-.553,2.782-1.163,4.313-1.81" transform="translate(-185.96 -220.724)" fill="#4e7490"/><path d="M295.853,262.922c1.2,1.495,2.244,2.832,3.324,4.142a2.329,2.329,0,0,1,.362,1.9c-.224,1.968-.462,3.934-.7,5.9-.053.441-.107.9-.819.639-.136-1.367-.278-2.762-.413-4.157-.06-.618-.082-1.241-.169-1.854a2.444,2.444,0,0,0-1.17-1.853c-1.088-.66-1.09-.674-.895-1.936.133-.863.3-1.721.48-2.782" transform="translate(-254.186 -224.8)" fill="#376079"/><path d="M265.692,123.049c0,.144,0,.167,0,.191-.035.692-.806,1.4-1.824,1.636a1.224,1.224,0,0,1-1.475-.774c-.365-.744-.753-1.478-1.1-2.23a1.24,1.24,0,0,1,.544-1.759,8.832,8.832,0,0,1,.8-.425,1.184,1.184,0,0,1,1.756.573c.4.754.767,1.523,1.137,2.292a3.192,3.192,0,0,1,.164.5" transform="translate(-224.788 -101.99)" fill="#f9c7a6"/><path d="M299.542,130.156a2.123,2.123,0,0,1,1.1-2.114c2.137-1.353,4.3-2.662,6.412-4.058a13.264,13.264,0,0,0,1.831-1.693c.071-.069.025-.265.033-.4l1.729-1.015a4.542,4.542,0,0,1-2.2,3.729q-3.577,2.262-7.17,4.5c-.573.358-1.152.7-1.729,1.056" transform="translate(-257.849 -103.16)" fill="#5ec5e9"/><path d="M254.885,207.13a16.958,16.958,0,0,0,2.808-2.342,25.174,25.174,0,0,0,2.064-3.676l1.1.362c-.53,1.645-1.073,3.353-1.64,5.052a.727.727,0,0,1-.388.351c-1.424.617-2.855,1.218-4.442,1.891l.5-1.638" transform="translate(-218.989 -171.87)" fill="#5dc5e8"/><path d="M298.146,185.672l.179-.1-.179.1" transform="translate(-256.658 -158.562)" fill="#5ec5e9"/><path d="M284.051,258.634l.042,0c0,.016,0,.041-.013.047s-.035,0-.053,0l.024-.053" transform="translate(-244.504 -221.128)" fill="#4e7490"/></g></g></g></svg>