<svg xmlns="http://www.w3.org/2000/svg" xmlns:xlink="http://www.w3.org/1999/xlink" width="310.22" height="289.044" viewBox="0 0 310.22 289.044"><defs><clipPath id="a"><rect width="310.22" height="289.044" fill="none"/></clipPath></defs><g transform="translate(0 -0.004)"><g transform="translate(0 0.004)"><g clip-path="url(#a)"><path d="M734.77,999.3c0,5.011-9.448,9.073-21.1,9.073s-21.1-4.062-21.1-9.073,9.448-9.073,21.1-9.073,21.1,4.061,21.1,9.073" transform="translate(-593.108 -852.828)" fill="#98a7d3"/><path d="M873.156,1018.309a11.624,11.624,0,0,0,3.948,2.225,3.441,3.441,0,0,0,3.29-.823.6.6,0,0,0-.1-.931c-4.368-3.209-5.676-4.118-5.676-4.118h-4.01a8.538,8.538,0,0,0-.087,2.186,3.484,3.484,0,0,0,2.2,1.288c.082.014.237-.1.315-.072Z" transform="translate(-745.489 -873.87)" fill="#191818"/><path d="M880.331,1027.615a1.056,1.056,0,0,1-.084.265,2.219,2.219,0,0,1-2.03.981,6.011,6.011,0,0,1-2.5-.818,11.161,11.161,0,0,1-2.068-1.355,6.3,6.3,0,0,0-1.564-.756,7.981,7.981,0,0,1-1.577-1.027c0,.418.028.765.028.765a3.484,3.484,0,0,0,2.2,1.288c.083.014.237-.1.315-.072l.116.246a11.622,11.622,0,0,0,3.948,2.225,3.44,3.44,0,0,0,3.29-.823.6.6,0,0,0-.077-.918" transform="translate(-745.503 -882.693)" fill="#060401"/><path d="M834.361,590.584c4.46,4.758,6.227-.275,6.227-.275l.553-29.241c.057.435.206-2.95-5.424-2.216-5.614.73-7.036,2.845-7.036,2.845s3.089,20.2,5.68,28.888" transform="translate(-709.679 -481.217)" fill="#e28262"/><path d="M861.537,768.811s-2.263,30.8-2.448,31.876c0,0-2.75.588-2.763-.024-.031-1.475-3.172-19.5-3.212-21.814-.1-5.868,1.463-6.978,3.025-10.931,0,0,5.409-3.864,5.4.893" transform="translate(-730.6 -660.089)" fill="#e28262"/><path d="M833.331,590.777c-2.591-8.69-4.65-29.082-4.65-29.082s1.422-2.115,7.036-2.845c5.63-.733,5.481,2.651,5.424,2.217a184.069,184.069,0,0,1-.524,28.871s-3.828,2.952-7.285.839" transform="translate(-709.679 -481.216)" fill="#111621"/><path d="M868.232,786.485c4.46,4.758,6.227-.275,6.227-.275" transform="translate(-743.551 -677.118)" fill="#111621"/><path d="M860.625,796.3c.658-.893.893-31.8.893-31.8.011-4.757-6.05-2.564-6.05-2.564a27.692,27.692,0,0,0-2.372,12.6c.04,2.318,1.643,20.714,1.674,22.189,0,0,3.973,2.131,5.855-.424" transform="translate(-730.581 -655.774)" fill="#111621"/><path d="M822.26,524.431a10.027,10.027,0,0,0,0,9.972c3.015,5.271,12.221,3.35,12.249-3.477.027-6.744-6.325-9.323-12.249-6.495" transform="translate(-703.032 -450.687)" fill="#111621"/><path d="M775.306,450.913c-.8,2.737-4.079,13.178-4.079,13.178,11.753,13.587,20.608,1.7,20.725.459.14-1.483-1.573-7.147-1.885-13.257,0,0-3.2-4.767-14.761-.38" transform="translate(-660.476 -386.748)" fill="#f39672"/><path d="M791.761,516.639c.557-3.659-.6-7.35-1.192-11.049H773.351c-1.1,3.546-2.247,7.189-2.247,7.189s-.736,8.388,6.637,9.394c0,0,12.849,2.152,14.02-5.535" transform="translate(-660.353 -435.436)" fill="#111621"/><path d="M772.2,596.286c3.681,5.344,6.2.62,6.2.62l5.971-28.487c-.009.438-.179-3.711-5.858-3.792s-7.395,1.807-7.395,1.807-.148,20.887,1.082,29.851" transform="translate(-660.377 -486.28)" fill="#f39672"/><path d="M768.232,778.358s-5.913,32.451-6.26,33.493c0,0-2.811.188-2.729-.42.2-1.463-.312-21.927,0-24.224.8-5.818,1.633-6.819,3.784-10.505,0,0,5.941-3.048,5.2,1.656" transform="translate(-650.125 -668.093)" fill="#f39672"/><path d="M757.944,1027.4l1.663,4.9s-.343,4.387-3.985,1.669l-1.084-1.016a1.1,1.1,0,0,1-.392-1.077l.324-1.878.386-2.6s2.281-1.5,3.087,0" transform="translate(-645.829 -884.266)" fill="#191818"/><path d="M755.623,1064.57l-1.084-1.015a1.087,1.087,0,0,1-.373-.561l-.019.11a1.1,1.1,0,0,0,.392,1.076l1.084,1.016c3.642,2.719,3.985-1.668,3.985-1.668l-.065-.191c-.2,1.036-1.007,3.409-3.92,1.234" transform="translate(-645.829 -915.496)" fill="#060401"/><path d="M769.446,577.556c-1.23-8.964-.286-32.775-.286-32.775s1.472-2.113,7.136-2.031c5.68.081,6.843,6.329,6.853,5.89,0,0-4.779,24.386-6.853,30.268,0,0-3.508,2.9-6.85-1.353" transform="translate(-658.409 -467.438)" fill="#161c29"/><path d="M755.785,805.211c.348-1.042,4.993-33.413,4.993-33.413.057-4.4-5.93-3.319-5.93-3.319-2.151,3.686-2.65,5.408-3.448,11.227-.316,2.3-.925,23.552-1.121,25.015a6.289,6.289,0,0,0,5.506.49" transform="translate(-642.536 -661.747)" fill="#161c29"/><path d="M889.775,297.678s2.07,14.206,4.1,19.738c0,0,3.35.693,4.436-1.141,0,0-.373-12.143-.809-19.459,0,0-4.127-4.5-7.731.862" transform="translate(-762 -254.11)" fill="#e28262"/><path d="M921.89,435.11s.72,11.722,1.425,16.315c0,0-.587,1.282-1.38.33-1.326-1.592-5.3-16.02-4.537-16.922,3.545-4.211,4.491.276,4.491.276" transform="translate(-785.575 -372.946)" fill="#e28262"/><path d="M895.508,289.158a4.011,4.011,0,0,1-5.473-.7,3.653,3.653,0,0,1,.754-5.254,4.011,4.011,0,0,1,5.473.7,3.651,3.651,0,0,1-.754,5.253" transform="translate(-761.543 -243.245)" fill="#e28262"/><path d="M950.027,580.42l.583,1.63-.576,2.407s.5.291.829-.524l.543-2-.494-1.865Z" transform="translate(-813.599 -499.583)" fill="#e28262"/><path d="M954.014,583.6l.676,1.6-.437,2.433s.514.264.8-.567l.426-2.023-.6-1.835Z" transform="translate(-817.014 -502.283)" fill="#e28262"/><path d="M949.191,559.842l-.693-1.891-.816-2.356-1.607.075-.041,2.647.129,1.362.2,1.857.031.606s.52.064.718-.946l.063-1.8.942,1.231-.111,2.485s.388,1.215.683.676l.644-3.575Z" transform="translate(-810.18 -478.504)" fill="#e28262"/><path d="M892.222,282.338a5.024,5.024,0,0,1,3.729,4.757l.572,14.271a14.217,14.217,0,0,1-8.115,1.882s-5.283-19.058,3.814-20.91" transform="translate(-759.523 -243.162)" fill="#ced371"/><path d="M882.812,158.8a4.07,4.07,0,0,0,1.294-2.185c-.013-.182-.2-.326-.2-.555s.107-.327.2-.518a2.184,2.184,0,0,0,.223-1.1c0-.332.065-.986-.17-1.25-.349-.394-1.045-.071-1.411.14-.761.438-1.19,1.15-1.978,1.57a3.092,3.092,0,0,0-1.262,1.412c-.474.785-.869,2.241.143,2.833a3,3,0,0,0,3.165-.35" transform="translate(-752.784 -131.774)" fill="#341e13"/><path d="M815.626,167.242s-.692-1.286-2.22-3.756c0,0-3.25-3.226-1.428-7.279,0,0,1-3.39,7.134-2.9,0,0,.587,9.33-3.486,13.932" transform="translate(-694.899 -131.996)" fill="#f3906b"/><path d="M832.028,215.948s1.032,9.3-1.169,10l7.849-.451s-1.233-2.81.2-4.883Z" transform="translate(-711.544 -185.984)" fill="#f39672"/><path d="M845.248,223.875c-.13-2.125.146-2.556.632-3.258L839,215.948a43.716,43.716,0,0,1,.217,5.727,7.6,7.6,0,0,0,6.031,2.2" transform="translate(-718.516 -185.984)" fill="#db765e"/><path d="M784.934,277.6c1.748,1.234,1.948,4.184,1.324,6.028-.716,2.116-1,4.817-1.718,7.879-.972,4.148-1.631,7.344-2.714,11.463-.9,3.407-15.066.662-15.066.662l-5.078-16.769s-.874-4.377,3.23-5.834a62.36,62.36,0,0,1,7.488-3.291,14.087,14.087,0,0,1,6.676-.83,34.269,34.269,0,0,1,5.857.692" transform="translate(-652.235 -238.427)" fill="#f39672"/><path d="M832.364,167.708l.326-1.052.827-3.888a3.813,3.813,0,0,0-.064-1.615,3.836,3.836,0,0,1-.143-1.659,4.718,4.718,0,0,0-1.075-4.239c-1.8-2.469-5.744-2.275-5.744-2.275a5.369,5.369,0,0,0-5.041,5.053c-.635,3.074,2,5.48,2,5.484.21.192.16,1.2.235,1.477.32,1.2,1.559,1.885,2.648,2.347a12.066,12.066,0,0,0,3.953,1.089c.5.02,1.89-.119,2.078-.722" transform="translate(-703.402 -131.75)" fill="#f3906b"/><path d="M809.772,142.207c1.458-1.725,4.267-.166,6.077-1.23.844-.5.832-1.386,1.934-1.388,2.354,0,2.076-2.448.769-3.161a4.5,4.5,0,0,0-.793.032c-.653.073-1.075.347-1.732.119a18.475,18.475,0,0,1-1.926-1.005,6.991,6.991,0,0,0-2.654-.986c-1.186-.052-1.563.784-2.44,1.334a8.956,8.956,0,0,1-1.953.548,16.775,16.775,0,0,0-2.693,1.407c-.613.348-1.449.814-1.362,1.617.082.761.882.935.638,1.761a6.615,6.615,0,0,0,.408,4.269,12.54,12.54,0,0,0,1.144,2.43,9.7,9.7,0,0,0,1.884,2.014,8.09,8.09,0,0,1,1.333,1.19c.046-1.874-.344-1.72.165-2.653.2-.363-.021-.668-.16-1.027s-.464-.657-.415-1.047a.711.711,0,0,0,.627,0c.24-.195.044-.844.084-1.1a7.861,7.861,0,0,1,.7-2.577,3.381,3.381,0,0,1,.37-.547" transform="translate(-687.679 -115.913)" fill="#341e13"/><path d="M827.422,217.595a1.1,1.1,0,0,1-.669.285,1.57,1.57,0,0,1-1.63-1.4,1.357,1.357,0,0,1,2.189-1.368,1.866,1.866,0,0,1,.488,1.512,1.411,1.411,0,0,1-.379.966" transform="translate(-706.617 -184.994)" fill="#f3906b"/><path d="M830.762,218.67c-.1-.441-.984.094-.811.33a1.427,1.427,0,0,0,.419.309.665.665,0,0,1,.348.454c.006.026.021.1,0,.125-.111.1-.562-.3-.661-.377a.737.737,0,0,1-.2-.7.464.464,0,0,1,.473-.4c.211-.012.427-.024.446.23,0,.006,0,.049-.009.026" transform="translate(-710.667 -188.103)" fill="#e47a5d"/><path d="M831.952,223.541c.086-.106.188-.039.3.019a.431.431,0,0,1,.2.244,1.026,1.026,0,0,1-.023.76.587.587,0,0,1-.471.316c-.282.024-.4-.206-.435-.435-.011-.061-.035-.207.024-.252s.123.047.173.086a.414.414,0,0,0,.25.059.518.518,0,0,0,.4-.229.256.256,0,0,0,.034-.075c.018.15.014.185-.013.1a.394.394,0,0,0-.066-.1c-.078-.1-.2-.156-.283-.246-.04-.042-.126-.2-.083-.25" transform="translate(-712.098 -192.476)" fill="#e47a5d"/><path d="M880.38,210.134l-1.327.5s1.79.107,1.859-.4c0,0-.271-.98-.564-1.909,0,0,.229,1.736.032,1.809" transform="translate(-752.818 -179.419)" fill="#e47a5d"/><path d="M868.054,205.28c0,.271-.155.49-.345.49s-.345-.219-.345-.49.154-.49.345-.49.345.22.345.49" transform="translate(-742.808 -176.375)" fill="#341e13"/><path d="M894.7,202.32c0,.271-.155.49-.345.49s-.345-.219-.345-.49.154-.49.345-.49.345.22.345.49" transform="translate(-765.629 -173.824)" fill="#341e13"/><path d="M861.153,197.867c.124.025.154-.136.154-.136a.546.546,0,0,0-.008-.287.285.285,0,0,0-.148-.145,4.309,4.309,0,0,0-1.465.185c-.291.084-.763.293-.793.552-.009.077-.017.211.074.235a12.32,12.32,0,0,1,2.186-.4" transform="translate(-735.548 -169.912)" fill="#341e13"/><path d="M893.213,194.917a10.789,10.789,0,0,0-1.711.173c-.113.056-.187-.09-.187-.09a.555.555,0,0,1-.073-.279.276.276,0,0,1,.1-.178,3.216,3.216,0,0,1,1.269-.192,2.559,2.559,0,0,1,.637.083,1.142,1.142,0,0,1-.036.482" transform="translate(-763.257 -167.383)" fill="#341e13"/><path d="M877.147,232.645c.109,0,.168.048.126.123a1.981,1.981,0,0,1-1.313.964,2.043,2.043,0,0,1-1.518-.634c-.067-.071-.009-.142.127-.159,0,0,1.443-.178,2.578-.3" transform="translate(-748.844 -200.364)" fill="#fff"/><path d="M771.516,526.441a10.026,10.026,0,0,0,0,9.972c3.016,5.271,12.221,3.35,12.248-3.477.027-6.744-6.325-9.323-12.248-6.495" transform="translate(-659.576 -452.418)" fill="#161c29"/><path d="M779.077,277.352a34.272,34.272,0,0,1,5.857.692c1.748,1.234,1.948,4.185,1.324,6.028-.716,2.116-1,4.817-1.718,7.878-.972,4.148-.886,7.377-1.969,11.5-.9,3.407-17.5.377-17.5.377l-3.392-16.518s-.874-4.377,3.23-5.834a57.538,57.538,0,0,1,7.292-3.225s-.494,3.225,4.947,2.334c0,0,3.324-.775,1.925-3.231" transform="translate(-652.235 -238.868)" fill="#ced371"/><path d="M771.249,452.982c-.8,2.737-2.435,11.39-2.435,11.39,2.155,8.636,21.985,2.422,22.1,1.183.14-1.483-1.584-7.986-1.9-14.1,0,0-6.214-2.864-17.772,1.523" transform="translate(-658.409 -388.026)" fill="#ced371"/><path d="M717.257,319.8c-1.939,2.124-8.852,11.875-10.893,13.441-.542.417-5.182,2.311-5.129-1.156,5.724-12.3,9.916-17.9,9.916-17.9s4.563-2.02,6.753,1.531c0,0,.712,2.616-.647,4.086" transform="translate(-600.535 -270.099)" fill="#f39672"/><path d="M768.3,312.465a4.5,4.5,0,0,1-3.8,5.165,4.624,4.624,0,0,1-5.345-3.674,4.5,4.5,0,0,1,3.8-5.165,4.625,4.625,0,0,1,5.345,3.674" transform="translate(-650.078 -265.89)" fill="#f39672"/><path d="M734.284,301.543s-3.852,1.448-5.611,4.225l-4.593,6.865s1.881,5.188,6.559,6.262l7.348-8.628s4.156-5.056-3.7-8.724" transform="translate(-620.099 -259.702)" fill="#ced371"/><path d="M709.455,441.986a151.257,151.257,0,0,1,8.01,14.873s.018,1.751-1.341,1.274-11.818-13.071-11.9-14.41c-.2-3.442,5.228-1.736,5.228-1.736" transform="translate(-603.093 -380.294)" fill="#f39672"/><path d="M789.837,556.534c-1.846-1.62-1.944-2.022-2.185-2.632-1.044-2.618,2.216-1.754,2.994-1.373.447.219.193,1.314,1.317,3,0,0,1.972,1.854,2.565,1.9,0,0,.571.224.464.637,0,0-1.861.533-5.154-1.531" transform="translate(-674.367 -475.478)" fill="#f39672"/><path d="M807.5,555.6s-1.248.326-.148,1.384l1.776.58a.6.6,0,0,0,.739-.134s.109-.28-.365-.524Z" transform="translate(-691.025 -478.504)" fill="#f39672"/><path d="M650.362,1062.468c-40.693,0-73.686-18.172-73.686-40.595s32.992-40.592,73.686-40.592,73.684,18.176,73.684,40.592-32.988,40.595-73.684,40.595" transform="translate(-493.863 -845.122)" fill="#98a7d3"/><line x2="11.565" transform="translate(23.531 192.253)" fill="none" stroke="#5893cf" stroke-miterlimit="10" stroke-width="10.887"/><line x2="5.783" transform="translate(36.82 192.253)" fill="none" stroke="#5893cf" stroke-miterlimit="10" stroke-width="10.887"/><line x2="13.472" transform="translate(269.854 148.343)" fill="none" stroke="#5893cf" stroke-miterlimit="10" stroke-width="11.751"/><line x2="6.736" transform="translate(285.335 148.343)" fill="none" stroke="#5893cf" stroke-miterlimit="10" stroke-width="11.751"/><line x1="11.566" transform="translate(262.326 94.058)" fill="none" stroke="#5893cf" stroke-miterlimit="10" stroke-width="10.887"/><line x1="5.783" transform="translate(254.821 94.058)" fill="none" stroke="#5893cf" stroke-miterlimit="10" stroke-width="10.887"/><line x2="1.613" y2="1.558" transform="translate(151.966 34.446)" fill="none" stroke="#5893cf" stroke-miterlimit="10" stroke-width="10.887"/><line x2="1.613" y2="1.558" transform="translate(154.716 37.103)" fill="none" stroke="#5893cf" stroke-miterlimit="10" stroke-width="10.887"/><line x1="1.613" y2="1.558" transform="translate(154.716 34.446)" fill="none" stroke="#5893cf" stroke-miterlimit="10" stroke-width="10.887"/><line x1="1.613" y2="1.558" transform="translate(151.966 37.103)" fill="none" stroke="#5893cf" stroke-miterlimit="10" stroke-width="10.887"/><line x2="1.613" y2="1.558" transform="translate(25.488 99.255)" fill="none" stroke="#5893cf" stroke-miterlimit="10" stroke-width="10.887"/><line x2="1.612" y2="1.558" transform="translate(28.237 101.911)" fill="none" stroke="#5893cf" stroke-miterlimit="10" stroke-width="10.887"/><line x1="1.612" y2="1.558" transform="translate(28.237 99.255)" fill="none" stroke="#5893cf" stroke-miterlimit="10" stroke-width="10.887"/><line x1="1.613" y2="1.558" transform="translate(25.488 101.911)" fill="none" stroke="#5893cf" stroke-miterlimit="10" stroke-width="10.887"/><line x2="1.612" y2="1.558" transform="translate(191.421 96.781)" fill="none" stroke="#5893cf" stroke-miterlimit="10" stroke-width="10.887"/><line x2="1.612" y2="1.558" transform="translate(194.171 99.438)" fill="none" stroke="#5893cf" stroke-miterlimit="10" stroke-width="10.887"/><line x1="1.612" y2="1.558" transform="translate(194.171 96.781)" fill="none" stroke="#5893cf" stroke-miterlimit="10" stroke-width="10.887"/><line x1="1.612" y2="1.558" transform="translate(191.421 99.438)" fill="none" stroke="#5893cf" stroke-miterlimit="10" stroke-width="10.887"/><line x2="1.613" y2="1.558" transform="translate(283.154 183.531)" fill="none" stroke="#5893cf" stroke-miterlimit="10" stroke-width="10.887"/><line x2="1.612" y2="1.558" transform="translate(285.904 186.188)" fill="none" stroke="#5893cf" stroke-miterlimit="10" stroke-width="10.887"/><line x1="1.612" y2="1.558" transform="translate(285.903 183.531)" fill="none" stroke="#5893cf" stroke-miterlimit="10" stroke-width="10.887"/><line x1="1.613" y2="1.558" transform="translate(283.154 186.188)" fill="none" stroke="#5893cf" stroke-miterlimit="10" stroke-width="10.887"/><path d="M1787.385,192.555a2,2,0,1,1-2-1.934A1.968,1.968,0,0,1,1787.385,192.555Z" transform="translate(-1527.282 -164.172)" fill="none" stroke="#5893cf" stroke-miterlimit="10" stroke-width="10.887"/><path d="M530.766,208.887a2,2,0,1,1-2-1.934A1.968,1.968,0,0,1,530.766,208.887Z" transform="translate(-451.119 -178.237)" fill="none" stroke="#5893cf" stroke-miterlimit="10" stroke-width="10.887"/><path d="M624.468,834.894a2,2,0,1,1-2-1.933A1.968,1.968,0,0,1,624.468,834.894Z" transform="translate(-531.365 -717.382)" fill="none" stroke="#5893cf" stroke-miterlimit="10" stroke-width="10.887"/><path d="M1446.213,1050.881c0,5.012,9.448,9.073,21.1,9.073s21.1-4.062,21.1-9.073-9.449-9.073-21.1-9.073-21.1,4.062-21.1,9.073" transform="translate(-1238.531 -897.251)" fill="#98a7d3"/><path d="M1499.45,1069.891a11.6,11.6,0,0,1-3.948,2.225,3.44,3.44,0,0,1-3.29-.823.6.6,0,0,1,.1-.932c4.368-3.209,5.675-4.119,5.675-4.119h4.01a8.533,8.533,0,0,1,.087,2.186,3.487,3.487,0,0,1-2.2,1.288c-.082.014-.237-.1-.315-.073Z" transform="translate(-1277.775 -918.295)" fill="#191818"/><path d="M1492.287,1079.2a1.048,1.048,0,0,0,.084.265,2.221,2.221,0,0,0,2.03.982,6.012,6.012,0,0,0,2.5-.818,11.141,11.141,0,0,0,2.068-1.355,6.294,6.294,0,0,1,1.563-.756,7.994,7.994,0,0,0,1.577-1.026c0,.418-.027.764-.027.764a3.49,3.49,0,0,1-2.2,1.289c-.083.013-.237-.1-.315-.073l-.116.246a11.607,11.607,0,0,1-3.948,2.225,3.44,3.44,0,0,1-3.29-.823.6.6,0,0,1,.077-.918" transform="translate(-1277.772 -927.121)" fill="#060401"/><path d="M1523.936,642.167c-4.46,4.758-6.227-.275-6.227-.275l-.553-29.242c-.058.435-.206-2.949,5.424-2.217,5.614.731,7.036,2.845,7.036,2.845s-3.089,20.2-5.68,28.888" transform="translate(-1299.274 -525.642)" fill="#e28262"/><path d="M1520.9,820.4s2.263,30.8,2.447,31.876c0,0,2.75.588,2.763-.024.031-1.475,3.172-19.5,3.212-21.814.1-5.869-1.463-6.978-3.025-10.931,0,0-5.408-3.864-5.4.893" transform="translate(-1302.489 -704.516)" fill="#e28262"/><path d="M1520.582,643.273c2.591-8.69,4.337-29.995,4.337-29.995s-1.421-2.115-7.036-2.845c-5.63-.733-5.482,2.651-5.424,2.217,0,0-1.705,15.856-.144,30.268,0,0,4.81,2.468,8.266.356" transform="translate(-1294.577 -525.642)" fill="#00315e"/><path d="M1533.74,502.495c.8,2.737,4.078,13.178,4.078,13.178-11.754,13.587-20.608,1.7-20.725.459-.14-1.484,1.573-7.148,1.884-13.256,0,0,3.2-4.767,14.762-.381" transform="translate(-1299.226 -431.173)" fill="#f39672"/><path d="M1516.735,568.223c-.557-3.66.6-7.35,1.192-11.049h17.218c1.1,3.546,2.247,7.189,2.247,7.189s.736,8.389-6.637,9.393c0,0-12.849,2.152-14.02-5.534" transform="translate(-1298.8 -479.863)" fill="#00315e"/><path d="M1581.421,647.872c-3.681,5.344-6.2.62-6.2.62l-5.971-28.487c.009.439.179-3.711,5.859-3.792,5.664-.081,7.394,1.807,7.394,1.807s.148,20.887-1.082,29.852" transform="translate(-1343.9 -530.708)" fill="#f39672"/><path d="M1609.854,829.941s5.914,32.451,6.261,33.494c0,0,2.81.188,2.729-.42-.2-1.463.312-21.926,0-24.224-.8-5.818-1.634-6.819-3.784-10.505,0,0-5.941-3.047-5.2,1.656" transform="translate(-1378.618 -712.519)" fill="#f39672"/><path d="M1642.044,1078.98l-1.663,4.9s.344,4.387,3.985,1.669l1.085-1.016a1.1,1.1,0,0,0,.392-1.077l-.324-1.878-.386-2.6s-2.282-1.5-3.088,0" transform="translate(-1404.816 -928.692)" fill="#191818"/><path d="M1644.366,1116.155l1.085-1.015a1.089,1.089,0,0,0,.372-.561l.019.11a1.1,1.1,0,0,1-.392,1.077l-1.085,1.016c-3.641,2.719-3.985-1.669-3.985-1.669l.065-.191c.2,1.036,1.007,3.409,3.92,1.233" transform="translate(-1404.816 -959.924)" fill="#060401"/><path d="M1570.04,630.434c-2.074-5.882-5.989-30.21-5.989-30.21.009.439,1.172-5.81,6.853-5.891,5.664-.081,7.136,2.031,7.136,2.031s1.774,23.81.544,32.775c0,0-3.99,4.452-8.544,1.294" transform="translate(-1339.447 -511.864)" fill="#003980"/><path d="M1431.873,348.593s-9.618,10.929-14.4,14.55c0,0-3.214-1.148-3.115-3.258,0,0,7.041-10.065,11.462-16.019,0,0,5.977-1.664,6.053,4.727" transform="translate(-1211.248 -295.985)" fill="#e28262"/><path d="M1325.428,452.553s-12.124.8-16.929.707c0,0-1.241.724-.163,1.364,1.8,1.069,17.117,3.041,17.947,2.2,3.871-3.933-.855-4.269-.855-4.269" transform="translate(-1120.077 -389.759)" fill="#e28262"/><path d="M1489.394,338.955a3.959,3.959,0,0,0,5.01,2.241,3.7,3.7,0,0,0,2.273-4.828,3.961,3.961,0,0,0-5.011-2.241,3.7,3.7,0,0,0-2.272,4.827" transform="translate(-1275.297 -287.567)" fill="#e28262"/><path d="M1439.793,332.805a5.243,5.243,0,0,0-5.785,2.089l-8.389,11.758a13.559,13.559,0,0,0,5.812,5.787s15.019-13.365,8.362-19.634" transform="translate(-1220.895 -286.453)" fill="#781a3e"/><path d="M1571.035,218.825s.693-1.287,2.22-3.756c0,0,3.25-3.226,1.429-7.279,0,0-1-3.39-7.135-2.9,0,0-.587,9.33,3.486,13.933" transform="translate(-1342.418 -176.421)" fill="#f3906b"/><path d="M1552.655,267.534s-1.032,9.3,1.169,10l-7.849-.452s1.234-2.81-.2-4.882Z" transform="translate(-1323.796 -230.412)" fill="#f39672"/><path d="M1546.408,275.461c.131-2.125-.146-2.556-.632-3.258l6.88-4.669a43.734,43.734,0,0,0-.217,5.727,7.6,7.6,0,0,1-6.032,2.2" transform="translate(-1323.797 -230.412)" fill="#db765e"/><path d="M1498.8,329.188c-1.748,1.234-1.949,4.184-1.324,6.027.716,2.117,1,4.818,1.718,7.879.972,4.148,1.63,7.344,2.714,11.463.9,3.407,15.066.662,15.066.662l5.078-16.768s.875-4.377-3.229-5.834a62.382,62.382,0,0,0-7.489-3.291,14.093,14.093,0,0,0-6.677-.83,34.291,34.291,0,0,0-5.857.692" transform="translate(-1282.16 -282.854)" fill="#f39672"/><path d="M1522.75,210.274c-.4,1.784-.864,2.716-.354,4.351.459,1.469.353,3.012,1.016,4.435.947,2.03,2.179,1.765,3.121-.1.964-1.912,1.969-4.5-.208-5.912-1.4-.909-1.9-2.474-3.575-2.773" transform="translate(-1303.582 -181.098)" fill="#23140a"/><path d="M1527.421,219.29l-.327-1.051-.826-3.888a3.8,3.8,0,0,1,.064-1.615,3.844,3.844,0,0,0,.143-1.659,4.717,4.717,0,0,1,1.074-4.239c1.8-2.469,5.744-2.275,5.744-2.275a5.37,5.37,0,0,1,5.041,5.053c.635,3.074-2,5.48-2,5.485-.21.192-.159,1.2-.234,1.477-.32,1.2-1.559,1.885-2.648,2.346a12.061,12.061,0,0,1-3.953,1.089c-.5.02-1.89-.119-2.077-.722" transform="translate(-1307.04 -176.175)" fill="#f3906b"/><path d="M1526.547,265.923c.64.558,1.51.3,2.192.707a1.183,1.183,0,0,0,1.154.109,1.869,1.869,0,0,1,1.1.036c.406.113,1.144.455,1.538.608a1.488,1.488,0,0,0,1.746-.39,3.321,3.321,0,0,0,.905-1.385,1.611,1.611,0,0,1,2.67-.635,7.643,7.643,0,0,1-1.339,1.77,12.487,12.487,0,0,0-.234,2.307c-.321,1.2-1.559,1.885-2.648,2.346a13.817,13.817,0,0,1-4.335.629,2.084,2.084,0,0,1-1.695-1.091l-.327-1.051-.826-3.888c-.015-.068-.02-.143-.029-.216a1.263,1.263,0,0,0,.128.144" transform="translate(-1307.219 -227.819)" fill="#23140a"/><path d="M1515.972,184.721c1.1,0,1.089.892,1.934,1.388,1.81,1.063,4.618-.5,6.077,1.229a3.339,3.339,0,0,1,.37.547,7.844,7.844,0,0,1,.7,2.578c.04.254-.155.9.085,1.1a.712.712,0,0,0,.626,0c.049.39-.275.689-.414,1.047s-.357.664-.16,1.027c.509.933.118.779.165,2.653a8.123,8.123,0,0,1,1.333-1.19,9.666,9.666,0,0,0,1.884-2.014,12.534,12.534,0,0,0,1.145-2.429,6.621,6.621,0,0,0,.408-4.269s-.333-3.323-3.211-3.68c0,0,.366-2.14-4.894-2.706,0,0-4.153.063-4.38-1.322a1.939,1.939,0,0,0-.631,1.763,2.061,2.061,0,0,1-2.476-1.385s-1.423,4.973,1.445,5.665" transform="translate(-1296.733 -153.886)" fill="#23140a"/><path d="M1589.882,269.13a.875.875,0,0,0,.552.317,1.421,1.421,0,0,0,1.465-1.316,1.4,1.4,0,0,0-.9-1.734,1.082,1.082,0,0,0-.879.263,2.086,2.086,0,0,0-.5,1.486,1.553,1.553,0,0,0,.268.983" transform="translate(-1361.34 -229.421)" fill="#f3906b"/><path d="M1596.337,270.252c.1-.441.983.095.811.33a1.434,1.434,0,0,1-.419.309.666.666,0,0,0-.348.455c-.007.026-.021.1,0,.124.111.1.562-.3.661-.377a.738.738,0,0,0,.2-.7.463.463,0,0,0-.473-.4c-.21-.012-.427-.024-.446.231,0,.005,0,.048.009.026" transform="translate(-1367.089 -232.528)" fill="#e47a5d"/><path d="M1594.743,275.126c-.086-.106-.188-.039-.3.02a.429.429,0,0,0-.2.243,1.026,1.026,0,0,0,.024.76.588.588,0,0,0,.47.317c.282.024.4-.206.436-.435.011-.061.034-.207-.024-.252s-.123.047-.173.085a.406.406,0,0,1-.25.059.515.515,0,0,1-.4-.229.26.26,0,0,1-.034-.075c-.018.151-.014.185.012.1a.414.414,0,0,1,.066-.1c.078-.1.2-.156.282-.246.041-.042.126-.2.083-.25" transform="translate(-1365.254 -236.903)" fill="#e47a5d"/><path d="M1541.225,261.716l1.326.5s-1.79.107-1.859-.395c0,0,.271-.981.564-1.91,0,0-.229,1.736-.032,1.809" transform="translate(-1319.443 -223.844)" fill="#e47a5d"/><path d="M1560.521,256.866c0,.271.155.49.345.49s.344-.219.344-.49-.155-.49-.344-.49-.345.219-.345.49" transform="translate(-1336.425 -220.803)" fill="#23140a"/><path d="M1533.873,253.9c0,.271.155.49.345.49s.344-.219.344-.49-.154-.49-.344-.49-.345.219-.345.49" transform="translate(-1313.603 -218.252)" fill="#23140a"/><path d="M1557.011,249.451c-.124.025-.155-.136-.155-.136a.543.543,0,0,1,.009-.287.283.283,0,0,1,.147-.145,4.315,4.315,0,0,1,1.466.185c.291.084.763.293.793.552.009.077.017.211-.074.234a12.305,12.305,0,0,0-2.186-.4" transform="translate(-1333.273 -214.339)" fill="#23140a"/><path d="M1527.453,246.5a10.73,10.73,0,0,1,1.711.173c.112.056.186-.09.186-.09a.542.542,0,0,0,.073-.279.273.273,0,0,0-.1-.178,3.209,3.209,0,0,0-1.268-.192,2.576,2.576,0,0,0-.637.083,1.154,1.154,0,0,0,.036.483" transform="translate(-1308.067 -211.812)" fill="#23140a"/><path d="M1538.412,284.227c-.109,0-.167.048-.126.124a1.98,1.98,0,0,0,1.313.964,2.04,2.04,0,0,0,1.518-.634c.067-.071.008-.142-.126-.159,0,0-1.443-.178-2.578-.3" transform="translate(-1317.371 -244.789)" fill="#fff"/><path d="M1580.137,578.025a10.029,10.029,0,0,1,0,9.972c-3.015,5.271-12.222,3.349-12.249-3.477-.028-6.744,6.325-9.323,12.249-6.5" transform="translate(-1342.734 -496.845)" fill="#003980"/><path d="M1504.661,328.936a34.287,34.287,0,0,0-5.857.692c-1.748,1.234-1.949,4.184-1.325,6.028.716,2.117,1,4.818,1.718,7.879.972,4.148-.254,7.181.829,11.3.9,3.407,19.646,0,19.646,0l2.382-15.944s.875-4.377-3.229-5.834a57.618,57.618,0,0,0-7.292-3.225s.494,3.225-4.947,2.334c0,0-3.324-.775-1.926-3.23" transform="translate(-1282.16 -283.294)" fill="#781a3e"/><path d="M1530.516,500.479c.8,2.737,1.426,11.963,1.426,11.963-2.156,8.637-21.986,2.423-22.1,1.183-.14-1.483.468-8.542.779-14.651,0,0,8.341-2.882,19.9,1.5" transform="translate(-1293.002 -428.938)" fill="#781a3e"/><path d="M1611.4,370.584c1.294,2.542,6.1,15.376,7.64,17.4.41.539,4.368,3,5.26-.355-2.182-13.322-5.482-20.921-5.482-20.921s-3.854-3.105-6.933-.235c0,0-1.4,2.345-.485,4.106" transform="translate(-1379.735 -314.578)" fill="#f39672"/><path d="M1609.059,364.049a4.5,4.5,0,0,0,3.8,5.165,4.624,4.624,0,0,0,5.345-3.674,4.5,4.5,0,0,0-3.8-5.165,4.625,4.625,0,0,0-5.345,3.674" transform="translate(-1377.936 -310.316)" fill="#f39672"/><path d="M1605.71,355.1s3.987,1.444,4.93,4.57l2.46,8.507s-3.224,4.53-8.03,4.38l-4.747-10.189s-3.194-5.722,5.386-7.268" transform="translate(-1370.013 -305.831)" fill="#781a3e"/><path d="M1665.422,518.85a153.123,153.123,0,0,0,.3,19.26s.873,1.534,1.815.475,3.757-18.885,3.146-20.09c-1.57-3.1-5.26.355-5.26.355" transform="translate(-1426.113 -445.44)" fill="#f39672"/><path d="M1643.312,667.858l-1.719,1.6-2.51,1.4a1.387,1.387,0,0,0,1.757.236,26.072,26.072,0,0,0-.675,3.072c-.229.638.4.6.4.6a12.531,12.531,0,0,0,1.645-2.719,30.192,30.192,0,0,1-1.25,3.148c-.089.557.493.408.493.408,1.2-.662,1.643-3.143,1.643-3.143a17.523,17.523,0,0,1-.938,2.866c.132.386.327.259.327.259,1.038-.384,1.452-2.771,1.452-2.771l-.178.89c-.359,1.2.419.9.419.9l.289-.6a7.046,7.046,0,0,0,.631-3.509l.032-2.166Z" transform="translate(-1403.705 -575.189)" fill="#f39672"/><path d="M1261.783,437.261l1.115.5s-2.262-.461-2.587-1.4c0,0-.114-.179.258-.282a17.426,17.426,0,0,0,2.7.946,12.754,12.754,0,0,1-3.155-1.148s-.331-.545.341-.575c-.322-.339.149-.431.149-.431a8.063,8.063,0,0,1,1.423.125s1.49.218,3.269.277c0,0-.784-1.286-.048-1.669l1.322,1.763,1.1,1.777-.326,1.16-2.26.326a12.033,12.033,0,0,1-2.9-.557s-2.609-1.359-.4-.81" transform="translate(-1079.084 -373.437)" fill="#e28262"/><path d="M1605.754,831.231l5.157,31.054s1.709,1.59,5.673,0l.658-15.173s1.164-10.024-2.944-17.175c0,0-8.094-6.311-8.544,1.294" transform="translate(-1375.162 -712.661)" fill="#003980"/><path d="M1524.134,828.747s2.2,3.068.229,14.587l-2.014,15.73a5.531,5.531,0,0,1-4.921.061l-1.623-31.336s1.456-5.32,8.329.958" transform="translate(-1298.13 -711.116)" fill="#00315e"/><path d="M368.794,305.008c.405,2.848,1.44,3.591.516,6.561-.853,2.744-3.2,4.757-3.516,7.715-.223,2.1.339,5.521,1.782,7.213,2.093,2.456,6.863,1.074,9.583.649,3.1-.484,10-.694,11.909-3.644,1.448-2.238-.389-6.211-.981-8.5-.752-2.9-1.539-5.8-2.234-8.715-.631-2.65-1.428-7.082-3.593-9.05s-4.605-1.414-7.333-1.116c-3.269.356-6.639,5.328-6.133,8.884" transform="translate(-313.225 -254.773)" fill="#351709"/><path d="M298.612,1101.082c0,5.011-9.448,9.073-21.1,9.073s-21.1-4.062-21.1-9.073,9.448-9.072,21.1-9.072,21.1,4.062,21.1,9.072" transform="translate(-219.584 -940.487)" fill="#98a7d3"/><path d="M441.625,1128.748l.347-.062.346-2.807-.909-1.04Z" transform="translate(-378.02 -968.76)" fill="#401427"/><path d="M437.734,1123.26l.417.229-.065-4.6-.734-.161Z" transform="translate(-374.546 -963.5)" fill="#161c29"/><path d="M441.182,1102.589l.772,2.464a16.421,16.421,0,0,0,1.918,3.311s1.564,2.072-1.363,1.934c0,0-3.121-.161-3.074-2.1.041-1.664-1.541-3.729-1.541-3.729a1.64,1.64,0,0,1,.2-1.987l.541-.6,2.625-.442Z" transform="translate(-374.796 -948.613)" fill="#e28262"/><path d="M443.791,1111.874a4.022,4.022,0,0,1-3.4-.994,13.028,13.028,0,0,1-1.431-2.66c.128.389-.827-3.048-.572-3.585l-.541.6a1.711,1.711,0,0,0-.258,2.039s1.637,2.013,1.6,3.677c-.047,1.935,3.074,2.1,3.074,2.1,1.757.083,1.895-.63,1.725-1.214q-.093.026-.193.044" transform="translate(-374.546 -951.36)" fill="#161c29"/><path d="M455.5,1141.4s.44.805-.957.805c0,0-5.238-.322-5.235-2.5l0-1.752s.412,2.5,3.646,2.506c0,0,1.437,0,.695-.885Z" transform="translate(-384.78 -980.056)" fill="#161c29"/><path d="M421.041,369.809h6.865c-.312-.966-.959-3.466.041-5.167l-6.935-4.4s1.233,7.384.029,9.568" transform="translate(-360.553 -310.256)" fill="#f39672"/><path d="M421.81,365.641a2.986,2.986,0,0,0,2.161,1.841,7.494,7.494,0,0,0,3.486.25,5.091,5.091,0,0,1,.489-3.091l-6.935-4.4s.376,2.253.51,4.637c.094.254.185.509.289.763" transform="translate(-360.552 -310.256)" fill="#db765e"/><path d="M417.717,313.425l.364-1,.889-2.935a2.859,2.859,0,0,0,.016-1.558,4.565,4.565,0,0,1-.141-2.436,4.778,4.778,0,0,0-.662-4.065c-1.613-2.456-5.42-2.444-5.42-2.444a5.2,5.2,0,0,0-5.092,4.641c-.756,2.931,1.662,5.363,1.666,5.367a3.165,3.165,0,0,1,.487,1.188,3.635,3.635,0,0,0,.69,1.113,8.415,8.415,0,0,0,2.414,1.872,9.591,9.591,0,0,0,3.629.827c.48-.005.952,0,1.16-.572" transform="translate(-349.002 -257.503)" fill="#f39672"/><path d="M325.492,1132.361l.349.048,1.26-2.552-.515-1.267Z" transform="translate(-278.75 -971.991)" fill="#401427"/><path d="M323.273,1125.911l.319.346,1.465-4.375-.643-.38Z" transform="translate(-276.85 -965.886)" fill="#161c29"/><path d="M335.2,1111.921c-.069,2.054-.227,4.36.631,6.3,0,0,.793,2.448-1.933,1.409,0,0-2.9-1.119-2.216-2.937.591-1.564-.222-4.01-.222-4.01a1.669,1.669,0,0,1,.853-1.818l.712-.4h2.729Z" transform="translate(-283.825 -956.384)" fill="#f39672"/><path d="M335.345,1119a3.927,3.927,0,0,1-2.89-2,12.769,12.769,0,0,1-.472-2.963c-.008.407.229-3.143.648-3.573l-.712.4a1.743,1.743,0,0,0-.921,1.851s.881,2.414.29,3.978c-.687,1.817,2.216,2.937,2.216,2.937,1.636.623,2-.01,2.037-.615-.064,0-.13-.009-.2-.019" transform="translate(-283.434 -956.385)" fill="#161c29"/><path d="M337.2,1148.728s.15.9-1.174.466c0,0-4.854-1.928-4.13-3.987l.579-1.66s-.44,2.5,2.622,3.5c0,0,1.36.445.951-.624Z" transform="translate(-284.172 -984.872)" fill="#161c29"/><path d="M346.908,883.653c-3.481,6.211-4.1,8.739-4.716,13.462-.361,2.747-.241,14.317-.614,16.043-.155.716,2.658.323,2.658.323.514-1.21,8.71-27.8,8.71-27.8s.916-2.753.156-3.232c-3.821-2.405-4.677-1.508-6.194,1.2" transform="translate(-292.521 -758.804)" fill="#f39672"/><path d="M382.862,566.305s2.675,10.941,2.316,12.136c-1.034,3.442-11.119,11.466-19.871,4.422,0,0,1.8-12.27,6.641-18.129,0,0,1.527,1.524,10.913,1.572" transform="translate(-312.848 -486.373)" fill="#f39672"/><path d="M398.987,414.943s3.5,6.54,5.064,10.128c-.655,4.206-3.02,10.446-3.971,11.761-2.083,2.883-11.605.309-11.605.309l-2.745-8.855c8.013-2.78,3.793-10.939,3.793-10.939l1.256-.766s1.282,4.01,6.5,3.867c0,0,1.713-1.078.452-5.652a7.616,7.616,0,0,1,1.259.146" transform="translate(-330.337 -357.242)" fill="#4c3887"/><path d="M417.359,646.738s.921,17.65,4.3,27.142c.5,1.416,6.278-.465,6.278-.465s2.914-15.186,2.74-21.478c-.1-3.556-1.416-11.224-1.416-11.224s-10.83-1.368-11.9,6.025" transform="translate(-357.425 -551.724)" fill="#e28262"/><path d="M432.288,877.409l6.112-.4s-3.756,30.13-4.1,31.4c0,0-2.628.919-2.574.189.128-1.759-2.065-15.281-2.131-18.049-.108-4.447.073-7.256,2.689-13.134" transform="translate(-367.887 -755.317)" fill="#e28262"/><path d="M462.425,419.991a3.9,3.9,0,0,0,3.254,4.515c2.189.378,7.472.582,6.608-1.4-1.666-3.819-3.49-5.8-5.679-6.179a3.49,3.49,0,0,0-4.183,3.062" transform="translate(-395.965 -359.022)" fill="#e28262"/><path d="M475.791,439.468l1.84-3.5,4.17-.075s5.381,9.57,6.39,12.416c1.076,3.031-1.456,1.893-2.521,1.55,0,0-8.814-8.109-9.88-10.392" transform="translate(-407.466 -375.412)" fill="#e28262"/><path d="M544.59,526.562s3.44,4.2,5.733,5.208c0,0,2.361-1.554-3.048-6.221,0,0-1.981-1.866-2.685,1.014" transform="translate(-466.385 -452.114)" fill="#e28262"/><path d="M365.307,667.946s.07,17.657,2.481,27.421c.359,1.456,5.865,1.01,5.865,1.01s3.592-16.7,4.05-22.976c.259-3.549.993-9.759.993-9.759s-12.888-1.235-13.389,4.3" transform="translate(-312.848 -571.457)" fill="#f39672"/><path d="M373.494,418.91a3.991,3.991,0,0,0-1.373,4.968l5.3,12.449s8.6,2.827,10.686-.056c.951-1.315,1.831-4.806,2.987-9.839.785-3.421.837-9.4-1.155-11.166-1.15-1.02-4.869-1-4.9-1.121l-6.026,1.875Z" transform="translate(-318.369 -356.68)" fill="#f39672"/><path d="M384.1,561.949a16.638,16.638,0,0,1,3.259.961s1.981,8.158,2.094,9.4-8.716,7.661-18.578,4.005c0,0,4.981-11.35,5.708-13.723.836-2.725,7.517-.641,7.517-.641" transform="translate(-317.613 -483.319)" fill="#f39672"/><path d="M486.362,452.213s2.911,3.312,3.155,5.773c.136,1.37-1.654,3.664-2.55,4.51-.635.6-4.395-8-.605-10.283" transform="translate(-415.09 -389.466)" fill="#0b2150"/><path d="M398.955,307.842a8.239,8.239,0,0,1,.03-1.95c.05-.607,1.282.7,1.257-.089-.117-3.619,1.244-5.342,1.776-5.62a6.787,6.787,0,0,1,4.178-.766c1.894.325,1.822,2.762,1.822,2.762,1.614-8.92-8.681-6.069-8.681-6.069a5.508,5.508,0,0,0-4.5,5.838c-.615,4.9,4.192,7.734,4.192,7.734Z" transform="translate(-338.094 -254.649)" fill="#351709"/><path d="M414.151,361.431a1.033,1.033,0,0,1-.654.192,1.452,1.452,0,0,1-1.351-1.471,1.332,1.332,0,0,1,1.287-1.432,1.3,1.3,0,0,1,.9.4,1.734,1.734,0,0,1,.278,1.456,1.335,1.335,0,0,1-.463.856" transform="translate(-352.96 -308.946)" fill="#f3906b"/><path d="M417.779,362.322c-.044-.421-.924-.019-.792.218a1.321,1.321,0,0,0,.354.332.613.613,0,0,1,.271.46c0,.024.008.1-.018.114-.114.076-.488-.335-.569-.421a.685.685,0,0,1-.106-.673.436.436,0,0,1,.483-.315c.2.011.4.024.388.262,0,0-.009.044-.011.023" transform="translate(-357.011 -311.801)" fill="#e47a5d"/><path d="M418.169,366.992c.092-.089.179-.015.273.05a.4.4,0,0,1,.157.248.96.96,0,0,1-.109.7.557.557,0,0,1-.474.243c-.265-.007-.344-.234-.354-.451,0-.057-.008-.195.051-.231s.108.056.151.1a.383.383,0,0,0,.225.082.488.488,0,0,0,.394-.17.21.21,0,0,0,.041-.066c0,.142-.008.173-.024.1a.387.387,0,0,0-.05-.1c-.062-.1-.165-.165-.234-.259-.033-.043-.1-.2-.049-.241" transform="translate(-357.683 -316.035)" fill="#e47a5d"/><path d="M451.347,353.281c.025.252-.1.47-.275.487s-.34-.174-.366-.426.1-.47.274-.486.341.174.367.426" transform="translate(-385.98 -303.894)" fill="#341e13"/><path d="M476.565,349.76c.01.253-.126.463-.3.47s-.329-.194-.339-.447.127-.463.3-.469.329.193.339.446" transform="translate(-407.577 -300.845)" fill="#341e13"/><path d="M444.32,345.964a3.7,3.7,0,0,1,2.282-.636s.107-.005.078-.32c0,0-.008-.279-.239-.251,0,0-2.037-.131-2.121,1.208" transform="translate(-380.514 -296.916)" fill="#351709"/><path d="M473.768,341.57a3.084,3.084,0,0,0-2.036.074c-.23.033-.163.3-.163.3.058.311.163.289.163.289a3.716,3.716,0,0,1,1.981-.36c.041-.211.027-.193.055-.307" transform="translate(-403.842 -294.041)" fill="#351709"/><path d="M460.948,378.958l-2.579.461c-.136.025-.189.1-.117.172a2.067,2.067,0,0,0,1.578.566,1.985,1.985,0,0,0,1.254-1.078c.036-.081-.026-.128-.137-.12" transform="translate(-392.418 -326.374)" fill="#fff"/><path d="M464.32,362.054c1.351-.095,1.425-.437,1.425-.437l-.709-1.376s.163,1.376-.716,1.813" transform="translate(-397.642 -310.256)" fill="#e47a5d"/><path d="M540.68,518.37l-3.26,12.714a.26.26,0,0,1-.164.278l-5.765,2.322c-.3.049-.261-.222-.261-.222l3.26-12.646c0-.266.18-.305.18-.305l5.74-2.312s.271-.109.271.171" transform="translate(-454.942 -446.278)" fill="#192c5b"/><path d="M527.873,547.81l.56.363c-.1-.032-.11-.206-.11-.206l3.256-12.682-.488-.321-3.26,12.748a.108.108,0,0,0,.042.1" transform="translate(-452.032 -460.734)" fill="#203c7e"/><path d="M551.15,533.218a.3.3,0,0,0-.128.291l-.488-.318a.344.344,0,0,1,.136-.289Z" transform="translate(-471.474 -458.96)" fill="#203c7e"/><path d="M551.453,518.165a.19.19,0,0,1,.041-.026l5.74-2.316a.334.334,0,0,1,.331.016l.349.226a.179.179,0,0,1,.08.175s-.027-.177-.259-.1l-5.8,2.339Z" transform="translate(-472.262 -444.218)" fill="#a4dbf7"/><path d="M540.68,518.37l-3.26,12.714a.26.26,0,0,1-.164.278l-5.765,2.322c-.3.049-.261-.222-.261-.222l3.26-12.646c0-.266.18-.305.18-.305l5.74-2.312S540.68,518.09,540.68,518.37Z" transform="translate(-454.942 -446.278)" fill="none" stroke="#203c7e" stroke-miterlimit="10" stroke-width="0.59"/><path d="M569.1,553.641a4.453,4.453,0,0,1-1.133,1.424c-.565.432-1.509.3-1.872.616-.634.549-.184,2.033,1.152,3.52,1.159,1.291,2.013-.4,2.4-1.437a3.439,3.439,0,0,0-.119-3.46Z" transform="translate(-484.559 -476.82)" fill="#e28262"/><path d="M421.027,376.641a.447.447,0,1,1-.446-.431.439.439,0,0,1,.446.431" transform="translate(-359.801 -324.009)" fill="#fff"/><path d="M386.326,586.586a78.784,78.784,0,0,0-.768-8.145c-.122-1.994-2.471-12.136-2.471-12.136-9.387-.049-11.5-1.572-11.5-1.572a43.99,43.99,0,0,0-5.239,13.485,30.554,30.554,0,0,0-.758,7.661c.113,3.512.254,7.019.514,10.525.045.616.39,6.924.688,6.951,0,0,15.745,1.582,18.479-5.3a78.981,78.981,0,0,0,1.06-11.471" transform="translate(-313.073 -486.373)" fill="#bd2f64"/><path d="M389.535,437.142s9.793,2.916,11.877.032c.95-1.315,3.045-7.9,3.7-12.1-1.563-3.588-5.064-10.128-5.064-10.128a7.614,7.614,0,0,0-1.26-.146c1.261,4.574-.452,5.652-.452,5.652-5.215.143-6.5-3.867-6.5-3.867l-1.256.766s3.885,7.8-3.613,11.363c0,0-.18,8.365,2.565,8.431" transform="translate(-331.398 -357.242)" fill="#0b2150"/><path d="M353.61,452.033a3.915,3.915,0,0,1-3.432,4.39c-2.2.3-8.035-.256-6.789-2.036,2.45-3.5,3.961-5.274,6.163-5.57a3.48,3.48,0,0,1,4.057,3.216" transform="translate(-293.93 -386.507)" fill="#f39672"/><path d="M302.724,470.414l-1.7-3.565-4.164-.231s-9.311,9.24-10.434,12.046c-1.2,2.989,1.379,1.946,2.457,1.643,0,0,12.683-7.651,13.839-9.893" transform="translate(-245.03 -401.872)" fill="#f39672"/><path d="M287.213,546.69a65.944,65.944,0,0,0,8.85,10.546s2.008-.122,1.413-1.2c-1.01-1.829-5.131-10.37-6.154-12.206-.575-1.031-4.109,2.859-4.109,2.859" transform="translate(-245.968 -468.222)" fill="#f39672"/><path d="M350.607,629.31l2.273.709,1.05-1.227a5.7,5.7,0,0,0,.369,2.373,27.281,27.281,0,0,1,2.007,2.471c.5.475-.085.709-.085.709a13.127,13.127,0,0,1-2.716-1.741,31.735,31.735,0,0,0,2.557,2.295c.335.461-.256.575-.256.575-1.382-.082-2.907-2.122-2.907-2.122a18.249,18.249,0,0,0,2.149,2.174c.058.4-.176.371-.176.371-1.106.1-2.567-1.87-2.567-1.87l.567.723c.868.923.034.987.034.987l-.532-.414a7.269,7.269,0,0,1-2.165-2.883l-1.017-1.931Z" transform="translate(-299.048 -541.543)" fill="#f39672"/><path d="M377.518,302.922c-3.111,1.647-4.866,3.162-4.059,6.819.728,3.3.976,5.1-.906,8.046-1.766,2.763-1.925,4.34-.4,7.3,1.221,2.378,2.422,4.661-.639,6.089-5.777,2.7-11.148-1.73-8.982-7.774.971-2.71,3.33-4.556,4.453-7.16,1.137-2.638.041-4.886-.2-7.553-.406-4.46,5.9-10.938,9.868-6.616a7.8,7.8,0,0,1,.869,1.238Z" transform="translate(-310.049 -258.935)" fill="#351709"/><path d="M642.764,1132.36v14.323c0,19.534,28.743,35.366,64.2,35.366s64.194-15.832,64.194-35.366V1132.36Z" transform="translate(-550.461 -975.238)" fill="#6d1e3a"/><path d="M706.959,948.223c-35.452,0-64.2-15.832-64.2-35.366s28.743-35.364,64.2-35.364,64.194,15.835,64.194,35.364-28.739,35.366-64.194,35.366" transform="translate(-550.461 -755.735)" fill="#bd2f64"/><path d="M788.222,987.309c-27.927,0-50.569-12.471-50.569-27.859s22.641-27.857,50.569-27.857,50.567,12.473,50.567,27.857-22.639,27.859-50.567,27.859" transform="translate(-631.724 -802.329)" fill="#fff"/><path d="M861.435,1022.525c-21.147,0-38.292-9.443-38.292-21.095s17.145-21.094,38.292-21.094,38.291,9.445,38.291,21.094-17.142,21.095-38.291,21.095" transform="translate(-704.937 -844.308)" fill="#bd2f64"/><path d="M939.957,1060.292c-13.876,0-25.125-6.2-25.125-13.842s11.249-13.841,25.125-13.841,25.125,6.2,25.125,13.841-11.248,13.842-25.125,13.842" transform="translate(-783.459 -889.329)" fill="#fff"/><path d="M1014.037,1095.926c-7.016,0-12.7-3.133-12.7-7s5.687-7,12.7-7,12.7,3.133,12.7,7-5.687,7-12.7,7" transform="translate(-857.539 -931.805)" fill="#bd2f64"/><path d="M1064.176,1120.042c-2.372,0-4.3-1.059-4.3-2.366s1.923-2.366,4.3-2.366,4.3,1.06,4.3,2.366-1.923,2.366-4.3,2.366" transform="translate(-907.678 -960.553)" fill="#6d1e3a"/><path d="M1089.791,525.617v-26.94l12.9-6.546v25.681Z" transform="translate(-933.293 -423.845)" fill="#256cb4"/><path d="M1012.869,525.617v-26.94l-12.9-6.546v25.681Z" transform="translate(-856.371 -423.845)" fill="#2ca1df"/><line y2="84.263" transform="translate(156.498 73.447)" fill="none" stroke="#005b9c" stroke-miterlimit="10" stroke-width="32.661"/><path d="M1450.251,1137.026s-.549-1.382,1.354-1.883a24.2,24.2,0,0,0,6.744,2.44c4.659,1.513,14.252-.416,18.617-1.292,4.9-.984,7.173,4.372,2.472,6.125-8.8,3.28-22.746-.284-29.235-5.214" transform="translate(-1241.927 -977.634)" fill="#f3906b"/><path d="M1749.525,1351.913c-1.959-8.843-2.546-29.323-2.546-29.323s1.57-2.014,7.223-2.366c5.669-.353,5.278,3.013,5.251,2.576a184.134,184.134,0,0,1-2.6,28.766s-4.031,2.688-7.328.347" transform="translate(-1496.107 -1137.011)" fill="#002d58"/><path d="M1710.141,1277.6c.557-3.659-.6-7.35-1.193-11.048h-17.217c-1.1,3.547-2.247,7.189-2.247,7.189s-.737,8.389,6.637,9.394c0,0,12.849,2.152,14.019-5.534" transform="translate(-1446.851 -1090.812)" fill="#006d97"/><path d="M1549.561,1727.134c0,7.053-13.3,12.77-29.7,12.77s-29.7-5.717-29.7-12.77,13.3-12.77,29.7-12.77,29.7,5.717,29.7,12.77" transform="translate(-1276.162 -1476.484)" fill="#98a7d3"/><path d="M1542.264,1777.834l.981-.055c.334-.05.332.458.377.476a10.909,10.909,0,0,0,2.323.712s1.815-.228,2.009-.759l-.257-3.254c-2.022-.164-4.133-.542-4.133-.542l-4.445-.6c-2.14-.215-2.528.532-2.528.532s-1.31,1.889,5.672,3.494" transform="translate(-1315.849 -1527.647)" fill="#191818"/><path d="M1544.962,1779.681a5.43,5.43,0,0,0-1.149-.362c-2.193-.371-4.338-.581-6.163-1.943a1.734,1.734,0,0,1-.792-1.239.771.771,0,0,0-.265.242s-1.31,1.89,5.672,3.494l.981-.055c.334-.05.332.458.377.476a10.953,10.953,0,0,0,2.323.712s1.815-.228,2.009-.759l-.063-.793a3.614,3.614,0,0,1-2.93.227" transform="translate(-1315.849 -1529.686)" fill="#100f0f"/><path d="M1749.053,1772.027l.981-.055c.334-.05.332.458.377.475a10.96,10.96,0,0,0,2.322.712s1.815-.227,2.009-.759l-.255-3.253c-2.023-.164-4.134-.542-4.134-.542l-4.445-.6c-2.139-.216-2.527.532-2.527.532s-1.31,1.89,5.672,3.494" transform="translate(-1492.942 -1522.645)" fill="#191818"/><path d="M1751.752,1773.874a5.457,5.457,0,0,0-1.15-.362c-2.193-.371-4.337-.581-6.163-1.943a1.735,1.735,0,0,1-.792-1.24.772.772,0,0,0-.265.243s-1.31,1.889,5.672,3.493l.981-.055c.334-.05.332.458.377.475a10.925,10.925,0,0,0,2.322.711s1.815-.227,2.009-.759l-.062-.792a3.613,3.613,0,0,1-2.929.227" transform="translate(-1492.942 -1524.684)" fill="#100f0f"/><path d="M1767.4,1561.88c-.728-.84-3.118-31.689-3.118-31.689-.4-4.742,7.765-2.751,7.765-2.751,1.188,4.721,1,5.61,1.37,11.468.148,2.314-.234,21.478-.146,22.951,0,0-3.787,2.425-5.871.02" transform="translate(-1510.915 -1315.14)" fill="#002d58"/><path d="M1725.395,1290.761s-4.9,8.061-1.885,13.332,15.721-.466,14.939-6.569c-.856-6.693-7.131-9.591-13.054-6.763" transform="translate(-1475.167 -1110.73)" fill="#1a3c76"/><path d="M1693.687,1211.874c-.8,2.736-4.078,13.178-4.078,13.178,9,8.2,20.607,1.7,20.725.459.14-1.483-1.573-7.147-1.885-13.256,0,0-3.2-4.767-14.761-.38" transform="translate(-1446.974 -1042.12)" fill="#f39672"/><path d="M1642.631,1333.912c.955-9,7.587-31.946,7.587-31.946s1.938-1.725,7.429-.377,6.1,8.274,6.213,7.849a208.276,208.276,0,0,1-14.89,27.324s-4.107,2.032-6.339-2.85" transform="translate(-1406.743 -1120.542)" fill="#1a3c76"/><path d="M1584.945,1558.3c.161-1.084,8.441-33.317,8.441-33.317,1.949-3.975,7.546.21,7.546.21a33.208,33.208,0,0,1-2.027,11.931c-.761,2.2-7.8,22.1-8.29,23.5,0,0-4.16,1.274-5.67-2.326" transform="translate(-1357.341 -1311.907)" fill="#1a3c76"/><path d="M1819.948,1062.271s.89,14.477.323,20.322c0,0,0,2.656-4.842,3.988,0,0-1.761-16.119-3.194-23.315,0,0,2.859-5.337,7.714-1" transform="translate(-1551.99 -913.409)" fill="#e28262"/><path d="M1814.122,1055.16a3.971,3.971,0,0,0,5.129-1.973,3.69,3.69,0,0,0-2.063-4.914,3.973,3.973,0,0,0-5.13,1.974,3.689,3.689,0,0,0,2.064,4.913" transform="translate(-1551.571 -902.558)" fill="#e28262"/><path d="M1810.6,1043.3a5.023,5.023,0,0,1,3.728,4.757l.573,14.27a14.213,14.213,0,0,1-8.115,1.882s-5.283-19.057,3.814-20.909" transform="translate(-1546.02 -898.538)" fill="#ffb500"/><path d="M1746.466,978.01s-.031,5.1-.492,10.173l6.958-1.114a4.826,4.826,0,0,1,.416-4.391Z" transform="translate(-1495.246 -842.305)" fill="#f39672"/><path d="M1703.313,1038.567c1.747,1.234,1.948,4.184,1.325,6.027-.717,2.117-1,4.818-1.719,7.88-.972,4.147-1.631,7.343-2.714,11.462-.9,3.407-15.065.662-15.065.662l-5.079-16.768s-.874-4.377,3.23-5.834a62.4,62.4,0,0,1,7.489-3.291,14.087,14.087,0,0,1,6.676-.83,34.275,34.275,0,0,1,5.857.692" transform="translate(-1438.732 -893.802)" fill="#f39672"/><path d="M1689.9,1287.4a10.028,10.028,0,0,0,0,9.972c3.015,5.271,12.221,3.349,12.249-3.477.027-6.744-6.325-9.323-12.249-6.5" transform="translate(-1446.073 -1107.793)" fill="#1a3c76"/><path d="M1697.456,1038.315a34.259,34.259,0,0,1,5.857.693c1.819,1.284,1.787,3.8,1.436,5.713-.671,3.648-1.351,7.334-1.7,11.025-.156,1.636-.577,4.964-.7,6.6a3.5,3.5,0,0,1-2.325,3.3c-1.279.638-2.229.132-3.622.168a72.666,72.666,0,0,1-10.552-.7c-.148-.017-5.627,3.555-3.824.926l-1.96-17.773s-.874-4.377,3.23-5.834a33.548,33.548,0,0,1,6.052-2.782s5.5.135,8.113-1.339" transform="translate(-1438.732 -894.242)" fill="#ffb500"/><path d="M1726.894,926.482l-.3-1.107-.7-4.081a3.977,3.977,0,0,1,.132-1.681,4.012,4.012,0,0,0,.216-1.722,4.927,4.927,0,0,1,1.291-4.375c1.972-2.5,6.073-2.154,6.075-2.153a6.462,6.462,0,0,1,5.043,3.035,7.429,7.429,0,0,1,.913,5.673,11.455,11.455,0,0,1-3.429,5.182c-1.022.944-2.066,1.06-3.4,1.533a14.311,14.311,0,0,1-3.7.527c-.52,0-1.964-.195-2.135-.831" transform="translate(-1478.015 -784.891)" fill="#f3906b"/><path d="M1733.215,909.786l.654,2.534c.745.315,1.045.594.942,1.542l-.237,2.093.59.219c-.049-.838,1.154-.85,1.154-.85.879-.048,1.029.675.979,1.373-.13,1.811.552,4.687,2.123,5.193.62.2,1.791.408,1.986-.4.24-.993,2.187-2.965,2.187-2.965a8.293,8.293,0,0,0,1.819-8.776,6.9,6.9,0,0,0-1.679-2.4,9.214,9.214,0,0,0-5.229-2.254s-2.666-.314-4.164.7a8.534,8.534,0,0,0-1.936,1.711,1.907,1.907,0,0,0,.811,2.281" transform="translate(-1483.525 -779.465)" fill="#351709"/><path d="M1750.993,980.365a1.1,1.1,0,0,0,.684.248,1.562,1.562,0,0,0,1.546-1.482,1.416,1.416,0,0,0-1.273-1.613,1.4,1.4,0,0,0-.992.366,1.859,1.859,0,0,0-.4,1.536,1.416,1.416,0,0,0,.435.945" transform="translate(-1499.155 -841.88)" fill="#f3906b"/><path d="M1757.747,981.391c.076-.446.988.041.829.285a1.418,1.418,0,0,1-.4.331.662.662,0,0,0-.322.473c0,.026-.015.1.011.124.116.089.544-.325.637-.412a.737.737,0,0,0,.161-.711.467.467,0,0,0-.495-.369c-.212,0-.427,0-.432.255,0,.005.007.048.01.025" transform="translate(-1505.319 -844.976)" fill="#e47a5d"/><path d="M1756.57,986.311c-.092-.1-.19-.028-.295.036a.427.427,0,0,0-.186.255,1.024,1.024,0,0,0,.068.757.59.59,0,0,0,.488.291c.283.009.384-.227.409-.458.007-.062.022-.209-.038-.25s-.12.053-.168.094a.407.407,0,0,1-.246.072.519.519,0,0,1-.409-.207.259.259,0,0,1-.038-.073q-.014.227.018.1a.4.4,0,0,1,.061-.1c.072-.1.188-.166.268-.261.038-.044.114-.2.068-.254" transform="translate(-1503.873 -849.411)" fill="#e47a5d"/><path d="M1421.476,1117.244c.605-.212.514-.608,1.118-.212.689.451,1.533.553,1.98.886.778.581,3.271,3.367.006,3.611-.76.058-3.407.848-3.949-.318-.8-1.724-.544-1.116,0-3.256Z" transform="translate(-1216.187 -961.891)" fill="#f39672"/><path d="M1680.7,1079.295a4.126,4.126,0,0,1-1.312,5.817,4.448,4.448,0,0,1-6.019-1.266,4.126,4.126,0,0,1,1.311-5.818,4.449,4.449,0,0,1,6.02,1.267" transform="translate(-1432.478 -927.869)" fill="#f39672"/><path d="M1684.958,1193.5c-.565,5.741-.931,19.8-.931,19.8,2.108,5.436,22.219.848,22.335-.391.14-1.483-.271-11.929-.582-18.039a24.975,24.975,0,0,0-20.823-1.367" transform="translate(-1442.195 -1026.471)" fill="#ffb500"/><path d="M1630.245,1066.778c-4.091-1.321-8.079,3.761-8.079,3.761l-8.127,6.867s2.059,7.15,5.816,8.186c0,0,9.317-4.715,12.509-10.167,0,0,2.344-3.156-2.118-8.647" transform="translate(-1382.257 -918.567)" fill="#ffb500"/><path d="M1719.241,897.67c.6.466,1.361.16,2.045.007.933,1.057-.184,2.114,1.229,2.626a16.155,16.155,0,0,0,2.684.478c.662.1,1.332-.045,1.8.433.513.517.027,2.128.633,2.437,1.059.54,1.89-2.26,3.239-2.038,1.151.189,1.355,1.954.952,2.823a1.371,1.371,0,0,1,.3-.2c.549-1.383,1.25-1.407,1.855-2.39a3.914,3.914,0,0,0,.967-2.624c0-.013-.185-.641-.187-.649-.441-1.558-1.194-1.823-1.556-2.484a13.2,13.2,0,0,0-1.461-1.8,18.078,18.078,0,0,0-1.2-1.835,5.707,5.707,0,0,0-3.158-1.292c-1.165-.148-2.274.551-3.429.355-.474-.081-.917-.5-1.393-.47-.579.032-.981.587-1.482.8-.931.4-2.4.241-3.194.875a1.812,1.812,0,0,0-.148,2.569c.3.481.919.757,1.193,1.257.076.138.282,1.1.3,1.116" transform="translate(-1470.679 -767.408)" fill="#351709"/><path d="M1413.544,1105.3l-3.913-2.06s-.86.778,3.2,2.881Z" transform="translate(-1207.137 -950.156)" fill="#f39672"/><path d="M864.461,1617.513l19.578-7.961a9.47,9.47,0,0,1,1.531,1.123c.916,1.165-.265,2.753,1.27,3.754,1.891,1.232,6.541.962,10.388-.6q.161-.066.317-.132c3.615-1.558,5.065-3.733,3.227-4.93-1.175-.766-3.2-.717-4.848-1.011a11.065,11.065,0,0,1-2.419-.681,8.577,8.577,0,0,1-1.32-.831l19.6-7.969,36.919,24.071-47.325,19.242-15.273-9.959c.06-.028.123-.055.189-.083a18.759,18.759,0,0,1,2.016-.715c2.278-.483,5.359.1,7.327-.7,2.411-1.038,1.919-3.392-1.048-5.327-3-1.956-7.4-2.745-9.82-1.76-1.5.647-1.445,1.667-2.027,2.5a4.4,4.4,0,0,1-1.354,1.251c-.072.042-.348.176-.7.327-.288.123-.626.258-.94.361Z" transform="translate(-740.321 -1376.501)" fill="#98a7d3"/><path d="M1071.612,1588.442a1.359,1.359,0,0,0-.713-1.126,2.491,2.491,0,0,0-.241-.137c-.026-.013-.053-.025-.08-.038-.06-.028-.122-.055-.186-.08l-.046-.02c-.014,0-.028-.008-.042-.014-.1-.037-.205-.072-.313-.1h-.007c-.11-.031-.222-.057-.337-.084l-.038-.009-.048-.009c-.135-.028-.273-.053-.414-.076l-.011,0-.035-.005c-.145-.023-.292-.043-.44-.062l-.047-.006c-.156-.02-.312-.037-.47-.054l-.028,0-.381-.042c-.149-.016-.3-.033-.447-.052l-.082-.01q-.218-.028-.43-.06c-.073-.012-.147-.023-.219-.036-.148-.026-.3-.056-.445-.088l-.08-.017c-.109-.024-.216-.048-.323-.074l-.008,0c-.109-.027-.215-.055-.321-.084l-.1-.03c-.073-.02-.146-.043-.218-.066l-.1-.034c-.074-.024-.146-.05-.217-.077l-.082-.03q-.137-.052-.265-.109a7.647,7.647,0,0,1-1.182-.744l.087,9.518a7.622,7.622,0,0,0,1.182.745c.084.037.174.073.265.108a.109.109,0,0,1,.019.008l.062.021c.072.026.145.053.219.078l.1.033.223.068.063.018.031.008c.107.03.214.059.324.086h0c.109.027.22.053.331.077l.031.007.045.009c.149.032.3.062.448.088l.184.031.036.005c.141.022.283.042.428.06l.086.011c.145.018.291.035.439.052h0l.289.032.117.013c.159.018.319.036.476.056l.037.005c.15.019.3.04.445.063l.047.007c.14.023.278.049.413.076l.087.018c.115.026.229.053.337.084s.215.066.319.1l.088.033c.064.026.126.053.186.081.027.012.053.024.079.037.084.043.165.088.241.136a1.36,1.36,0,0,1,.714,1.126Z" transform="translate(-910.532 -1365.12)" fill="#2d3a61"/><path d="M909.382,1672.018l.1-.022c.046-.01.091-.02.137-.029l.114-.019.1-.016.073,7.976,13.669,8.913-.087-9.518-11.322-7.383c.166.019.332.042.5.069l.115.019c.063.01.125.02.188.033l.135.026.179.036.126.027c.1.021.195.045.292.068l.081.02c.121.03.243.063.364.1l.07.02c.167.048.334.1.5.154l.025.009c.166.054.33.114.494.175l.04.016c.187.071.373.147.557.227l.027.011q.28.122.551.258l.018.009c.183.092.363.188.539.289l.009,0c.179.1.353.208.522.319,1.509.984,2.3,2.088,2.311,3.029q-.044-4.76-.087-9.518c-.009-.941-.8-2.046-2.311-3.03q-.254-.166-.522-.319l-.01-.006q-.263-.15-.538-.288l-.019-.009c-.18-.09-.363-.177-.55-.258l-.027-.012q-.275-.12-.557-.227l-.011,0-.029-.01c-.165-.062-.332-.122-.5-.177l-.019-.006c-.168-.055-.336-.106-.5-.155l-.039-.012-.025-.007c-.122-.035-.245-.067-.368-.1l-.075-.017c-.1-.025-.2-.048-.3-.07l-.056-.013-.063-.013-.188-.038-.13-.025-.189-.033-.092-.016-.023,0c-.169-.026-.338-.05-.5-.069l-.039,0-.03,0q-.219-.023-.435-.038l-.036,0-.047,0q-.4-.024-.783-.015c-.015,0-.031,0-.046,0l-.04,0c-.124,0-.246.01-.365.019h-.008l-.021,0c-.126.011-.248.024-.369.041-.013,0-.026,0-.039,0l-.028,0-.147.024-.1.018-.15.031-.079.017-.011,0c-.107.024-.21.053-.311.084l-.069.022c-.1.032-.2.067-.3.105-.076.033-.146.067-.214.1l-.058.033-.072.038-.056.036-.073.045c-.037.024-.072.05-.106.075l-.06.044-.021.016c-.041.032-.079.066-.115.1l-.013.012c-.029.028-.058.055-.085.083l-.023.026-.038.042c-.025.029-.05.06-.073.09l-.032.042a.244.244,0,0,0-.017.023c-.011.015-.021.031-.032.047s-.04.058-.058.087l-.041.069c-.017.029-.034.058-.049.087-.005.01-.012.02-.017.03s-.011.023-.017.034c-.027.051-.052.1-.076.153l-.016.033-.093.206c-.023.052-.047.105-.07.157-.009.021-.018.04-.027.06-.029.063-.059.125-.092.187-.017.032-.036.065-.054.1-.009.015-.017.031-.026.046-.028.047-.057.094-.09.14-.02.029-.042.057-.063.087s-.064.083-.1.126l-.044.054c-.046.054-.093.108-.143.161l-.012.013q-.08.083-.168.166l-.052.047c-.043.038-.087.077-.133.115l-.069.054c-.046.036-.093.071-.141.106l-.067.048c-.072.049-.145.1-.222.143l-.024.014-.011.006-.031.017-.017.008-.037.018-.026.013-.04.019-.036.017-.04.019-.047.022-.045.02-.05.023-.071.032-.034.015-.113.049c-.258.111-.56.232-.841.323l-13.685-8.923.086,9.518,13.686,8.923c.281-.092.583-.212.841-.323l.212-.094,0,0,.089-.041.007,0,.063-.029.025-.012.046-.022.029-.014.034-.018.029-.014.024-.012.025-.013.016-.009.016-.009,0,0c.078-.045.151-.094.223-.144l.064-.046c.05-.035.1-.071.144-.108l.035-.026.032-.027c.046-.038.09-.075.132-.114l.054-.049c.058-.054.114-.109.167-.164l0,0,.012-.013q.074-.079.141-.159l.045-.055c.033-.041.065-.083.1-.124l.026-.033.038-.054c.032-.047.062-.093.09-.14l.029-.052c.016-.028.033-.057.048-.085l0,0c.032-.062.063-.125.093-.188l.026-.058.07-.156c.031-.069.061-.139.094-.208,0-.01.009-.019.014-.029.025-.053.051-.1.078-.157l.032-.061c.016-.03.033-.06.051-.09l.039-.067c.019-.03.039-.06.059-.089s.031-.046.048-.069l.033-.043c.023-.03.048-.058.073-.088.013-.014.025-.029.039-.044.034-.037.069-.072.106-.108l.014-.014c.042-.039.088-.077.136-.115l.059-.044c.034-.026.07-.051.108-.075l.071-.045c.041-.025.084-.05.129-.075l.058-.031c.068-.035.138-.069.214-.1.095-.039.194-.073.295-.105l.069-.022c.1-.031.2-.059.31-.083" transform="translate(-762.574 -1427.735)" fill="#2f3672"/><path d="M1162.876,1688.909l.087,9.518-42.354,17.221-.087-9.518Z" transform="translate(-959.611 -1454.561)" fill="#3d4794"/><path d="M890.445,1550.88l17.521-7.124a8.421,8.421,0,0,1,1.37,1c.819,1.042-.237,2.464,1.136,3.36,1.692,1.1,5.853.862,9.3-.539.1-.039.191-.078.284-.118,3.235-1.394,4.532-3.341,2.888-4.412-1.051-.686-2.863-.642-4.339-.9a9.976,9.976,0,0,1-2.165-.61,7.7,7.7,0,0,1-1.182-.744l17.543-7.132,33.041,21.542-42.354,17.221-13.669-8.913c.054-.024.11-.05.169-.075a16.853,16.853,0,0,1,1.8-.639c2.038-.433,4.8.093,6.557-.623,2.158-.929,1.718-3.035-.938-4.767-2.685-1.751-6.62-2.457-8.788-1.574-1.346.579-1.293,1.49-1.814,2.237a3.928,3.928,0,0,1-1.213,1.119c-.064.037-.311.158-.622.292-.258.111-.56.232-.841.324Z" transform="translate(-762.574 -1320.854)" fill="#4860a8"/><path d="M162.678,1478.31c-1.174-.767-3.2-.718-4.847-1.011a11.1,11.1,0,0,1-2.42-.682,8.492,8.492,0,0,1-1.321-.832l19.6-7.97-15.273-9.958c.062-.029.128-.058.2-.088a18.443,18.443,0,0,1,2.008-.711c2.277-.484,5.358.1,7.406-.73,2.332-1,1.84-3.358-1.129-5.292-3-1.957-7.4-2.745-9.892-1.729-1.429.616-1.372,1.635-1.954,2.469a4.383,4.383,0,0,1-1.355,1.251c-.072.042-.347.177-.695.327-.289.125-.626.258-.94.361l-15.291-9.971-47.325,19.242,36.919,24.07,19.58-7.96a9.477,9.477,0,0,1,1.529,1.123c.915,1.164-.265,2.753,1.269,3.754,1.891,1.232,6.541.962,10.388-.6.108-.043.215-.089.319-.133,3.614-1.558,5.061-3.732,3.225-4.929" transform="translate(-76.603 -1243.416)" fill="#98a7d3"/><path d="M587.617,1445.86c0,.023,0,.046,0,.07s0,.049,0,.074,0,.041-.007.06-.005.048-.009.072-.009.046-.014.069-.007.035-.011.052-.013.047-.02.07-.009.034-.015.05l-.011.029a1.526,1.526,0,0,1-.083.19l0,0a1.64,1.64,0,0,1-.109.173l-.019.029a1.929,1.929,0,0,1-.134.16l-.041.043c-.016.016-.031.031-.047.046s-.037.034-.056.051l-.053.046-.05.039c-.03.023-.063.046-.095.07l-.052.035c-.035.023-.072.046-.109.068l-.049.03c-.032.018-.066.036-.1.053l-.056.031c-.054.026-.11.052-.168.077a4.625,4.625,0,0,1-.7.217q-.291.068-.6.11t-.6.065c-.284.022-.574.035-.868.043-.643.018-1.3.012-1.942.029-.289.008-.574.021-.851.043l.087,9.519c.278-.022.563-.035.851-.043.641-.018,1.3-.013,1.942-.03.294-.008.584-.021.868-.043.2-.016.4-.038.6-.065s.406-.065.6-.11a4.5,4.5,0,0,0,.7-.218q.087-.037.169-.078l.046-.025c.037-.019.075-.039.111-.06l.011-.005.032-.02c.039-.023.077-.047.114-.071l.051-.035c.033-.023.064-.046.095-.07.009-.007.02-.014.029-.021l.022-.018.052-.045c.019-.017.038-.033.056-.05l.047-.046c.009-.01.02-.02.029-.028l.012-.015a1.659,1.659,0,0,0,.134-.161l.008-.01.011-.017a1.524,1.524,0,0,0,.109-.175h0v0a1.637,1.637,0,0,0,.084-.192l.006-.016,0-.011c.006-.019.012-.038.017-.057s.012-.041.018-.063.008-.039.013-.057.008-.031.01-.047,0-.011,0-.018c0-.025.007-.051.01-.077s0-.036.006-.054,0-.056,0-.085c0-.014,0-.028,0-.041v-.018Z" transform="translate(-497.349 -1245.237)" fill="#6d1e3a"/><path d="M561.515,1461.827l-.01,0a16.824,16.824,0,0,0-1.788.635c-.061.026-.12.052-.176.079l.087,9.518c.056-.026.114-.052.176-.079a17.122,17.122,0,0,1,1.787-.635l.011,0c.154-.033.314-.061.476-.083.194-.026.392-.047.595-.063l-.087-9.519q-.3.024-.6.063c-.163.023-.321.05-.476.083" transform="translate(-479.189 -1258.862)" fill="#6d1e3a"/><path d="M402.227,1541.639l-.086-9.519-17.543,7.133.072,7.921a8,8,0,0,1-4.855-.594,1.68,1.68,0,0,1-.774-1.548c0-.157,0-.314,0-.47a2.059,2.059,0,0,0-.358-1.341,8.441,8.441,0,0,0-1.368-1.005l-17.523,7.125.087,9.519,17.523-7.125a8.352,8.352,0,0,1,1.368,1.005,1.908,1.908,0,0,1,.355,1.194c0,.157,0,.314,0,.471a1.763,1.763,0,0,0,.777,1.695c1.693,1.1,5.854.861,9.3-.538l.286-.119c2.29-.988,3.609-2.252,3.6-3.286q-.03-3.386-.061-6.774Z" transform="translate(-308.12 -1319.529)" fill="#922b58"/><path d="M568.144,1458.03l.087,9.518c-1.833.747-4.59.221-6.628.654a16.785,16.785,0,0,0-1.8.636l-.176.079-.086-9.518c.055-.026.115-.052.176-.079a16.558,16.558,0,0,1,1.8-.637c2.037-.432,4.795.093,6.628-.653" transform="translate(-479.19 -1255.719)" fill="#6d1e3a"/><path d="M162.747,1522.518l-33.04-21.543.087,9.519,33.04,21.542Z" transform="translate(-111.081 -1292.705)" fill="#6d1e3a"/><path d="M195.244,1407.8c-1.05-.686-2.863-.643-4.338-.9a9.925,9.925,0,0,1-2.166-.61,7.626,7.626,0,0,1-1.182-.744l17.543-7.133-13.669-8.912c.055-.027.115-.052.176-.079a16.588,16.588,0,0,1,1.8-.637c2.037-.433,4.795.093,6.628-.653,2.087-.9,1.647-3.006-1.01-4.736-2.685-1.752-6.62-2.457-8.853-1.548-1.279.551-1.228,1.463-1.749,2.21a3.937,3.937,0,0,1-1.213,1.12c-.064.038-.311.158-.622.292-.258.111-.56.231-.842.324l-13.685-8.923-42.354,17.221,33.04,21.542,17.524-7.125a8.456,8.456,0,0,1,1.368,1.005c.819,1.042-.237,2.463,1.137,3.359,1.691,1.1,5.853.861,9.3-.538.1-.039.192-.08.286-.12,3.235-1.394,4.529-3.34,2.886-4.411" transform="translate(-111.081 -1185.818)" fill="#bd2f64"/><path d="M478.928,1782.726c0,5.011,9.448,9.072,21.1,9.072s21.1-4.062,21.1-9.072-9.448-9.073-21.1-9.073-21.1,4.062-21.1,9.073" transform="translate(-410.152 -1527.547)" fill="#98a7d3"/><path d="M643.872,1825.2s2.239-.4,1.609,1.369c0,0-5.226,2.169-8.876,1.681a2.241,2.241,0,0,1-2.163-2.773l-.043-2.186,3.441.63-.2,2.077Z" transform="translate(-543.296 -1570.294)" fill="#e28262"/><path d="M630.964,1835.823a1.369,1.369,0,0,0,.343.937c.9,1,2.671,1.033,3.918.957a43.734,43.734,0,0,0,5.962-.806c.427-.087.545-.222.549-.343a1.73,1.73,0,0,0-1.341-1.022l1.906-.235a4.937,4.937,0,0,1,2.967.586c.487,1.344-1.883,2.241-1.883,2.241a39.612,39.612,0,0,1-5.549,1.5s-6.69,1.524-7.5-.464Z" transform="translate(-539.819 -1580.644)" fill="#411423"/><path d="M551.333,1803.546s2.239-.4,1.608,1.369c0,0-5.226,2.169-8.876,1.68a2.239,2.239,0,0,1-2.163-2.772l-.043-2.185,3.441.629-.2,2.077Z" transform="translate(-464.046 -1551.648)" fill="#e28262"/><path d="M538.425,1814.169a1.369,1.369,0,0,0,.344.937c.9,1,2.671,1.034,3.918.958a43.793,43.793,0,0,0,5.961-.805c.427-.088.545-.223.55-.344a1.729,1.729,0,0,0-1.341-1.022l1.905-.236a4.939,4.939,0,0,1,2.967.586c.487,1.345-1.883,2.241-1.883,2.241a39.608,39.608,0,0,1-5.549,1.5s-6.69,1.525-7.5-.464Z" transform="translate(-460.569 -1561.994)" fill="#411423"/><path d="M535.957,1356.425a6.392,6.392,0,1,1-6.388-6.172,6.283,6.283,0,0,1,6.388,6.172" transform="translate(-448.05 -1162.896)" fill="#003273"/><path d="M525.55,1419.208s.089,1.552,2.974,1.591c0,0,2.731.9,3.91-2.536,4.646-13.531,3.418-27.651,3.418-27.651s-6.56-3.531-12.67-1.116c0,0,.988,17.761,2.368,29.713" transform="translate(-448.051 -1195.966)" fill="#003273"/><path d="M536.278,1602.057s-2.251,29.245-2.46,30.289a3.86,3.86,0,0,1-4.136-.037c.011-1.434-1.607-13.393-1.775-15.639-.287-3.86-.767-8.736,1.757-14.283Z" transform="translate(-451.896 -1379.761)" fill="#003273"/><path d="M592.455,1415.679s.616,1.436,3.351.548c0,0,2.885-.025,2.82-3.643-.256-14.255-6.72-29.027-6.72-29.027s-7.281-.672-12.218,3.562c0,0,7.368,17.725,12.767,28.561" transform="translate(-496.443 -1191.545)" fill="#003d8d"/><path d="M589.581,1354.371a6.122,6.122,0,0,1-3.911,7.869,6.447,6.447,0,0,1-8.143-3.78,6.121,6.121,0,0,1,3.911-7.868,6.447,6.447,0,0,1,8.143,3.779" transform="translate(-494.281 -1162.887)" fill="#003d8d"/><path d="M523.182,1316.531c.772-6.864,4.336-10.049,4.336-10.049l12.348-1.507s3.4,5.723,3.76,11.557c-1.476,3.89-6.737,5.024-6.737,5.024l-3.994,1.145s-9.053-1.329-9.712-6.169" transform="translate(-448.051 -1123.901)" fill="#003d8d"/><path d="M643.54,1594.738s-6.125,30.721-6.493,31.724c.162-.075-2.895,1.358-4.248-.491.23-1.417.36-17.022.538-19.267.307-3.859.265-7.459,3.611-12.584,0,0,8.362-5.784,6.592.618" transform="translate(-541.927 -1370.861)" fill="#003d8d"/><path d="M492.028,1225.79s2.249,2.56,6.723,8.738l-.773,1.267s-7.663-3.729-10.107-7.916Z" transform="translate(-417.811 -1055.704)" fill="#e28262"/><path d="M495.769,1114.325s-5.768,12.162-9.232,11.7c0,0-1.2.073-1.435-.8,0,0-2.447-2.1,7.726-17.219a3.189,3.189,0,0,1,3.03-.953s3.089,1.972-.089,7.271" transform="translate(-415.218 -953.396)" fill="#e28262"/><rect width="6.235" height="6.404" transform="translate(83.644 151.409)" fill="#f5ae80"/><path d="M572.537,1008.513l.234-1.024s.467-3.749.467-3.75a3.308,3.308,0,0,0-.231-1.523,3.367,3.367,0,0,1-.317-1.558,4.337,4.337,0,0,0-1.554-3.919c-2.128-2.182-6.228-1.66-6.229-1.66-2.119.389-3.935,1.255-4.889,3.015a6.2,6.2,0,0,0-.584,5.21,10.651,10.651,0,0,0,3.747,4.548c1.083.809,2.139.863,3.511,1.227a15.863,15.863,0,0,0,3.75.3c.522-.024,1.961-.274,2.1-.862" transform="translate(-478.801 -856.958)" fill="#f39672"/><path d="M565.735,999.514c-.308-.422-1.428-.682-1.428-.682-1.354,0-1.177,1.746-1.3,2.5-.041.246-.091.5-.148.75-.645,2.22-2.576,2.2-4.225,2.47-.061-.035-.126-.07-.193-.106a6.356,6.356,0,0,0-1.249-2.007,8.362,8.362,0,0,1-2.343-8.717,6.9,6.9,0,0,1,1.546-2.5,9.229,9.229,0,0,1,5.121-2.552c1.918-.348,8.781.551,6.909,4.578,0,0-2.824,3.147-2.684,6.262" transform="translate(-474.838 -851.43)" fill="#2c130d"/><path d="M619.375,1061.58a1.3,1.3,0,0,0-1.528-.863.988.988,0,0,0-.746,1.064c.01.108.035.214.045.322a2.305,2.305,0,0,0,1.45,1.586" transform="translate(-528.478 -913.496)" fill="#f7ae80"/><path d="M621.828,1064.415a.712.712,0,0,1,.3-.079c.455-.028.822.65.367.77a.245.245,0,0,0,.006.347c.156.164.367.4.32.632-.029.137-.187.211-.329.245-.114.027-.137-.059-.046-.1a.489.489,0,0,0,.173-.137c0-.008.009-.015.014-.023a.067.067,0,0,0,.01-.018.141.141,0,0,0,.005-.1.287.287,0,0,1-.353,0c-.086-.1-.02-.257-.05-.371a.848.848,0,0,0-.1-.228.234.234,0,0,1,.167-.392,1.263,1.263,0,0,1,.138.01c.19-.1-.022-.372-.138-.416a.375.375,0,0,0-.4.067.532.532,0,0,0-.126.388,1.245,1.245,0,0,0,.123.464c.042.083.094.18.135.264s-.066.136-.113.041a2.721,2.721,0,0,1-.325-.765.57.57,0,0,1,.223-.594" transform="translate(-532.332 -916.652)" fill="#dc9471"/><path d="M618.48,1060.823s-.054-.075-.143-.211a1.774,1.774,0,0,0-.189-.21,1.489,1.489,0,0,0-.288-.216,1.205,1.205,0,0,0-.389-.136,1.031,1.031,0,0,0-.443.03,1.255,1.255,0,0,0-.225.092,1.1,1.1,0,0,0-.179.133.822.822,0,0,0-.237.39,1.124,1.124,0,0,0-.008.485l.017.132,0,.017v0c0-.008,0,.019,0-.016v.012l.007.032.013.065a1.393,1.393,0,0,0,.065.232,1.872,1.872,0,0,0,.211.407,2.47,2.47,0,0,0,.273.327,3.06,3.06,0,0,0,.514.412c.136.087.221.131.221.131a1.6,1.6,0,0,1-.249-.079,2.6,2.6,0,0,1-.606-.334,2.049,2.049,0,0,1-.34-.322,1.719,1.719,0,0,1-.282-.448,1.672,1.672,0,0,1-.091-.263l-.017-.063-.009-.033,0-.008,0-.026,0-.017-.02-.132a1.391,1.391,0,0,1,.006-.591,1.125,1.125,0,0,1,.333-.525c.041-.033.08-.068.123-.1l.143-.078a1.379,1.379,0,0,1,.275-.094,1.168,1.168,0,0,1,.562.008,1.252,1.252,0,0,1,.716.5,1.856,1.856,0,0,1,.154.256c.059.149.089.237.089.237" transform="translate(-527.583 -912.739)" fill="#dc9471"/><path d="M627.541,1078.132a.378.378,0,1,0,.378-.365.372.372,0,0,0-.378.365" transform="translate(-537.424 -928.221)" fill="#fff"/><path d="M627.828,1078.328a.294.294,0,0,0,.3-.289.285.285,0,0,0-.209-.27.365.365,0,1,1-.378.365c0-.009,0-.017,0-.026a.292.292,0,0,0,.284.221" transform="translate(-537.424 -928.221)" fill="#e8e8e8"/><path d="M512.324,1138.9l6.883-9.543a12.362,12.362,0,0,0-.4-4.193l-2.2-14.625c.261-1.676.381-3.8,2.729-3.424a14.954,14.954,0,0,1,3,.809c-.3,1.358,2.127,2.231,2.127,2.231,3.337,1.392,4.109.475,4.109.475a50.276,50.276,0,0,1,4.671,2.534,3.258,3.258,0,0,1,1.045,3.334l-2.4,13.861.422,3.443,4.388,10.749a9.741,9.741,0,0,0-4.275-.494c-1.364.158-2.54.935-3.895,1.08a7.719,7.719,0,0,1-5.112-1.443,25.243,25.243,0,0,1-5.918-2.009h-.129c-1.531.008-3.266-.018-4.4-1.176-.238-.244-.939-1.208-.649-1.61" transform="translate(-438.694 -953.458)" fill="#411423"/><path d="M636.819,1173.022l-.04-16.838c-.424-4.614-2.8-5.351-2.8-5.351-4.793-.542-4.055,8.04-4.055,8.04l2,14.506" transform="translate(-539.433 -991.127)" fill="#f39672"/><path d="M700.525,1135.841l-9.548-3.979,7.513-16.421,10.251,3.977Z" transform="translate(-591.75 -960.667)" fill="#c9e9fc"/><path d="M754.341,1215.036a4.557,4.557,0,0,1-1.161,1.46c-.578.443-1.546.309-1.918.632-.649.563-2.662,3.187.242,3.194.676,0,3,.008,3.4-1.058a3.53,3.53,0,0,0-.122-3.549Z" transform="translate(-642.277 -1046.442)" fill="#f39672"/><path d="M644.625,1244.094l15.291-7.211c1.838.494,1.57,1.292,1.57,1.292l-9.39,7.257c-3.927,3.154-6.748,3.539-6.748,3.539s-2.466.867-2.692-2.546c0,0-.085-1.542,1.969-2.332" transform="translate(-550.369 -1065.257)" fill="#f39672"/><path d="M536.579,999.746c-.387,2.792.049,6.489-1.391,9.54-.641,1.359-1.348,2.032-.964,3.608.315,1.29.946,2.508,1.289,3.843.756,2.949-.272,5.829-3.828,4.761a3.818,3.818,0,0,0-3.448.078,4.652,4.652,0,0,1-3.826.015c-2.01-.946-1.405-2.376-2.531-3.808-.858-1.091-2.072-1.064-2.719-2.531-.78-1.771.15-2.715,1.1-4.217a5.371,5.371,0,0,0,.822-4.482c-.274-1.585.131-2.386.674-3.844.557-1.493.314-2.794.578-4.291.522-2.961,2.2-6.979,5.407-7.848a9.3,9.3,0,0,1,5.12-.222c2.062.731,4.358,1.51,4.269,3.959a39.173,39.173,0,0,1-.552,5.438" transform="translate(-444.357 -852.692)" fill="#2c130d"/><path d="M756.981,1214.842s.757,1.013,1.392-.356l-.065-1.809a.563.563,0,0,0-.391-.622s-.31,0-.38.516Z" transform="translate(-648.276 -1043.875)" fill="#f39672"/></g></g></g></svg>