<svg xmlns="http://www.w3.org/2000/svg" xmlns:xlink="http://www.w3.org/1999/xlink" width="1328" height="1220.35" viewBox="0 0 1328 1220.35"><defs><linearGradient id="a" x1="0.5" y1="1" x2="0.5" y2="0.185" gradientUnits="objectBoundingBox"><stop offset="0" stop-color="#d2e1f1" stop-opacity="0.361"/><stop offset="1" stop-color="#4679ac" stop-opacity="0.02"/></linearGradient><linearGradient id="b" x1="0.5" x2="0.5" y2="1" gradientUnits="objectBoundingBox"><stop offset="0" stop-color="#fff"/><stop offset="1" stop-color="#edf3f9"/></linearGradient><linearGradient id="c" x1="0.5" y1="1" x2="0.5" gradientUnits="objectBoundingBox"><stop offset="0" stop-color="#f6f6f6" stop-opacity="0"/><stop offset="1" stop-color="#eae8e8"/></linearGradient></defs><g transform="translate(8247 12986.148)"><g transform="translate(-8247 -12986.148)" opacity="0.86"><rect width="1328" height="1135.35" transform="translate(1328 1220.35) rotate(180)" fill="url(#a)"/><rect width="1328" height="193" transform="translate(0 0)" fill="url(#b)"/></g><g transform="translate(-8247 -12986.148)" opacity="0.86"><g transform="translate(0 0)"><path d="M2.235-1559.781s-85.629-13-277.3,94.465-619.908-44.226-717.229-61.456-270.688,3.478-333.475,48.072v296.48h1328Z" transform="translate(1325.765 1560.275)" opacity="0.531" fill="url(#c)" style="mix-blend-mode:multiply;isolation:isolate"/><path d="M2.235-1560.275s-223.333,166.222-536.471,86.756c-162.832-41.322-330.233-4.729-456.956,0-117.471,4.384-194.5-22.768-334.574-61.927v316.619h1328Z" transform="translate(1325.765 1583.661)" opacity="0.63" fill="url(#c)" style="mix-blend-mode:multiply;isolation:isolate"/></g></g></g></svg>