<svg xmlns="http://www.w3.org/2000/svg" width="229.253" height="193.573" viewBox="0 0 229.253 193.573"><g transform="translate(7646.136 6276.465)"><g transform="translate(-7610.483 -6277.137)"><g transform="translate(12.349 0.672)"><path d="M37.505,160.215a3.168,3.168,0,0,1-3.69,2.7c-3.074-.169-6.217.122-9.218-.415A14.72,14.72,0,0,1,12.47,148.511c-.2-4.715-.091-9.445-.093-14.168q-.011-24.469,0-48.938c0-2.718.448-3.324,2.789-3.934,2.389.576,2.878,1.249,2.879,4.068q.008,24.376.011,48.753c.009,6.5,4,10.423,10.512,10.424q31.658,0,63.316,0h1.909a50.186,50.186,0,0,1,11.292-31.879c-3.773-1.375-4.985-3.092-5.011-6.968-.013-1.826-.067-3.657.036-5.479a5.8,5.8,0,0,1,5.837-5.727c2.2-.075,4.413-.082,6.614.012a5.809,5.809,0,0,1,5.6,4.952c.1.545.178,1.1.288,1.782.592-.3,1.09-.552,1.579-.813a49.524,49.524,0,0,1,30.3-5.506,52.782,52.782,0,0,1,19.1,6.636l5.711,4.031V62.774h-5.688c-.439-.023-.878-.067-1.317-.067q-74.268,0-148.537,0c-.486,0-.973.062-1.548.1,0,3.2-.041,6.282.015,9.364.037,2.074-.806,3.365-2.891,3.754-2.086-.416-2.825-1.724-2.819-3.8.042-14.361-.026-28.723.041-43.084.044-9.372,6.632-15.838,16-15.867,7.111-.023,14.223,0,21.555,0-.257-4.025.774-7.534,3.957-10.116A10.449,10.449,0,0,1,61.088.681C67.114.9,70.535,4.975,71.407,13.066h50.556c-.157-3.986.841-7.562,4.166-10.135A10.506,10.506,0,0,1,133.351.69c5.987.328,9.516,4.629,10.109,12.485h7.292c4.662,0,9.324-.011,13.986,0,9.611.026,16.14,6.5,16.149,16.1q.036,40.061-.019,80.122a5.368,5.368,0,0,0,1.287,3.558c11.56,14.795,14.6,31.249,8.035,48.8-6.613,17.686-19.775,28.183-38.366,31.774-1.06.205-2.109.47-3.164.707H138.072c-2.042-.47-4.1-.893-6.124-1.417-15.81-4.085-27.073-13.631-33.91-28.406a2.172,2.172,0,0,0-2.348-1.54q-24.39.071-48.78.029c-2.548,0-3.17-.451-3.843-2.688.463-2.337,1.256-2.98,3.76-2.981q23.232-.008,46.464,0h2.1l-1.328-6.85H91.91q-31.826,0-63.652.011a15.8,15.8,0,0,1-8.928-2.526,12.563,12.563,0,0,0-1.136-.591,9.4,9.4,0,0,0,8.884,9.908c2.2.087,4.407.015,6.61.031,2.479.018,3.182.577,3.817,2.992m69.2-59.811c-.359.251-1.012.485-1.027.755a42.969,42.969,0,0,0,0,5.049c.02.322.655.606,1.007.908.814.036,1.628.1,2.442.1,2.751-.011,3.565-1.1,3.55-4.7-.009-2.119-.009-2.12-3.145-2.119q-1.413,0-2.827,0M58.249,7.078a4.431,4.431,0,0,0-2.606,4.389q-.058,7.71,0,15.42a4.6,4.6,0,0,0,2.966,4.573c3.55,1.34,6.832-.618,6.917-4.323.121-5.332.131-10.671-.008-16-.1-3.841-3.781-5.8-7.268-4.056m72.214-.1a4.254,4.254,0,0,0-2.739,4.12q-.108,8.083.008,16.167a4.156,4.156,0,0,0,2.756,4.081c3.437,1.552,7.025-.438,7.131-4.174q.226-8,0-16.019c-.108-3.739-3.689-5.718-7.155-4.175m26.232,179.471.01.018c.725-.2,1.47-.346,2.171-.609a44.13,44.13,0,0,0,17.536-70.924,41.152,41.152,0,0,0-20.173-12.678,40.853,40.853,0,0,0-19.022-1.455,44.083,44.083,0,0,0-7.008,85.645,40.812,40.812,0,0,0,25.615.261l.87-.258M169.439,50.264c-.377-.021-.753-.06-1.13-.06q-74.282,0-148.565,0c-.536,0-1.072.071-1.57.107v6.717H20.5q73.431,0,146.863,0c.691,0,1.383-.045,2.074-.069h5.669V50.264Zm0-5.819h5.585a3.236,3.236,0,0,0,.167-.656c.009-5.148.08-10.3-.01-15.445a9.511,9.511,0,0,0-10.25-9.425H143.483v6.806a32.308,32.308,0,0,1,3.527.025,2.7,2.7,0,0,1,2.508,2.995,2.6,2.6,0,0,1-2.7,2.6,13.839,13.839,0,0,1-2.455,0,2.67,2.67,0,0,0-2.865,1.488,10.409,10.409,0,0,1-17.275.485,3.941,3.941,0,0,0-4.153-1.96,8,8,0,0,1-1.133,0c-1.953-.064-3.144-1.089-3.181-2.73-.039-1.733,1.174-2.855,3.216-2.933.927-.035,1.856-.006,2.862-.006V19H71.352v6.733a32.494,32.494,0,0,1,3.65.026,2.741,2.741,0,0,1,2.518,3,2.694,2.694,0,0,1-2.757,2.577,15.629,15.629,0,0,1-2.455,0,2.687,2.687,0,0,0-2.868,1.5c-3.852,5.947-12.52,6.6-16.784,1.025-1.636-2.142-3.22-2.815-5.6-2.515a2.1,2.1,0,0,1-.378,0A2.832,2.832,0,0,1,43.683,28.6a2.912,2.912,0,0,1,2.9-2.893c1.052-.076,2.114-.014,3.27-.014V18.921c-7.824,0-15.565-.209-23.287.083-4.23.16-8,3.646-8.243,7.612-.359,5.88-.093,11.8-.093,17.9h2.434q73.255,0,146.51,0c.754,0,1.509-.042,2.264-.065" transform="translate(-12.349 -0.672)" fill="#030202"/><path d="M172.187,162.537a52.772,52.772,0,0,0-19.1-6.636,49.52,49.52,0,0,0-30.3,5.505c-.489.262-.987.509-1.579.813-.11-.685-.185-1.236-.288-1.782a5.809,5.809,0,0,0-5.6-4.952c-2.2-.094-4.412-.087-6.614-.012a5.8,5.8,0,0,0-5.837,5.728c-.1,1.821-.048,3.652-.036,5.478.027,3.876,1.239,5.593,5.011,6.968a50.187,50.187,0,0,0-11.292,31.879H94.646q-31.658,0-63.316,0c-6.512,0-10.5-3.922-10.512-10.424q-.036-24.376-.011-48.753c0-2.818-.49-3.491-2.879-4.068q0-2.772.005-5.543c2.085-.389,2.928-1.68,2.891-3.754-.056-3.082-.015-6.166-.015-9.365.575-.039,1.061-.1,1.548-.1q74.268-.006,148.537,0c.439,0,.878.044,1.317.067q-.012,19.476-.024,38.953m-1.066-22.952c0-1.007.012-2.015,0-3.022a5.893,5.893,0,0,0-6.13-6.2c-2.014-.033-4.031-.045-6.044,0a5.9,5.9,0,0,0-6,5.971c-.041,2.14-.051,4.282.006,6.42a5.76,5.76,0,0,0,5.58,5.756c1.947.1,3.9.059,5.854.045,4.506-.032,6.72-2.247,6.735-6.709,0-.755,0-1.511,0-2.266M70.9,139.474c0-1.07.023-2.141,0-3.21a5.842,5.842,0,0,0-5.678-5.884c-2.262-.1-4.535-.1-6.8,0a5.851,5.851,0,0,0-5.687,5.883q-.064,3.209,0,6.42a5.711,5.711,0,0,0,5.5,5.82c2.387.115,4.787.114,7.173,0a5.678,5.678,0,0,0,5.485-5.629c.042-1.132.007-2.266.012-3.4m0,25.082c0-1.007.014-2.014,0-3.021a5.774,5.774,0,0,0-5.846-6.065c-2.2-.066-4.409-.077-6.61.006A5.76,5.76,0,0,0,52.73,161.3c-.045,2.076-.032,4.154-.006,6.231a5.861,5.861,0,0,0,5.854,6.1c2.137.082,4.283.077,6.42,0a5.845,5.845,0,0,0,5.9-6.051c.018-1.006,0-2.014,0-3.021m25.032,25.066h.014c0-1.007.021-2.015,0-3.021-.09-3.683-2.37-6.009-6.011-6.083-2.14-.043-4.282-.05-6.421.016a5.749,5.749,0,0,0-5.716,5.428,59.3,59.3,0,0,0-.007,7.172,5.837,5.837,0,0,0,5.835,5.548c2.2.057,4.409.07,6.61,0a5.784,5.784,0,0,0,5.691-5.657c.056-1.13.009-2.265.009-3.4m40.983-41.1v.031c1.07,0,2.142.037,3.211-.007a5.865,5.865,0,0,0,5.977-6.162c.03-2.014.045-4.03-.005-6.043a5.892,5.892,0,0,0-5.82-5.965c-2.2-.077-4.409-.082-6.61,0a5.813,5.813,0,0,0-5.736,5.813q-.077,3.3,0,6.609a5.687,5.687,0,0,0,5.394,5.709c1.19.085,2.391.014,3.586.014m-25-.012v.051c1.007,0,2.016.03,3.022-.005,3.743-.131,6.034-2.45,6.118-6.231.045-2.013.077-4.031-.013-6.041a5.908,5.908,0,0,0-6.069-5.915c-2.076-.043-4.156-.056-6.232,0a5.715,5.715,0,0,0-5.818,5.315,57.994,57.994,0,0,0,.02,7.731,5.537,5.537,0,0,0,5.2,5.077c1.251.1,2.515.016,3.774.016M95.945,164.614c0-1.007.019-2.014,0-3.021-.085-3.782-2.373-6.071-6.157-6.132-2.014-.033-4.03-.046-6.043,0a5.859,5.859,0,0,0-5.989,5.963q-.09,3.113,0,6.23a5.912,5.912,0,0,0,6.011,5.973q3.113.1,6.231,0a5.826,5.826,0,0,0,5.942-6c.031-1.006.005-2.014.008-3.021M27.7,189.52h-.012c0,1.007-.016,2.015,0,3.021a5.858,5.858,0,0,0,6.17,6.147c2.014.023,4.03.04,6.044,0a5.89,5.89,0,0,0,5.958-5.824c.08-2.2.085-4.408,0-6.608a5.8,5.8,0,0,0-5.823-5.722c-2.265-.06-4.535-.072-6.8.013a5.68,5.68,0,0,0-5.53,5.579c-.049,1.131-.008,2.266-.008,3.4m-.012-50.05c0,1.007-.018,2.015,0,3.021.075,3.574,2.31,5.922,5.855,6.044,2.2.076,4.409.077,6.609-.016a5.753,5.753,0,0,0,5.7-5.646c.1-2.262.1-4.535,0-6.8a5.844,5.844,0,0,0-5.694-5.7c-2.263-.1-4.536-.1-6.8,0a5.828,5.828,0,0,0-5.67,5.88c-.031,1.069-.005,2.14-.007,3.21m0,24.962c0,1.07-.023,2.141,0,3.21a5.824,5.824,0,0,0,5.759,5.981c2.2.1,4.409.094,6.609,0a5.865,5.865,0,0,0,5.809-5.97q.083-3.114,0-6.231a5.848,5.848,0,0,0-5.991-5.954q-3.115-.076-6.232,0a5.76,5.76,0,0,0-5.954,5.946c-.025,1.006,0,2.014,0,3.021m34.293,16.1v-.013c-1.134,0-2.268-.031-3.4.006a5.8,5.8,0,0,0-5.853,5.874q-.063,3.209,0,6.421a5.852,5.852,0,0,0,5.7,5.858c2.264.077,4.535.083,6.8,0a5.807,5.807,0,0,0,5.646-5.709q.092-3.4,0-6.8a5.727,5.727,0,0,0-5.5-5.627c-1.13-.06-2.266-.01-3.4-.01m33.962-40.882c0-1.007.016-2.014,0-3.021-.07-3.842-2.439-6.22-6.257-6.265-1.951-.023-3.9-.037-5.855,0a5.921,5.921,0,0,0-6.073,5.914c-.073,2.138-.074,4.282,0,6.419a5.834,5.834,0,0,0,5.728,5.831c1.193.064,2.4-.037,3.587.046,6.618.462,9.409-1.778,8.87-8.927" transform="translate(-15.111 -61.482)" fill="#e8f2f9"/><path d="M43.224,303.935c-.635-2.415-1.338-2.974-3.817-2.992-2.2-.016-4.41.056-6.61-.031A9.4,9.4,0,0,1,23.913,291a12.623,12.623,0,0,1,1.136.591,15.8,15.8,0,0,0,8.928,2.526q31.826-.033,63.652-.012h2.153l1.327,6.85h-2.1q-23.232,0-46.464,0c-2.5,0-3.3.644-3.76,2.981l-5.562-.008" transform="translate(-18.068 -144.392)" fill="#d2dbf9"/><path d="M175.109,62.263c-.754.023-1.509.065-2.264.065q-73.255,0-146.51,0H23.9c0-6.1-.266-12.016.093-17.9.242-3.966,4.013-7.452,8.243-7.612,7.722-.291,15.462-.083,23.287-.083v6.775c-1.156,0-2.218-.062-3.27.014a2.912,2.912,0,0,0-2.9,2.893,2.832,2.832,0,0,0,2.992,2.752,2.1,2.1,0,0,0,.378,0c2.384-.3,3.968.373,5.6,2.515,4.263,5.58,12.931,4.922,16.784-1.025a2.687,2.687,0,0,1,2.868-1.5,15.629,15.629,0,0,0,2.455,0,2.694,2.694,0,0,0,2.757-2.577,2.741,2.741,0,0,0-2.518-3,32.494,32.494,0,0,0-3.65-.026V36.821h50.484v6.685c-1.005,0-1.935-.029-2.862.006-2.042.078-3.255,1.2-3.216,2.933.037,1.642,1.229,2.667,3.181,2.73a8.011,8.011,0,0,0,1.134,0,3.941,3.941,0,0,1,4.152,1.96,10.409,10.409,0,0,0,17.275-.485,2.67,2.67,0,0,1,2.865-1.488,13.839,13.839,0,0,0,2.455,0,2.6,2.6,0,0,0,2.7-2.6,2.7,2.7,0,0,0-2.508-2.995,32.309,32.309,0,0,0-3.527-.025V36.737H170.6c3.524,3.164,4.684,7.192,4.55,11.808-.133,4.569-.038,9.145-.043,13.718" transform="translate(-18.021 -18.49)" fill="#b55a72"/><path d="M241.233,284.375a40.817,40.817,0,0,1-25.616-.261,44.083,44.083,0,0,1,7.008-85.645,40.858,40.858,0,0,1,19.023,1.455,9.975,9.975,0,0,0,1.16.886,45.806,45.806,0,0,1,13.972,11.6c8.642,11.046,12.161,23.481,9.836,37.42a45.576,45.576,0,0,1-17.966,29.693c-2.119,1.617-4.355,3.08-6.538,4.613l-.01-.018-.87.259m-12.1-79.509a37.271,37.271,0,1,0,37.153,37.3,37.274,37.274,0,0,0-37.153-37.3" transform="translate(-97.758 -98.343)" fill="#b0c0d2"/><path d="M175.151,105.51c-.691.024-1.383.069-2.074.069q-73.432.005-146.863,0h-2.33V98.865c.5-.035,1.034-.106,1.57-.107q74.282-.008,148.564,0c.377,0,.753.039,1.13.06q0,3.347,0,6.694" transform="translate(-18.059 -49.225)" fill="#b55a72"/><path d="M297.756,286.042c2.183-1.534,4.419-3,6.538-4.613a45.58,45.58,0,0,0,17.966-29.693c2.324-13.939-1.2-26.375-9.837-37.42a45.794,45.794,0,0,0-13.972-11.6,10.085,10.085,0,0,1-1.16-.886,41.145,41.145,0,0,1,20.173,12.678,44.129,44.129,0,0,1-17.536,70.923c-.7.263-1.447.409-2.171.609" transform="translate(-153.401 -100.251)" fill="#727997"/><path d="M323.4,162.6q.011-19.476.023-38.953h5.688v42.983L323.4,162.6" transform="translate(-166.327 -61.549)" fill="#d0d9f3"/><path d="M246.247,12.637c3.466-1.543,7.047.436,7.155,4.175q.231,8,0,16.019c-.106,3.735-3.694,5.725-7.131,4.173a39.317,39.317,0,0,0,1.464-6.468,97.7,97.7,0,0,0,0-11.834c-.124-2.045-.969-4.045-1.488-6.065" transform="translate(-128.133 -6.334)" fill="#d0d9f7"/><path d="M103.243,12.728c3.487-1.746,7.167.215,7.267,4.056.139,5.331.13,10.671.009,16-.084,3.706-3.368,5.663-6.917,4.323a18.961,18.961,0,0,0,1.134-4.309c.137-5.334.157-10.676-.016-16.007-.045-1.37-.96-2.711-1.476-4.065" transform="translate(-57.343 -6.321)" fill="#d1daf8"/><path d="M319.01,62.322c.005-4.573-.09-9.149.043-13.718.134-4.617-1.026-8.645-4.55-11.808a9.511,9.511,0,0,1,10.25,9.425c.09,5.147.018,10.3.01,15.445a3.235,3.235,0,0,1-.167.656Z" transform="translate(-161.921 -18.549)" fill="#a3314f"/><path d="M243.509,13.154c.519,2.02,1.363,4.021,1.488,6.065a97.7,97.7,0,0,1,0,11.834,39.317,39.317,0,0,1-1.464,6.468,4.155,4.155,0,0,1-2.756-4.081q-.126-8.082-.008-16.167a4.254,4.254,0,0,1,2.738-4.12" transform="translate(-125.395 -6.851)" fill="#e1ebf2"/><path d="M100.66,13.358c.516,1.354,1.431,2.7,1.476,4.065.173,5.331.153,10.674.016,16.007a18.961,18.961,0,0,1-1.134,4.309,4.6,4.6,0,0,1-2.966-4.572q-.055-7.71,0-15.42a4.431,4.431,0,0,1,2.606-4.389" transform="translate(-54.761 -6.952)" fill="#e8f2f9"/><path d="M199.183,198.165q1.413,0,2.827,0c3.136,0,3.136,0,3.145,2.119.015,3.6-.8,4.687-3.55,4.7-.814,0-1.628-.065-2.442-.1q.01-3.356.02-6.713" transform="translate(-104.826 -98.432)" fill="#284087"/><path d="M323.433,105.571q0-3.347,0-6.694H329.1v6.694Z" transform="translate(-166.34 -49.285)" fill="#a3314f"/><path d="M198.123,198.169q-.01,3.356-.02,6.713c-.351-.3-.987-.586-1.007-.908a42.972,42.972,0,0,1,0-5.049c.016-.27.669-.5,1.028-.755" transform="translate(-103.766 -98.437)" fill="#294189"/><path d="M296.47,368.814l.87-.259-.87.259" transform="translate(-152.995 -182.781)" fill="#1884e7"/><path d="M303.445,146.271c0,.755,0,1.51,0,2.266-.015,4.462-2.229,6.677-6.735,6.709-1.951.014-3.907.055-5.854-.045a5.76,5.76,0,0,1-5.579-5.756c-.057-2.139-.047-4.281-.006-6.42a5.9,5.9,0,0,1,6-5.971c2.014-.048,4.03-.037,6.044,0a5.894,5.894,0,0,1,6.13,6.2c.014,1.007,0,2.014,0,3.022m-11.406-3.47c-.366.26-1.033.5-1.05.783a43,43,0,0,0,0,5.089c.017.283.7.526,1.076.788h5.55V142.8Z" transform="translate(-147.434 -68.167)" fill="#030303"/><path d="M104.976,146.13c0,1.133.033,2.267-.009,3.4a5.679,5.679,0,0,1-5.485,5.63c-2.386.114-4.787.115-7.173,0a5.711,5.711,0,0,1-5.5-5.82q-.064-3.209,0-6.42a5.851,5.851,0,0,1,5.687-5.883c2.262-.1,4.536-.1,6.8,0a5.842,5.842,0,0,1,5.678,5.885c.027,1.07,0,2.14,0,3.21m-11.389-3.354c-.368.305-1.032.589-1.054.918a34.092,34.092,0,0,0,0,4.8c.024.335.7.623,1.079.932h5.544v-6.652Z" transform="translate(-49.194 -68.138)" fill="#030303"/><path d="M104.982,195.827c0,1.007.016,2.014,0,3.021a5.845,5.845,0,0,1-5.895,6.051c-2.138.075-4.283.08-6.421,0a5.861,5.861,0,0,1-5.854-6.1c-.027-2.077-.04-4.155.006-6.231a5.76,5.76,0,0,1,5.709-5.822c2.2-.083,4.408-.071,6.61-.005a5.774,5.774,0,0,1,5.846,6.065c.016,1.007,0,2.014,0,3.021m-11.359-3.288c-.378.258-1.067.5-1.083.777a43.419,43.419,0,0,0,0,5.082c.015.266.682.495,1.047.74h5.592v-6.6Z" transform="translate(-49.197 -92.753)" fill="#030304"/><path d="M154.5,245.467c0,1.133.046,2.268-.009,3.4a5.783,5.783,0,0,1-5.691,5.656c-2.2.074-4.408.061-6.61,0a5.837,5.837,0,0,1-5.835-5.548,59.211,59.211,0,0,1,.008-7.172,5.749,5.749,0,0,1,5.715-5.428c2.139-.066,4.282-.059,6.421-.016,3.641.073,5.92,2.4,6.011,6.083.025,1.006,0,2.014,0,3.021H154.5m-11.445-3.359c-.359.276-1.01.535-1.028.832a42.193,42.193,0,0,0,0,5.023c.018.3.66.558,1.014.835h5.589v-6.689Z" transform="translate(-73.684 -117.327)" fill="#030304"/><path d="M244.707,155.185c-1.2,0-2.4.071-3.586-.014a5.687,5.687,0,0,1-5.394-5.709q-.082-3.3,0-6.609a5.812,5.812,0,0,1,5.736-5.813c2.2-.082,4.408-.077,6.61,0a5.892,5.892,0,0,1,5.82,5.965c.05,2.013.035,4.029,0,6.043a5.864,5.864,0,0,1-5.977,6.162c-1.069.043-2.14.007-3.21.007v-.031m-2.5-5.729h5.887v-6.691h-5.918c-1.16.825-1.137,5.874.031,6.691" transform="translate(-122.905 -68.147)" fill="#030304"/><path d="M195.116,155.187c-1.258,0-2.523.08-3.774-.016a5.536,5.536,0,0,1-5.2-5.077,58,58,0,0,1-.02-7.731,5.715,5.715,0,0,1,5.818-5.315c2.076-.059,4.155-.047,6.232,0a5.907,5.907,0,0,1,6.069,5.915c.089,2.01.058,4.028.013,6.041-.084,3.781-2.375,6.1-6.118,6.231-1.006.035-2.014.005-3.022.005v-.051m-2.461-5.721c7.515-.066,5.735,1.254,5.984-5.24,0-.063.026-.151-.006-.184-.433-.457-.843-1.252-1.318-1.294a43.458,43.458,0,0,0-4.693.034c-.368.355-1.023.687-1.052,1.068a29.939,29.939,0,0,0,0,4.648c.027.348.7.647,1.083.968" transform="translate(-98.312 -68.161)" fill="#030304"/><path d="M154.543,195.9c0,1.007.025,2.015-.006,3.021a5.827,5.827,0,0,1-5.943,6c-2.075.067-4.156.065-6.231,0a5.911,5.911,0,0,1-6.011-5.973q-.093-3.112,0-6.23a5.859,5.859,0,0,1,5.989-5.964c2.013-.05,4.029-.037,6.043,0,3.783.062,6.071,2.351,6.157,6.132.023,1.006,0,2.014,0,3.021M143.1,192.545c-.378.264-1.064.508-1.083.8a37.477,37.477,0,0,0,0,4.892c.021.316.683.59,1.05.884l5.6.247v-6.819Z" transform="translate(-73.71 -92.768)" fill="#030404"/><path d="M37.259,245.365c0-1.133-.041-2.268.008-3.4a5.68,5.68,0,0,1,5.53-5.579c2.263-.085,4.533-.073,6.8-.013a5.8,5.8,0,0,1,5.823,5.722c.087,2.2.082,4.407,0,6.608a5.89,5.89,0,0,1-5.958,5.824c-2.013.044-4.029.027-6.044,0a5.857,5.857,0,0,1-6.169-6.147c-.019-1.006,0-2.014,0-3.021Zm5.75,3.152,6.639.465V242.1H43.754c-.27.378-.758.748-.772,1.136-.064,1.758.006,3.521.027,5.283" transform="translate(-24.671 -117.326)" fill="#030303"/><path d="M37.244,146.129c0-1.07-.025-2.141.006-3.21a5.829,5.829,0,0,1,5.67-5.88c2.262-.1,4.535-.1,6.8,0a5.844,5.844,0,0,1,5.694,5.7c.1,2.262.1,4.535,0,6.8a5.753,5.753,0,0,1-5.7,5.646c-2.2.093-4.408.091-6.609.016-3.545-.122-5.779-2.47-5.855-6.044-.021-1.007,0-2.014,0-3.021m6.516,3.32h5.879v-6.663a8.966,8.966,0,0,0-1.034-.115c-1.626.02-3.252.057-4.877.089-1.179.821-1.154,5.876.032,6.689" transform="translate(-24.668 -68.14)" fill="#030304"/><path d="M37.246,195.714c0-1.007-.021-2.014,0-3.021a5.76,5.76,0,0,1,5.953-5.946q3.115-.075,6.232,0a5.847,5.847,0,0,1,5.991,5.954q.083,3.113,0,6.231a5.865,5.865,0,0,1-5.809,5.97c-2.2.1-4.41.1-6.609,0a5.825,5.825,0,0,1-5.759-5.982c-.026-1.07,0-2.14,0-3.21m6.522-3.182c-.224.069-.642.133-.644.207q-.064,3.125-.022,6.249c0,.063.4.121.621.181,1.632.045,3.269.166,4.894.082a1.59,1.59,0,0,0,1.1-1.086c.121-1.8.053-3.615.053-5.633Z" transform="translate(-24.669 -92.764)" fill="#030304"/><path d="M96.064,236.4c1.133,0,2.269-.05,3.4.01a5.727,5.727,0,0,1,5.5,5.627q.1,3.4,0,6.8a5.807,5.807,0,0,1-5.646,5.709c-2.264.085-4.535.079-6.8,0a5.852,5.852,0,0,1-5.705-5.857q-.066-3.209,0-6.421a5.8,5.8,0,0,1,5.853-5.874c1.132-.037,2.266-.006,3.4-.006v.013m-3.526,12.142.319.3.735-.026h5.559v-6.674H93.606c-1-.24-1.158.316-1.135,1.141.048,1.753.047,3.507.067,5.26" transform="translate(-49.193 -117.347)" fill="#020202"/><path d="M154.539,146.338c.538,7.15-2.253,9.389-8.871,8.927-1.191-.083-2.394.018-3.587-.046a5.834,5.834,0,0,1-5.728-5.83c-.076-2.138-.075-4.282,0-6.419a5.921,5.921,0,0,1,6.073-5.914c1.951-.041,3.9-.027,5.855,0,3.818.044,6.187,2.422,6.257,6.265.018,1.007,0,2.014,0,3.021m-11.48-3.541c-.349.213-.991.412-1,.64-.082,1.793-.081,3.593.007,5.386.011.232.667.433,1.024.648h5.552V142.8h-5.581" transform="translate(-73.705 -68.172)" fill="#030304"/><path d="M235.849,211.618a37.271,37.271,0,1,1-37.4,37.088,37.174,37.174,0,0,1,37.4-37.088M244.31,279.2l.039-.016c.486-.123.982-.215,1.455-.373a31.577,31.577,0,0,0,17-46.242,29.949,29.949,0,0,0-18.962-14.155,26.358,26.358,0,0,0-11.94-.927,31.623,31.623,0,0,0-26.651,23.033,31.3,31.3,0,0,0,11.584,33.586c7.976,5.891,16.871,7.851,26.6,5.277l.881-.182" transform="translate(-104.472 -105.094)" fill="#020304"/><path d="M298.707,148.467h5.577v6.66h-5.55q-.014-3.33-.027-6.66" transform="translate(-154.102 -73.833)" fill="#294189"/><path d="M297.6,148.467q.014,3.33.027,6.66c-.375-.262-1.058-.5-1.076-.788a42.983,42.983,0,0,1,0-5.089c.017-.281.684-.523,1.05-.783" transform="translate(-153 -73.833)" fill="#3a579e"/><path d="M100.26,148.476h5.571v6.652h-5.544l-.027-6.652" transform="translate(-55.867 -73.838)" fill="#294189"/><path d="M99.145,148.476l.027,6.652c-.377-.31-1.055-.6-1.079-.932a34.092,34.092,0,0,1,0-4.8c.023-.329.686-.613,1.054-.918" transform="translate(-54.751 -73.838)" fill="#3a579e"/><path d="M100.287,198.275h5.552v6.6h-5.592q.02-3.3.039-6.6" transform="translate(-55.861 -98.489)" fill="#294088"/><path d="M99.19,198.275q-.02,3.3-.039,6.6c-.365-.246-1.032-.475-1.047-.741a43.417,43.417,0,0,1,0-5.082c.017-.28.7-.519,1.083-.777" transform="translate(-54.763 -98.489)" fill="#3a579e"/><path d="M149.713,247.772h5.574v6.689H149.7q.007-3.344.015-6.689" transform="translate(-80.339 -122.991)" fill="#294189"/><path d="M148.645,247.772q-.008,3.344-.015,6.689c-.354-.277-1-.538-1.014-.835a42.19,42.19,0,0,1,0-5.023c.018-.3.669-.555,1.028-.832" transform="translate(-79.272 -122.991)" fill="#3a579e"/><path d="M248.54,148.436h5.918v6.691h-5.887q-.016-3.346-.031-6.691" transform="translate(-129.268 -73.818)" fill="#294189"/><path d="M247.7,148.436q.016,3.346.031,6.691c-1.168-.818-1.192-5.867-.031-6.691" transform="translate(-128.428 -73.818)" fill="#3a579e"/><path d="M199.109,148.351a43.333,43.333,0,0,1,4.693-.034c.475.041.885.837,1.318,1.293.032.033.008.122.006.184-.248,6.494,1.532,5.174-5.984,5.24q-.017-3.341-.033-6.683" transform="translate(-104.799 -73.73)" fill="#284087"/><path d="M197.99,148.443q.017,3.341.033,6.683c-.378-.321-1.056-.619-1.083-.968a29.933,29.933,0,0,1,0-4.647c.03-.381.685-.713,1.052-1.068" transform="translate(-103.68 -73.822)" fill="#3a579e"/><path d="M149.724,198.258h5.562v6.819l-5.6-.247q.017-3.287.035-6.571" transform="translate(-80.335 -98.481)" fill="#294088"/><path d="M148.617,198.258q-.017,3.285-.035,6.571c-.367-.293-1.029-.567-1.05-.883a37.477,37.477,0,0,1,0-4.892c.019-.288.7-.532,1.083-.8" transform="translate(-79.229 -98.481)" fill="#3a579e"/><path d="M49.407,247.754H55.3v6.883l-6.639-.465c.25-.475.691-.939.717-1.426.088-1.66.03-3.327.028-4.992" transform="translate(-30.325 -122.983)" fill="#294189"/><path d="M49.354,247.754c0,1.665.06,3.332-.028,4.992-.026.487-.467.951-.717,1.426-.021-1.761-.091-3.524-.027-5.283.014-.387.5-.757.772-1.136" transform="translate(-30.272 -122.983)" fill="#3a579e"/><path d="M50.093,148.351c1.626-.031,3.251-.069,4.877-.089a9.188,9.188,0,0,1,1.034.115v6.663H50.125q-.016-3.345-.032-6.689" transform="translate(-31.033 -73.732)" fill="#294088"/><path d="M49.239,148.438q.016,3.345.032,6.689c-1.186-.812-1.211-5.869-.032-6.689" transform="translate(-30.179 -73.819)" fill="#3a579e"/><path d="M50.126,198.239h6c0,2.018.068,3.831-.053,5.633a1.59,1.59,0,0,1-1.1,1.086c-1.626.084-3.262-.037-4.894-.081q.023-3.318.045-6.637" transform="translate(-31.027 -98.472)" fill="#294088"/><path d="M49.5,198.239q-.023,3.319-.045,6.637c-.216-.061-.62-.119-.621-.182q-.039-3.124.022-6.249c0-.073.42-.138.644-.207" transform="translate(-30.403 -98.472)" fill="#3a579e"/><path d="M100.284,247.788h5.545v6.675H100.27q.007-3.337.014-6.675" transform="translate(-55.872 -122.999)" fill="#294189"/><path d="M99.183,247.733q-.007,3.337-.014,6.675l-.735.025-.319-.3c-.02-1.753-.019-3.508-.067-5.26-.023-.825.132-1.381,1.135-1.141" transform="translate(-54.771 -122.944)" fill="#3a579e"/><path d="M98.183,260.464l.319.3-.319-.3" transform="translate(-54.839 -129.274)" fill="#294189"/><path d="M149.688,148.451h5.581v6.674h-5.552q-.014-3.337-.028-6.674" transform="translate(-80.335 -73.826)" fill="#294189"/><path d="M148.647,148.451q.014,3.337.028,6.674c-.357-.215-1.012-.416-1.024-.648-.088-1.793-.088-3.593-.007-5.386.011-.228.652-.428,1-.64" transform="translate(-79.293 -73.826)" fill="#3a579e"/><path d="M249,284.874c-9.725,2.574-18.621.614-26.6-5.277a31.3,31.3,0,0,1-11.583-33.586,31.623,31.623,0,0,1,26.651-23.034,26.367,26.367,0,0,1,11.94.928,21.168,21.168,0,0,0,1.747,1.367,33.2,33.2,0,0,1,12.126,13.344,33.65,33.65,0,0,1,3.533,19.84,34.29,34.29,0,0,1-12.523,22.638c-1.443,1.211-2.915,2.389-4.373,3.582l-.04.016-.881.182m-4.867-46.189c0-1.826.009-3.651,0-5.477-.015-2.389-1.012-3.619-2.88-3.579-1.771.038-2.778,1.283-2.789,3.525-.018,3.777.038,7.556-.052,11.33a2.292,2.292,0,0,1-1.02,1.636,9.115,9.115,0,0,0,2.26,17.173c4.125.7,7.739-1.181,9.884-5.016a2.362,2.362,0,0,1,1.644-1.022c1.944-.131,3.9.019,5.851-.084a2.826,2.826,0,0,0,2.778-2.972,2.759,2.759,0,0,0-2.879-2.645c-1.824-.061-3.654-.077-5.477,0a1.9,1.9,0,0,1-2.033-1.184c-.618-1.133-1.376-2.586-2.431-3.009-3.107-1.247-3.059-3.618-2.864-6.221.061-.814.009-1.636.009-2.454" transform="translate(-110.042 -110.582)" fill="#e9f3fa"/><path d="M288.844,285.855c1.458-1.193,2.93-2.371,4.373-3.582a34.29,34.29,0,0,0,12.523-22.638,33.642,33.642,0,0,0-3.533-19.84,33.2,33.2,0,0,0-12.126-13.344,21.257,21.257,0,0,1-1.747-1.367A29.95,29.95,0,0,1,307.3,239.24a31.578,31.578,0,0,1-17,46.243c-.474.159-.97.25-1.455.373" transform="translate(-148.967 -111.761)" fill="#d0d9f7"/><path d="M287.521,345.641l.881-.182-.881.182" transform="translate(-148.565 -171.348)" fill="#d0d9f7"/><path d="M266.223,245.474c0,.819.052,1.641-.01,2.455-.195,2.6-.242,4.974,2.864,6.221,1.055.424,1.814,1.877,2.431,3.009a1.9,1.9,0,0,0,2.033,1.184c1.822-.077,3.653-.061,5.477,0a2.76,2.76,0,0,1,2.879,2.645,2.826,2.826,0,0,1-2.778,2.972c-1.947.1-3.908-.046-5.851.084a2.362,2.362,0,0,0-1.644,1.022c-2.145,3.836-5.76,5.719-9.884,5.016a9.115,9.115,0,0,1-2.26-17.173,2.289,2.289,0,0,0,1.02-1.636c.09-3.775.034-7.553.052-11.33.01-2.243,1.018-3.487,2.789-3.525,1.869-.04,2.866,1.19,2.88,3.579.011,1.826,0,3.651,0,5.477m-2.761,19.033a3.437,3.437,0,0,0,3.393-3.335,3.565,3.565,0,0,0-3.487-3.483,3.437,3.437,0,0,0-3.331,3.581,3.286,3.286,0,0,0,3.425,3.237" transform="translate(-132.133 -117.371)" fill="#030303"/><path d="M269.056,285.359a3.286,3.286,0,0,1-3.425-3.237,3.437,3.437,0,0,1,3.331-3.581,3.565,3.565,0,0,1,3.487,3.483,3.437,3.437,0,0,1-3.393,3.335" transform="translate(-137.728 -138.223)" fill="#f7d63e"/></g></g><g transform="translate(-7646.136 -6193.512)"><g transform="translate(0 17.797)"><path d="M0,108.011a2.34,2.34,0,0,0,.27-.461,8.22,8.22,0,0,1,6.794-6.05,29.849,29.849,0,0,1-.226-4.779,7.8,7.8,0,0,1,4.182-6.007,1.325,1.325,0,0,0,.634-.891c.04-4.751.028-9.5.025-14.255a3.66,3.66,0,0,0-.069-.464c-1.969.388-3.909.764-5.845,1.154-1.466.3-2.092-.092-2.472-1.573-.5-1.95-1-3.9-1.483-5.852-.36-1.466.149-2.207,1.644-2.469a8.436,8.436,0,0,1,1.726-.285c1.459.059,2-.7,2.414-2.013,1.638-5.2,3.412-10.348,5.108-15.526a2.992,2.992,0,0,1,1.483-1.814q17.247-9.551,34.465-19.154a2.519,2.519,0,0,1,2.73.014q17.128,9.562,34.289,19.063a3.3,3.3,0,0,1,1.655,2.021c1.783,5.454,3.627,10.888,5.418,16.339a1.071,1.071,0,0,0,1.042.893c1.032.106,2.057.3,3.076.5a1.548,1.548,0,0,1,1.381,1.977c-.5,2.281-1.071,4.549-1.68,6.8A1.665,1.665,0,0,1,94.379,76.3c-1.719-.346-3.435-.7-5.154-1.048-.277-.055-.563-.064-.886-.1V98.2a16.676,16.676,0,0,1,2.981.028,6.5,6.5,0,0,1,5.316,6.533,1.408,1.408,0,0,0,.682,1.332,6.465,6.465,0,0,1,2.162,7.742c-.1.238-.194.474-.318.775l.778.152v3.274H98.876q-48.906,0-97.811,0c-.355,0-.709-.041-1.064-.063v-3.321H1.51L0,111.332v-3.321m69.923,3.319.938-3.323a7.2,7.2,0,0,1,4.311-3.151c.644-.046,1.29-.078,1.932-.146.2-.022.495-.081.583-.224a7.711,7.711,0,0,1,4.256-3.051,10.852,10.852,0,0,1,1.542-.04c.942.1,1.3-.555,1.443-1.219a9.5,9.5,0,0,0,0-2.123q0-1.663,0-3.326t0-3.315q0-1.663,0-3.326t0-3.315q0-1.663,0-3.326t.006-3.315q0-1.663-.007-3.326a6.038,6.038,0,0,0-.679-3.547l-1.088-3.29-1.135-3.32L80.954,61.31l-.5-1.347c-.583-1.822-1.148-3.65-1.768-5.46a1.451,1.451,0,0,0-.677-.635Q64.293,46.224,50.553,38.622a1.347,1.347,0,0,0-1.11.014Q35.694,46.224,21.979,53.872a1.455,1.455,0,0,0-.68.631c-.62,1.809-1.186,3.638-1.769,5.46l-.5,1.347-1.074,3.336-1.134,3.32-1.088,3.29a6.038,6.038,0,0,0-.679,3.547q0,1.663-.007,3.326t.006,3.315q0,1.663,0,3.326l0,3.315V89.68a9.292,9.292,0,0,1,5.261,1.912l2.365,3.133.7,3.343-.631,3.413.878.091a9.481,9.481,0,0,1,4.882,3.319l1.373,3.121.006,3.323-1.316,3.283h9.693v-3.283q0-1.662,0-3.324t0-3.318q0-1.662,0-3.324t0-3.318V94.727q0-1.659,0-3.318V88.065c-.585,0-1.069.018-1.551,0-1.422-.064-2.844-.144-4.266-.218-1.1-.8-.7-2.009-.835-3.073q0-1.664,0-3.328c.114-1.155-.248-2.442.924-3.3.681-.021,1.363-.06,2.044-.061q15.413-.006,30.827,0c.681,0,1.363.04,2.044.061a11.464,11.464,0,0,1,.859,1.756,6,6,0,0,1,.066,1.544q0,1.664,0,3.328c-.13,1.065.264,2.273-.836,3.073l-5.816.341v6.543q0,1.662,0,3.324t0,3.318q0,1.662,0,3.324t0,3.318q0,1.662,0,3.324v3.313h8.932l-.73-3.316M17.9,112.925a4.843,4.843,0,0,0,5.616,1.426,4.946,4.946,0,0,0,3.119-4.817,4.764,4.764,0,0,0-3.381-4.487,4.922,4.922,0,0,0-5.354,7.879m-7.935-7.859a4.823,4.823,0,0,0-5.679,1.72,4.875,4.875,0,0,0,.242,6.1,4.885,4.885,0,0,0,5.611,1.487,4.966,4.966,0,0,0,3.163-4.891,4.745,4.745,0,0,0-3.337-4.419M16.6,93.374a4.959,4.959,0,1,0,.14,9.358,4.946,4.946,0,0,0,3.229-4.85A4.787,4.787,0,0,0,16.6,93.374M94.572,69.432c-.931-.162-1.72-.365-2.519-.422a2.2,2.2,0,0,1-2.084-1.824c-1.628-5-3.421-9.957-4.937-14.994a6.219,6.219,0,0,0-3.389-4c-5.594-2.977-11.1-6.128-16.634-9.209Q57.809,34.981,50.6,31a1.293,1.293,0,0,0-1.047-.074c-2.379,1.271-4.729,2.6-7.086,3.908q-12.866,7.157-25.74,14.3a2.323,2.323,0,0,0-1.187,1.422C13.688,56.17,11.8,61.774,9.949,67.388A1.98,1.98,0,0,1,8.2,68.965c-.894.1-1.778.294-2.786.466.222.909.469,1.742.619,2.592.112.635.47.708.978.6,1.428-.294,2.848-.645,4.287-.868a1.141,1.141,0,0,0,1.021-.952c1.937-5.86,3.912-11.708,5.827-17.575a3.421,3.421,0,0,1,1.764-2.065c3.908-2.134,7.791-4.314,11.684-6.474q8.611-4.777,17.22-9.56a2.24,2.24,0,0,1,2.472.04c.47.289.973.525,1.456.794Q66.46,43.6,80.182,51.22a3.241,3.241,0,0,1,1.633,1.939Q84.714,62,87.695,70.82c.108.32.37.76.638.826,1.573.385,3.165.7,4.762.97a.929.929,0,0,0,.785-.431c.284-.854.451-1.746.692-2.753m-9.6,45.26v0c2.8,0,5.592.025,8.387-.009a3.23,3.23,0,0,0,3.231-2.705,3.35,3.35,0,0,0-2-3.638c-1.674-.749-1.828-1.061-1.394-2.833a3.3,3.3,0,0,0-6.32-1.88c-.507,1.27-1.143,1.642-2.295,1.341-2.2-.573-3.57.118-4.486,2.257a1.669,1.669,0,0,1-2.181,1.089,5.105,5.105,0,0,0-1.716-.2,3.3,3.3,0,0,0,.482,6.579c2.763.028,5.527.007,8.29.007M35.025,84.67H64.945V81.49H35.025Zm8.135,3.449,6.834,10.253,6.83-10.253Zm6.833,16.265-6.815,10.245H56.81l-6.817-10.245m8.345-12.313a2.2,2.2,0,0,0-.321.277c-1.894,2.836-3.8,5.664-5.647,8.53a1.343,1.343,0,0,0,.093,1.176c1.763,2.727,3.58,5.42,5.375,8.127a3.729,3.729,0,0,1,.26.584l.24-.229ZM41.648,110.752a5.126,5.126,0,0,0,.382-.418c1.859-2.782,3.7-5.573,5.583-8.341a.994.994,0,0,0-.075-1.3c-1.8-2.665-3.572-5.348-5.359-8.021-.126-.189-.294-.351-.531-.63Z" transform="translate(0 -25.215)" fill="#020201"/><path d="M0,429.439l1.51,3.32H0v-3.32" transform="translate(0 -343.322)" fill="#f7f7f7"/><path d="M284.538,17.8l24.988,13.9-1.619,2.915L282.919,20.713l1.619-2.916" transform="translate(-223.731 -17.797)" fill="#040404"/><path d="M422.625,94.562l-1.613,2.909-2.673-1.485,1.611-2.909,2.675,1.485" transform="translate(-330.821 -77.328)" fill="#080808"/><path d="M93.353,102.8c.583-1.822,1.149-3.651,1.769-5.46a1.453,1.453,0,0,1,.68-.631q13.72-7.638,27.463-15.235a1.346,1.346,0,0,1,1.11-.014q13.746,7.592,27.458,15.246a1.45,1.45,0,0,1,.677.635c.62,1.809,1.185,3.637,1.768,5.459-.547-.256-1.092-.517-1.641-.768a8.308,8.308,0,0,0-2.617-1.132c-2.626-.147-5.266-.042-7.9-.036l-3.242-.01-5.161.007-1.192-3.3h12.41l.051-.25c-1.23-.759-2.5-1.467-3.678-2.293a4.946,4.946,0,0,0-3.115-.828c-2.5.053-5.007.009-7.51.025a5.6,5.6,0,0,0-1.01.189c-.449-.258-.883-.547-1.35-.768a10.1,10.1,0,0,0-10.362.77,5.583,5.583,0,0,0-1.01-.191c-2.438-.017-4.878.035-7.314-.027a5.42,5.42,0,0,0-3.481.924c-1.131.807-2.341,1.5-3.516,2.247,2.132.169,4.178.165,6.225.17,2.08.006,4.161.021,6.241.032l-1.193,3.3-5.158-.006-3.241.01c-2.5-.006-5.01-.058-7.513.012a5.951,5.951,0,0,0-2.077.628c-.879.38-1.715.86-2.569,1.3m40.8-11.937.1-.195c-1.446-.9-2.877-1.824-4.348-2.68a3.1,3.1,0,0,0-1.443-.408c-2.375-.041-4.753.052-7.125-.041a7.1,7.1,0,0,0-5.1,1.347,27.015,27.015,0,0,1-2.869,1.806l.1.17Z" transform="translate(-73.823 -68.049)" fill="#a3314f"/><path d="M115.034,83.29c-.241,1.007-.409,1.9-.692,2.753a.928.928,0,0,1-.784.431c-1.6-.271-3.189-.585-4.762-.97-.268-.066-.531-.506-.638-.826q-2.968-8.821-5.879-17.661a3.242,3.242,0,0,0-1.633-1.94Q86.915,57.469,73.2,49.824c-.483-.269-.985-.5-1.455-.793a2.24,2.24,0,0,0-2.472-.041q-8.6,4.8-17.22,9.56c-3.893,2.16-7.776,4.34-11.684,6.474a3.42,3.42,0,0,0-1.764,2.065c-1.915,5.868-3.891,11.715-5.827,17.576a1.141,1.141,0,0,1-1.021.952c-1.439.223-2.859.574-4.287.868-.509.1-.867.032-.978-.6-.15-.85-.4-1.682-.619-2.592,1.008-.172,1.892-.363,2.786-.466a1.98,1.98,0,0,0,1.75-1.577C32.266,75.633,34.15,70.028,36,64.412a2.322,2.322,0,0,1,1.187-1.422q12.885-7.124,25.74-14.3c2.357-1.311,4.707-2.637,7.086-3.908a1.293,1.293,0,0,1,1.047.074q7.222,3.967,14.414,7.988c5.539,3.081,11.04,6.232,16.634,9.209a6.219,6.219,0,0,1,3.389,4c1.516,5.037,3.309,9.99,4.937,14.994a2.2,2.2,0,0,0,2.084,1.824c.8.057,1.587.26,2.519.422" transform="translate(-20.463 -39.073)" fill="#344e5a"/><path d="M140.929,237.87a6.038,6.038,0,0,1,.679,3.547H71.737a6.038,6.038,0,0,1,.679-3.547c.358.012.715.035,1.072.035q33.184,0,66.368,0c.358,0,.715-.023,1.072-.035" transform="translate(-56.68 -191.83)" fill="#b55a72"/><path d="M71.945,254.824h69.871q0,1.663.007,3.326l-17.485.015c-.681-.021-1.363-.06-2.044-.061q-15.414-.006-30.827,0c-.681,0-1.363.04-2.044.061l-17.485-.015q0-1.663.007-3.326" transform="translate(-56.888 -205.237)" fill="#a3314f"/><path d="M143.732,225.313c-.357.012-.715.035-1.072.035q-33.184,0-66.368,0c-.357,0-.715-.023-1.072-.035l1.088-3.29q8.34,0,16.679,0c3.576,0,7.152-.023,10.728-.036a25.64,25.64,0,0,0,3.088,1.383,10,10,0,0,0,8.45-1.376l27.392.026,1.088,3.29" transform="translate(-59.483 -179.273)" fill="#a3314f"/><path d="M362.046,395.16c-2.763,0-5.527.021-8.29-.007a3.3,3.3,0,0,1-.482-6.579,5.1,5.1,0,0,1,1.716.2,1.669,1.669,0,0,0,2.181-1.09c.916-2.139,2.289-2.83,4.486-2.257,1.152.3,1.787-.071,2.295-1.341a3.3,3.3,0,0,1,6.32,1.88c-.434,1.772-.28,2.084,1.394,2.833a3.35,3.35,0,0,1,2,3.638,3.229,3.229,0,0,1-3.231,2.705c-2.8.034-5.592.009-8.387.009Z" transform="translate(-277.073 -305.682)" fill="#87bd3f"/><rect width="29.919" height="3.179" transform="translate(35.025 56.276)" fill="#344d5a"/><path d="M107.826,209.536c-3.576.013-7.152.033-10.728.036q-8.339.007-16.679,0l1.134-3.32,23.275-.007,3,3.295" transform="translate(-63.595 -166.818)" fill="#b55a72"/><path d="M293.969,209.57l-27.392-.026,2.986-3.3,23.272.007,1.135,3.32" transform="translate(-210.808 -166.819)" fill="#b55a72"/><path d="M318.229,317.406q0,1.663,0,3.326H295.017v-3.225l5.816-.341a5.214,5.214,0,0,0,1.082.233q8.157.021,16.314.008" transform="translate(-233.298 -254.536)" fill="#a3314f"/><path d="M318.231,350.064q0,1.663,0,3.326H295.019q0-1.662,0-3.324h23.212" transform="translate(-233.3 -280.552)" fill="#a3314f"/><path d="M318.23,337.528H295.019q0-1.659,0-3.317h23.213q0,1.658,0,3.315" transform="translate(-233.299 -268.017)" fill="#b55a72"/><path d="M295.017,365.957H318.23a9.515,9.515,0,0,1,0,2.123c-.145.664-.5,1.323-1.443,1.219a10.885,10.885,0,0,0-1.543.04c-.453-.022-.9-.061-1.357-.061q-9.434-.007-18.867,0,0-1.659,0-3.317" transform="translate(-233.298 -293.121)" fill="#b55a72"/><path d="M109.115,193.659l-23.275.007,1.074-3.336,12.62.014,3.318.007,5.1-.014,1.158,3.322" transform="translate(-67.882 -154.236)" fill="#a3314f"/><path d="M304.12,193.667l-23.272-.007L282,190.338l5.105.015,3.318-.007,12.62-.014,1.073,3.336" transform="translate(-222.094 -154.236)" fill="#a3314f"/><path d="M89.354,317.165c1.422.074,2.843.154,4.266.218.482.022.966,0,1.551,0v3.345q-8.468,0-16.937.006a5.944,5.944,0,0,0-1.015.175A9.293,9.293,0,0,0,71.959,319v-1.594q8.157,0,16.313-.008a5.2,5.2,0,0,0,1.082-.233" transform="translate(-56.905 -254.536)" fill="#a3314f"/><path d="M206.3,318.479H219.97l-6.83,10.253L206.3,318.479" transform="translate(-163.145 -255.575)" fill="#a3314f"/><path d="M213.208,396.226l6.817,10.245H206.393l6.815-10.245" transform="translate(-163.215 -317.057)" fill="#a3314f"/><path d="M255.927,337.369v18.465l-.24.229a3.775,3.775,0,0,0-.26-.584c-1.795-2.707-3.611-5.4-5.375-8.127a1.343,1.343,0,0,1-.093-1.176c1.846-2.867,3.753-5.694,5.647-8.53a2.211,2.211,0,0,1,.321-.277" transform="translate(-197.589 -270.513)" fill="#a3314f"/><path d="M199.081,355.931V337.218c.237.279.4.441.531.63,1.787,2.674,3.559,5.357,5.359,8.021a.994.994,0,0,1,.075,1.3c-1.88,2.768-3.724,5.559-5.583,8.341a5.126,5.126,0,0,1-.382.418" transform="translate(-157.433 -270.394)" fill="#a3314f"/><path d="M295.017,381.814q9.434,0,18.867,0c.452,0,.9.04,1.357.061a7.712,7.712,0,0,0-4.256,3.051c-.088.143-.379.2-.583.224-.642.068-1.288.1-1.932.146a6.7,6.7,0,0,0-1.022-.158q-6.216-.016-12.431-.006,0-1.662,0-3.324" transform="translate(-233.298 -305.66)" fill="#a3314f"/><path d="M89.347,305.544a5.2,5.2,0,0,1-1.082.233q-8.157.021-16.313.008l0-3.316H88.512c.131,1.065-.267,2.273.835,3.073" transform="translate(-56.898 -242.915)" fill="#b55a72"/><path d="M340.212,305.785q-8.157,0-16.314-.008a5.216,5.216,0,0,1-1.082-.233c1.1-.8.706-2.009.837-3.074h16.562q0,1.658,0,3.315" transform="translate(-255.282 -242.915)" fill="#b55a72"/><path d="M71.938,270.723l17.485.014c-1.172.858-.81,2.146-.924,3.3H71.944q0-1.658-.006-3.315" transform="translate(-56.888 -217.81)" fill="#b55a72"/><path d="M322.414,270.738l17.485-.015q0,1.658-.006,3.315H323.338a5.989,5.989,0,0,0-.065-1.544,11.454,11.454,0,0,0-.859-1.756" transform="translate(-254.964 -217.81)" fill="#b55a72"/><path d="M97.105,334.388a5.95,5.95,0,0,1,1.015-.175q8.468-.016,16.937-.006,0,1.659,0,3.318l-15.586,0-2.365-3.133" transform="translate(-76.79 -268.012)" fill="#b55a72"/><path d="M326.819,286.568h16.555q0,1.663,0,3.326H326.815q0-1.664,0-3.328" transform="translate(-258.444 -230.34)" fill="#a3314f"/><path d="M71.954,286.568H88.508q0,1.664,0,3.328H71.95q0-1.663,0-3.326" transform="translate(-56.898 -230.339)" fill="#a3314f"/><path d="M124.255,365.957q0,1.659,0,3.318-6.768,0-13.536.01a6.464,6.464,0,0,0-1.1.192l-.878-.091.631-3.413,14.887-.016" transform="translate(-85.989 -293.121)" fill="#b55a72"/><path d="M124,353.383l-14.887.016-.7-3.343,15.586,0q0,1.662,0,3.324" transform="translate(-85.731 -280.546)" fill="#a3314f"/><path d="M112.932,382.017a6.461,6.461,0,0,1,1.1-.192c4.512-.014,9.024-.01,13.536-.01q0,1.662,0,3.324c-2.917,0-5.834-.008-8.751.007a5.518,5.518,0,0,0-1.007.191,9.481,9.481,0,0,0-4.882-3.319" transform="translate(-89.306 -305.661)" fill="#a3314f"/><path d="M48.909,350.236a4.93,4.93,0,0,1,5.447-7.794c.1,1.832.053,3.636-1.137,5.184a5.757,5.757,0,0,1-4.31,2.61" transform="translate(-37.759 -274.283)" fill="#ffb500"/><path d="M27.082,399.489a4.745,4.745,0,0,1,3.337,4.419,4.966,4.966,0,0,1-3.163,4.891,4.885,4.885,0,0,1-5.61-1.487,6.086,6.086,0,0,0,4.994-4.2,16.106,16.106,0,0,0,.442-3.62" transform="translate(-17.118 -319.638)" fill="#ffb500"/><path d="M80.865,406.126a4.922,4.922,0,0,1,5.354-7.879c0,.519-.044,1.04-.008,1.556a6.43,6.43,0,0,1-5.346,6.323" transform="translate(-62.965 -318.416)" fill="#ffb500"/><path d="M53.3,351.392a5.757,5.757,0,0,0,4.31-2.61c1.19-1.547,1.233-3.351,1.137-5.184a4.786,4.786,0,0,1,3.369,4.508,4.946,4.946,0,0,1-3.229,4.85,4.868,4.868,0,0,1-5.587-1.564" transform="translate(-42.149 -275.439)" fill="#ffb500"/><path d="M22.545,398.247a16.106,16.106,0,0,1-.442,3.62,6.086,6.086,0,0,1-4.994,4.2,4.875,4.875,0,0,1-.242-6.1,4.824,4.824,0,0,1,5.679-1.72" transform="translate(-12.58 -318.395)" fill="#ffb500"/><path d="M85.562,407.272a6.43,6.43,0,0,0,5.346-6.323c-.037-.516,0-1.037.008-1.556A4.764,4.764,0,0,1,94.3,403.88a4.945,4.945,0,0,1-3.118,4.817,4.843,4.843,0,0,1-5.616-1.425" transform="translate(-67.662 -319.562)" fill="#ffb500"/><path d="M339.117,177.76l-12.62.014q-.018-1.649-.037-3.3c2.635-.006,5.274-.111,7.9.036a8.31,8.31,0,0,1,2.617,1.132c.549.252,1.094.512,1.641.768l.5,1.347" transform="translate(-258.163 -141.665)" fill="#b55a72"/><path d="M103.592,177.839l-12.62-.014.5-1.348c.854-.437,1.69-.918,2.569-1.3a5.953,5.953,0,0,1,2.077-.628c2.5-.07,5.008-.018,7.513-.012l-.037,3.3" transform="translate(-71.94 -141.73)" fill="#b55a72"/><path d="M295.015,397.7q6.216,0,12.431.006a6.688,6.688,0,0,1,1.022.158,7.2,7.2,0,0,0-4.311,3.152l-9.143,0q0-1.659,0-3.318" transform="translate(-233.296 -318.219)" fill="#b55a72"/><path d="M136.27,397.892a5.5,5.5,0,0,1,1.007-.191c2.917-.015,5.834-.008,8.751-.007q0,1.659,0,3.318h-8.386l-1.373-3.121" transform="translate(-107.762 -318.217)" fill="#b55a72"/><path d="M146.265,429.448v3.283h-9.693l1.316-3.283h8.377" transform="translate(-108.001 -343.329)" fill="#b55a72"/><path d="M295.013,413.551l9.143,0-.939,3.323-8.2,0,0-3.324" transform="translate(-233.295 -330.756)" fill="#a3314f"/><path d="M295.025,429.435l8.2,0,.73,3.316h-8.932Z" transform="translate(-233.305 -343.316)" fill="#b55a72"/><path d="M151.217,416.884H142.84l-.006-3.323h8.386l0,3.324" transform="translate(-112.953 -330.765)" fill="#a3314f"/><path d="M211.393,146.513l-1.155,3.322-2.986,3.3a10,10,0,0,1-8.45,1.376,25.627,25.627,0,0,1-3.088-1.383l-3-3.295-1.158-3.321.014-3.294,1.193-3.3,2.856-3.155a10.1,10.1,0,0,1,10.362-.77c.467.22.9.51,1.35.768l2.853,3.157,1.192,3.3q.008,1.647.016,3.294m-11.616.105h-4.641c.495,2.31,2.828,4.56,4.641,4.51Zm3.433-.02v4.633A6.083,6.083,0,0,0,207.8,146.6Zm.014-3.452h4.531a6.021,6.021,0,0,0-4.531-4.557Zm-3.44.032c0-1.437,0-2.765,0-4.094a4.11,4.11,0,0,0-.055-.474c-2.144.358-4.34,2.58-4.5,4.568Z" transform="translate(-151.483 -110.411)" fill="#010202"/><path d="M209.812,114.217H189.127l-.1-.17a27.014,27.014,0,0,0,2.869-1.806,7.1,7.1,0,0,1,5.1-1.347c2.372.093,4.75,0,7.125.041a3.1,3.1,0,0,1,1.443.408c1.471.856,2.9,1.781,4.348,2.68l-.1.195" transform="translate(-149.482 -91.406)" fill="#b55a72"/><path d="M269.812,146.085l-2.853-3.157a5.6,5.6,0,0,1,1.01-.189c2.5-.016,5.008.028,7.51-.025a4.946,4.946,0,0,1,3.115.828c1.182.827,2.448,1.534,3.677,2.293l-.051.25Z" transform="translate(-211.11 -116.578)" fill="#b55a72"/><path d="M153.062,142.919l-2.856,3.155c-2.08-.011-4.16-.026-6.241-.032-2.046-.006-4.093,0-6.225-.171,1.175-.744,2.386-1.44,3.516-2.247a5.42,5.42,0,0,1,3.481-.923c2.437.062,4.876.01,7.314.027a5.561,5.561,0,0,1,1.01.191" transform="translate(-108.925 -116.568)" fill="#b55a72"/><path d="M286.311,177.887q-.008-1.647-.016-3.294l5.161-.007q-.02,1.658-.04,3.315l-5.105-.014" transform="translate(-226.401 -141.785)" fill="#b55a72"/><path d="M172.124,174.593l-.014,3.294-5.1.014q-.02-1.658-.04-3.315l5.158.007" transform="translate(-132.036 -141.785)" fill="#b55a72"/><path d="M310.774,177.9q.02-1.657.04-3.315l3.242.01q.018,1.649.037,3.3l-3.318.007" transform="translate(-245.759 -141.785)" fill="#040101"/><path d="M154.573,174.586q.02,1.658.04,3.315l-3.318-.007q.019-1.649.037-3.3l3.241-.01" transform="translate(-119.644 -141.785)" fill="#040101"/><path d="M213.3,190.868v4.51c-1.813.05-4.147-2.2-4.641-4.51Z" transform="translate(-165.008 -154.661)" fill="#008fb4"/><path d="M247.255,190.772h4.585a6.083,6.083,0,0,1-4.585,4.633Z" transform="translate(-195.528 -154.585)" fill="#008fb4"/><path d="M247.322,157.046V152.49a6.021,6.021,0,0,1,4.531,4.556Z" transform="translate(-195.581 -124.312)" fill="#0091b6"/><path d="M213.654,157.154H209.1c.16-1.988,2.356-4.21,4.5-4.568a4.107,4.107,0,0,1,.055.474c0,1.328,0,2.657,0,4.094" transform="translate(-165.353 -124.388)" fill="#0091b6"/></g></g></g></svg>