<svg xmlns="http://www.w3.org/2000/svg" width="221.569" height="183.611" viewBox="0 0 221.569 183.611"><g transform="translate(7752.095 8010.027)"><g transform="translate(-7718.958 -8010.027)"><g transform="translate(0 0)"><path d="M289.477,120.247a38.917,38.917,0,0,1,13.942,12.985,36.145,36.145,0,0,1-2.544,41.686c-.545.659-1.074,1.33-1.682,2.086,3.595,6.23,7.207,12.454,10.781,18.7,1.88,3.285,3.7,6.6,5.527,9.919.364.663.609,1.391.91,2.089v4.416a36.283,36.283,0,0,1-2.16,3.72,10.347,10.347,0,0,1-17.215-.679c-2.414-3.822-4.549-7.819-6.827-11.728a12.988,12.988,0,0,0-.971-1.285c-2.709-4.809-5.413-9.62-8.15-14.412-.078-.137-.508-.073-.775-.1-5.162.944-10.374,1.22-15.429-.256-3.769-1.1-7.354-2.826-11.021-4.273a40.311,40.311,0,0,1-11.324-11.108c-.208-.372-.408-.749-.626-1.116a35.042,35.042,0,0,1-4.53-25.084c3.83-20.182,22.615-32.683,42.931-28.759l9.164,3.2m8.465,65.766-2.875-5.08-8.6,4.983,2.991,4.978c4.049,7.063,8.055,14.15,12.168,21.175a4.807,4.807,0,0,0,6.829,1.829,4.937,4.937,0,0,0,1.644-6.905c-4-7.021-8.1-13.991-12.153-20.981m-25.1-64.234c-16.771-.177-30.306,13.42-30.519,30.66-.206,16.7,13.385,30.267,30.75,30.376,15.721.1,30.132-12.579,30.317-30.7.166-16.342-13.682-30.162-30.547-30.339" transform="translate(-127.978 -65.461)" fill="#040302"/><path d="M159.59,75.423c-20.316-3.924-39.1,8.577-42.931,28.759a35.041,35.041,0,0,0,4.53,25.084c.218.367.418.744.625,1.115q-.026,2.916-.051,5.833c-1.889.314-2.679,1.476-2.654,3.339.031,2.321-.016,4.643.013,6.964s1.033,3.312,3.4,3.338q4.948.054,9.9,0c2.008-.018,3.15-.9,3.318-2.437.178-1.625-.585-2.534-2.624-3.124q.014-1.4.029-2.805c3.667,1.447,7.253,3.173,11.021,4.273,5.056,1.476,10.267,1.2,15.429.256q.01,7.052.021,14.1c-.243.024-.487.069-.731.069q-71.541,0-143.081,0c-2.264,0-3.016-.806-3.016-3.166q-.007-56.092,0-112.185c0-2.31.783-3.1,3.082-3.109,3.8-.021,7.6-.053,11.4.013,1.937.034,3.182-.681,3.6-2.627h5.421c.885,2.327,1.327,2.607,4.177,2.607q58.286,0,116.572,0c.734,0,1.467.041,2.2.064a10.454,10.454,0,0,1,.371,1.953q.017,15.841-.021,31.681M95.815,89.843c-3.022-1.712-6.023-3.359-8.952-5.127a2.229,2.229,0,0,1-.875-1.679c.162-5.606-3.874-10.038-9.22-10.013a9.178,9.178,0,0,0-9.091,9.886,1.806,1.806,0,0,1-1.13,1.975q-3.714,2.005-7.335,4.179a2.131,2.131,0,0,1-2.721-.057,8.542,8.542,0,0,0-10.009-.062,8.642,8.642,0,0,0-4.07,9.008,9.142,9.142,0,0,0,18.177-1.789,2.063,2.063,0,0,1,1.24-2.288c2.545-1.336,4.985-2.872,7.534-4.2a2.428,2.428,0,0,1,2.047.028,9.321,9.321,0,0,0,10.706.047,2.442,2.442,0,0,1,2.045-.114c2.605,1.351,5.1,2.91,7.7,4.287a1.951,1.951,0,0,1,1.169,2.155,9,9,0,0,0,5.634,9.027,9.208,9.208,0,0,0,11.459-13.1,2.153,2.153,0,0,1,.088-1.85c4.511-6.414,9.1-12.772,13.64-19.167a1.6,1.6,0,0,1,1.939-.767,9.15,9.15,0,0,0,10.458-11.593,8.77,8.77,0,0,0-7.294-6.446,8.61,8.61,0,0,0-8.859,3.634c-2.221,3.026-2.333,6.313-.763,9.722a2.526,2.526,0,0,1,.1,2.055q-6.8,9.71-13.781,19.291a1.844,1.844,0,0,1-1.423.747,9.8,9.8,0,0,0-8.412,2.205M85.188,127.869c0-6.127.017-12.254-.008-18.381-.011-2.676-1.013-3.672-3.66-3.694-3.186-.026-6.372-.032-9.558,0-2.533.028-3.545,1.048-3.549,3.616q-.025,18.473,0,36.946c0,2.449,1.043,3.472,3.471,3.5,3.124.034,6.249.016,9.374.006,3.008-.009,3.919-.926,3.925-3.981q.017-9.007,0-18.014m8.563,7.027c0,3.8-.016,7.6.006,11.407.014,2.475,1.007,3.525,3.414,3.553q4.967.057,9.935,0c2.338-.028,3.365-1.02,3.377-3.391q.058-11.591,0-23.182c-.012-2.378-1-3.309-3.4-3.339-3.25-.042-6.5-.035-9.751,0-2.674.026-3.57.979-3.579,3.734-.012,3.741,0,7.482,0,11.223m-33.9,0c0-3.741.011-7.482,0-11.224-.011-2.8-.941-3.72-3.773-3.739-3.128-.02-6.256-.027-9.384,0-2.619.025-3.6.945-3.608,3.524q-.048,11.407,0,22.815c.011,2.582,1.023,3.559,3.58,3.58q4.784.038,9.568,0c2.636-.02,3.6-1.026,3.617-3.735.017-3.741,0-7.482,0-11.224" transform="translate(-7.255 -23.837)" fill="#e2e2e2"/><path d="M24.41,35.694c-.422,1.946-1.667,2.661-3.6,2.627-3.8-.066-7.6-.034-11.4-.013-2.3.013-3.081.8-3.082,3.109q-.009,56.092,0,112.185c0,2.36.752,3.166,3.016,3.166q71.54.011,143.081,0c.243,0,.487-.045.731-.069,2.009.058,4.08.01,4.551,2.68-.47,2.248-1.216,2.9-3.491,2.91-5.2.019-10.4.006-15.811.006,0,1.785.008,3.478,0,5.171-.026,4.647-2.488,7.159-7.157,7.179-8.277.034-16.555.01-24.833.01h-1.862c.362.766.622,1.358.916,1.933q5.846,11.428,11.706,22.85c.632,1.23,1.017,2.557-.113,3.534a3.461,3.461,0,0,1-2.747.82,4.545,4.545,0,0,1-2.2-2.2c-4.267-8.184-8.517-16.379-12.6-24.655a3.609,3.609,0,0,0-3.9-2.331c-8.583.12-17.168.1-25.752.011a2.886,2.886,0,0,0-3.088,1.825C62.611,184.75,58.344,193,54.111,201.274a13.83,13.83,0,0,1-.794,1.445,2.571,2.571,0,0,1-3.534.969,2.5,2.5,0,0,1-1.3-3.406,16.433,16.433,0,0,1,.784-1.656Q54.9,187.6,60.537,176.586c.271-.531.517-1.076.926-1.929H59.31q-11.956,0-23.913,0c-5.452,0-7.744-2.273-7.747-7.661,0-1.517,0-3.034,0-4.7-6.327,0-12.5.029-18.679-.01A7.774,7.774,0,0,1,.988,156.04,12.423,12.423,0,0,1,.8,153.482Q.79,97.562.8,41.642c0-5.723,3.137-8.85,8.871-8.862,3.74-.008,7.481-.019,11.221.006,2.254.015,2.989.654,3.522,2.909M126.593,169.052c1.635.05,3.274.187,4.9.1.489-.027,1.319-.652,1.349-1.051.142-1.909.064-3.835.064-5.764h-6.265c-.306-.012-.612-.035-.918-.035q-45.6,0-91.2,0c-.41,0-.82.036-1.354.062,0,1.46,0,2.8,0,4.13,0,2.619,0,2.62,2.6,2.621q44.4.01,88.806.016c.672,0,1.344-.051,2.016-.077" transform="translate(-0.795 -20.418)" fill="#030302"/><path d="M186.738,23.924c-.734-.022-1.468-.064-2.2-.064q-58.286,0-116.572,0c-2.85,0-3.292-.28-4.177-2.607.644-2.4,1.318-2.913,3.911-2.914q15.906-.009,31.812,0h2.162c0-1.78-.024-3.419,0-5.056.075-4.287,2.669-7.121,6.9-7.214q8.363-.182,16.732,0c4.215.087,6.9,2.971,6.972,7.174.027,1.642,0,3.285,0,5.1h2.081q27.767,0,55.534,0c6.3,0,9.305,3.032,9.307,9.382q0,11.86,0,23.721c0,2.442-.608,3.2-2.862,3.758-1.97-.365-2.684-1.594-2.673-3.538.043-8.155.025-16.31.013-24.465,0-2.548-.773-3.321-3.266-3.332-1.224-.005-2.449.041-3.673.064M120.481,11.665c-3.856-.036-7.712-.125-11.566-.049a2.117,2.117,0,0,0-1.612,1.238,50,50,0,0,0-.077,5.409h19.531c0-1.772,0-3.405,0-5.038a1.5,1.5,0,0,0-1.72-1.658c-1.518.015-3.036.064-4.554.1" transform="translate(-34.752 -5.973)" fill="#030302"/><path d="M330.528,44.843c1.224-.023,2.449-.069,3.673-.064,2.494.011,3.262.784,3.266,3.332.012,8.155.03,16.31-.013,24.465-.011,1.944.7,3.173,2.673,3.538q-.044,2.782-.086,5.563l-9.164-3.2q.019-15.84.021-31.681a10.443,10.443,0,0,0-.371-1.953" transform="translate(-178.542 -26.892)" fill="#afafaf"/><path d="M335.856,287.825c-.471-2.67-2.542-2.622-4.551-2.68q-.01-7.052-.021-14.1c.266.03.7-.034.775.1,2.737,4.792,5.441,9.6,8.15,14.412-1.366.919-2.334,2.6-4.353,2.267" transform="translate(-178.95 -148.863)" fill="#afafaf"/><path d="M279.376,128.152c16.865.177,30.713,14,30.547,30.339-.184,18.117-14.6,30.794-30.317,30.7-17.364-.109-30.956-13.678-30.749-30.376.213-17.239,13.748-30.836,30.519-30.66m19.78,18.152-3.516-4.44c.9-2.167.7-3.175-.879-4.34a26.173,26.173,0,1,0-13.155,47.221c17.675-1.4,28.979-20.262,21.78-36.468-.944-2.126-1.9-2.572-4.23-1.974" transform="translate(-134.515 -71.834)" fill="#a3314f"/><path d="M359.605,267.51c4.057,6.99,8.15,13.96,12.153,20.981a4.936,4.936,0,0,1-1.644,6.9,4.807,4.807,0,0,1-6.829-1.829c-4.113-7.026-8.119-14.113-12.168-21.176l8.488-4.881" transform="translate(-189.641 -146.958)" fill="#b55a72"/><path d="M260.6,248.226q-.015,1.4-.029,2.806H252.1c0-1.712.028-3.232-.006-4.751-.047-2.1-.739-2.88-2.869-3.33q.026-2.916.051-5.833A40.29,40.29,0,0,0,260.6,248.226" transform="translate(-134.713 -130.575)" fill="#ced371"/><path d="M356.106,261.57l-8.488,4.881-2.992-4.978,8.6-4.983,2.875,5.08" transform="translate(-186.142 -141.018)" fill="#c8395e"/><path d="M130.328,104.954a9.8,9.8,0,0,1,8.412-2.2,1.846,1.846,0,0,0,1.423-.747q6.955-9.6,13.78-19.291a2.526,2.526,0,0,0-.1-2.055c-1.57-3.409-1.458-6.7.763-9.722a8.609,8.609,0,0,1,8.859-3.634,8.77,8.77,0,0,1,7.294,6.446A9.151,9.151,0,0,1,160.3,85.34a1.6,1.6,0,0,0-1.939.767c-4.539,6.395-9.129,12.752-13.64,19.167a2.15,2.15,0,0,0-.088,1.85,9.208,9.208,0,0,1-11.46,13.095,9,9,0,0,1-5.634-9.027,1.952,1.952,0,0,0-1.169-2.156c-2.593-1.376-5.09-2.935-7.7-4.287a2.443,2.443,0,0,0-2.045.114,9.322,9.322,0,0,1-10.706-.047,2.43,2.43,0,0,0-2.047-.028c-2.549,1.327-4.989,2.864-7.534,4.2a2.063,2.063,0,0,0-1.24,2.288,9.141,9.141,0,0,1-18.176,1.789,8.642,8.642,0,0,1,4.069-9.008A8.544,8.544,0,0,1,91,104.119a2.131,2.131,0,0,0,2.721.057q3.623-2.165,7.335-4.179a1.806,1.806,0,0,0,1.13-1.975,9.178,9.178,0,0,1,9.091-9.886c5.346-.024,9.381,4.407,9.22,10.013a2.232,2.232,0,0,0,.876,1.679c2.929,1.767,5.93,3.414,8.952,5.126m-19.01-11.277a3.785,3.785,0,0,0-3.66,3.611,3.656,3.656,0,1,0,7.311.017,3.794,3.794,0,0,0-3.651-3.627M89.613,111.669a3.768,3.768,0,0,0-3.65-3.61,3.828,3.828,0,0,0-3.651,3.631,3.7,3.7,0,0,0,3.763,3.655,3.665,3.665,0,0,0,3.538-3.676m47.024,3.676a3.726,3.726,0,0,0,3.677-3.567,3.859,3.859,0,0,0-3.756-3.728,3.75,3.75,0,0,0-3.54,3.715,3.594,3.594,0,0,0,3.619,3.58m21.739-38.983a3.642,3.642,0,0,0,3.632,3.62,3.735,3.735,0,0,0,3.612-3.68,3.779,3.779,0,0,0-3.672-3.637,3.69,3.69,0,0,0-3.572,3.7" transform="translate(-41.768 -38.949)" fill="#030303"/><path d="M150.238,205.827q0,9.007,0,18.013c-.006,3.056-.917,3.972-3.925,3.981-3.125.01-6.25.028-9.374-.006-2.428-.026-3.467-1.049-3.471-3.5q-.032-18.473,0-36.946c0-2.568,1.015-3.588,3.549-3.616,3.186-.035,6.372-.029,9.558,0,2.648.022,3.65,1.018,3.661,3.694.024,6.127.008,12.254.008,18.381m-5.623-16.437h-5.538v32.791h5.538Z" transform="translate(-72.304 -101.795)" fill="#050505"/><path d="M188.441,229.392c0-3.741-.009-7.482,0-11.223.009-2.754.9-3.707,3.579-3.734,3.251-.032,6.5-.039,9.752,0,2.4.031,3.385.962,3.4,3.339q.062,11.591,0,23.182c-.012,2.371-1.039,3.363-3.377,3.391q-4.967.059-9.935,0c-2.407-.028-3.4-1.078-3.414-3.553-.021-3.8-.006-7.6-.006-11.407m5.614,9.3h5.434V220.088h-5.434Z" transform="translate(-101.945 -118.334)" fill="#050606"/><path d="M95.273,229.405c0,3.741.012,7.482,0,11.223-.012,2.708-.981,3.715-3.617,3.735q-4.784.037-9.568,0c-2.557-.02-3.57-1-3.58-3.58q-.046-11.407,0-22.815c.011-2.579.988-3.5,3.608-3.524,3.127-.029,6.256-.023,9.384,0,2.832.018,3.761.943,3.773,3.739.015,3.741,0,7.482,0,11.224M84.145,238.7h5.476V220.072H84.145Z" transform="translate(-42.672 -118.342)" fill="#040404"/><path d="M246.117,249.773c2.13.45,2.822,1.227,2.869,3.33.034,1.519.006,3.038.006,4.751h8.47c2.038.59,2.8,1.5,2.624,3.124-.168,1.54-1.31,2.419-3.318,2.437q-4.948.046-9.9,0c-2.363-.026-3.366-1.028-3.4-3.338s.018-4.643-.014-6.964c-.025-1.863.765-3.024,2.655-3.339" transform="translate(-131.608 -137.397)" fill="#030303"/><path d="M164.461,320.537c-.672.027-1.344.077-2.016.077q-44.4,0-88.806-.016c-2.6,0-2.6,0-2.6-2.621,0-1.335,0-2.671,0-4.13.534-.025.944-.062,1.354-.062q45.6,0,91.2,0c.306,0,.612.023.918.035q-.025,3.359-.05,6.717" transform="translate(-38.662 -171.903)" fill="#ffb500"/><path d="M273.714,320.579q.025-3.359.05-6.717h6.265c0,1.93.078,3.855-.064,5.764-.03.4-.86,1.024-1.349,1.051-1.627.089-3.267-.048-4.9-.1" transform="translate(-147.916 -171.945)" fill="#ffb500"/><path d="M171.26,24.829H157.984a50.015,50.015,0,0,1,.077-5.41,2.117,2.117,0,0,1,1.612-1.238c3.854-.076,7.711.013,11.567.049q.01,3.3.019,6.6" transform="translate(-85.511 -12.538)" fill="#ffb500"/><path d="M186.8,24.805q-.01-3.3-.019-6.6c1.517-.035,3.036-.083,4.554-.1a1.5,1.5,0,0,1,1.72,1.658c.005,1.633,0,3.266,0,5.038Z" transform="translate(-101.055 -12.515)" fill="#ffb500"/><path d="M307.146,153.428l3.516,4.44c-2.072,1.608-1.126,3.479-.464,5.326a20.652,20.652,0,0,1-33.64,22.006,20.651,20.651,0,0,1,25.6-32.194c1.636,1.062,3.186,1.917,4.99.422" transform="translate(-146.021 -83.398)" fill="#e2e2e2"/><path d="M300.67,146.988c-1.8,1.494-3.354.64-4.99-.422a20.63,20.63,0,1,0,8.042,10.188c-.662-1.847-1.609-3.717.464-5.326,2.33-.6,3.286-.153,4.23,1.974,7.2,16.206-4.1,35.072-21.78,36.468a26.165,26.165,0,1,1,13.155-47.221c1.575,1.165,1.779,2.173.879,4.34" transform="translate(-139.545 -76.958)" fill="#030302"/><path d="M147.4,124.7a3.794,3.794,0,0,1,3.651,3.627,3.655,3.655,0,1,1-7.31-.017,3.784,3.784,0,0,1,3.66-3.611" transform="translate(-77.852 -69.977)" fill="#ced371"/><path d="M96.056,159.516a3.665,3.665,0,0,1-3.538,3.676,3.7,3.7,0,0,1-3.763-3.655,3.829,3.829,0,0,1,3.651-3.631,3.768,3.768,0,0,1,3.65,3.61" transform="translate(-48.211 -86.797)" fill="#ced371"/><path d="M202.38,163.181a3.594,3.594,0,0,1-3.619-3.58,3.75,3.75,0,0,1,3.54-3.715,3.859,3.859,0,0,1,3.756,3.728,3.726,3.726,0,0,1-3.677,3.567" transform="translate(-107.511 -86.785)" fill="#ced371"/><path d="M253.774,82.815a3.69,3.69,0,0,1,3.572-3.7,3.779,3.779,0,0,1,3.672,3.637,3.735,3.735,0,0,1-3.612,3.68,3.642,3.642,0,0,1-3.632-3.62" transform="translate(-137.167 -45.403)" fill="#ced371"/><rect width="5.538" height="32.791" transform="translate(66.773 87.594)" fill="#ced371"/><rect width="5.434" height="18.609" transform="translate(92.11 101.754)" fill="#ced371"/><rect width="5.476" height="18.624" transform="translate(41.472 101.731)" fill="#ced371"/></g></g><g transform="translate(-7752.095 -7909.437)"><g transform="translate(0 0)"><path d="M21.02,83.827c-.5-.436-.962-.89-.665-1.643s.929-.8,1.608-.794c1.646.012,3.291,0,5,0L27.984,76.3A30.172,30.172,0,0,1,13.116,56.5a14.534,14.534,0,0,1-5.966-.411,13.256,13.256,0,0,1-5.687-3.432c-.985-1.024-.975-1.569.089-2.481A106.912,106.912,0,0,0,12.307,39.743c1.889-2.146,3.706-4.364,5.448-6.631A12.921,12.921,0,0,0,20.3,24.207,21.3,21.3,0,0,1,22.4,13.37,21.617,21.617,0,0,1,37.643,1.312a22.04,22.04,0,0,1,23.271,9.916,21.133,21.133,0,0,1,3.275,12.788A14.121,14.121,0,0,0,67.4,34,108.642,108.642,0,0,0,82.325,49.61c.517.448.968.973,1.449,1.462v.811A13.414,13.414,0,0,1,71.4,56.493,30.229,30.229,0,0,1,56.544,76.324l1.017,5.07c1.751,0,3.45.006,5.149,0,.707,0,1.292.159,1.5.937s-.278,1.172-.866,1.5H52.154c-.459-.471-.9-.971-.593-1.686.329-.757,1.026-.769,1.724-.75.584.016,1.17,0,1.8,0l-.816-3.98a30.029,30.029,0,0,1-24.018.01l-.8,3.971c.7,0,1.315.016,1.933,0,.691-.023,1.335.077,1.6.811.275.762-.173,1.247-.775,1.626ZM13.4,42.321c-.2.171-.411.331-.6.516-1.976,1.956-3.932,3.933-5.928,5.869-.984.955-2.039,1.836-3.1,2.782a10.842,10.842,0,0,0,8.845,2.575,2.425,2.425,0,0,0,.028-.368,31.007,31.007,0,0,1,.239-8.47c.173-.973.332-1.947.5-2.921l.117-.022-.022-.075-.083.115m56.9,2.5a1.37,1.37,0,0,1-1.46-1.223,26.942,26.942,0,0,0-4.1-9.076,16.256,16.256,0,0,1-2.96-11.161,13.425,13.425,0,0,0-.143-3.224,19.375,19.375,0,0,0-8.81-13.717A16.894,16.894,0,0,0,45.117,3.53a38.5,38.5,0,0,0-4.976-.118A19.361,19.361,0,0,0,22.77,21.548c-.082,1.452.018,2.913-.023,4.368a17.417,17.417,0,0,1-3.291,9.148A26.792,26.792,0,0,0,15.773,56.97,27.355,27.355,0,0,0,38.014,77.129a54.817,54.817,0,0,0,5.714.237c1.575-.194,3.172-.281,4.719-.6a25.3,25.3,0,0,0,9.4-4.158,27.273,27.273,0,0,0,9.579-11.775,28.154,28.154,0,0,0,2.2-11.677c-.012-.758.206-1.324,1-1.53,1.036.095,1.405.434,1.424,1.46.03,1.636.008,3.273.008,4.963,2.42.684,6.593-.516,8.553-2.526L71.1,42.366c.173.963.6,2.029-.795,2.453" transform="translate(-0.739 -0.806)" fill="#040302"/><path d="M162.123,58.311c-.8.206-1.017.772-1,1.53a28.152,28.152,0,0,1-2.2,11.677,27.274,27.274,0,0,1-9.579,11.775,25.3,25.3,0,0,1-9.4,4.158c-1.548.324-3.145.411-4.719.6-.512-.224-1.016-.467-1.537-.668A28.3,28.3,0,0,1,121.5,78.226a27.491,27.491,0,0,1-5.24-11.083,28.513,28.513,0,0,1,4.482-22.764,13,13,0,0,0,2.629-8.551,4.855,4.855,0,0,0,.809-8.124c.419-1.1.753-2.25,1.272-3.3a19.775,19.775,0,0,1,5.638-7.058,16.645,16.645,0,0,1,5.51-3.122,16.894,16.894,0,0,1,7.712,2.887,19.376,19.376,0,0,1,8.81,13.717,13.444,13.444,0,0,1,.143,3.224,16.254,16.254,0,0,0,2.96,11.161,26.943,26.943,0,0,1,4.1,9.076,1.371,1.371,0,0,0,1.46,1.223q.165,1.4.329,2.8M141.471,39.48a15.483,15.483,0,0,0-1.021-2.39,10.622,10.622,0,0,0-4.147-3.764,4.924,4.924,0,0,0-5.078-.015,11.863,11.863,0,0,0-4.135,3.673,4.98,4.98,0,0,0-.015,6.028,11.267,11.267,0,0,0,4.133,3.67,4.6,4.6,0,0,0,3.006.7,9.767,9.767,0,0,0,5.811-3.823,6.17,6.17,0,0,0,1.446-4.076m.2-7.966c0,.323-.02.648,0,.97a3.763,3.763,0,0,0,3.243,3.493,3.638,3.638,0,0,0,4.133-2.7,8.64,8.64,0,0,0,.007-3.428,3.65,3.65,0,0,0-4.287-2.674c-2.025.384-3.126,1.91-3.1,4.34" transform="translate(-92.228 -11.496)" fill="#fedb63"/><path d="M100.635,13.527a16.645,16.645,0,0,0-5.51,3.122,19.772,19.772,0,0,0-5.638,7.058c-.519,1.055-.854,2.2-1.273,3.3-.194-.091-.386-.187-.582-.273a3.675,3.675,0,0,0-5.116,2.335,8.125,8.125,0,0,0,.026,3.653c.493,2.037,2.445,2.9,4.862,2.409a13,13,0,0,1-2.629,8.551A28.511,28.511,0,0,0,80.293,66.45a27.49,27.49,0,0,0,5.24,11.083A28.3,28.3,0,0,0,97.709,86.7c.521.2,1.025.444,1.537.668a54.813,54.813,0,0,1-5.714-.237A27.355,27.355,0,0,1,71.291,66.967,26.792,26.792,0,0,1,74.975,45.06a17.417,17.417,0,0,0,3.291-9.148c.041-1.455-.059-2.916.023-4.368A19.362,19.362,0,0,1,95.659,13.409a38.5,38.5,0,0,1,4.976.118" transform="translate(-56.257 -10.803)" fill="#fdc64f"/><path d="M343.609,210.7l-.329-2.8c1.391-.424.968-1.49.795-2.453l9.519,9.151c-1.96,2.011-6.133,3.211-8.553,2.526,0-1.69.022-3.327-.008-4.963-.019-1.026-.388-1.365-1.424-1.46" transform="translate(-273.714 -163.887)" fill="#e8ad4a"/><path d="M25.32,205.137c-.166.974-.325,1.949-.5,2.921a31,31,0,0,0-.239,8.47,2.423,2.423,0,0,1-.028.368,10.842,10.842,0,0,1-8.845-2.575c1.058-.946,2.114-1.827,3.1-2.782,2-1.936,3.952-3.913,5.928-5.869.186-.185.4-.344.6-.516l-.013-.018" transform="translate(-12.67 -163.64)" fill="#e7ac4a"/><path d="M63.044,204.774l.083-.115.022.075-.117.022.013.018" transform="translate(-50.38 -163.259)" fill="#e7ac4a"/><path d="M182.767,111.653a6.17,6.17,0,0,1-1.446,4.076,9.768,9.768,0,0,1-5.811,3.823,4.6,4.6,0,0,1-3.006-.7,11.267,11.267,0,0,1-4.133-3.67,4.98,4.98,0,0,1,.016-6.028,11.862,11.862,0,0,1,4.134-3.673,4.924,4.924,0,0,1,5.078.015,10.623,10.623,0,0,1,4.147,3.764,15.5,15.5,0,0,1,1.021,2.39m-12.224,2.139-.169-.04.108.1a11.419,11.419,0,0,0,1.452,1.7c2.7,2.151,3.5,2.156,6.212.022a14.123,14.123,0,0,0,1.365-1.406l-.154-.215c-.237.082-.477.156-.711.247a7.885,7.885,0,0,1-4.809.664c-1.118-.274-2.2-.71-3.293-1.073m-.235-3.141c3.4,2.583,6.552,2.434,9.484-.007a8.9,8.9,0,0,0-3.681-3.174,2.3,2.3,0,0,0-2.093-.016,8.825,8.825,0,0,0-3.711,3.2" transform="translate(-133.524 -83.668)" fill="#030301"/><path d="M244.179,82.088c-.027-2.429,1.074-3.956,3.1-4.34a3.651,3.651,0,0,1,4.287,2.674,8.647,8.647,0,0,1-.007,3.428,3.638,3.638,0,0,1-4.133,2.7,3.763,3.763,0,0,1-3.244-3.493c-.023-.322,0-.646,0-.97m5.036.085c.155-1.089-.083-1.8-.8-1.916a2,2,0,0,0-1.387.308c-.59.439-.489,1.134-.25,1.775a.991.991,0,0,0,.381,1.485,1.937,1.937,0,0,0,1.53.04,1.2,1.2,0,0,0,.528-1.691" transform="translate(-194.733 -62.069)" fill="#040302"/><path d="M134.163,86.371c-2.418.488-4.369-.372-4.862-2.409a8.123,8.123,0,0,1-.026-3.653,3.675,3.675,0,0,1,5.116-2.335c.2.086.388.182.582.273a4.855,4.855,0,0,1-.809,8.124m-.143-4.062c.337-1.106.055-1.88-.775-2.126-1.153-.342-1.867.5-1.666,1.959a1.2,1.2,0,0,0,.528,1.692,1.935,1.935,0,0,0,1.531-.039.993.993,0,0,0,.382-1.486" transform="translate(-103.015 -62.039)" fill="#040302"/><path d="M181.861,120.161a8.825,8.825,0,0,1,3.711-3.2,2.3,2.3,0,0,1,2.093.016,8.9,8.9,0,0,1,3.681,3.174c-2.932,2.442-6.082,2.59-9.484.007" transform="translate(-145.077 -93.179)" fill="#e78f4a"/><path d="M182.78,149.128c1.1.364,2.175.8,3.293,1.073a7.885,7.885,0,0,0,4.809-.664c.233-.091.474-.165.711-.247l.154.215a14.146,14.146,0,0,1-1.365,1.406c-2.712,2.133-3.512,2.128-6.212-.022a11.41,11.41,0,0,1-1.452-1.7l.062-.061" transform="translate(-145.76 -119.006)" fill="#c97339"/><path d="M182.292,149.033l-.108-.1.17.04-.061.061" transform="translate(-145.335 -118.849)" fill="#c97339"/><path d="M256.257,92.357c-.239-.641-.339-1.336.25-1.775a2,2,0,0,1,1.388-.308c.719.119.957.828.8,1.916-.941.862-1.335.889-2.44.167" transform="translate(-204.215 -72.087)" fill="#f9f9f9"/><path d="M256.269,99.961c1.105.723,1.5.7,2.44-.167a1.2,1.2,0,0,1-.528,1.691,1.936,1.936,0,0,1-1.531-.04.991.991,0,0,1-.381-1.485" transform="translate(-204.226 -79.691)" fill="#5c535f"/><path d="M141.255,91.807c-.2-1.461.512-2.3,1.666-1.959.83.246,1.112,1.02.775,2.126-1.105.722-1.5.695-2.441-.167" transform="translate(-112.691 -71.704)" fill="#f9f9f9"/><path d="M140.789,99.793c.943.861,1.335.888,2.441.167a.993.993,0,0,1-.382,1.486,1.937,1.937,0,0,1-1.531.039,1.2,1.2,0,0,1-.528-1.692" transform="translate(-112.225 -79.69)" fill="#5c535f"/></g></g><g transform="translate(-7589.456 -7937.617)"><g transform="translate(0 0)"><path d="M33.086,32.051c-.171.491-.326.988-.515,1.473a14.086,14.086,0,0,1-4.578,6.087,15.594,15.594,0,0,1-7.133,3.1c-.6.1-1.2.162-1.85.247l.365,2.589c.2,0,.39-.007.576,0a.477.477,0,0,1,.494.467.472.472,0,0,1-.49.473q-2,.012-4,0a.469.469,0,1,1,.008-.938c.693-.009,1.387,0,2.081,0h.377l-.362-2.564-1.115-.071a14.048,14.048,0,0,1-4.225-.918.44.44,0,0,0-.341,0c-.658.428-1.3.876-1.991,1.344.216.122.409.222.593.336a.484.484,0,0,1,.225.691.479.479,0,0,1-.688.13q-1.922-1.072-3.838-2.155a.479.479,0,0,1-.243-.683.493.493,0,0,1,.718-.131c.688.38,1.377.759,2.054,1.158a.394.394,0,0,0,.5-.026c.579-.411,1.172-.8,1.787-1.221a12.391,12.391,0,0,1-3.478-2.683,13.017,13.017,0,0,1-3.23-6.874,19.526,19.526,0,0,1-.167-2.133,1.945,1.945,0,0,0-.344-1.051,14.01,14.01,0,0,1-.822-1.443.627.627,0,0,0-.4-.353c-.579-.184-1.152-.383-1.727-.579-.6-.2-.683-.549-.243-.992.533-.537,1.075-1.065,1.6-1.61a.767.767,0,0,0,.2-.4A7.543,7.543,0,0,1,17.831,23.2c.075.55.065,1.115.174,1.656a4.217,4.217,0,0,0,1.783,2.471,15.819,15.819,0,0,0,5.006,2.437c1.368.428,2.768.754,4.158,1.107.629.16.754.457.366.98l-.583.79a6.036,6.036,0,0,0,2.62-.6,8.106,8.106,0,0,0,.852-.471c.417-.256.618-.223.88.169ZM22.98,34.267a.562.562,0,0,1-.351.715c-.375.188-.734.409-1.117.579a10.554,10.554,0,0,1-5.45.975,3.327,3.327,0,0,0-.34,0,1.147,1.147,0,0,0,.344.19,8.387,8.387,0,0,0,6.975-.451,14.268,14.268,0,0,0,4.7-3.925c.167-.2.326-.415.5-.638l-2.222-.544c-.048-.02-.095-.043-.143-.06-1.287-.464-2.6-.873-3.856-1.405a10.551,10.551,0,0,1-4.13-2.883,4.724,4.724,0,0,1-.952-3,4.035,4.035,0,0,0-.1-.81,6.6,6.6,0,0,0-5.54-5.257,5.527,5.527,0,0,0-2.369.113.465.465,0,0,0-.094,0,6.576,6.576,0,0,0-5,5.526.376.376,0,0,0,.086.275,2.794,2.794,0,0,1,.542,3.2.451.451,0,0,0,.01.339c.217.383.449.757.694,1.123a2.009,2.009,0,0,1,.373,1.116,13.4,13.4,0,0,0,1.246,5.764,11.524,11.524,0,0,0,4.228,4.848A12.908,12.908,0,0,0,18.3,42c.76-.01,1.519-.141,2.278-.216a.784.784,0,0,0,.122,0,14.937,14.937,0,0,0,4.177-1.338A13.755,13.755,0,0,0,31.042,34.6c.288-.526.509-1.088.769-1.653a.521.521,0,0,0-.122-.014c-.06.02-.119.041-.176.067a6.791,6.791,0,0,1-3.344.581.621.621,0,0,0-.388.183c-.847.752-1.628,1.59-2.536,2.257A9.981,9.981,0,0,1,17.56,38.1a7.866,7.866,0,0,1-5.569-3.482,5.173,5.173,0,0,1-.764-4.414,5.486,5.486,0,0,1,1.847-2.717.5.5,0,0,1,.71.028.569.569,0,0,1-.161.754,7.214,7.214,0,0,0-.744.766,3.893,3.893,0,0,0,1.22,5.977,7.031,7.031,0,0,0,4.454.474,10.569,10.569,0,0,0,3.6-1.328c.393-.23.523-.2.822.11M2.188,25.608l1.5.5a1.532,1.532,0,0,0-.339-1.648L2.188,25.608" transform="translate(-0.804 -16.726)" fill="#040302"/><path d="M86.6,38.583a.5.5,0,0,0-.71-.028,5.487,5.487,0,0,0-1.847,2.717,5.173,5.173,0,0,0,.764,4.414,7.866,7.866,0,0,0,5.569,3.482,9.981,9.981,0,0,0,7.685-2.077c.908-.667,1.689-1.506,2.536-2.257a.62.62,0,0,1,.388-.183,6.791,6.791,0,0,0,3.344-.581c.057-.025.116-.047.176-.067a.523.523,0,0,1,.122.014c-.26.564-.481,1.127-.769,1.653A13.755,13.755,0,0,1,97.7,51.508a14.939,14.939,0,0,1-4.177,1.338.775.775,0,0,1-.122,0,11.6,11.6,0,0,1-3.609-.722,13.808,13.808,0,0,1-5.69-3.776,15.39,15.39,0,0,1-2.6-3.972,19.268,19.268,0,0,1-1.639-7.695,4.389,4.389,0,0,0,1.257.069,2.033,2.033,0,0,0,1.5-2.513c-.017-.122-.225-.222-.351-.323a.839.839,0,0,0-.185-.086,1.326,1.326,0,0,0-.951-.93c-.04-.427-.232-.586-.647-.535l-.367.048a6.374,6.374,0,0,1,1.636-3.48,5.527,5.527,0,0,1,2.369-.113,6.6,6.6,0,0,1,5.54,5.257,4.034,4.034,0,0,1,.1.81,4.724,4.724,0,0,0,.952,3,1.67,1.67,0,0,1-.218-.016,4.735,4.735,0,0,0-2.946.242c-.322.143-.632.314-.948.473" transform="translate(-73.621 -27.794)" fill="#fdda63"/><path d="M144.077,143.547c.316-.158.626-.329.948-.473a4.735,4.735,0,0,1,2.946-.242,1.67,1.67,0,0,0,.218.016,10.551,10.551,0,0,0,4.13,2.883c1.258.532,2.568.941,3.856,1.405.049.018.1.04.143.06-.011.061,0,.139-.037.18-.305.368-.618.73-.929,1.093-.348-.261-.51-.251-.818.052-.112.11-.219.226-.331.337a.52.52,0,0,0-.09.733l-.839.706c-.3-.311-.429-.339-.822-.11a10.571,10.571,0,0,1-3.6,1.328,7.031,7.031,0,0,1-4.454-.474,3.893,3.893,0,0,1-1.22-5.977,7.207,7.207,0,0,1,.744-.766.569.569,0,0,0,.161-.754" transform="translate(-131.097 -132.758)" fill="#fdc74f"/><path d="M42.433,38.871a19.27,19.27,0,0,0,1.639,7.695,15.388,15.388,0,0,0,2.6,3.972,13.807,13.807,0,0,0,5.69,3.776,11.6,11.6,0,0,0,3.609.722c-.759.075-1.518.206-2.278.216a12.909,12.909,0,0,1-7.283-1.936,11.524,11.524,0,0,1-4.228-4.848,13.405,13.405,0,0,1-1.246-5.764,2.009,2.009,0,0,0-.373-1.116c-.245-.366-.478-.74-.694-1.123a.451.451,0,0,1-.01-.339,2.794,2.794,0,0,0-.543-3.2.376.376,0,0,1-.086-.275,6.576,6.576,0,0,1,5-5.526.47.47,0,0,1,.094,0,6.374,6.374,0,0,0-1.636,3.48,2.147,2.147,0,0,0-1.169.935,2.476,2.476,0,0,0,.915,3.336" transform="translate(-36.19 -29.982)" fill="#fdc64f"/><path d="M199.06,200.849c.311-.364.624-.725.929-1.093.034-.042.025-.119.037-.18l2.222.544c-.175.223-.334.434-.5.639a14.267,14.267,0,0,1-4.7,3.925,8.387,8.387,0,0,1-6.975.451,1.148,1.148,0,0,1-.344-.19,3.326,3.326,0,0,1,.34,0,10.554,10.554,0,0,0,5.45-.975c.382-.17.742-.391,1.117-.579a.563.563,0,0,0,.351-.715l.838-.706c.338.21.5.2.777-.076.112-.111.217-.229.331-.338a.538.538,0,0,0,.133-.708" transform="translate(-174.805 -185.137)" fill="#e7ac4a"/><path d="M18.33,115.827l1.157-1.147a1.532,1.532,0,0,1,.339,1.648l-1.5-.5" transform="translate(-16.946 -106.945)" fill="#e38c48"/><path d="M65.493,78.8a2.476,2.476,0,0,1-.915-3.336,2.148,2.148,0,0,1,1.169-.935l.367-.048c.415-.052.607.108.647.535l-.262.42-.618.16a1.049,1.049,0,0,0-.3.119,1.341,1.341,0,0,0-.341,1.191A1.058,1.058,0,0,0,66,77.957a1.029,1.029,0,0,0,1.186-.476,3.164,3.164,0,0,0,.134-.689.827.827,0,0,1,.4-.841.843.843,0,0,1,.185.086c.127.1.335.2.351.323a2.033,2.033,0,0,1-1.5,2.513,4.393,4.393,0,0,1-1.257-.069" transform="translate(-59.25 -69.915)" fill="#030302"/><path d="M91.588,82.3a.827.827,0,0,0-.4.841,3.165,3.165,0,0,1-.134.689.834.834,0,0,1-.872-.983.534.534,0,0,0,.511-.418.577.577,0,0,0-.321-.64l.262-.42a1.326,1.326,0,0,1,.951.93" transform="translate(-83.126 -76.261)" fill="#5e5460"/><path d="M292.182,213.528a.538.538,0,0,1-.133.708c-.114.109-.218.227-.331.338-.276.271-.439.286-.777.076a.52.52,0,0,1,.091-.733c.112-.111.219-.227.331-.337.308-.3.471-.312.818-.052" transform="translate(-267.927 -197.816)" fill="#080602"/><path d="M77.725,89.614a.834.834,0,0,0,.872.983,1.029,1.029,0,0,1-1.186.476,1.058,1.058,0,0,1-.752-1.046A1.341,1.341,0,0,1,77,88.835a1.05,1.05,0,0,1,.3-.119c-.2.519-.069.783.428.9" transform="translate(-70.665 -83.031)" fill="#4a3f4d"/><path d="M84.19,87.747c-.5-.114-.623-.379-.428-.9l.618-.16a.577.577,0,0,1,.321.64.533.533,0,0,1-.511.418" transform="translate(-77.131 -81.164)" fill="#faf9fa"/></g></g></g></svg>