<svg xmlns="http://www.w3.org/2000/svg" width="133.339" height="133.364" viewBox="0 0 133.339 133.364"><g transform="translate(-5.93 -6.633)"><g transform="translate(5.93 6.633)"><path d="M36.3,151.984l-9.647,0c-.451-1.7-1-2.144-2.708-2.151-1.954-.009-3.908,0-5.877,0v-101H73.927c0,11.16,0,22.223,0,33.286,0,2.588.583,3.182,3.125,3.182q29.96,0,59.921,0c.492,0,.983.028,1.474.043v6.062c-1.709.4-2.153.974-2.153,2.827q0,27.078,0,54.157v1.438H70.41c-2,0-2.511.375-2.975,2.153H61.069c-.015-8.737-.041-17.474-.01-26.211a1.936,1.936,0,0,1,.792-1.22c2.226-1.73,4.567-3.32,6.728-5.126,2.228-1.861,4.339-3.87,6.411-5.907a2.88,2.88,0,0,0,.9-3.292,2.973,2.973,0,0,0-3.033-1.817c-3.4.066-6.792.2-10.181.428-2.384.159-4.756.508-7.2.78.1-.547.15-.9.22-1.251A17.2,17.2,0,0,0,52.076,93.51c-7.09-8.731-19.787-6.791-23.825,3.7a16.937,16.937,0,0,0,2.587,17.221,2.683,2.683,0,0,1,.464,2.747,92.149,92.149,0,0,0-3.736,19.054,18.809,18.809,0,0,0,.882,8.473c1.136,2.826,3.443,3.827,6.3,2.8.534-.191,1.049-.436,1.553-.648Zm64.512-6.452q12.087,0,24.175,0c1.939,0,2.695-.748,2.7-2.66q.017-3.827,0-7.656c-.01-1.818-.789-2.583-2.641-2.583q-24.242-.008-48.484,0c-1.853,0-2.622.763-2.632,2.589-.014,2.463-.006,4.926,0,7.388,0,2.265.673,2.924,2.978,2.924q11.953,0,23.907,0m4.162-19.358q10.072,0,20.143,0c1.763,0,2.558-.786,2.571-2.52q.027-3.895,0-7.79c-.01-1.822-.786-2.588-2.636-2.589q-19.942-.008-39.884,0c-1.9,0-2.632.762-2.638,2.72q-.012,3.693,0,7.387c.005,2.089.719,2.793,2.837,2.794q9.8.005,19.606,0M112.6,96.06c-4.161,0-8.323-.01-12.485,0-1.744.006-2.52.8-2.53,2.554q-.023,3.893,0,7.787c.01,1.757.788,2.553,2.532,2.555q12.485.016,24.969,0c1.828,0,2.591-.781,2.6-2.625.013-2.506.009-5.012,0-7.519-.006-2.021-.73-2.753-2.738-2.756q-6.175-.01-12.351,0M63.592,77.334c0-2.461.019-4.922-.005-7.382-.025-2.543-1.626-3.432-3.812-2.127q-6.094,3.637-12.173,7.3c-2.206,1.329-2.205,3.064-.015,4.382q6.08,3.659,12.162,7.313c2.2,1.32,3.808.447,3.837-2.105.028-2.46.006-4.921.006-7.382M26.614,64.776a7.472,7.472,0,1,0,7.408-7.425,7.364,7.364,0,0,0-7.408,7.425M53.462,59.5c.312,0,.625.011.937,0a2.157,2.157,0,1,0,0-4.3c-.446-.017-.892-.006-1.338,0-1.813.009-2.785.762-2.785,2.153s.981,2.145,2.786,2.156c.134,0,.268,0,.4,0m27.986,34.41c-.312,0-.625-.012-.937,0a2.153,2.153,0,1,0-.058,4.3c.311.018.624,0,.936.005,2.268,0,3.313-.7,3.285-2.194-.027-1.459-1.029-2.116-3.227-2.114" transform="translate(-13.71 -33.682)" fill="#f1f1f1"/><path d="M130.669,58.3c-.492-.015-.983-.043-1.474-.043q-29.961,0-59.921,0c-2.542,0-3.125-.595-3.125-3.182,0-11.063,0-22.126,0-33.286H10.289v101c1.969,0,3.923-.007,5.877,0,1.711.008,2.258.45,2.708,2.151-.456,1.7-1,2.14-2.716,2.146-2.419.009-4.838,0-7.256,0-2.3,0-2.97-.659-2.971-2.933q0-28.493,0-56.985,0-23.385,0-46.771c0-2.375.637-3.007,3.029-3.007H66.148c0-2.73-.005-5.36,0-7.991.005-2.03.723-2.762,2.734-2.762q33.8,0,67.592,0c2.089,0,2.791.717,2.792,2.842q0,22.982,0,45.965c0,2.1-.717,2.8-2.823,2.815q-2.888.018-5.775.044M70.484,53.874h64.4V11.016h-64.4Z" transform="translate(-5.93 -6.633)"/><path d="M52.2,221.881v-5.119c-.5.212-1.019.457-1.553.648-2.856,1.022-5.163.021-6.3-2.805a18.808,18.808,0,0,1-.882-8.473A92.153,92.153,0,0,1,47.2,187.077a2.684,2.684,0,0,0-.464-2.747,16.937,16.937,0,0,1-2.587-17.221c4.039-10.493,16.735-12.434,23.825-3.7a17.2,17.2,0,0,1,3.621,14.862c-.07.35-.124.7-.22,1.251,2.441-.272,4.813-.622,7.2-.78,3.389-.225,6.786-.362,10.181-.428a2.972,2.972,0,0,1,3.033,1.817,2.88,2.88,0,0,1-.9,3.292c-2.072,2.036-4.183,4.045-6.411,5.907-2.161,1.806-4.5,3.4-6.728,5.126a1.935,1.935,0,0,0-.792,1.22c-.031,8.737-.005,17.474.009,26.211q-.022,4.9-.045,9.791c-.019,3.085-1.959,5.174-4.873,5.262-3.862.116-5.881-1.51-6.173-4.908a62.964,62.964,0,0,0-.948-7.083c-.747,2.466-1.5,4.93-2.238,7.4-.974,3.253-2.947,4.881-5.529,4.549-2.723-.35-4.245-2.342-4.435-5.781-.169-3.077-.351-6.154-.527-9.232m-1.04-33.208c.037-.066-.052.04-.088.162a73.754,73.754,0,0,0-3.417,21.65,7.237,7.237,0,0,0,.414,2.228,1.216,1.216,0,0,0,.91.693,4.762,4.762,0,0,0,3.555-3.713c.187-3.038.321-6.079.516-9.117a2.213,2.213,0,0,1,2.238-2.353c1.324.032,2.136.994,2.073,2.573-.141,3.534-.441,7.066-.46,10.6-.036,6.667.072,13.336.159,20,0,.358.378.711.58,1.066.262-.31.649-.578.766-.935.651-2,1.239-4.014,1.844-6.026q1.89-6.293,3.774-12.588a2.111,2.111,0,0,1,2.343-1.765,2.085,2.085,0,0,1,1.972,2.161c.056.668.161,1.333.227,2,.541,5.431,1.089,10.862,1.606,16.3.068.716.326.99,1.064,1.05,1.2.1,1.4-.462,1.4-1.509-.027-12.138,0-24.277-.039-36.416a3.331,3.331,0,0,1,1.544-3.038c2.053-1.437,4.049-2.957,6.026-4.5,1.814-1.413,3.573-2.9,5.356-4.351a1.394,1.394,0,0,0-1.01-.283c-4.849.5-9.7.975-14.541,1.543a2.834,2.834,0,0,0-1.6.989c-2.951,3.449-6.633,5.35-11.2,4.988a39.807,39.807,0,0,1-6.023-1.41m6.576-26.531c-3.327-.011-5.377.859-7.1,2.5-5.5,5.247-4.294,15.532,2.293,19.631a9.155,9.155,0,0,0,13.2-3.563,12.8,12.8,0,0,0-1.062-14.051c-1.979-2.8-4.7-4.488-7.334-4.52" transform="translate(-29.606 -103.579)" fill="#030303"/><path d="M155.55,227.977c.464-1.777.977-2.153,2.975-2.153H224.41v-1.438q0-27.079,0-54.157c0-1.853.444-2.423,2.153-2.827,1.662.4,2.144.987,2.145,2.7q.005,28.691,0,57.382c0,1.9-.768,2.639-2.726,2.639q-33.859,0-67.719,0c-1.713,0-2.264-.452-2.713-2.146" transform="translate(-101.824 -109.672)"/><path d="M200.505,295.084q-11.953,0-23.906,0c-2.3,0-2.974-.659-2.978-2.924,0-2.463-.011-4.925,0-7.388.01-1.827.779-2.589,2.632-2.59q24.242-.008,48.484,0c1.852,0,2.631.765,2.641,2.583q.022,3.829,0,7.657c-.008,1.913-.763,2.659-2.7,2.66q-12.087.009-24.175,0m22.514-8.508H177.99v4.135h45.029Z" transform="translate(-113.404 -183.234)"/><path d="M220.024,241.172q-9.8,0-19.606,0c-2.119,0-2.832-.706-2.837-2.794q-.009-3.693,0-7.387c.006-1.958.734-2.719,2.638-2.72q19.942-.009,39.884,0c1.849,0,2.626.767,2.636,2.589q.022,3.895,0,7.79c-.013,1.734-.808,2.517-2.571,2.52q-10.072.016-20.143,0m-18.072-4.393h36.379v-4.144H201.951Z" transform="translate(-128.76 -148.681)"/><path d="M254.515,180.341q6.175,0,12.35,0c2.008,0,2.732.735,2.738,2.756.007,2.506.011,5.012,0,7.519-.009,1.844-.772,2.623-2.6,2.625q-12.485.012-24.969,0c-1.744,0-2.521-.8-2.532-2.555q-.023-3.894,0-7.787c.01-1.758.786-2.548,2.53-2.554,4.162-.014,8.323,0,12.485,0m-10.624,8.506h21.343v-4.135H243.892Z" transform="translate(-155.623 -117.964)" fill="#010101"/><path d="M113.349,110.159c0,2.461.022,4.922-.006,7.382-.029,2.552-1.638,3.425-3.837,2.106q-6.084-3.652-12.162-7.314c-2.191-1.319-2.191-3.053.015-4.382q6.079-3.663,12.173-7.3c2.186-1.305,3.787-.416,3.812,2.128.024,2.46.005,4.921.005,7.382m-4.365,4.126V106l-6.936,4.152,6.936,4.133" transform="translate(-63.467 -66.507)" fill="#050505"/><path d="M41.866,79.971a7.365,7.365,0,0,1,7.408-7.425,7.524,7.524,0,1,1-7.408,7.425M49.254,83.3a3.371,3.371,0,0,0,3.3-3.224,3.244,3.244,0,0,0-6.488-.03A3.148,3.148,0,0,0,49.254,83.3" transform="translate(-28.962 -48.878)" fill="#030404"/><path d="M110.948,70.824c-.134,0-.268,0-.4,0-1.805-.01-2.786-.769-2.786-2.155s.972-2.144,2.785-2.154c.446,0,.893-.014,1.338,0a2.157,2.157,0,1,1,0,4.3c-.312.013-.624,0-.937,0" transform="translate(-71.195 -45.009)" fill="#070707"/><path d="M188.835,174.342c2.2,0,3.2.656,3.227,2.115.027,1.5-1.017,2.195-3.285,2.194-.312,0-.625.013-.936-.005a2.153,2.153,0,1,1,.058-4.3c.312-.014.624,0,.937,0" transform="translate(-121.096 -114.118)" fill="#070707"/><path d="M185.705,18.839h64.4V61.7h-64.4Zm38.663,21.175c-.153-1.19.253-2.884-1.535-3.812a3.518,3.518,0,0,1-1.711-4.107c.557-2.1-3.033-6.167-5.2-5.886a4.021,4.021,0,0,0-.4.075,3.761,3.761,0,0,1-4.424-1.844,2.8,2.8,0,0,0-1.672-1.138,25.452,25.452,0,0,0-4.136-.115,2.5,2.5,0,0,0-2.278,1.6,3.493,3.493,0,0,1-3.815,1.591,2.669,2.669,0,0,0-2.955.646c-.755.761-1.52,1.512-2.281,2.268a2.722,2.722,0,0,0-.651,3.074,3.528,3.528,0,0,1-1.567,3.714,2.589,2.589,0,0,0-1.663,2.382c-.043,1.2-.043,2.412,0,3.616a2.588,2.588,0,0,0,1.665,2.381,3.545,3.545,0,0,1,1.61,3.589,2.9,2.9,0,0,0,.778,3.407,17.612,17.612,0,0,0,2.451,2.272,3.4,3.4,0,0,0,2.219.485,3.886,3.886,0,0,1,4.438,1.875,2.8,2.8,0,0,0,1.667,1.147,25.455,25.455,0,0,0,4.136.115,2.5,2.5,0,0,0,2.284-1.591,3.506,3.506,0,0,1,3.812-1.6,2.7,2.7,0,0,0,2.962-.637c.7-.692,1.407-1.374,2.106-2.067a3.565,3.565,0,0,0,.86-3.414c-.147-1.05.349-2.85,1.11-3.239,2.037-1.042,2.194-2.633,2.185-4.788m12.927-10.5c2.01,0,4.021.011,6.032,0,1.577-.011,2.538-.828,2.551-2.128s-.945-2.162-2.509-2.167q-6.1-.021-12.2,0c-1.555.006-2.511.877-2.482,2.191a2.18,2.18,0,0,0,2.439,2.1c2.055.022,4.11.005,6.166.005m.025,8.6c2.055,0,4.111.019,6.166-.006a2.158,2.158,0,1,0-.006-4.29q-6.166-.029-12.332,0A2.176,2.176,0,0,0,228.69,35.9c-.04,1.306.926,2.2,2.465,2.212,2.055.02,4.11.005,6.165.005m-.029,8.6c2.01,0,4.021.011,6.032,0,1.58-.011,2.539-.824,2.556-2.123s-.942-2.167-2.5-2.172q-6.1-.021-12.2,0c-1.562.006-2.512.869-2.487,2.186a2.179,2.179,0,0,0,2.435,2.106c2.055.022,4.11.006,6.166.006m-.007,4.3c-2.01,0-4.021-.01-6.032,0-1.588.011-2.54.81-2.562,2.114s.939,2.176,2.495,2.182q6.1.022,12.2,0c1.556-.006,2.518-.874,2.5-2.181s-.978-2.1-2.563-2.114c-2.01-.014-4.021,0-6.031,0" transform="translate(-121.151 -14.456)" fill="#ced371"/><path d="M59.683,232.687a39.809,39.809,0,0,0,6.023,1.41c4.561.362,8.244-1.538,11.195-4.988a2.836,2.836,0,0,1,1.6-.99c4.841-.567,9.693-1.045,14.541-1.542a1.393,1.393,0,0,1,1.01.283c-1.783,1.453-3.542,2.938-5.356,4.351-1.977,1.54-3.974,3.061-6.026,4.5a3.33,3.33,0,0,0-1.544,3.038c.037,12.138.012,24.277.038,36.415,0,1.046-.206,1.605-1.4,1.508-.739-.06-1-.334-1.065-1.05-.516-5.434-1.064-10.864-1.606-16.3-.066-.668-.171-1.332-.227-2a2.085,2.085,0,0,0-1.972-2.16,2.111,2.111,0,0,0-2.343,1.764q-1.885,6.295-3.774,12.588c-.6,2.012-1.193,4.03-1.844,6.026-.116.357-.5.626-.766.935-.2-.355-.575-.708-.579-1.066-.088-6.667-.2-13.336-.159-20,.019-3.534.319-7.066.46-10.6.063-1.58-.748-2.542-2.072-2.573a2.213,2.213,0,0,0-2.239,2.353c-.2,3.037-.329,6.079-.516,9.117A4.761,4.761,0,0,1,57.5,257.42a1.215,1.215,0,0,1-.91-.693,7.226,7.226,0,0,1-.414-2.228,73.763,73.763,0,0,1,3.417-21.65c.036-.122.126-.228.088-.162" transform="translate(-38.133 -147.593)" fill="#a3314f"/><path d="M65.375,169.721c2.634.032,5.355,1.717,7.334,4.52a12.8,12.8,0,0,1,1.062,14.051,9.155,9.155,0,0,1-13.2,3.563c-6.587-4.1-7.792-14.384-2.293-19.631,1.723-1.644,3.773-2.515,7.1-2.5" transform="translate(-37.248 -111.159)" fill="#ecccb0"/><rect width="45.029" height="4.135" transform="translate(64.586 103.341)" fill="#a3314f"/><rect width="36.379" height="4.144" transform="translate(73.192 83.954)" fill="#a3314f"/><rect width="21.343" height="4.135" transform="translate(88.269 66.748)" fill="#a3314f"/><path d="M120.311,124.9l-6.936-4.133,6.936-4.152Z" transform="translate(-74.794 -77.122)" fill="#ffb500"/><path d="M56.759,90.948a3.148,3.148,0,0,1-3.184-3.254,3.244,3.244,0,0,1,6.488.03,3.371,3.371,0,0,1-3.3,3.224" transform="translate(-36.467 -56.522)" fill="#ced371"/><path d="M232.128,47.721c.009,2.155-.148,3.746-2.185,4.788-.761.389-1.256,2.189-1.11,3.239a3.565,3.565,0,0,1-.86,3.415c-.7.692-1.407,1.375-2.106,2.067a2.7,2.7,0,0,1-2.962.637,3.506,3.506,0,0,0-3.812,1.6,2.5,2.5,0,0,1-2.284,1.591,25.414,25.414,0,0,1-4.136-.116,2.794,2.794,0,0,1-1.667-1.146,3.886,3.886,0,0,0-4.438-1.875,3.4,3.4,0,0,1-2.219-.485A17.615,17.615,0,0,1,201.9,59.16a2.9,2.9,0,0,1-.778-3.407,3.545,3.545,0,0,0-1.61-3.588,2.588,2.588,0,0,1-1.665-2.381c-.043-1.2-.043-2.412,0-3.617a2.588,2.588,0,0,1,1.663-2.381,3.528,3.528,0,0,0,1.567-3.714A2.722,2.722,0,0,1,201.726,37c.761-.756,1.526-1.507,2.281-2.268a2.67,2.67,0,0,1,2.955-.646,3.492,3.492,0,0,0,3.815-1.591,2.5,2.5,0,0,1,2.278-1.6,25.41,25.41,0,0,1,4.136.115,2.8,2.8,0,0,1,1.672,1.138,3.761,3.761,0,0,0,4.424,1.844c.131-.03.263-.057.4-.075,2.166-.28,5.756,3.785,5.2,5.887a3.518,3.518,0,0,0,1.711,4.107c1.789.928,1.382,2.621,1.535,3.811m-26.471,8.392c-.253.96.313,1.291,1.279,1.241a10.114,10.114,0,0,1,2.782.349,7.488,7.488,0,0,1,2.1.842,7.14,7.14,0,0,1,2.008,1.592c.756.971,1.373.987,2.118.032a7.14,7.14,0,0,1,1.984-1.614,9.7,9.7,0,0,1,4.882-1.214c1.162.111,1.551-.3,1.419-1.5a7.3,7.3,0,0,1,.313-2.545,8.183,8.183,0,0,1,.915-2.216,8.079,8.079,0,0,1,1.687-2.078c.885-.72.869-1.347-.032-2.078a7.982,7.982,0,0,1-1.664-2.1,8.2,8.2,0,0,1-.924-2.213,7.439,7.439,0,0,1-.284-2.548c.125-1.154-.3-1.582-1.466-1.45a6.642,6.642,0,0,1-2.414-.266,10.4,10.4,0,0,1-2.465-1.015A6.354,6.354,0,0,1,216.01,35.8c-.735-.963-1.391-.983-2.134-.065a7.617,7.617,0,0,1-2,1.6,9.475,9.475,0,0,1-2.315,1.028,6.218,6.218,0,0,1-2.412.279c-1.247-.163-1.695.273-1.563,1.5a7.514,7.514,0,0,1-.33,2.534c-.159.64-.611,1.207-.767,1.847a3.516,3.516,0,0,1-1.926,2.57.911.911,0,0,0-.15,1.684c2.549,1.858,2.968,4.556,3.246,7.334" transform="translate(-128.911 -22.163)" fill="#020303"/><path d="M314.017,40.875c-2.055,0-4.111.016-6.166-.005a2.181,2.181,0,0,1-2.44-2.1c-.028-1.314.927-2.185,2.483-2.191q6.1-.023,12.2,0c1.563.005,2.522.86,2.509,2.167s-.974,2.116-2.551,2.128c-2.01.015-4.021,0-6.032,0" transform="translate(-197.873 -25.818)" fill="#010202"/><path d="M314.041,64.834c-2.056,0-4.111.015-6.166-.005-1.539-.015-2.5-.905-2.464-2.212a2.176,2.176,0,0,1,2.458-2.081q6.166-.023,12.331,0a2.158,2.158,0,1,1,.007,4.29c-2.055.025-4.11.006-6.165.006" transform="translate(-197.872 -41.172)" fill="#010202"/><path d="M314.013,88.8c-2.055,0-4.111.016-6.166-.006a2.179,2.179,0,0,1-2.435-2.106c-.025-1.317.926-2.18,2.487-2.186q6.1-.023,12.2,0c1.562.005,2.52.863,2.5,2.172s-.976,2.112-2.556,2.123c-2.01.015-4.021,0-6.031,0" transform="translate(-197.873 -56.531)" fill="#010202"/><path d="M314.006,108.457c2.01,0,4.021-.01,6.031,0,1.586.011,2.542.813,2.563,2.114s-.94,2.176-2.5,2.181q-6.1.022-12.2,0c-1.556-.006-2.516-.874-2.495-2.182s.973-2.1,2.562-2.114c2.011-.014,4.021,0,6.032,0" transform="translate(-197.874 -71.892)" fill="#010202"/><path d="M212.977,63.611c-.278-2.779-.7-5.476-3.246-7.334a.911.911,0,0,1,.15-1.684,3.515,3.515,0,0,0,1.926-2.57c.156-.64.607-1.207.767-1.847a7.5,7.5,0,0,0,.33-2.534c-.131-1.228.316-1.664,1.564-1.5a6.219,6.219,0,0,0,2.412-.279,9.487,9.487,0,0,0,2.315-1.028,7.614,7.614,0,0,0,2-1.6c.742-.918,1.4-.9,2.134.065a6.353,6.353,0,0,0,1.888,1.535,10.393,10.393,0,0,0,2.465,1.016,6.648,6.648,0,0,0,2.414.266c1.166-.132,1.59.3,1.466,1.45a7.442,7.442,0,0,0,.284,2.548,8.182,8.182,0,0,0,.924,2.213,7.982,7.982,0,0,0,1.664,2.1c.9.731.917,1.359.032,2.078a8.1,8.1,0,0,0-1.687,2.078,8.2,8.2,0,0,0-.915,2.216,7.321,7.321,0,0,0-.313,2.545c.133,1.2-.257,1.608-1.418,1.5a9.7,9.7,0,0,0-4.882,1.214,7.141,7.141,0,0,0-1.985,1.614c-.745.955-1.362.939-2.118-.032a7.135,7.135,0,0,0-2.008-1.592,7.49,7.49,0,0,0-2.1-.842,10.1,10.1,0,0,0-2.782-.349c-.966.05-1.533-.281-1.279-1.241M228.7,55.463a6.445,6.445,0,1,0-6.5,6.458,6.463,6.463,0,0,0,6.5-6.458" transform="translate(-136.232 -29.661)" fill="#afafaf"/><path d="M240.431,67a6.445,6.445,0,1,1-6.385-6.435A6.477,6.477,0,0,1,240.431,67m-4.292-.043a2.15,2.15,0,1,0-2.064,2.2,2.157,2.157,0,0,0,2.064-2.2" transform="translate(-147.965 -41.202)" fill="#020202"/><path d="M243.809,74.628a2.15,2.15,0,1,1-2.166-2.1,2.165,2.165,0,0,1,2.166,2.1" transform="translate(-155.636 -48.868)" fill="#e6e6e6"/></g></g></svg>