<svg xmlns="http://www.w3.org/2000/svg" width="190" height="189.985" viewBox="0 0 190 189.985"><g transform="translate(53.567 -0.743)"><g transform="translate(-53.567 0.743)"><path d="M105.407,190.728H103.18c-2.255-1.973-2.413-3.05-.844-5.692.843-1.42,1.679-2.843,2.529-4.282a8.358,8.358,0,0,0-6.2-2.739c-28.351.112-56.7.072-85.053.067-6.63,0-10.977-3.08-13.17-9.276A3.865,3.865,0,0,0,0,168.093V29.683a2.28,2.28,0,0,0,.4-.532c2.358-6.5,6.533-9.436,13.437-9.441,4.824,0,9.648.02,14.471-.023a3.713,3.713,0,0,0,2.051-.514,13.417,13.417,0,0,1,8.509-2.586c2.831.064,5.665.014,8.469.014C48.851,6.948,54.287,1.224,62.265.773A15.537,15.537,0,0,1,72.559,3.718c4.326,3.142,6.41,7.507,6.669,12.886,3.18,0,6.2.018,9.221-.005a13.264,13.264,0,0,1,7.5,2.283,5.022,5.022,0,0,0,2.518.793c4.761.074,9.529.19,14.283,0,8.109-.323,14.117,5.738,13.986,13.982-.257,16.071-.075,32.149-.075,48.224V83.9c17.2-2.69,32.185,1.581,45.506,12.96a9.874,9.874,0,0,1,1.406-1.792c2.816-2.233,4.48-4.825,3.885-8.685a2.789,2.789,0,0,1,3.31-3.223,11.933,11.933,0,0,1,3.029,1.582c2.109-1.894,3.8-2.19,5.258-.775,1.489,1.44,1.253,2.93-.9,5.637,1.31.99,2.256,2.152,1.625,3.932-.644,1.818-2.076,2.282-3.838,2.2a26.214,26.214,0,0,0-3.152.015,2.579,2.579,0,0,0-1.472.528c-1.68,1.543-3.288,3.163-4.972,4.8,10.308,12.145,15.047,25.995,13.285,41.754-1.768,15.811-9.448,28.332-22.189,37.856.878,1.468,1.7,2.833,2.512,4.2,1.683,2.828,1.33,4.247-1.446,5.824h-1.856l-4.49-6.116c-4.857,1.624-9.686,3.333-14.579,4.833a61.012,61.012,0,0,1-6.54,1.282H130.645c-1.46-.314-2.914-.657-4.381-.936a55.593,55.593,0,0,1-15.943-5.7c-.538.856-.972,1.67-1.523,2.395-1.1,1.44-2.256,2.831-3.391,4.241m69.368-38.959.022-.035-.39,1.142.007-.055a9.762,9.762,0,0,0-.665,1.065A41.151,41.151,0,0,1,129.817,177.8c-22.434-3.218-38.226-24.818-34.513-47.209a41.254,41.254,0,0,1,66.623-25.736,13.3,13.3,0,0,0,1.131.713l1.8-1.953,2.82-2.224c-5.435-4.461-10.682-7.853-16.916-9.478l-.005.007-.811-.287a43.534,43.534,0,0,0-19.362-1.893c-23.019,2.456-41.381,22.079-42.215,45.149a47.55,47.55,0,0,0,31.7,47.046,44.239,44.239,0,0,0,28.374.985l.819-.266,0,.012c.6-.134,1.212-.22,1.792-.408,25.686-8.369,39.314-37.193,29.48-62.33a46.279,46.279,0,0,0-8.62-14.173l-3.377,3.343-1.517.632a43.507,43.507,0,0,1,8.228,14.19c1.711,5.851,2.727,11.789,1.772,17.884-.473,3.026-1.225,6.008-1.85,9.009l-.394.961m-34.42-36.45-.8-.247c-.979-.118-1.957-.319-2.939-.343a22.347,22.347,0,0,0-20.762,13.006,22.094,22.094,0,0,0,3.914,24.313c5.367,5.642,11.962,8.1,19.783,6.778a12.9,12.9,0,0,0,1.645-.185,22.289,22.289,0,0,0,16.836-25.509,19.772,19.772,0,0,0-4.318-9.571c-1.187,1.277-2.3,2.352-3.244,3.56a2.12,2.12,0,0,0-.3,1.766c1.926,4.733,2.5,9.49.573,14.363-3.786,7.217-9.946,10.5-17.437,9.281-8.145-1.321-14.183-9.54-12.932-17.6,1.388-8.938,9.26-15.041,17.841-13.646a56.294,56.294,0,0,1,7.009,2.083l1.461-1.56,2.7-2.668c-2.886-1.961-5.694-3.513-9.042-3.832l.009.012m-2.591,15.335L140,128.487l-.2-.625-4.327-.258a9.262,9.262,0,0,0-8.825,9.3c-.008,4.973,4.08,9.281,8.821,9.3,4.025.488,6.924-1.353,8.935-4.615,1.638-2.656,1.537-5.519.382-8.541L138.8,138.77a3.41,3.41,0,0,1-4.916.359c-1.382-1.5-1.21-3.17.577-5.017,1.107-1.145,2.2-2.3,3.3-3.458M164,130.123a31.577,31.577,0,0,1-1.368,17.585A28.7,28.7,0,0,1,131.9,165.2c-15.023-2.3-25.321-15.348-24.244-30.882,1-14.358,13.829-26.027,28.59-25.931a28.588,28.588,0,0,1,17.738,6.261l2.01-2.189,2.384-2.211a29.653,29.653,0,0,0-12.523-6.679,30.266,30.266,0,0,0-15.714-.965c-19.179,3.7-31.061,20.35-28.462,39.749,2.692,20.085,23.99,33.929,43.426,28.227,18.826-4.326,30.329-25.24,24.287-44.166a33.323,33.323,0,0,0-6.51-11.792l-2.893,3.095-1.572,1.386.637-.062L164,130.123M112.051,26.163H101.115c.117,2.108.225,4.05.344,6.18,1.811,0,3.523.038,5.233-.008a6.87,6.87,0,0,1,6.9,4.013,33.465,33.465,0,0,1,.356,3.47q.036,22.787.016,45.574v2.394c1.748-.65,3.088-1.276,4.5-1.639,1.479-.381,1.864-1.172,1.859-2.649-.052-16.735-.03-33.47-.035-50.205,0-5.088-3.146-7.8-8.233-7.131m-49.341-19a9.37,9.37,0,0,0-8.866,9.381c-.054,3.088.014,6.179-.025,9.268A3.224,3.224,0,0,1,50.7,29.252a3.258,3.258,0,0,1-3.182-3.394c-.034-.958-.006-1.918-.006-2.92h-1.57c-2.658,0-5.316-.037-7.972.017a6,6,0,0,0-6.18,5.473,70.037,70.037,0,0,0-.047,7.163h2.081q17.706,0,35.413,0c6.487-.006,12.975-.042,19.463-.063H95c0-2.37.116-4.589-.025-6.792-.258-4.024-3.408-6.088-8.5-5.716h-7.33c0,.92.013,1.711,0,2.5-.044,2.316-1.3,3.775-3.195,3.732-1.826-.042-3.074-1.478-3.132-3.659-.052-1.974-.06-3.95-.088-5.925.019-1.229.1-2.462.046-3.689A9.313,9.313,0,0,0,62.71,7.162m38.634,88.613c1.6-1.156,3.138-2.406,4.814-3.435a2.855,2.855,0,0,0,1.535-2.81c-.051-16.256-.033-32.512-.033-48.768v-1.93H101.3a5.155,5.155,0,0,0-1.451.8,6.748,6.748,0,0,1-5.261,2.29q-31.269-.01-62.538,0A6.652,6.652,0,0,1,26.811,39.6c-.306-.347-.724-.825-1.105-.839-2.2-.08-4.41-.039-6.63-.039V158.943H87.034c-.254-.691-.43-1.208-.632-1.715-5.88-14.738-5.412-29.3,1.264-43.664a55.044,55.044,0,0,1,13.679-17.79M25.561,26.024c-4.059,0-8-.01-11.949,0C8.85,26.042,6.323,28.6,6.323,33.4q0,65.482,0,130.965c0,4.886,2.53,7.4,7.439,7.4q39.613,0,79.226,0h2.1a49.594,49.594,0,0,1-3.194-4.446c-.886-1.57-2.05-1.918-3.772-1.914q-33.954.09-67.908.039-7.572,0-7.568-7.469,0-59.082,0-118.165c0-4.984,2.516-7.459,7.575-7.469,1.642,0,3.285,0,4.948,0,.14-2.232.262-4.176.4-6.319" transform="translate(0 -0.743)" fill="#020201"/><path d="M120.749,134.4a55.042,55.042,0,0,0-13.679,17.79c-6.675,14.361-7.144,28.927-1.263,43.664.2.507.378,1.024.632,1.714H38.48V77.347c2.22,0,4.428-.041,6.631.039.381.014.8.492,1.1.839a6.652,6.652,0,0,0,5.244,2.318q31.269-.008,62.538,0a6.746,6.746,0,0,0,5.261-2.29,5.155,5.155,0,0,1,1.451-.8q.02,28.471.04,56.943M93.76,96.383q-6.488,0-12.976,0c-2.533,0-5.068-.043-7.6.037a3,3,0,0,0-3.057,2.859,3.1,3.1,0,0,0,2.744,3.375,9.976,9.976,0,0,0,1.662.072q19.278.006,38.556-.008a7.706,7.706,0,0,0,2.371-.268,3.1,3.1,0,0,0-.574-5.995,13.056,13.056,0,0,0-1.849-.07q-9.639-.007-19.278,0m.044,25.331q-10.009,0-20.019,0c-2.162,0-3.378.928-3.617,2.662-.3,2.2,1.154,3.649,3.764,3.651q19.834.016,39.667,0c2.5,0,3.945-1.171,3.96-3.155s-1.423-3.16-3.922-3.163q-9.917-.012-19.834,0M85.428,153.33c3.831,0,7.661.012,11.492,0,2.381-.01,3.757-1.173,3.765-3.123.007-1.934-1.416-3.187-3.737-3.192q-11.584-.026-23.168,0c-2.319.006-3.7,1.278-3.653,3.252.042,1.9,1.373,3.05,3.625,3.062,3.892.021,7.784.006,11.677.005m-2.585,19c-2.965,0-5.931-.022-8.9.007-2.464.025-3.88,1.269-3.828,3.282.051,1.926,1.414,3.058,3.835,3.067q8.8.035,17.606,0c2.392-.01,3.8-1.174,3.867-3.071.064-1.945-1.445-3.251-3.874-3.276-2.9-.03-5.807-.007-8.71-.007m-29-24.093c-.25-.136-.41-.209-.555-.3q-2.821-1.843-4.6.324c-1.145,1.4-.943,3.034.584,4.608.774.8,1.559,1.587,2.36,2.359,2.017,1.943,3.968,1.765,5.558-.568q2.919-4.284,5.74-8.634c1.206-1.848.965-3.694-.547-4.743-1.622-1.126-3.4-.664-4.725,1.267-1.287,1.88-2.539,3.783-3.816,5.692m.019-25.328a5.875,5.875,0,0,1-.543-.269c-1.9-1.233-3.421-1.148-4.606.263-1.156,1.378-.973,3.05.53,4.611q1.156,1.2,2.36,2.354c2.028,1.938,4.01,1.781,5.577-.509,1.95-2.848,3.85-5.73,5.739-8.62,1.247-1.907.959-3.839-.658-4.859-1.582-1-3.322-.516-4.589,1.328-1.288,1.875-2.53,3.782-3.811,5.7M53.841,97.6c-.223-.124-.376-.2-.515-.288-1.819-1.2-3.486-1.115-4.626.25s-.951,3.059.547,4.613q1.158,1.2,2.361,2.356c2.03,1.951,4,1.794,5.57-.5Q60.1,99.749,62.92,95.4c1.254-1.921.962-3.816-.675-4.853-1.575-1-3.316-.512-4.589,1.339-1.29,1.876-2.532,3.785-3.815,5.71M53.8,173.64c-2.125-1.539-3.828-1.557-5.059-.139-1.246,1.434-.994,3.124.733,4.874.782.792,1.549,1.6,2.361,2.359,1.8,1.68,3.777,1.511,5.184-.529,2.032-2.947,4.006-5.935,5.96-8.936,1.19-1.827.88-3.691-.687-4.712-1.592-1.037-3.324-.587-4.593,1.256-1.294,1.878-2.54,3.79-3.9,5.826" transform="translate(-19.405 -39.368)" fill="#dee4f0"/><path d="M31.991,51.738c-.134,2.143-.256,4.087-.4,6.319-1.664,0-3.306,0-4.948,0-5.059.01-7.575,2.485-7.575,7.469q0,59.082,0,118.165,0,7.476,7.568,7.469,33.954,0,67.908-.039c1.723,0,2.886.344,3.772,1.914a49.592,49.592,0,0,0,3.194,4.446h-2.1q-39.613,0-79.226,0c-4.909,0-7.438-2.518-7.439-7.4q0-65.482,0-130.965c0-4.8,2.528-7.355,7.289-7.371,3.945-.013,7.89,0,11.949,0" transform="translate(-6.43 -26.457)" fill="#9e512c"/><path d="M254.725,193.818l-1.8,1.953a13.194,13.194,0,0,1-1.132-.713,41.254,41.254,0,0,0-66.623,25.736c-3.712,22.39,12.08,43.99,34.514,47.209a41.15,41.15,0,0,0,43.932-23.907,9.66,9.66,0,0,1,.665-1.065,15.284,15.284,0,0,1-.577,2.668,50.128,50.128,0,0,1-20.8,24.643c-1.294.784-2.518,1.683-3.774,2.529l0-.012-.819.266a44.238,44.238,0,0,1-28.374-.985,47.55,47.55,0,0,1-31.7-47.046c.835-23.07,19.2-42.693,42.215-45.149a43.527,43.527,0,0,1,19.362,1.894l.811.286,0-.006a20.05,20.05,0,0,0,1.839,1.43,49.622,49.622,0,0,1,12.257,10.271" transform="translate(-89.865 -90.95)" fill="#a3314f"/><path d="M259.064,215.473l-2.01,2.189a28.592,28.592,0,0,0-17.738-6.261c-14.761-.1-27.595,11.573-28.59,25.931-1.077,15.535,9.221,28.585,24.244,30.882a28.7,28.7,0,0,0,30.739-17.5,3.362,3.362,0,0,1,.067,1.169,37.233,37.233,0,0,1-15.667,20.124,22.69,22.69,0,0,0-1.934,1.583c-19.436,5.7-40.734-8.142-43.426-28.227-2.6-19.4,9.283-36.049,28.462-39.749a30.261,30.261,0,0,1,15.714.964c.108.212.163.486.33.627q4.893,4.145,9.809,8.264" transform="translate(-103.073 -103.753)" fill="#f1f1f1"/><path d="M104.941,26.195c.028,1.975.036,3.951.088,5.925.057,2.181,1.306,3.617,3.131,3.659,1.9.044,3.151-1.415,3.2-3.732.015-.791,0-1.582,0-2.5h7.33c.744,1.9,1.81,3.754,2.143,5.727a40.778,40.778,0,0,1,.075,6.78c-6.488.022-12.975.058-19.463.063q-17.706.016-35.413,0H63.95A70.182,70.182,0,0,1,64,34.957a6,6,0,0,1,6.18-5.472c2.657-.055,5.315-.015,7.973-.017h1.57c0,1-.028,1.962.006,2.919a3.259,3.259,0,0,0,3.182,3.394,3.225,3.225,0,0,0,3.124-3.441c.039-3.089-.029-6.18.024-9.268a9.371,9.371,0,0,1,8.866-9.381c.3.447.594.9.914,1.339,1.353,1.847,2.631,3.72,2.354,6.186-1.266-1.233-2.788-1.921-4.274-.72a3.93,3.93,0,0,0-1.391,2.923A3.962,3.962,0,0,0,94.5,25.989c1.478.764,2.852.026,3.849-1.282a1.77,1.77,0,0,0,2.188,1.52,43.069,43.069,0,0,1,4.405-.032" transform="translate(-32.212 -7.272)" fill="#ffb500"/><path d="M255.365,274.78c-7.822,1.321-14.417-1.137-19.783-6.778a22.092,22.092,0,0,1-3.914-24.313,22.347,22.347,0,0,1,20.762-13.005c.982.023,1.959.224,2.939.342l.8.247-.009-.012a23.442,23.442,0,0,1,1.921,1.652c1.5,1.589,2.948,3.228,4.416,4.848l-1.461,1.56a56.3,56.3,0,0,0-7.009-2.083c-8.581-1.395-16.453,4.708-17.841,13.646-1.251,8.061,4.788,16.28,12.932,17.6,7.49,1.214,13.65-2.065,17.437-9.281a30.444,30.444,0,0,1-1.292,4.594c-2.124,4.687-5.691,8.139-9.9,10.983" transform="translate(-115.813 -116.696)" fill="#a3314f"/><path d="M301.1,289.487c1.256-.846,2.48-1.745,3.774-2.53a50.126,50.126,0,0,0,20.8-24.643,15.263,15.263,0,0,0,.577-2.668l-.007.055.39-1.142-.022.035.394-.961c.626-3,1.377-5.983,1.85-9.009.955-6.1-.061-12.033-1.772-17.884.029-.509.237-1.093.059-1.514-1.562-3.71-3.143-7.415-4.843-11.064a10.846,10.846,0,0,0-1.928-2.244l3.377-3.343a46.28,46.28,0,0,1,8.62,14.172c9.834,25.138-3.794,53.962-29.479,62.331-.58.189-1.194.275-1.792.408" transform="translate(-151.843 -107.567)" fill="#b55a72"/><path d="M226.04,51.919c5.088-.672,8.232,2.043,8.233,7.131,0,16.735-.017,33.47.035,50.2,0,1.477-.38,2.268-1.859,2.649-1.408.363-2.749.988-4.5,1.639v-2.394q0-22.787-.016-45.573a33.464,33.464,0,0,0-.355-3.471,9.42,9.42,0,0,0,.346-1.363,13.619,13.619,0,0,0-1.887-8.822" transform="translate(-113.989 -26.5)" fill="#763d22"/><path d="M204.4,134.521q-.02-28.472-.04-56.943h6.357v1.93c0,16.256-.017,32.512.033,48.768a2.855,2.855,0,0,1-1.535,2.81c-1.676,1.029-3.216,2.279-4.814,3.435" transform="translate(-103.057 -39.49)" fill="#b0c0d2"/><path d="M292.716,286.437a22.583,22.583,0,0,1,1.934-1.583,37.229,37.229,0,0,0,15.666-20.124,3.336,3.336,0,0,0-.066-1.169,31.577,31.577,0,0,0,1.368-17.585,32.722,32.722,0,0,0-.885-4.255c-.949-2.749-2.079-5.435-3.133-8.148l2.893-3.095A33.339,33.339,0,0,1,317,242.271c6.041,18.926-5.461,39.84-24.287,44.166" transform="translate(-147.613 -116.596)" fill="#cbd4d8"/><path d="M281.517,283.77c4.207-2.844,7.773-6.3,9.9-10.983a30.444,30.444,0,0,0,1.292-4.594c1.926-4.873,1.353-9.63-.573-14.363a2.118,2.118,0,0,1,.3-1.766c.942-1.208,2.057-2.282,3.244-3.56A19.779,19.779,0,0,1,300,258.075a22.289,22.289,0,0,1-16.836,25.509,12.914,12.914,0,0,1-1.645.185" transform="translate(-141.966 -125.686)" fill="#b55a72"/><path d="M264.3,275.25c-4.741-.014-8.829-4.322-8.821-9.3a9.262,9.262,0,0,1,8.825-9.3l2.293,3.051c-1.1,1.154-2.191,2.313-3.3,3.457-1.787,1.847-1.96,3.519-.578,5.017a3.41,3.41,0,0,0,4.916-.358c.04.432.26.959.09,1.281-1.1,2.072-2.275,4.1-3.428,6.142" transform="translate(-128.837 -129.799)" fill="#dee4f0"/><path d="M214.915,52.022a13.619,13.619,0,0,1,1.887,8.822,9.423,9.423,0,0,1-.346,1.363,6.871,6.871,0,0,0-6.9-4.013c-1.71.046-3.422.008-5.233.008-.118-2.13-.227-4.072-.344-6.181Z" transform="translate(-102.865 -26.603)" fill="#9e512c"/><path d="M176.667,58.141a40.776,40.776,0,0,0-.074-6.78c-.334-1.974-1.4-3.823-2.143-5.727,5.09-.373,8.24,1.692,8.5,5.716.142,2.2.025,4.422.025,6.791Z" transform="translate(-87.972 -23.359)" fill="#ffb500" opacity="0.6"/><path d="M129.772,21.19c.278-2.466-1-4.339-2.354-6.186-.319-.436-.609-.892-.913-1.339A9.313,9.313,0,0,1,136.57,22.48c.056,1.226-.027,2.459-.047,3.689a43.071,43.071,0,0,0-4.405.032,1.771,1.771,0,0,1-2.188-1.52q-.079-1.746-.159-3.492" transform="translate(-63.795 -7.247)" fill="#ffb500" opacity="0.6"/><path d="M273.278,280.78c1.152-2.042,2.333-4.07,3.428-6.142.17-.322-.05-.849-.09-1.281l5.979-5.731c1.155,3.021,1.256,5.884-.382,8.54-2.011,3.262-4.911,5.1-8.935,4.615" transform="translate(-137.811 -135.329)" fill="#b0c0d2"/><path d="M318.231,196.354a49.621,49.621,0,0,0-12.258-10.271,20.054,20.054,0,0,1-1.839-1.43c6.235,1.624,11.481,5.016,16.916,9.477l-2.82,2.224" transform="translate(-153.372 -93.487)" fill="#c31e1d"/><path d="M304.365,217.072q-4.908-4.127-9.809-8.264c-.167-.141-.222-.415-.33-.627a29.664,29.664,0,0,1,12.523,6.679l-2.384,2.211" transform="translate(-148.375 -105.352)" fill="#cad2d6"/><path d="M338.444,219.318a10.832,10.832,0,0,1,1.928,2.244c1.7,3.648,3.28,7.353,4.843,11.064.177.422-.031,1.005-.06,1.514a43.513,43.513,0,0,0-8.228-14.19l1.517-.632" transform="translate(-169.908 -110.968)" fill="#e63e31"/><path d="M289.457,238.354c-1.468-1.619-2.915-3.259-4.416-4.848a23.536,23.536,0,0,0-1.921-1.652c3.348.319,6.156,1.871,9.042,3.831l-2.7,2.668" transform="translate(-142.774 -117.29)" fill="#b55a72"/><path d="M321.141,236.722c1.055,2.712,2.185,5.4,3.133,8.147a32.661,32.661,0,0,1,.886,4.255q-2.478-5.539-4.954-11.079l-.636.062,1.572-1.386" transform="translate(-161.155 -119.745)" fill="#e1e2e2"/><path d="M275.579,259.711l-2.293-3.051,4.327.258.2.625-2.237,2.168" transform="translate(-137.815 -129.799)" fill="#b0c0d2"/><path d="M352.222,305.338l-.389,1.142.389-1.142" transform="translate(-177.425 -154.347)" fill="#f04234"/><path d="M282.326,231.627l-.8-.247.8.247" transform="translate(-141.97 -117.051)" fill="#c41e1e"/><path d="M352.968,303.47l-.394.961.394-.961" transform="translate(-177.799 -153.405)" fill="#f04234"/><path d="M303.3,184.375l-.81-.286.81.286" transform="translate(-152.542 -93.202)" fill="#c31e1d"/><path d="M299.462,367.97l.819-.266-.819.266" transform="translate(-151.015 -185.797)" fill="#c51e1e"/><path d="M125.947,115.749q9.639,0,19.278,0a13.059,13.059,0,0,1,1.85.071,3.1,3.1,0,0,1,.574,5.995,7.7,7.7,0,0,1-2.371.268q-19.278.023-38.556.008a10.031,10.031,0,0,1-1.662-.072,3.1,3.1,0,0,1-2.744-3.375,3,3,0,0,1,3.057-2.859c2.531-.08,5.066-.035,7.6-.037q6.488,0,12.975,0" transform="translate(-51.592 -58.734)" fill="#050404"/><path d="M126,166.856q9.916,0,19.833,0c2.5,0,3.937,1.178,3.922,3.163s-1.46,3.154-3.96,3.155q-19.833.01-39.667,0c-2.61,0-4.067-1.446-3.763-3.651.238-1.734,1.454-2.658,3.617-2.662q10.009-.021,20.019-.005" transform="translate(-51.602 -84.511)" fill="#020101"/><path d="M117.622,224.2c-3.892,0-7.785.015-11.677-.006-2.252-.012-3.583-1.165-3.625-3.062-.044-1.973,1.334-3.245,3.653-3.252q11.584-.03,23.169,0c2.321.005,3.744,1.259,3.737,3.192-.008,1.951-1.384,3.114-3.765,3.124-3.83.016-7.661,0-11.492,0" transform="translate(-51.598 -110.234)" fill="#030302"/><path d="M115.029,268.951c2.9,0,5.807-.023,8.71.007,2.429.025,3.939,1.331,3.874,3.276-.062,1.9-1.475,3.062-3.867,3.071q-8.8.036-17.606,0c-2.421-.009-3.784-1.141-3.835-3.067-.053-2.013,1.364-3.257,3.827-3.281,2.965-.03,5.93-.007,8.9-.007" transform="translate(-51.591 -135.993)" fill="#060504"/><path d="M63.475,212.662c1.278-1.909,2.53-3.813,3.816-5.692,1.322-1.931,3.1-2.393,4.725-1.267,1.512,1.05,1.753,2.9.547,4.743q-2.833,4.342-5.74,8.634c-1.59,2.333-3.541,2.511-5.558.568-.8-.771-1.585-1.56-2.36-2.359-1.527-1.574-1.729-3.21-.584-4.608q1.775-2.168,4.6-.324c.145.095.305.168.555.3" transform="translate(-29.041 -103.798)" fill="#050404"/><path d="M63.5,161.593c1.28-1.92,2.522-3.827,3.81-5.7,1.267-1.844,3.007-2.326,4.589-1.328,1.617,1.02,1.9,2.952.658,4.859-1.888,2.889-3.789,5.772-5.738,8.62-1.567,2.29-3.55,2.447-5.578.509q-1.2-1.151-2.36-2.353c-1.5-1.561-1.686-3.233-.53-4.611,1.185-1.412,2.707-1.5,4.606-.263a5.684,5.684,0,0,0,.543.269" transform="translate(-29.048 -78.056)" fill="#040303"/><path d="M63.488,110.525c1.283-1.924,2.525-3.833,3.815-5.71,1.272-1.851,3.013-2.337,4.589-1.339,1.637,1.037,1.929,2.932.675,4.853q-2.832,4.338-5.742,8.625c-1.566,2.295-3.539,2.451-5.57.5q-1.2-1.155-2.361-2.356c-1.5-1.554-1.69-3.243-.547-4.613s2.807-1.454,4.626-.25c.139.092.292.164.515.289" transform="translate(-29.052 -52.294)" fill="#040303"/><path d="M63.446,263.849c1.359-2.036,2.6-3.948,3.9-5.826,1.269-1.843,3-2.293,4.593-1.256,1.566,1.021,1.876,2.885.687,4.712-1.954,3-3.928,5.989-5.96,8.936-1.407,2.04-3.388,2.209-5.184.529-.812-.76-1.579-1.567-2.361-2.359-1.727-1.75-1.978-3.44-.733-4.874,1.231-1.418,2.934-1.4,5.059.139" transform="translate(-29.051 -129.577)" fill="#040303"/><path d="M127.322,27.5q.08,1.746.159,3.492c-1,1.308-2.371,2.046-3.849,1.282a3.962,3.962,0,0,1-1.975-2.571,3.929,3.929,0,0,1,1.392-2.923c1.486-1.2,3.007-.513,4.273.72" transform="translate(-61.346 -13.559)" fill="#080700"/></g></g></svg>