<svg xmlns="http://www.w3.org/2000/svg" width="209.371" height="217.122" viewBox="0 0 209.371 217.122"><g transform="translate(8351.481 12193.967)"><g transform="translate(-8351.48 -12193.968)"><g transform="translate(0 0)"><path d="M56.265,198.02a111.883,111.883,0,0,1-23.418-26.145c-12.358-19.67-17.83-41.067-15.975-64.253,3.735-46.669,37.738-85.3,83.492-94.422,27.545-5.49,53.33-.515,77.125,14.5.591.373,1.178.754,1.771,1.125a2.946,2.946,0,0,0,.5.13c3.4-3.4,6.862-6.958,10.447-10.387.742-.709,2.157-1.521,2.857-1.248.742.29,1.233,1.773,1.427,2.81.455,2.441.667,4.926.977,7.394.126,1.52.252,3.04.412,4.972l6.182-5.82c4.855-2.08,9.762,1.172,8.945,6.9l-6.05,7.75,12.933,1.236c2.716,1.073,2.944,2.071.96,4.151-.855.9-1.688,1.815-2.531,2.724L208.343,58c.288.453.747,1.174,1.2,1.9a103.984,103.984,0,0,1,16.339,53.568c.046,1.566-.2,2.784-1.871,3.282-1.966-.427-1.866-1.957-1.912-3.471a100.007,100.007,0,0,0-15.438-50.948c-.4-.634-.862-1.224-1.574-2.229-2.044,2.179-3.944,4.119-5.742,6.149a3.89,3.89,0,0,1-3.961,1.278c-2.237-.378-4.515-.521-7.2-.809l1.416,2.116c13.4,20.053,17.755,41.884,12.482,65.442-4.349,19.428-14.82,35.054-30.382,47.36-.74.584-1.806,1.417-1.821,2.153-.141,6.736-.083,13.476-.083,20.5.615-.307.951-.455,1.268-.634A99.64,99.64,0,0,0,199.6,179.517a100.94,100.94,0,0,0,17.784-33.1c.468-1.46,1.022-2.638,2.845-2.419,1.414,1.04,1.144,2.325.674,3.755-7.807,23.779-21.957,42.833-43.189,56.1a98.7,98.7,0,0,0-19.226,15.629c-2.259,2.36-4.674,4.573-6.9,6.964a5.044,5.044,0,0,1-4.1,1.655c-12.761-.062-25.521-.044-38.283-.03q-14.586.016-29.172.082c-1.513-.255-3.158-.22-4.508-.834-2.062-.937-2.951-2.854-2.957-5.15-.009-3.65-.051-7.3-.08-10.951-.28-1.091-.2-2.706-.9-3.19-5.019-3.466-10.2-6.7-15.325-10.009m90.906,22.542c.035-2.644.087-5.289.1-7.933.027-5.2,1.856-7.065,6.989-7.074,3.868-.007,7.737,0,11.695,0,.043-.616.092-.99.092-1.364q.006-48.937.025-97.875c0-2.031-.855-2.758-2.813-2.741-6.306.054-12.614.072-18.92-.016a4.826,4.826,0,0,0-3.858,1.618q-7.344,7.519-14.856,14.873c-3.486,3.406-8.746,2.295-10.229-2.084a6.012,6.012,0,0,1,1.769-6.588c2.466-2.426,4.957-4.827,7.437-7.238l-.3-.545h-2.242q-21.023,0-42.047,0c-3.558,0-3.693.139-3.693,3.693q0,55.244,0,110.489c0,.777.049,1.554.075,2.33-.218,4.162-.169,4.213,4.01,4.213h66.764ZM177.189,31.731c-32.181-19.693-65.206-22.7-99.32-7.022C41.357,41.5,18.08,80.141,20.4,120.4c2.132,37.086,20.237,64.612,51.9,83.855a5.356,5.356,0,0,0,.267-.879c.009-6.154-.035-12.307.048-18.46a3.479,3.479,0,0,0-1.559-3.072c-25.631-20.71-36.863-47.4-31.6-80.041,9.617-59.6,79.151-88.789,128.757-54.388.6.418,1.213.822,2.207,1.5-.312-2.926-.7-5.314-.759-7.71a4.777,4.777,0,0,1,1.021-3.064c1.92-2.136,4.084-4.052,6.513-6.406M71.978,178.122l.593-.468c0-7.708.035-15.417-.047-23.124a5.148,5.148,0,0,0-1.043-2.7,60.291,60.291,0,0,1-10.927-45.786C66.541,67.209,107.9,43.958,144.27,59c5.616,2.323,10.759,5.79,16.442,8.9,2.9-2.932,6.189-6.24,9.457-9.572,1.672-1.7,1.515-3.625-.406-5.107a77.955,77.955,0,0,0-47.111-16.711A75.445,75.445,0,0,0,78.059,49.36C54.082,65.538,41.837,88.33,41.952,117.205c.079,19.816,7.373,37.21,20.706,51.93,2.89,3.191,6.2,6,9.319,8.986m.594-31.776V140q0-16.938.007-33.877c.007-4.047,2.134-6.179,6.165-6.272a28.887,28.887,0,0,1,3.735.019c1.7.183,2.581-.436,3.374-2.021a39.5,39.5,0,0,1,43.594-20.9,41.868,41.868,0,0,1,14.955,6.6l12.61-12.613c-17.912-15.674-50-18.68-73.031.859-23.614,20.03-25.689,52.875-11.409,74.547m96.181-69.474c.318.482.471.745.653.986,17.207,22.844,17.679,50.973,1.293,74.25a5.159,5.159,0,0,0-.86,2.761c-.07,7.16-.041,14.322-.032,21.483,0,.495.082.99.13,1.532a3.357,3.357,0,0,0,.621-.207,6.85,6.85,0,0,0,.744-.561c24.7-21.591,33.8-48.429,26.751-80.505a72.751,72.751,0,0,0-14.282-29.335c-1.386-1.77-3.289-1.99-4.759-.555-3.4,3.315-6.749,6.673-10.26,10.152m-79.341,22.8a3.369,3.369,0,0,0,.632.167q18.677.021,37.355.009a2.643,2.643,0,0,0,1.708-.51c4.256-4.19,8.455-8.439,12.681-12.684-17.165-13.334-44.05-6.117-52.376,13.019M169.8,146.348c14.413-21.821,10.179-51.286-3.642-66.03L153.584,92.855a12.828,12.828,0,0,1,1.683,2.738c1.228,3.7,3.685,4.6,7.421,4.346,5.235-.35,7.108,1.8,7.108,7.117,0,12.92,0,25.84,0,39.292m-48.528-27.735a24.764,24.764,0,0,0,2.4-1.87q41.061-41.022,82.1-82.064c1.247-1.246,2.383-2.607.851-4.177-1.594-1.633-2.946-.372-4.129.877-.107.113-.219.221-.329.332q-40.711,40.711-81.418,81.424a5.808,5.808,0,0,0-1.527,1.73,3.348,3.348,0,0,0,.032,2.369c.269.564,1.165.83,2.016,1.378m62.286-56.2c3.983.415,7.471.663,10.915,1.192a3.531,3.531,0,0,0,3.439-1.241c4.744-4.834,9.561-9.6,14.344-14.392.516-.517.985-1.081,1.774-1.953-4.067-.44-7.664-.937-11.277-1.151a4.461,4.461,0,0,0-3.008,1.168c-4.977,4.819-9.842,9.753-14.734,14.66-.417.418-.768.9-1.452,1.717m7.55-39.4c-.927.857-1.5,1.351-2.03,1.882q-5.284,5.268-10.556,10.55c-5.612,5.615-5.606,5.615-4.3,13.544.151.916.166,1.855.294,2.776a16.049,16.049,0,0,0,.448,1.7c5.786-5.771,11.354-11.284,16.844-16.873a3.051,3.051,0,0,0,.455-2.146c-.309-3.622-.719-7.235-1.153-11.431M162.733,209.3c-3.086,0-6.19-.133-9.27.087-.843.061-2.251,1.135-2.3,1.825-.245,3.273-.109,6.574-.109,9.758L162.733,209.3M153.467,99.782l-2.488-4.149L146.1,99.782Z" transform="translate(-16.519 -11.032)"/><path d="M80.171,310.491C85.3,313.8,90.476,317.035,95.5,320.5c.7.484.619,2.1.9,3.19-2.431-1.6-4.939-3.1-7.275-4.827-2.535-1.874-4.953-3.913-7.329-5.986a11.136,11.136,0,0,1-1.619-2.387" transform="translate(-40.426 -123.503)" fill="#e0e0e3"/><path d="M112.367,275.759c-.026-.777-.075-1.554-.076-2.33q-.006-55.244,0-110.489c0-3.555.135-3.692,3.693-3.693q21.023,0,42.046,0h2.242l.3.545c-2.481,2.411-4.972,4.812-7.437,7.238a6.012,6.012,0,0,0-1.769,6.588c1.484,4.378,6.744,5.489,10.229,2.084q7.518-7.345,14.856-14.874a4.828,4.828,0,0,1,3.858-1.617c6.306.089,12.614.07,18.921.016,1.958-.017,2.814.709,2.812,2.741q-.045,48.937-.025,97.875c0,.374-.049.748-.091,1.364-3.959,0-7.827-.006-11.7,0-5.133.009-6.962,1.875-6.988,7.074-.014,2.644-.066,5.289-.1,7.933q-33.8-.006-67.6-.031a23.571,23.571,0,0,1-3.178-.425m44.827-88.867A32.253,32.253,0,1,0,189.408,219.1a32.247,32.247,0,0,0-32.214-32.209" transform="translate(-52.488 -66.685)" fill="#b0c0d2"/><path d="M179.424,33.93c-2.43,2.354-4.593,4.271-6.513,6.406a4.779,4.779,0,0,0-1.021,3.063c.061,2.4.448,4.785.759,7.71-.994-.673-1.605-1.078-2.208-1.5C120.836,15.214,51.3,44.4,41.686,104c-5.266,32.638,5.966,59.331,31.6,80.04a3.481,3.481,0,0,1,1.559,3.073c-.083,6.152-.039,12.307-.048,18.46a5.355,5.355,0,0,1-.267.879c-31.659-19.243-49.763-46.769-51.9-83.855C20.315,82.341,43.592,43.695,80.1,26.908c34.114-15.683,67.139-12.671,99.32,7.022" transform="translate(-18.755 -13.231)" fill="#b55a72"/><path d="M87.275,193.439c-3.117-2.985-6.428-5.8-9.319-8.986-13.334-14.719-20.626-32.115-20.706-51.93-.116-28.876,12.129-51.668,36.107-67.846a75.45,75.45,0,0,1,44.594-12.846,77.953,77.953,0,0,1,47.11,16.711c1.922,1.482,2.077,3.4.406,5.108-3.268,3.331-6.558,6.639-9.457,9.571-5.683-3.113-10.826-6.58-16.442-8.9C123.2,59.276,81.838,82.527,75.85,121.36a60.288,60.288,0,0,0,10.927,45.786,5.143,5.143,0,0,1,1.043,2.7c.082,7.707.047,15.416.047,23.124l-.593.468" transform="translate(-31.817 -26.349)" fill="#a3314f"/><path d="M312.935,170.611q-.256,1.453-.513,2.9c-1.823-.219-2.377.959-2.845,2.419a100.942,100.942,0,0,1-17.784,33.1,99.632,99.632,0,0,1-28.532,24.14c-.318.18-.653.328-1.268.634,0-7.028-.058-13.768.083-20.5.016-.736,1.081-1.568,1.821-2.153,15.563-12.305,26.034-27.932,30.383-47.36,5.274-23.559.914-45.39-12.482-65.442l-1.416-2.116c2.682.289,4.959.431,7.2.81a3.89,3.89,0,0,0,3.961-1.278c1.8-2.031,3.7-3.97,5.742-6.149.712,1,1.177,1.595,1.574,2.228a100.01,100.01,0,0,1,15.438,50.948c.046,1.514-.054,3.044,1.912,3.471q0,1.641,0,3.281c-1.786.279-2.018,1.612-2.215,3.084-.67,5-1.485,9.985-2.057,15-.107.946.649,1.99,1.006,2.988" transform="translate(-108.71 -40.546)" fill="#b55a72"/><path d="M100.9,174.688c-14.28-21.672-12.2-54.517,11.409-74.547,23.035-19.539,55.119-16.533,73.031-.859l-12.61,12.612a41.867,41.867,0,0,0-14.955-6.6,39.5,39.5,0,0,0-43.594,20.9c-.792,1.584-1.673,2.2-3.374,2.021a29,29,0,0,0-3.735-.02c-4.031.093-6.157,2.225-6.165,6.272q-.031,16.939-.007,33.878v6.345" transform="translate(-44.845 -39.374)" fill="#b55a72"/><path d="M260.318,109.8c3.511-3.479,6.864-6.837,10.26-10.152,1.47-1.436,3.372-1.215,4.759.554a72.741,72.741,0,0,1,14.282,29.336c7.045,32.076-2.054,58.913-26.751,80.5a6.8,6.8,0,0,1-.744.562,3.313,3.313,0,0,1-.62.207c-.049-.543-.13-1.037-.131-1.532-.008-7.161-.037-14.322.032-21.483a5.163,5.163,0,0,1,.86-2.76c16.387-23.277,15.914-51.406-1.293-74.25-.182-.242-.335-.5-.653-.987" transform="translate(-108.085 -43.961)" fill="#a3314f"/><path d="M133.254,141.047c8.327-19.136,35.212-26.352,52.376-13.019-4.226,4.245-8.425,8.494-12.681,12.684a2.644,2.644,0,0,1-1.708.51q-18.677.029-37.356-.009a3.378,3.378,0,0,1-.631-.167" transform="translate(-60.363 -52.413)" fill="#a3314f"/><path d="M252.24,188.024c0-13.452,0-26.372,0-39.292,0-5.315-1.873-7.467-7.109-7.117-3.735.25-6.192-.651-7.421-4.346a12.828,12.828,0,0,0-1.683-2.738L248.6,121.993c13.821,14.744,18.055,44.209,3.642,66.031" transform="translate(-98.962 -52.707)" fill="#b55a72"/><path d="M182.923,129.857c-.851-.548-1.747-.814-2.016-1.378a3.349,3.349,0,0,1-.032-2.37,5.82,5.82,0,0,1,1.526-1.73q40.706-40.715,81.418-81.425c.111-.11.222-.219.329-.332,1.183-1.249,2.535-2.511,4.129-.877,1.532,1.57.4,2.931-.852,4.177q-41.055,41.026-82.1,82.063a24.923,24.923,0,0,1-2.4,1.87" transform="translate(-78.173 -22.276)" fill="#727997"/><path d="M112.372,345.863a23.6,23.6,0,0,0,3.178.425q33.8.043,67.6.031v3.757H116.382c-4.179,0-4.227-.052-4.009-4.213" transform="translate(-52.494 -136.788)" fill="#e2e2e2"/><path d="M284.025,82.767c.684-.813,1.035-1.3,1.452-1.716,4.892-4.907,9.758-9.841,14.734-14.661a4.463,4.463,0,0,1,3.008-1.168c3.613.214,7.21.711,11.277,1.151-.789.872-1.258,1.436-1.774,1.954-4.784,4.795-9.6,9.557-14.344,14.391a3.53,3.53,0,0,1-3.439,1.241c-3.444-.529-6.932-.777-10.914-1.192" transform="translate(-116.989 -31.383)" fill="#b0c0d2"/><path d="M285.532,30.226c.435,4.2.844,7.809,1.153,11.431a3.055,3.055,0,0,1-.455,2.146c-5.49,5.589-11.057,11.1-16.844,16.873a16.284,16.284,0,0,1-.448-1.7c-.128-.921-.143-1.86-.293-2.776-1.305-7.929-1.311-7.928,4.3-13.544q5.275-5.278,10.556-10.55c.533-.531,1.1-1.025,2.03-1.881" transform="translate(-110.945 -18.241)" fill="#b0c0d2"/><path d="M243.629,328.539,231.946,340.21c0-3.185-.135-6.485.109-9.758.052-.691,1.46-1.765,2.3-1.825,3.08-.221,6.184-.087,9.27-.087" transform="translate(-97.415 -130.266)" fill="#e2e2e2"/><path d="M231.406,150.668h-7.369l4.882-4.149,2.488,4.149" transform="translate(-94.459 -61.918)" fill="#a3314f"/><path d="M342.972,206.658c-.357-1-1.113-2.042-1.006-2.988.572-5.012,1.387-10,2.057-15,.2-1.472.429-2.806,2.215-3.084.545.976,1.64,2.009,1.545,2.918-.535,5.138-1.337,10.248-2.091,15.361-.227,1.539-.747,2.9-2.721,2.791" transform="translate(-138.747 -76.592)"/><path d="M164.78,203.543a32.253,32.253,0,1,1-32.293,32.128,32.247,32.247,0,0,1,32.293-32.128m.041,3.758a28.5,28.5,0,1,0,28.425,28.61,28.552,28.552,0,0,0-28.425-28.61" transform="translate(-60.074 -83.335)"/><path d="M167.075,209.562a28.5,28.5,0,1,1-28.586,28.448,28.56,28.56,0,0,1,28.586-28.448M162.4,247.484c-3.417-3.457-6.588-6.654-9.745-9.865-1.016-1.033-2.153-1.821-3.376-.505-1.15,1.238-.222,2.262.708,3.19,3.471,3.461,6.922,6.941,10.4,10.4,2.088,2.079,2.824,2.022,4.583-.341q8.217-11.042,16.417-22.1c.324-.436.876-.876.894-1.331.032-.829.012-2.026-.49-2.406a2.711,2.711,0,0,0-2.406.255,8.1,8.1,0,0,0-1.725,2.169c-5.008,6.737-10.014,13.476-15.257,20.531" transform="translate(-62.329 -85.596)" fill="#e2e2e2"/><path d="M168.566,256.372c5.243-7.055,10.249-13.793,15.257-20.531a8.1,8.1,0,0,1,1.725-2.169,2.711,2.711,0,0,1,2.406-.255c.5.38.521,1.577.49,2.406-.017.455-.569.895-.894,1.331q-8.206,11.05-16.417,22.1c-1.758,2.363-2.495,2.42-4.583.341-3.474-3.458-6.925-6.938-10.4-10.4-.93-.928-1.858-1.952-.708-3.19,1.223-1.316,2.36-.528,3.376.505,3.156,3.211,6.327,6.408,9.745,9.865" transform="translate(-68.497 -94.484)" fill="#e2e2e2"/></g></g><g transform="translate(-8261.848 -12061.12)"><g transform="translate(0 0)"><path d="M89.873,27.852,90.24,30a9.944,9.944,0,0,1,1.237.277,1.563,1.563,0,0,1,.752,2.635,3.246,3.246,0,0,1-.449.472,1.15,1.15,0,0,1-1.709-.073,12.394,12.394,0,0,1-.94-1.426A8.189,8.189,0,0,0,87.272,33.6a.358.358,0,0,0-.01.275,18.665,18.665,0,0,1-.037,9.052,43.786,43.786,0,0,1-2.977,8.926c-.065.145-.122.292-.19.455a1.653,1.653,0,0,1,.92,1.148.744.744,0,0,1-.8,1q-2.659.007-5.319,0c-.585,0-.829-.259-.83-.865q0-2.441,0-4.882v-.465a6.425,6.425,0,0,1-5.58,0c0,1.756,0,3.467,0,5.177,0,.838-.191,1.031-1.015,1.031-1.41,0-2.821-.045-4.228.015-1.045.045-1.254-.707-.834-1.468a3.454,3.454,0,0,1,.421-.523c-.656-1.568-1.356-3.107-1.949-4.686a31.483,31.483,0,0,1-2.084-8.327c-.363-4.2.571-7.988,3.7-11.033a1.72,1.72,0,0,0,.171-2.043,1.728,1.728,0,0,0-2.012-1.1,4.317,4.317,0,0,1-3.314-1.185,3.289,3.289,0,0,1-1.134-2.682,20.274,20.274,0,0,1,.275-3.376,7.971,7.971,0,0,0-.258-3.608c-.09-.321-.2-.637-.275-.961a.685.685,0,0,1,.835-.852c1.691.509,3.4.979,5.046,1.61a8.821,8.821,0,0,1,4.124,3.43c.228.336.452.674.74,1.1a8.871,8.871,0,0,1,9.156,0c.245-.363.455-.673.663-.983a9.711,9.711,0,0,1,5.576-4.06c1.17-.334,2.334-.69,3.5-1.052.322-.1.653-.119.827.162a1.228,1.228,0,0,1,.121.8c-.1.583-.273,1.155-.434,1.727a9,9,0,0,0,.116,3.624,15.74,15.74,0,0,1,.146,2.082c-.026,2.344-.987,3.432-3.18,4.069a7.072,7.072,0,0,1-2.063.115c-.306-.006-.52,0-.673.3a2.7,2.7,0,0,1-.433.65,1.958,1.958,0,0,0-.359,1.6.507.507,0,0,0,.155.288,16.09,16.09,0,0,1,2.85,4.095c.3-.285.582-.575.891-.827a8.723,8.723,0,0,1,1.093-.786.42.42,0,0,0,.232-.523c-.121-.641-.226-1.285-.347-1.983l1.38-.215m-1.091-13.3.044-.109a.343.343,0,0,0-.034-.061Q86.9,15,85.017,15.62l-.007.008a7.847,7.847,0,0,0-3.215,2.716c-.351.5-.674,1.013-1.017,1.516a.726.726,0,0,1-1.039.324c-.686-.27-1.366-.558-2.054-.824a6.5,6.5,0,0,0-4.956.032c-.563.228-1.13.448-1.694.673-.887.354-.978.326-1.519-.484-.282-.421-.555-.849-.848-1.263a7.9,7.9,0,0,0-3.184-2.689l-2.191-.763-1.668-.526c.033.161.049.245.068.327a8.583,8.583,0,0,1,.157,3.446,23.992,23.992,0,0,0-.282,3.242,2.01,2.01,0,0,0,.748,1.779,3.809,3.809,0,0,0,2.95.756,8.116,8.116,0,0,1,1.32-.007c.523.765,1.054,1.525,1.56,2.3a1.05,1.05,0,0,1,.116.539c.011,1.016,0,2.032.007,3.048a5.315,5.315,0,0,0,3.68,5.066,23.157,23.157,0,0,0,2.588.734,4.061,4.061,0,0,0,1.546-.036c.75-.147,1.482-.393,2.217-.614a5.349,5.349,0,0,0,3.919-5.246c0-.987-.007-1.974.007-2.961a1.133,1.133,0,0,1,.143-.574c.494-.767,1.015-1.516,1.527-2.271.3-.018.6-.051.894-.05a7.687,7.687,0,0,0,1.847.008c1.717-.437,2.283-1.082,2.3-2.77a16.256,16.256,0,0,0-.14-1.947,10.587,10.587,0,0,1-.208-3.363c.081-.4.135-.8.2-1.2ZM81.171,42.435l.47.068a5.989,5.989,0,0,1-1.7,4.271,1.577,1.577,0,0,0-.5,1.5v4.781h2.722c.089-.2.183-.391.262-.589.792-1.972,1.663-3.917,2.354-5.924a25.689,25.689,0,0,0,1.612-9.2,11.026,11.026,0,0,0-2.069-6.3l-.7-1c-.039.262-.061.405-.082.548a6.585,6.585,0,0,1-4.681,5.62,17.124,17.124,0,0,1-2.593.721,6,6,0,0,1-2.022.006,19.1,19.1,0,0,1-2.552-.706,6.571,6.571,0,0,1-4.5-4.468c-.165-.518-.234-1.066-.363-1.675l-.669.877c-.252.369-.532.723-.752,1.111a12.2,12.2,0,0,0-1.322,5.661,19.3,19.3,0,0,0,.873,5.916,39.765,39.765,0,0,0,3.147,8.17,3.463,3.463,0,0,0,.394.568c.175.213.374.406.6.648h1.944v-4.68a2.882,2.882,0,0,1,.016-.347,1.362,1.362,0,0,0-.434-1.138,10.749,10.749,0,0,1-1.307-2.028,10.788,10.788,0,0,1-.536-1.835l.448-.076.977-.045c.7,3.033,2.527,4.644,5.192,4.594,2.582-.048,4.29-1.772,4.89-4.93l.887-.119M91.365,31.713l-.851-.29.443.864.407-.574" transform="translate(-59.894 -12.605)" fill="#030303"/><path d="M102.737,187.65v4.68h-1.944c-.226-.242-.424-.436-.6-.648a3.462,3.462,0,0,1-.394-.568,39.763,39.763,0,0,1-3.147-8.17,19.3,19.3,0,0,1-.873-5.915,12.2,12.2,0,0,1,1.322-5.661c.22-.388.5-.742.752-1.111.033.228.069.457.1.686a7.056,7.056,0,0,0,2.852,4.79,11.26,11.26,0,0,0,3.746,1.545,6.544,6.544,0,0,0,4.166.172c.616-.207,1.248-.363,1.876-.536a7.308,7.308,0,0,0,3.291-1.856,7.415,7.415,0,0,0,2.14-4.722,11.026,11.026,0,0,1,2.069,6.3,25.689,25.689,0,0,1-1.612,9.2c-.691,2.007-1.562,3.952-2.354,5.924-.08.2-.174.39-.262.589h-2.722v-4.781a2.215,2.215,0,0,0,.471-.192,8.354,8.354,0,0,0,3.585-5.619,1.488,1.488,0,0,0-.2-.972c-.314-.478-.852-.424-1.343-.317a.9.9,0,0,0-.7.884,3.655,3.655,0,0,1-.083.38l-.887.119c-.6,3.158-2.307,4.881-4.89,4.93-2.665.05-4.492-1.56-5.192-4.594l-.977.045c-.162-.432-.308-.871-.49-1.294a.849.849,0,0,0-1.375-.279,1.081,1.081,0,0,0-.272,1.154,10.729,10.729,0,0,0,1.248,3.174,6.7,6.7,0,0,0,2.7,2.668" transform="translate(-91.592 -151.898)" fill="#fdd3d3"/><path d="M107.74,38.564a7.9,7.9,0,0,1,3.184,2.689c.293.413.566.841.848,1.263.542.81.632.838,1.519.484.564-.225,1.131-.444,1.694-.673a6.5,6.5,0,0,1,4.956-.032c.688.266,1.367.554,2.054.824a.726.726,0,0,0,1.039-.324c.343-.5.666-1.019,1.017-1.516a7.846,7.846,0,0,1,3.215-2.716l.006.144c-.725.921-1.494,1.812-2.166,2.77-1.136,1.62-.521,3.218.124,4.828l.373-.144.546.645c-.512.755-1.033,1.5-1.527,2.271a1.134,1.134,0,0,0-.143.574c-.014.987,0,1.974-.007,2.961a5.349,5.349,0,0,1-3.919,5.246c-.735.221-1.467.466-2.217.614a4.061,4.061,0,0,1-1.546.036,23.182,23.182,0,0,1-2.588-.734,5.315,5.315,0,0,1-3.68-5.066c-.008-1.016,0-2.032-.007-3.048a1.05,1.05,0,0,0-.116-.539c-.506-.776-1.037-1.536-1.56-2.3l.375-.736.55.213c.735-1.736,1.235-3.443-.06-5.127-.643-.836-1.321-1.644-1.984-2.465l.018-.142m9.777,11.583c-.427.075-.864.115-1.28.231a3.712,3.712,0,0,0-1.965,6.089,4.424,4.424,0,0,0,6.38.071,3.443,3.443,0,0,0,.981-3.033,4.143,4.143,0,0,0-4.116-3.357M113.3,48.1a.7.7,0,1,0,.713.669.7.7,0,0,0-.713-.669m8.381,0a.7.7,0,1,0,.7.679.7.7,0,0,0-.7-.679" transform="translate(-102.153 -35.54)" fill="#fdd2d2"/><path d="M79.62,36.318l-.375.736a8.116,8.116,0,0,0-1.32.007,3.809,3.809,0,0,1-2.95-.756,2.01,2.01,0,0,1-.748-1.779,23.989,23.989,0,0,1,.282-3.242,8.583,8.583,0,0,0-.157-3.446c-.019-.082-.034-.166-.068-.327l1.668.525c.113.128.219.263.34.383.326.323.657.639.987.957l-.309.4c.118.126.226.223.313.336.661.857,1.331,1.708,1.97,2.581a1.534,1.534,0,0,1,.227,1.327c-.164.638-.333,1.275-.5,1.924l.642.37" transform="translate(-72.556 -25.774)" fill="#df7f7f"/><path d="M261.827,38.647,261.281,38l.876-.471c-.082-.21-.151-.4-.23-.584a3.148,3.148,0,0,1,.518-3.627c.569-.634,1.093-1.308,1.647-1.976L263.7,30.9c.8-.462,1.6-.932,2.411-1.381a3.062,3.062,0,0,1,.608-.189c-.066.4-.12.8-.2,1.2a10.592,10.592,0,0,0,.208,3.363,16.256,16.256,0,0,1,.14,1.947c-.014,1.688-.58,2.333-2.3,2.77a7.693,7.693,0,0,1-1.847-.008c-.3,0-.6.032-.894.05" transform="translate(-237.83 -27.382)" fill="#df7f7f"/><path d="M131.842,163.324a7.415,7.415,0,0,1-2.14,4.722,7.308,7.308,0,0,1-3.291,1.856c-.627.172-1.26.329-1.876.536a6.544,6.544,0,0,1-4.166-.172,11.257,11.257,0,0,1-3.746-1.545,7.056,7.056,0,0,1-2.852-4.79c-.029-.229-.066-.457-.1-.685l.669-.877c.129.608.2,1.157.363,1.675a6.571,6.571,0,0,0,4.5,4.468,19.081,19.081,0,0,0,2.552.706,6,6,0,0,0,2.022-.006,17.127,17.127,0,0,0,2.593-.722,6.585,6.585,0,0,0,4.681-5.62c.021-.143.043-.286.082-.548l.7,1" transform="translate(-107.411 -144.887)" fill="#e0bbbb"/><path d="M229.271,258.629a3.661,3.661,0,0,0,.083-.38.9.9,0,0,1,.7-.884c.492-.107,1.03-.162,1.343.317a1.488,1.488,0,0,1,.2.972,8.354,8.354,0,0,1-3.585,5.619,2.21,2.21,0,0,1-.471.192,1.577,1.577,0,0,1,.5-1.5,5.989,5.989,0,0,0,1.7-4.271l-.47-.068" transform="translate(-207.995 -228.799)" fill="#e1bbbb"/><path d="M125.224,264.749a6.7,6.7,0,0,1-2.7-2.668,10.729,10.729,0,0,1-1.248-3.174,1.08,1.08,0,0,1,.272-1.154.849.849,0,0,1,1.375.279c.182.423.328.862.49,1.294l-.448.076a7.531,7.531,0,0,0,1.844,3.862,1.362,1.362,0,0,1,.434,1.138,2.885,2.885,0,0,0-.016.347" transform="translate(-114.079 -228.997)" fill="#e1bcbc"/><path d="M279.4,28.012a3.057,3.057,0,0,0-.608.189c-.81.449-1.608.919-2.411,1.381l-.657-.448-.09-.055q1.887-.622,3.776-1.241a.346.346,0,0,1,.034.061l-.044.109Z" transform="translate(-250.508 -26.065)" fill="#f6cbcb"/><path d="M90.388,33.363c-.329-.318-.661-.635-.987-.957-.121-.12-.227-.255-.34-.383l2.191.763-.018.142c-.125.006-.276-.031-.37.027a3.593,3.593,0,0,0-.477.409" transform="translate(-85.665 -29.762)" fill="#f2c8c8"/><path d="M323.694,174.5l-.407.574-.443-.864.851.29" transform="translate(-292.223 -155.39)" fill="#e7e7e7"/><path d="M307.969,28.471l.044-.108-.044.108" transform="translate(-279.081 -26.528)" fill="#df7f7f"/><path d="M275.576,38.649l-.006-.144.007-.008.09.055-.091.1" transform="translate(-250.455 -35.483)" fill="#f6cbcb"/><path d="M159.978,138.039a4.143,4.143,0,0,1,4.116,3.357,3.443,3.443,0,0,1-.981,3.033,4.424,4.424,0,0,1-6.38-.071,3.712,3.712,0,0,1,1.965-6.089c.416-.116.853-.156,1.28-.231m.1,6.327c.151-.023.412-.045.664-.105a2.527,2.527,0,0,0,2.007-2.283,2.456,2.456,0,0,0-1.856-2.349,2.958,2.958,0,0,0-2.763.458,2.232,2.232,0,0,0-.093,3.6,3.125,3.125,0,0,0,2.04.683" transform="translate(-144.613 -123.432)" fill="#040303"/><path d="M254.383,39.067l.091-.1.657.448.393.445c-.554.668-1.078,1.342-1.647,1.976a3.149,3.149,0,0,0-.518,3.627c.079.185.148.374.231.584l-.876.471-.373.144c-.644-1.61-1.259-3.208-.124-4.828.672-.958,1.441-1.849,2.166-2.77" transform="translate(-229.262 -35.901)" fill="#050303"/><path d="M98.106,40.179a3.593,3.593,0,0,1,.477-.409c.094-.057.245-.021.37-.027.662.821,1.341,1.629,1.984,2.465,1.295,1.684.794,3.391.06,5.127l-.55-.213-.642-.37c.17-.649.339-1.286.5-1.924a1.534,1.534,0,0,0-.227-1.327c-.639-.873-1.309-1.724-1.97-2.581-.087-.113-.2-.21-.313-.336l.309-.4" transform="translate(-93.383 -36.578)" fill="#040303"/><path d="M150.425,120.465a.7.7,0,1,1-.68.7.7.7,0,0,1,.68-.7" transform="translate(-139.282 -107.904)" fill="#0c0a0a"/><path d="M222.323,120.466a.7.7,0,1,1-.69.692.7.7,0,0,1,.69-.692" transform="translate(-202.799 -107.906)" fill="#0c0a0a"/><path d="M170.639,155.253a3.124,3.124,0,0,1-2.04-.683,2.232,2.232,0,0,1,.093-3.6,2.958,2.958,0,0,1,2.763-.458,2.456,2.456,0,0,1,1.856,2.349,2.527,2.527,0,0,1-2.007,2.283c-.252.06-.514.082-.664.105m-.844-2.764h-.64v1.35h.64Zm2.1,0h-.649v1.354h.649Z" transform="translate(-155.176 -134.319)" fill="#de7e7e"/><rect width="0.64" height="1.35" transform="translate(13.979 18.17)"/><rect width="0.648" height="1.354" transform="translate(16.067 18.165)"/></g></g></g></svg>