<svg xmlns="http://www.w3.org/2000/svg" width="197.77" height="197.771" viewBox="0 0 197.77 197.771"><g transform="translate(0 0)"><path d="M69.966,200.531l-7.282-4,8.267-22.655,5.673,3.838-1.62,2.8c26.818,18.474,69.692,17.828,97.351-12.6a75.74,75.74,0,0,0-2.668-104.529C140.9,34.742,94.657,33.781,65.04,61.148,34.7,89.186,34.579,131.977,52.773,158.276l2.8-1.626,3.833,5.677L36.762,170.6q-2-3.643-4-7.288l2.4-1.752C10.7,115.81,28.622,65.114,63.906,41A92.257,92.257,0,0,1,197.323,160.922c-10.277,18.939-25.384,32.856-45.284,41.125-27.311,11.349-54.18,9.482-80.333-3.929l-1.74,2.413" transform="translate(-17.332 -18.201)" fill="#a3314f"/><path d="M64.616,195.121l1.74-2.413c26.153,13.411,53.023,15.278,80.333,3.929,19.9-8.268,35.007-22.186,45.284-41.125A92.257,92.257,0,0,0,58.557,35.595C23.273,59.7,5.353,110.4,29.811,156.152l-2.4,1.752-2.978,1.26c-17.613-29-20.109-80.037,16.2-117.1C76.606,5.331,136.117,2.821,175.041,36.51c39.909,34.542,46.275,93.443,14.564,134.844C157.1,213.8,101.763,220.168,63.293,198.241l1.324-3.119" transform="translate(-11.983 -12.792)" fill="#040303"/><path d="M31.414,279.537l22.64-8.274c3.534-1.248,7.078-2.467,10.6-3.756,1.519-.556,2.953-.727,4.187.51s1.072,2.675.52,4.192c-1.283,3.523-2.507,7.067-3.754,10.6l-8.267,22.655c-1.972,5.387-3.956,10.771-5.911,16.165-.611,1.687-1.365,3.23-3.449,3.267-2.063.037-2.9-1.386-3.573-3.1-2.544-6.487-5.119-12.962-7.8-19.392a4.379,4.379,0,0,0-2.141-2.139c-6.425-2.683-12.894-5.262-19.378-7.8-1.718-.674-3.135-1.5-3.1-3.57.037-2.092,1.579-2.83,3.268-3.441,5.394-1.952,10.775-3.94,16.16-5.914m29.132-3.284a19.168,19.168,0,0,0-1.961.494q-13.992,5.077-27.973,10.184c-1.905.694-3.814,1.381-6.087,2.2,5.059,2.018,9.672,3.9,14.32,5.689a5.2,5.2,0,0,1,3.2,3.211c1.79,4.65,3.675,9.264,5.661,14.24.386-.969.675-1.641.926-2.328,2.582-7.073,5.184-14.138,7.726-21.226,1.474-4.111,2.85-8.257,4.268-12.389l.248-.2L60.74,276l-.195.256" transform="translate(-11.984 -127.136)" fill="#030303"/><path d="M89.794,192.68c1.248-3.536,2.472-7.081,3.755-10.6.553-1.517.713-2.958-.52-4.193s-2.668-1.066-4.187-.51c-3.519,1.289-7.064,2.508-10.6,3.756l-3.832-5.677,2.461-1.808a69.185,69.185,0,1,1,20.4,20.41l-1.806,2.462-5.673-3.838M82.3,135.7a52.733,52.733,0,1,0,52.955-52.58A52.842,52.842,0,0,0,82.3,135.7" transform="translate(-36.175 -37.004)" fill="#d9d9d9"/><path d="M90.127,191.134l1.806-2.462a69.238,69.238,0,1,0-20.4-20.41l-2.461,1.808-2.8,1.626C48.082,145.4,48.2,102.605,78.542,74.567,108.16,47.2,154.4,48.161,183.19,76.8a75.739,75.739,0,0,1,2.668,104.529c-27.659,30.432-70.533,31.078-97.351,12.6l1.619-2.8" transform="translate(-30.835 -31.62)" fill="#030202"/><path d="M70.87,283.825c-1.42,4.13-2.8,8.277-4.269,12.388-2.542,7.087-5.144,14.153-7.726,21.226-.251.687-.539,1.359-.926,2.328-1.987-4.976-3.871-9.59-5.661-14.24a5.2,5.2,0,0,0-3.2-3.21c-4.648-1.789-9.261-3.671-14.32-5.689,2.273-.823,4.181-1.51,6.087-2.2q13.985-5.1,27.972-10.184a19.248,19.248,0,0,1,1.961-.494Z" transform="translate(-22.23 -134.628)" fill="#ffb500"/><path d="M100.222,283.535l.195-.256.13.138-.248.2-.077-.079" transform="translate(-51.66 -134.419)" fill="#a4d7f8"/><path d="M95.793,149.16A52.733,52.733,0,1,1,148.4,202.091,52.829,52.829,0,0,1,95.793,149.16m6.952,3.53c.917,22.733,20.957,41.722,42.519,42.422v-9.4h6.607v9.5c22.041-.913,41.816-20.715,42.5-42.628H184.93v-6.6h9.385c-1-23-21.207-41.789-42.53-42.413v9.389h-6.608v-9.493c-21.978.863-41.8,20.707-42.5,42.625h9.452v6.6Z" transform="translate(-49.668 -50.468)" fill="#030303"/><path d="M108.366,158.313h9.381v-6.6h-9.452c.707-21.918,20.525-41.762,42.5-42.626v9.493h6.608v-9.388c21.323.624,41.533,19.415,42.53,42.412h-9.385v6.6h9.441c-.684,21.914-20.458,41.716-42.5,42.628v-9.494h-6.607v9.4c-21.562-.7-41.6-19.689-42.519-42.422m68.852-3.4q0-12.663,0-25.326c0-3.212-1.1-4.3-4.334-4.3q-18.729-.007-37.459,0c-3.247,0-4.342,1.079-4.343,4.287q-.008,25.327,0,50.652c0,3.36,1.055,4.405,4.434,4.407q18.627.007,37.253,0c3.384,0,4.449-1.051,4.451-4.393q.01-12.663,0-25.326" transform="translate(-55.29 -56.09)" fill="#b0c0d2"/><path d="M195.831,168.147q0,12.663,0,25.326c0,3.343-1.068,4.392-4.451,4.393q-18.627.006-37.253,0c-3.379,0-4.433-1.047-4.434-4.407q-.006-25.327,0-50.652c0-3.208,1.1-4.285,4.343-4.287q18.729-.007,37.458,0c3.235,0,4.331,1.088,4.334,4.3q.012,12.663,0,25.326m-6.653-22.9H156.415v45.886h6.458c0-3.018-.007-5.9,0-8.776.01-3.126,1.107-4.26,4.154-4.27q5.765-.02,11.53,0c2.936.012,4.072,1.166,4.087,4.135.015,2.992,0,5.983,0,8.914h6.53Zm-13.2,39.583h-6.36v6.29h6.36Z" transform="translate(-73.904 -69.325)" fill="#b0c0d2"/><path d="M194.674,150.748v45.89h-6.53c0-2.931.012-5.922,0-8.914-.015-2.969-1.151-4.123-4.087-4.135q-5.765-.024-11.53,0c-3.047.01-4.144,1.144-4.154,4.27-.009,2.879,0,5.758,0,8.776h-6.458V150.748ZM168.421,163.68h19.6v-6.352h-19.6Zm.028,13.218h19.6v-6.411h-19.6Z" transform="translate(-79.399 -74.825)" fill="#b0c0d2"/><rect width="6.36" height="6.29" transform="translate(95.713 115.506)" fill="#b0c0d2"/><rect width="19.599" height="6.352" transform="translate(89.022 82.503)"/><rect width="19.602" height="6.411" transform="translate(89.049 95.663)"/><g transform="translate(66.76 65.896)"><g transform="translate(0 0)"><path d="M0,79.021a1.5,1.5,0,0,0,.173-.3,5.272,5.272,0,0,1,4.357-3.88,19.144,19.144,0,0,1-.145-3.065,5,5,0,0,1,2.682-3.852.85.85,0,0,0,.407-.571c.025-3.047.018-6.095.016-9.142a2.348,2.348,0,0,0-.045-.3c-1.263.249-2.507.49-3.749.74-.94.189-1.342-.059-1.585-1.009-.32-1.25-.644-2.5-.951-3.754-.231-.94.1-1.416,1.054-1.583a5.41,5.41,0,0,1,1.107-.183c.936.038,1.283-.452,1.548-1.291C5.921,47.5,7.058,44.2,8.146,40.878A1.919,1.919,0,0,1,9.1,39.715q11.061-6.126,22.1-12.284a1.616,1.616,0,0,1,1.751.009q10.985,6.132,21.992,12.226a2.118,2.118,0,0,1,1.061,1.3c1.144,3.5,2.326,6.983,3.475,10.479a.687.687,0,0,0,.668.573c.662.068,1.319.194,1.973.323a.993.993,0,0,1,.886,1.268c-.322,1.463-.687,2.918-1.077,4.364a1.068,1.068,0,0,1-1.4.714c-1.1-.222-2.2-.451-3.306-.672-.178-.036-.361-.041-.568-.064V72.73a10.7,10.7,0,0,1,1.912.018,4.171,4.171,0,0,1,3.41,4.19.9.9,0,0,0,.437.855A4.146,4.146,0,0,1,63.8,82.757c-.061.152-.125.3-.2.5l.5.1v2.1h-.683q-31.366,0-62.732,0c-.228,0-.455-.026-.683-.04V83.28H.969L0,81.15v-2.13m44.846,2.129.6-2.131A4.618,4.618,0,0,1,48.212,77c.413-.03.827-.05,1.239-.094.131-.014.317-.052.374-.144a4.946,4.946,0,0,1,2.73-1.957,6.96,6.96,0,0,1,.989-.026c.6.067.832-.356.925-.782a6.1,6.1,0,0,0,0-1.362q0-1.066,0-2.133t0-2.126q0-1.067,0-2.133t0-2.126q0-1.067,0-2.133t0-2.126q0-1.066,0-2.133a3.872,3.872,0,0,0-.436-2.275l-.7-2.11-.728-2.129-.688-2.14L51.6,48.2c-.374-1.169-.736-2.341-1.134-3.5a.93.93,0,0,0-.434-.407q-8.8-4.9-17.61-9.778a.864.864,0,0,0-.712.009Q22.893,39.393,14.1,44.3a.933.933,0,0,0-.436.4c-.4,1.16-.761,2.333-1.135,3.5l-.319.864-.689,2.139-.727,2.129-.7,2.11a3.873,3.873,0,0,0-.436,2.275q0,1.067,0,2.133t0,2.126l0,2.133v3.149a5.959,5.959,0,0,1,3.374,1.226l1.517,2.01.449,2.144-.4,2.189.563.058a6.081,6.081,0,0,1,3.131,2.128l.881,2,0,2.131-.844,2.105h6.217V81.152q0-1.066,0-2.132t0-2.128q0-1.066,0-2.132t0-2.128V70.5q0-1.064,0-2.128V66.228c-.375,0-.686.012-.995,0-.912-.041-1.824-.092-2.736-.14-.707-.513-.452-1.288-.536-1.971q0-1.067,0-2.134c.073-.741-.159-1.566.593-2.117.437-.014.874-.039,1.311-.039q9.886,0,19.771,0c.437,0,.874.025,1.311.039a7.352,7.352,0,0,1,.551,1.126,3.849,3.849,0,0,1,.042.99q0,1.067,0,2.134c-.083.683.169,1.458-.536,1.971l-3.73.219v4.2q0,1.066,0,2.132t0,2.128q0,1.066,0,2.132t0,2.128q0,1.066,0,2.132v2.125h5.729l-.468-2.127M11.48,82.172a3.106,3.106,0,0,0,3.6.914,3.172,3.172,0,0,0,2-3.089,3.056,3.056,0,0,0-2.168-2.878,3.157,3.157,0,0,0-3.434,5.053m-5.089-5.04a3.093,3.093,0,0,0-3.642,1.1A3.126,3.126,0,0,0,2.9,82.149a3.133,3.133,0,0,0,3.6.954,3.185,3.185,0,0,0,2.029-3.137,3.043,3.043,0,0,0-2.14-2.834m4.254-7.5a3.18,3.18,0,1,0,.09,6,3.172,3.172,0,0,0,2.071-3.11,3.07,3.07,0,0,0-2.161-2.891M60.654,54.278c-.6-.1-1.1-.234-1.615-.271a1.411,1.411,0,0,1-1.337-1.17c-1.044-3.209-2.194-6.386-3.166-9.616a3.988,3.988,0,0,0-2.174-2.564c-3.588-1.909-7.116-3.93-10.668-5.906q-4.618-2.569-9.244-5.123a.829.829,0,0,0-.671-.048c-1.526.815-3.033,1.665-4.545,2.506q-8.252,4.59-16.509,9.171a1.49,1.49,0,0,0-.762.912c-1.185,3.6-2.393,7.2-3.582,10.8a1.27,1.27,0,0,1-1.122,1.012c-.573.066-1.14.188-1.787.3.142.583.3,1.117.4,1.662.072.407.3.454.627.387.916-.189,1.827-.414,2.749-.557a.732.732,0,0,0,.655-.611C9.143,51.4,10.41,47.65,11.638,43.887a2.194,2.194,0,0,1,1.131-1.324c2.506-1.369,5-2.767,7.494-4.152q5.523-3.064,11.044-6.131a1.436,1.436,0,0,1,1.586.026c.3.185.624.337.934.509q8.8,4.894,17.6,9.783a2.079,2.079,0,0,1,1.047,1.244q1.859,5.672,3.771,11.327c.069.205.237.488.409.53,1.009.247,2.03.449,3.054.622a.6.6,0,0,0,.5-.276c.182-.547.289-1.12.444-1.766M54.5,83.305v0c1.793,0,3.586.016,5.379-.006a2.071,2.071,0,0,0,2.072-1.735,2.148,2.148,0,0,0-1.282-2.333c-1.074-.48-1.173-.681-.894-1.817a2.116,2.116,0,0,0-4.053-1.206c-.325.815-.733,1.053-1.472.86a2.158,2.158,0,0,0-2.877,1.448,1.07,1.07,0,0,1-1.4.7,3.274,3.274,0,0,0-1.1-.131,2.118,2.118,0,0,0,.309,4.219c1.772.018,3.544,0,5.317,0M22.464,64.05H41.653V62.011H22.464Zm5.217,2.212,4.383,6.576,4.381-6.576Zm4.382,10.432-4.371,6.571h8.743l-4.372-6.571m5.352-7.9a1.407,1.407,0,0,0-.206.178c-1.215,1.819-2.438,3.632-3.622,5.471a.861.861,0,0,0,.06.754c1.131,1.749,2.3,3.476,3.447,5.212a2.392,2.392,0,0,1,.167.375l.154-.147Zm-10.7,11.982a3.287,3.287,0,0,0,.245-.268c1.192-1.784,2.375-3.575,3.581-5.35a.637.637,0,0,0-.048-.836c-1.154-1.709-2.291-3.43-3.437-5.145-.081-.121-.189-.225-.341-.4Z" transform="translate(0 -25.919)" fill="#020201"/><path d="M283.958,17.8l16.026,8.912-1.038,1.87-16.026-8.911,1.039-1.87" transform="translate(-244.959 -17.797)" fill="#040404"/><path d="M421.088,94.029l-1.034,1.866-1.715-.952,1.033-1.866,1.716.952" transform="translate(-362.209 -82.976)" fill="#080808"/><path d="M93.353,95.1c.374-1.169.737-2.341,1.135-3.5a.932.932,0,0,1,.436-.4q8.8-4.9,17.614-9.771a.863.863,0,0,1,.712-.009q8.816,4.869,17.61,9.778a.93.93,0,0,1,.434.407c.4,1.16.76,2.333,1.134,3.5-.351-.164-.7-.331-1.052-.493a5.329,5.329,0,0,0-1.678-.726c-1.684-.094-3.377-.027-5.067-.023l-2.079-.006-3.31,0-.765-2.117h7.959l.033-.161c-.789-.487-1.6-.941-2.359-1.471a3.172,3.172,0,0,0-2-.531c-1.6.034-3.211.006-4.817.016a3.594,3.594,0,0,0-.648.121c-.288-.165-.566-.351-.866-.493a6.476,6.476,0,0,0-6.646.494,3.58,3.58,0,0,0-.648-.122c-1.564-.011-3.128.023-4.691-.017a3.476,3.476,0,0,0-2.233.592c-.725.518-1.5.964-2.255,1.441,1.367.108,2.68.106,3.992.109,1.334,0,2.668.014,4,.021l-.765,2.118-3.308,0-2.079.006c-1.606,0-3.213-.037-4.818.007a3.817,3.817,0,0,0-1.332.4c-.564.244-1.1.552-1.648.832m26.167-7.656.061-.125c-.927-.576-1.845-1.17-2.789-1.719a1.988,1.988,0,0,0-.925-.262c-1.523-.026-3.048.033-4.57-.026a4.556,4.556,0,0,0-3.268.864,17.327,17.327,0,0,1-1.84,1.158l.064.109Z" transform="translate(-80.827 -72.817)" fill="#d33332"/><path d="M83.058,69.451c-.155.646-.262,1.218-.444,1.766a.6.6,0,0,1-.5.276c-1.024-.174-2.045-.375-3.054-.622-.172-.042-.34-.325-.409-.53q-1.9-5.657-3.771-11.327a2.079,2.079,0,0,0-1.047-1.244q-8.806-4.88-17.6-9.783c-.31-.172-.632-.323-.933-.509a1.436,1.436,0,0,0-1.586-.026q-5.514,3.08-11.044,6.131c-2.5,1.385-4.987,2.783-7.494,4.152a2.194,2.194,0,0,0-1.131,1.324c-1.228,3.763-2.5,7.514-3.737,11.272a.732.732,0,0,1-.655.61c-.923.143-1.833.368-2.749.557-.326.067-.556.021-.628-.387-.1-.545-.254-1.079-.4-1.662.646-.111,1.213-.233,1.787-.3a1.27,1.27,0,0,0,1.122-1.012c1.189-3.6,2.4-7.195,3.583-10.8a1.489,1.489,0,0,1,.762-.912q8.264-4.569,16.509-9.171c1.512-.841,3.019-1.691,4.545-2.506a.829.829,0,0,1,.671.047q4.632,2.544,9.244,5.123c3.552,1.976,7.081,4,10.668,5.906a3.988,3.988,0,0,1,2.173,2.564c.972,3.23,2.123,6.407,3.166,9.616a1.412,1.412,0,0,0,1.337,1.17c.512.037,1.018.167,1.615.271" transform="translate(-22.404 -41.092)" fill="#344e5a"/><path d="M116.092,237.87a3.873,3.873,0,0,1,.436,2.275H71.715a3.873,3.873,0,0,1,.436-2.275c.229.008.459.023.688.023q21.283,0,42.566,0c.229,0,.458-.015.688-.023" transform="translate(-62.058 -208.342)" fill="#e93f41"/><path d="M71.943,254.824h44.812q0,1.067,0,2.133l-11.214.01c-.437-.014-.874-.039-1.311-.039q-9.886,0-19.771,0c-.437,0-.874.025-1.311.039l-11.214-.009q0-1.067,0-2.133" transform="translate(-62.286 -223.021)" fill="#d23232"/><path d="M119.16,224.122c-.229.008-.458.023-.688.023q-21.283,0-42.566,0c-.229,0-.458-.015-.688-.023l.7-2.11q5.349,0,10.7,0c2.293,0,4.587-.015,6.88-.023a16.441,16.441,0,0,0,1.98.887,6.413,6.413,0,0,0,5.419-.883l17.568.017.7,2.11" transform="translate(-65.127 -194.593)" fill="#d43332"/><path d="M357.859,390.383c-1.772,0-3.545.013-5.317,0a2.118,2.118,0,0,1-.309-4.219,3.271,3.271,0,0,1,1.1.131,1.07,1.07,0,0,0,1.4-.7,2.158,2.158,0,0,1,2.877-1.448c.739.193,1.146-.045,1.472-.86a2.116,2.116,0,0,1,4.053,1.206c-.279,1.136-.18,1.337.894,1.817a2.148,2.148,0,0,1,1.282,2.333,2.071,2.071,0,0,1-2.072,1.735c-1.793.022-3.586.006-5.379.006Z" transform="translate(-303.362 -332.997)" fill="#87bd3f"/><rect width="19.189" height="2.039" transform="translate(22.464 36.093)" fill="#344d5a"/><path d="M98,208.354c-2.293.008-4.587.021-6.88.023q-5.349,0-10.7,0l.727-2.129,14.927,0L98,208.354" transform="translate(-69.629 -180.957)" fill="#e93f41"/><path d="M284.145,208.377l-17.568-.017,1.915-2.117,14.926,0,.728,2.129" transform="translate(-230.809 -180.958)" fill="#e93f41"/><path d="M309.9,317.32q0,1.066,0,2.133H295.017v-2.068l3.73-.219a3.345,3.345,0,0,0,.694.15q5.232.014,10.463.005" transform="translate(-255.433 -276.998)" fill="#d43332"/><path d="M309.906,350.064q0,1.066,0,2.133H295.019q0-1.066,0-2.132h14.887" transform="translate(-255.435 -305.482)" fill="#d43332"/><path d="M309.905,336.339H295.018q0-1.064,0-2.128h14.888q0,1.063,0,2.126" transform="translate(-255.434 -291.757)" fill="#ea4042"/><path d="M295.017,365.957H309.9a6.1,6.1,0,0,1,0,1.362c-.093.426-.321.849-.925.782a6.991,6.991,0,0,0-.989.025c-.29-.014-.58-.039-.871-.039q-6.05,0-12.1,0,0-1.064,0-2.128" transform="translate(-255.433 -319.243)" fill="#ea4042"/><path d="M100.767,192.466l-14.927,0,.689-2.139,8.094.009,2.128,0,3.274-.009.743,2.13" transform="translate(-74.322 -167.181)" fill="#d33332"/><path d="M295.774,192.471l-14.926,0,.741-2.131,3.274.009,2.128,0,8.094-.009.688,2.14" transform="translate(-243.165 -167.181)" fill="#d33332"/><path d="M83.116,317.165c.912.047,1.824.1,2.736.14.309.014.62,0,.995,0v2.145q-5.431,0-10.862,0a3.812,3.812,0,0,0-.651.112,5.96,5.96,0,0,0-3.374-1.226V317.32q5.231,0,10.463-.005a3.334,3.334,0,0,0,.694-.15" transform="translate(-62.304 -276.998)" fill="#d43332"/><path d="M206.3,318.479h8.764l-4.381,6.576-4.383-6.576" transform="translate(-178.624 -278.135)" fill="#d33332"/><path d="M210.764,396.226l4.372,6.57h-8.743l4.371-6.57" transform="translate(-178.7 -345.451)" fill="#d33231"/><path d="M253.752,337.369v11.843l-.154.147a2.419,2.419,0,0,0-.167-.375c-1.151-1.736-2.316-3.463-3.447-5.212a.861.861,0,0,1-.06-.754c1.184-1.838,2.407-3.652,3.622-5.471a1.417,1.417,0,0,1,.206-.178" transform="translate(-216.336 -294.491)" fill="#cf3131"/><path d="M199.081,349.22v-12c.152.179.26.283.341.4,1.146,1.715,2.283,3.436,3.437,5.144a.637.637,0,0,1,.048.836c-1.206,1.775-2.388,3.566-3.581,5.35a3.287,3.287,0,0,1-.245.268" transform="translate(-172.369 -294.36)" fill="#cf3131"/><path d="M295.017,381.814q6.05,0,12.1,0c.29,0,.58.025.871.039a4.946,4.946,0,0,0-2.73,1.957c-.057.092-.243.13-.374.144-.412.044-.826.064-1.239.094a4.292,4.292,0,0,0-.655-.1q-3.986-.01-7.973,0,0-1.066,0-2.132" transform="translate(-255.433 -332.972)" fill="#d43332"/><path d="M83.108,304.442a3.333,3.333,0,0,1-.694.15q-5.231.014-10.463.005V302.47H82.572c.084.683-.171,1.458.536,1.971" transform="translate(-62.296 -264.274)" fill="#ea4042"/><path d="M333.973,304.6q-5.232,0-10.463-.005a3.345,3.345,0,0,1-.694-.15c.706-.514.453-1.288.537-1.971h10.622q0,1.063,0,2.126" transform="translate(-279.502 -264.274)" fill="#ea4042"/><path d="M71.938,270.723l11.214.009c-.752.55-.52,1.376-.593,2.117H71.942l0-2.126" transform="translate(-62.286 -236.787)" fill="#ea4042"/><path d="M322.414,270.733l11.214-.01,0,2.126H323.007a3.841,3.841,0,0,0-.042-.99,7.34,7.34,0,0,0-.551-1.126" transform="translate(-279.154 -236.787)" fill="#ea4042"/><path d="M97.105,334.323a3.815,3.815,0,0,1,.651-.112q5.431-.01,10.862,0,0,1.064,0,2.128l-10,0-1.517-2.01" transform="translate(-84.076 -291.752)" fill="#ea4042"/><path d="M326.817,286.568h10.617l0,2.133H326.815q0-1.067,0-2.134" transform="translate(-282.965 -250.506)" fill="#d43332"/><path d="M71.952,286.568H82.57q0,1.067,0,2.134H71.95q0-1.067,0-2.133" transform="translate(-62.296 -250.505)" fill="#d43332"/><path d="M118.69,365.957q0,1.064,0,2.128-4.341,0-8.681.007a4.141,4.141,0,0,0-.708.123l-.563-.058.4-2.189,9.548-.01" transform="translate(-94.147 -319.243)" fill="#ea4042"/><path d="M118.407,352.19l-9.548.01-.448-2.144,10,0q0,1.066,0,2.132" transform="translate(-93.865 -305.476)" fill="#d43332"/><path d="M112.932,381.944a4.141,4.141,0,0,1,.708-.123c2.894-.009,5.788-.006,8.681-.007v2.132c-1.871,0-3.742,0-5.612,0a3.537,3.537,0,0,0-.646.122,6.081,6.081,0,0,0-3.131-2.128" transform="translate(-97.779 -332.973)" fill="#d43332"/><path d="M48.493,347.331a3.162,3.162,0,0,1,3.494-5,4.732,4.732,0,0,1-.729,3.325,3.692,3.692,0,0,1-2.764,1.674" transform="translate(-41.341 -298.618)" fill="#e9ad49"/><path d="M25.133,399.489a3.043,3.043,0,0,1,2.14,2.834,3.185,3.185,0,0,1-2.029,3.137,3.133,3.133,0,0,1-3.6-.954,3.9,3.9,0,0,0,3.2-2.7,10.329,10.329,0,0,0,.284-2.322" transform="translate(-18.742 -348.276)" fill="#d39d43"/><path d="M80.419,403.192a3.157,3.157,0,0,1,3.434-5.053c0,.333-.028.667,0,1a4.124,4.124,0,0,1-3.429,4.055" transform="translate(-68.939 -346.938)" fill="#e9ad49"/><path d="M53.3,348.6a3.692,3.692,0,0,0,2.764-1.674,4.732,4.732,0,0,0,.729-3.325,3.07,3.07,0,0,1,2.161,2.891,3.172,3.172,0,0,1-2.071,3.11,3.122,3.122,0,0,1-3.583-1" transform="translate(-46.148 -299.884)" fill="#d39d43"/><path d="M20.165,398.129a10.33,10.33,0,0,1-.284,2.322,3.9,3.9,0,0,1-3.2,2.7,3.126,3.126,0,0,1-.156-3.915,3.094,3.094,0,0,1,3.642-1.1" transform="translate(-13.774 -346.916)" fill="#e9ad49"/><path d="M85.562,404.446a4.124,4.124,0,0,0,3.429-4.055c-.023-.331,0-.665,0-1a3.056,3.056,0,0,1,2.168,2.878,3.171,3.171,0,0,1-2,3.089,3.106,3.106,0,0,1-3.6-.914" transform="translate(-74.082 -348.193)" fill="#d39d43"/><path d="M334.578,176.567l-8.094.009q-.012-1.058-.024-2.115c1.69,0,3.383-.071,5.067.023a5.329,5.329,0,0,1,1.678.726c.352.161.7.328,1.052.493l.32.864" transform="translate(-282.658 -153.418)" fill="#ea4042"/><path d="M99.066,176.647l-8.094-.009.319-.864c.548-.28,1.084-.589,1.648-.832a3.818,3.818,0,0,1,1.332-.4c1.6-.045,3.212-.011,4.818-.007l-.024,2.115" transform="translate(-78.766 -153.488)" fill="#ea4042"/><path d="M295.015,397.7q3.986,0,7.973,0a4.292,4.292,0,0,1,.655.1,4.617,4.617,0,0,0-2.765,2.021l-5.864,0q0-1.064,0-2.128" transform="translate(-255.431 -346.723)" fill="#e93f41"/><path d="M136.27,397.82a3.529,3.529,0,0,1,.646-.122c1.871-.009,3.742,0,5.613,0q0,1.064,0,2.128h-5.378l-.881-2" transform="translate(-117.986 -346.72)" fill="#e93f41"/><path d="M142.789,429.448v2.105h-6.217l.844-2.105h5.373" transform="translate(-118.248 -374.215)" fill="#e93f41"/><path d="M295.013,413.55h5.864l-.6,2.131-5.261,0,0-2.132" transform="translate(-255.43 -360.449)" fill="#d43332"/><path d="M295.025,429.433l5.261,0,.468,2.127h-5.729Z" transform="translate(-255.44 -374.2)" fill="#e93f41"/><path d="M148.211,415.692h-5.373q0-1.065,0-2.131h5.378l0,2.132" transform="translate(-123.669 -360.459)" fill="#d43332"/><path d="M204.279,142.352l-.741,2.131-1.915,2.117a6.412,6.412,0,0,1-5.419.883,16.437,16.437,0,0,1-1.98-.887l-1.923-2.113-.743-2.13.009-2.113.765-2.118,1.832-2.023a6.476,6.476,0,0,1,6.646-.494c.3.141.577.327.866.493l1.83,2.025.765,2.117q.005,1.056.01,2.112m-7.45.068h-2.977c.317,1.482,1.814,2.924,2.977,2.892Zm2.2-.013v2.972a3.9,3.9,0,0,0,2.941-2.972Zm.009-2.214h2.906a3.862,3.862,0,0,0-2.906-2.922Zm-2.206.02c0-.922,0-1.774,0-2.626a2.635,2.635,0,0,0-.035-.3,3.743,3.743,0,0,0-2.886,2.93Z" transform="translate(-165.856 -119.198)" fill="#010202"/><path d="M202.357,113.02H189.091l-.064-.109a17.327,17.327,0,0,0,1.84-1.158,4.556,4.556,0,0,1,3.268-.864c1.521.06,3.047,0,4.57.026a1.988,1.988,0,0,1,.925.262c.943.549,1.861,1.142,2.789,1.719l-.061.125" transform="translate(-163.664 -98.39)" fill="#ea4042"/><path d="M268.789,144.875l-1.83-2.025a3.592,3.592,0,0,1,.648-.121c1.606-.01,3.212.018,4.817-.016a3.172,3.172,0,0,1,2,.531c.758.53,1.57.984,2.359,1.471l-.032.161Z" transform="translate(-231.14 -125.951)" fill="#ea4042"/><path d="M147.567,142.84l-1.832,2.023c-1.334-.007-2.668-.017-4-.021-1.312,0-2.625,0-3.992-.109.754-.477,1.53-.923,2.255-1.441a3.476,3.476,0,0,1,2.233-.592c1.563.04,3.127.007,4.691.017a3.564,3.564,0,0,1,.648.122" transform="translate(-119.26 -125.939)" fill="#ea4042"/><path d="M286.305,176.7q0-1.056-.01-2.112l3.31,0q-.013,1.063-.026,2.126l-3.274-.009" transform="translate(-247.882 -153.549)" fill="#ea4042"/><path d="M170.274,174.59l-.009,2.113-3.274.009q-.013-1.063-.026-2.126l3.308,0" transform="translate(-144.563 -153.549)" fill="#ea4042"/><path d="M310.774,176.712q.013-1.063.026-2.126l2.079.006q.012,1.058.024,2.115l-2.128,0" transform="translate(-269.076 -153.549)" fill="#040101"/><path d="M153.4,174.586q.013,1.063.026,2.126l-2.128,0q.012-1.058.024-2.115l2.079-.006" transform="translate(-130.995 -153.549)" fill="#040101"/><path d="M211.638,190.868v2.892c-1.163.032-2.659-1.411-2.977-2.892Z" transform="translate(-180.664 -167.646)" fill="#008fb4"/><path d="M247.255,190.772H250.2a3.9,3.9,0,0,1-2.941,2.972Z" transform="translate(-214.08 -167.563)" fill="#008fb4"/><path d="M247.322,155.412V152.49a3.861,3.861,0,0,1,2.906,2.922Z" transform="translate(-214.138 -134.418)" fill="#0091b6"/><path d="M212.02,155.516H209.1a3.743,3.743,0,0,1,2.886-2.93,2.632,2.632,0,0,1,.035.3c0,.852,0,1.7,0,2.626" transform="translate(-181.042 -134.501)" fill="#0091b6"/></g></g></g></svg>