<svg xmlns="http://www.w3.org/2000/svg" width="123" height="123" viewBox="0 0 123 123"><g transform="translate(-738 -2899)"><circle cx="61.5" cy="61.5" r="61.5" transform="translate(738 2899)" fill="#ced371"/><g transform="translate(761.234 2923.419)"><g transform="translate(0 0)"><path d="M0,186.414a1.722,1.722,0,0,1,1.566-.629c1.27.034,2.542.01,3.9.01v-.782q0-7.266,0-14.532c0-1.268.291-1.558,1.555-1.559.927,0,1.854-.008,2.781,0,.825.009,1.12.276,1.233,1.074-.04.726-.469,1-1.148,1-.755,0-1.51,0-2.3,0v14.765c.278.013.526.036.773.036q6.594,0,13.187,0c.229,0,.459-.031.688-.048h2.6V171.03H22.242q-3.521-.015-7.042-.03c-.911,0-1.128-.17-1.368-1.024.226-.841.489-1.051,1.368-1.052,3.194,0,6.389,0,9.673,0v-2.089c0-1.367.031-2.734-.012-4.1-.024-.781.219-1.3,1.008-1.486.914.282,1.09.518,1.09,1.494q0,11.076,0,22.153v.9h.869q6.387,0,12.775,0c.322,0,.644-.029.966-.044h2.618V153.333H26.96c0,1.322.006,2.591,0,3.861-.005.853-.252,1.144-1.09,1.331a1.109,1.109,0,0,1-1-1.265c.019-1.6,0-3.2.008-4.8,0-.861.368-1.237,1.219-1.238q9.485-.008,18.971,0c.893,0,1.255.37,1.257,1.272.005,2.639,0,5.278,0,8.019h.765c2.316,0,4.633.014,6.949-.008.739-.007,1.2.261,1.328,1.01-.208.843-.483,1.073-1.346,1.075-2.314.006-4.628,0-6.943,0-.242,0-.484.02-.712.03V185.8h.79q6.491,0,12.983,0c.3,0,.6-.029.9-.044h2.557V162.629H61.045l-1.593-.032c-.861-.015-1.136-.235-1.346-1.077a1.112,1.112,0,0,1,1.26-1.009c1.691.02,3.382,0,5.073.008.936,0,1.283.35,1.286,1.315.009,2.317,0,4.634,0,6.951V185.8c1.359,0,2.65,0,3.94,0,1.233,0,1.528.291,1.529,1.5,0,1.274.006,2.549,0,3.823-.005.881-.386,1.251-1.276,1.271-.116,0-.232,0-.347,0q-33.984,0-67.968.009a1.635,1.635,0,0,1-1.6-.7Zm66.46,3.857h2.6v-2.339H66.472c-.207-.011-.415-.032-.622-.032q-31.5,0-63.008,0H2.108v2.269l.119.112c.185.006.37.017.555.017q31.527,0,63.054,0c.208,0,.416-.016.624-.025" transform="translate(0 -125.381)" fill="#030404"/><path d="M139.278,167.776c.838-.186,1.085-.478,1.09-1.331.007-1.27,0-2.539,0-3.861h14.619q0,3.089,0,6.178-.005,13.12-.012,26.24c-.322.015-.644.044-.966.044q-6.387,0-12.775,0h-.869v-.9q0-11.076,0-22.153c0-.976-.177-1.212-1.09-1.494q0-1.361,0-2.723" transform="translate(-113.41 -134.632)" fill="#c7e973"/><path d="M261.382,206.664c.21.842.485,1.062,1.346,1.077.531.009,1.062.021,1.593.032q-.005,11.561-.01,23.122c-.3.015-.6.044-.9.044q-6.491,0-12.983,0h-.79V207.773c.228-.01.47-.03.712-.03,2.314,0,4.628,0,6.943,0,.863,0,1.138-.233,1.346-1.075h2.741" transform="translate(-203.275 -170.525)" fill="#9cc5fa"/><path d="M55.509,267.972c-.229.017-.459.048-.688.048q-6.594,0-13.187,0c-.248,0-.5-.022-.774-.036V253.219c.79,0,1.545,0,2.3,0,.678,0,1.108-.276,1.148-1L47.1,252.2c.24.854.458,1.02,1.368,1.024q3.521.017,7.042.03,0,7.361,0,14.722" transform="translate(-33.271 -207.6)" fill="#a3314f"/><path d="M144.375,27.246c.152-.866.315-1.872.51-2.87a1.144,1.144,0,0,0-.386-1.226c-.665-.574-1.27-1.219-1.9-1.832a2.454,2.454,0,0,1,1.394-4.275c.894-.117,1.783-.286,2.679-.385a.977.977,0,0,0,.9-.624c.38-.842.816-1.658,1.222-2.488a2.453,2.453,0,0,1,4.5.02c.411.853.809,1.715,1.272,2.54a1.187,1.187,0,0,0,.724.512c.952.187,1.92.294,2.881.439a2.444,2.444,0,0,1,1.428,4.127c-.659.684-1.334,1.355-2.043,1.986a1.106,1.106,0,0,0-.378,1.163c.174.885.317,1.777.474,2.666a2.36,2.36,0,0,1-.895,2.408,2.331,2.331,0,0,1-2.611.261c-.83-.405-1.656-.826-2.45-1.3a1.172,1.172,0,0,0-1.332.015c-.82.473-1.656.927-2.517,1.317a2.464,2.464,0,0,1-3.463-2.457m10.547-8.513a3.064,3.064,0,0,1-2.453-2.083c-.292-.7-.655-1.374-1.01-2.047a2.23,2.23,0,0,0-.4-.433,2.146,2.146,0,0,0-.458.452c-.41.774-.819,1.552-1.17,2.353a2.8,2.8,0,0,1-2.455,1.75c-.871.1-1.739.227-2.6.377-.583.1-.66.353-.251.773a18.263,18.263,0,0,0,1.594,1.541,3.184,3.184,0,0,1,1.185,3.568c-.131.727-.273,1.452-.383,2.182-.028.184,0,.512.091.55a.854.854,0,0,0,.626-.052q1.243-.61,2.455-1.279a2.571,2.571,0,0,1,2.638-.024c.851.464,1.709.915,2.578,1.345a.7.7,0,0,0,.564.006c.1-.052.117-.33.091-.495-.14-.889-.3-1.776-.465-2.661a2.754,2.754,0,0,1,.878-2.761c.688-.617,1.342-1.274,1.989-1.935.375-.383.294-.662-.23-.748-.932-.154-1.873-.256-2.81-.379" transform="translate(-115.434 -12.083)" fill="#050403"/><path d="M240.729,83.288a2.66,2.66,0,0,1,.393.113c.814.374,1.635.735,2.433,1.141a1.031,1.031,0,1,1-.868,1.871c-.822-.356-1.63-.745-2.43-1.148a.871.871,0,0,1-.512-1.143,4.141,4.141,0,0,1,.831-.951l.153.118" transform="translate(-195.159 -69.967)" fill="#060606"/><path d="M123.98,85.268a2.778,2.778,0,0,1-.671.736,23.51,23.51,0,0,1-2.3,1.091,1.032,1.032,0,1,1-.873-1.869c.779-.394,1.568-.771,2.371-1.11.722-.305,1.469.186,1.477,1.153" transform="translate(-97.304 -70.663)" fill="#060606"/><path d="M251.123,61.267c.393,0,.787-.015,1.179,0a.965.965,0,0,1,1,.947.983.983,0,0,1-.908,1.108,20.268,20.268,0,0,1-2.632-.006.97.97,0,0,1-.91-1.045,1.016,1.016,0,0,1,1.024-1.007c.046,0,.092,0,.139,0h1.11Z" transform="translate(-202.632 -52.128)" fill="#050505"/><path d="M112.747,61.259c.393,0,.787-.018,1.178,0a1,1,0,0,1,1.022,1.005.971.971,0,0,1-.912,1.044,20.333,20.333,0,0,1-2.632.005.982.982,0,0,1-.906-1.11.964.964,0,0,1,1-.945c.415-.018.832,0,1.248,0" transform="translate(-89.97 -52.12)" fill="#050505"/><path d="M11.349,350.963v-2.269H75.091c.207,0,.415.021.622.032q-.006,1.169-.012,2.339c-.208.009-.416.025-.624.025q-31.527,0-63.054,0c-.185,0-.37-.011-.556-.017l-.119-.112" transform="translate(-9.241 -286.176)" fill="#4073c7"/><path d="M223.821,195q.006-13.12.012-26.24,0-3.089,0-6.178h2.609V195Z" transform="translate(-182.252 -134.632)" fill="#b5e045"/><path d="M328.627,235.757q.005-11.561.01-23.122h2.546v23.122Z" transform="translate(-267.592 -175.387)" fill="#7badf1"/><path d="M119.732,272.593q0-7.361,0-14.722h2.592v14.722Z" transform="translate(-97.495 -212.222)" fill="#a3314f"/><path d="M357.84,351.213q.006-1.169.012-2.339h2.592v2.339Z" transform="translate(-291.38 -286.323)" fill="#345ea5"/><path d="M11.349,360.91l.119.112-.119-.112" transform="translate(-9.241 -296.124)" fill="#345ea5"/><path d="M156.108,34.138a3.183,3.183,0,0,0-1.185-3.568,18.3,18.3,0,0,1-1.594-1.542c-.409-.42-.333-.671.251-.773.863-.15,1.732-.28,2.6-.377a2.8,2.8,0,0,0,2.455-1.75c.351-.8.76-1.58,1.17-2.354a2.146,2.146,0,0,1,.458-.452,2.231,2.231,0,0,1,.4.433c.354.673.718,1.346,1.01,2.047a3.064,3.064,0,0,0,2.453,2.083,7.937,7.937,0,0,1-8.023,6.251" transform="translate(-124.643 -21.236)" fill="#ffb500"/><path d="M167.693,54.143a7.937,7.937,0,0,0,8.023-6.251c.937.124,1.878.226,2.81.379.523.086.6.365.23.748-.647.661-1.3,1.318-1.989,1.934a2.754,2.754,0,0,0-.878,2.761c.166.885.324,1.772.465,2.661.026.164,0,.443-.091.495a.7.7,0,0,1-.564-.006c-.869-.429-1.727-.881-2.578-1.345a2.571,2.571,0,0,0-2.637.024q-1.212.668-2.455,1.279a.854.854,0,0,1-.626.052c-.093-.038-.119-.366-.091-.55.11-.73.252-1.455.383-2.182" transform="translate(-136.228 -41.241)" fill="#ffb500"/></g></g><circle cx="61.5" cy="61.5" r="61.5" transform="translate(738 2899)" fill="#ced371"/><g transform="translate(766.344 2926.483)"><g transform="translate(0 0)"><path d="M60.633,67.058H5.441a1.986,1.986,0,0,0-.368-.191A6.6,6.6,0,0,1,.189,61.987,2.014,2.014,0,0,0,0,61.618V6.18a2.661,2.661,0,0,0,.211-.432,6.605,6.605,0,0,1,6.574-5Q33.178.734,59.571.749A7.162,7.162,0,0,1,61.3.956a6.6,6.6,0,0,1,5.036,6.734q0,26.192,0,52.385c0,.194,0,.389-.007.583a6.677,6.677,0,0,1-4.684,6.111c-.335.1-.673.193-1.009.289m1.3-53.1h2.184c0-2.365.073-4.65-.021-6.929A4.275,4.275,0,0,0,59.969,3c-.214-.017-.429-.049-.644-.049q-26.261,0-52.523,0A4.419,4.419,0,0,0,2.208,7.57c-.007,1.942,0,3.885,0,5.827,0,.187.02.375.032.595H3q29.111,0,58.222,0c.236,0,.473-.022.709-.034M59.977,64.811a4.36,4.36,0,0,0,4.147-4.505q.01-21.819,0-43.639c0-.141-.025-.282-.037-.416H61.914c-.257-.014-.514-.04-.772-.04q-29.046,0-58.091,0c-.236,0-.472.023-.708.035l-.12.167c-.005.215-.016.431-.016.646q0,21.462,0,42.925a4.469,4.469,0,0,0,4.866,4.868q26.033,0,52.065,0c.279,0,.559-.026.839-.039" transform="translate(0 -0.739)" fill="#000101"/><path d="M12.89,90.181c.236-.012.472-.035.708-.035q29.046,0,58.091,0c.257,0,.514.026.772.04.005.086.014.172.014.258q0,22-.022,44a5.329,5.329,0,0,1-.533,2.162,16.718,16.718,0,0,1-1.4,2.136c-.28.014-.559.039-.839.039q-26.032,0-52.065,0a4.469,4.469,0,0,1-4.866-4.867q0-21.462,0-42.925c0-.215.01-.431.016-.646l.12-.167m16.435,27.611c2.913,0,5.827.012,8.74,0a3.315,3.315,0,0,0,3.439-3.423q.017-6.537,0-13.074a3.32,3.32,0,0,0-3.385-3.412c-.712-.013-1.426.028-2.135-.021a.892.892,0,0,1-.617-.385c-.405-.709-.735-1.461-1.118-2.183a3.239,3.239,0,0,0-2.981-1.824c-1.273-.022-2.546-.018-3.819,0a3.262,3.262,0,0,0-3.029,1.855c-.38.723-.712,1.473-1.112,2.185a.826.826,0,0,1-.574.355c-.644.045-1.294.015-1.941.017a3.363,3.363,0,0,0-3.62,3.641q0,6.311,0,12.621a3.372,3.372,0,0,0,3.673,3.653q4.24,0,8.481,0m.026,5.515H39.84a5.633,5.633,0,0,0,.646-.018,1.091,1.091,0,0,0,.043-2.173,3.561,3.561,0,0,0-.58-.028q-10.619,0-21.238,0a3.184,3.184,0,0,0-.643.047,1.062,1.062,0,0,0-.888,1.108,1.052,1.052,0,0,0,.97,1.038,4.84,4.84,0,0,0,.646.024q5.277,0,10.554,0m25.408-14.385c0-.712.012-1.424,0-2.136a2.155,2.155,0,0,0-2.163-2.262c-1.487-.048-2.979-.045-4.466,0a2.181,2.181,0,0,0-2.2,2.3c-.012,1.424-.014,2.848,0,4.272a2.161,2.161,0,0,0,2.108,2.258c1.53.06,3.065.057,4.6,0a2.151,2.151,0,0,0,2.127-2.232c.018-.733,0-1.467,0-2.2m0-11.055h0c0-.755.022-1.511,0-2.265a2.147,2.147,0,0,0-2.155-2.133c-1.488-.028-2.977-.024-4.466,0a2.177,2.177,0,0,0-2.2,2.171c-.027,1.488-.024,2.977,0,4.465a2.147,2.147,0,0,0,2.171,2.184q2.232.042,4.466,0a2.139,2.139,0,0,0,2.191-2.224c.017-.733,0-1.467,0-2.2m0,33.154h0c0-.755.022-1.511-.005-2.265a2.148,2.148,0,0,0-2.16-2.128q-2.232-.04-4.466,0a2.178,2.178,0,0,0-2.194,2.176q-.039,2.232,0,4.465a2.148,2.148,0,0,0,2.176,2.179q2.232.04,4.466,0a2.133,2.133,0,0,0,2.183-2.164c.023-.754,0-1.51,0-2.265m0-11.042c0-.755.022-1.51,0-2.265a2.122,2.122,0,0,0-2.153-2.124q-2.265-.034-4.53,0a2.128,2.128,0,0,0-2.132,2.085c-.038,1.531-.034,3.063,0,4.594a2.166,2.166,0,0,0,2.165,2.135c1.488.025,2.977.022,4.466,0a2.156,2.156,0,0,0,2.189-2.166c.024-.754,0-1.51,0-2.265M21.627,135.454c.734,0,1.468.017,2.2,0a2.111,2.111,0,0,0,2.173-2.1q.068-2.295,0-4.594a2.141,2.141,0,0,0-2.227-2.128q-2.168-.027-4.337,0a2.187,2.187,0,0,0-2.258,2.182c-.035,1.487-.032,2.977,0,4.465a2.163,2.163,0,0,0,2.183,2.178c.754.022,1.51,0,2.265.005m41.967-12.147c.992,0,1.983,0,2.975,0,.884,0,1.768.018,2.65-.023a1.065,1.065,0,0,0,1.031-1.046,1.108,1.108,0,0,0-.961-1.119,3.368,3.368,0,0,0-.58-.03q-5.109,0-10.217,0a2.765,2.765,0,0,0-.7.069A1.073,1.073,0,0,0,57.1,122.7a1.193,1.193,0,0,0,1.191.613c1.768-.006,3.535,0,5.3,0M63.6,99c-1.767,0-3.535,0-5.3,0-.818,0-1.317.427-1.316,1.094s.509,1.111,1.314,1.112q5.3.009,10.6,0c.841,0,1.373-.464,1.351-1.144-.02-.66-.519-1.061-1.349-1.063-1.767,0-3.535,0-5.3,0m-.024,35.37h1.681c1.272,0,2.544.014,3.815-.007a1.126,1.126,0,0,0,1.18-1.118,1.068,1.068,0,0,0-1.07-1.074q-5.561-.021-11.122,0a1,1,0,0,0-1.043.875c-.162.744.375,1.318,1.257,1.324,1.767.011,3.535,0,5.3,0m-.01-22.123c1.789,0,3.578,0,5.367,0,.8,0,1.32-.44,1.319-1.1s-.522-1.1-1.32-1.106q-5.3-.007-10.6,0c-.848,0-1.366.449-1.344,1.139.022.667.516,1.064,1.345,1.066,1.746,0,3.492,0,5.237,0m-28.7,19.913c-1.767,0-3.534-.008-5.3.009a1.72,1.72,0,0,0-.856.2,1,1,0,0,0-.4,1.253,1.144,1.144,0,0,0,1.225.75c3.556,0,7.112,0,10.668,0a1.148,1.148,0,0,0,1.3-1.13c-.01-.667-.5-1.074-1.332-1.076-1.767-.005-3.534,0-5.3,0M60.887,94.577c-.884,0-1.767-.01-2.651,0-.771.011-1.254.443-1.256,1.091a1.129,1.129,0,0,0,1.244,1.117q2.618.023,5.237,0a1.115,1.115,0,0,0,1.246-1.106c0-.67-.451-1.089-1.234-1.1-.862-.014-1.724,0-2.586,0m.008,33.16c-.905,0-1.811-.013-2.716,0a1.1,1.1,0,1,0-.028,2.2q2.683.034,5.367,0a1.1,1.1,0,0,0,1.19-1.1c.008-.672-.446-1.1-1.226-1.109-.862-.015-1.724,0-2.586,0m-28.753,0c-.883,0-1.767-.01-2.65,0-.78.011-1.243.43-1.244,1.091a1.1,1.1,0,0,0,1.233,1.116q2.617.024,5.235,0a1.1,1.1,0,0,0,1.241-1.106c0-.673-.445-1.089-1.23-1.1-.862-.014-1.723,0-2.585,0m28.75-22.109c-.884,0-1.767-.006-2.651,0a1.11,1.11,0,1,0-.022,2.2q2.619.014,5.238,0a1.109,1.109,0,1,0,.022-2.2c-.862-.01-1.724,0-2.586,0m-.047,13.25c.884,0,1.768.011,2.651,0a1.079,1.079,0,0,0,1.21-1.057,1.1,1.1,0,0,0-1.2-1.146q-2.651-.026-5.3,0a1.12,1.12,0,0,0-1.22,1.137,1.106,1.106,0,0,0,1.212,1.066c.884.014,1.767,0,2.651,0" transform="translate(-10.546 -74.674)" fill="#f3f3f3"/><path d="M72.467,24.5c-.236.012-.473.035-.709.035q-29.111,0-58.222,0h-.759c-.012-.22-.032-.408-.032-.6,0-1.942-.007-3.885,0-5.827a4.42,4.42,0,0,1,4.594-4.621q26.261-.008,52.523,0c.215,0,.429.032.644.049a14.455,14.455,0,0,1,1.171,1.577,4.494,4.494,0,0,1,.69,3.152,3.34,3.34,0,0,0-3.44-2.571q-5.342-.008-10.685.008a4.107,4.107,0,0,0-1.266.205,3.291,3.291,0,0,0,1,6.4c3.626.03,7.253.015,10.879.012a3.3,3.3,0,0,0,3.5-2.485,4.551,4.551,0,0,1,.1.676c.011,1.329.007,2.658.008,3.986m-45.4-2.18a3.313,3.313,0,0,0,3.371-3.286,3.323,3.323,0,1,0-3.371,3.286m-8.841,0A3.27,3.27,0,0,0,21.575,19.1a3.3,3.3,0,0,0-3.258-3.4,3.347,3.347,0,0,0-3.364,3.307,3.307,3.307,0,0,0,3.276,3.314M32.663,19a3.269,3.269,0,0,0,3.248,3.324,3.3,3.3,0,0,0,3.374-3.28A3.346,3.346,0,0,0,35.955,15.7,3.3,3.3,0,0,0,32.663,19" transform="translate(-10.537 -11.285)" fill="#b0c0d2"/><path d="M346.612,138.942a16.718,16.718,0,0,0,1.4-2.136,5.334,5.334,0,0,0,.533-2.162q.045-22,.022-44c0-.086-.009-.172-.015-.258h2.175c.012.134.037.275.037.416q0,21.819,0,43.639a4.36,4.36,0,0,1-4.147,4.505" transform="translate(-286.635 -74.87)" fill="#727997"/><path d="M348.524,24.747c0-1.329,0-2.658-.008-3.986a4.559,4.559,0,0,0-.1-.676q.006-.784.012-1.568a4.494,4.494,0,0,0-.69-3.152,14.462,14.462,0,0,0-1.171-1.577,4.275,4.275,0,0,1,4.125,4.03c.094,2.278.021,4.564.021,6.929Z" transform="translate(-286.593 -11.53)" fill="#727997"/><path d="M12.968,90.354l-.12.167.12-.167" transform="translate(-10.625 -74.847)" fill="#cad1d5"/><path d="M50.424,133.591q-4.24,0-8.481,0a3.371,3.371,0,0,1-3.673-3.653q0-6.311,0-12.621a3.363,3.363,0,0,1,3.62-3.64c.647,0,1.3.028,1.941-.017a.827.827,0,0,0,.574-.355c.4-.712.732-1.461,1.112-2.185a3.262,3.262,0,0,1,3.029-1.855c1.273-.017,2.547-.021,3.819,0a3.239,3.239,0,0,1,2.981,1.824c.383.722.713,1.474,1.118,2.183a.893.893,0,0,0,.617.385c.709.048,1.423.007,2.135.02A3.32,3.32,0,0,1,62.6,117.09q.017,6.537,0,13.074a3.315,3.315,0,0,1-3.439,3.423c-2.913.016-5.826,0-8.74,0m7.525-11.116c.367.005.734.016,1.1.014.988-.006,1.346-.371,1.351-1.384,0-.993-.032-1.987.008-2.979.082-2.027-.262-2.411-2.477-2.211-.236-.012-.473-.033-.709-.034q-7.507,0-15.014,0a4.587,4.587,0,0,0-.646.02,1.118,1.118,0,0,0-1.078,1.162q-.037,2.135,0,4.27c.011.551.24,1.1.858,1.122,1.544.056,3.091.018,4.622.018a2.394,2.394,0,0,1,2.709-2.181q1.683,0,3.365,0c1.751,0,2.434.506,2.9,2.182Zm-.018,8.877c.343.014.685.04,1.028.038,1.026-.007,1.435-.421,1.441-1.457.005-.967,0-1.934,0-2.9v-2.391l-2.192.149H54.938c-.464,1.677-1.147,2.183-2.9,2.184H49c-1.935,0-2.437-.353-3.111-2.271H40.475c0,1.637,0,3.338,0,5.04,0,1.287.36,1.644,1.662,1.644q7.51,0,15.02,0c.258,0,.516-.022.774-.033m-3.785-17.709c-.251-.506-.486-.956-.7-1.418a1.218,1.218,0,0,0-1.228-.76c-1.184.01-2.369-.033-3.55.025a1.56,1.56,0,0,0-1.05.468,10.25,10.25,0,0,0-.9,1.685Zm-5.9,11.066h4.361v-2.15H48.244Z" transform="translate(-31.646 -90.474)" fill="#030202"/><path d="M50.488,271.181H39.934a4.9,4.9,0,0,1-.646-.024,1.085,1.085,0,0,1-.082-2.146,3.17,3.17,0,0,1,.643-.047q10.619,0,21.238,0a3.6,3.6,0,0,1,.581.027,1.091,1.091,0,0,1-.043,2.173,5.551,5.551,0,0,1-.646.018H50.488" transform="translate(-31.684 -222.548)" fill="#060606"/><path d="M213.228,177.47c0,.734.014,1.467,0,2.2A2.151,2.151,0,0,1,211.1,181.9c-1.53.053-3.065.056-4.6,0a2.161,2.161,0,0,1-2.109-2.258c-.015-1.424-.013-2.848,0-4.272a2.181,2.181,0,0,1,2.2-2.3c1.488-.042,2.979-.046,4.466,0a2.155,2.155,0,0,1,2.163,2.262c.015.712,0,1.424,0,2.136m-6.607,2.2h4.361v-4.362h-4.361Z" transform="translate(-169.017 -143.223)" fill="#040403"/><path d="M213.208,113.657c0,.733.014,1.467,0,2.2a2.139,2.139,0,0,1-2.191,2.224q-2.232.036-4.466,0a2.148,2.148,0,0,1-2.171-2.184c-.022-1.488-.025-2.977,0-4.465a2.178,2.178,0,0,1,2.2-2.171c1.488-.023,2.978-.026,4.466,0a2.147,2.147,0,0,1,2.155,2.133c.027.754.005,1.51.005,2.265h0m-6.586,2.176h4.33v-4.352h-4.33Z" transform="translate(-168.997 -90.466)" fill="#030301"/><path d="M213.206,305.282c0,.755.019,1.511,0,2.265a2.132,2.132,0,0,1-2.183,2.164q-2.232.037-4.466,0a2.148,2.148,0,0,1-2.176-2.179q-.035-2.232,0-4.465a2.178,2.178,0,0,1,2.194-2.175c1.488-.023,2.978-.026,4.466,0a2.148,2.148,0,0,1,2.16,2.128c.027.754.005,1.51.005,2.265h0m-6.594,2.191h4.351v-4.35h-4.351Z" transform="translate(-168.997 -248.936)" fill="#030301"/><path d="M213.189,241.5c0,.755.02,1.51,0,2.265A2.156,2.156,0,0,1,211,245.929c-1.488.02-2.978.022-4.466,0a2.166,2.166,0,0,1-2.165-2.135c-.032-1.531-.036-3.063,0-4.594a2.128,2.128,0,0,1,2.132-2.086q2.265-.038,4.53,0a2.122,2.122,0,0,1,2.153,2.124c.027.754.005,1.51.006,2.265m-6.592,2.2h4.352v-4.349H206.6Z" transform="translate(-168.982 -196.195)" fill="#020201"/><path d="M42.661,309.728c-.755,0-1.511.018-2.265,0a2.163,2.163,0,0,1-2.183-2.178c-.031-1.488-.034-2.977,0-4.465a2.187,2.187,0,0,1,2.258-2.182q2.168-.025,4.337,0a2.141,2.141,0,0,1,2.227,2.128q.067,2.3,0,4.594a2.112,2.112,0,0,1-2.173,2.1c-.733.021-1.467,0-2.2,0m2.125-6.576H40.464v4.341h4.321Z" transform="translate(-31.58 -248.949)" fill="#030302"/><path d="M274.949,271.179c-1.768,0-3.535,0-5.3,0a1.193,1.193,0,0,1-1.191-.613,1.073,1.073,0,0,1,.689-1.537,2.766,2.766,0,0,1,.7-.069q5.109-.007,10.218,0a3.364,3.364,0,0,1,.579.031,1.107,1.107,0,0,1,.961,1.119,1.065,1.065,0,0,1-1.031,1.046c-.882.04-1.767.02-2.65.022q-1.487,0-2.975,0" transform="translate(-221.901 -222.547)" fill="#060606"/><path d="M274.961,141.324c1.767,0,3.535,0,5.3,0,.83,0,1.329.4,1.349,1.063.021.681-.511,1.143-1.351,1.144q-5.3.007-10.6,0c-.8,0-1.313-.447-1.314-1.112s.5-1.091,1.316-1.094c1.767-.006,3.535,0,5.3,0" transform="translate(-221.909 -116.996)" fill="#040404"/><path d="M274.972,335.18c-1.767,0-3.535.008-5.3,0-.882-.006-1.418-.58-1.257-1.324a1,1,0,0,1,1.043-.875q5.561-.012,11.122,0a1.068,1.068,0,0,1,1.07,1.074,1.126,1.126,0,0,1-1.18,1.118c-1.271.021-2.543.007-3.815.007h-1.681" transform="translate(-221.943 -275.482)" fill="#040404"/><path d="M274.937,207.323c-1.746,0-3.492,0-5.237,0-.829,0-1.323-.4-1.345-1.066-.022-.69.5-1.139,1.344-1.139q5.3,0,10.6,0c.8,0,1.319.449,1.32,1.106s-.515,1.1-1.319,1.1c-1.789.005-3.578,0-5.367,0" transform="translate(-221.918 -169.749)" fill="#020202"/><path d="M108.871,332.948c1.767,0,3.534,0,5.3,0,.829,0,1.322.409,1.332,1.076a1.148,1.148,0,0,1-1.3,1.13c-3.556.007-7.112,0-10.668,0a1.143,1.143,0,0,1-1.225-.75,1,1,0,0,1,.4-1.253,1.722,1.722,0,0,1,.857-.2c1.767-.017,3.534-.009,5.3-.009" transform="translate(-84.549 -275.462)" fill="#040404"/><path d="M272.252,115.741c.862,0,1.725-.011,2.586,0,.783.013,1.237.432,1.234,1.1a1.115,1.115,0,0,1-1.246,1.106q-2.619.022-5.237,0a1.129,1.129,0,0,1-1.244-1.117c0-.647.485-1.079,1.256-1.09.883-.013,1.767,0,2.651,0" transform="translate(-221.911 -95.838)" fill="#050505"/><path d="M272.26,307.37c.862,0,1.724-.012,2.586,0,.78.013,1.234.437,1.226,1.109a1.1,1.1,0,0,1-1.19,1.1q-2.683.029-5.367,0a1.1,1.1,0,1,1,.028-2.2c.9-.017,1.811,0,2.716,0" transform="translate(-221.911 -254.307)" fill="#050505"/><path d="M106.2,307.369c.862,0,1.724-.011,2.585,0,.785.013,1.234.428,1.23,1.1a1.1,1.1,0,0,1-1.241,1.106q-2.617.023-5.235,0a1.1,1.1,0,0,1-1.233-1.116c0-.662.464-1.08,1.244-1.091.883-.013,1.766,0,2.65,0" transform="translate(-84.601 -254.307)" fill="#050505"/><path d="M272.254,179.606c.862,0,1.724-.007,2.586,0a1.109,1.109,0,1,1-.022,2.2q-2.619.012-5.238,0a1.11,1.11,0,1,1,.022-2.2c.884-.008,1.767,0,2.651,0" transform="translate(-221.908 -148.653)" fill="#020202"/><path d="M272.215,245.582c-.884,0-1.768.011-2.651,0a1.106,1.106,0,0,1-1.212-1.066,1.12,1.12,0,0,1,1.22-1.137q2.651-.024,5.3,0a1.1,1.1,0,0,1,1.2,1.146,1.079,1.079,0,0,1-1.21,1.057c-.884.014-1.767,0-2.651,0" transform="translate(-221.916 -201.38)" fill="#040404"/><path d="M273.146,28.808q-.006.784-.012,1.568a3.3,3.3,0,0,1-3.5,2.485c-3.626,0-7.253.018-10.879-.012a3.291,3.291,0,0,1-1-6.4,4.1,4.1,0,0,1,1.266-.205q5.342-.024,10.685-.008a3.339,3.339,0,0,1,3.44,2.571m-8.751,1.841c1.77,0,3.54,0,5.31,0,.8,0,1.331-.458,1.316-1.1s-.53-1.1-1.339-1.1q-5.31-.009-10.621,0c-.806,0-1.31.451-1.31,1.123,0,.655.512,1.077,1.334,1.08,1.77,0,3.54,0,5.31,0" transform="translate(-211.316 -21.821)" fill="#000203"/><path d="M79.9,32.88a3.311,3.311,0,1,1,3.371-3.286A3.316,3.316,0,0,1,79.9,32.88M81.051,29.6a1.1,1.1,0,1,0-2.2-.022,1.1,1.1,0,0,0,2.2.022" transform="translate(-63.37 -21.842)" fill="#010303"/><path d="M28.8,32.882a3.306,3.306,0,0,1-3.276-3.314,3.347,3.347,0,0,1,3.364-3.307,3.3,3.3,0,0,1,3.258,3.4A3.27,3.27,0,0,1,28.8,32.882m.044-2.212a1.062,1.062,0,0,0,1.09-1.108,1.1,1.1,0,0,0-1.124-1.092,1.149,1.149,0,0,0-1.076,1.093,1.1,1.1,0,0,0,1.11,1.106" transform="translate(-21.11 -21.844)" fill="#010203"/><path d="M127.872,29.557a3.3,3.3,0,0,1,3.292-3.3,3.346,3.346,0,0,1,3.331,3.341,3.3,3.3,0,0,1-3.374,3.28,3.269,3.269,0,0,1-3.248-3.323m3.326-1.088a1.1,1.1,0,0,0-1.113,1.1,1.058,1.058,0,0,0,1.034,1.1,1.1,1.1,0,0,0,1.164-1.049,1.147,1.147,0,0,0-1.085-1.149" transform="translate(-105.745 -21.843)" fill="#010202"/><path d="M68.477,205.2c-.258.012-.516.033-.774.033q-7.51,0-15.02,0c-1.3,0-1.662-.357-1.662-1.644,0-1.7,0-3.4,0-5.04H56.43c.674,1.918,1.176,2.271,3.111,2.271h3.043c1.753,0,2.435-.506,2.9-2.184h3.272c0,1.668.018,3.336-.017,5a10.528,10.528,0,0,1-.261,1.558" transform="translate(-42.191 -164.321)" fill="#9f512d"/><path d="M68.455,154.155H65.443c-.463-1.676-1.146-2.182-2.9-2.182q-1.683,0-3.365,0a2.394,2.394,0,0,0-2.709,2.181c-1.531,0-3.078.037-4.622-.018-.618-.022-.847-.572-.858-1.123q-.041-2.134,0-4.27a1.118,1.118,0,0,1,1.078-1.162,4.587,4.587,0,0,1,.646-.02q7.507,0,15.014,0c.236,0,.473.022.709.033a13.891,13.891,0,0,1,.255,2.085c-.034,1.492.25,3.006-.237,4.475" transform="translate(-42.152 -122.154)" fill="#9f512d"/><path d="M151.9,204.907a10.527,10.527,0,0,0,.261-1.558c.035-1.667.016-3.335.017-5l2.192-.149v2.391c0,.967,0,1.934,0,2.9-.006,1.035-.415,1.45-1.441,1.457-.342,0-.685-.024-1.028-.038" transform="translate(-125.62 -164.029)" fill="#763d21"/><path d="M151.923,154.1c.487-1.469.2-2.983.237-4.475a13.888,13.888,0,0,0-.255-2.085c2.215-.2,2.56.184,2.477,2.211-.04.991,0,1.986-.008,2.979-.005,1.013-.363,1.378-1.35,1.384-.367,0-.734-.009-1.1-.014" transform="translate(-125.62 -122.1)" fill="#763d21"/><path d="M94.547,124.195H87.122a10.243,10.243,0,0,1,.9-1.685,1.56,1.56,0,0,1,1.05-.468c1.181-.058,2.367-.014,3.55-.024a1.218,1.218,0,0,1,1.228.76c.212.461.448.911.7,1.418" transform="translate(-72.047 -101.026)" fill="#f1f1f1"/><rect width="4.361" height="2.15" transform="translate(16.598 32.084)" fill="#ffb500"/><rect width="4.361" height="4.362" transform="translate(37.604 32.086)" fill="#ffb500"/><rect width="4.33" height="4.352" transform="translate(37.625 21.015)" fill="#ffb500"/><rect width="4.351" height="4.35" transform="translate(37.615 54.187)" fill="#ffb500"/><rect width="4.352" height="4.349" transform="translate(37.615 43.15)" fill="#ffb500"/><rect width="4.321" height="4.341" transform="translate(8.884 54.203)" fill="#ffb500"/><path d="M274.991,41.2c-1.77,0-3.54,0-5.31,0-.821,0-1.333-.425-1.334-1.079,0-.672.5-1.122,1.31-1.123q5.31-.01,10.621,0c.809,0,1.324.44,1.339,1.1s-.517,1.1-1.316,1.1c-1.77.006-3.54,0-5.31,0" transform="translate(-221.913 -32.372)" fill="#727997"/><path d="M91.673,40.172a1.1,1.1,0,0,1-2.2-.022,1.1,1.1,0,1,1,2.2.022" transform="translate(-73.992 -32.411)" fill="#ffb500"/><path d="M39.408,41.229a1.1,1.1,0,0,1-1.11-1.106,1.149,1.149,0,0,1,1.076-1.093A1.1,1.1,0,0,1,40.5,40.122a1.062,1.062,0,0,1-1.09,1.108" transform="translate(-31.67 -32.404)" fill="#a3314f"/><path d="M141.773,39.027a1.147,1.147,0,0,1,1.085,1.149,1.1,1.1,0,0,1-1.164,1.049,1.058,1.058,0,0,1-1.034-1.1,1.1,1.1,0,0,1,1.113-1.1" transform="translate(-116.32 -32.401)" fill="#ced371"/></g></g></g></svg>