<svg xmlns="http://www.w3.org/2000/svg" width="233.534" height="188.224" viewBox="0 0 233.534 188.224"><g transform="translate(103.05 -0.743)"><g transform="translate(-103.05 0.743)"><path d="M102.106,184.779H99.949c-2.184-1.912-2.338-2.954-.818-5.514.816-1.375,1.627-2.754,2.45-4.148a8.1,8.1,0,0,0-6-2.653c-27.463.108-54.926.07-82.389.065-6.423,0-10.633-2.983-12.758-8.985a3.744,3.744,0,0,0-.43-.691V28.777a2.208,2.208,0,0,0,.39-.516c2.284-6.292,6.328-9.14,13.016-9.145,4.673,0,9.345.019,14.018-.022a3.6,3.6,0,0,0,1.987-.5,13,13,0,0,1,8.242-2.5c2.742.062,5.487.013,8.2.013,1.465-9.352,6.73-14.9,14.458-15.333a15.05,15.05,0,0,1,9.972,2.852,15.5,15.5,0,0,1,6.46,12.482c3.08,0,6.006.018,8.932-.005a12.849,12.849,0,0,1,7.261,2.212,4.865,4.865,0,0,0,2.439.768c4.612.072,9.231.184,13.836,0,7.855-.313,13.675,5.559,13.548,13.544-.249,15.568-.073,31.143-.073,46.714V81.3c16.66-2.605,31.177,1.531,44.081,12.554a9.565,9.565,0,0,1,1.362-1.736c2.728-2.163,4.34-4.674,3.764-8.413a2.7,2.7,0,0,1,3.207-3.122,11.559,11.559,0,0,1,2.934,1.533c2.043-1.835,3.676-2.121,5.093-.751,1.442,1.395,1.214,2.838-.873,5.461,1.269.959,2.185,2.085,1.574,3.809-.624,1.761-2.011,2.211-3.718,2.134a25.4,25.4,0,0,0-3.053.015,2.5,2.5,0,0,0-1.426.512c-1.627,1.494-3.185,3.064-4.816,4.654,9.985,11.765,14.576,25.181,12.869,40.447-1.713,15.316-9.152,27.445-21.494,36.671.85,1.422,1.645,2.745,2.434,4.071,1.63,2.739,1.288,4.114-1.4,5.642h-1.8l-4.35-5.924c-4.7,1.574-9.383,3.228-14.122,4.682a59.1,59.1,0,0,1-6.335,1.242H126.554c-1.414-.3-2.823-.637-4.244-.907a53.852,53.852,0,0,1-15.444-5.522c-.521.829-.941,1.618-1.476,2.32-1.061,1.395-2.186,2.742-3.285,4.108m67.2-37.739.021-.034-.377,1.106.007-.053a9.457,9.457,0,0,0-.644,1.032,39.984,39.984,0,1,1-11.453-47.5,12.883,12.883,0,0,0,1.1.691l1.745-1.891,2.732-2.155c-5.265-4.322-10.347-7.607-16.386-9.181l-.005.007-.785-.278A42.171,42.171,0,0,0,126.5,86.95c-22.3,2.379-40.085,21.387-40.893,43.735a46.061,46.061,0,0,0,30.71,45.573,42.853,42.853,0,0,0,27.485.954l.794-.257,0,.012c.58-.13,1.174-.213,1.736-.4a46.216,46.216,0,0,0,28.557-60.379,44.83,44.83,0,0,0-8.35-13.729l-3.271,3.238-1.47.612a42.145,42.145,0,0,1,7.971,13.746c1.657,5.668,2.642,11.419,1.717,17.324-.459,2.931-1.187,5.819-1.793,8.727l-.381.931M135.96,111.732l-.775-.24c-.948-.115-1.9-.309-2.847-.332a21.648,21.648,0,0,0-20.112,12.6,21.4,21.4,0,0,0,3.791,23.551c5.2,5.465,11.587,7.846,19.164,6.566a12.5,12.5,0,0,0,1.594-.18,21.591,21.591,0,0,0,16.309-24.711,19.153,19.153,0,0,0-4.183-9.271c-1.15,1.237-2.23,2.278-3.143,3.448a2.054,2.054,0,0,0-.293,1.711c1.866,4.585,2.421,9.193.555,13.913-3.667,6.991-9.635,10.167-16.891,8.991-7.89-1.28-13.739-9.242-12.527-17.051,1.345-8.658,8.97-14.57,17.282-13.219a54.533,54.533,0,0,1,6.79,2.018l1.415-1.511,2.62-2.584c-2.8-1.9-5.515-3.4-8.759-3.712l.009.012m-2.51,14.855,2.167-2.1-.2-.605-4.191-.25a8.972,8.972,0,0,0-8.548,9c-.008,4.817,3.952,8.99,8.545,9,3.9.473,6.707-1.311,8.655-4.471,1.587-2.573,1.489-5.346.37-8.273l-5.792,5.551a3.3,3.3,0,0,1-4.763.348c-1.339-1.452-1.172-3.071.559-4.86,1.073-1.109,2.131-2.232,3.195-3.349m25.419-.515a30.588,30.588,0,0,1-1.325,17.034,27.8,27.8,0,0,1-29.777,16.949c-14.553-2.225-24.529-14.867-23.485-29.915.964-13.909,13.4-25.212,27.695-25.119a27.693,27.693,0,0,1,17.182,6.065l1.947-2.121,2.31-2.142a28.724,28.724,0,0,0-12.131-6.47,29.318,29.318,0,0,0-15.222-.934c-18.579,3.584-30.089,19.713-27.571,38.5,2.608,19.456,23.239,32.866,42.067,27.343,18.237-4.191,29.379-24.45,23.526-42.783a32.279,32.279,0,0,0-6.306-11.423l-2.8,3-1.523,1.342.617-.061,4.8,10.732m-50.327-100.7H97.949c.113,2.042.218,3.924.333,5.987,1.754,0,3.413.036,5.069-.008a6.655,6.655,0,0,1,6.683,3.887,32.418,32.418,0,0,1,.345,3.362q.035,22.073.015,44.147v2.319c1.693-.63,2.992-1.236,4.355-1.588,1.433-.369,1.806-1.135,1.8-2.566-.05-16.211-.029-32.422-.034-48.633,0-4.929-3.047-7.559-7.975-6.908M60.746,6.961a9.076,9.076,0,0,0-8.589,9.087c-.052,2.992.014,5.986-.024,8.978a3.123,3.123,0,0,1-3.026,3.333,3.156,3.156,0,0,1-3.082-3.287c-.033-.928-.006-1.858-.006-2.828H44.5c-2.574,0-5.149-.036-7.722.016a5.809,5.809,0,0,0-5.987,5.3,67.843,67.843,0,0,0-.046,6.939H32.76q17.151,0,34.3,0c6.284-.006,12.569-.04,18.853-.061h6.108c0-2.3.113-4.445-.024-6.579-.25-3.9-3.3-5.9-8.232-5.537h-7.1c0,.891.012,1.657,0,2.423-.043,2.244-1.258,3.657-3.095,3.615-1.769-.041-2.978-1.432-3.034-3.544-.05-1.913-.059-3.826-.085-5.74.018-1.191.1-2.385.045-3.573a9.022,9.022,0,0,0-9.75-8.54M98.17,92.8c1.548-1.12,3.04-2.331,4.664-3.327a2.766,2.766,0,0,0,1.487-2.722c-.049-15.747-.032-31.494-.032-47.241v-1.87H98.132a4.994,4.994,0,0,0-1.406.773,6.536,6.536,0,0,1-5.1,2.218q-30.289-.009-60.58,0a6.444,6.444,0,0,1-5.079-2.246c-.3-.336-.7-.8-1.071-.812-2.134-.078-4.272-.038-6.423-.038V153.989H84.308c-.246-.669-.416-1.17-.612-1.661-5.7-14.276-5.242-28.385,1.224-42.3A53.321,53.321,0,0,1,98.17,92.8M24.76,25.232c-3.932,0-7.753-.01-11.574,0-4.613.015-7.061,2.492-7.061,7.14q0,63.432,0,126.864c0,4.733,2.45,7.172,7.206,7.172q38.372,0,76.745,0h2.031a48.043,48.043,0,0,1-3.094-4.306c-.859-1.521-1.986-1.858-3.654-1.854q-32.891.087-65.782.037-7.335,0-7.331-7.235,0-57.232,0-114.465c0-4.828,2.437-7.225,7.338-7.235,1.591,0,3.182,0,4.793,0,.136-2.162.254-4.045.384-6.121" transform="translate(49.484 -0.743)" fill="#020201"/><path d="M118.173,132.613a53.319,53.319,0,0,0-13.25,17.233c-6.466,13.911-6.92,28.021-1.224,42.3.2.491.366.992.612,1.66H38.48V77.347c2.151,0,4.289-.04,6.423.037.369.013.774.477,1.07.813a6.444,6.444,0,0,0,5.08,2.246q30.289-.008,60.579,0a6.534,6.534,0,0,0,5.1-2.218,4.993,4.993,0,0,1,1.406-.773q.019,27.58.038,55.16M92.029,95.786q-6.284,0-12.569,0c-2.454,0-4.909-.041-7.361.036a2.907,2.907,0,0,0-2.961,2.769,3,3,0,0,0,2.658,3.269,9.664,9.664,0,0,0,1.61.07q18.674.006,37.349-.008a7.465,7.465,0,0,0,2.3-.259,3.005,3.005,0,0,0-.556-5.807,12.648,12.648,0,0,0-1.792-.068q-9.337-.006-18.674,0m.043,24.538q-9.7,0-19.392,0c-2.095,0-3.272.9-3.5,2.579-.294,2.136,1.117,3.535,3.646,3.537q19.213.015,38.425,0c2.421,0,3.821-1.135,3.836-3.056s-1.379-3.061-3.8-3.064q-9.606-.012-19.213,0m-8.114,30.626c3.711,0,7.421.012,11.132,0,2.307-.01,3.639-1.136,3.647-3.026.007-1.873-1.371-3.088-3.62-3.092q-11.221-.025-22.443,0c-2.246.006-3.581,1.238-3.539,3.15.04,1.837,1.33,2.954,3.512,2.966,3.77.021,7.54.006,11.311.005m-2.5,18.4c-2.872,0-5.745-.022-8.617.007-2.387.024-3.759,1.229-3.708,3.179.049,1.866,1.37,2.962,3.715,2.971q8.527.034,17.055,0c2.317-.01,3.685-1.138,3.746-2.975.062-1.884-1.4-3.149-3.753-3.174-2.812-.029-5.625-.007-8.437-.007m-28.1-23.338c-.242-.132-.4-.2-.538-.294q-2.733-1.786-4.455.314c-1.109,1.354-.914,2.939.566,4.464.75.773,1.51,1.538,2.286,2.285,1.954,1.882,3.844,1.71,5.384-.55q2.827-4.15,5.56-8.363c1.168-1.79.935-3.578-.53-4.595-1.571-1.091-3.3-.643-4.577,1.227-1.247,1.821-2.459,3.665-3.7,5.514m.018-24.535a5.691,5.691,0,0,1-.526-.261c-1.839-1.195-3.314-1.112-4.462.255-1.12,1.334-.942,2.955.514,4.466q1.119,1.163,2.286,2.28c1.964,1.878,3.885,1.725,5.4-.493,1.889-2.759,3.73-5.551,5.559-8.35,1.208-1.847.929-3.719-.638-4.707-1.532-.966-3.218-.5-4.445,1.286-1.248,1.817-2.451,3.663-3.691,5.523M53.36,96.965c-.216-.121-.364-.19-.5-.279-1.762-1.166-3.377-1.08-4.481.242s-.921,2.963.53,4.468q1.121,1.163,2.287,2.282c1.967,1.89,3.878,1.738,5.4-.485q2.829-4.145,5.563-8.354c1.215-1.861.932-3.7-.654-4.7-1.526-.966-3.212-.5-4.445,1.3-1.249,1.818-2.453,3.667-3.7,5.531m-.039,73.66c-2.059-1.491-3.708-1.508-4.9-.134-1.207,1.389-.963,3.027.71,4.722.757.767,1.5,1.549,2.287,2.285,1.74,1.628,3.659,1.464,5.022-.512,1.969-2.855,3.881-5.749,5.773-8.656,1.152-1.769.852-3.575-.665-4.564-1.542-1-3.22-.569-4.449,1.216-1.254,1.819-2.46,3.672-3.777,5.644" transform="translate(29.481 -40.557)" fill="#dee4f0"/><path d="M31.389,51.738c-.13,2.076-.248,3.959-.384,6.121-1.612,0-3.2,0-4.793,0-4.9.01-7.338,2.407-7.338,7.235q0,57.232,0,114.465,0,7.242,7.331,7.236,32.89,0,65.782-.037c1.669,0,2.8.333,3.654,1.854a48.04,48.04,0,0,0,3.094,4.306H96.7q-38.372,0-76.745,0c-4.755,0-7.205-2.439-7.206-7.172q0-63.432,0-126.864c0-4.648,2.448-7.125,7.061-7.14,3.821-.012,7.643,0,11.574,0" transform="translate(42.856 -27.249)" fill="#9e512c"/><path d="M252.329,193.373l-1.745,1.891a12.781,12.781,0,0,1-1.1-.691,39.963,39.963,0,1,0,11.453,47.5,9.364,9.364,0,0,1,.644-1.032,14.807,14.807,0,0,1-.558,2.584A48.558,48.558,0,0,1,240.875,267.5c-1.254.759-2.439,1.631-3.656,2.45l0-.012-.793.258a42.853,42.853,0,0,1-27.485-.954,46.061,46.061,0,0,1-30.71-45.573c.809-22.348,18.6-41.356,40.893-43.735a42.164,42.164,0,0,1,18.756,1.834l.786.277,0-.006a19.424,19.424,0,0,0,1.781,1.385,48.068,48.068,0,0,1,11.874,9.95" transform="translate(-43.148 -93.727)" fill="#a3314f"/><path d="M257.352,215.146l-1.947,2.121a27.7,27.7,0,0,0-17.182-6.065c-14.3-.093-26.731,11.211-27.695,25.119-1.043,15.048,8.932,27.69,23.485,29.915a27.8,27.8,0,0,0,29.777-16.949,3.257,3.257,0,0,1,.065,1.133,36.067,36.067,0,0,1-15.176,19.494,21.976,21.976,0,0,0-1.874,1.534c-18.828,5.523-39.459-7.887-42.066-27.343-2.518-18.791,8.992-34.92,27.571-38.5a29.313,29.313,0,0,1,15.222.934c.1.206.158.471.319.607q4.739,4.016,9.5,8" transform="translate(-56.763 -106.924)" fill="#f1f1f1"/><path d="M103.655,25.8c.027,1.913.035,3.827.085,5.74.055,2.112,1.265,3.5,3.033,3.544,1.837.042,3.052-1.371,3.1-3.615.015-.766,0-1.532,0-2.423h7.1c.72,1.844,1.753,3.636,2.076,5.548a39.5,39.5,0,0,1,.073,6.568c-6.285.022-12.569.056-18.854.061q-17.151.015-34.3,0H63.948a67.985,67.985,0,0,1,.045-6.939,5.809,5.809,0,0,1,5.987-5.3c2.573-.053,5.149-.015,7.723-.017h1.521c0,.97-.027,1.9.006,2.828a3.157,3.157,0,0,0,3.082,3.288,3.124,3.124,0,0,0,3.026-3.333c.038-2.993-.028-5.986.024-8.978a9.077,9.077,0,0,1,8.589-9.087c.294.433.576.875.885,1.3,1.31,1.789,2.548,3.6,2.28,5.992-1.226-1.194-2.7-1.861-4.14-.7a3.807,3.807,0,0,0-1.348,2.831A3.838,3.838,0,0,0,93.54,25.6c1.431.74,2.763.025,3.728-1.242a1.715,1.715,0,0,0,2.12,1.472,41.72,41.72,0,0,1,4.267-.031" transform="translate(16.281 -7.473)" fill="#ffb500"/><path d="M254.56,273.4c-7.577,1.28-13.965-1.1-19.164-6.566a21.4,21.4,0,0,1-3.791-23.551,21.647,21.647,0,0,1,20.112-12.6c.951.022,1.9.217,2.847.331l.775.24-.009-.012a22.706,22.706,0,0,1,1.861,1.6c1.454,1.539,2.856,3.127,4.278,4.7l-1.415,1.511a54.532,54.532,0,0,0-6.79-2.018c-8.313-1.351-15.938,4.56-17.283,13.219-1.212,7.808,4.638,15.77,12.527,17.05,7.256,1.176,13.223-2,16.891-8.991a29.485,29.485,0,0,1-1.251,4.45c-2.058,4.541-5.513,7.884-9.587,10.639" transform="translate(-69.894 -120.266)" fill="#a3314f"/><path d="M301.1,287.078c1.217-.82,2.4-1.691,3.656-2.45a48.557,48.557,0,0,0,20.152-23.871,14.785,14.785,0,0,0,.558-2.584l-.007.053.377-1.106-.021.034.381-.931c.606-2.908,1.334-5.8,1.793-8.727.925-5.9-.06-11.656-1.717-17.324.028-.493.23-1.058.058-1.467-1.514-3.594-3.044-7.183-4.691-10.718a10.507,10.507,0,0,0-1.867-2.173l3.271-3.238A44.831,44.831,0,0,1,331.4,226.3a46.216,46.216,0,0,1-28.556,60.379c-.562.183-1.157.266-1.736.4" transform="translate(-107.033 -110.856)" fill="#b55a72"/><path d="M226.04,51.916c4.929-.651,7.975,1.979,7.975,6.908,0,16.211-.016,32.422.034,48.633,0,1.43-.368,2.2-1.8,2.566-1.364.351-2.663.957-4.355,1.588V109.29q0-22.073-.016-44.146a32.414,32.414,0,0,0-.344-3.362,9.127,9.127,0,0,0,.335-1.321,13.192,13.192,0,0,0-1.828-8.545" transform="translate(-68.014 -27.293)" fill="#763d22"/><path d="M204.4,132.738q-.019-27.58-.038-55.16h6.157v1.869c0,15.747-.017,31.494.032,47.241a2.765,2.765,0,0,1-1.487,2.722c-1.624,1-3.115,2.208-4.664,3.328" transform="translate(-56.745 -40.683)" fill="#b0c0d2"/><path d="M292.716,284.685a21.867,21.867,0,0,1,1.873-1.534,36.063,36.063,0,0,0,15.175-19.494,3.231,3.231,0,0,0-.064-1.133,30.588,30.588,0,0,0,1.325-17.034,31.7,31.7,0,0,0-.857-4.121c-.919-2.663-2.013-5.265-3.035-7.892l2.8-3a32.294,32.294,0,0,1,6.306,11.423c5.852,18.334-5.29,38.593-23.526,42.783" transform="translate(-102.673 -120.162)" fill="#cbd4d8"/><path d="M281.517,282.666c4.075-2.755,7.53-6.1,9.587-10.639a29.483,29.483,0,0,0,1.251-4.45c1.866-4.721,1.31-9.329-.555-13.913a2.052,2.052,0,0,1,.293-1.711c.913-1.17,1.993-2.21,3.143-3.448a19.159,19.159,0,0,1,4.183,9.271,21.591,21.591,0,0,1-16.309,24.711,12.5,12.5,0,0,1-1.594.18" transform="translate(-96.852 -129.532)" fill="#b55a72"/><path d="M264.028,274.668c-4.593-.014-8.553-4.187-8.545-9a8.972,8.972,0,0,1,8.549-9l2.221,2.955c-1.065,1.117-2.122,2.24-3.2,3.349-1.731,1.789-1.9,3.409-.559,4.86a3.3,3.3,0,0,0,4.762-.347c.039.419.252.929.087,1.241-1.061,2.007-2.2,3.972-3.32,5.95" transform="translate(-83.319 -133.772)" fill="#dee4f0"/><path d="M214.573,52.022a13.192,13.192,0,0,1,1.828,8.545,9.128,9.128,0,0,1-.335,1.321A6.656,6.656,0,0,0,209.382,58c-1.656.044-3.315.008-5.069.008-.115-2.063-.219-3.944-.333-5.987Z" transform="translate(-56.547 -27.399)" fill="#9e512c"/><path d="M176.6,57.748a39.5,39.5,0,0,0-.072-6.568c-.323-1.912-1.357-3.7-2.076-5.548,4.931-.361,7.982,1.639,8.232,5.537.137,2.133.025,4.283.025,6.579Z" transform="translate(-41.197 -24.055)" fill="#ffb500" opacity="0.6"/><path d="M129.669,20.954c.269-2.389-.969-4.2-2.28-5.992-.309-.422-.59-.864-.885-1.3a9.022,9.022,0,0,1,9.75,8.54c.054,1.188-.026,2.382-.045,3.574a41.722,41.722,0,0,0-4.267.031,1.715,1.715,0,0,1-2.12-1.472q-.076-1.691-.154-3.382" transform="translate(-16.275 -7.447)" fill="#ffb500" opacity="0.6"/><path d="M273.278,280.368c1.116-1.978,2.26-3.943,3.32-5.95.165-.312-.048-.823-.087-1.241l5.792-5.551c1.119,2.926,1.216,5.7-.37,8.273-1.948,3.16-4.757,4.943-8.655,4.47" transform="translate(-92.569 -139.471)" fill="#b0c0d2"/><path d="M317.79,195.988a48.069,48.069,0,0,0-11.874-9.95,19.42,19.42,0,0,1-1.781-1.385c6.04,1.574,11.121,4.859,16.386,9.18l-2.732,2.155" transform="translate(-108.609 -96.342)" fill="#c31e1d"/><path d="M304.048,216.793q-4.755-4-9.5-8c-.162-.137-.215-.4-.319-.607a28.735,28.735,0,0,1,12.131,6.47l-2.31,2.142" transform="translate(-103.459 -108.572)" fill="#cad2d6"/><path d="M338.4,219.318a10.493,10.493,0,0,1,1.867,2.174c1.647,3.534,3.177,7.123,4.691,10.717.172.409-.03.974-.058,1.466a42.15,42.15,0,0,0-7.971-13.746l1.47-.612" transform="translate(-125.654 -114.361)" fill="#e63e31"/><path d="M289.259,238.15c-1.422-1.568-2.824-3.157-4.278-4.7a22.792,22.792,0,0,0-1.861-1.6c3.243.309,5.963,1.812,8.759,3.711l-2.62,2.585" transform="translate(-97.685 -120.877)" fill="#b55a72"/><path d="M321.092,236.722c1.022,2.627,2.117,5.229,3.035,7.892a31.634,31.634,0,0,1,.858,4.121q-2.4-5.365-4.8-10.732l-.617.061,1.523-1.342" transform="translate(-116.632 -123.408)" fill="#e1e2e2"/><path d="M275.507,259.615l-2.221-2.955,4.191.25.2.605-2.167,2.1" transform="translate(-92.573 -133.772)" fill="#b0c0d2"/><path d="M352.21,305.338l-.377,1.106.377-1.106" transform="translate(-133.403 -159.075)" fill="#f04234"/><path d="M282.3,231.62l-.775-.24.775.24" transform="translate(-96.856 -120.631)" fill="#c41e1e"/><path d="M352.955,303.47l-.381.931.381-.931" transform="translate(-133.788 -158.104)" fill="#f04234"/><path d="M303.275,184.366l-.785-.277.785.277" transform="translate(-107.754 -96.048)" fill="#c31e1d"/><path d="M299.462,367.962l.793-.258-.793.258" transform="translate(-106.18 -191.493)" fill="#c51e1e"/><path d="M125.207,115.748q9.337,0,18.674,0a12.649,12.649,0,0,1,1.792.069,3.005,3.005,0,0,1,.556,5.807,7.461,7.461,0,0,1-2.3.259q-18.674.022-37.349.008a9.716,9.716,0,0,1-1.61-.07,3,3,0,0,1-2.658-3.269,2.907,2.907,0,0,1,2.961-2.769c2.452-.077,4.907-.034,7.361-.036q6.284,0,12.569,0" transform="translate(-3.696 -60.519)" fill="#050404"/><path d="M125.26,166.856q9.606,0,19.212,0c2.42,0,3.814,1.141,3.8,3.064s-1.415,3.055-3.836,3.056q-19.212.009-38.425,0c-2.529,0-3.94-1.4-3.646-3.537.231-1.68,1.409-2.574,3.5-2.579q9.7-.02,19.392-.005" transform="translate(-3.706 -87.089)" fill="#020101"/><path d="M117.142,224c-3.77,0-7.541.015-11.311-.006-2.182-.012-3.471-1.129-3.511-2.966-.042-1.912,1.293-3.144,3.539-3.15q11.221-.03,22.443,0c2.248.005,3.627,1.22,3.62,3.092-.008,1.89-1.34,3.016-3.647,3.026-3.71.016-7.421,0-11.132,0" transform="translate(-3.703 -113.604)" fill="#030302"/><path d="M114.631,268.95c2.812,0,5.625-.022,8.437.007,2.353.024,3.816,1.289,3.753,3.173-.06,1.838-1.429,2.966-3.746,2.975q-8.527.035-17.054,0c-2.345-.009-3.666-1.1-3.715-2.971-.051-1.95,1.321-3.155,3.708-3.178,2.872-.029,5.745-.007,8.617-.007" transform="translate(-3.696 -140.156)" fill="#060504"/><path d="M63.291,212.425c1.238-1.849,2.45-3.693,3.7-5.514,1.28-1.87,3.006-2.318,4.577-1.227,1.465,1.017,1.7,2.8.53,4.595q-2.744,4.206-5.561,8.364c-1.54,2.26-3.43,2.432-5.384.55-.776-.747-1.536-1.512-2.286-2.285-1.479-1.525-1.674-3.11-.566-4.464q1.719-2.1,4.456-.314c.141.092.3.163.538.294" transform="translate(19.548 -106.97)" fill="#050404"/><path d="M63.316,161.356c1.24-1.86,2.443-3.707,3.691-5.523,1.227-1.786,2.913-2.253,4.446-1.286,1.566.988,1.844,2.86.637,4.707-1.829,2.8-3.671,5.591-5.559,8.35-1.518,2.218-3.439,2.371-5.4.493q-1.166-1.115-2.286-2.279c-1.455-1.512-1.633-3.132-.513-4.466,1.148-1.368,2.622-1.45,4.462-.255a5.51,5.51,0,0,0,.526.261" transform="translate(19.542 -80.436)" fill="#040303"/><path d="M63.3,110.288c1.243-1.864,2.446-3.713,3.7-5.531,1.233-1.794,2.919-2.264,4.445-1.3,1.586,1,1.869,2.84.654,4.7q-2.744,4.2-5.563,8.355c-1.517,2.223-3.429,2.375-5.4.485q-1.165-1.119-2.287-2.282c-1.452-1.505-1.637-3.141-.53-4.468s2.719-1.408,4.481-.242c.135.089.283.159.5.279" transform="translate(19.537 -53.881)" fill="#040303"/><path d="M63.263,263.61c1.317-1.972,2.523-3.824,3.777-5.644,1.229-1.785,2.908-2.221,4.449-1.216,1.517.989,1.818,2.795.665,4.564-1.892,2.907-3.8,5.8-5.773,8.656-1.363,1.976-3.282,2.14-5.022.512-.787-.736-1.53-1.518-2.287-2.285-1.673-1.7-1.916-3.333-.71-4.722,1.193-1.373,2.842-1.357,4.9.134" transform="translate(19.539 -133.543)" fill="#040303"/><path d="M127.145,27.46q.077,1.691.154,3.382c-.966,1.267-2.3,1.982-3.728,1.242a3.838,3.838,0,0,1-1.913-2.491,3.806,3.806,0,0,1,1.348-2.831c1.439-1.163,2.913-.5,4.139.7" transform="translate(-13.75 -13.954)" fill="#080700"/><g transform="translate(0 82.107)"><g transform="translate(0 0)"><path d="M135.872,51.246c.321,1.878.628,3.678.93,5.443a25.2,25.2,0,0,1,3.134.7c3.182,1.139,3.985,4.025,1.907,6.677a8.227,8.227,0,0,1-1.139,1.2,2.916,2.916,0,0,1-4.331-.184,31.412,31.412,0,0,1-2.383-3.613,20.753,20.753,0,0,0-4.708,4.356.907.907,0,0,0-.025.7c2.171,7.657,1.5,15.306-.093,22.941a110.969,110.969,0,0,1-7.545,22.622c-.164.366-.309.741-.48,1.153a4.189,4.189,0,0,1,2.331,2.909,1.886,1.886,0,0,1-2.025,2.53q-6.74.018-13.48,0c-1.482,0-2.1-.657-2.1-2.192q-.01-6.186,0-12.372v-1.179a16.283,16.283,0,0,1-14.142.012c0,4.451,0,8.786,0,13.121,0,2.123-.483,2.614-2.573,2.614-3.572,0-7.15-.115-10.716.038-2.648.114-3.179-1.791-2.113-3.719a8.753,8.753,0,0,1,1.068-1.324c-1.663-3.973-3.437-7.874-4.938-11.876a79.791,79.791,0,0,1-5.282-21.1c-.919-10.641,1.446-20.244,9.377-27.961a4.36,4.36,0,0,0,.433-5.177c-1.14-2.091-2.384-3.177-5.1-2.782-3.122.454-5.973-1.016-8.4-3a8.335,8.335,0,0,1-2.873-6.8,51.381,51.381,0,0,1,.7-8.556,20.2,20.2,0,0,0-.653-9.143c-.228-.813-.505-1.614-.7-2.435a1.736,1.736,0,0,1,2.117-2.16c4.286,1.291,8.617,2.482,12.79,4.081A22.355,22.355,0,0,1,85.3,25.453c.578.851,1.147,1.708,1.875,2.793,7.661-4.287,15.445-4.318,23.206,0,.621-.921,1.153-1.7,1.68-2.492A24.611,24.611,0,0,1,126.2,15.46c2.965-.845,5.915-1.749,8.858-2.666.817-.255,1.655-.3,2.1.411a3.112,3.112,0,0,1,.307,2.022c-.263,1.478-.692,2.928-1.1,4.377-.871,3.1-.08,6.128.295,9.185a39.89,39.89,0,0,1,.369,5.277c-.066,5.94-2.5,8.7-8.058,10.313a17.922,17.922,0,0,1-5.228.292c-.776-.014-1.317.012-1.7.758a6.836,6.836,0,0,1-1.1,1.647c-1.154,1.18-.942,2.63-.909,4.045a1.285,1.285,0,0,0,.393.729,40.777,40.777,0,0,1,7.224,10.377c.772-.723,1.475-1.457,2.257-2.095a22.105,22.105,0,0,1,2.769-1.993,1.065,1.065,0,0,0,.588-1.325c-.306-1.625-.572-3.257-.878-5.025l3.5-.544m-2.764-33.715.111-.275a.868.868,0,0,0-.085-.155q-4.787,1.565-9.569,3.146l-.019.019A19.888,19.888,0,0,0,115.4,27.15c-.889,1.26-1.709,2.568-2.578,3.843a1.84,1.84,0,0,1-2.634.82c-1.74-.684-3.462-1.413-5.205-2.088a16.469,16.469,0,0,0-12.561.08c-1.427.579-2.863,1.135-4.293,1.706-2.248.9-2.478.825-3.851-1.227-.715-1.068-1.406-2.153-2.15-3.2a20.032,20.032,0,0,0-8.069-6.815L68.5,18.336,64.274,17c.084.409.123.62.172.829a21.753,21.753,0,0,1,.4,8.734,60.8,60.8,0,0,0-.715,8.216,5.094,5.094,0,0,0,1.9,4.51A9.655,9.655,0,0,0,73.5,41.209a20.569,20.569,0,0,1,3.345-.017c1.325,1.94,2.672,3.864,3.953,5.832a2.662,2.662,0,0,1,.295,1.366c.027,2.575,0,5.151.017,7.726a13.471,13.471,0,0,0,9.327,12.84,58.69,58.69,0,0,0,6.558,1.861,10.292,10.292,0,0,0,3.917-.091c1.9-.373,3.757-1,5.619-1.556a13.557,13.557,0,0,0,9.932-13.3c.01-2.5-.017-5,.018-7.505a2.872,2.872,0,0,1,.362-1.456c1.252-1.943,2.574-3.842,3.87-5.756.755-.045,1.51-.128,2.265-.126,1.566,0,3.218.392,4.681.019,4.352-1.108,5.787-2.743,5.821-7.02a41.2,41.2,0,0,0-.354-4.935c-.32-2.833-1.118-5.631-.528-8.524.2-1,.341-2.02.509-3.03Zm-19.29,70.676,1.192.173a15.178,15.178,0,0,1-4.3,10.826A4,4,0,0,0,109.44,103v12.117h6.9c.225-.5.463-.99.665-1.492,2.008-5,4.214-9.928,5.966-15.015,2.593-7.53,4.339-15.267,4.087-23.315a27.945,27.945,0,0,0-5.243-15.96l-1.783-2.542c-.1.665-.155,1.027-.209,1.39-1.057,7.161-5.062,11.894-11.865,14.243a43.4,43.4,0,0,1-6.572,1.828,15.207,15.207,0,0,1-5.124.015,48.4,48.4,0,0,1-6.469-1.79A16.653,16.653,0,0,1,78.383,61.153c-.418-1.312-.594-2.7-.92-4.244l-1.7,2.223c-.639.936-1.349,1.833-1.906,2.815-2.519,4.448-3.145,9.358-3.351,14.347A48.9,48.9,0,0,0,72.72,91.287,100.78,100.78,0,0,0,80.7,111.993a8.776,8.776,0,0,0,1,1.441c.444.539.947,1.03,1.519,1.643H88.14V103.216a7.3,7.3,0,0,1,.041-.879,3.451,3.451,0,0,0-1.1-2.885,27.242,27.242,0,0,1-3.313-5.139,27.343,27.343,0,0,1-1.36-4.65l1.134-.192,2.476-.114c1.776,7.687,6.4,11.769,13.16,11.642,6.545-.123,10.873-4.492,12.392-12.494l2.248-.3m25.836-27.174L137.5,60.3l1.123,2.19,1.033-1.456" transform="translate(-59.894 -12.605)" fill="#030303"/><path d="M113.427,214.34V226.2H108.5c-.573-.614-1.075-1.1-1.519-1.643a8.778,8.778,0,0,1-1-1.441,100.777,100.777,0,0,1-7.975-20.707A48.908,48.908,0,0,1,95.8,187.418c.207-4.988.832-9.9,3.351-14.347.557-.983,1.267-1.879,1.906-2.816.084.579.175,1.157.25,1.737a17.884,17.884,0,0,0,7.229,12.141c2.795,2.172,6.208,2.885,9.493,3.916,3.5,1.1,6.971,1.64,10.558.435,1.56-.524,3.164-.921,4.753-1.358a18.52,18.52,0,0,0,8.34-4.7,18.792,18.792,0,0,0,5.423-11.967,27.944,27.944,0,0,1,5.243,15.96c.253,8.048-1.493,15.785-4.087,23.315-1.752,5.087-3.958,10.017-5.966,15.015-.2.5-.44.989-.665,1.492h-6.9V214.121a5.616,5.616,0,0,0,1.194-.487,21.173,21.173,0,0,0,9.087-14.24,3.77,3.77,0,0,0-.517-2.464c-.8-1.212-2.159-1.073-3.4-.8a2.269,2.269,0,0,0-1.772,2.241,9.274,9.274,0,0,1-.21.962l-2.248.3c-1.519,8-5.848,12.371-12.392,12.494-6.755.127-11.384-3.955-13.16-11.642l-2.476.114c-.411-1.095-.781-2.207-1.243-3.279a2.152,2.152,0,0,0-3.484-.706,2.739,2.739,0,0,0-.69,2.924,27.191,27.191,0,0,0,3.164,8.043,16.97,16.97,0,0,0,6.851,6.762" transform="translate(-85.182 -123.729)" fill="#fdd3d3"/><path d="M107.769,38.566a20.032,20.032,0,0,1,8.069,6.815c.744,1.048,1.435,2.132,2.15,3.2,1.373,2.052,1.6,2.124,3.851,1.227,1.43-.571,2.867-1.126,4.293-1.706a16.469,16.469,0,0,1,12.561-.08c1.743.675,3.465,1.4,5.205,2.088a1.84,1.84,0,0,0,2.634-.82c.869-1.274,1.689-2.583,2.578-3.843a19.886,19.886,0,0,1,8.148-6.884l.015.364c-1.838,2.334-3.787,4.591-5.49,7.02-2.879,4.105-1.32,8.156.313,12.236l.945-.364,1.384,1.634c-1.3,1.914-2.618,3.813-3.87,5.756a2.875,2.875,0,0,0-.362,1.456c-.035,2.5-.008,5-.018,7.505a13.557,13.557,0,0,1-9.932,13.3c-1.862.56-3.717,1.182-5.619,1.556a10.293,10.293,0,0,1-3.917.091,58.751,58.751,0,0,1-6.558-1.861,13.471,13.471,0,0,1-9.327-12.84c-.019-2.575.011-5.151-.017-7.726a2.662,2.662,0,0,0-.295-1.366c-1.281-1.968-2.629-3.892-3.953-5.832l.951-1.865,1.393.541c1.862-4.4,3.13-8.726-.151-12.993-1.629-2.118-3.349-4.167-5.027-6.247q.023-.18.047-.359m24.779,29.355c-1.083.19-2.19.291-3.243.586-7.141,2-9.752,10.124-4.98,15.431a11.213,11.213,0,0,0,16.17.179,8.727,8.727,0,0,0,2.485-7.687c-.831-4.919-5.164-8.367-10.432-8.509m-10.7-5.186a1.766,1.766,0,1,0,1.808,1.7,1.771,1.771,0,0,0-1.808-1.7m21.241,0a1.766,1.766,0,1,0,1.783,1.721,1.771,1.771,0,0,0-1.783-1.721" transform="translate(-93.607 -30.902)" fill="#fdd2d2"/><path d="M87.9,49.833,86.946,51.7a20.569,20.569,0,0,0-3.345.017A9.655,9.655,0,0,1,76.126,49.8a5.093,5.093,0,0,1-1.9-4.51,60.8,60.8,0,0,1,.715-8.215,21.754,21.754,0,0,0-.4-8.734c-.049-.209-.087-.42-.172-.828L78.6,28.842c.286.324.555.666.861.969.825.817,1.666,1.618,2.5,2.426l-.783,1.024c.3.318.573.565.794.852,1.675,2.172,3.372,4.329,4.992,6.541a3.888,3.888,0,0,1,.574,3.364c-.415,1.617-.843,3.231-1.273,4.876l1.628.939" transform="translate(-69.996 -23.111)" fill="#df7f7f"/><path d="M262.665,52.945l-1.384-1.634,2.219-1.193c-.209-.531-.383-1.011-.584-1.48-1.429-3.332-1.194-6.4,1.314-9.192,1.443-1.607,2.771-3.316,4.175-5.009l-1-1.128c2.034-1.172,4.058-2.363,6.111-3.5a7.759,7.759,0,0,1,1.54-.48c-.168,1.01-.3,2.027-.509,3.03-.59,2.893.208,5.69.528,8.524a41.2,41.2,0,0,1,.354,4.935c-.035,4.278-1.47,5.912-5.822,7.021-1.463.372-3.115-.016-4.681-.019-.755,0-1.51.081-2.266.126" transform="translate(-201.847 -24.393)" fill="#df7f7f"/><path d="M159.72,164.863A18.792,18.792,0,0,1,154.3,176.83a18.522,18.522,0,0,1-8.34,4.7c-1.589.437-3.193.834-4.753,1.358-3.588,1.2-7.06.663-10.558-.436-3.285-1.031-6.7-1.743-9.494-3.916a17.884,17.884,0,0,1-7.229-12.141c-.075-.58-.166-1.158-.25-1.737l1.7-2.223c.327,1.541.5,2.931.92,4.244A16.652,16.652,0,0,0,127.7,178.008a48.357,48.357,0,0,0,6.469,1.79,15.215,15.215,0,0,0,5.124-.015,43.4,43.4,0,0,0,6.572-1.829c6.8-2.349,10.807-7.083,11.865-14.243.053-.362.109-.725.209-1.39l1.783,2.542" transform="translate(-97.802 -118.136)" fill="#e0bbbb"/><path d="M231.968,260.68a9.279,9.279,0,0,0,.21-.962,2.269,2.269,0,0,1,1.772-2.241c1.246-.271,2.609-.409,3.4.8a3.77,3.77,0,0,1,.517,2.464,21.172,21.172,0,0,1-9.087,14.24,5.6,5.6,0,0,1-1.194.487,4,4,0,0,1,1.269-3.792,15.178,15.178,0,0,0,4.3-10.826l-1.192-.173" transform="translate(-178.045 -185.079)" fill="#e1bbbb"/><path d="M131.367,275.848a16.97,16.97,0,0,1-6.851-6.762,27.19,27.19,0,0,1-3.164-8.043,2.738,2.738,0,0,1,.69-2.924,2.152,2.152,0,0,1,3.484.706c.462,1.072.832,2.185,1.243,3.279l-1.134.192a19.085,19.085,0,0,0,4.673,9.789,3.451,3.451,0,0,1,1.1,2.885,7.308,7.308,0,0,0-.041.879" transform="translate(-103.121 -185.237)" fill="#e1bcbc"/><path d="M285.174,28.279a7.746,7.746,0,0,0-1.54.48c-2.053,1.138-4.076,2.329-6.111,3.5l-1.666-1.136-.228-.14q4.784-1.576,9.57-3.145a.873.873,0,0,1,.085.154l-.111.275Z" transform="translate(-211.961 -23.343)" fill="#f6cbcb"/><path d="M92.423,35.418c-.835-.807-1.676-1.608-2.5-2.426-.306-.3-.575-.645-.861-.969l5.554,1.933q-.023.18-.047.359c-.317.015-.7-.078-.938.068a9.108,9.108,0,0,0-1.208,1.035" transform="translate(-80.454 -26.292)" fill="#f2c8c8"/><path d="M325,174.942l-1.033,1.456-1.123-2.19,2.156.734" transform="translate(-245.24 -126.515)" fill="#e7e7e7"/><path d="M307.969,28.638l.111-.275-.111.275" transform="translate(-234.756 -23.712)" fill="#df7f7f"/><path d="M275.585,38.881l-.015-.364.018-.019.227.14-.23.243" transform="translate(-211.919 -30.856)" fill="#f6cbcb"/><path d="M166.421,138.039c5.267.141,9.6,3.59,10.432,8.509a8.726,8.726,0,0,1-2.485,7.687,11.212,11.212,0,0,1-16.17-.179c-4.772-5.307-2.161-13.436,4.98-15.431,1.053-.294,2.161-.4,3.243-.586m.247,16.036c.382-.059,1.044-.114,1.684-.267a6.4,6.4,0,0,0,5.085-5.786,6.225,6.225,0,0,0-4.7-5.953,7.5,7.5,0,0,0-7,1.162,5.657,5.657,0,0,0-.235,9.115,7.921,7.921,0,0,0,5.171,1.73" transform="translate(-127.48 -101.02)" fill="#040303"/><path d="M258.678,39.214l.23-.243,1.666,1.135,1,1.128c-1.4,1.692-2.732,3.4-4.175,5.008-2.507,2.794-2.742,5.86-1.314,9.192.2.468.375.948.584,1.479l-2.219,1.193-.945.364c-1.633-4.08-3.192-8.131-.313-12.236,1.7-2.429,3.652-4.686,5.49-7.02" transform="translate(-195.011 -31.19)" fill="#050303"/><path d="M98.581,40.856a9.108,9.108,0,0,1,1.208-1.035c.238-.145.62-.053.938-.068,1.679,2.08,3.4,4.129,5.027,6.247,3.281,4.267,2.013,8.595.151,12.993l-1.393-.541-1.627-.939c.43-1.645.859-3.258,1.273-4.875a3.887,3.887,0,0,0-.574-3.364c-1.62-2.213-3.317-4.369-4.992-6.541-.221-.287-.495-.533-.794-.852l.784-1.024" transform="translate(-86.611 -31.73)" fill="#040303"/><path d="M151.468,120.465a1.766,1.766,0,1,1-1.724,1.778,1.778,1.778,0,0,1,1.724-1.778" transform="translate(-123.228 -88.632)" fill="#0c0a0a"/><path d="M223.382,120.466a1.766,1.766,0,1,1-1.749,1.754,1.776,1.776,0,0,1,1.749-1.754" transform="translate(-173.9 -88.633)" fill="#0c0a0a"/><path d="M175.1,162.76a7.919,7.919,0,0,1-5.171-1.73,5.657,5.657,0,0,1,.235-9.115,7.5,7.5,0,0,1,7-1.162,6.225,6.225,0,0,1,4.7,5.953,6.4,6.4,0,0,1-5.085,5.786c-.639.153-1.3.208-1.684.267m-2.138-7h-1.623v3.421h1.623Zm5.314-.012h-1.644v3.432h1.644Z" transform="translate(-135.908 -109.706)" fill="#de7e7e"/><rect width="1.623" height="3.421" transform="translate(35.428 46.05)"/><rect width="1.644" height="3.432" transform="translate(40.721 46.038)"/></g></g></g></g></svg>