<svg xmlns="http://www.w3.org/2000/svg" width="113.195" height="113.5" viewBox="0 0 113.195 113.5"><path d="M0,42.784Q5.083,37.65,10.168,32.517c1.454-1.465,2.93-2.908,4.386-4.372.6-.6,1.209-1.08,2.136-.7a1.8,1.8,0,0,1,1.057,1.978c-.024,2.172-.008,4.346-.008,6.678h1.332a46.165,46.165,0,0,1,12.443,1.557c1.35.374,1.648.778,1.619,2.2a1.747,1.747,0,0,1-2.147,1.091,50.9,50.9,0,0,0-14.113-1.52c-1.964.006-2.449-.509-2.451-2.517q0-1.834,0-3.668l-.362-.153q-3.582,3.68-7.163,7.362c-.89.917-1.762,1.851-2.642,2.778,1.137,1.188,2.268,2.383,3.414,3.563,2.15,2.213,4.309,4.417,6.42,6.58.236-.137.29-.153.291-.171.017-1.328.027-2.657.045-3.985.021-1.567.628-2.261,2.141-2.13a84.514,84.514,0,0,1,9.758,1.067c10.059,2.067,17.855,7.387,22.747,16.624a4.281,4.281,0,0,0,.4.517v-6.77c.017-1.772.089-3.545.02-5.314a2.69,2.69,0,0,0-.672-1.619,38.927,38.927,0,0,0-9.658-7.317c-1.229-.666-1.433-1.184-1.113-2.519,1.017-.978,1.54-1.121,2.72-.364,2.934,1.882,5.819,3.84,8.669,5.731V17.719c-2.14,0-4.267-.015-6.394.007-.937.009-1.761-.1-2.169-1.118-.4-1,.2-1.59.811-2.206Q48.262,7.763,54.838,1.118C55.212.74,55.6.372,55.976,0H57.3q7.269,7.323,14.539,14.646a1.682,1.682,0,0,1,.559,1.976,1.751,1.751,0,0,1-1.848,1.1c-2.211-.014-4.422,0-6.711,0V47.508c9.044-8.026,19.723-11.426,31.7-11.427,0-2.245.015-4.413-.007-6.582-.009-.861.085-1.619.99-2.025.964-.432,1.6.068,2.234.7q6.739,6.726,13.492,13.438c1.264,1.26,1.264,2,0,3.257Q105.5,51.59,98.752,58.306c-.6.6-1.2,1.1-2.131.738-.973-.38-1.1-1.157-1.091-2.07.027-2.169.009-4.339.009-6.582a32.541,32.541,0,0,0-12,2.052c-9.853,3.813-16.58,10.587-18.954,21.066-.74,3.266-.6,6.737-.808,10.117-.077,1.25-.422,2.76.129,3.692.5.837,2.067,1.013,3.133,1.54s2.092,1.079,3.1,1.691c1.332.813,1.453,1.278.878,2.744a1.918,1.918,0,0,1-2.664.064,18.387,18.387,0,0,0-8.633-3.205l-.045,0-.589-.118A21.5,21.5,0,0,0,49.23,91.31c-8.688,3.154-14.61,11.61-14.259,20.413a1.772,1.772,0,0,1-1.785,1.594c-1.17-.16-1.572-.879-1.576-2.005A25,25,0,0,1,48.318,88.046a1.5,1.5,0,0,0,1.215-1.789c-.231-3.863.039-7.811-.664-11.58C46.79,63.53,39.919,56.3,29.48,52.337a32.648,32.648,0,0,0-11.74-1.95c0,1.283,0,2.526,0,3.768a23.156,23.156,0,0,1-.05,3.318,2.209,2.209,0,0,1-1.022,1.484c-.433.207-1.144-.086-1.7-.256-.25-.076-.43-.39-.639-.6Q8.087,51.894,1.853,45.679C1.209,45.036.616,44.342,0,43.671v-.887M108.863,43,98.856,33.025v3.052c0,3.153-.185,3.2-3.273,3.4a85.71,85.71,0,0,0-10.515,1.147A38.162,38.162,0,0,0,64.527,51.5a2.387,2.387,0,0,0-.728,1.379c-.072,1.8-.006,3.612.008,5.419v6.915c.106-.039.152-.041.165-.063.15-.251.3-.5.439-.758A31,31,0,0,1,80.375,50.116a44.075,44.075,0,0,1,15.944-3.034c1.992-.043,2.533.441,2.537,2.4,0,1.263,0,2.527,0,3.79l.341.174q4.822-4.933,9.632-9.877c.1-.1.027-.379.034-.574M56.651,86.523l3.793.294V74.707q0-28.953,0-57.9c0-1.935.479-2.409,2.416-2.412,1.267,0,2.533,0,3.988,0-.292-.328-.425-.494-.574-.644q-4.513-4.559-9.034-9.111a4.365,4.365,0,0,0-.6-.431,2.243,2.243,0,0,0-.443.275q-4.68,4.708-9.346,9.431a3.333,3.333,0,0,0-.317.48H50.2c2.237,0,2.635.4,2.635,2.639q0,34.223,0,68.446v1.348l3.817-.3" fill="#040403"/><path d="M256.479,343.795l-1.343-1.781a20.734,20.734,0,0,0-3.576-12.057,1.98,1.98,0,0,1,.062-2.77c1.333-.483,1.876-.34,2.621.776a24.6,24.6,0,0,1,4.226,12.9c.084,2.1.018,2.164-1.77,2.935Z" transform="translate(-176.83 -230.295)" fill="#040404"/><path d="M322.02,369.927c-.987-.869-1.606-3.981-.872-5.065a1.981,1.981,0,0,1,1.5-.835,1.94,1.94,0,0,1,1.425,1.09,13.813,13.813,0,0,1,.117,3.623c-.03.414-.545.792-.839,1.186Z" transform="translate(-225.998 -256.427)" fill="#060606"/><path d="M217.112,311.752a1.979,1.979,0,0,0-.062,2.77,20.736,20.736,0,0,1,3.576,12.058l-4.833-.02c-.145-1.275-.244-2.557-.443-3.823a22.989,22.989,0,0,0-10.33-15.887c-.963-.659-1.988-1.226-2.984-1.836a18.386,18.386,0,0,1,8.633,3.205,1.918,1.918,0,0,0,2.664-.064l3.78,3.6" transform="translate(-142.319 -214.859)" fill="#98e4f9"/><path d="M262.874,260.378a1.675,1.675,0,0,1-2.362,1.62,18.613,18.613,0,0,1-2.573-1.7,1.487,1.487,0,0,1-.391-1.988c.357-.705,1.052-1.166,1.716-.838a23.369,23.369,0,0,1,3.289,2.153c.223.162.256.588.321.753" transform="translate(-181.272 -181.295)" fill="#070707"/><path d="M303.785,302.965c1.421.037,3.372,3.534,2.669,4.782a1.6,1.6,0,0,1-2.746.09,14.687,14.687,0,0,1-1.473-2.576,1.629,1.629,0,0,1,1.551-2.3" transform="translate(-212.799 -213.416)" fill="#060606"/><path d="M234.094,246.077c0,1.43-.959,2.23-2.042,1.943a16.033,16.033,0,0,1-2.877-1.077,1.438,1.438,0,0,1-.729-1.962,1.465,1.465,0,0,1,1.813-1.06,14.427,14.427,0,0,1,2.983,1.108c.446.23.694.843.852,1.048" transform="translate(-160.828 -171.784)" fill="#060606"/><path d="M319.238,336.078c-.057,1.155-.439,1.742-1.272,1.905a1.534,1.534,0,0,1-1.88-.976,17.2,17.2,0,0,1-.837-2.963,1.516,1.516,0,0,1,1.155-1.776,1.427,1.427,0,0,1,1.869.755,30.06,30.06,0,0,1,.965,3.055" transform="translate(-222.05 -233.992)" fill="#050505"/><path d="M287.76,281.282c-.032,1.288-1.394,2.175-2.338,1.456a11.615,11.615,0,0,1-2.53-2.718,1.919,1.919,0,0,1,.3-1.754c.309-.365,1.344-.638,1.618-.413a28.806,28.806,0,0,1,2.873,2.967c.1.112.059.355.074.462" transform="translate(-199.199 -195.67)" fill="#060606"/><path d="M141.089,245.4a4.41,4.41,0,0,1-1.058,1.164,12.388,12.388,0,0,1-2.463.937,1.651,1.651,0,1,1-1.148-3.092,19.953,19.953,0,0,1,2.592-.916c1.087-.284,2.045.473,2.077,1.908" transform="translate(-95.293 -171.481)" fill="#050505"/><path d="M112.6,258.613c-.028,1.3-3.272,3.456-4.466,2.964-.94-.388-1.459-1.7-.739-2.36a12.151,12.151,0,0,1,3.351-2.208c.931-.4,1.876.563,1.854,1.6" transform="translate(-75.413 -180.978)" fill="#060606"/><path d="M85.28,282.079a1.624,1.624,0,0,1-1.473-2.462,14.953,14.953,0,0,1,2.308-2.507,1.282,1.282,0,0,1,1.891.126c.354.449.707,1.392.484,1.715a24.5,24.5,0,0,1-2.7,2.984c-.129.133-.41.119-.513.145" transform="translate(-58.85 -194.953)" fill="#060606"/><path d="M56.525,331.556c1.31.04,2.141.944,1.959,1.881a19.979,19.979,0,0,1-.8,2.863,1.578,1.578,0,0,1-1.916,1.089,1.529,1.529,0,0,1-1.215-1.919,12.124,12.124,0,0,1,.817-2.85c.24-.514.894-.834,1.159-1.064" transform="translate(-38.399 -233.557)" fill="#070707"/><path d="M50.706,366.467a14.545,14.545,0,0,1,.095-1.815,1.557,1.557,0,0,1,1.708-1.4,1.524,1.524,0,0,1,1.555,1.555A21.46,21.46,0,0,1,54,367.575a1.65,1.65,0,1,1-3.3-.16c-.013-.405,0-.811,0-.947" transform="translate(-35.716 -255.885)" fill="#070707"/><path d="M70.7,304.408a35.122,35.122,0,0,1-2.417,3.56,1.712,1.712,0,0,1-1.664.01,1.919,1.919,0,0,1-.69-1.64,10.9,10.9,0,0,1,1.733-3.147,1.927,1.927,0,0,1,1.751-.29c.494.184.793.892,1.287,1.506" transform="translate(-46.419 -213.31)" fill="#050505"/><path d="M48.183,120.621c-.32,1.335-.116,1.853,1.113,2.519a38.936,38.936,0,0,1,9.658,7.317,2.69,2.69,0,0,1,.672,1.619c.069,1.768,0,3.542-.02,5.314a32.023,32.023,0,0,0-13.742-11.569,46.183,46.183,0,0,0-17.548-3.692c-4.635-.153-9.28-.034-13.92-.037.88-.926,1.752-1.86,2.642-2.778q3.575-3.686,7.163-7.361l.362.153q0,1.834,0,3.668c0,2.008.487,2.523,2.451,2.517a50.908,50.908,0,0,1,14.113,1.52,1.747,1.747,0,0,0,2.147-1.09l4.909,1.9" transform="translate(-10.141 -78.863)" fill="#fbd102"/><path d="M143.027,304.439c1,.61,2.021,1.177,2.984,1.836a22.989,22.989,0,0,1,10.33,15.887c.2,1.266.3,2.548.443,3.823l-38.5.023c-.351-8.8,5.571-17.259,14.259-20.413a21.5,21.5,0,0,1,9.852-1.272l.589.118Z" transform="translate(-83.311 -214.285)" fill="#c7eefd"/><path d="M167.554,96.544l-3.817.3V95.5q0-34.223,0-68.446c0-2.239-.4-2.638-2.635-2.639h-3.665a3.332,3.332,0,0,1,.317-.48q4.667-4.721,9.346-9.431a2.243,2.243,0,0,1,.443-.275q.006,41.159.011,82.319" transform="translate(-110.903 -10.02)" fill="#baf39a"/><path d="M191.639,96.544q-.005-41.159-.011-82.319a4.365,4.365,0,0,1,.6.431q4.524,4.549,9.034,9.111c.149.15.282.315.574.644-1.455,0-2.722,0-3.988,0-1.938,0-2.416.477-2.416,2.412q0,28.952,0,57.9V96.838l-3.793-.294" transform="translate(-134.988 -10.02)" fill="#9ae59c"/><path d="M14.395,146.158c4.64,0,9.285-.116,13.92.037a46.183,46.183,0,0,1,17.548,3.692,32.025,32.025,0,0,1,13.743,11.569v6.77a4.344,4.344,0,0,1-.4-.517c-4.892-9.238-12.687-14.557-22.746-16.625a84.575,84.575,0,0,0-9.758-1.067c-1.514-.131-2.121.564-2.141,2.13-.018,1.328-.027,2.657-.045,3.985,0,.017-.055.034-.291.17-2.111-2.163-4.27-4.367-6.42-6.58-1.146-1.18-2.276-2.375-3.414-3.563" transform="translate(-10.14 -102.929)" fill="#fae158"/><path d="M260.932,145.465c-.008.2.066.47-.035.574q-4.8,4.954-9.632,9.877l-.342-.174c0-1.263,0-2.527,0-3.79,0-1.961-.545-2.445-2.537-2.4a44.083,44.083,0,0,0-15.943,3.035,31,31,0,0,0-15.964,14.279c-.14.257-.289.508-.438.758-.013.022-.06.024-.165.063V160.77a2.079,2.079,0,0,0,.4-.336,32.372,32.372,0,0,1,14.9-11.628,50.151,50.151,0,0,1,17.994-3.1c3.539-.024,7.077,0,10.616-.015a6.069,6.069,0,0,0,1.143-.223" transform="translate(-152.069 -102.469)" fill="#fa91d0"/><path d="M260.833,121.7a6.06,6.06,0,0,1-1.142.223c-3.538.017-7.077-.009-10.616.015a50.15,50.15,0,0,0-17.994,3.1,32.371,32.371,0,0,0-14.9,11.628,2.071,2.071,0,0,1-.4.336c-.014-1.807-.08-3.616-.008-5.419a2.386,2.386,0,0,1,.728-1.379,38.157,38.157,0,0,1,20.541-10.878,85.653,85.653,0,0,1,10.515-1.147c3.088-.2,3.273-.248,3.273-3.4v-3.052l10.007,9.971" transform="translate(-151.97 -78.707)" fill="#fbacde"/><path d="M200.48,304.742l-.589-.118.589.118" transform="translate(-140.809 -214.585)" fill="#98e4f9"/></svg>