<svg xmlns="http://www.w3.org/2000/svg" width="114.84" height="115.08" viewBox="0 0 114.84 115.08"><g transform="translate(-11.976 -11.999)"><g transform="translate(11.976 11.999)"><path d="M47.205,125.612l-3.89.033c-.031-.621-.062-1.243-.1-1.972h-19V23.99c3.391,0,6.7-.021,10,.027a2,2,0,0,1,1.2.6c1.971,1.922,3.937,3.853,5.835,5.847A3.722,3.722,0,0,0,44.2,31.684q23.683-.05,47.366-.022h1.5v5.793h1.89l.014,4.231L89.24,45.021l-.473-1.475-.729-3.784-9.308,2.2L32.987,52.787c-2.223.526-2.637,1.175-2.119,3.37q6.13,26,12.265,52c1.37,5.816,2.716,11.638,4.072,17.457" transform="translate(-20.305 -20.154)" fill="#ebad49"/><path d="M111.4,85.179l.472,1.475a17.711,17.711,0,0,0-2.066,1.8c-1.978,2.329-3.884,4.718-5.818,7.085.031-.64-.277-.688-.818-.548-1.818.47-3.647.9-5.471,1.342L97.1,94.513c-.166.024-.319.035-.466.069q-15.045,3.549-30.088,7.108c-1.5.356-1.98,1.2-1.615,2.764q1.651,7.105,3.347,14.2c.365,1.53,1.178,2.028,2.713,1.672q6.453-1.5,12.9-3.024,6.5-1.534,13.014-3.091l-.32-2.053,3.764-.738c.063.433.134.866.189,1.3,1.312,10.441,6.682,18.044,15.983,22.869,1.242.644,2.58,1.1,3.874,1.649-1.712,3.686-.9,6.4,2.422,8.422a1.238,1.238,0,0,1,.491.9c.019,4.908,0,9.815-.013,14.723l-3.755.722-.536-1.78L74.646,170.722,57.481,97.932C63.09,96.6,68.544,95.308,74,94.018q18.7-4.421,37.4-8.839m4.966,53.969-40.976,9.708.9,3.726,40.949-9.7c-.3-1.288-.567-2.44-.87-3.738m-7.911-2.065-.905-3.728-33.921,8.037.9,3.728,33.925-8.037m2.21,11.3-33.526,7.944.922,3.722,33.494-7.932-.89-3.733m-8.851-21.546-29.948,7.095.893,3.729,29.951-7.094-.9-3.729m-19.646.721,16.719-3.976-.909-3.719L81.3,123.811l.867,3.742m-7.449,1.739,3.733-.876-.917-3.724-3.7.907.884,3.693" transform="translate(-42.935 -61.786)" fill="#c9d9e1"/><path d="M86.633,29.3h-1.89V23.507h-1.5q-23.683,0-47.366.022a3.724,3.724,0,0,1-2.949-1.224c-1.9-1.994-3.863-3.925-5.835-5.847a1.993,1.993,0,0,0-1.2-.6c-3.306-.048-6.612-.027-10-.027v99.682h19c.036.729.067,1.351.1,1.972v1.85c-.379.025-.686.062-.993.062q-9.747.005-19.493,0c-1.883,0-2.522-.631-2.522-2.5q0-51.225,0-102.449c0-1.806.646-2.458,2.438-2.458q35.817,0,71.635,0c1.863,0,2.492.639,2.494,2.525,0,4.868,0,9.736,0,14.688l-1.912.087m-2-9.629V15.91H60.685c1.226,1.219,2.3,2.333,3.431,3.375a1.872,1.872,0,0,0,1.164.37c3.144.029,6.289.016,9.433.016Zm-38.933,0c-1.321-1.3-2.388-2.362-3.482-3.4a1.359,1.359,0,0,0-.792-.416c-3.08-.029-6.16-.019-9.574-.019,1.351,1.33,2.464,2.443,3.6,3.528a1.166,1.166,0,0,0,.728.292c3.051.02,6.1.013,9.515.013m13.392,0c-1.339-1.321-2.457-2.431-3.586-3.529a.867.867,0,0,0-.492-.286c-2.517-.018-5.035-.012-7.828-.012,1.3,1.279,2.365,2.346,3.457,3.387a1.363,1.363,0,0,0,.788.422c2.448.032,4.9.019,7.662.019" transform="translate(-11.976 -11.999)"/><path d="M195.2,86.571c1.934-2.366,3.84-4.756,5.817-7.085a17.713,17.713,0,0,1,2.066-1.8l5.738-3.335A31.451,31.451,0,0,1,221.394,72c13.148.312,24.939,10.734,27.177,23.7a29.035,29.035,0,0,1-19.623,32.518,6.325,6.325,0,0,1,.738,4.585,5.4,5.4,0,0,1-2.836,3.657,1.351,1.351,0,0,0-.833,1.467q.035,12.1.006,24.208a5.741,5.741,0,1,1-11.481-.119c0-3.235-.019-6.47-.03-9.705.011-4.907.032-9.815.012-14.723a1.237,1.237,0,0,0-.491-.9c-3.322-2.024-4.134-4.736-2.422-8.422-1.294-.545-2.632-1-3.874-1.649-9.3-4.825-14.67-12.429-15.982-22.869-.055-.434-.126-.867-.189-1.3a29.929,29.929,0,0,1,2.808-14.042c.291-.6.551-1.223.826-1.835m26.963,52.557v-1.846h-3.748v19.024h3.748ZM220.289,125.7A24.982,24.982,0,0,0,245.171,101c.07-13.75-11.015-25.125-24.526-25.166a24.933,24.933,0,1,0-.356,49.864m.034,7.671c1.232,0,2.464.027,3.695-.008a1.911,1.911,0,1,0-.011-3.816q-3.694-.045-7.389,0a1.916,1.916,0,1,0,.011,3.821c1.231.028,2.463.006,3.694.005m-1.949,26.905c.084,1.36-.444,2.83,1.061,3.5a2.38,2.38,0,0,0,1.966-.16c1.248-.825.734-2.16.758-3.344Z" transform="translate(-134.149 -52.815)" fill="#010202"/><path d="M102.493,77.125,65.1,85.964c-5.456,1.29-10.91,2.585-16.519,3.915l17.165,72.789L110.1,152.174l.536,1.78.348,1.874-2.32.707-11.223,2.652c-4.33,1-8.663,1.981-12.988,2.995q-9.678,2.268-19.348,4.569a1.966,1.966,0,0,1-2.728-1.666c-.5-1.96-.968-3.929-1.45-5.894q-2.034-8.729-4.072-17.457-6.125-26-12.265-52c-.518-2.2-.1-2.845,2.119-3.37l45.744-10.82,9.308-2.2.729,3.783" transform="translate(-34.031 -53.733)" fill="#040303"/><path d="M210.354,336.249l11.223-2.652c0,.835,0,1.67,0,2.652Z" transform="translate(-146.94 -230.795)" fill="#e6aa47"/><path d="M128.51,116.3c-.275.612-.535,1.231-.826,1.835a29.932,29.932,0,0,0-2.808,14.042l-3.764.738-.584-1.672L96.169,137l-2.641-11.188,28.974-6.861-.281-1.864c1.825-.444,3.653-.871,5.471-1.342.541-.14.849-.091.818.548" transform="translate(-67.459 -82.539)" fill="#798999"/><path d="M113.313,116.2l.281,1.864L84.62,124.927l2.641,11.188,24.36-5.763.584,1.672.319,2.053c-4.353,1.034-8.682,2.069-13.013,3.091q-6.447,1.522-12.9,3.024c-1.536.356-2.349-.142-2.714-1.672q-1.691-7.1-3.347-14.2c-.365-1.569.114-2.408,1.615-2.764q15.039-3.572,30.087-7.108c.147-.035.3-.045.466-.069l.593,1.823" transform="translate(-58.551 -81.653)" fill="#030303"/><path d="M154.473,254.011l.87,3.738-40.949,9.7-.9-3.726,40.976-9.708" transform="translate(-81.045 -176.649)" fill="#040404"/><path d="M142.814,239.617l-33.925,8.037-.9-3.729,33.921-8.037.905,3.728" transform="translate(-77.297 -164.32)" fill="#040404"/><path d="M152.5,282.889l.89,3.733-33.494,7.932-.922-3.722,33.526-7.944" transform="translate(-84.768 -196.296)" fill="#040404"/><path d="M132.421,215.484l.9,3.729-29.951,7.094-.893-3.729,29.948-7.1" transform="translate(-73.545 -150.438)" fill="#040404"/><path d="M132.856,201.36l-.867-3.742,16.676-3.953.909,3.72-16.719,3.976" transform="translate(-93.626 -135.594)" fill="#040405"/><path d="M109.516,213.39l-.884-3.693,3.7-.907.917,3.724-3.733.876" transform="translate(-77.735 -145.884)" fill="#050606"/><path d="M188.3,27.994h-9.92c-3.144,0-6.289.013-9.433-.016a1.871,1.871,0,0,1-1.164-.37c-1.136-1.041-2.205-2.156-3.431-3.375H188.3Z" transform="translate(-115.645 -20.322)" fill="#d6e5ea"/><path d="M88.009,27.835c-3.412,0-6.464.007-9.515-.013a1.164,1.164,0,0,1-.728-.293c-1.141-1.085-2.254-2.2-3.6-3.529,3.413,0,6.494-.01,9.574.019a1.358,1.358,0,0,1,.792.416c1.094,1.038,2.161,2.1,3.482,3.4" transform="translate(-54.283 -20.163)" fill="#b3c1c8"/><path d="M134.035,27.848c-2.766,0-5.214.014-7.662-.019a1.363,1.363,0,0,1-.788-.422c-1.092-1.04-2.158-2.108-3.457-3.387,2.794,0,5.311-.005,7.828.012a.867.867,0,0,1,.492.286c1.129,1.1,2.247,2.208,3.586,3.529" transform="translate(-86.917 -20.177)" fill="#cbdbe2"/><path d="M228.493,133.869A24.933,24.933,0,1,1,228.85,84c13.51.042,24.6,11.416,24.526,25.166a24.982,24.982,0,0,1-24.882,24.7m21.055-24.935a21.056,21.056,0,1,0-21.2,21.093,21.12,21.12,0,0,0,21.2-21.093" transform="translate(-142.353 -60.987)" fill="#0090b7"/><path d="M279.336,282.013v17.178h-3.748V282.013h3.748" transform="translate(-191.322 -195.7)" fill="#ebad49"/><path d="M269.279,255.81c-1.232,0-2.464.023-3.695-.005a1.916,1.916,0,1,1-.011-3.821q3.694-.037,7.389,0a1.911,1.911,0,1,1,.011,3.816c-1.23.035-2.463.008-3.694.008" transform="translate(-183.104 -175.257)" fill="#cc8928"/><path d="M275.41,348.163h3.784c-.024,1.185.49,2.519-.758,3.344a2.38,2.38,0,0,1-1.966.16c-1.5-.675-.976-2.145-1.061-3.5" transform="translate(-191.184 -240.705)" fill="#cb8728"/><path d="M279.336,278.083h-3.748v-1.846h3.748Z" transform="translate(-191.322 -191.771)" fill="#d6a045"/><path d="M257.694,117.1a21.055,21.055,0,1,1-20.849-21.093A21.09,21.09,0,0,1,257.694,117.1m-38.28-.031A17.225,17.225,0,1,0,236.85,99.842a17.271,17.271,0,0,0-17.436,17.226" transform="translate(-150.498 -69.152)" fill="#010303"/><path d="M227.567,125.231A17.225,17.225,0,1,1,244.7,142.525a17.262,17.262,0,0,1-17.131-17.294" transform="translate(-158.651 -77.316)" fill="#7ecae3"/></g></g></svg>