<svg xmlns="http://www.w3.org/2000/svg" xmlns:xlink="http://www.w3.org/1999/xlink" width="580.409" height="354.426" viewBox="0 0 580.409 354.426"><defs><clipPath id="a"><rect width="580.409" height="354.426" transform="translate(0 -26.957)" fill="none"/></clipPath><clipPath id="b"><rect width="580.409" height="327.469" fill="none"/></clipPath><clipPath id="d"><rect width="37.731" height="45.615" fill="none"/></clipPath><clipPath id="e"><rect width="18.848" height="39.985" fill="none"/></clipPath><clipPath id="f"><rect width="25.879" height="45.704" fill="none"/></clipPath><clipPath id="g"><rect width="18.829" height="30.564" fill="none"/></clipPath><clipPath id="h"><rect width="19.499" height="35.126" fill="none"/></clipPath><clipPath id="i"><rect width="28.762" height="12.747" fill="none"/></clipPath><clipPath id="j"><rect width="27.326" height="13.573" fill="none"/></clipPath></defs><g transform="translate(0 24.4)"><g transform="translate(0 2.557)"><g clip-path="url(#a)"><path d="M561.7,157.119H678.94l-19.1,13.675v26.9a5.64,5.64,0,0,1-5.662,5.619H561.7a5.64,5.64,0,0,1-5.662-5.619V162.737a5.64,5.64,0,0,1,5.662-5.618" transform="translate(-98.531 -28.843)" fill="#f5f5f5"/><path d="M568.86,180.362c0,.112,17.683.2,39.49.2s39.494-.091,39.494-.2-17.679-.2-39.494-.2-39.49.091-39.49.2" transform="translate(-100.803 -33.073)" fill="#e0e0e0"/><path d="M568.86,193.015c0,.112,17.683.2,39.49.2s39.494-.091,39.494-.2-17.679-.2-39.494-.2-39.49.091-39.49.2" transform="translate(-100.803 -35.396)" fill="#e0e0e0"/><rect width="5.486" height="18.236" transform="translate(279.616 28.999)" fill="#e0e0e0"/><rect width="5.486" height="20.878" transform="translate(233.789 26.357)" fill="#e0e0e0"/><rect width="5.486" height="25.23" transform="translate(245.246 22.005)" fill="#e0e0e0"/><rect width="5.486" height="23.846" transform="translate(256.703 23.389)" fill="#e0e0e0"/><rect width="5.486" height="31.913" transform="translate(268.16 15.322)" fill="#e0e0e0"/><rect width="5.486" height="31.758" transform="translate(291.074 15.477)" fill="#e0e0e0"/><rect width="5.486" height="21.327" transform="translate(302.53 25.908)" fill="#e0e0e0"/><rect width="5.486" height="30.359" transform="translate(313.987 16.876)" fill="#e0e0e0"/><rect width="5.486" height="37.198" transform="translate(325.445 10.037)" fill="#e0e0e0"/><rect width="5.486" height="30.515" transform="translate(336.901 16.721)" fill="#e0e0e0"/><path d="M581.942,45.544l45.374-6.879c3.8,24.7-13.55,48.127-38.441,51.9s-48.5-13.445-52.306-38.143S550.117,4.3,575.009.522A46.249,46.249,0,0,1,586.981.275Z" transform="translate(-94.988 0)" fill="#ebebeb"/><path d="M608.533.513l-5.509,34.9,34.525-6.433S632.472,9.42,608.533.513" transform="translate(-106.857 -0.094)" fill="#e0e0e0"/><path d="M28.746,154.36A22.5,22.5,0,1,1,51.6,176.424,22.486,22.486,0,0,1,28.746,154.36M62,153.828a10.757,10.757,0,1,0-10.583,10.894A10.754,10.754,0,0,0,62,153.828" transform="translate(-5.093 -24.154)" fill="#f5f5f5"/><path d="M28.746,154.361A22.485,22.485,0,0,1,50.88,131.577l.189,11.7a10.723,10.723,0,1,0,.346,21.443l.188,11.7a22.49,22.49,0,0,1-22.857-22.063" transform="translate(-5.093 -24.154)" fill="#e0e0e0"/><path d="M53.193,129.371a25.612,25.612,0,0,1,26.32,25.408L65.78,155c-.112-6.916-5.416-11.271-12.354-11.16Z" transform="translate(-9.426 -23.749)" fill="#ebebeb"/><rect width="28.596" height="33.733" transform="translate(141.218 208.943)" fill="#f5f5f5"/><rect width="129.234" height="38.054" transform="translate(12.97 206.744)" fill="#e0e0e0"/><path d="M200.56,256.431H168.618v-3.2H200.56a1.6,1.6,0,1,1,0,3.2" transform="translate(-29.879 -46.487)" fill="#e0e0e0"/><path d="M200.56,299.121H168.618v-3.2H200.56a1.6,1.6,0,1,1,0,3.2" transform="translate(-29.879 -54.324)" fill="#e0e0e0"/><rect width="15.268" height="38.054" transform="translate(116.774 206.744)" fill="#ebebeb"/><rect width="15.269" height="38.054" transform="translate(25.26 207.165)" fill="#ebebeb"/><path d="M200.433,262.721c0,.093-6.189.168-13.822.168s-13.823-.075-13.823-.168,6.187-.168,13.823-.168,13.822.075,13.822.168" transform="translate(-30.618 -48.198)" fill="#e0e0e0"/><path d="M200.433,268.917c0,.093-6.189.168-13.822.168s-13.823-.075-13.823-.168,6.187-.168,13.823-.168,13.822.075,13.822.168" transform="translate(-30.618 -49.336)" fill="#e0e0e0"/><path d="M200.433,276.546c0,.093-6.189.168-13.822.168s-13.823-.075-13.823-.168,6.187-.169,13.823-.169,13.822.076,13.822.169" transform="translate(-30.618 -50.736)" fill="#e0e0e0"/><path d="M200.433,284.175c0,.093-6.189.168-13.822.168s-13.823-.075-13.823-.168,6.187-.168,13.823-.168,13.822.075,13.822.168" transform="translate(-30.618 -52.137)" fill="#e0e0e0"/><path d="M200.433,291.8c0,.093-6.189.168-13.822.168s-13.823-.075-13.823-.168,6.187-.168,13.823-.168,13.822.075,13.822.168" transform="translate(-30.618 -53.537)" fill="#e0e0e0"/><rect width="58.141" height="6.852" transform="translate(50.425 222.383)" fill="#ebebeb"/><rect width="29.035" height="20.554" transform="translate(140.489 245.543)" fill="#fafafa"/><rect width="123.564" height="22.046" transform="translate(17.249 244.797)" fill="#f5f5f5"/><path d="M170.048,301.333h31.208a.746.746,0,1,0,0-1.492H170.048Z" transform="translate(-30.133 -55.044)" fill="#f5f5f5"/><path d="M170.048,326.509h31.614a.343.343,0,0,0,.345-.342v-.807a.343.343,0,0,0-.345-.342H170.048Z" transform="translate(-30.133 -59.665)" fill="#f5f5f5"/><path d="M199.85,305.5c0,.093-6.428.169-14.355.169s-14.355-.076-14.355-.169,6.426-.168,14.355-.168,14.355.075,14.355.168" transform="translate(-30.326 -56.051)" fill="#e0e0e0"/><path d="M199.85,310.262c0,.093-6.428.169-14.355.169s-14.355-.076-14.355-.169,6.426-.168,14.355-.168,14.355.075,14.355.168" transform="translate(-30.326 -56.926)" fill="#e0e0e0"/><path d="M199.85,315.025c0,.093-6.428.168-14.355.168s-14.355-.075-14.355-.168,6.426-.168,14.355-.168,14.355.075,14.355.168" transform="translate(-30.326 -57.8)" fill="#e0e0e0"/><path d="M199.85,319.788c0,.093-6.428.168-14.355.168s-14.355-.075-14.355-.168,6.426-.168,14.355-.168,14.355.075,14.355.168" transform="translate(-30.326 -58.675)" fill="#e0e0e0"/><rect width="29.636" height="55.718" transform="translate(144.292 268.803)" fill="#ebebeb"/><rect width="139.11" height="60.414" transform="translate(5.182 266.843)" fill="#e0e0e0"/><path d="M206.5,399.961H170.745v-3.918H206.5a1.959,1.959,0,1,1,0,3.918" transform="translate(-30.256 -72.704)" fill="#e0e0e0"/><path d="M207.573,330.762H170.746v-3.918h36.827a.9.9,0,0,1,.906.9v2.12a.9.9,0,0,1-.906.9" transform="translate(-30.257 -60.001)" fill="#e0e0e0"/><path d="M205,338.354c0,.093-6.635.168-14.817.168s-14.819-.075-14.819-.168,6.633-.168,14.819-.168,14.817.075,14.817.168" transform="translate(-31.076 -62.083)" fill="#e0e0e0"/><path d="M205,347.107c0,.093-6.635.168-14.817.168s-14.819-.075-14.819-.168,6.633-.168,14.819-.168,14.817.075,14.817.168" transform="translate(-31.076 -63.69)" fill="#e0e0e0"/><path d="M205,355.86c0,.093-6.635.168-14.817.168s-14.819-.075-14.819-.168,6.633-.168,14.819-.168,14.817.075,14.817.168" transform="translate(-31.076 -65.297)" fill="#e0e0e0"/><path d="M205,364.613c0,.093-6.635.169-14.817.169s-14.819-.076-14.819-.169,6.633-.168,14.819-.168,14.817.075,14.817.168" transform="translate(-31.076 -66.903)" fill="#e0e0e0"/><path d="M205,373.366c0,.093-6.635.168-14.817.168s-14.819-.075-14.819-.168,6.633-.168,14.819-.168,14.817.075,14.817.168" transform="translate(-31.076 -68.51)" fill="#e0e0e0"/><path d="M205,382.12c0,.093-6.635.168-14.817.168s-14.819-.075-14.819-.168,6.633-.168,14.819-.168,14.817.075,14.817.168" transform="translate(-31.076 -70.117)" fill="#e0e0e0"/><path d="M205,390.873c0,.093-6.635.168-14.817.168s-14.819-.075-14.819-.168,6.633-.168,14.819-.168,14.817.075,14.817.168" transform="translate(-31.076 -71.724)" fill="#e0e0e0"/><path d="M61.578,364.259v3.361c0,4.049-2.04,6.362-5.974,6.362s-5.974-2.313-5.974-6.362V354.464c0-4.048,2.04-6.362,5.974-6.362s5.974,2.314,5.974,6.362v2.458H57.79V354.21c0-1.807-.8-2.493-2.077-2.493s-2.076.687-2.076,2.493v13.663c0,1.808.8,2.458,2.076,2.458s2.077-.651,2.077-2.458v-3.614Z" transform="translate(-8.795 -63.903)" fill="#ebebeb"/><path d="M66.715,354.464c0-4.049,2.149-6.362,6.083-6.362s6.084,2.313,6.084,6.362V367.62c0,4.049-2.149,6.362-6.084,6.362s-6.083-2.313-6.083-6.362Zm4.007,13.41c0,1.808.8,2.494,2.076,2.494s2.077-.687,2.077-2.494V354.21c0-1.808-.8-2.494-2.077-2.494s-2.076.687-2.076,2.494Z" transform="translate(-11.822 -63.903)" fill="#ebebeb"/><path d="M84.642,348.457h4.007v21.687h6.593v3.614h-10.6Z" transform="translate(-14.999 -63.968)" fill="#ebebeb"/><path d="M99.248,354.464c0-4.049,2.149-6.362,6.084-6.362s6.083,2.313,6.083,6.362V367.62c0,4.049-2.149,6.362-6.083,6.362s-6.084-2.313-6.084-6.362Zm4.007,13.41c0,1.808.8,2.494,2.077,2.494s2.076-.687,2.076-2.494V354.21c0-1.808-.8-2.494-2.076-2.494s-2.077.687-2.077,2.494Z" transform="translate(-17.587 -63.903)" fill="#ebebeb"/><path d="M120.961,348.457v19.518c0,1.808.8,2.458,2.077,2.458s2.076-.651,2.076-2.458V348.457H128.9v19.265c0,4.049-2.041,6.362-5.974,6.362s-5.974-2.313-5.974-6.362V348.457Z" transform="translate(-20.725 -63.968)" fill="#ebebeb"/><path d="M143.171,373.759a7.72,7.72,0,0,1-.365-3.109v-3.976c0-2.35-.8-3.217-2.623-3.217H138.8v10.3h-4.007v-25.3h6.047c4.153,0,5.938,1.915,5.938,5.819v1.988c0,2.6-.838,4.3-2.623,5.132,2,.832,2.659,2.747,2.659,5.386v3.9a7.4,7.4,0,0,0,.437,3.073ZM138.8,352.071v7.772h1.567c1.493,0,2.4-.651,2.4-2.675v-2.493c0-1.808-.62-2.6-2.041-2.6Z" transform="translate(-23.885 -63.968)" fill="#ebebeb"/><path d="M62.469,310.307H59.546l.154-.751h6.707l-.165.751h-2.91l-1.5,7.465h-.863Z" transform="translate(-10.552 -56.827)" fill="#e0e0e0"/><path d="M72.944,312.057,68.4,319.03c-.768,1.174-1.349,1.537-2.247,1.537a2.025,2.025,0,0,1-1.479-.551l.449-.61a1.459,1.459,0,0,0,1.1.446c.532,0,.946-.247,1.432-1l.438-.656-1.55-6.14H67.4l1.289,5.259,3.395-5.259Z" transform="translate(-11.461 -57.286)" fill="#e0e0e0"/><path d="M81.528,314.606A3.491,3.491,0,0,1,78,318.279a2.33,2.33,0,0,1-2.366-1.35l-.709,3.569h-.841l1.692-8.452h.8l-.2.986A3.162,3.162,0,0,1,78.808,312a2.506,2.506,0,0,1,2.72,2.605m-.852.047a1.816,1.816,0,0,0-2.047-1.925,2.7,2.7,0,0,0-2.685,2.9,1.808,1.808,0,0,0,2.046,1.915,2.7,2.7,0,0,0,2.686-2.887" transform="translate(-13.128 -57.276)" fill="#e0e0e0"/><path d="M84.32,315.663a3.516,3.516,0,0,1,3.6-3.662,2.539,2.539,0,0,1,2.827,2.605,3.519,3.519,0,0,1-3.6,3.673,2.554,2.554,0,0,1-2.827-2.617m5.584-1.009a1.816,1.816,0,0,0-2.046-1.925,2.719,2.719,0,0,0-2.7,2.9,1.808,1.808,0,0,0,2.046,1.915,2.709,2.709,0,0,0,2.7-2.887" transform="translate(-14.942 -57.276)" fill="#e0e0e0"/><path d="M100.3,312.046l-1.089,5.423c-.438,2.183-1.6,3.087-3.619,3.087a3.966,3.966,0,0,1-2.768-.927l.5-.634a3.269,3.269,0,0,0,2.33.822,2.43,2.43,0,0,0,2.7-2.206l.143-.683a3.236,3.236,0,0,1-2.485,1.058,2.458,2.458,0,0,1-2.744-2.49,3.423,3.423,0,0,1,3.549-3.5,2.386,2.386,0,0,1,2.425,1.408l.26-1.363Zm-1.419,2.477c0-1.127-.769-1.794-2.059-1.794a2.627,2.627,0,0,0-2.709,2.722c0,1.127.757,1.8,2.058,1.8a2.635,2.635,0,0,0,2.709-2.724" transform="translate(-16.449 -57.276)" fill="#e0e0e0"/><path d="M107.635,312l-.154.809c-.083,0-.142-.012-.237-.012a2.456,2.456,0,0,0-2.519,2.289l-.626,3.134h-.84l1.23-6.175h.8l-.213,1.127A2.823,2.823,0,0,1,107.635,312" transform="translate(-18.298 -57.276)" fill="#e0e0e0"/><path d="M115.741,312.047,114.5,318.22h-.8l.2-.974a3.2,3.2,0,0,1-2.425,1.033,2.5,2.5,0,0,1-2.709-2.617A3.484,3.484,0,0,1,112.275,312a2.339,2.339,0,0,1,2.366,1.337l.261-1.292Zm-1.4,2.607a1.816,1.816,0,0,0-2.046-1.925,2.719,2.719,0,0,0-2.7,2.9,1.807,1.807,0,0,0,2.046,1.915,2.709,2.709,0,0,0,2.7-2.887" transform="translate(-19.273 -57.276)" fill="#e0e0e0"/><path d="M125.456,314.606a3.491,3.491,0,0,1-3.525,3.673,2.33,2.33,0,0,1-2.366-1.35l-.709,3.569h-.84l1.692-8.452h.8l-.2.986A3.162,3.162,0,0,1,122.735,312a2.506,2.506,0,0,1,2.72,2.605m-.852.047a1.816,1.816,0,0,0-2.046-1.925,2.7,2.7,0,0,0-2.686,2.9,1.808,1.808,0,0,0,2.046,1.915,2.7,2.7,0,0,0,2.686-2.887" transform="translate(-20.913 -57.276)" fill="#e0e0e0"/><path d="M134.813,313.448a3.7,3.7,0,0,1-.072.7l-.709,3.51h-.84l.71-3.522a3.34,3.34,0,0,0,.058-.562c0-.88-.532-1.385-1.608-1.385a2.42,2.42,0,0,0-2.533,2.159l-.662,3.31h-.84l1.751-8.71h.839l-.7,3.462a3.045,3.045,0,0,1,2.378-.973,1.944,1.944,0,0,1,2.224,2.007" transform="translate(-22.738 -56.716)" fill="#e0e0e0"/><path d="M143.986,312.057l-4.543,6.973c-.768,1.174-1.349,1.537-2.247,1.537a2.025,2.025,0,0,1-1.479-.551l.449-.61a1.459,1.459,0,0,0,1.1.446c.532,0,.946-.247,1.432-1l.438-.656-1.55-6.14h.852l1.289,5.259,3.395-5.259Z" transform="translate(-24.05 -57.286)" fill="#e0e0e0"/><path d="M141.366,1.277H15.159L35.717,16V44.96a6.071,6.071,0,0,0,6.1,6.047h99.554a6.071,6.071,0,0,0,6.1-6.047V7.324a6.071,6.071,0,0,0-6.1-6.047" transform="translate(-2.686 -21.234)" fill="#f5f5f5"/><path d="M143.838,26.3c0,.121-19.035.219-42.51.219s-42.514-.1-42.514-.219,19.03-.219,42.514-.219,42.51.1,42.51.219" transform="translate(-10.422 -24.787)" fill="#e0e0e0"/><path d="M143.838,39.918c0,.121-19.035.219-42.51.219s-42.514-.1-42.514-.219,19.03-.219,42.514-.219,42.51.1,42.51.219" transform="translate(-10.422 -27.288)" fill="#e0e0e0"/></g><g clip-path="url(#b)"><path d="M576.4,400.794c0,.118-129.042.212-288.185.212-159.2,0-288.213-.095-288.213-.212s129.014-.212,288.213-.212c159.143,0,288.185.095,288.185.212" transform="translate(0 -73.537)" fill="#263238"/></g><g clip-path="url(#b)"><path d="M627.116,333.62s-21.811-24.908-30.04-49.816-4.321-22.05-4.321-22.05,11.111,24.2,19.547,35.883,23.456,28.838,23.456,28.838Z" transform="translate(-104.873 -48.034)" fill="#455a64"/><path d="M639.486,266.385a1.271,1.271,0,0,0-2.366.8c1.33,8.75,4.2,29.281,4.091,42.6-.146,17.3.006,23.986.006,23.986H650.3s-1.612-35.761-3.663-46.663c-1.438-7.645-4.491-16.132-7.146-20.722" transform="translate(-112.896 -48.783)" fill="#455a64"/><path d="M646.013,330.169a94.847,94.847,0,0,0,7.472-26.894c.748-6.368-.586-14.972-2.57-26.457a70.634,70.634,0,0,1-1.148-12.73,2.168,2.168,0,0,1,4.066-1.007c1.1,1.94,4.266,8.566,5.072,12.721,2.2,11.338,4.688,17.008,2.784,27.766s-8.936,27.329-8.936,27.329Z" transform="translate(-114.475 -48.09)" fill="#455a64"/><path d="M655.951,327.8s23.947-51.064,25.606-58.639,7.3-25.032,7.967-24.045,1.66,10.21-2.656,20.75-22.74,63.489-22.74,63.489h-8.177" transform="translate(-116.236 -44.989)" fill="#455a64"/><path d="M633.853,328.706a4.867,4.867,0,0,1-.671-.457c-.425-.32-1.07-.769-1.855-1.406a84.494,84.494,0,0,1-6.436-5.637,107.3,107.3,0,0,1-17.373-22.126,144.377,144.377,0,0,1-11.858-25.49c-1.2-3.391-2.083-6.167-2.654-8.1-.293-.963-.495-1.717-.636-2.227a4.768,4.768,0,0,1-.185-.787,4.9,4.9,0,0,1,.284.758l.727,2.2c.628,1.909,1.558,4.664,2.8,8.033a153.531,153.531,0,0,0,11.958,25.352,111.982,111.982,0,0,0,17.187,22.129c2.563,2.528,4.757,4.453,6.308,5.739.764.659,1.388,1.132,1.792,1.478a4.822,4.822,0,0,1,.608.538" transform="translate(-104.936 -48.185)" fill="#263238"/><path d="M644.687,305.07a8.522,8.522,0,0,1-.215-1.5c-.114-1.057-.262-2.435-.441-4.094-.379-3.454-.971-8.219-1.817-13.452s-1.794-9.943-2.524-13.342c-.355-1.63-.648-2.985-.875-4.024a8.655,8.655,0,0,1-.269-1.489,8.481,8.481,0,0,1,.463,1.443c.268.936.624,2.3,1.033,3.992.823,3.384,1.825,8.093,2.677,13.34s1.385,10.03,1.672,13.5c.145,1.734.239,3.14.28,4.112a8.5,8.5,0,0,1,.016,1.514" transform="translate(-113.151 -49.046)" fill="#263238"/><path d="M652.3,262.841a3.643,3.643,0,0,1,.283.649c.182.48.42,1.11.717,1.9.317.823.681,1.838,1.028,3.04s.817,2.551,1.164,4.089q.284,1.149.593,2.4c.2.836.343,1.72.527,2.628.391,1.813.633,3.779.923,5.842a86.568,86.568,0,0,1-.975,26.993c-.438,2.038-.821,3.982-1.342,5.762-.249.893-.454,1.765-.716,2.585s-.521,1.6-.764,2.353c-.457,1.509-1.015,2.824-1.456,3.995s-.869,2.161-1.244,2.96l-.853,1.841a3.75,3.75,0,0,1-.328.627,3.646,3.646,0,0,1,.234-.669l.764-1.876c.346-.807.755-1.8,1.16-2.982s.947-2.495,1.38-4.005l.73-2.352c.25-.819.445-1.689.684-2.58.5-1.777.866-3.715,1.289-5.743a89.45,89.45,0,0,0,.97-26.852c-.276-2.053-.5-4.012-.872-5.819-.174-.905-.305-1.787-.5-2.622s-.38-1.633-.559-2.4c-.323-1.537-.758-2.89-1.087-4.093s-.655-2.227-.942-3.058l-.626-1.925a3.684,3.684,0,0,1-.186-.684" transform="translate(-115.156 -48.251)" fill="#263238"/><path d="M690.093,246.378a.78.78,0,0,1-.019.229c-.029.179-.063.4-.106.663-.105.581-.238,1.443-.472,2.542-.462,2.2-1.233,5.358-2.43,9.193s-2.829,8.334-4.769,13.275-4.177,10.329-6.3,16.063c-2.159,5.724-3.822,11.312-5.384,16.381s-3.018,9.627-4.438,13.388a84.984,84.984,0,0,1-3.781,8.732c-.49,1.012-.931,1.767-1.216,2.285l-.335.584a.8.8,0,0,1-.129.191.752.752,0,0,1,.083-.216l.29-.607c.254-.534.666-1.3,1.127-2.324.964-2.024,2.263-5,3.621-8.77s2.8-8.319,4.325-13.4,3.191-10.68,5.356-16.421c2.131-5.747,4.39-11.128,6.345-16.058s3.629-9.4,4.863-13.212,2.06-6.949,2.581-9.128c.263-1.089.427-1.944.565-2.518l.156-.654a.781.781,0,0,1,.071-.22" transform="translate(-117.079 -45.229)" fill="#263238"/><path d="M605.924,232.429a2.059,2.059,0,0,0-3.394,2.086,58.189,58.189,0,0,0,3.009,7.678c3.292,6.942,12.962,31.85,17.489,45.529s10.905,39.2,10.905,39.2l9.666-1.556s-8.843-41.931-17.485-57.039c-6.944-12.139-13.887-29.682-20.191-35.9" transform="translate(-106.752 -42.56)" fill="#455a64"/><path d="M630.678,310.767a5.9,5.9,0,0,1,.5,1.15c.286.752.676,1.85,1.115,3.22.89,2.737,1.98,6.558,3.077,10.8s2.007,8.111,2.643,10.912l.727,3.324a5.781,5.781,0,0,1,.2,1.235,6,6,0,0,1-.393-1.189c-.235-.874-.532-1.975-.885-3.285-.739-2.885-1.711-6.677-2.786-10.871-1.1-4.241-2.129-8.069-2.928-10.825-.382-1.3-.7-2.394-.957-3.262a5.881,5.881,0,0,1-.309-1.212" transform="translate(-111.756 -57.049)" fill="#263238"/><path d="M639.03,326.24a.979.979,0,0,1-.054-.256c-.03-.2-.066-.448-.11-.755-.1-.664-.192-1.648-.4-2.9-.355-2.52-.988-6.151-2.027-10.58a150.531,150.531,0,0,0-4.525-15.323c-1.983-5.682-4.47-11.823-7.288-18.177-5.687-12.694-11.368-23.953-15.1-32.279-1.887-4.153-3.348-7.544-4.31-9.906-.49-1.177-.842-2.1-1.087-2.728-.109-.291-.2-.526-.268-.715a.987.987,0,0,1-.075-.25,1.027,1.027,0,0,1,.123.231l.315.7c.285.651.677,1.55,1.175,2.69,1.018,2.337,2.528,5.7,4.456,9.834,3.814,8.28,9.544,19.509,15.24,32.223,2.822,6.364,5.3,12.523,7.265,18.229a143.027,143.027,0,0,1,4.432,15.4,106.364,106.364,0,0,1,1.872,10.634c.174,1.263.233,2.253.3,2.92.024.309.044.56.059.76a1,1,0,0,1,0,.261" transform="translate(-106.993 -42.657)" fill="#263238"/><path d="M650.186,337.334a9.993,9.993,0,0,1-.326-1.612c-.193-1.127-.446-2.613-.753-4.41-.667-3.716-1.683-8.835-3.146-14.406-1.447-5.577-3.078-10.538-4.333-14.1-.616-1.717-1.126-3.138-1.512-4.213a10.237,10.237,0,0,1-.514-1.563,10.07,10.07,0,0,1,.7,1.49c.416.974,1,2.391,1.666,4.163a138.512,138.512,0,0,1,4.488,14.095,145.769,145.769,0,0,1,3.007,14.474c.275,1.872.485,3.388.593,4.441a10.144,10.144,0,0,1,.128,1.639" transform="translate(-113.338 -54.528)" fill="#263238"/><rect width="37.731" height="45.615" transform="translate(518.957 281.428)" fill="#ff725e"/><g transform="translate(518.957 281.428)" opacity="0.3"><g clip-path="url(#d)"><rect width="37.731" height="45.615" transform="translate(0 0)"/></g></g><rect width="33.476" height="45.615" transform="translate(511.176 281.428)" fill="#ff725e"/><path d="M59.268,324.593c-6.427-4.085-15.335-4.162-21.59.176-5.939,4.12-8.954,11.616-8.692,18.8s3.772,15.964,10.332,19.739l19.256-.075a25.622,25.622,0,0,0,10.6-19.281,22.251,22.251,0,0,0-9.9-19.359" transform="translate(-5.134 -59.024)" fill="#455a64"/><path d="M53.866,364.158a8.548,8.548,0,0,1-.121-1.644c-.034-1.175-.077-2.679-.128-4.481-.1-3.783-.248-9.008-.5-14.776s-.57-10.987-.807-14.765c-.109-1.8-.2-3.3-.27-4.475a8.449,8.449,0,0,1-.024-1.648A8.517,8.517,0,0,1,52.276,324c.131,1.052.29,2.577.464,4.463.349,3.773.731,8.994.988,14.771s.337,11.009.323,14.8c-.006,1.894-.03,3.427-.067,4.486a8.425,8.425,0,0,1-.118,1.644" transform="translate(-9.212 -59.179)" fill="#263238"/><path d="M30.352,346.411c-.014.168-1.06.22-2.337.116s-2.3-.324-2.287-.492,1.06-.22,2.337-.116,2.3.324,2.287.492" transform="translate(-4.559 -63.493)" fill="#263238"/><path d="M30.969,338.254c-.069.154-.972-.094-2.016-.554s-1.835-.957-1.766-1.111.971.094,2.015.554,1.836.958,1.767,1.111" transform="translate(-4.817 -61.782)" fill="#263238"/><path d="M35.036,332.081c-.088.14-1.1-.334-2.157-1.2s-1.717-1.767-1.595-1.878.963.57,1.986,1.408,1.858,1.528,1.765,1.673" transform="translate(-5.541 -60.394)" fill="#263238"/><path d="M39.576,326.434c-.156.068-.642-.686-1.086-1.683s-.679-1.863-.523-1.931.641.686,1.086,1.684.679,1.862.523,1.93" transform="translate(-6.719 -59.261)" fill="#263238"/><path d="M46.056,322.437c-.151.07-.675-.732-1.022-1.845s-.378-2.067-.213-2.094.462.843.8,1.913.592,1.955.435,2.026" transform="translate(-7.925 -58.468)" fill="#263238"/><path d="M56.805,318.9c.16.056.063.741-.218,1.531s-.638,1.383-.8,1.327-.062-.741.219-1.531.638-1.384.8-1.328" transform="translate(-9.872 -58.542)" fill="#263238"/><path d="M64.479,322.3c.115.124-.3.694-.936,1.274s-1.237.949-1.353.826.3-.694.936-1.274,1.237-.949,1.353-.826" transform="translate(-11.017 -59.162)" fill="#263238"/><path d="M71.394,326.808c.095.14-.416.648-1.14,1.135s-1.391.77-1.486.63.415-.647,1.141-1.135,1.389-.77,1.485-.63" transform="translate(-12.184 -59.988)" fill="#263238"/><path d="M76.094,333.531c.067.155-.738.644-1.8,1.092s-1.972.687-2.039.531.738-.644,1.8-1.092,1.972-.687,2.039-.531" transform="translate(-12.803 -61.22)" fill="#263238"/><path d="M78.07,340.844c.021.167-.8.4-1.828.532s-1.884.094-1.9-.073.8-.4,1.829-.532,1.883-.094,1.9.073" transform="translate(-13.173 -62.543)" fill="#263238"/><path d="M79.1,349.542c-.067.154-.94-.073-1.948-.508s-1.771-.914-1.7-1.068.94.073,1.949.509,1.771.913,1.7,1.067" transform="translate(-13.369 -63.869)" fill="#263238"/><path d="M78.125,357.065c-.053.153-1.157-.107-2.31-.858s-1.84-1.644-1.719-1.754.963.54,2.055,1.244,2.036,1.206,1.973,1.368" transform="translate(-13.128 -65.066)" fill="#263238"/><path d="M74.315,363.992c-.1.131-.979-.381-1.822-1.284s-1.3-1.808-1.157-1.9.8.621,1.607,1.483,1.479,1.565,1.372,1.7" transform="translate(-12.637 -66.235)" fill="#263238"/><path d="M35.7,365.531c.078.149-.843.78-2.059,1.408s-2.264,1.016-2.343.867.843-.78,2.059-1.408,2.265-1.016,2.343-.866" transform="translate(-5.546 -67.097)" fill="#263238"/><path d="M32.388,359.147c.07.154-.67.636-1.651,1.078s-1.836.676-1.906.523.67-.636,1.651-1.078,1.836-.676,1.906-.523" transform="translate(-5.108 -65.922)" fill="#263238"/><path d="M29.688,353.478c.024.167-.886.433-2.032.594s-2.1.157-2.12-.01.886-.433,2.033-.594,2.095-.157,2.119.01" transform="translate(-4.525 -64.867)" fill="#263238"/><path d="M38.125,350.375c.05.157-.838.568-2.022.7s-2.142-.07-2.128-.233.938-.244,2.059-.373,2.041-.257,2.091-.092" transform="translate(-6.021 -64.306)" fill="#263238"/><path d="M45.316,343.4c.05.158-.657.512-1.609.6s-1.716-.117-1.7-.28.751-.238,1.637-.327,1.62-.161,1.669,0" transform="translate(-7.444 -63.022)" fill="#263238"/><path d="M46.675,337.568c-.056.159-.821.042-1.708-.263s-1.564-.681-1.508-.84.82-.042,1.708.263,1.562.681,1.508.84" transform="translate(-7.7 -61.754)" fill="#263238"/><path d="M49.644,331.69c-.118.117-.643-.227-1.018-.874s-.414-1.269-.253-1.312.448.434.785,1.007.611,1.06.485,1.178" transform="translate(-8.556 -60.489)" fill="#263238"/><path d="M46.227,355.289c.04.164-.622.465-1.479.673a5.663,5.663,0,0,1-1.242.181l-.122-.355c.222-.04.365-.031.394.034s-.062.176-.242.311l-.121-.356a5.626,5.626,0,0,1,1.187-.408c.857-.207,1.585-.243,1.625-.08" transform="translate(-7.688 -65.204)" fill="#263238"/><path d="M47.421,365.2c.062.157-.782.633-1.886,1.063s-2.049.652-2.111.5.782-.633,1.887-1.063,2.049-.652,2.11-.5" transform="translate(-7.694 -67.034)" fill="#263238"/><path d="M39.781,360.8c.055.159-.508.494-1.258.747s-1.4.329-1.456.169.508-.493,1.258-.746,1.4-.329,1.456-.17" transform="translate(-6.568 -66.219)" fill="#263238"/><path d="M40.1,340.327c-.039.162-1.019.065-2.152-.335s-1.957-.935-1.884-1.084.988.124,2.09.509,1.988.744,1.947.909" transform="translate(-6.39 -62.207)" fill="#263238"/><path d="M59.525,338.457c.094.14-.459.665-1.233,1.172s-1.478.8-1.572.663.459-.665,1.233-1.172,1.479-.8,1.572-.663" transform="translate(-10.049 -62.126)" fill="#263238"/><path d="M60.588,348.381c.035.165-.546.424-1.3.579s-1.386.145-1.421-.019.546-.425,1.3-.579,1.386-.146,1.421.019" transform="translate(-10.255 -63.931)" fill="#263238"/><path d="M61.634,359.225c-.072.153-.907-.081-1.866-.521s-1.679-.923-1.608-1.075.907.081,1.866.522,1.679.922,1.608,1.074" transform="translate(-10.305 -65.643)" fill="#263238"/><path d="M59.4,369.95c-.132.107-.674-.333-1.212-.983s-.868-1.264-.736-1.371.674.334,1.212.984.867,1.263.736,1.37" transform="translate(-10.175 -67.479)" fill="#263238"/><path d="M58.844,331.131c.1.131-.254.578-.869.883s-1.19.323-1.233.163.4-.431.958-.709,1.039-.473,1.145-.338" transform="translate(-10.054 -60.78)" fill="#263238"/><path d="M67.954,341.155c.057.155-.658.545-1.637.678s-1.772-.046-1.761-.21.765-.266,1.677-.394,1.665-.237,1.72-.074" transform="translate(-11.44 -62.613)" fill="#263238"/><path d="M66.051,332.156c.076.148-.634.65-1.643.968s-1.88.321-1.9.158.759-.432,1.717-.738,1.754-.541,1.831-.388" transform="translate(-11.076 -60.967)" fill="#263238"/><path d="M69.618,354.9a4.719,4.719,0,0,1-2.68,0,4.7,4.7,0,0,1-2.507-.938,8.285,8.285,0,0,1,2.617.338,8.278,8.278,0,0,1,2.57.6" transform="translate(-11.417 -64.97)" fill="#263238"/><path d="M66.56,367.489c-.1.131-1-.391-1.887-1.282s-1.415-1.778-1.284-1.879.855.589,1.72,1.448,1.558,1.577,1.451,1.712" transform="translate(-11.229 -66.88)" fill="#263238"/><path d="M49.135,321.521a27.783,27.783,0,0,0-5.389,4.226,26.008,26.008,0,0,0-6.712,14.722,32.8,32.8,0,0,0,.4,9.021,68.227,68.227,0,0,0,1.7,7.238c.589,2.039,1.131,3.671,1.5,4.8a11.265,11.265,0,0,1,.518,1.777,10.116,10.116,0,0,1-.743-1.7c-.434-1.109-1.04-2.725-1.686-4.757a60.635,60.635,0,0,1-1.845-7.267,32.11,32.11,0,0,1-.457-9.188,25.588,25.588,0,0,1,7.01-14.95,19.222,19.222,0,0,1,4.019-3.117,12.1,12.1,0,0,1,1.231-.634,1.457,1.457,0,0,1,.451-.175" transform="translate(-6.427 -59.023)" fill="#263238"/><path d="M60.187,363.756a66.577,66.577,0,0,0,2.763-6.55A36.805,36.805,0,0,0,64.6,340.361a31.512,31.512,0,0,0-2.617-8.982,21.191,21.191,0,0,0-4.464-6.168,16.252,16.252,0,0,0-4.373-2.742c-1.137-.47-1.818-.581-1.809-.633a1.508,1.508,0,0,1,.5.039,9.317,9.317,0,0,1,1.392.371,15.162,15.162,0,0,1,4.574,2.64,20.883,20.883,0,0,1,4.687,6.25,31.021,31.021,0,0,1,2.715,9.14,35.56,35.56,0,0,1-1.85,17.071c-.347,1.053-.794,1.956-1.127,2.768-.4.787-.722,1.47-1.023,2.012a11.483,11.483,0,0,1-1.024,1.628" transform="translate(-9.097 -59.08)" fill="#263238"/><path d="M33.155,371.417H67.039l.208,6.729H33.155Z" transform="translate(-5.875 -68.183)" fill="#ff725e"/><path d="M36.654,375.538,38.6,396.081H63.372l1.99-20.318Z" transform="translate(-6.495 -68.94)" fill="#ff725e"/><path d="M67.25,379.689c0,.168-7.631.305-17.041.305s-17.043-.137-17.043-.305,7.629-.305,17.043-.305,17.041.137,17.041.305" transform="translate(-5.877 -69.646)" fill="#263238"/><path d="M64.774,386.964a5.08,5.08,0,0,1-.726,1.283,18.583,18.583,0,0,1-2.628,3.08l-.156.148-.153-.16a48.7,48.7,0,0,0-6.641-5.768l.374-.016L51.9,388.1,48.42,391.1l-.193.166-.193-.161-5.658-4.72.33-.035L39.779,389.9a8.3,8.3,0,0,1-1.149,1.248,8.157,8.157,0,0,1,.945-1.406l2.766-3.669.141-.188.188.152,5.742,4.618-.385.006,3.467-3.022,2.954-2.553.182-.158.193.141a43.179,43.179,0,0,1,6.609,5.954l-.309-.012a34.217,34.217,0,0,0,3.651-4.044" transform="translate(-6.845 -70.663)" fill="#263238"/></g><g transform="translate(81.874 68.415)"><path d="M485.393,339.3H126.718a11.986,11.986,0,0,1-11.986-11.986V98.244a11.986,11.986,0,0,1,11.986-11.987H485.393a11.986,11.986,0,0,1,11.986,11.987V327.312A11.986,11.986,0,0,1,485.393,339.3" transform="translate(-102.205 -86.257)" fill="#455a64"/><path d="M499.432,396.074H114.151A14.644,14.644,0,0,1,99.507,381.43v-7.5H514.076v7.5a14.644,14.644,0,0,1-14.644,14.644" transform="translate(-99.507 -137.234)" fill="#455a64"/><path d="M301.414,371.048l5.144,8.183h72.389l4.777-8.183Z" transform="translate(-135.285 -136.723)" fill="#263238"/><path d="M494.09,370.995c0,.137-84.929.248-189.67.248-104.778,0-189.689-.11-189.689-.248s84.911-.248,189.689-.248c104.741,0,189.67.111,189.67.248" transform="translate(-102.205 -136.669)" fill="#263238"/><path d="M484.59,317.026H130.742a2.693,2.693,0,0,1-2.693-2.693v-207.7a2.693,2.693,0,0,1,2.693-2.693H484.59a2.693,2.693,0,0,1,2.692,2.693v207.7a2.692,2.692,0,0,1-2.692,2.692" transform="translate(-104.565 -89.391)" fill="#ebebeb"/><path d="M486.816,320.768H127.581l.385-197.472H486.816Z" transform="translate(-104.482 -92.82)" fill="#fff"/><path d="M162.621,113.325a2.869,2.869,0,1,1-2.869-2.868,2.869,2.869,0,0,1,2.869,2.868" transform="translate(-109.674 -90.545)" fill="#263238"/><path d="M141.488,113.325a2.869,2.869,0,1,1-2.869-2.868,2.869,2.869,0,0,1,2.869,2.868" transform="translate(-105.929 -90.545)" fill="#263238"/><path d="M151.632,113.325a2.869,2.869,0,1,1-2.869-2.868,2.869,2.869,0,0,1,2.869,2.868" transform="translate(-107.727 -90.545)" fill="#263238"/><rect width="359.619" height="19.069" transform="translate(23.1 208.878)" fill="#263238"/><path d="M143.445,353.674v.611h-2.863V353.8l1.543-1.465c.378-.36.444-.587.444-.8,0-.355-.244-.561-.722-.561a1.1,1.1,0,0,0-.91.406l-.5-.388a1.793,1.793,0,0,1,1.476-.644c.843,0,1.387.427,1.387,1.116a1.554,1.554,0,0,1-.643,1.226l-1.038.988Z" transform="translate(-106.759 -133.054)" fill="#fff"/><path d="M144.569,351.951a.455.455,0,1,1,.91,0,.455.455,0,1,1-.91,0m0,2.115a.455.455,0,1,1,.91,0,.455.455,0,1,1-.91,0" transform="translate(-107.492 -133.257)" fill="#fff"/><path d="M147.539,350.411V354.3h-.721v-3.28H146v-.606Z" transform="translate(-107.745 -133.066)" fill="#fff"/><path d="M152.258,353.414h-.689v.882h-.7v-.882h-2.132v-.5l1.915-2.5h.772l-1.8,2.393h1.271v-.783h.677v.783h.689Z" transform="translate(-108.231 -133.066)" fill="#fff"/><rect width="294.757" height="1.344" transform="translate(50.374 218.795)" fill="#fff"/><rect width="92.112" height="3.583" transform="translate(50.153 217.348)" fill="#ff725e"/><path d="M274.093,352.024a4.485,4.485,0,1,1-4.485-4.485,4.484,4.484,0,0,1,4.485,4.485" transform="translate(-128.855 -132.557)" fill="#ff725e"/><path d="M527.323,352.347a1.3,1.3,0,0,1-1.421,1.261c-1.06,0-1.682-.683-1.682-1.932a1.84,1.84,0,0,1,1.9-2.065,1.958,1.958,0,0,1,1.021.249l-.267.545a1.317,1.317,0,0,0-.738-.189c-.732,0-1.193.456-1.193,1.338v.007a1.327,1.327,0,0,1,1.037-.406,1.214,1.214,0,0,1,1.338,1.192m-.7.034c0-.4-.305-.66-.777-.66a.707.707,0,0,0-.788.666c0,.366.288.655.8.655a.674.674,0,0,0,.76-.661" transform="translate(-174.767 -132.924)" fill="#fff"/><path d="M528.417,351.22a.455.455,0,1,1,.91,0,.455.455,0,1,1-.91,0m0,2.115a.455.455,0,1,1,.91,0,.455.455,0,1,1-.91,0" transform="translate(-175.511 -133.127)" fill="#fff"/><path d="M530.088,351.611c0-1.277.7-2,1.62-2s1.627.722,1.627,2-.7,2-1.627,2-1.62-.723-1.62-2m2.519,0c0-.938-.365-1.371-.9-1.371s-.894.433-.894,1.371.367,1.37.894,1.37.9-.432.9-1.37" transform="translate(-175.807 -132.924)" fill="#fff"/><path d="M534.621,351.611c0-1.277.7-2,1.621-2s1.627.722,1.627,2-.7,2-1.627,2-1.621-.723-1.621-2m2.52,0c0-.938-.365-1.371-.9-1.371s-.894.433-.894,1.371.367,1.37.894,1.37.9-.432.9-1.37" transform="translate(-176.61 -132.924)" fill="#fff"/><path d="M545.907,350.913h-1.344v-3.874h3.866v1.344h-2.523Z" transform="translate(-178.372 -132.468)" fill="#fff"/><path d="M548.432,357.06h-3.874v-3.866H545.9v2.523h2.53Z" transform="translate(-178.371 -133.559)" fill="#fff"/><path d="M555.932,357.058h-3.867v-1.344h2.523v-2.532h1.344Z" transform="translate(-179.701 -133.557)" fill="#fff"/><path d="M555.935,350.9h-1.344v-2.523h-2.53v-1.344h3.874Z" transform="translate(-179.701 -132.468)" fill="#fff"/><path d="M180.614,137.566H159.44L148.853,155.9,159.44,174.24h21.174L191.2,155.9Z" transform="translate(-108.251 -95.349)" fill="#ebebeb"/><path d="M163.061,159.835a18.9,18.9,0,0,1-2.59-3.338,6.353,6.353,0,0,1-.873-4.061c.134-.815.48-1.59.535-2.413.076-1.134-.4-2.318,0-3.38.628-1.66,2.863-1.916,4.217-3.063,1.056-.894,1.569-2.343,2.73-3.095a5.129,5.129,0,0,1,3.513-.473,13.239,13.239,0,0,0,3.6.31,23.687,23.687,0,0,0,2.492-.666,3.4,3.4,0,0,1,2.513.17,1.636,1.636,0,0,1,.675,2.2,2.734,2.734,0,0,1,3.528,1.92A4.155,4.155,0,0,1,181.843,148a9.092,9.092,0,0,1-4.2,1.712,17.555,17.555,0,0,1-12.521-1.951" transform="translate(-110.144 -95.692)" fill="#263238"/><path d="M183.306,165.079c-.144-2.625-.878-8.005-1.6-12.868A10.144,10.144,0,0,0,171,143.577l-.524.035c-5.629.708-8.171,5.884-7.308,11.491l1.653,20.2h13.737s-.326-3.544-.328-3.578c0,0,5.376-1.209,5.081-6.644" transform="translate(-110.758 -96.41)" fill="#ffbe9d"/><path d="M179.956,177.363a12.661,12.661,0,0,1-7.215-1.539s1.935,3.8,7.322,2.945Z" transform="translate(-112.484 -102.128)" fill="#eb996e"/><path d="M183.278,159.6a.778.778,0,0,1-.7.833.744.744,0,0,1-.847-.646.777.777,0,0,1,.694-.833.744.744,0,0,1,.847.646" transform="translate(-114.078 -99.138)" fill="#263238"/><path d="M183.872,157.242c-.09.108-.706-.288-1.541-.23s-1.418.516-1.515.42c-.048-.042.038-.231.291-.443a2.135,2.135,0,0,1,1.205-.461,2.049,2.049,0,0,1,1.234.309c.27.18.369.357.325.406" transform="translate(-113.913 -98.708)" fill="#263238"/><path d="M173.7,160.283a.778.778,0,0,1-.7.833.744.744,0,0,1-.847-.646.778.778,0,0,1,.7-.833.744.744,0,0,1,.847.647" transform="translate(-112.38 -99.259)" fill="#263238"/><path d="M173.914,158.1c-.09.108-.707-.288-1.541-.23s-1.418.516-1.516.42c-.047-.042.038-.231.292-.443a2.135,2.135,0,0,1,1.205-.462,2.054,2.054,0,0,1,1.234.309c.269.18.369.357.325.406" transform="translate(-112.148 -98.86)" fill="#263238"/><path d="M178.575,164.038a5.539,5.539,0,0,1,1.34-.336c.211-.036.411-.092.436-.239a1.082,1.082,0,0,0-.184-.622l-.739-1.581a27.925,27.925,0,0,1-1.7-4.15,28.08,28.08,0,0,1,2.029,4c.249.556.487,1.085.713,1.592a1.242,1.242,0,0,1,.166.829.534.534,0,0,1-.329.335,1.442,1.442,0,0,1-.359.075,5.468,5.468,0,0,1-1.374.094" transform="translate(-113.367 -98.812)" fill="#263238"/><path d="M173.756,154.147c-.067.232-.908.181-1.879.365-.975.164-1.745.5-1.889.309-.064-.094.059-.317.364-.557a3.321,3.321,0,0,1,2.871-.513c.369.12.562.286.534.4" transform="translate(-111.993 -98.194)" fill="#263238"/><path d="M183.35,154.32c-.134.2-.722.041-1.414.078-.693.012-1.268.212-1.416.023-.066-.092.014-.288.258-.485a2.05,2.05,0,0,1,2.281-.081c.258.179.351.368.292.465" transform="translate(-113.859 -98.181)" fill="#263238"/><path d="M163.32,162.42c-.1-.034-3.805-.854-3.438,2.851s4.382,2.5,4.378,2.39-.94-5.241-.94-5.241" transform="translate(-110.201 -99.736)" fill="#ffbe9d"/><path d="M162.824,166.717c-.017-.01-.06.052-.165.113a.65.65,0,0,1-.481.058,1.6,1.6,0,0,1-.88-1.36,2.134,2.134,0,0,1,.089-.942.749.749,0,0,1,.436-.543.331.331,0,0,1,.4.139c.059.1.044.174.063.179s.074-.07.029-.221a.418.418,0,0,0-.169-.217.494.494,0,0,0-.367-.059.913.913,0,0,0-.617.641,2.214,2.214,0,0,0-.122,1.056,1.685,1.685,0,0,0,1.1,1.507.7.7,0,0,0,.58-.156c.106-.1.117-.188.1-.193" transform="translate(-110.408 -100.007)" fill="#eb996e"/><path d="M181.3,146.935c-.254,1.475-3.246,2.826-5.726,2.754-2.287-.067-3.416-1.2-5.077-2.007-1.052-.511-1.052-.511-2.478-.279-1.154.188-1.753,1.549-2.4,2.522,1.234,2.69.736,5.818.212,8.732a1.48,1.48,0,0,1-.374.885,1.182,1.182,0,0,1-1.5-.228,4.6,4.6,0,0,1-1.17-2.354,15.323,15.323,0,0,1-.367-6.025,10.426,10.426,0,0,1,2.507-5.44,9.873,9.873,0,0,1,6.735-3.074,12.125,12.125,0,0,1,7.185,2.04,7.1,7.1,0,0,1,2.456,2.474" transform="translate(-110.629 -96.207)" fill="#263238"/><path d="M178.784,167.6l-1.888-.881a.643.643,0,0,0-.344-.086.551.551,0,0,0-.327.222,1.757,1.757,0,0,0-.209,1.93,1.475,1.475,0,0,0,1.772.651,2.011,2.011,0,0,0,1.047-1.777Z" transform="translate(-113.029 -100.5)" fill="#eb996e"/><path d="M177.782,169.506c.03.037-.394.3-1.107.1a1.728,1.728,0,0,1-.979-.8,1.8,1.8,0,0,1-.124-1.549,1.876,1.876,0,0,1,.457-.685,1.722,1.722,0,0,1,.321-.241.545.545,0,0,1,.5-.029c.432.24.722.445,1.012.631.554.367.881.62.852.671s-.411-.109-1-.409l-1.008-.527c-.078-.021-.071-.021-.146.018a1.444,1.444,0,0,0-.234.187,1.546,1.546,0,0,0-.348.538,1.466,1.466,0,0,0,.07,1.205,1.526,1.526,0,0,0,.739.7,4.01,4.01,0,0,0,1,.184" transform="translate(-112.964 -100.433)" fill="#263238"/><path d="M175.847,158.979c-.042,0-.037-.344-.2-.924a3.876,3.876,0,0,0-1.419-2.031,3.685,3.685,0,1,0,0,5.912,3.869,3.869,0,0,0,1.419-2.032c.165-.579.16-.926.2-.924.015,0,.025.086.03.25a2.868,2.868,0,0,1-.071.715,3.846,3.846,0,0,1-1.4,2.231,4,4,0,0,1-3.819.625,4.053,4.053,0,0,1,0-7.64,4.009,4.009,0,0,1,3.819.623,3.854,3.854,0,0,1,1.4,2.232,2.868,2.868,0,0,1,.071.715c-.006.165-.016.249-.03.249" transform="translate(-111.625 -98.426)" fill="#263238"/><path d="M187.121,158.56c-.041,0-.038-.336-.2-.9a3.761,3.761,0,0,0-1.382-1.976,3.586,3.586,0,1,0,0,5.753,3.761,3.761,0,0,0,1.381-1.976c.162-.564.159-.9.2-.9.014,0,.025.083.03.243a2.83,2.83,0,0,1-.068.7,3.754,3.754,0,0,1-1.36,2.176,3.912,3.912,0,0,1-3.726.61,3.954,3.954,0,0,1,0-7.454,3.91,3.91,0,0,1,3.726.609,3.756,3.756,0,0,1,1.36,2.176,2.831,2.831,0,0,1,.068.7c-.006.16-.016.243-.03.243" transform="translate(-113.658 -98.369)" fill="#263238"/><path d="M179.216,158.251c-.085.079-.451-.158-.945-.142-.5,0-.851.252-.939.177-.114-.059.232-.593.931-.606s1.062.507.953.571" transform="translate(-113.294 -98.913)" fill="#263238"/><path d="M167.69,159.182c.071.095-.648.751-1.605,1.465a5.639,5.639,0,0,1-1.861,1.122c-.071-.095.648-.751,1.605-1.465a5.638,5.638,0,0,1,1.861-1.122" transform="translate(-110.974 -99.177)" fill="#263238"/><path d="M252.1,159.579c0,.119-9.518.214-21.258.214s-21.259-.095-21.259-.214,9.516-.214,21.259-.214,21.258.1,21.258.214" transform="translate(-119.012 -99.212)" fill="#263238"/><path d="M232.495,164.987c0,.118-5.054.214-11.288.214s-11.289-.1-11.289-.214,5.054-.214,11.289-.214,11.288.1,11.288.214" transform="translate(-119.072 -100.17)" fill="#263238"/></g><g transform="translate(180.052 57.197)"><path d="M413.9,199.581A32.419,32.419,0,0,1,429.165,219.3c3.969,14.216,16.123,51.242,16.123,51.242s6.945,8.17,7.689,14.22-.744,20.685-2.976,23.414a6.289,6.289,0,0,1-5.416,2.277l-29.232-2.773-11.51-77.076Z" transform="translate(-251.614 -93.942)" fill="#a3314f"/><path d="M292.951,195.723s-20.9,6.556-26.111,12.261l17.115,79.62-.273,25.122h99.1c0-1.24.889-83.41.889-83.41l5.953-32.245-35.222-6.2-6.945-5.457-39.19,1.985-5.953,5.953Z" transform="translate(-227.337 -91.431)" fill="#a3314f"/><g transform="translate(56.416 171.783)" opacity="0.3"><g clip-path="url(#e)"><path d="M304.532,281.554c-.305-.675-.742-1.405-1.468-1.555-1.194-.246-1.992,1.165-2.4,2.315a104.678,104.678,0,0,1-13.018,25.417l-.254,12.225c5.777-4.862,11.474-10.069,15.156-16.66s5.091-14.861,1.982-21.742" transform="translate(-287.395 -279.97)"/></g></g><path d="M258.332,212.845s-6.887,9.389-9.747,15.517S222.029,285.97,220.6,291.281s-5.107,22.063,5.72,25.944h22.267l22.35-45.193,1.143-52.454Z" transform="translate(-218.829 -96.292)" fill="#a3314f"/><path d="M250.887,299.253c-.03.034-.5-.438-1.521-1.021a17.08,17.08,0,0,0-4.674-1.693,22.386,22.386,0,0,0-3.407-.479,13.541,13.541,0,0,0-3.9.254,14.56,14.56,0,0,0-7.5,4.706,20.322,20.322,0,0,0-4.245,7.891A39.308,39.308,0,0,0,224.3,316.2c-.208,2.106-.286,3.821-.36,5-.035.554-.063,1.005-.086,1.364a2.007,2.007,0,0,1-.058.475,2.027,2.027,0,0,1-.028-.478c0-.36,0-.811,0-1.367.022-1.186.054-2.906.225-5.026a37.657,37.657,0,0,1,1.262-7.369,20.382,20.382,0,0,1,4.3-8.063,14.8,14.8,0,0,1,7.731-4.807,13.731,13.731,0,0,1,4.015-.224,21.836,21.836,0,0,1,3.451.538,16.078,16.078,0,0,1,4.691,1.845,7.991,7.991,0,0,1,1.105.819,2.036,2.036,0,0,1,.332.346" transform="translate(-219.704 -110.966)" fill="#263238"/><path d="M243.894,289.054a2.57,2.57,0,0,1,.749-.12,12.7,12.7,0,0,1,2.065-.029,17.083,17.083,0,0,1,3.037.449,18.071,18.071,0,0,1,6.756,3.222,17.007,17.007,0,0,1,2.26,2.078,12.723,12.723,0,0,1,1.278,1.623,2.552,2.552,0,0,1,.378.657c-.066.046-.67-.846-1.875-2.072a19.476,19.476,0,0,0-2.277-1.971,19.352,19.352,0,0,0-6.616-3.155,19.468,19.468,0,0,0-2.965-.53c-1.711-.165-2.785-.072-2.79-.153" transform="translate(-223.271 -109.766)" fill="#263238"/><path d="M262.835,285.9a4.876,4.876,0,0,1-1.03-.078c-.657-.085-1.61-.181-2.789-.268a47.533,47.533,0,0,0-18.213,2.179c-1.124.363-2.028.681-2.647.918a4.766,4.766,0,0,1-.982.319,4.788,4.788,0,0,1,.919-.473c.6-.286,1.493-.649,2.613-1.052a42.106,42.106,0,0,1,18.337-2.194c1.183.127,2.136.269,2.788.4a4.8,4.8,0,0,1,1,.244" transform="translate(-222.08 -109.084)" fill="#263238"/><path d="M339.153,225.969a1.443,1.443,0,0,1-.227-.268l-.606-.814-2.239-3.1-7.756-10.942.346-.049c-1.2,3.524-2.524,7.411-3.917,11.5l-.088.259-.225-.144-.462-.3a23.753,23.753,0,0,1-4.848-4.093,28.864,28.864,0,0,1-3.462-4.787,39.942,39.942,0,0,1-3.81-9.21,62.227,62.227,0,0,1-1.442-6.56q-.2-1.121-.312-1.795c-.037-.2-.079-.355-.1-.459a.517.517,0,0,1-.052-.152,7.514,7.514,0,0,1,.632,2.375c.32,1.549.767,3.8,1.57,6.506a40.848,40.848,0,0,0,3.859,9.1,28.858,28.858,0,0,0,3.432,4.7,23.564,23.564,0,0,0,4.766,4.014l.453.292-.313.114c1.405-4.087,2.741-7.97,3.952-11.49l.126-.367.22.318,7.628,11.032,2.148,3.164.556.849a1.445,1.445,0,0,1,.174.3" transform="translate(-234.976 -93.14)" fill="#263238"/><g transform="translate(129.761 170.839)" opacity="0.3"><g clip-path="url(#f)"><path d="M376.752,278.822a45.013,45.013,0,0,0,5.726,26.7c4.611,8.019,11.367,15.167,19.785,19,.272-8.171-.121-17.8.151-25.968Z" transform="translate(-376.536 -278.822)"/></g></g><path d="M375.255,261.547s-3.6,1-.9,8.374,3.6,6.928,5.4,13.827,3.9,13.194,7.049,17.094,14.848,11.848,14.848,11.848l10.5-9.9s-1.73-7.377-1.316-12.387S412.3,273.1,412.15,271s-2.4-7.2-2.4-7.2v-3.488l-5.4-16.609s-3-1.35-4.049,3.449l-1.8-5.094s-2.849-.455-3.6,5.394.6,13.948.6,13.948L394,271.6l-2.25,6.9-1.95.3s-2.935-.8-4.542-6.325-5.957-12.122-10.006-10.923" transform="translate(-246.211 -101.467)" fill="#ffbe9d"/><path d="M413.715,292.95a1.62,1.62,0,0,1-.049-.378c-.02-.286-.045-.649-.076-1.1-.054-1.006-.129-2.4-.222-4.13-.161-3.582-.387-8.565-.649-14.383l.048.121a2.106,2.106,0,0,0-2.125-.554,3.1,3.1,0,0,0-1.946,1.427c-.917,1.475-.967,3.4-1.254,5.254-.569,4.2-1.112,8.206-1.605,11.854-.25,1.823-.513,3.557-.869,5.161a33.7,33.7,0,0,1-1.3,4.375,36.879,36.879,0,0,0-1.13,3.562,10.941,10.941,0,0,0-.339,2.777,8.69,8.69,0,0,0,.416,2.352,3.355,3.355,0,0,1-.252-.574,6.5,6.5,0,0,1-.33-1.771,10.611,10.611,0,0,1,.272-2.837,34.543,34.543,0,0,1,1.076-3.607,34.446,34.446,0,0,0,1.241-4.351c.337-1.592.586-3.317.824-5.138.484-3.649,1.014-7.654,1.572-11.858.132-.938.234-1.864.4-2.787a7.314,7.314,0,0,1,.926-2.636,3.524,3.524,0,0,1,2.208-1.6,2.506,2.506,0,0,1,2.526.7l.044.054,0,.067c.2,5.82.371,10.806.495,14.389.044,1.734.081,3.127.107,4.135,0,.45.008.815.012,1.1a1.669,1.669,0,0,1-.019.381" transform="translate(-251.291 -106.782)" fill="#eb996e"/><path d="M408.791,271.4a4.249,4.249,0,0,1-.443-.939,23.924,23.924,0,0,1-.879-2.688,27.113,27.113,0,0,1-.755-4.133,12.076,12.076,0,0,1-.044-2.5,5.352,5.352,0,0,1,.905-2.571,3.673,3.673,0,0,1,1.92-1.441l.161-.047.082.145c1.521,2.682,2.841,5.05,3.77,6.754l1.076,2.013a3.473,3.473,0,0,1,.344.755,3.5,3.5,0,0,1-.475-.68l-1.186-1.951c-.994-1.666-2.36-4.007-3.9-6.681l.243.1a3.273,3.273,0,0,0-1.689,1.284,5,5,0,0,0-.838,2.37,12.045,12.045,0,0,0,.021,2.421,30.428,30.428,0,0,0,.655,4.1c.265,1.154.546,2.072.742,2.705a5.515,5.515,0,0,1,.286.995" transform="translate(-252.107 -104.13)" fill="#eb996e"/><path d="M406.113,270.9a4.142,4.142,0,0,1-.1-.956c-.029-.708-.064-1.58-.106-2.611-.071-2.205-.139-5.25-.188-8.616a74.166,74.166,0,0,1,.133-8.632,13.214,13.214,0,0,1,.563-2.569,3.211,3.211,0,0,1,.385-.885,24.243,24.243,0,0,0-.647,3.485c-.209,2.179-.031,5.228-.006,8.594.049,3.364.069,6.411.062,8.617-.012,1.031-.022,1.9-.03,2.612a4.17,4.17,0,0,1-.07.959" transform="translate(-251.938 -102.279)" fill="#eb996e"/><path d="M395.418,306.077c-.061-.05.6-.824,1.409-2.226a18.539,18.539,0,0,0,1.221-2.561,18.321,18.321,0,0,0,1.227-6.8,18.448,18.448,0,0,0-.248-2.826c-.271-1.6-.616-2.551-.541-2.577a2.275,2.275,0,0,1,.3.649,11.936,11.936,0,0,1,.54,1.872,16.091,16.091,0,0,1,.346,2.875,17.061,17.061,0,0,1-1.255,6.948,16.134,16.134,0,0,1-1.329,2.573,11.908,11.908,0,0,1-1.161,1.564c-.305.344-.485.523-.507.5" transform="translate(-250.12 -109.803)" fill="#eb996e"/><path d="M416.033,303.464l9.111,3.162s8.7-4.5,14.7,0,11.21,16.358,9.56,21.157c0,0-4.14,5.111-7.29,5.862s-15.394-2.217-20.488-3.289-13.878-6.782-13.878-6.782Z" transform="translate(-252.306 -112.35)" fill="#ffbe9d"/><path d="M419.071,315.351a2.988,2.988,0,0,1-.1-.806c-.036-.617-.08-1.349-.13-2.2-.1-1.86-.222-4.43-.26-7.274a71.9,71.9,0,0,1,.211-7.286c.08-.93.182-1.68.275-2.194a2.92,2.92,0,0,1,.189-.791c.067.011-.075,1.152-.162,3.007s-.127,4.421-.084,7.259c.051,2.78.1,5.295.134,7.269.011.931.008,1.686-.007,2.207a2.98,2.98,0,0,1-.069.81" transform="translate(-254.224 -110.815)" fill="#eb996e"/><path d="M450.348,305.476a28.811,28.811,0,0,0-3.03-2.732,16.667,16.667,0,0,0-18.469-1.018,28.75,28.75,0,0,0-3.311,2.382,4.548,4.548,0,0,1,.75-.813,14.789,14.789,0,0,1,2.406-1.829A16.376,16.376,0,0,1,447.5,302.5a14.783,14.783,0,0,1,2.189,2.083,4.563,4.563,0,0,1,.657.891" transform="translate(-255.458 -111.557)" fill="#263238"/><path d="M448.584,296.9a17.867,17.867,0,0,0-3.791-2.09,16.77,16.77,0,0,0-10.257-.309,23.888,23.888,0,0,0-5.3,2.208,25.186,25.186,0,0,0-3.842,2.715c-1.023.872-1.8,1.633-2.341,2.164a6.653,6.653,0,0,1-.858.8,5.858,5.858,0,0,1,.737-.918,28.735,28.735,0,0,1,2.262-2.277,23.6,23.6,0,0,1,3.844-2.828,23.074,23.074,0,0,1,5.387-2.278,16.455,16.455,0,0,1,10.482.439,12.037,12.037,0,0,1,2.8,1.582,7.666,7.666,0,0,1,.667.567c.146.136.219.212.209.223" transform="translate(-254.865 -110.574)" fill="#263238"/><path d="M448.285,289.325c-.023.085-1.616-.4-4.261-.76a34.212,34.212,0,0,0-4.67-.3,33.912,33.912,0,0,0-11.236,1.977,34.3,34.3,0,0,0-4.288,1.873c-2.365,1.24-3.7,2.241-3.745,2.17a5.98,5.98,0,0,1,.912-.73,13.117,13.117,0,0,1,1.131-.773c.454-.281.959-.625,1.558-.933a30.913,30.913,0,0,1,4.3-1.977,32.173,32.173,0,0,1,11.37-2,30.96,30.96,0,0,1,4.714.391c.669.085,1.261.236,1.784.346a12.706,12.706,0,0,1,1.327.341,6.039,6.039,0,0,1,1.107.374" transform="translate(-254.492 -109.587)" fill="#263238"/><path d="M364.7,191.714a7.617,7.617,0,0,1,.631,2.422,23.632,23.632,0,0,1-.346,7.067,42.07,42.07,0,0,1-1.177,4.926,37.369,37.369,0,0,1-2.393,5.472c-1.962,3.784-4.432,7.91-7.292,12.312l-.334.514v-.615c0-2.908-.009-5.96-.014-9.129l.32.153-7.684,6.2.067-.1a80.906,80.906,0,0,0-3.418,18.47c-.752,10.013-.146,19.59.327,28.279.406,8.7.67,16.536.941,23.115s.5,11.9.7,15.578c.108,1.822.192,3.243.25,4.232.031.468.056.833.073,1.1.014.248.011.376.011.376s-.026-.125-.054-.372c-.028-.267-.066-.63-.115-1.1-.091-.965-.209-2.391-.331-4.228-.249-3.675-.533-9-.833-15.575s-.643-14.415-1.033-23.108c-.494-8.681-1.114-18.279-.36-28.331a80.746,80.746,0,0,1,3.452-18.566l.018-.059.049-.039,7.7-6.187.321-.258v.411c0,3.169-.01,6.221-.014,9.129l-.335-.1c5.652-8.765,10.25-16.383,10.957-22.545a24.356,24.356,0,0,0,.444-7.017,11.875,11.875,0,0,0-.337-1.823c-.129-.4-.183-.612-.183-.612" transform="translate(-240.704 -92.548)" fill="#263238"/><path d="M351.039,320.708l-.294-.01a2.319,2.319,0,1,0,.294.01" transform="translate(-241.806 -115.404)" fill="#fff"/><path d="M351.039,282.166l-.294-.01a2.319,2.319,0,1,0,.294.01" transform="translate(-241.806 -108.574)" fill="#fff"/><path d="M350.731,246.688a2.321,2.321,0,0,0,.308-4.63l-.294-.011a2.321,2.321,0,0,0-.014,4.641" transform="translate(-241.806 -101.467)" fill="#fff"/><path d="M305.726,133.2a57.68,57.68,0,0,1-7.9-10.177c-2.1-3.755-3.356-8.137-2.66-12.384.406-2.483,1.462-4.85,1.63-7.36.23-3.456-1.222-7.066,0-10.306,1.915-5.062,8.729-5.844,12.86-9.341,3.217-2.723,4.784-7.145,8.323-9.435,3.092-2,7.065-1.957,10.71-1.442s7.315,1.436,10.965.945c2.6-.35,5.052-1.4,7.6-2.033s5.391-.8,7.661.522,3.545,4.541,2.056,6.7c4.229-1.95,9.6,1.346,10.759,5.858s-1.159,9.385-4.743,12.359-8.219,4.359-12.8,5.222c-12.958,2.442-27.013,1.064-38.179-5.949" transform="translate(-232.322 -71.191)" fill="#263238"/><path d="M353.15,178.954c-.633-4.906-1.15-9-1.182-9.506,0,0,16.392-3.684,15.488-20.257-.437-8.01-2.679-24.435-4.879-39.27a30.918,30.918,0,0,0-32.654-26.293l-1.6.107c-17.163,2.159-24.917,17.941-22.284,35.037L315.3,176.1s3.952,12.681,12.4,14.876l10.668,15.238,1.763-6.559,7.952-6.922a31.326,31.326,0,0,0,3.92-5.835,12.771,12.771,0,0,0,1.144-7.941" transform="translate(-234.194 -73.382)" fill="#ffbe9d"/><path d="M357.243,186.644a38.6,38.6,0,0,1-22-4.692s5.9,11.577,22.326,8.98Z" transform="translate(-239.458 -90.818)" fill="#eb996e"/><path d="M367.372,132.48a2.37,2.37,0,0,1-2.12,2.538,2.268,2.268,0,0,1-2.581-1.969,2.372,2.372,0,0,1,2.119-2.54,2.268,2.268,0,0,1,2.583,1.971" transform="translate(-244.316 -81.699)" fill="#263238"/><path d="M369.182,125.3c-.272.327-2.152-.879-4.7-.7-2.544.14-4.324,1.574-4.62,1.281-.146-.129.116-.705.889-1.352a6.5,6.5,0,0,1,3.674-1.407,6.24,6.24,0,0,1,3.765.943c.823.548,1.125,1.088.99,1.236" transform="translate(-243.814 -80.39)" fill="#263238"/><path d="M338.153,134.569a2.37,2.37,0,0,1-2.121,2.538,2.266,2.266,0,0,1-2.58-1.969,2.372,2.372,0,0,1,2.119-2.54,2.269,2.269,0,0,1,2.583,1.971" transform="translate(-239.139 -82.069)" fill="#263238"/><path d="M338.818,127.905c-.273.328-2.156-.878-4.7-.7-2.544.141-4.325,1.575-4.622,1.281-.144-.128.114-.7.891-1.351a6.5,6.5,0,0,1,3.674-1.408,6.249,6.249,0,0,1,3.765.943c.82.548,1.124,1.089.99,1.236" transform="translate(-238.433 -80.852)" fill="#263238"/><path d="M353.031,146.015c-.021-.144,1.542-.523,4.084-1.022.645-.111,1.251-.281,1.331-.732a3.309,3.309,0,0,0-.563-1.9q-1.074-2.3-2.253-4.821c-3.14-6.866-5.459-12.53-5.182-12.655s3.048,5.341,6.188,12.209q1.139,2.541,2.175,4.855a3.773,3.773,0,0,1,.508,2.528,1.633,1.633,0,0,1-1,1.022,4.42,4.42,0,0,1-1.094.227c-2.57.312-4.17.43-4.19.286" transform="translate(-242.148 -80.706)" fill="#263238"/><path d="M338.336,115.858c-.2.708-2.768.55-5.729,1.111-2.974.5-5.323,1.535-5.76.941-.2-.286.18-.965,1.108-1.7a10.146,10.146,0,0,1,8.753-1.562c1.126.368,1.714.875,1.628,1.21" transform="translate(-237.961 -78.822)" fill="#263238"/><path d="M367.588,116.384c-.409.608-2.2.125-4.312.238-2.114.039-3.867.649-4.319.072-.2-.281.043-.879.786-1.479a6.254,6.254,0,0,1,6.955-.249c.784.545,1.069,1.123.89,1.419" transform="translate(-243.648 -78.782)" fill="#263238"/><path d="M306.514,141.084c-.29-.1-11.6-2.6-10.485,8.693s13.363,7.616,13.35,7.29-2.865-15.983-2.865-15.983" transform="translate(-232.495 -83.522)" fill="#ffbe9d"/><path d="M305,154.185c-.053-.031-.183.157-.5.343a1.975,1.975,0,0,1-1.468.175c-1.237-.32-2.43-2.115-2.686-4.145a6.544,6.544,0,0,1,.272-2.873,2.283,2.283,0,0,1,1.33-1.657,1.007,1.007,0,0,1,1.215.425c.182.3.133.533.2.547.035.025.224-.213.086-.671a1.262,1.262,0,0,0-.515-.663,1.491,1.491,0,0,0-1.117-.18,2.78,2.78,0,0,0-1.883,1.955,6.723,6.723,0,0,0-.37,3.217c.3,2.269,1.674,4.284,3.355,4.595a2.118,2.118,0,0,0,1.77-.477c.323-.314.357-.573.316-.589" transform="translate(-233.126 -84.349)" fill="#eb996e"/><path d="M361.349,93.866c-.776,4.5-9.9,8.618-17.46,8.4-6.972-.2-10.415-3.662-15.481-6.121-3.206-1.556-3.206-1.556-7.557-.849-3.517.572-5.343,4.723-7.319,7.689,3.763,8.2,2.242,17.741.648,26.623a4.508,4.508,0,0,1-1.144,2.7c-1.27,1.12-3.329.449-4.579-.694-2-1.831-2.909-4.546-3.565-7.176a46.679,46.679,0,0,1-1.119-18.372,31.78,31.78,0,0,1,7.643-16.588A30.11,30.11,0,0,1,331.954,80.1a36.974,36.974,0,0,1,21.907,6.22,21.664,21.664,0,0,1,7.488,7.544" transform="translate(-233.799 -72.762)" fill="#263238"/><path d="M353.667,156.884l-5.759-2.686a1.938,1.938,0,0,0-1.047-.264,1.675,1.675,0,0,0-1,.676,5.356,5.356,0,0,0-.638,5.885,4.5,4.5,0,0,0,5.4,1.987c2.041-.845,3.033-3.215,3.192-5.419Z" transform="translate(-241.119 -85.851)" fill="#eb996e"/><path d="M350.661,162.731c.016.049-.267.216-.843.336a4.982,4.982,0,0,1-2.477-.183,5.165,5.165,0,0,1-2.86-2.376,5.309,5.309,0,0,1-.351-4.542,5.548,5.548,0,0,1,1.336-2.014,5.128,5.128,0,0,1,.934-.706,1.4,1.4,0,0,1,1.333-.082,8.349,8.349,0,0,1,.9.509l.786.482,1.4.877a12.572,12.572,0,0,1,2.675,1.908,12.594,12.594,0,0,1-2.98-1.385l-1.455-.787-.806-.444a8.936,8.936,0,0,0-.815-.429.607.607,0,0,0-.629.06,4.51,4.51,0,0,0-.758.6,4.89,4.89,0,0,0-1.12,1.717,4.649,4.649,0,0,0,.244,3.856,4.755,4.755,0,0,0,2.38,2.188,5.634,5.634,0,0,0,2.23.418c.549-.013.86-.067.878,0" transform="translate(-240.97 -85.693)" fill="#263238"/><path d="M344.808,130.675a20.372,20.372,0,0,0-.45-2.861,11.755,11.755,0,0,0-4.3-6.4,11.611,11.611,0,0,0-11-1.637,11.634,11.634,0,0,0-5.38,4.046,11.544,11.544,0,0,0,0,13.7,11.625,11.625,0,0,0,5.381,4.047,11.7,11.7,0,0,0,15.3-8.035,20.355,20.355,0,0,0,.45-2.86.637.637,0,0,1,.012.192c0,.152,0,.337-.007.563a5.419,5.419,0,0,1-.072.913,8.342,8.342,0,0,1-.221,1.233,11.152,11.152,0,0,1-1.276,3.185,11.915,11.915,0,0,1-8.024,5.679,12,12,0,0,1-6.3-.5,11.984,11.984,0,0,1-5.585-4.17,11.926,11.926,0,0,1,0-14.2,11.993,11.993,0,0,1,5.584-4.169,11.992,11.992,0,0,1,6.3-.5,11.911,11.911,0,0,1,8.024,5.678,11.142,11.142,0,0,1,1.277,3.185,8.332,8.332,0,0,1,.221,1.233,5.413,5.413,0,0,1,.072.913c0,.225.006.411.007.563a.637.637,0,0,1-.012.192" transform="translate(-236.933 -79.61)" fill="#263238"/><path d="M379.183,129.395a20.347,20.347,0,0,0-.44-2.787,11.46,11.46,0,0,0-4.192-6.231,11.309,11.309,0,0,0-10.714-1.595,11.32,11.32,0,0,0-5.24,3.941,11.242,11.242,0,0,0,0,13.342,11.337,11.337,0,0,0,5.241,3.942,11.4,11.4,0,0,0,14.906-7.826,20.348,20.348,0,0,0,.44-2.787,4.677,4.677,0,0,1,.006.736,5.289,5.289,0,0,1-.069.89,8.094,8.094,0,0,1-.216,1.2,11.573,11.573,0,0,1-9.063,8.641,11.688,11.688,0,0,1-6.139-.485,11.69,11.69,0,0,1-5.444-4.065,11.628,11.628,0,0,1,0-13.839,11.688,11.688,0,0,1,5.444-4.064,11.685,11.685,0,0,1,6.138-.485,11.575,11.575,0,0,1,9.064,8.641,8.075,8.075,0,0,1,.216,1.2,5.289,5.289,0,0,1,.069.89,4.677,4.677,0,0,1-.006.736" transform="translate(-243.132 -79.437)" fill="#263238"/><path d="M355,128.464c-.046.048-.318-.181-.819-.418a4.714,4.714,0,0,0-2.072-.455,4.655,4.655,0,0,0-2.055.527c-.49.256-.752.5-.8.451s.151-.36.643-.709a4.065,4.065,0,0,1,4.432-.077c.5.328.709.648.671.682" transform="translate(-241.939 -81.109)" fill="#263238"/><path d="M319.845,131.215a50.874,50.874,0,0,1-5.156,4.116,50.922,50.922,0,0,1-5.412,3.774,50.829,50.829,0,0,1,5.156-4.117,50.881,50.881,0,0,1,5.412-3.773" transform="translate(-234.856 -81.827)" fill="#263238"/><g transform="translate(75.069 102.94)" opacity="0.3"><g clip-path="url(#g)"><path d="M310.249,196.3c-1.145,11.167,3.1,22.954,12.057,29.72a2.725,2.725,0,0,0,2.413.758,2.654,2.654,0,0,0,1.25-1.289,21.81,21.81,0,0,0,2.67-14.348c-1.418,3.735-2.635,7.4-4.067,11.307-7.8-4.738-12.668-14.813-14.323-26.148" transform="translate(-310.066 -196.301)"/></g></g><g transform="translate(105.572 101.919)" opacity="0.3"><g clip-path="url(#h)"><path d="M347.138,221.47l6.571-2.4,1.089,11.115s7.092-12.925,10.027-18.822,1.425-16.3,1.425-16.3,1.05,9.065-6.057,20.628l-5.364,8.718v-9.13Z" transform="translate(-347.138 -195.059)"/></g></g><g transform="translate(5.943 183.458)" opacity="0.3"><g clip-path="url(#i)"><path d="M249.229,295.523a17.568,17.568,0,0,0-9.522-1.195,18.363,18.363,0,0,0-9.478,3.587,10.578,10.578,0,0,0-4.138,8.944l.329.047c2.292-6.206,6.854-10.723,12.736-11.268a19.32,19.32,0,0,1,15.658,6.382c-.392-3.217-2.654-5.113-5.585-6.5" transform="translate(-226.052 -294.159)"/></g></g><g transform="translate(170.989 186.527)" opacity="0.3"><g clip-path="url(#j)"><path d="M450.967,302.53a15.055,15.055,0,0,0-8.488-4.373,19.076,19.076,0,0,0-15.836,4.584l1.254-1.017a19.971,19.971,0,0,1,10.546-2.866,15.267,15.267,0,0,1,10.053,4.016c2.456,2.341,3.933,5.5,5.342,8.588a10.764,10.764,0,0,0-2.87-8.932" transform="translate(-426.643 -297.889)"/></g></g><path d="M404.717,235.953a4.017,4.017,0,0,1,.295-.9l.935-2.392c.8-2.016,1.888-4.8,3.041-7.9s2.148-5.923,2.863-7.969l.856-2.421a4.013,4.013,0,0,1,.364-.872,4.028,4.028,0,0,1-.2.922c-.158.587-.406,1.429-.727,2.465-.642,2.073-1.594,4.919-2.748,8.024s-2.294,5.878-3.163,7.868c-.434.994-.8,1.794-1.061,2.341a4.049,4.049,0,0,1-.448.833" transform="translate(-251.768 -96.408)" fill="#263238"/><path d="M277.875,237.985c-.116.024-1.01-3.892-2-8.745s-1.693-8.807-1.577-8.831,1.01,3.891,2,8.746,1.693,8.806,1.577,8.83" transform="translate(-228.657 -97.633)" fill="#263238"/><path d="M276.111,289.713c.26.132-3.015-25.64-3.015-25.64s2.067-19.557,3.229-20.462l.03-6.9s3.2-1.938,4.057,1.191c0,0,2.836-2.463,3.332,3.4s.6,11.853.6,11.853l6.313,15.785,1.039.525s1.356-12.366,2.145-14.186,1.33-6.245,4.322-5.581,3.242,3.14,2.7,7.175-1.208,8.2-.959,10.8,1.433,8.342,1.07,12.9-2.859,9.364-5.478,12.739-7.622,10.354-10.342,12.457c-.95.734-9.047-16.058-9.047-16.058" transform="translate(-228.445 -100.416)" fill="#ffbe9d"/><path d="M280.024,270.428a5.471,5.471,0,0,1,.017-1.1c.053-.792.123-1.8.206-2.993.192-2.527.487-6.014.841-9.863.181-1.92.355-3.748.513-5.425a9.674,9.674,0,0,0,.029-2.327,3.3,3.3,0,0,0-.787-1.778,3.544,3.544,0,0,0-2.577-1.131,6.787,6.787,0,0,0-1.075.137c0-.013.081-.059.257-.135a2.818,2.818,0,0,1,.813-.169,3.492,3.492,0,0,1,3.721,3.021,9.756,9.756,0,0,1,.013,2.417c-.148,1.678-.311,3.508-.48,5.429-.352,3.849-.7,7.331-.966,9.851-.137,1.194-.251,2.194-.341,2.982a5.628,5.628,0,0,1-.183,1.088" transform="translate(-229.171 -102.102)" fill="#eb996e"/><path d="M283.977,262.958a8.9,8.9,0,0,0-1.117,2.035,34.37,34.37,0,0,0-1.05,5.562c-.34,2.2-.671,4.195-.932,5.632a12.982,12.982,0,0,1-.51,2.314,12.99,12.99,0,0,1,.211-2.36c.184-1.45.468-3.448.809-5.651a26.557,26.557,0,0,1,1.19-5.607,5.337,5.337,0,0,1,.913-1.5c.276-.312.474-.437.488-.421" transform="translate(-229.731 -105.172)" fill="#eb996e"/><path d="M281.935,237.874a3.183,3.183,0,0,1,.22.81c.115.527.258,1.293.416,2.245.314,1.9.658,4.544.876,7.478s.263,5.6.231,7.528c-.015.963-.044,1.743-.081,2.281a3.149,3.149,0,0,1-.1.834,27.422,27.422,0,0,1-.124-3.113c-.045-1.921-.141-4.574-.355-7.5s-.513-5.56-.75-7.468a27.391,27.391,0,0,1-.335-3.1" transform="translate(-230.009 -100.727)" fill="#eb996e"/><path d="M303.25,266.989a2.3,2.3,0,0,1-2.126.18c-1.208-.36-1.77-1.289-1.664-1.335a5.575,5.575,0,0,0,3.79,1.155" transform="translate(-233.115 -105.681)" fill="#eb996e"/><path d="M268.806,297.361l-16.677,7.009h-9.936s-9.827,3.067-11.34,12.279-1.728,13.955,2.592,15.093,16.524,1.266,22.573-.741,21.891-14.791,21.891-14.791l1.527-9.248Z" transform="translate(-220.785 -111.269)" fill="#ffbe9d"/><path d="M280.858,306.475c-.021.02-.188-.135-.474-.435a10.317,10.317,0,0,1-1.084-1.377,18.862,18.862,0,0,1-2.329-5.275,31.27,31.27,0,0,1-1.027-5.667,10.606,10.606,0,0,1-.065-2.383,17.294,17.294,0,0,1,.365,2.348,42.435,42.435,0,0,0,1.139,5.584,22.045,22.045,0,0,0,2.174,5.231c.75,1.246,1.36,1.921,1.3,1.975" transform="translate(-228.932 -110.201)" fill="#eb996e"/><path d="M289.137,308.369a17.2,17.2,0,0,0,.95-3.575,11.518,11.518,0,0,0-2.24-8.369c-1.013-1.42-2.152-2.656-3.112-3.852a17.85,17.85,0,0,1-2.254-3.408,8.937,8.937,0,0,1-.836-2.63,3.032,3.032,0,0,1-.029-1.01,11.421,11.421,0,0,0,1.135,3.5,19.092,19.092,0,0,0,2.29,3.3c.967,1.172,2.12,2.4,3.156,3.854a12.013,12.013,0,0,1,2.08,4.562,11.63,11.63,0,0,1,.111,4.1,10.558,10.558,0,0,1-.764,2.649,5.981,5.981,0,0,1-.337.669c-.086.148-.137.222-.15.216" transform="translate(-229.951 -109.171)" fill="#eb996e"/><path d="M257.847,261.258a83.264,83.264,0,0,1-4.064-7.394,83.055,83.055,0,0,1-3.684-7.591,83.189,83.189,0,0,1,4.065,7.394,83.249,83.249,0,0,1,3.683,7.59" transform="translate(-224.37 -102.216)" fill="#fff"/><path d="M292.294,225.377a51.953,51.953,0,0,1,2.512-6.164,51.733,51.733,0,0,1,2.9-5.991,51.772,51.772,0,0,1-2.512,6.165,51.84,51.84,0,0,1-2.9,5.99" transform="translate(-231.846 -96.359)" fill="#fff"/><path d="M322.836,249.8a37.575,37.575,0,0,1-3.779-4.229,37.67,37.67,0,0,1-3.45-4.5,75.095,75.095,0,0,1,7.229,8.732" transform="translate(-235.978 -101.292)" fill="#fff"/><path d="M317.008,282.454a61.918,61.918,0,0,1,6.043-8.333,61.971,61.971,0,0,1-6.043,8.333" transform="translate(-236.226 -107.15)" fill="#fff"/><path d="M305.971,327.675a7.974,7.974,0,0,1-.966-1.653c-.541-1.05-1.241-2.524-1.946-4.181s-1.279-3.186-1.66-4.3a7.989,7.989,0,0,1-.519-1.843,9.072,9.072,0,0,1,.8,1.735l1.771,4.243c.678,1.57,1.293,2.989,1.825,4.221a9.072,9.072,0,0,1,.692,1.781" transform="translate(-233.367 -114.517)" fill="#fff"/><path d="M333.177,310.279a59.571,59.571,0,0,1-9.909-1.918,59.573,59.573,0,0,1,9.909,1.918" transform="translate(-237.336 -113.214)" fill="#fff"/><path d="M357.212,265.423a122.307,122.307,0,0,1,9.841-10.612,61.459,61.459,0,0,1-4.763,5.452,61.5,61.5,0,0,1-5.077,5.161" transform="translate(-243.351 -103.728)" fill="#fff"/><path d="M376.759,322.021c-.091.075-2.752-3-5.942-6.877s-5.7-7.074-5.612-7.149,2.751,3,5.943,6.877,5.7,7.074,5.611,7.149" transform="translate(-244.767 -113.153)" fill="#fff"/><path d="M240.394,300.6c.06.118-2.371,1.351-5.02,3.383s-4.492,4.037-4.59,3.947a6.183,6.183,0,0,1,1.119-1.4,26.654,26.654,0,0,1,6.846-5.223,6.212,6.212,0,0,1,1.645-.71" transform="translate(-220.947 -111.842)" fill="#fff"/><path d="M249.792,278.508a34.071,34.071,0,0,1-4.222,6.349,34.069,34.069,0,0,1,4.222-6.349" transform="translate(-223.566 -107.927)" fill="#fff"/><path d="M268.9,298.693a10.878,10.878,0,0,1-1.6-7.032c.128,0,.17,1.624.617,3.558s1.1,3.42.981,3.475" transform="translate(-227.398 -110.259)" fill="#fff"/><path d="M270.64,231.276a24.463,24.463,0,0,1-6.4.91,24.474,24.474,0,0,1,6.4-.91" transform="translate(-226.876 -99.55)" fill="#fff"/><path d="M284.721,206.559a25.351,25.351,0,0,1-5.757,3.191,25.353,25.353,0,0,1,5.757-3.191" transform="translate(-229.485 -95.176)" fill="#fff"/><path d="M323.874,215.306a28.774,28.774,0,0,1-3.174-3.814,28.8,28.8,0,0,1-2.834-4.074,28.649,28.649,0,0,1,3.174,3.814,28.96,28.96,0,0,1,2.833,4.073" transform="translate(-236.378 -95.33)" fill="#fff"/><path d="M373.868,240.147a20.155,20.155,0,0,1-4.978-8c.117-.05,1,1.869,2.379,4.07s2.7,3.849,2.6,3.931" transform="translate(-245.419 -99.712)" fill="#fff"/><path d="M393.121,248.132a48.891,48.891,0,0,1-3.782,8.335,48.9,48.9,0,0,1,3.782-8.335" transform="translate(-249.042 -102.545)" fill="#fff"/><path d="M394.874,220.135a45.527,45.527,0,0,1-4.157-4.66,45.586,45.586,0,0,1-3.828-4.935,91.195,91.195,0,0,1,7.984,9.6" transform="translate(-248.609 -95.883)" fill="#fff"/><path d="M367.488,199.418a18.826,18.826,0,0,1-.372-3.987,18.936,18.936,0,0,1,.057-4,18.844,18.844,0,0,1,.372,3.988,18.868,18.868,0,0,1-.057,4" transform="translate(-245.097 -92.497)" fill="#fff"/><path d="M389.034,199.82a62.23,62.23,0,0,1-10.217,1.367,62.028,62.028,0,0,1,10.217-1.367" transform="translate(-247.179 -93.978)" fill="#fff"/><path d="M427.261,224.646a50.584,50.584,0,0,1-3.057-5.826,50.661,50.661,0,0,1-2.672-6.014,50.655,50.655,0,0,1,3.057,5.827,50.7,50.7,0,0,1,2.671,6.013" transform="translate(-254.748 -96.285)" fill="#fff"/><path d="M422.217,248.847a52.359,52.359,0,0,1,1.854-9.283,52.351,52.351,0,0,1-1.854,9.283" transform="translate(-254.866 -101.027)" fill="#fff"/><path d="M438.539,266.736a53.506,53.506,0,0,1-2.44-6.322,53.519,53.519,0,0,1-2.036-6.464,53.865,53.865,0,0,1,2.44,6.322,53.661,53.661,0,0,1,2.036,6.464" transform="translate(-256.968 -103.576)" fill="#fff"/><path d="M435.445,279.5a14.454,14.454,0,0,1-7.672-4.156c.084-.1,1.6,1.154,3.72,2.294s3.989,1.738,3.952,1.862" transform="translate(-255.854 -107.366)" fill="#fff"/><path d="M458.682,304.022a23.265,23.265,0,0,1-2.56-5.753,23.188,23.188,0,0,1,2.56,5.753" transform="translate(-260.876 -111.429)" fill="#fff"/><path d="M328.283,338.358a31.943,31.943,0,0,1-.853-7.336,31.952,31.952,0,0,1,.853,7.336" transform="translate(-238.065 -117.233)" fill="#fff"/><path d="M396.4,336.707a30.268,30.268,0,0,1,1.5-7.037,30.244,30.244,0,0,1-1.5,7.037" transform="translate(-250.29 -116.994)" fill="#fff"/></g><g clip-path="url(#b)"><path d="M409.432,125.507l7.227-12.638a33.443,33.443,0,0,1-5.045-17.7,33.98,33.98,0,1,1,13.219,26.725l.012.016Z" transform="translate(-72.552 -11.264)" fill="#fafafa"/><path d="M409.432,125.471l15.436-3.5.158-.036-.1-.128-.012-.016-.147.145a34.967,34.967,0,0,0,7.008,4.193,34.4,34.4,0,0,0,9.345,2.648,30.9,30.9,0,0,0,5.4.27c.929-.052,1.874-.074,2.826-.153l2.88-.432a34.415,34.415,0,0,0,21.3-13.566,33.587,33.587,0,0,0,5.76-13.064,34.2,34.2,0,0,0-.4-15.043,33.268,33.268,0,0,0-7.3-13.908l-1.392-1.519c-.457-.511-1-.932-1.5-1.4-.519-.443-.987-.945-1.545-1.337L465.5,67.411a14.4,14.4,0,0,0-1.693-1.112l-1.73-1.042-1.809-.872a15.974,15.974,0,0,0-1.827-.807,35.022,35.022,0,0,0-15.277-2.328,33.819,33.819,0,0,0-14.022,4.112,34.358,34.358,0,0,0-16.176,19.752,36.29,36.29,0,0,0-1.481,11,33.39,33.39,0,0,0,1.669,9.5,34.153,34.153,0,0,0,3.418,7.277l0-.1-7.139,12.687,7.315-12.588.03-.051-.031-.051a34.22,34.22,0,0,1-3.354-7.248,33.285,33.285,0,0,1-1.614-9.428,36.075,36.075,0,0,1,1.5-10.894A34.065,34.065,0,0,1,429.33,65.7a33.46,33.46,0,0,1,13.865-4.046,34.643,34.643,0,0,1,15.092,2.312,15.721,15.721,0,0,1,1.8.8l1.788.862,1.707,1.03a14.246,14.246,0,0,1,1.672,1.1l1.616,1.2c.551.386,1.013.883,1.525,1.321.49.464,1.029.879,1.481,1.384l1.374,1.5a32.891,32.891,0,0,1,7.219,13.736,33.863,33.863,0,0,1,.409,14.863,33.234,33.234,0,0,1-5.677,12.919,34.1,34.1,0,0,1-21.046,13.466l-2.85.436c-.944.081-1.88.106-2.8.161a30.643,30.643,0,0,1-5.349-.25,34.227,34.227,0,0,1-9.28-2.588,34.949,34.949,0,0,1-6.984-4.125l-.635-.482.487.627.012.015.059-.164-15.389,3.7" transform="translate(-72.552 -11.228)" fill="#263238"/><path d="M464.669,100.3a3.33,3.33,0,1,0,3.329-3.3,3.316,3.316,0,0,0-3.329,3.3" transform="translate(-82.34 -17.806)" fill="#263238"/><path d="M448.476,100.3a3.33,3.33,0,1,0,3.329-3.3,3.316,3.316,0,0,0-3.329,3.3" transform="translate(-79.471 -17.806)" fill="#263238"/><path d="M432.228,98.645a3.291,3.291,0,0,0,1.219,4.513,3.344,3.344,0,0,0,4.548-1.21,3.29,3.29,0,0,0-1.219-4.512,3.345,3.345,0,0,0-4.548,1.209" transform="translate(-76.513 -17.806)" fill="#263238"/></g></g></g></svg>