<svg xmlns="http://www.w3.org/2000/svg" xmlns:xlink="http://www.w3.org/1999/xlink" width="73.454" height="59.975" viewBox="0 0 73.454 59.975">
  <defs>
    <clipPath id="clip-path">
      <path id="Trazado_114221" data-name="Trazado 114221" d="M1.72,21.274C.726,27.068,3.153,46.465,5.562,45.986s6.288-21.111,5.671-23.95c-.31-1.428-3.419-2.641-5.208-2.826a4.509,4.509,0,0,0-.462-.023c-1.7,0-3.638.895-3.843,2.088" transform="translate(-1.491 -19.186)" fill="none"/>
    </clipPath>
    <clipPath id="clip-path-2">
      <path id="Trazado_114221-2" data-name="Trazado 114221" d="M1.91,23.014C.087,33.642,4.539,69.214,8.957,68.335s11.532-38.715,10.4-43.923c-.569-2.619-6.27-4.844-9.552-5.184a8.27,8.27,0,0,0-.848-.042c-3.117,0-6.671,1.641-7.047,3.828" transform="translate(-1.491 -19.186)" fill="none"/>
    </clipPath>
  </defs>
  <g id="Grupo_891229" data-name="Grupo 891229" transform="translate(-959.268 -384.641)">
    <g id="Grupo_80175" data-name="Grupo 80175" transform="matrix(0.719, 0.695, -0.695, 0.719, 465.565, -768.953)">
      <g id="Grupo_80159" data-name="Grupo 80159" transform="translate(1212.494 449.08)">
        <g id="Grupo_80170" data-name="Grupo 80170" transform="translate(0 0)">
          <g id="Grupo_80171" data-name="Grupo 80171">
            <path id="Trazado_114214" data-name="Trazado 114214" d="M5.967,12.328S2.024,6.288,4.233,1.281c0,0,3.212,4.754,2.688,9.023,0,0,.673-4.458,4.2-6.405a13,13,0,0,1-4,8.631Z" transform="translate(-1.505 -1.281)" fill="#e2de85"/>
            <path id="Trazado_114215" data-name="Trazado 114215" d="M4.731,15.009S-.523,10.607.043,6.883a16.164,16.164,0,0,1,4.77,6.478S3.8,8.467,5.859,5.6c0,0,2.2,4.521.159,7.962a7.331,7.331,0,0,1,5.009-3.191,11.271,11.271,0,0,1-6.3,4.635" transform="translate(0 -3.107)" fill="#b0b855"/>
            <path id="Trazado_114216" data-name="Trazado 114216" d="M1.72,21.274c.223-1.3,2.514-2.25,4.3-2.064s4.9,1.4,5.209,2.826c.617,2.84-3.262,23.471-5.671,23.95S.726,27.069,1.72,21.274" transform="translate(-0.63 -8.85)" fill="#ed6f29"/>
          </g>
        </g>
      </g>
      <g id="Grupo_80160" data-name="Grupo 80160" transform="translate(1213.355 459.416)" clip-path="url(#clip-path)">
        <path id="Trazado_114217" data-name="Trazado 114217" d="M7.57,25.8a9.031,9.031,0,0,0-6.527,1.781" transform="translate(-1.302 -21.96)" fill="none" stroke="#c9551b" stroke-linecap="round" stroke-miterlimit="10" stroke-width="2"/>
        <path id="Trazado_114218" data-name="Trazado 114218" d="M6.6,35.683a6.061,6.061,0,0,0-5.059,1.339" transform="translate(-1.513 -26.113)" fill="none" stroke="#c9551b" stroke-linecap="round" stroke-miterlimit="10" stroke-width="2"/>
        <path id="Trazado_114219" data-name="Trazado 114219" d="M6.448,46.649a4.044,4.044,0,0,0-3.624,1.145" transform="translate(-2.055 -30.762)" fill="none" stroke="#c9551b" stroke-linecap="round" stroke-miterlimit="10" stroke-width="2"/>
        <path id="Trazado_114220" data-name="Trazado 114220" d="M6.6,55.174a3.593,3.593,0,0,0-2.608,1.32" transform="translate(-2.547 -34.398)" fill="none" stroke="#c9551b" stroke-linecap="round" stroke-miterlimit="10" stroke-width="2"/>
      </g>
    </g>
    <g id="Grupo_80177" data-name="Grupo 80177" transform="matrix(0.719, 0.695, -0.695, 0.719, 445.216, -783.288)">
      <g id="Grupo_80159-2" data-name="Grupo 80159" transform="translate(1212.494 449.08)">
        <g id="Grupo_80170-2" data-name="Grupo 80170" transform="translate(0 0)">
          <g id="Grupo_80171-2" data-name="Grupo 80171">
            <path id="Trazado_114214-2" data-name="Trazado 114214" d="M7.973,21.54S.742,10.463,4.794,1.281c0,0,5.891,8.719,4.929,16.548,0,0,1.233-8.177,7.7-11.747A23.832,23.832,0,0,1,10.091,21.91Z" transform="translate(0.209 -1.281)" fill="#e2de85"/>
            <path id="Trazado_114215-2" data-name="Trazado 114215" d="M8.676,22.853s-9.635-8.072-8.6-14.9c0,0,6.2,4.781,8.747,11.881,0,0-1.861-8.977,1.919-14.23,0,0,4.043,8.292.291,14.6a13.444,13.444,0,0,1,9.185-5.852s-4.139,6.74-11.545,8.5" transform="translate(0 -1.027)" fill="#b0b855"/>
            <path id="Trazado_114216-2" data-name="Trazado 114216" d="M1.91,23.015c.41-2.39,4.611-4.126,7.894-3.786s8.984,2.564,9.553,5.184c1.132,5.208-5.982,43.043-10.4,43.923S.087,33.643,1.91,23.015" transform="translate(0.087 -0.23)" fill="#ed6f29"/>
          </g>
        </g>
      </g>
      <g id="Grupo_80160-2" data-name="Grupo 80160" transform="translate(1214.073 468.036)" clip-path="url(#clip-path-2)">
        <path id="Trazado_114217-2" data-name="Trazado 114217" d="M13.013,25.852s-7.007-1.009-11.97,3.266" transform="translate(-1.517 -18.801)" fill="none" stroke="#c9551b" stroke-linecap="round" stroke-miterlimit="10" stroke-width="2"/>
        <path id="Trazado_114218-2" data-name="Trazado 114218" d="M10.822,35.773a11.116,11.116,0,0,0-9.278,2.456" transform="translate(-1.488 -18.224)" fill="none" stroke="#c9551b" stroke-linecap="round" stroke-miterlimit="10" stroke-width="2"/>
        <path id="Trazado_114219-2" data-name="Trazado 114219" d="M9.471,46.714s-3.1-.957-6.647,2.1" transform="translate(-1.413 -17.578)" fill="none" stroke="#c9551b" stroke-linecap="round" stroke-miterlimit="10" stroke-width="2"/>
        <path id="Trazado_114220-2" data-name="Trazado 114220" d="M8.77,55.174a6.589,6.589,0,0,0-4.782,2.42" transform="translate(-1.345 -17.073)" fill="none" stroke="#c9551b" stroke-linecap="round" stroke-miterlimit="10" stroke-width="2"/>
      </g>
    </g>
  </g>
</svg>
