<svg xmlns="http://www.w3.org/2000/svg" xmlns:xlink="http://www.w3.org/1999/xlink" width="136.457" height="67.873" viewBox="0 0 136.457 67.873">
  <defs>
    <clipPath id="clip-path">
      <rect id="Rectángulo_33802" data-name="Rectángulo 33802" width="53.522" height="50.597" fill="#ced371"/>
    </clipPath>
    <linearGradient id="linear-gradient" x1="0.5" x2="0.5" y2="1" gradientUnits="objectBoundingBox">
      <stop offset="0" stop-color="#a9ae58"/>
      <stop offset="1" stop-color="#1e5536"/>
    </linearGradient>
    <clipPath id="clip-path-2">
      <rect id="Rectángulo_33802-2" data-name="Rectángulo 33802" width="40.571" height="38.353" fill="#ced371"/>
    </clipPath>
    <clipPath id="clip-path-3">
      <rect id="Rectángulo_33802-3" data-name="Rectángulo 33802" width="32.188" height="30.429" fill="#ced371"/>
    </clipPath>
  </defs>
  <g id="Grupo_891231" data-name="Grupo 891231" transform="translate(-1045.999 -470.075)">
    <g id="Grupo_80198" data-name="Grupo 80198" transform="matrix(0.999, -0.035, 0.035, 0.999, 1094.999, 487.382)">
      <g id="Grupo_80136" data-name="Grupo 80136" clip-path="url(#clip-path)">
        <path id="Trazado_114153" data-name="Trazado 114153" d="M52.814,48.527q.164-2.772.116-5.381-.047-2.645-.3-5.1a44.929,44.929,0,0,0-4.478-15.89,36.176,36.176,0,0,0-9.676-11.925A41.159,41.159,0,0,0,26.4,3.6,54.012,54.012,0,0,0,11.6.7C9.885.6,8.157.572,6.426.611c-1.752.038-3.5.15-5.235.329h0a.717.717,0,0,0-.64.784l.008.05c.079.674,1.84,15.148,9.082,28.145C16.968,43.066,29.877,54.71,52.27,49.194a.717.717,0,0,0,.544-.667Z" fill-rule="evenodd" fill="url(#linear-gradient)"/>
        <path id="Trazado_114154" data-name="Trazado 114154" d="M52.814,48.527S26.1,16.3.709,1.2" fill="none" stroke="#e4f0ec" stroke-linecap="round" stroke-linejoin="round" stroke-width="1.417"/>
        <path id="Trazado_114155" data-name="Trazado 114155" d="M47.776,21.44S46.1,38.059,45.768,40.511l-25.1,2.919" fill="none" stroke="#e4f0ec" stroke-linecap="round" stroke-linejoin="round" stroke-width="1.417"/>
        <path id="Trazado_114156" data-name="Trazado 114156" d="M36.177,8.524c-.5,4.929-1.786,17.563-2.093,19.805L10.315,31.093" fill="none" stroke="#e4f0ec" stroke-linecap="round" stroke-linejoin="round" stroke-width="1.417"/>
        <path id="Trazado_114157" data-name="Trazado 114157" d="M23.391,2.649c-.579,5.641-1.31,12.671-1.533,14.289L4.743,18.929" fill="none" stroke="#e4f0ec" stroke-linecap="round" stroke-linejoin="round" stroke-width="1.417"/>
        <path id="Trazado_114158" data-name="Trazado 114158" d="M11.691.709c-.36,3.417-.678,6.36-.812,7.336L1.9,9.089" fill="none" stroke="#e4f0ec" stroke-linecap="round" stroke-linejoin="round" stroke-width="1.417"/>
      </g>
    </g>
    <g id="Grupo_80199" data-name="Grupo 80199" transform="translate(1170.595 470.075) rotate(73)">
      <g id="Grupo_80136-2" data-name="Grupo 80136" clip-path="url(#clip-path-2)">
        <path id="Trazado_114153-2" data-name="Trazado 114153" d="M40.166,36.928q.124-2.1.088-4.079-.035-2-.229-3.868a34.057,34.057,0,0,0-3.394-12.045A27.422,27.422,0,0,0,29.3,7.9a31.2,31.2,0,0,0-9.155-5.023A40.942,40.942,0,0,0,8.926.676C7.626.6,6.316.577,5,.607,3.675.636,2.35.721,1.035.856h0A.544.544,0,0,0,.55,1.45l.006.038A64.336,64.336,0,0,0,7.441,22.822c5.554,9.966,15.339,18.793,32.314,14.612a.544.544,0,0,0,.412-.506Z" transform="translate(-0.133 -0.144)" fill-rule="evenodd" fill="url(#linear-gradient)"/>
        <path id="Trazado_114154-2" data-name="Trazado 114154" d="M40.205,37.074S19.958,12.647.709,1.2" transform="translate(-0.172 -0.29)" fill="none" stroke="#e4f0ec" stroke-linecap="round" stroke-linejoin="round" stroke-width="1.417"/>
        <path id="Trazado_114155-2" data-name="Trazado 114155" d="M41.217,21.44S39.95,34.037,39.695,35.9L20.671,38.109" transform="translate(-5.002 -5.188)" fill="none" stroke="#e4f0ec" stroke-linecap="round" stroke-linejoin="round" stroke-width="1.417"/>
        <path id="Trazado_114156-2" data-name="Trazado 114156" d="M29.919,8.524c-.378,3.736-1.354,13.313-1.587,15.013l-18.017,2.1" transform="translate(-2.496 -2.063)" fill="none" stroke="#e4f0ec" stroke-linecap="round" stroke-linejoin="round" stroke-width="1.417"/>
        <path id="Trazado_114157-2" data-name="Trazado 114157" d="M18.879,2.649c-.439,4.276-.993,9.6-1.162,10.831L4.743,14.99" transform="translate(-1.148 -0.641)" fill="none" stroke="#e4f0ec" stroke-linecap="round" stroke-linejoin="round" stroke-width="1.417"/>
        <path id="Trazado_114158-2" data-name="Trazado 114158" d="M9.321.709C9.048,3.3,8.807,5.53,8.706,6.27L1.9,7.061" transform="translate(-0.459 -0.172)" fill="none" stroke="#e4f0ec" stroke-linecap="round" stroke-linejoin="round" stroke-width="1.417"/>
      </g>
    </g>
    <g id="Grupo_80200" data-name="Grupo 80200" transform="translate(1170.895 505.76) rotate(90)">
      <g id="Grupo_80136-3" data-name="Grupo 80136" clip-path="url(#clip-path-3)">
        <path id="Trazado_114153-3" data-name="Trazado 114153" d="M31.981,29.421q.1-1.667.07-3.236-.028-1.59-.182-3.069a27.02,27.02,0,0,0-2.693-9.556,21.756,21.756,0,0,0-5.819-7.172A24.753,24.753,0,0,0,16.093,2.4,32.483,32.483,0,0,0,7.2.659C6.163.6,5.124.581,4.083.6S1.977.694.935.8h0a.431.431,0,0,0-.385.471l0,.03A51.043,51.043,0,0,0,6.016,18.229c4.406,7.907,12.17,14.91,25.637,11.593a.431.431,0,0,0,.327-.4Z" transform="translate(-0.218 -0.237)" fill-rule="evenodd" fill="url(#linear-gradient)"/>
        <path id="Trazado_114154-3" data-name="Trazado 114154" d="M32.045,29.662S15.981,10.282.709,1.2" transform="translate(-0.283 -0.478)" fill="none" stroke="#e4f0ec" stroke-linecap="round" stroke-linejoin="round" stroke-width="1.417"/>
        <path id="Trazado_114155-3" data-name="Trazado 114155" d="M36.972,21.44s-1.006,9.995-1.208,11.469L20.671,34.665" transform="translate(-8.239 -8.546)" fill="none" stroke="#e4f0ec" stroke-linecap="round" stroke-linejoin="round" stroke-width="1.417"/>
        <path id="Trazado_114156-3" data-name="Trazado 114156" d="M25.868,8.524c-.3,2.964-1.074,10.562-1.259,11.911L10.315,22.1" transform="translate(-4.112 -3.398)" fill="none" stroke="#e4f0ec" stroke-linecap="round" stroke-linejoin="round" stroke-width="1.417"/>
        <path id="Trazado_114157-3" data-name="Trazado 114157" d="M15.958,2.649c-.348,3.392-.788,7.62-.922,8.593L4.743,12.44" transform="translate(-1.891 -1.056)" fill="none" stroke="#e4f0ec" stroke-linecap="round" stroke-linejoin="round" stroke-width="1.417"/>
        <path id="Trazado_114158-3" data-name="Trazado 114158" d="M7.787.709C7.571,2.764,7.379,4.534,7.3,5.121l-5.4.628" transform="translate(-0.756 -0.283)" fill="none" stroke="#e4f0ec" stroke-linecap="round" stroke-linejoin="round" stroke-width="1.417"/>
      </g>
    </g>
    <g id="Grupo_80201" data-name="Grupo 80201" transform="matrix(0.999, -0.035, 0.035, 0.999, 1045.999, 487.382)">
      <g id="Grupo_80136-4" data-name="Grupo 80136" clip-path="url(#clip-path)">
        <path id="Trazado_114153-4" data-name="Trazado 114153" d="M52.814,48.527q.164-2.772.116-5.381-.047-2.645-.3-5.1a44.929,44.929,0,0,0-4.478-15.89,36.176,36.176,0,0,0-9.676-11.925A41.159,41.159,0,0,0,26.4,3.6,54.012,54.012,0,0,0,11.6.7C9.885.6,8.157.572,6.426.611c-1.752.038-3.5.15-5.235.329h0a.717.717,0,0,0-.64.784l.008.05c.079.674,1.84,15.148,9.082,28.145C16.968,43.066,29.877,54.71,52.27,49.194a.717.717,0,0,0,.544-.667Z" fill-rule="evenodd" fill="url(#linear-gradient)"/>
        <path id="Trazado_114154-4" data-name="Trazado 114154" d="M52.814,48.527S26.1,16.3.709,1.2" fill="none" stroke="#e4f0ec" stroke-linecap="round" stroke-linejoin="round" stroke-width="1.417"/>
        <path id="Trazado_114155-4" data-name="Trazado 114155" d="M47.776,21.44S46.1,38.059,45.768,40.511l-25.1,2.919" fill="none" stroke="#e4f0ec" stroke-linecap="round" stroke-linejoin="round" stroke-width="1.417"/>
        <path id="Trazado_114156-4" data-name="Trazado 114156" d="M36.177,8.524c-.5,4.929-1.786,17.563-2.093,19.805L10.315,31.093" fill="none" stroke="#e4f0ec" stroke-linecap="round" stroke-linejoin="round" stroke-width="1.417"/>
        <path id="Trazado_114157-4" data-name="Trazado 114157" d="M23.391,2.649c-.579,5.641-1.31,12.671-1.533,14.289L4.743,18.929" fill="none" stroke="#e4f0ec" stroke-linecap="round" stroke-linejoin="round" stroke-width="1.417"/>
        <path id="Trazado_114158-4" data-name="Trazado 114158" d="M11.691.709c-.36,3.417-.678,6.36-.812,7.336L1.9,9.089" fill="none" stroke="#e4f0ec" stroke-linecap="round" stroke-linejoin="round" stroke-width="1.417"/>
      </g>
    </g>
    <g id="Grupo_80202" data-name="Grupo 80202" transform="translate(1121.595 470.075) rotate(73)">
      <g id="Grupo_80136-5" data-name="Grupo 80136" clip-path="url(#clip-path-2)">
        <path id="Trazado_114153-5" data-name="Trazado 114153" d="M40.166,36.928q.124-2.1.088-4.079-.035-2-.229-3.868a34.057,34.057,0,0,0-3.394-12.045A27.422,27.422,0,0,0,29.3,7.9a31.2,31.2,0,0,0-9.155-5.023A40.942,40.942,0,0,0,8.926.676C7.626.6,6.316.577,5,.607,3.675.636,2.35.721,1.035.856h0A.544.544,0,0,0,.55,1.45l.006.038A64.336,64.336,0,0,0,7.441,22.822c5.554,9.966,15.339,18.793,32.314,14.612a.544.544,0,0,0,.412-.506Z" transform="translate(-0.133 -0.144)" fill-rule="evenodd" fill="url(#linear-gradient)"/>
        <path id="Trazado_114154-5" data-name="Trazado 114154" d="M40.205,37.074S19.958,12.647.709,1.2" transform="translate(-0.172 -0.29)" fill="none" stroke="#e4f0ec" stroke-linecap="round" stroke-linejoin="round" stroke-width="1.417"/>
        <path id="Trazado_114155-5" data-name="Trazado 114155" d="M41.217,21.44S39.95,34.037,39.695,35.9L20.671,38.109" transform="translate(-5.002 -5.188)" fill="none" stroke="#e4f0ec" stroke-linecap="round" stroke-linejoin="round" stroke-width="1.417"/>
        <path id="Trazado_114156-5" data-name="Trazado 114156" d="M29.919,8.524c-.378,3.736-1.354,13.313-1.587,15.013l-18.017,2.1" transform="translate(-2.496 -2.063)" fill="none" stroke="#e4f0ec" stroke-linecap="round" stroke-linejoin="round" stroke-width="1.417"/>
        <path id="Trazado_114157-5" data-name="Trazado 114157" d="M18.879,2.649c-.439,4.276-.993,9.6-1.162,10.831L4.743,14.99" transform="translate(-1.148 -0.641)" fill="none" stroke="#e4f0ec" stroke-linecap="round" stroke-linejoin="round" stroke-width="1.417"/>
        <path id="Trazado_114158-5" data-name="Trazado 114158" d="M9.321.709C9.048,3.3,8.807,5.53,8.706,6.27L1.9,7.061" transform="translate(-0.459 -0.172)" fill="none" stroke="#e4f0ec" stroke-linecap="round" stroke-linejoin="round" stroke-width="1.417"/>
      </g>
    </g>
  </g>
</svg>
