<svg xmlns="http://www.w3.org/2000/svg" width="200.798" height="193.577" viewBox="0 0 200.798 193.577"><g transform="translate(7952.093 7521.84)"><g transform="translate(-7952.093 -7521.84)"><g transform="translate(0 0)"><path d="M76.752,176.395c-1.757-5.787-3.361-11.07-5.054-16.648H69.907q-21.643,0-43.287,0c-9.185,0-14.71-5.52-14.711-14.685q0-55.636,0-111.272c0-9.117,5.432-14.621,14.5-14.622q85.846-.013,171.691,0c9.217,0,14.609,5.453,14.61,14.721q0,55.532,0,111.063c0,9.3-5.5,14.794-14.811,14.8q-21.54.005-43.079,0H152.9l-5.038,16.621c4.83,4.825,10.105,10.089,15.373,15.359,3.044,3.045,2.837,5.448-1.1,6.984a17.778,17.778,0,0,0-10.853,10.826c-1.5,3.946-3.932,4.15-6.96,1.123-5.275-5.275-10.574-10.525-15.8-15.847a2.33,2.33,0,0,0-2.88-.647,39.01,39.01,0,0,1-26.79-.032,2.178,2.178,0,0,0-2.7.613c-5.332,5.414-10.717,10.775-16.1,16.139-2.735,2.726-5.267,2.486-6.607-1.069a17.9,17.9,0,0,0-11.264-11.238c-3.55-1.291-3.769-3.886-1.032-6.623,5.32-5.322,10.655-10.631,15.6-15.561M112.3,25.861q-42.973,0-85.947,0c-4.988,0-7.744,2.562-7.745,7.225q-.013,56.367,0,112.734c0,4.378,2.775,7.2,7.179,7.21,14.987.035,29.974,0,44.96.04,1.243,0,1.649-.374,1.818-1.605,2.676-19.451,16.359-32.779,35.676-34.82,21.9-2.314,40.941,12.624,43.749,34.412.208,1.619.712,2.029,2.295,2.023,14.5-.061,29-.035,43.5-.037,5.816,0,8.224-2.426,8.224-8.275,0-36.811-.065-73.623.077-110.433.02-5.1-2.634-8.59-8.463-8.554-28.439.171-56.88.077-85.32.077m.011,97.192c-18.941,0-33.4,14.5-33.47,33.563-.067,18.055,15.083,33.161,33.35,33.251,18.29.09,33.621-15.085,33.577-33.234-.046-19.049-14.52-33.576-33.456-33.58m-43.96,71.519c5.085,1.089,7.869,4.392,9.248,8.97,4.518-4.517,8.833-8.829,13.038-13.032L81.024,182,68.353,194.572m75.29-12.6L134,190.484l12.872,12.828c1.047-1.844,1.835-4.145,3.379-5.691,1.524-1.526,3.813-2.288,5.66-3.323l-12.264-12.327" transform="translate(-11.907 -19.16)" fill="#030303"/><path d="M117.589,31.092c28.44,0,56.881.094,85.319-.077,5.829-.035,8.484,3.458,8.463,8.554C211.23,76.38,211.3,113.191,211.3,150c0,5.85-2.409,8.275-8.225,8.276-14.5,0-29-.025-43.5.037-1.582.007-2.087-.4-2.3-2.023-2.807-21.788-21.847-36.726-43.748-34.412-19.317,2.041-33,15.369-35.675,34.82-.169,1.231-.577,1.609-1.819,1.606-14.987-.041-29.973-.006-44.96-.04-4.4-.01-7.178-2.832-7.179-7.21q-.014-56.366,0-112.734c0-4.663,2.757-7.224,7.745-7.225q42.973-.01,85.947,0m28.5,33.465q-23.317,0-46.635,0c-.906,0-1.814-.007-2.717.056A9.95,9.95,0,0,0,87.746,76.18c.955,5.277,4.976,8.463,10.769,8.465q47.471.013,94.943,0c.418,0,.838.012,1.254-.014a10.059,10.059,0,0,0,9.473-12.49c-1.087-4.627-5.08-7.573-10.415-7.58q-23.84-.029-47.681-.007M130.975,37.78c-10.944,0-21.887-.022-32.83.009-5.173.015-9.157,2.992-10.246,7.53-1.594,6.64,3.155,12.508,10.253,12.538,11.223.048,22.445.013,33.667.013,10.665,0,21.33.036,32-.013,7.1-.033,11.845-5.908,10.244-12.546-1.1-4.547-5.066-7.508-10.253-7.522-10.944-.031-21.887-.009-32.831-.009m-13.412,70.289q-32.716,0-65.432,0c-3.194,0-4.8,1.133-4.773,3.351.023,2.2,1.678,3.346,4.833,3.351H52.4q65.223,0,130.446,0a13.844,13.844,0,0,0,1.879-.046,3.447,3.447,0,0,0,3.109-3.363,3.337,3.337,0,0,0-3.376-3.272c-.624-.042-1.253-.02-1.881-.02H117.563M54.056,37.8A22.978,22.978,0,0,0,30.715,61.293,23.1,23.1,0,0,0,54.064,84.638,23.418,23.418,0,0,0,54.056,37.8M117.593,94.68q-17.555,0-35.108,0a16.751,16.751,0,0,0-2.087.061A3.075,3.075,0,0,0,77.513,97.8a3.011,3.011,0,0,0,2.293,3.317,8.819,8.819,0,0,0,2.469.261q35.319.018,70.635,0a8.816,8.816,0,0,0,2.469-.261,3.009,3.009,0,0,0,2.3-3.315,3.08,3.08,0,0,0-2.886-3.054,16.638,16.638,0,0,0-2.086-.061q-17.555-.005-35.108,0" transform="translate(-17.195 -24.391)" fill="#d2e1f1"/><path d="M165.173,205.1c18.937,0,33.41,14.531,33.456,33.58.044,18.15-15.287,33.323-33.577,33.233-18.267-.089-33.417-15.2-33.349-33.251.071-19.067,14.53-33.566,33.47-33.562m.035,59.908c15.266-.04,26.759-11.63,26.726-26.955-.031-14.446-12.184-26.4-26.811-26.377s-26.756,12.034-26.725,26.465c.034,15.32,11.6,26.908,26.811,26.868" transform="translate(-64.767 -101.205)" fill="#ffb500"/><path d="M112.928,323.169,125.6,310.6l9.614,8.51-13.038,13.032c-1.378-4.578-4.163-7.881-9.248-8.97" transform="translate(-56.482 -147.756)" fill="#ffb500"/><path d="M240.057,310.544l12.264,12.327c-1.846,1.036-4.135,1.8-5.66,3.323-1.544,1.546-2.332,3.848-3.379,5.691L230.41,319.058l9.647-8.514" transform="translate(-108.321 -147.733)" fill="#ffb500"/><path d="M196.4,91.042q23.841,0,47.68.007c5.335.007,9.328,2.953,10.416,7.579a10.058,10.058,0,0,1-9.473,12.49c-.417.027-.836.015-1.254.015q-47.471,0-94.943,0c-5.794,0-9.814-3.187-10.769-8.465A9.949,9.949,0,0,1,147.045,91.1c.9-.063,1.811-.056,2.717-.056q23.317-.005,46.635,0m-.075,6.7H163.3c-5.085,0-10.171-.03-15.256.024a3.292,3.292,0,0,0-3.527,3.317,3.464,3.464,0,0,0,3.366,3.335c.483.047.974.017,1.462.017q47.021,0,94.044,0a8.99,8.99,0,0,0,2.075-.134,3.121,3.121,0,0,0,2.661-3.468,3.086,3.086,0,0,0-3.113-3.052c-.694-.05-1.392-.035-2.089-.035q-23.3,0-46.6,0" transform="translate(-67.501 -50.876)" fill="#050505"/><path d="M181.278,43.117c10.944,0,21.887-.022,32.831.009,5.187.015,9.156,2.975,10.252,7.522,1.6,6.638-3.146,12.513-10.245,12.546-10.664.05-21.329.013-31.994.013-11.222,0-22.445.035-33.667-.013-7.1-.031-11.847-5.9-10.253-12.538,1.089-4.538,5.072-7.516,10.245-7.53,10.944-.031,21.887-.009,32.831-.009m.024,6.7q-15.879,0-31.758,0c-.626,0-1.255-.012-1.879.035a3.085,3.085,0,0,0-3.107,3.055,3.123,3.123,0,0,0,2.662,3.466,9.023,9.023,0,0,0,2.075.132q31.966.008,63.933-.006a9.04,9.04,0,0,0,2.47-.254,3.006,3.006,0,0,0,2.317-3.3,3.076,3.076,0,0,0-2.868-3.068,16.111,16.111,0,0,0-2.086-.062q-15.879-.005-31.758,0" transform="translate(-67.498 -29.728)" fill="#050505"/><path d="M136.1,168.915h65.014c.627,0,1.256-.022,1.881.021a3.337,3.337,0,0,1,3.375,3.271,3.446,3.446,0,0,1-3.109,3.364,13.843,13.843,0,0,1-1.879.046q-65.223,0-130.446,0h-.209c-3.155-.006-4.81-1.154-4.833-3.351-.024-2.218,1.58-3.351,4.773-3.351q32.715,0,65.432,0" transform="translate(-35.727 -85.237)" fill="#050505"/><path d="M59.444,43.162A23.418,23.418,0,0,1,59.452,90,23.1,23.1,0,0,1,36.1,66.653,22.978,22.978,0,0,1,59.444,43.162m.02,6.693A16.724,16.724,0,1,0,76.121,66.609,16.684,16.684,0,0,0,59.464,49.855" transform="translate(-22.583 -29.751)" fill="#040404"/><path d="M159.929,144.957q17.555,0,35.109,0a16.639,16.639,0,0,1,2.086.061,3.08,3.08,0,0,1,2.886,3.054,3.009,3.009,0,0,1-2.3,3.315,8.817,8.817,0,0,1-2.469.261q-35.318.019-70.635,0a8.819,8.819,0,0,1-2.469-.262,3.011,3.011,0,0,1-2.293-3.317,3.075,3.075,0,0,1,2.885-3.052,16.755,16.755,0,0,1,2.087-.061q17.554-.005,35.108,0" transform="translate(-59.531 -74.667)" fill="#050505"/><path d="M170.494,270.2c-15.215.039-26.776-11.548-26.81-26.868-.032-14.431,12.1-26.441,26.724-26.466s26.78,11.932,26.811,26.378c.034,15.324-11.459,26.916-26.726,26.956m-.107-46.527a19.683,19.683,0,0,0-20.005,20.208,20.072,20.072,0,0,0,40.142-.132,19.67,19.67,0,0,0-20.136-20.076" transform="translate(-70.054 -106.397)" fill="#040404"/><path d="M201.548,103.027q23.3,0,46.6,0c.7,0,1.395-.015,2.089.035a3.086,3.086,0,0,1,3.113,3.052,3.121,3.121,0,0,1-2.661,3.468,8.989,8.989,0,0,1-2.075.134q-47.022.008-94.044,0c-.488,0-.979.03-1.462-.017a3.464,3.464,0,0,1-3.366-3.335,3.292,3.292,0,0,1,3.527-3.317c5.085-.054,10.17-.023,15.256-.024h33.02" transform="translate(-72.728 -56.163)" fill="#a3314f"/><path d="M186.556,55.109q15.879,0,31.758,0a16.109,16.109,0,0,1,2.086.062,3.076,3.076,0,0,1,2.868,3.068,3.006,3.006,0,0,1-2.317,3.3,9.041,9.041,0,0,1-2.47.254q-31.966.019-63.933.006a9.023,9.023,0,0,1-2.075-.132,3.123,3.123,0,0,1-2.662-3.466,3.085,3.085,0,0,1,3.107-3.055c.624-.047,1.253-.035,1.879-.035q15.879,0,31.758,0" transform="translate(-72.752 -35.021)" fill="#a3314f"/><path d="M64.651,55.141A16.724,16.724,0,1,1,47.859,71.553,16.671,16.671,0,0,1,64.651,55.141" transform="translate(-27.771 -35.036)" fill="#fcfcfc"/><path d="M175.676,229.048a19.671,19.671,0,0,1,20.137,20.076,20.072,20.072,0,0,1-40.142.132,19.684,19.684,0,0,1,20.006-20.208m-2.662,22.066c-1.646-1.5-3.21-2.979-4.835-4.388a3.352,3.352,0,0,0-4.85.011,3.23,3.23,0,0,0,.271,4.819c2.309,2.215,4.682,4.363,7.066,6.5,1.362,1.219,2.99,1.438,4.36.222q6.634-5.881,13.074-11.982a3.132,3.132,0,0,0-.346-4.928,3.326,3.326,0,0,0-4.543.415c-3.379,3.1-6.761,6.19-10.2,9.335" transform="translate(-75.343 -111.773)" fill="#ced371"/><path d="M178.309,260.278c3.435-3.144,6.818-6.237,10.2-9.334a3.326,3.326,0,0,1,4.543-.415,3.132,3.132,0,0,1,.346,4.928q-6.431,6.1-13.074,11.982c-1.37,1.216-3,1-4.36-.222-2.384-2.133-4.757-4.28-7.066-6.5a3.23,3.23,0,0,1-.271-4.819,3.352,3.352,0,0,1,4.85-.011c1.625,1.409,3.189,2.889,4.835,4.388" transform="translate(-80.638 -120.937)" fill="#040404"/></g></g></g></svg>