<svg xmlns="http://www.w3.org/2000/svg" width="164.611" height="172.089" viewBox="0 0 164.611 172.089"><g transform="translate(7591.814 6680.465)"><g transform="translate(-7594.895 -6687.322)"><g transform="translate(5.978 6.857)"><path d="M233.8,138.536H259.72v26.027a29.834,29.834,0,0,0,3.143-.037,1.781,1.781,0,0,0,1.069-.773,9.447,9.447,0,0,1,8.389-4.4c2.281.013,4.562-.035,6.842.014a9.31,9.31,0,0,1,9,11.475c-1.215,4.992-2.709,9.919-4.19,14.841a3.926,3.926,0,0,0,.5,3.607c2.843,4.42,5.693,8.843,8.327,13.388,6.834,11.791,4.117,29.607-10.866,37.289a24.013,24.013,0,0,1-10.933,2.776c-12.217.054-24.435.026-36.652.027a5.315,5.315,0,0,1-.551-.065Zm36.431,52.1c-2.551,0-5.1.05-7.652-.025a2.047,2.047,0,0,0-2.072,1.126c-2.424,3.981-4.855,7.961-7.4,11.864a23.328,23.328,0,0,0-3.76,13.878c.386,12.775,12.839,22.5,25.287,19.595,15.562-3.628,20.418-20.782,13.286-32.462-2.655-4.348-5.407-8.637-8.076-12.977a1.8,1.8,0,0,0-1.8-1.024c-2.6.071-5.21.025-7.815.025m-31.2-46.872v93.655h15.319c-8.751-7.385-11.68-16.6-9.559-27.54.857-4.418,3.284-8.1,5.629-11.815,2.015-3.194,4.009-6.4,6.069-9.693-2.287-2.269-4.485-4.439-6.671-6.621a9.867,9.867,0,0,1-3.062-6.967c-.1-4.686,2.45-7.988,7.717-10.04v-20.98Zm39.65,41.657c1.513-5.341,3.114-10.621,4.476-15.962.635-2.49-1.476-4.79-4.18-4.872-2.169-.066-4.342-.028-6.514-.015-3.165.018-4.831,1.664-4.856,4.794-.015,1.831,0,3.661,0,5.539h-5.263v-5.122c-1.839,0-3.515.016-5.19,0a4.725,4.725,0,0,0-4.8,2.955c-.89,2.089-.258,3.914,1.308,5.473,2.154,2.145,4.281,4.317,6.464,6.431a2.5,2.5,0,0,0,1.495.75c5.642.053,11.285.033,17.064.033" transform="translate(-134.642 -81.222)" fill="#010101"/><path d="M150.7,12.019H136.412V6.857h23.313V30.164h-5.1V15.713c-.524.5-.815.763-1.095,1.042Q140.8,29.48,128.058,42.193a1.632,1.632,0,0,0-.493,2.193,10.321,10.321,0,0,1-15.809,12.3,1.861,1.861,0,0,0-2.524-.156c-5.473,3.194-10.985,6.32-16.495,9.45-.7.4-1.142.687-.937,1.713a10.264,10.264,0,0,1-6.4,11.363A10.421,10.421,0,0,1,72.828,74.97c-.287-.445-.538-.914-.776-1.321a2.6,2.6,0,0,0-.428-.017c-2.719.461-5.436.926-8.283,1.413.338,9.628-2.885,17.772-10.273,24.052a27.984,27.984,0,0,1-19.2,6.735C20.228,105.6,8.088,94.684,6.255,81.409a28.747,28.747,0,0,1,56.23-11.545c2.637-.427,5.3-.823,7.939-1.328a1.54,1.54,0,0,0,.947-1.039,10.408,10.408,0,0,1,16.957-6.131,1.806,1.806,0,0,0,1.626.139q8.654-4.832,17.217-9.822a1.8,1.8,0,0,0,.634-1.493,10.015,10.015,0,0,1,3.8-9.814,9.784,9.784,0,0,1,10.54-1.418c.719.3,1.224.6,1.968-.153q13.08-13.18,26.24-26.279a4.424,4.424,0,0,0,.35-.506M34.759,53.707A23.459,23.459,0,1,0,58.12,77.185,23.5,23.5,0,0,0,34.759,53.707m83.324-.005a5.211,5.211,0,1,0-5.208-5.3,5.263,5.263,0,0,0,5.208,5.3M81.723,64.133A5.213,5.213,0,1,0,86.8,69.4a5.244,5.244,0,0,0-5.074-5.267" transform="translate(-5.978 -6.857)" fill="#030303"/><path d="M187.822,269.862H161.939V186.578h25.883Zm-20.661-5.286H182.6V191.748H167.161Z" transform="translate(-94.057 -108.354)"/><path d="M18.047,246.467H43.989v57.161H18.047Zm5.22,51.936h15.5V251.691h-15.5Z" transform="translate(-12.794 -142.176)"/><path d="M115.981,310.389H90.039V258.425h25.942Zm-5.212-46.732h-15.5v41.5h15.5Z" transform="translate(-53.451 -148.93)"/><path d="M290.387,258.194c2.605,0,5.212.045,7.815-.025a1.8,1.8,0,0,1,1.8,1.024c2.669,4.34,5.42,8.629,8.076,12.977,7.132,11.68,2.276,28.834-13.286,32.462-12.448,2.9-24.9-6.82-25.287-19.595a23.328,23.328,0,0,1,3.76-13.878c2.548-3.9,4.978-7.882,7.4-11.864a2.047,2.047,0,0,1,2.072-1.126c2.549.075,5.1.025,7.652.025m2.589,41.654c0-1.6-.065-3.067.037-4.519a1.852,1.852,0,0,1,.8-1.313,7.47,7.47,0,0,0-.2-13.662A33.359,33.359,0,0,1,289,277.962a2.871,2.871,0,0,1-1.059-2.4,3.017,3.017,0,0,1,2.042-1.66c1.715-.376,2.43.31,3.242,2.464h4.954a7.14,7.14,0,0,0-4-6.793,1.9,1.9,0,0,1-1.233-2.106c.086-1.328.021-2.665.021-3.943H287.76c0,1.476-.04,2.833.015,4.186a1.557,1.557,0,0,1-1.015,1.738,6.967,6.967,0,0,0-4.188,6.467,7.173,7.173,0,0,0,4.174,6.825c1.537.8,3.1,1.555,4.648,2.339,1.195.605,1.907,1.511,1.42,2.889-.48,1.361-1.642,1.641-2.926,1.483a2.217,2.217,0,0,1-2.122-2.42c-.013-.9,0-1.8,0-2.66h-5.137c-.44,4.252.332,7.805,4.574,9.744.3.138.518.765.535,1.175.063,1.5.025,3,.025,4.554Z" transform="translate(-154.794 -148.784)" fill="#ced371"/><path d="M245.825,150.54h15.441v20.98c-5.267,2.051-7.819,5.354-7.717,10.04a9.867,9.867,0,0,0,3.062,6.967c2.186,2.182,4.384,4.352,6.671,6.621-2.06,3.293-4.054,6.5-6.069,9.693-2.344,3.717-4.772,7.4-5.629,11.815-2.122,10.941.807,20.154,9.559,27.539H245.825Z" transform="translate(-141.431 -88.002)" fill="#a3314f"/><path d="M302.228,219.166c-5.78,0-11.422.02-17.064-.033a2.5,2.5,0,0,1-1.495-.75c-2.183-2.114-4.311-4.286-6.464-6.431-1.566-1.56-2.2-3.384-1.308-5.473a4.725,4.725,0,0,1,4.8-2.955c1.676.02,3.352,0,5.19,0v5.122h5.263c0-1.878-.012-3.708,0-5.539.025-3.13,1.691-4.776,4.856-4.794,2.171-.013,4.345-.05,6.514.015,2.7.082,4.815,2.383,4.18,4.872-1.362,5.341-2.963,10.621-4.476,15.962" transform="translate(-158.184 -114.971)" fill="#ced371"/><path d="M41.533,114.495a23.459,23.459,0,1,1-23.562,23.272,23.51,23.51,0,0,1,23.562-23.272m2.507,5.29H38.824c0,1.531.077,2.992-.042,4.436a2.046,2.046,0,0,1-.892,1.4c-2.682,1.5-4.283,3.679-4.255,6.8a7.255,7.255,0,0,0,4.347,6.725c1.5.76,3,1.5,4.506,2.251a2.216,2.216,0,0,1,1.439,2.753c-.439,1.449-1.645,1.772-3,1.6a2.178,2.178,0,0,1-2.087-2.28c-.039-.952-.007-1.906-.007-2.8H33.69c-.454,4.326.378,7.909,4.721,9.806.251.11.383.722.394,1.105.044,1.5.018,3.005.018,4.528H44.04c0-1.543-.063-3,.036-4.453a1.849,1.849,0,0,1,.766-1.329c2.8-1.464,4.412-3.693,4.382-6.871a7.3,7.3,0,0,0-4.508-6.789,35.1,35.1,0,0,1-4.605-2.387,3.237,3.237,0,0,1-1.149-2.4c.029-1.109,1-1.7,2.184-1.757,1.777-.087,2.456.455,3.085,2.51h5.022c0-2.537-.763-4.877-2.869-5.958-2.388-1.227-2.531-2.958-2.349-5.1.046-.538.007-1.084.007-1.793" transform="translate(-12.75 -67.645)" fill="#ffb500"/><path d="M256.785,100.959A5.211,5.211,0,1,1,262,95.83a5.253,5.253,0,0,1-5.214,5.129" transform="translate(-144.679 -54.115)" fill="#ffb500"/><path d="M173.064,138.447a5.213,5.213,0,1,1-5.345,4.992,5.258,5.258,0,0,1,5.345-4.992" transform="translate(-97.319 -81.171)" fill="#ffb500"/><rect width="15.439" height="72.828" transform="translate(73.105 83.394)" fill="#a3314f"/><rect width="15.503" height="46.713" transform="translate(10.473 109.515)" fill="#a3314f"/><rect width="15.502" height="41.499" transform="translate(41.816 114.728)" fill="#a3314f"/><path d="M309.883,306.8h-5.216c0-1.551.038-3.055-.025-4.554-.017-.41-.233-1.036-.535-1.175-4.242-1.938-5.014-5.492-4.574-9.744h5.137c0,.858-.011,1.759,0,2.66a2.217,2.217,0,0,0,2.122,2.42c1.284.158,2.446-.123,2.926-1.483.487-1.378-.225-2.284-1.42-2.889-1.547-.783-3.111-1.536-4.648-2.339a7.173,7.173,0,0,1-4.175-6.825,6.967,6.967,0,0,1,4.188-6.467,1.557,1.557,0,0,0,1.015-1.738c-.055-1.353-.015-2.71-.015-4.186h5.216c0,1.277.065,2.615-.021,3.943a1.9,1.9,0,0,0,1.233,2.106,7.14,7.14,0,0,1,4,6.793h-4.954c-.812-2.154-1.527-2.84-3.242-2.464a3.017,3.017,0,0,0-2.042,1.66,2.871,2.871,0,0,0,1.059,2.4,33.364,33.364,0,0,0,4.606,2.393,7.47,7.47,0,0,1,.2,13.662,1.852,1.852,0,0,0-.8,1.313c-.1,1.452-.037,2.915-.037,4.519" transform="translate(-171.701 -155.739)" fill="#020201"/><path d="M64.293,126.65c0,.709.039,1.254-.007,1.793-.182,2.146-.039,3.878,2.349,5.1,2.106,1.082,2.873,3.421,2.869,5.958H64.483c-.629-2.055-1.308-2.6-3.085-2.51-1.183.058-2.154.648-2.184,1.757a3.237,3.237,0,0,0,1.149,2.4,35.1,35.1,0,0,0,4.605,2.387,7.3,7.3,0,0,1,4.508,6.789c.03,3.178-1.582,5.407-4.382,6.871a1.849,1.849,0,0,0-.766,1.329c-.1,1.45-.036,2.911-.036,4.453H59.077c0-1.523.027-3.026-.018-4.528-.011-.383-.144-1-.394-1.105-4.343-1.9-5.176-5.48-4.721-9.806h5.139c0,.892-.031,1.847.007,2.8a2.178,2.178,0,0,0,2.087,2.28c1.359.169,2.565-.154,3-1.6a2.216,2.216,0,0,0-1.439-2.753c-1.5-.75-3.009-1.49-4.506-2.251a7.255,7.255,0,0,1-4.347-6.725c-.029-3.119,1.573-5.294,4.255-6.8a2.046,2.046,0,0,0,.892-1.4c.119-1.444.042-2.9.042-4.436Z" transform="translate(-33.004 -74.51)" fill="#030201"/></g></g><g transform="translate(-7599.927 -6587.837)"><g transform="translate(8.113 0.763)"><path d="M68.343,49.267c.855.533.984.913.609,1.842a17.2,17.2,0,0,1-3.584,5.448,17.82,17.82,0,0,1,2.8,5.428,10.948,10.948,0,0,1,.3,6.994,8.653,8.653,0,0,1-9.979,5.7.948.948,0,0,0-.769.17,8.621,8.621,0,0,1-10.844,1.986c-1.251.733-2.4,1.46-3.606,2.088a9.539,9.539,0,0,1-1.777.534H38.88a11.874,11.874,0,0,1-1.751-.647c-1.086-.6-2.125-1.286-3.276-1.994a8.246,8.246,0,0,1-7.978.213,22.868,22.868,0,0,1-2.806-2.092,1.213,1.213,0,0,0-.813-.264A8.637,8.637,0,0,1,11.893,67.6a11.65,11.65,0,0,1,.94-6.451c.64-1.547,1.478-3.012,2.289-4.636a29.974,29.974,0,0,1-3.4-7.284,2.329,2.329,0,0,0-.5-.663c-2.814-3.378-3.973-7.161-2.412-11.4a4.98,4.98,0,0,0,.281-3.68c-.672-1.95-.261-4.006.027-6.01.153-1.062.3-2.13.553-3.171.532-2.195,2.164-3,4.2-2.013,1.282.622,2.47,1.439,3.709,2.151,1.062.61,2.138,1.2,3.211,1.794a13.94,13.94,0,0,1,.788-1.687,1.927,1.927,0,0,1,3.2-.379c1.657,1.806,3.818,2.261,6.072,2.558.634.083,1.274.117,1.912.16.882.06,1.179.317,1.381,1.229A1.191,1.191,0,0,1,32.794,29.2c-3.392-.234-6.763-.536-9.476-3.2a12.267,12.267,0,0,0-.27,1.357c-.327,4.068,1.3,7.422,3.874,10.408a1.347,1.347,0,0,0,.885.316,16.6,16.6,0,0,0,8.453-1.407,1.087,1.087,0,0,1,1.617,1.068,1.779,1.779,0,0,1-.834,1.074,16.727,16.727,0,0,1-8.038,1.617c-.4,0-.795,0-1.361,0a29.639,29.639,0,0,0,.67,3.1,2.362,2.362,0,0,0,2.375,1.741,10.56,10.56,0,0,0,5.919-1.577,1.146,1.146,0,1,1,1.282,1.894,10.342,10.342,0,0,1-2.248,1.128c-1.223.392-2.5.628-3.8.944a5.862,5.862,0,0,0,3.49,2.633,13.323,13.323,0,0,0,7.291.722c4.134-.63,7.364-2.581,8.937-6.637a16.358,16.358,0,0,0,.941-7.693,6.752,6.752,0,0,0-5.781-6.424,1.4,1.4,0,0,0-.348-.136c-2.539-.258-5.078-.526-7.62-.753-.938-.084-1.246-.3-1.429-1.25a1.294,1.294,0,0,1,1.52-1.069,33.807,33.807,0,0,1,7.451.894,1,1,0,0,0,.767-.13A27.971,27.971,0,0,0,55.5,17.261c.051-.111.083-.231.132-.371a5.765,5.765,0,0,1-2.808-4.121,5.668,5.668,0,0,1,3.518-6.094.925.925,0,0,0,.51-.584A5.72,5.72,0,0,1,61.261.909a5.608,5.608,0,0,1,6.269,2.9A2.022,2.022,0,0,0,67.667,4a5.749,5.749,0,0,1,5.548,9q4.027,1.957,8.041,3.909c.413.2.834.39,1.228.623a1.726,1.726,0,0,1,.966,1.7,1.757,1.757,0,0,1-1.242,1.514c-1.9.755-3.8,1.5-5.694,2.249l-.278.111c.11.954.258,1.883.316,2.818a9.423,9.423,0,0,1-.63,4.214A4.567,4.567,0,0,1,69.2,32.6c-.107-.055-.22-.1-.58-.256.331,2.037.687,3.889.921,5.756q.419,3.343.657,6.708c.077,1.082-.261,1.38-1.338,1.58a1.314,1.314,0,0,1-.96-1.384,28.674,28.674,0,0,0-.83-7.524A17.52,17.52,0,0,1,67.4,27.209c.954-2.49,2.22-4.863,3.4-7.263a5.263,5.263,0,0,0,.73-3.294,6.625,6.625,0,0,0-6.822-5.11A5.82,5.82,0,0,0,60.175,13.6a12.534,12.534,0,0,0-2.523,4.515A22.534,22.534,0,0,1,50.7,28.041c-.319.263-.652.507-1.03.8a8.613,8.613,0,0,1,4.681,5.32,16.3,16.3,0,0,1,.361,6.771,13.646,13.646,0,0,1-3.737,8.533c-4.107,4.106-11.793,5.3-17.329,2.666a7.181,7.181,0,0,1-4.247-4.465.823.823,0,0,0-.45-.433,4.619,4.619,0,0,1-2.85-3.115c-.339-1.242-.4-2.559-.62-3.836a2.3,2.3,0,0,0-.414-1.076,18.428,18.428,0,0,1-4.1-8.046c-.189-.832-.079-1.865-.545-2.465-.5-.643-1.53-.858-2.3-1.3-1.661-.955-3.3-1.953-4.962-2.9-.824-.47-1.149-.369-1.267.436-.306,2.1-.617,4.2-.773,6.315a5.054,5.054,0,0,0,1.378,3.94,20.735,20.735,0,0,0,4.63,3.636,1.7,1.7,0,0,1,.8.934,1.492,1.492,0,0,1-.429,1.119,1.055,1.055,0,0,1-1.413-.013c-1.638-1.123-3.265-2.263-4.916-3.409a7.08,7.08,0,0,0-.564,4.772c.526,2.547,1.608,4.75,4.044,6.011,2.039,1.055,4.094,2.078,6.148,3.1.479.239,1,.394,1.468.654a1.049,1.049,0,0,1,.539,1.365,1.084,1.084,0,0,1-1.339.743,2.8,2.8,0,0,1-.643-.238c-1.945-.878-3.888-1.761-5.917-2.681a21.073,21.073,0,0,0,8.319,10.1A42.085,42.085,0,0,1,26.06,58.13,4.913,4.913,0,0,1,30.966,56.9a6.975,6.975,0,0,1,3.3,2.285c.455.529.869,1.094,1.31,1.653,1.329-1.453,2.772-2.609,4.818-2.594a6.378,6.378,0,0,1,4.622,2.457,34.216,34.216,0,0,1,3.175-3.029,4.773,4.773,0,0,1,5.864,0,20.581,20.581,0,0,1,1.736,1.5l.835,1.085c1.272-.868,2.529-1.649,3.7-2.542,2.767-2.108,5.269-4.456,6.626-7.777a1.145,1.145,0,0,1,1.392-.67m4.123-27.2,7.861-3.048-1.8-.848-4.742-2.326a7.78,7.78,0,0,1-.542,4.422l-.9,1.666-.07.155.185-.022m-.69,8.834a1.734,1.734,0,0,0,1.634-.947c1.144-1.867.949-3.866.6-5.924a3.615,3.615,0,0,0-.408.1c-.307.122-.61.253-.914.381-.572.216-1.157.406-1.711.662a1.141,1.141,0,0,0-.564.544c-.421,1.12-.8,2.256-1.164,3.4a.754.754,0,0,0,.093.618A2.655,2.655,0,0,0,71.775,30.9M58.661,64.1c.874,2.714,1.574,5.44.494,8.262a4.971,4.971,0,0,0,3.264-.227,5.914,5.914,0,0,0,3.959-4.232,9.459,9.459,0,0,0-.667-5.914,12.7,12.7,0,0,0-1.984-3.723l-5.913,4,.847,1.834M19.653,72.484h1.932c-1.156-3.217-.361-6.126.661-8.829l-5.705-4.887-.906,1.767A34.8,34.8,0,0,0,14.2,65.089a6.216,6.216,0,0,0,5.453,7.4m50.27-61.863,1.3,1.032a3.2,3.2,0,0,0-.821-4.777,3.048,3.048,0,0,0-2.91-.39c-.982.291-1.425.055-1.739-.912a3.337,3.337,0,0,0-6.49,1.545,1.2,1.2,0,0,1-1.118,1.5,4.743,4.743,0,0,0-1.442.471,3.139,3.139,0,0,0-1.639,2.933,3.085,3.085,0,0,0,1.48,2.662.868.868,0,0,0,.114-.1c.121-.2.236-.394.358-.589,1.927-3.068,4.52-4.993,8.323-4.776a11,11,0,0,1,4.58,1.4M51.487,75.581A6.235,6.235,0,0,0,57.34,70.1,11.424,11.424,0,0,0,55.8,63.5a17.713,17.713,0,0,0-2.536-3.5,2.555,2.555,0,0,0-3.183-.721A7.116,7.116,0,0,0,47.1,62.15a1.423,1.423,0,0,0-.073,1.657c1.693,3.512,2.816,7.1,1.009,11a5.72,5.72,0,0,0,3.455.77M31.04,75.432l1.688-.571a8.676,8.676,0,0,1-.948-4.7,17.436,17.436,0,0,1,1.968-6.55c.126-.25.294-.632.193-.819a7.806,7.806,0,0,0-3.136-3.467,2.374,2.374,0,0,0-2.6.125,11.714,11.714,0,0,0-1.618,1.371,14.27,14.27,0,0,0-3.2,7.351c-.614,4.7,3.215,8.292,7.652,7.26m10.02,1.649a12.637,12.637,0,0,0,2.694-.971A5.888,5.888,0,0,0,46.6,70.246a13.847,13.847,0,0,0-3.86-8.541,3.028,3.028,0,0,0-2.8-1.1,8.37,8.37,0,0,0-2.012,1.149,13.266,13.266,0,0,0-3.855,9.076,6.181,6.181,0,0,0,6.978,6.253" transform="translate(-8.113 -0.763)" fill="#040303"/><path d="M94.959,125.772c.183.948.491,1.166,1.428,1.25,2.542.227,5.081.495,7.62.753a1.4,1.4,0,0,1,.348.136c.158.374.3.755.477,1.121a10.714,10.714,0,0,1,.874,4.841,28.381,28.381,0,0,1-.433,3.7,11.358,11.358,0,0,1-3.05,6.377,12.471,12.471,0,0,1-6.677,3.491c-.857.179-1.719.333-2.579.5a5.862,5.862,0,0,1-3.49-2.633c1.306-.316,2.578-.552,3.8-.944a10.333,10.333,0,0,0,2.248-1.128,1.146,1.146,0,1,0-1.282-1.894,10.561,10.561,0,0,1-5.919,1.577,2.363,2.363,0,0,1-2.375-1.741,29.646,29.646,0,0,1-.67-3.1c.567,0,.964,0,1.362,0a16.727,16.727,0,0,0,8.038-1.617,1.78,1.78,0,0,0,.834-1.074,1.087,1.087,0,0,0-1.617-1.068,16.6,16.6,0,0,1-8.453,1.407,1.347,1.347,0,0,1-.885-.316c-2.574-2.986-4.2-6.34-3.874-10.408a12.312,12.312,0,0,1,.27-1.357c2.713,2.665,6.084,2.967,9.476,3.2a1.191,1.191,0,0,0,1.344-1.082h3.185" transform="translate(-65.748 -98.417)" fill="#dbd8ea"/><path d="M252.836,90.964a1.145,1.145,0,0,0-1.392.67c-1.356,3.321-3.859,5.67-6.626,7.777-1.172.893-2.43,1.674-3.7,2.542l-.835-1.085a22.048,22.048,0,0,0,4.705-3.974A16.1,16.1,0,0,0,249.031,86.2c.092-2.946-.7-5.791-1.1-8.682a21.258,21.258,0,0,1-.169-5.326c.438-3.691,2.2-6.927,4.028-10.093a6.125,6.125,0,0,0,.688-4.427,7.1,7.1,0,0,0-3.282-4.435,6.625,6.625,0,0,1,6.822,5.11,5.263,5.263,0,0,1-.73,3.294c-1.178,2.4-2.443,4.773-3.4,7.263a17.52,17.52,0,0,0-.329,10.274,28.674,28.674,0,0,1,.83,7.524,1.314,1.314,0,0,0,.96,1.384l-.516,2.876" transform="translate(-192.606 -42.46)" fill="#dbd8e9"/><path d="M73.639,53.246a7.1,7.1,0,0,1,3.282,4.435,6.125,6.125,0,0,1-.688,4.427C74.4,65.274,72.643,68.51,72.2,72.2a21.258,21.258,0,0,0,.169,5.326c.4,2.892,1.192,5.736,1.1,8.682A16.1,16.1,0,0,1,69.43,96.9a22.041,22.041,0,0,1-4.705,3.974,20.651,20.651,0,0,0-1.736-1.5,4.774,4.774,0,0,0-5.864,0,34.271,34.271,0,0,0-3.175,3.029,6.378,6.378,0,0,0-4.622-2.457c-2.046-.015-3.489,1.141-4.818,2.595-.441-.559-.854-1.124-1.31-1.653a6.978,6.978,0,0,0-3.3-2.285A4.913,4.913,0,0,0,35,99.833a42.081,42.081,0,0,0-2.843,3.146,21.072,21.072,0,0,1-8.319-10.1c2.029.92,3.972,1.8,5.917,2.681a2.8,2.8,0,0,0,.643.238,1.083,1.083,0,0,0,1.338-.742,1.049,1.049,0,0,0-.539-1.365c-.466-.26-.989-.415-1.468-.654-2.054-1.026-4.11-2.048-6.148-3.1-2.436-1.261-3.518-3.463-4.045-6.011A7.081,7.081,0,0,1,20.1,79.15c1.65,1.146,3.278,2.286,4.916,3.409a1.055,1.055,0,0,0,1.413.013,1.492,1.492,0,0,0,.428-1.119,1.7,1.7,0,0,0-.8-.934,20.735,20.735,0,0,1-4.63-3.636,5.054,5.054,0,0,1-1.378-3.94c.156-2.113.467-4.216.773-6.315.117-.805.443-.905,1.267-.436,1.665.948,3.3,1.947,4.962,2.9.774.445,1.805.661,2.3,1.3.466.6.357,1.633.545,2.465A18.426,18.426,0,0,0,34,80.907a2.3,2.3,0,0,1,.414,1.077c.222,1.277.28,2.594.62,3.836a4.619,4.619,0,0,0,2.85,3.115.824.824,0,0,1,.45.434,7.18,7.18,0,0,0,4.247,4.465c5.536,2.63,13.223,1.44,17.329-2.666a13.646,13.646,0,0,0,3.737-8.533,16.3,16.3,0,0,0-.361-6.771,8.612,8.612,0,0,0-4.681-5.32c.377-.292.711-.537,1.03-.8a22.534,22.534,0,0,0,6.956-9.927A12.535,12.535,0,0,1,69.111,55.3a5.821,5.821,0,0,1,4.529-2.056m2.66,5.7a5.118,5.118,0,0,0-.934-1.388,1.339,1.339,0,0,0-1.176.1,1.808,1.808,0,0,0-.006,2.518,1.354,1.354,0,0,0,1.179.1c.382-.255.577-.791.937-1.336" transform="translate(-17.049 -42.466)" fill="#f7f4f4"/><path d="M141.542,308.649a6.181,6.181,0,0,1-6.978-6.253,13.266,13.266,0,0,1,3.855-9.076,8.373,8.373,0,0,1,2.012-1.149,2.129,2.129,0,0,0,.22.39,16.886,16.886,0,0,1,3.7,7.21,7.952,7.952,0,0,1-1.316,7.284c-.451.567-.99,1.064-1.489,1.594" transform="translate(-108.595 -232.33)" fill="#fdddce"/><path d="M140.665,164.425c.86-.165,1.722-.319,2.579-.5a12.474,12.474,0,0,0,6.677-3.491,11.36,11.36,0,0,0,3.05-6.377,28.408,28.408,0,0,0,.433-3.7,10.711,10.711,0,0,0-.874-4.841c-.176-.366-.319-.747-.478-1.121a6.752,6.752,0,0,1,5.781,6.424,16.358,16.358,0,0,1-.941,7.693c-1.573,4.055-4.8,6.006-8.937,6.637a13.323,13.323,0,0,1-7.291-.722" transform="translate(-113.445 -114.899)" fill="#cecce5"/><path d="M89.9,302.533c-4.437,1.032-8.266-2.559-7.652-7.26a14.27,14.27,0,0,1,3.2-7.351,11.7,11.7,0,0,1,1.618-1.372,5.579,5.579,0,0,1,1.5.7c1.647,1.491,2.691,2.442,1.451,4.717a11.146,11.146,0,0,0-1.031,7.435,28.982,28.982,0,0,0,.915,3.134" transform="translate(-66.972 -227.863)" fill="#fdece4"/><path d="M201.169,302a5.723,5.723,0,0,1-3.456-.77c1.807-3.9.685-7.492-1.009-11a1.424,1.424,0,0,1,.073-1.657,7.119,7.119,0,0,1,2.987-2.877,31.221,31.221,0,0,1,2.559,2.7,11.548,11.548,0,0,1,2.4,8.14,6.1,6.1,0,0,1-3.55,5.465" transform="translate(-157.795 -227.179)" fill="#fdece4"/><path d="M251.618,19.538a11,11,0,0,0-4.58-1.4c-3.8-.216-6.4,1.708-8.323,4.776-.122.194-.238.393-.358.589a.888.888,0,0,1-.114.1,3.085,3.085,0,0,1-1.48-2.662,3.14,3.14,0,0,1,1.639-2.933,4.748,4.748,0,0,1,1.442-.472,1.2,1.2,0,0,0,1.118-1.5,3.337,3.337,0,0,1,6.49-1.545c.314.967.757,1.2,1.739.912a3.048,3.048,0,0,1,2.91.39,5.57,5.57,0,0,1-.483,3.746" transform="translate(-189.808 -9.678)" fill="#a3314f"/><path d="M42.791,303.789a6.216,6.216,0,0,1-5.453-7.4,34.772,34.772,0,0,1,1.435-4.553,4.7,4.7,0,0,1,.417.33c1.124,1.106,2.259,2.2,3.348,3.342a1.246,1.246,0,0,1,.205.875c-.1,1.186-.378,2.369-.368,3.55a36.317,36.317,0,0,0,.416,3.85" transform="translate(-31.251 -232.068)" fill="#fdddcd"/><path d="M258.025,308.414a4.971,4.971,0,0,1-3.264.227c1.08-2.822.379-5.548-.494-8.262a4.33,4.33,0,0,0,.862-.281c1.017-.583,2.036-1.168,3.013-1.814.468-.309.668-.248.818.267.142.49.339.964.479,1.455a8.664,8.664,0,0,1-.065,6.116,23.223,23.223,0,0,1-1.348,2.292" transform="translate(-203.719 -237.039)" fill="#fdddcd"/><path d="M254.748,294.67a23.217,23.217,0,0,0,1.348-2.292,8.664,8.664,0,0,0,.065-6.116c-.14-.491-.337-.965-.479-1.455-.15-.515-.35-.576-.818-.267-.977.646-2,1.232-3.013,1.814a4.327,4.327,0,0,1-.862.281l-.847-1.834,5.913-4a12.7,12.7,0,0,1,1.984,3.723,9.46,9.46,0,0,1,.667,5.914,5.915,5.915,0,0,1-3.959,4.233" transform="translate(-200.442 -223.294)" fill="#f7c4b5"/><path d="M164.258,308.466c.5-.529,1.038-1.026,1.489-1.594a7.952,7.952,0,0,0,1.316-7.284,16.886,16.886,0,0,0-3.7-7.21,2.13,2.13,0,0,1-.22-.39,3.028,3.028,0,0,1,2.8,1.1,13.847,13.847,0,0,1,3.86,8.541,5.888,5.888,0,0,1-2.851,5.864,12.637,12.637,0,0,1-2.694.971" transform="translate(-131.311 -232.147)" fill="#f7c4b5"/><path d="M213.895,300.888a6.1,6.1,0,0,0,3.55-5.465,11.549,11.549,0,0,0-2.4-8.14,31.234,31.234,0,0,0-2.56-2.7,2.555,2.555,0,0,1,3.183.721,17.72,17.72,0,0,1,2.536,3.5,11.424,11.424,0,0,1,1.539,6.607,6.234,6.234,0,0,1-5.853,5.476" transform="translate(-170.521 -226.07)" fill="#fbdbcc"/><path d="M108.791,300.782a28.98,28.98,0,0,1-.915-3.134,11.146,11.146,0,0,1,1.031-7.435c1.24-2.274.2-3.225-1.451-4.717a5.58,5.58,0,0,0-1.5-.7,2.374,2.374,0,0,1,2.6-.125,7.806,7.806,0,0,1,3.136,3.467c.1.187-.067.569-.193.819a17.44,17.44,0,0,0-1.968,6.55,8.679,8.679,0,0,0,.948,4.7l-1.688.571" transform="translate(-85.864 -226.112)" fill="#fbdbcc"/><path d="M48.763,296.951a36.313,36.313,0,0,1-.416-3.85c-.01-1.182.264-2.364.368-3.55a1.246,1.246,0,0,0-.205-.875c-1.089-1.14-2.224-2.236-3.348-3.342a4.7,4.7,0,0,0-.417-.33l.906-1.767,5.706,4.887c-1.022,2.7-1.817,5.612-.661,8.829Z" transform="translate(-37.223 -225.23)" fill="#f7c4b5"/><path d="M308.249,122.787a2.654,2.654,0,0,1-2.432-1.171.753.753,0,0,1-.093-.618c.362-1.141.743-2.277,1.164-3.4a1.142,1.142,0,0,1,.564-.544c.554-.256,1.139-.446,1.711-.662a9.179,9.179,0,0,1-.913,6.393" transform="translate(-244.587 -92.649)" fill="#a3314f"/><path d="M325.292,78.627a7.779,7.779,0,0,0,.542-4.422l4.742,2.326-5.285,2.1" transform="translate(-260.159 -59.124)" fill="#ffb500"/><path d="M321.826,87.63l5.284-2.1,1.8.848-7.861,3.048-.115-.133.9-1.667" transform="translate(-256.693 -68.126)" fill="#ffb500"/><path d="M318.129,120.938a9.179,9.179,0,0,0,.913-6.393c.3-.128.607-.259.914-.381a3.633,3.633,0,0,1,.409-.1c.347,2.057.542,4.056-.6,5.923a1.734,1.734,0,0,1-1.634.947" transform="translate(-254.467 -90.801)" fill="#b55a72"/><path d="M309.11,34.279a5.569,5.569,0,0,0,.483-3.746,3.2,3.2,0,0,1,.821,4.777l-1.3-1.032" transform="translate(-247.3 -24.42)" fill="#b55a72"/><path d="M320.775,103.989l-.185.022.07-.155.115.133" transform="translate(-256.422 -82.686)" fill="#f8cb62"/><path d="M286.495,75.266c-.36.545-.555,1.082-.937,1.336a1.355,1.355,0,0,1-1.179-.1,1.808,1.808,0,0,1,.006-2.518,1.339,1.339,0,0,1,1.176-.1,5.117,5.117,0,0,1,.934,1.388" transform="translate(-227.244 -58.786)" fill="#070707"/></g></g></g></svg>