<svg xmlns="http://www.w3.org/2000/svg" width="134.333" height="115.427" viewBox="0 0 134.333 115.427"><g transform="translate(0 -35.979)"><g transform="translate(0 35.979)"><path d="M0,65.37c.968-1.772,2.52-2.208,4.453-2.294,12.13-.54,20.975-9.864,21-22.016,0-.568-.015-1.137,0-1.7a3.254,3.254,0,0,1,3.413-3.362q16.784-.028,33.568,0a3.236,3.236,0,0,1,3.407,3.62c-.067,3.608.116,7.173,1.581,10.534,3.517,8.066,9.682,12.568,18.424,13.5a1.326,1.326,0,0,0,1.076-.7,25.838,25.838,0,0,0,.684-4.234c.152-2.48-.114-5.013.278-7.446a8.98,8.98,0,0,1,9.785-7.391,9.175,9.175,0,0,1,8.314,9.079c.047,7.517.019,15.036.022,22.553,0,.254,0,.508,0,.873h7.4c2.491,0,4.991.128,7.472-.025,6.076-.376,10.986,5.825,7.826,11.641,1.482,1.279,3,2.413,4.283,3.769a10.268,10.268,0,0,1,1.349,2.719V97.9a13.079,13.079,0,0,1-1.682,2.856,44.025,44.025,0,0,1-4.012,3.254c2.85,4.886-.456,11.9-7.835,11.835a17.33,17.33,0,0,1,.388,2.169,6.608,6.608,0,0,1-6.8,6.9q-13.051.037-26.1-.012a1.579,1.579,0,0,0-1.7,1A45.63,45.63,0,0,1,.74,113.846c-.2-1.125-.491-2.233-.74-3.349V65.37m76.607,0,.013.005c-.25-.166-.488-.352-.75-.495-7.9-4.3-12.579-10.843-13.73-19.807-.214-1.668-.226-3.362-.335-5.117H29.452c.784,13.685-10.266,27.131-25.46,27.237-.019.293-.054.59-.055.887,0,12.676-.218,25.357.056,38.027.346,16.006,7.672,28.166,21.536,36.128a39.062,39.062,0,0,0,27.96,4.429l.651-.178a.116.116,0,0,0,.122-.039,8.686,8.686,0,0,0,1.159-.127,41.406,41.406,0,0,0,21.964-13.459,35.731,35.731,0,0,0,5.26-7.9H76.874a17.685,17.685,0,0,1-11.553-3.18c-2.334,2.11-2.987,2.359-6.02,2.359H47.489v1.46q0,7.6,0,15.21c0,2.172-.622,2.794-2.835,2.724-1.352-.043-2.709-.123-4.049-.3A37.659,37.659,0,0,1,7.9,106.412c-.1-11.494-.025-22.989-.022-34.483,0-1.777.622-2.375,2.43-2.53a32.431,32.431,0,0,0,4.413-.518A22.9,22.9,0,0,0,32.768,46.415c.025-2.1.565-2.658,2.622-2.663,3.234-.008,6.468-.014,9.7,0,1.715.009,2.389.681,2.392,2.377q.015,9.178,0,18.356c0,1.618-.42,2.1-2.066,2.506a2.268,2.268,0,0,1-1.882-2.575c.036-5.072.014-10.143.014-15.215V47.715H36.869C34.8,62.6,26.525,71.123,11.85,73.483c-.013.269-.041.57-.041.871q0,16.068.018,32.136a26.449,26.449,0,0,0,.335,4.307,33.434,33.434,0,0,0,17.564,24.858,31.8,31.8,0,0,0,13.759,3.875V120.205c-3.112,0-6.16.025-9.208-.007a5.05,5.05,0,0,1-5.147-5.161q-.031-16.855,0-33.71a5.066,5.066,0,0,1,5.248-5.2c2.4-.022,4.81-.038,7.214.008,1.338.026,2.608.117,3.143-1.532.135-.415.61-.72.928-1.075A7.152,7.152,0,0,1,50.2,72.176c2.966.053,5.938.113,8.9-.011,3.327-.14,5.789.987,7.2,4.546,1.741-.381,3.693-.4,5.2-1.223,3.4-1.853,6.574-4.107,9.84-6.2l2.393-1.579-.125-.311-2.276-.431-4.163-1.385ZM56.143,120.159c1.388.015,2.777.062,4.164.035a1.976,1.976,0,0,0,2.131-2.228c.024-1.345,0-2.692.008-4.037.012-1.585.486-2.137,2.07-2.448a2.112,2.112,0,0,1,1.871,2.415c-.031,1.091-.039,2.184.013,3.274a1.342,1.342,0,0,0,.418.962c2.6,1.649,5.286,2.948,8.52,2.889,5.587-.1,11.177-.022,16.765-.03q9.3-.013,18.6-.047c1.35.011,2.7.092,4.048.015a2.661,2.661,0,0,0,2.522-2.671,2.622,2.622,0,0,0-2.647-2.528c-1.305-.039-2.613.012-3.92.023-1.142-.421-1.912-1.114-1.6-2.453.3-1.256,1.244-1.536,2.4-1.529,2.271.015,4.542-.021,6.814-.035,1.179.012,2.363.089,3.538.02a4.017,4.017,0,0,0,3.809-4.064,3.917,3.917,0,0,0-3.934-3.775c-1.135-.027-2.272.021-3.407.035-2.358-.014-4.717-.015-7.075-.048-1.4-.019-2.247-.82-2.21-2.029.037-1.187.883-1.89,2.34-1.9,3.888-.024,7.775-.033,11.663-.047,1.171.012,2.346.086,3.514.023a4.022,4.022,0,0,0,3.835-4,3.919,3.919,0,0,0-3.959-3.841c-1.127-.025-2.256.022-3.384.036-3.888-.014-7.777-.022-11.665-.046-1.512-.009-2.381-.78-2.343-2.03.035-1.187.882-1.887,2.339-1.9,2.315-.023,4.63-.03,6.945-.045,1.092.014,2.184.054,3.276.037a3.927,3.927,0,0,0,4.068-3.907,4.025,4.025,0,0,0-3.938-3.939c-1.133-.05-2.271.013-3.406.025-4.085-.014-8.17-.071-12.253-.022a3.973,3.973,0,0,1-3.735-1.875,23.316,23.316,0,0,1-.258-2.451c-.023-7.632-.009-15.263-.023-22.895-.008-4.522-4.935-6.609-7.854-4.562a4.876,4.876,0,0,0-2.625,4.5c-.044,1.964,0,3.93-.013,5.895A14.868,14.868,0,0,1,84.44,72.023C81,74.255,77.529,76.429,74.075,78.636a10.239,10.239,0,0,1-5.943,1.692c-.553-.017-1.107,0-1.752,0v1.407c0,7.293-.022,14.585.018,21.878.008,1.423-.453,2.361-1.88,2.708-1.71-.444-2.073-.893-2.074-2.63q-.005-12.51,0-25.019c0-1.863-.665-2.534-2.5-2.539-1.265,0-2.53.027-3.8.041-2.009-.015-4.017-.039-6.026-.042s-2.625.633-2.626,2.68q0,8.258,0,16.515,0,11.4,0,22.807c0,1.566.428,2.061,1.839,2.066,2.271.007,4.542-.024,6.812-.039m-12.669-3.891v-36.2c-2.957,0-5.836.027-8.714-.013-1.235-.017-1.731.5-1.713,1.723.041,2.84.013,5.682.013,8.523q0,12.063-.009,24.126c0,1.038.165,1.848,1.444,1.846,2.966,0,5.933,0,8.979,0" transform="translate(0 -35.979)" fill="#010201"/><path d="M283.719,113.853a3.973,3.973,0,0,0,3.735,1.875c4.084-.049,8.169.008,12.253.022a6.148,6.148,0,0,1,0,7.784c-2.315.014-4.63.022-6.945.044-1.457.015-2.3.714-2.339,1.9-.038,1.25.831,2.021,2.343,2.03,3.888.024,7.776.031,11.665.046a6.139,6.139,0,0,1,0,7.783c-3.888.015-7.775.024-11.663.047-1.457.009-2.3.712-2.34,1.9-.037,1.209.808,2.01,2.21,2.029,2.358.033,4.717.034,7.075.048a6.139,6.139,0,0,1,0,7.783c-2.271.015-4.543.05-6.814.035-1.158-.008-2.107.273-2.4,1.529-.316,1.339.454,2.032,1.6,2.453a6.231,6.231,0,0,1,0,5.162q-9.3.024-18.6.046c-5.589.008-11.179-.072-16.766.03-3.233.059-5.92-1.24-8.52-2.889a1.341,1.341,0,0,1-.418-.961c-.052-1.089-.044-2.183-.013-3.274a2.112,2.112,0,0,0-1.871-2.415q0-2.581,0-5.162c1.428-.347,1.889-1.285,1.881-2.708-.039-7.292-.018-14.585-.018-21.878v-1.407c.645,0,1.2-.014,1.752,0a10.237,10.237,0,0,0,5.943-1.692c3.453-2.207,6.928-4.381,10.365-6.614a14.869,14.869,0,0,0,7.124-13.067c.017-1.965-.031-3.931.013-5.9a4.875,4.875,0,0,1,2.625-4.5c.373.328.948.588,1.084,1a13.259,13.259,0,0,1,.954,3.881c.088,7.6.043,15.208.045,22.813,0,1.773.444,2.212,2.25,2.222,1.267.007,2.535,0,3.8,0" transform="translate(-181.38 -71.36)" fill="#fbcf9e"/><path d="M92.186,80.461c-3.267,2.091-6.444,4.345-9.84,6.2-1.512.825-3.464.842-5.2,1.223-1.412-3.558-3.874-4.685-7.2-4.546-2.962.125-5.934.065-8.9.011A7.155,7.155,0,0,0,56.5,84.7a6.762,6.762,0,0,1-.24-1.223c-.024-1.771-.007-3.543,0-5.314,1.646-.4,2.064-.888,2.066-2.506q.011-9.178,0-18.356c0-1.7-.677-2.368-2.392-2.377-3.234-.017-6.468-.011-9.7,0-2.057,0-2.6.563-2.622,2.663A22.9,22.9,0,0,1,25.557,80.052a32.432,32.432,0,0,1-4.413.518c-1.808.155-2.43.752-2.43,2.53,0,11.494-.08,22.99.022,34.483a37.659,37.659,0,0,0,32.709,36.824c1.34.175,2.7.255,4.049.3,2.213.07,2.833-.551,2.835-2.724q0-7.6,0-15.21v-1.46H70.141c3.033,0,3.686-.248,6.02-2.359a17.684,17.684,0,0,0,11.553,3.18,12.753,12.753,0,0,1-.495,1.2,43.65,43.65,0,0,1-21.152,19.683,8.331,8.331,0,0,0-.964.6.117.117,0,0,1-.122.039l-.651.178A39.06,39.06,0,0,1,36.37,153.4c-13.864-7.963-21.19-20.122-21.536-36.128-.274-12.67-.058-25.351-.056-38.027,0-.3.036-.594.055-.887,15.193-.105,26.243-13.552,25.46-27.237H66.731c.1,1.785.045,3.593.317,5.351a23.1,23.1,0,0,0,11.325,17.06,18.138,18.138,0,0,0,9.087,3.007l-.013,0,.568.218,4.163,1.385q0,1.161.008,2.322" transform="translate(-10.84 -47.15)" fill="#7ad4a2"/><path d="M78.617,99.987c0,1.772-.02,3.543,0,5.314a6.748,6.748,0,0,0,.24,1.223c-.319.356-.793.66-.928,1.075-.536,1.649-1.805,1.558-3.144,1.532-2.4-.046-4.809-.03-7.214-.008a5.066,5.066,0,0,0-5.248,5.2q-.028,16.855,0,33.711a5.051,5.051,0,0,0,5.148,5.161c3.047.033,6.1.007,9.208.007v19.325a31.8,31.8,0,0,1-13.759-3.875A33.434,33.434,0,0,1,45.36,143.79a26.449,26.449,0,0,1-.335-4.307q-.043-16.068-.018-32.136c0-.3.028-.6.041-.871C59.722,104.116,68,95.6,70.067,80.708h6.683V82.2c0,5.072.022,10.144-.014,15.216a2.268,2.268,0,0,0,1.882,2.575" transform="translate(-33.197 -68.973)" fill="#37a964"/><path d="M189.655,233.041c-2.271.015-4.542.046-6.813.04-1.411,0-1.838-.5-1.839-2.066q-.006-11.4,0-22.807,0-8.258,0-16.516c0-2.046.619-2.682,2.626-2.679s4.017.027,6.026.042c.09,1.124.255,2.248.257,3.372q.028,18.621,0,37.242c0,1.124-.167,2.248-.257,3.372" transform="translate(-133.512 -148.862)" fill="#fef6e5"/><path d="M136.38,240.171c-3.046,0-6.012,0-8.979,0-1.279,0-1.446-.808-1.444-1.846q.024-12.063.009-24.126c0-2.841.028-5.682-.013-8.523-.017-1.228.478-1.741,1.713-1.723,2.878.04,5.757.013,8.714.013Z" transform="translate(-92.906 -159.882)" fill="#fed37c"/><path d="M213.984,233.044c.089-1.124.255-2.248.257-3.372q.028-18.621,0-37.242c0-1.124-.167-2.248-.257-3.372,1.265-.015,2.53-.044,3.8-.041,1.838,0,2.5.675,2.5,2.539q.007,12.509,0,25.018c0,1.737.364,2.186,2.074,2.63q0,2.581,0,5.162c-1.584.311-2.058.863-2.07,2.448-.01,1.346.016,2.692-.007,4.037a1.976,1.976,0,0,1-2.131,2.228c-1.387.027-2.776-.02-4.164-.036" transform="translate(-157.841 -148.864)" fill="#e7e7e7"/><path d="M367.182,111.635c-1.268,0-2.535.01-3.8,0-1.806-.01-2.25-.449-2.25-2.222,0-7.6.043-15.21-.045-22.813a13.259,13.259,0,0,0-.954-3.881c-.136-.407-.71-.668-1.084-1,2.919-2.048,7.846.039,7.854,4.561.014,7.632,0,15.263.023,22.9a23.316,23.316,0,0,0,.258,2.451" transform="translate(-264.843 -69.143)" fill="#f2af6c"/><path d="M233.752,76.541a18.138,18.138,0,0,1-9.087-3.007,23.1,23.1,0,0,1-11.325-17.06c-.272-1.758-.22-3.566-.317-5.351h5.914c.109,1.755.121,3.449.335,5.117,1.151,8.964,5.833,15.5,13.73,19.807.262.143.5.329.75.495" transform="translate(-157.132 -47.15)" fill="#28ae5f"/><path d="M206.822,396.613a8.3,8.3,0,0,1,.963-.6,43.65,43.65,0,0,0,21.152-19.683,12.854,12.854,0,0,0,.495-1.2H235.2a35.731,35.731,0,0,1-5.26,7.9,41.406,41.406,0,0,1-21.964,13.459,8.682,8.682,0,0,1-1.159.127" transform="translate(-152.558 -286.148)" fill="#28ad5e"/><path d="M450.994,212.828a6.148,6.148,0,0,0,0-7.784c1.136-.012,2.273-.075,3.406-.025a4.025,4.025,0,0,1,3.938,3.939,3.927,3.927,0,0,1-4.068,3.907c-1.092.017-2.184-.023-3.276-.037" transform="translate(-332.666 -160.654)" fill="#f1ae6b"/><path d="M468.979,257.827a6.138,6.138,0,0,0,0-7.783c1.128-.014,2.257-.061,3.384-.036a3.919,3.919,0,0,1,3.959,3.841,4.022,4.022,0,0,1-3.834,4c-1.168.064-2.342-.01-3.514-.022" transform="translate(-345.933 -193.848)" fill="#f1ae6b"/><path d="M450.979,302.826a6.138,6.138,0,0,0,0-7.783c1.136-.014,2.273-.062,3.407-.035a3.917,3.917,0,0,1,3.935,3.775,4.017,4.017,0,0,1-3.809,4.064c-1.175.068-2.358-.009-3.538-.02" transform="translate(-332.656 -227.04)" fill="#f1ae6b"/><path d="M421.923,345.2a6.231,6.231,0,0,0,0-5.162c1.307-.011,2.615-.062,3.92-.023a2.622,2.622,0,0,1,2.647,2.528,2.661,2.661,0,0,1-2.522,2.671c-1.345.077-2.7,0-4.048-.015" transform="translate(-311.223 -260.233)" fill="#f1ae6b"/><path d="M310.021,156.413q0-1.161-.008-2.322l2.276.431.125.311-2.393,1.579" transform="translate(-228.675 -123.102)" fill="#2ca75e"/><path d="M292.549,148.2l-.568-.217.568.217" transform="translate(-215.374 -118.597)" fill="#28ae5f"/><path d="M203.874,457.333l.651-.178-.651.178" transform="translate(-150.384 -346.651)" fill="#28ad5e"/></g></g></svg>