<svg xmlns="http://www.w3.org/2000/svg" width="206.277" height="213.465" viewBox="0 0 206.277 213.465"><g transform="translate(7612.8 7124.465)"><g transform="translate(-7612.8 -7124.465)"><g transform="translate(0 0)"><path d="M28.621,34.058c-2.379,0-4.516.031-6.653-.008-2.627-.048-3.98-1.36-4-3.964q-.061-6.666,0-13.335c.021-2.64,1.341-3.942,3.942-4.027.444-.015.889,0,1.333,0H218.814c4.51,0,5.39.9,5.39,5.486,0,3.852.018,7.7-.006,11.557-.018,3.016-1.3,4.264-4.359,4.29-2,.017-4,0-6.3,0v2.371q0,62.007,0,124.013c0,4.215-.987,5.191-5.246,5.191H131.906v14.228c1.127,0,2.223-.047,3.314.01a3.553,3.553,0,0,1,3.633,3.668,5.1,5.1,0,0,1,0,.888c-1.013,8.731,1.055,16.776,5.1,24.493,1.946,3.717,3.406,7.692,5.023,11.577,1.369,3.291-.175,5.615-3.768,5.573-9.756-.115-7.116,1.325-12.752-6.412-3.778-5.187-7.473-10.435-11.37-15.886-2.621,3.662-5.1,7.127-7.582,10.593-2.325,3.249-4.517,6.608-7.046,9.691A6.808,6.808,0,0,1,102.57,226a30.838,30.838,0,0,1-5.764.075c-3.432-.057-4.99-2.346-3.653-5.507,3.02-7.137,6.167-14.222,9.131-21.382a14.819,14.819,0,0,0,.97-4.9c.148-3.179.04-6.369.044-9.555.005-3.789,1.085-4.866,4.881-4.879.659,0,1.317,0,2.1,0V165.633h-2.318q-37.115,0-74.23,0c-4.1,0-5.113-1.014-5.113-5.1q0-61.9,0-123.791ZM35.8,158.386H206.287V34.191H35.8ZM25.152,26.844H216.98V19.936H25.152Zm85.326,167.118h21.145v-6.875H110.478Zm7.139-14.2h6.922V165.731h-6.922Zm-3.411,21.426a29.931,29.931,0,0,0-3.7.041,2.38,2.38,0,0,0-1.677.909c-2.025,4.509-3.935,9.07-5.879,13.615l.551.358,10.7-14.924m24.435,14.958.564-.242-6.138-14.529h-4.956l10.53,14.772" transform="translate(-17.934 -12.717)"/><path d="M48.017,48.88H218.506v124.2H48.017Zm53.276,102.993c3.275,0,6.3.069,9.322-.032,1.322-.044,1.849.413,2.366,1.637,2.46,5.818,6.944,8.889,13.269,9.04,4.665.112,9.334.055,14,.015a14.266,14.266,0,0,0,14.332-12.817c.734-7.364-4.245-14.421-11.779-15.266a93.437,93.437,0,0,0-19.051-.007c-5.906.558-9.532,4.647-11.4,10.216H101.5c-.907-7.013-.907-7.013-8.115-7.013-.3,0-.594-.021-.888,0a11.809,11.809,0,0,1-7.924-2.323c-.429-.3-1-.808-1.008-1.231-.081-3.523-.046-7.048-.046-10.671,2.276,0,4.271-.06,6.26.016a3.985,3.985,0,0,0,4.454-3.139c.612-2.052,1.442-4.042,2.014-6.1a1.721,1.721,0,0,1,2.029-1.465c3.629.066,7.263-.054,10.888.071a6.67,6.67,0,0,1,3.251,1.015c6.02,3.91,12.013,7.866,17.925,11.938a4.566,4.566,0,0,0,5.866.042c5.982-4.1,12.048-8.073,18.1-12.074a4.249,4.249,0,0,1,1.953-.918c3.662-.09,7.327-.043,11.2-.043-.605,1.819-1.123,3.352-1.625,4.89-1.229,3.768.168,5.762,4.077,5.768q13.223.019,26.447,0c2.88,0,3.691-.6,4.648-3.441q3.224-9.56,6.415-19.129c1.326-3.98-.089-5.869-4.375-5.877-3.076-.005-6.152,0-9.176,0-.064-.473-.1-.618-.1-.762-.005-5.408,0-10.816-.012-16.224-.018-7.056-4.45-11.451-11.56-11.459q-11.668-.015-23.336,0H154.3c-2.8-7.75-8.274-11.023-16.19-10.7-3.919.162-7.852,0-11.778.035a14.266,14.266,0,0,0-14.326,12.82c-.721,7.388,4.236,14.413,11.785,15.26a93.51,93.51,0,0,0,19.05,0c5.912-.555,9.52-4.662,11.431-10.295,9.66,0,19.282-.03,28.9.026a3.156,3.156,0,0,1,3.383,3.169c.134,5.976.049,11.957.049,18.127-3.191,0-6.209,0-9.227,0-3.453,0-4.156.514-5.272,3.839-.589,1.751-1.248,3.485-1.719,5.268a1.832,1.832,0,0,1-2.17,1.593c-3.7-.091-7.409.033-11.11-.077a5.776,5.776,0,0,1-2.825-.96c-5.942-3.892-11.83-7.867-17.744-11.8-2.9-1.933-3.555-1.928-6.4-.033-5.912,3.941-11.811,7.9-17.742,11.815a5.009,5.009,0,0,1-2.379.979c-3.548.106-7.1.046-10.874.046.6-1.845,1.163-3.515,1.7-5.194,1.1-3.467-.349-5.461-4.019-5.468-8.89-.017-17.779.031-26.669-.03a4.2,4.2,0,0,0-4.545,3.327c-2.081,6.473-4.31,12.9-6.457,19.351-1.283,3.859.145,5.788,4.261,5.8,4.273.009,8.545,0,12.865,0V133.2c-4.9-.056-8.787,2.235-12.368,5.044a4.982,4.982,0,0,0-1.662,3.362c-.169,5.625-.1,11.258-.066,16.888.018,2.729,1.364,4.034,4.158,4.04q15.335.032,30.67,0c3.009-.005,4.25-1.306,4.277-4.378.018-1.993,0-3.987,0-6.283" transform="translate(-30.153 -27.405)" fill="#d2e1f1"/><rect width="191.828" height="6.907" transform="translate(7.218 7.219)" fill="#90bffe"/><rect width="21.145" height="6.875" transform="translate(92.544 174.371)" fill="#a5cefe"/><rect width="6.922" height="14.026" transform="translate(99.683 153.015)" fill="#7daefe"/><path d="M172.355,330.064l-10.7,14.924-.551-.358c1.944-4.546,3.854-9.106,5.879-13.615a2.38,2.38,0,0,1,1.677-.909,29.943,29.943,0,0,1,3.7-.041" transform="translate(-76.083 -141.597)" fill="#77a6f2"/><path d="M214,345.174,203.468,330.4h4.956l6.138,14.529-.564.242" transform="translate(-93.292 -141.75)" fill="#77a6f2"/><path d="M108.6,156.611c0,2.3.014,4.29,0,6.283-.027,3.072-1.268,4.372-4.277,4.378q-15.335.028-30.67,0c-2.795-.006-4.14-1.31-4.158-4.039-.036-5.63-.1-11.263.066-16.889a4.982,4.982,0,0,1,1.662-3.362c3.581-2.808,7.469-5.1,12.368-5.044v-9.773c-4.32,0-8.592.007-12.865,0-4.116-.008-5.545-1.937-4.261-5.8,2.147-6.452,4.376-12.878,6.457-19.351a4.2,4.2,0,0,1,4.545-3.327c8.889.061,17.779.013,26.669.03,3.669.007,5.119,2,4.019,5.469-.533,1.678-1.092,3.349-1.7,5.193,3.773,0,7.326.061,10.874-.046a5.016,5.016,0,0,0,2.379-.979c5.931-3.913,11.83-7.874,17.742-11.815,2.842-1.895,3.492-1.9,6.4.034,5.913,3.936,11.8,7.911,17.744,11.8a5.762,5.762,0,0,0,2.825.96c3.7.11,7.408-.014,11.11.077a1.832,1.832,0,0,0,2.17-1.593c.471-1.783,1.131-3.517,1.719-5.269,1.116-3.324,1.82-3.835,5.271-3.838,3.018,0,6.037,0,9.228,0,0-6.171.085-12.152-.049-18.128a3.157,3.157,0,0,0-3.383-3.169c-9.621-.056-19.243-.025-28.9-.025-1.91,5.633-5.519,9.739-11.431,10.295a93.554,93.554,0,0,1-19.05,0c-7.549-.846-12.506-7.872-11.785-15.26A14.266,14.266,0,0,1,133.639,60.6c3.926-.036,7.858.127,11.778-.035,7.916-.327,13.389,2.947,16.189,10.7h4.553q11.668,0,23.336,0c7.11.009,11.542,4.4,11.56,11.46.014,5.407.007,10.816.012,16.224,0,.145.037.29.1.763,3.024,0,6.1,0,9.176,0,4.286.007,5.7,1.9,4.375,5.877q-3.189,9.57-6.415,19.129c-.957,2.839-1.768,3.439-4.648,3.442q-13.224.012-26.447,0c-3.909-.005-5.307-2-4.077-5.767.5-1.538,1.02-3.071,1.625-4.89-3.87,0-7.535-.046-11.2.043a4.255,4.255,0,0,0-1.953.918c-6.048,4-12.113,7.977-18.1,12.074a4.567,4.567,0,0,1-5.867-.042c-5.912-4.071-11.9-8.027-17.925-11.937a6.665,6.665,0,0,0-3.251-1.016c-3.626-.125-7.259-.005-10.888-.071a1.723,1.723,0,0,0-2.03,1.465c-.571,2.062-1.4,4.052-2.014,6.1a3.984,3.984,0,0,1-4.453,3.139c-1.989-.075-3.984-.015-6.261-.015,0,3.623-.035,7.148.046,10.671.009.423.58.932,1.008,1.231a11.808,11.808,0,0,0,7.924,2.323c.294-.025.592,0,.888,0,7.207,0,7.207,0,8.115,7.013h10.85c1.871-5.568,5.5-9.658,11.4-10.216a93.394,93.394,0,0,1,19.051.008c7.534.844,12.513,7.9,11.779,15.265a14.266,14.266,0,0,1-14.332,12.817c-4.667.041-9.336.1-14-.014-6.324-.152-10.808-3.222-13.269-9.04-.518-1.224-1.043-1.681-2.366-1.637-3.021.1-6.048.031-9.322.031m32.083-88.9c-2.371,0-4.742-.04-7.112.009a7.1,7.1,0,1,0-.055,14.2q7.111.1,14.223,0a7.1,7.1,0,0,0,.055-14.192c-2.369-.065-4.741-.012-7.111-.013m-.077,92.456c2.3,0,4.593.03,6.889-.007a7.1,7.1,0,1,0,.1-14.2q-7-.08-14,0a7.1,7.1,0,1,0,.124,14.2c2.3.036,4.593.007,6.89.007m-39.181-10.74c-5.2.588-9.566-1.058-13.877-3.46-3.5-1.95-7.043-.9-10.186,1.387a1.638,1.638,0,0,0-.718,1.01c-.051,3.891-.033,7.783-.033,11.617h24.814Zm-26.99-28.378c6.739,0,13.251.015,19.762-.031.477,0,1.254-.349,1.381-.712,1.536-4.417,2.975-8.867,4.5-13.479-6.765,0-13.2-.02-19.642.036a1.928,1.928,0,0,0-1.514.818c-1.539,4.376-2.967,8.792-4.482,13.368m106.676,0c6.8,0,13.373.012,19.943-.029a1.529,1.529,0,0,0,1.2-.666c1.529-4.437,2.979-8.9,4.5-13.527-6.795,0-13.307-.021-19.817.043a1.86,1.86,0,0,0-1.394.976c-1.512,4.308-2.923,8.652-4.435,13.2m-55.4-7.111c4.9,3.269,9.545,6.388,14.226,9.454a1.517,1.517,0,0,0,1.351-.015c4.684-3.059,9.333-6.172,14.243-9.439-4.92-3.274-9.571-6.388-14.257-9.448a1.514,1.514,0,0,0-1.351,0c-4.679,3.065-9.323,6.182-14.212,9.445" transform="translate(-37.459 -32.143)" fill="#010102"/><path d="M181.978,72.6c2.371,0,4.742-.053,7.111.012a7.1,7.1,0,0,1-.055,14.192q-7.11.109-14.223,0a7.1,7.1,0,1,1,.055-14.2c2.37-.048,4.741-.009,7.112-.008" transform="translate(-78.755 -37.03)" fill="#a3314f"/><path d="M181.9,218.555c-2.3,0-4.593.03-6.889-.007a7.1,7.1,0,1,1-.125-14.2q7-.083,14,0a7.1,7.1,0,1,1-.1,14.2c-2.3.037-4.593.007-6.889.007" transform="translate(-78.755 -90.533)" fill="#a3314f"/><path d="M108.678,207.152v10.555H83.864c0-3.834-.018-7.726.033-11.618a1.64,1.64,0,0,1,.718-1.01c3.143-2.29,6.687-3.337,10.186-1.387,4.311,2.4,8.678,4.048,13.877,3.46" transform="translate(-44.711 -89.869)" fill="#ced371"/><path d="M80.2,152.7c1.515-4.577,2.943-8.992,4.482-13.368a1.931,1.931,0,0,1,1.514-.819c6.438-.055,12.877-.036,19.642-.036-1.52,4.612-2.96,9.063-4.5,13.479-.126.364-.9.708-1.38.712-6.511.047-13.022.031-19.762.031" transform="translate(-43.226 -63.795)" fill="#ffb500"/><path d="M259.842,152.7c1.512-4.551,2.923-8.9,4.435-13.2a1.859,1.859,0,0,1,1.394-.976c6.511-.065,13.023-.043,19.817-.043-1.526,4.627-2.976,9.09-4.5,13.526a1.53,1.53,0,0,1-1.2.666c-6.571.042-13.142.029-19.943.029" transform="translate(-116.189 -63.796)" fill="#ffb500"/><path d="M166.552,143.887c4.889-3.263,9.533-6.38,14.212-9.445a1.514,1.514,0,0,1,1.351,0c4.686,3.06,9.337,6.174,14.257,9.448-4.91,3.267-9.56,6.38-14.243,9.439a1.517,1.517,0,0,1-1.351.015c-4.681-3.065-9.327-6.185-14.226-9.454" transform="translate(-78.298 -62.092)" fill="#e2e2e2"/></g></g></g></svg>