<svg xmlns="http://www.w3.org/2000/svg" width="124" height="124" viewBox="0 0 124 124"><g transform="translate(-1158 -6638)"><circle cx="62" cy="62" r="62" transform="translate(1158 6638)" fill="#ced371"/><g transform="translate(1183.91 6662.715)"><g transform="translate(0 1.212)"><path d="M44.277,73.359H0V8.084a3.631,3.631,0,0,0,.542.08q7.015.007,14.03,0c.16,0,.319-.015.545-.026V1.212H59.379v.8q0,18.82-.01,37.641a1.027,1.027,0,0,0,.535,1.016c.86.525,1.692,1.1,2.522,1.672a4.092,4.092,0,0,0,2.445.74c2.232-.021,4.465-.008,6.7-.006.2,0,.4.02.613.032v2.313c-2.349,0-4.7-.012-7.048.017a7.035,7.035,0,0,1-4.167-1.261c-2.483-1.69-5-3.334-7.488-5.01a3.939,3.939,0,0,0-2.448-.731.664.664,0,0,0-.509.312c-.314,1.046-.579,2.106-.867,3.194.217.056.373.092.527.136a3.477,3.477,0,0,1,1.944,5.273,3.714,3.714,0,0,1-3.347,1.577q-5.427-.014-10.855,0c-.657,0-1.318-.012-1.971.047a3.313,3.313,0,0,0-2.942,3.416h.754c2.467,0,4.935.049,7.4-.012a24.4,24.4,0,0,1,9.113,1.462,14.583,14.583,0,0,0,9,.368c4.223-1.146,8.466-2.138,12.895-1.815V54.6c-2.2.152-4.365.159-6.482.489-2.133.332-4.215.985-6.335,1.5v9.768H44.277ZM17.5,9.355c-.018.366-.035.731-.056,1.167H2.38V70.984H41.87V61.714c-1.393-.437-1.1.839-1.469,1.437l-2.2-.564c.085-.343.129-.623.225-.885a.68.68,0,0,0-.276-.894A4.046,4.046,0,0,1,36.616,56.2c.125-.465.236-.933.368-1.456H33.6c-1.97,0-2.68-.564-3.052-2.364a9.569,9.569,0,0,1-1.874-.121,3.6,3.6,0,0,1-1.628-6.086c.564-.611,1.187-1.167,1.783-1.748l-.08-.164h-4.26V41.92c2.108,0,4.174,0,6.239-.005a1.081,1.081,0,0,0,.657-.127c.72-.653,1.4-1.349,2.094-2.03L33.4,39.6H24.485V37.266H25.3c3.407,0,6.814,0,10.221-.007a1.526,1.526,0,0,0,.8-.174,6.148,6.148,0,0,1,3.677-.974c.625.019,1.252,0,1.879,0V10.468H19.809l-.06-1.116.07-1.14H44.272v19.2a1.378,1.378,0,0,0,.279-.576q1.42-5.26,2.837-10.52a4.445,4.445,0,0,1,5.4-3.413,4.253,4.253,0,0,1,3.244,5.359c-1.485,5.57-3,11.132-4.5,16.7-.1.369-.174.744-.276,1.18,2.395-.111,3.926,1.526,5.762,2.554V3.552H17.5ZM44.263,64.011H57.034V56.916c-3.849.609-7.313-.846-10.847-1.885a2.15,2.15,0,0,0-.168.3c-.533,1.635-.642,3.419-1.719,4.863a.506.506,0,0,0-.036.275c0,1.168,0,2.336,0,3.539m2.277-35.622L41.632,46.55H45.98l4.55-16.822-3.992-1.339m-5.151,10.1a5.307,5.307,0,0,0-4.983,1.563c-2.372,2.54-4.894,4.941-7.351,7.4-.2.2-.483.394-.537.634a2.036,2.036,0,0,0-.009,1.3,1.523,1.523,0,0,0,1.129.63,1.886,1.886,0,0,0,1.125-.612c1.833-1.789,3.64-3.6,5.442-5.424A6.118,6.118,0,0,1,39.986,42a.709.709,0,0,0,.525-.328c.32-1.047.588-2.111.877-3.188M52.394,22.836c.493-1.823.982-3.531,1.411-5.254a1.917,1.917,0,0,0-1.966-2.44,1.787,1.787,0,0,0-1.9,1.048c-.586,1.737-1.044,3.518-1.564,5.312l4.023,1.333M39.413,54.77c-.2.74-.413,1.433-.582,2.137a1.912,1.912,0,0,0,1.238,2.368,2.076,2.076,0,0,0,2.711-1.1c.4-1.095.66-2.237,1-3.409Zm7.739-28.63,3.988,1.323.643-2.371-3.992-1.32-.639,2.369m1.262,20.381c1.278.146,1.915-.21,1.947-1.054.029-.746-.448-1.165-1.359-1.144l-.588,2.2m-8.65-2.006-.208-.223-2.705,2.194c2.3.311,2.3.311,2.825-1.649.029-.108.059-.215.088-.322" transform="translate(0 -1.212)" fill="#040404"/><path d="M33.761,57.276l.06,1.116H55.884V84.039c-.627,0-1.254.016-1.879,0a6.148,6.148,0,0,0-3.677.974,1.526,1.526,0,0,1-.8.174c-3.407.011-6.814.007-10.221.007H38.5v2.331h8.911l.079.161c-.694.681-1.375,1.377-2.094,2.03a1.081,1.081,0,0,1-.657.127c-2.065.009-4.131.005-6.239.005v2.337h4.26l.08.164c-.6.581-1.219,1.137-1.783,1.748a3.6,3.6,0,0,0,1.628,6.086,9.569,9.569,0,0,0,1.874.121c.373,1.8,1.083,2.364,3.052,2.364H51c-.132.522-.243.991-.368,1.456a4.046,4.046,0,0,0,1.537,4.612.68.68,0,0,1,.276.894c-.1.262-.14.542-.225.885l2.2.564c.373-.6.075-1.874,1.469-1.437v9.269H16.392V58.446H31.456c.021-.436.039-.8.056-1.167l2.249,0M31.47,103.207l6.781-6.551-1.939-1.91-5.363,5.573L28,100.3q-.025-.55-.051-1.1H18.705v13.89H32.593v-6.9l-1.1-.055-.027-2.92m-.542-22.651L28,80.537V79.415H18.723V93.323H32.587V86.364l-1.1-.052q-.007-1.462-.013-2.924L38.2,76.87l-1.863-1.948-5.414,5.633m18-19.765H18.707V72.325H48.925ZM53.58,80.575H38.511v2.252H53.58ZM36.162,115.424H48.91v-2.252H36.162ZM53.6,113.177H51.312v2.255H53.6Z" transform="translate(-14.012 -49.137)" fill="#e4e7eb"/><path d="M122.788,23.129l-2.249,0v-5.8h39.52V52.466c-1.836-1.027-3.368-2.665-5.762-2.554.1-.437.176-.812.276-1.18,1.5-5.566,3.014-11.128,4.5-16.7a4.253,4.253,0,0,0-3.244-5.359,4.445,4.445,0,0,0-5.4,3.413q-1.419,5.26-2.837,10.52a1.38,1.38,0,0,1-.279.577v-19.2H122.858l-.07,1.14" transform="translate(-103.039 -14.99)" fill="#c9ced6"/><path d="M266.531,264.555q0,3.486-.005,6.971c-4.429-.324-8.671.669-12.895,1.815a14.582,14.582,0,0,1-9-.368,24.41,24.41,0,0,0-9.113-1.462c-2.465.062-4.933.012-7.4.012h-.755a3.313,3.313,0,0,1,2.942-3.416c.653-.059,1.314-.046,1.971-.047q5.427-.006,10.855,0a3.714,3.714,0,0,0,3.347-1.577,3.478,3.478,0,0,0-1.944-5.273c-.153-.044-.309-.08-.527-.136.289-1.087.553-2.148.867-3.194a.664.664,0,0,1,.509-.312,3.942,3.942,0,0,1,2.448.731c2.492,1.676,5.006,3.32,7.488,5.01a7.036,7.036,0,0,0,4.167,1.261c2.349-.029,4.7-.014,7.048-.017" transform="translate(-194.351 -220.348)" fill="#eeceb3"/><path d="M304.882,380.9c0-1.2,0-2.371,0-3.539a.506.506,0,0,1,.036-.275c1.077-1.445,1.186-3.229,1.719-4.863a2.139,2.139,0,0,1,.168-.3c3.534,1.039,7,2.494,10.847,1.885V380.9Z" transform="translate(-260.62 -318.099)" fill="#cacfd6"/><path d="M291.669,188.4l3.992,1.339-4.55,16.822h-4.349l4.907-18.161" transform="translate(-245.13 -161.229)" fill="#ffb500"/><path d="M208.622,257.5c-.289,1.077-.557,2.141-.877,3.188a.709.709,0,0,1-.525.328A6.118,6.118,0,0,0,203.438,263c-1.8,1.82-3.609,3.636-5.442,5.424a1.885,1.885,0,0,1-1.125.612,1.523,1.523,0,0,1-1.13-.63,2.036,2.036,0,0,1,.009-1.3c.054-.24.339-.436.537-.634,2.456-2.462,4.978-4.863,7.351-7.4a5.307,5.307,0,0,1,4.983-1.563" transform="translate(-167.233 -220.228)" fill="#edcdb1"/><path d="M337.2,104.865l-4.023-1.333c.52-1.794.978-3.575,1.564-5.312a1.787,1.787,0,0,1,1.9-1.048,1.917,1.917,0,0,1,1.966,2.439c-.429,1.723-.918,3.43-1.411,5.254" transform="translate(-284.806 -83.241)" fill="#ffb500"/><path d="M267.657,370.125h4.364c-.336,1.172-.6,2.314-1,3.409a2.075,2.075,0,0,1-2.711,1.1,1.912,1.912,0,0,1-1.238-2.368c.169-.7.379-1.4.582-2.137" transform="translate(-228.244 -316.567)" fill="#ffb500"/><path d="M324.782,158.974l.639-2.369,3.992,1.32-.643,2.372-3.988-1.323" transform="translate(-277.63 -134.045)" fill="#e0e3e7"/><path d="M333.475,300.354l.588-2.2c.911-.02,1.388.4,1.359,1.144-.032.844-.669,1.2-1.947,1.054" transform="translate(-285.061 -255.045)" fill="#c5cad2"/><path d="M256.742,298.174c-.029.107-.059.214-.088.322-.521,1.96-.521,1.96-2.825,1.649l2.705-2.194.208.223" transform="translate(-216.978 -254.871)" fill="#dde0e4"/><path d="M62.557,93.022H32.339V81.487H62.557ZM60.2,83.808H34.7v6.935H60.2Z" transform="translate(-27.644 -69.833)" fill="#010101"/><path d="M45.219,216.668l1.1.052v6.959H32.451V209.77h9.281v1.122c-.019.367-.037.734-.06,1.183H34.778v9.232h9.306v-4.582l1.135-.057" transform="translate(-27.74 -179.492)" fill="#040302"/><path d="M45.116,352.952l1.1.055v6.9H32.325V346.02h9.247q.026.553.051,1.1c-.019.388-.038.776-.06,1.221H34.677v9.246h9.3v-4.575l1.137-.062" transform="translate(-27.632 -295.961)" fill="#030202"/><path d="M58.921,223.272l-1.135.057v4.582H48.48v-9.232h6.895c.023-.449.041-.816.06-1.183l2.923.019-5.48,5.289-1.153-1.42L50.1,223l3.176,3.174,5.636-5.831q.007,1.462.013,2.924" transform="translate(-41.442 -186.096)" fill="#a3314f"/><path d="M58.967,359.442l-1.137.062v4.575h-9.3v-9.246h6.886c.022-.446.041-.834.06-1.222l2.946.021L52.9,358.994l-1.148-1.4-1.591,1.482,3.232,3.207,5.553-5.764.027,2.921" transform="translate(-41.483 -302.451)" fill="#a3314f"/><path d="M68.527,323.832,62.975,329.6l-3.232-3.207,1.591-1.482,1.148,1.4,5.525-5.362,5.363-5.572,1.939,1.91-6.781,6.551" transform="translate(-51.07 -269.762)" fill="#070505"/><path d="M68.422,187.294l-5.636,5.831-3.176-3.173,1.629-1.62,1.153,1.42,5.48-5.289,5.413-5.633,1.863,1.948-6.726,6.518" transform="translate(-50.956 -153.042)" fill="#010101"/><rect width="15.069" height="2.252" transform="translate(24.499 31.438)" fill="#010101"/><rect width="12.748" height="2.252" transform="translate(22.15 64.034)" fill="#070707"/><rect width="2.286" height="2.255" transform="translate(37.3 64.041)" fill="#0c0c0d"/><path d="M74.108,104.407h-25.5V97.472h25.5ZM53.156,99.828H50.9v2.216h2.254Zm4.675-.014H55.57v2.245h2.261Zm4.663,0H60.221v2.247h2.273Zm2.393,2.215h2.257V99.8H64.887Zm6.923-2.194H69.533v2.225h2.278Z" transform="translate(-41.555 -83.497)" fill="#ced371"/><rect width="2.254" height="2.216" transform="translate(9.347 16.33)" fill="#050603"/><rect width="2.261" height="2.245" transform="translate(14.015 16.316)" fill="#050603"/><rect width="2.273" height="2.247" transform="translate(18.666 16.315)" fill="#050603"/><rect width="2.257" height="2.226" transform="translate(23.333 16.304)" fill="#050603"/><rect width="2.278" height="2.225" transform="translate(27.979 16.336)" fill="#050603"/></g></g></g></svg>