<svg xmlns="http://www.w3.org/2000/svg" width="136" height="136" viewBox="0 0 136 136"><g transform="translate(-180 -840)"><circle cx="68" cy="68" r="68" transform="translate(180 840)" fill="#ced371"/><g transform="translate(206.803 864.302)"><g transform="translate(0 0.709)"><path d="M0,145.93a1.966,1.966,0,0,1,1.723-.678c1.632.042,3.266.013,4.948.013V135.5c-.967,0-1.912,0-2.856,0-1.018-.006-1.524-.41-1.51-1.2.013-.768.54-1.175,1.554-1.182.92-.007,1.841,0,2.806,0V118.531c-1,0-1.972.007-2.942,0-.912-.009-1.39-.4-1.415-1.131-.026-.763.484-1.229,1.405-1.244.971-.016,1.942,0,2.939,0V101.567c-1.017,0-1.989.009-2.961,0-.9-.011-1.378-.422-1.385-1.162s.487-1.194,1.358-1.212c.974-.019,1.949,0,3.023,0,0-1.633,0-3.233,0-4.833a3.335,3.335,0,0,1,.1-.935A1.059,1.059,0,0,1,8,92.631a1.069,1.069,0,0,1,1.042,1,6.513,6.513,0,0,1,.021.871q.018,24.77.035,49.54c0,.312,0,.623,0,1.051,1.489,0,2.905,0,4.322,0q22.671.045,45.343.093c6.949.017,13.9.055,20.847.069.722,0,1.335.118,1.54.917.211.82-.389,1.463-1.394,1.466-2.325.008-4.65-.011-6.976-.018h-.807c0,1.07.023,2.119-.007,3.167-.029,1.017-.935,1.637-1.717,1.127a1.7,1.7,0,0,1-.627-1.152c-.088-1.018-.029-2.049-.029-3.14H55.013c0,1,.008,2,0,3-.009.929-.457,1.462-1.2,1.46s-1.171-.532-1.177-1.467c-.006-1,0-2,0-3.042H38.045c0,1.035.015,2.1,0,3.174a1.2,1.2,0,0,1-1.242,1.334,1.169,1.169,0,0,1-1.128-1.272c-.017-1.056,0-2.113,0-3.241H21.078c0,.958.022,1.977-.012,2.994-.012.354-.048.84-.272,1.023a1.932,1.932,0,0,1-1.245.4.961.961,0,0,1-.845-1.074c-.01-1.106,0-2.213,0-3.384H9.069v2.546c0,.845-.04,1.693.012,2.536a1.936,1.936,0,0,1-.677,1.721H7.453a1.76,1.76,0,0,1-.777-1.67c.034-1.649.011-3.3.011-4.873-.087-.092-.1-.127-.123-.127-1.631-.007-3.261-.035-4.891-.005A1.765,1.765,0,0,1,0,146.881Z" transform="translate(0 -73.158)" fill="#050505"/><path d="M131.812,70.6c.309,1.223-.018,1.781-1.276,1.877a15.709,15.709,0,0,1-2.177-.2,1.178,1.178,0,0,0-.8.147q-5.614,5.423-11.188,10.888a1.222,1.222,0,0,0-.133.19c.862,2.293.219,4.4-1.674,5.512a4.076,4.076,0,0,1-5.166-.9c-1.418-1.651-1.331-3.791.257-5.777l-7.884-15.791-3.314,6.3a4.181,4.181,0,0,1,0,5.937c-1.557,1.56-3.738,1.611-5.8.141-.155.081-.339.168-.515.269-2.857,1.64-5.709,3.29-8.574,4.915a.825.825,0,0,0-.493.918A4.136,4.136,0,1,1,78.9,81.239a4.052,4.052,0,0,1,2.938,1.119q1.435-.821,2.865-1.64c2.1-1.208,4.208-2.411,6.3-3.641a.892.892,0,0,0,.419-.619c-.05-3.092,1.819-4.918,4.919-4.7,1.311-2.494,2.641-5,3.942-7.53a.925.925,0,0,0-.043-.718q-1.859-3.8-3.775-7.563a.943.943,0,0,0-.709-.388,4.308,4.308,0,0,1-4.061-2.53A.932.932,0,0,0,91,52.611q-4-.028-8.005.035a.935.935,0,0,0-.651.468,4.154,4.154,0,0,1-7.9-1.075,4.133,4.133,0,0,1,7.776-2.466,1.009,1.009,0,0,0,1.117.686c2.509-.045,5.02-.044,7.53-.042a.817.817,0,0,0,.909-.523A3.921,3.921,0,0,1,95.54,47.27a3.837,3.837,0,0,1,3.672,2.31A4,4,0,0,1,98.7,54.1a.774.774,0,0,0-.127.658c1.043,2.154,2.12,4.292,3.246,6.552l7.728-14.716a4.37,4.37,0,0,1-1.171-2.92,3.92,3.92,0,0,1,2.21-3.66,3.851,3.851,0,0,1,4.261.229.94.94,0,0,0,1.176.086c2.925-1.569,5.869-3.1,8.814-4.632a.8.8,0,0,0,.552-.813,4.131,4.131,0,0,1,7.905-1.824,4.093,4.093,0,0,1-1.339,5.013,4.163,4.163,0,0,1-5.31-.314c-.059-.052-.119-.1-.236-.2l-5.767,3.023c-1.19.624-2.386,1.236-3.561,1.887a.88.88,0,0,0-.435.6c.024,3.071-1.86,4.873-4.977,4.669-.092.157-.2.329-.3.51q-3.97,7.556-7.922,15.12a1.275,1.275,0,0,0-.083.992q4.146,8.4,8.352,16.761c.023.046.058.086-.006-.008.932.2,1.741.39,2.56.518a.9.9,0,0,0,.65-.254c3.639-3.533,7.26-7.086,10.9-10.613a.822.822,0,0,0,.191-1.028,4.126,4.126,0,0,1,7.3-3.681c.647.91.509,1.544-.464,2.145a1.506,1.506,0,0,1-1.5-.785,1.68,1.68,0,0,0-2.294-.528,1.724,1.724,0,0,0-.809,2.092,1.752,1.752,0,0,0,2,1.151,1.5,1.5,0,0,1,1.562.468M112.5,45.393a1.728,1.728,0,0,0,1.791-1.719,1.8,1.8,0,0,0-1.744-1.793,1.76,1.76,0,0,0-1.772,1.748,1.682,1.682,0,0,0,1.726,1.765M80.734,85.38a1.748,1.748,0,0,0-1.762-1.76,1.773,1.773,0,0,0-1.765,1.766,1.824,1.824,0,0,0,1.777,1.77,1.775,1.775,0,0,0,1.75-1.776M95.5,53.15A1.757,1.757,0,0,0,97.3,51.436a1.81,1.81,0,0,0-1.743-1.794,1.766,1.766,0,0,0-1.784,1.737A1.689,1.689,0,0,0,95.5,53.15m-1.723,22.7a1.8,1.8,0,0,0,1.746,1.788A1.824,1.824,0,0,0,97.3,75.877,1.785,1.785,0,0,0,95.543,74.1a1.738,1.738,0,0,0-1.769,1.747m17,9.528a1.735,1.735,0,0,0,1.716,1.8,1.807,1.807,0,0,0,1.793-1.748,1.77,1.77,0,0,0-1.743-1.782,1.692,1.692,0,0,0-1.766,1.732M78.539,53.17a1.738,1.738,0,0,0,1.774-1.744,1.774,1.774,0,1,0-3.547,0,1.735,1.735,0,0,0,1.773,1.742m50.911-16.68a1.706,1.706,0,0,0,1.814-1.683,1.754,1.754,0,1,0-3.507-.115,1.7,1.7,0,0,0,1.693,1.8" transform="translate(-58.637 -24.264)" fill="#040404"/><path d="M15.271,12.153c-1.095,0-2.07.011-3.044,0-.846-.013-1.31-.421-1.335-1.132-.026-.741.464-1.221,1.325-1.24.977-.022,1.955-.005,3-.005.018-.207.051-.406.051-.6q.005-3.369,0-6.738A4.53,4.53,0,0,1,15.29,1.8,1.164,1.164,0,0,1,16.523.71,1.121,1.121,0,0,1,17.642,1.9c.024,1.585.011,3.171.011,4.756,0,2.431.005,4.862,0,7.293,0,.941-.443,1.446-1.2,1.429-.72-.016-1.152-.524-1.172-1.4-.014-.577,0-1.154,0-1.818" transform="translate(-8.585 -0.709)" fill="#040404"/><path d="M331.9,204.776a1.5,1.5,0,0,0-1.562-.468,1.752,1.752,0,0,1-2-1.151,1.724,1.724,0,0,1,.809-2.092,1.68,1.68,0,0,1,2.294.528,1.507,1.507,0,0,0,1.5.785,2.536,2.536,0,0,1-1.042,2.4" transform="translate(-258.723 -158.442)" fill="#a3314f"/><path d="M247.887,87.4a1.682,1.682,0,0,1-1.726-1.765,1.76,1.76,0,0,1,1.772-1.748,1.8,1.8,0,0,1,1.744,1.793,1.728,1.728,0,0,1-1.791,1.719" transform="translate(-194.028 -66.273)" fill="#f8de58"/><path d="M91.207,282.735a1.775,1.775,0,0,1-1.75,1.776,1.824,1.824,0,0,1-1.777-1.769,1.774,1.774,0,0,1,1.765-1.766,1.748,1.748,0,0,1,1.762,1.76" transform="translate(-69.111 -221.619)" fill="#f7de57"/><path d="M167.634,124.043a1.689,1.689,0,0,1-1.721-1.772,1.766,1.766,0,0,1,1.784-1.737,1.809,1.809,0,0,1,1.743,1.794,1.757,1.757,0,0,1-1.806,1.715" transform="translate(-130.775 -95.156)" fill="#a3314f"/><path d="M165.906,237.791a1.738,1.738,0,0,1,1.769-1.747,1.785,1.785,0,0,1,1.762,1.773,1.824,1.824,0,0,1-1.785,1.762,1.8,1.8,0,0,1-1.746-1.788" transform="translate(-130.77 -186.203)" fill="#f7de58"/><path d="M246.195,282.838a1.693,1.693,0,0,1,1.766-1.732,1.77,1.77,0,0,1,1.743,1.783,1.807,1.807,0,0,1-1.793,1.748,1.736,1.736,0,0,1-1.716-1.8" transform="translate(-194.054 -221.723)" fill="#a3314f"/><path d="M87.372,124.1a1.734,1.734,0,0,1-1.773-1.742,1.773,1.773,0,1,1,3.547,0,1.737,1.737,0,0,1-1.773,1.744" transform="translate(-67.47 -95.198)" fill="#a3314f"/><path d="M328.06,45.391a1.7,1.7,0,0,1-1.693-1.8,1.754,1.754,0,1,1,3.507.115,1.706,1.706,0,0,1-1.813,1.683" transform="translate(-257.247 -33.166)" fill="#f9df58"/></g></g></g></svg>