<svg xmlns="http://www.w3.org/2000/svg" xmlns:xlink="http://www.w3.org/1999/xlink" width="400" height="389.864" viewBox="0 0 400 389.864"><defs><clipPath id="a"><rect width="92.388" height="74.734" fill="none"/></clipPath><clipPath id="b"><rect width="156.522" height="81.211" fill="none"/></clipPath><clipPath id="c"><rect width="152.754" height="69.752" fill="none"/></clipPath><clipPath id="d"><rect width="240.558" height="93.822" fill="none"/></clipPath><clipPath id="e"><rect width="7.183" height="14.835" fill="none"/></clipPath><clipPath id="f"><rect width="18.58" height="39.664" fill="none"/></clipPath></defs><g transform="translate(-915 -4439.644)"><g transform="translate(911 4439.645)"><path d="M213.13,102.22,189.856,117.8A35.743,35.743,0,0,0,210.1,132.122a33.125,33.125,0,0,0,30.343-6.689,39.629,39.629,0,0,0,3.036-2.787c.023-.024.048-.046.072-.07l0,0-24.93-23.98Z" transform="translate(-25.343 -13.161)" fill="#e0e0e0"/><path d="M185.536,72.473a33.225,33.225,0,0,0-.907,33.237c.165.315.334.63.511.945.111.2.216.4.331.6q.507.867,1.071,1.73c.017.026.032.052.049.079l0,0c.016.024.029.049.045.073l0,0,23.274-15.583,5.469-3.662-12.451-32.23-.016-.04a33.38,33.38,0,0,0-6.474,3.375,36.356,36.356,0,0,0-10.909,11.481" transform="translate(-24.109 -7.691)" fill="#ebebeb"/><path d="M223.349,89.3l24.93,23.98a34.592,34.592,0,0,0-37.4-56.246l12.452,32.23" transform="translate(-28.149 -7.303)" fill="#f5f5f5"/><path d="M37.7,216.7c7.987-4.731,10.392-14.366,10.7-23.154.051-1.467.321-3-.295-4.331a3.041,3.041,0,0,0-3.572-1.8c-1.136.436-1.7,1.667-2.393,2.67a8.656,8.656,0,0,1-3.706,3.039,3.35,3.35,0,0,1-3.064.063c-1.231-.785-1.26-2.539-1.151-3.995q.309-4.067.617-8.135a13.43,13.43,0,0,0-.145-4.354,4.546,4.546,0,0,0-2.663-3.25,2.789,2.789,0,0,0-3.562,1.6,13.307,13.307,0,0,0-.167,1.809,1.537,1.537,0,0,1-1.008,1.379,1.8,1.8,0,0,1-1.573-.78,19.366,19.366,0,0,1-3.157-5.488,26.834,26.834,0,0,0-2.908-5.639,8.013,8.013,0,0,0-5.2-3.363,4.79,4.79,0,0,0-5.12,2.878c-.678,2.015.391,4.18,1.6,5.932a32.769,32.769,0,0,0,6.407,6.92A2.69,2.69,0,0,1,18.4,180c.253.992-.746,1.892-1.738,2.144a17.344,17.344,0,0,1-3.469.145,3.335,3.335,0,0,0-2.95,1.512c-.707,1.447.445,3.093,1.615,4.2a28.354,28.354,0,0,0,8.017,5.329,9.6,9.6,0,0,1,3,1.7,2.679,2.679,0,0,1,.66,3.146,2.807,2.807,0,0,1-3.1.939,19.889,19.889,0,0,1-3.152-1.443c-1.974-.895-4.6-.937-6.02.7a4.565,4.565,0,0,0-.779,4.039,10.609,10.609,0,0,0,1.986,3.751A28.4,28.4,0,0,0,24,215.394c4.591,1.932,8.917,2.667,13.707,1.3" transform="translate(-2.219 -1.749)" fill="#ebebeb"/><path d="M37.6,211.836a129.865,129.865,0,0,0-4.273-14.4l-1.316-3.719c-.435-1.22-.865-2.428-1.36-3.585a65.172,65.172,0,0,0-3.231-6.488c-1.129-2.015-2.275-3.887-3.36-5.63s-2.133-3.345-3.149-4.767a52.369,52.369,0,0,0-5.29-6.354c-.682-.7-1.228-1.226-1.6-1.578l-.428-.4c-.1-.089-.151-.13-.151-.13s.044.052.136.146l.413.413c.364.363.9.9,1.571,1.606a54.777,54.777,0,0,1,5.225,6.385c1.005,1.424,2.04,3.031,3.12,4.774s2.215,3.619,3.337,5.633a65.52,65.52,0,0,1,3.21,6.473c.492,1.152.918,2.353,1.353,3.576l1.315,3.717a132.416,132.416,0,0,1,4.283,14.373" transform="translate(-4.053 -2.538)" fill="#e0e0e0"/><path d="M43.293,205.153a5.251,5.251,0,0,0,.268-.925c.153-.6.351-1.473.58-2.555.459-2.165.995-5.174,1.578-8.494s1.17-6.315,1.675-8.464c.25-1.075.462-1.944.618-2.542a5.281,5.281,0,0,0,.2-.94,5.407,5.407,0,0,0-.328.9c-.194.588-.442,1.45-.721,2.521-.566,2.141-1.191,5.138-1.775,8.462-.573,3.292-1.092,6.272-1.481,8.507-.192,1.041-.353,1.905-.476,2.574a5.256,5.256,0,0,0-.141.951" transform="translate(-5.778 -24.192)" fill="#e0e0e0"/><path d="M10.724,200.48a.667.667,0,0,0,.193.045l.558.087c.485.072,1.185.176,2.047.334,1.725.3,4.094.8,6.681,1.467s4.9,1.382,6.559,1.945c.831.276,1.5.518,1.959.684l.532.188a.684.684,0,0,0,.191.052.664.664,0,0,0-.175-.094l-.518-.226c-.452-.19-1.112-.455-1.938-.751-1.648-.6-3.963-1.337-6.555-2.012s-4.974-1.147-6.711-1.408c-.867-.137-1.573-.219-2.062-.265l-.563-.046a.737.737,0,0,0-.2,0" transform="translate(-2.898 -17.714)" fill="#e0e0e0"/><path d="M55.154,240.609a1.762,1.762,0,0,0,.212-.334l.555-.99c.477-.861,1.139-2.125,1.936-3.695,1.6-3.14,3.67-7.544,5.895-12.434s4.263-9.3,5.8-12.467l1.84-3.74.5-1.018a1.78,1.78,0,0,0,.154-.366,1.778,1.778,0,0,0-.213.334c-.143.257-.327.585-.554.99-.477.861-1.139,2.125-1.936,3.695-1.6,3.14-3.67,7.544-5.9,12.435s-4.262,9.3-5.8,12.466c-.763,1.55-1.387,2.818-1.84,3.74l-.5,1.018a1.779,1.779,0,0,0-.154.366" transform="translate(-7.362 -27.44)" fill="#e0e0e0"/><path d="M12.281,229.048a1.321,1.321,0,0,0,.245.114l.717.287,2.642,1.041c2.229.881,5.294,2.137,8.676,3.533s6.459,2.63,8.7,3.475c1.123.423,2.034.757,2.668.976l.731.249a1.2,1.2,0,0,0,.26.072,1.272,1.272,0,0,0-.245-.114l-.717-.287-2.641-1.041c-2.23-.881-5.294-2.138-8.677-3.533s-6.458-2.629-8.7-3.474c-1.123-.423-2.034-.757-2.668-.976l-.731-.249a1.25,1.25,0,0,0-.26-.072" transform="translate(-3.56 -29.864)" fill="#e0e0e0"/><path d="M43.539,282.98c-13,46.972,9.943,76.45,39.114,99.764s65.986,35.408,103.32,36.245c40.827.915,100.351-6.5,132.833-24.922,17.727-10.055,36.238-24.933,48.648-41.1s9.479-51.894,6.475-72.051c-4.335-29.092-38.76-47.466-66.823-56.281s-58.361-6.265-87.432-1.782" transform="translate(-5.314 -29.201)" fill="#ebebeb"/><path d="M451.642,139.721a16.591,16.591,0,0,1,.606,4.367l3.632,1.879-1.7,6.546-4.086-.129a16.578,16.578,0,0,1-2.658,3.518l1.239,3.894-5.833,3.424-2.8-2.979a16.592,16.592,0,0,1-4.368.606l-1.878,3.631-6.547-1.7.13-4.087a16.552,16.552,0,0,1-3.517-2.658l-3.9,1.239-3.424-5.832,2.98-2.8a16.584,16.584,0,0,1-.6-4.368l-3.632-1.878,1.7-6.546,4.086.129a16.576,16.576,0,0,1,2.658-3.518l-1.24-3.894,5.833-3.425,2.8,2.98a16.587,16.587,0,0,1,4.367-.606l1.879-3.632,6.547,1.7-.131,4.086a16.584,16.584,0,0,1,3.519,2.658l3.894-1.239,3.424,5.833ZM442,140.772a7.256,7.256,0,1,0-2.585,9.931A7.258,7.258,0,0,0,442,140.772" transform="translate(-55.435 -16.537)" fill="#f5f5f5" fill-rule="evenodd"/><path d="M390.913,153.442a33.42,33.42,0,0,1,1.223,8.811l7.326,3.788-3.436,13.2-8.242-.262a33.413,33.413,0,0,1-5.361,7.1l2.5,7.856-11.766,6.907-5.64-6.01a33.432,33.432,0,0,1-8.812,1.222l-3.788,7.325-13.2-3.436.262-8.242a33.442,33.442,0,0,1-7.1-5.361l-7.856,2.5-6.907-11.766,6.01-5.641a33.452,33.452,0,0,1-1.222-8.811l-7.325-3.788,3.436-13.2,8.243.262a33.463,33.463,0,0,1,5.361-7.1l-2.5-7.855,11.766-6.908,5.64,6.011a33.392,33.392,0,0,1,8.812-1.223l3.788-7.325,13.2,3.435-.262,8.244a33.428,33.428,0,0,1,7.1,5.36l7.855-2.5,6.908,11.766Zm-19.458,2.12a14.636,14.636,0,1,0-5.211,20.032,14.636,14.636,0,0,0,5.211-20.032" transform="translate(-42.392 -16.218)" fill="#ebebeb" fill-rule="evenodd"/><path d="M415.536,96.514a12.89,12.89,0,0,1,.47,3.395l2.823,1.46-1.324,5.088-3.176-.1a12.874,12.874,0,0,1-2.067,2.735l.964,3.028-4.534,2.661-2.173-2.315a12.892,12.892,0,0,1-3.4.471l-1.459,2.822-5.088-1.323.1-3.177a12.9,12.9,0,0,1-2.735-2.066l-3.028.963-2.662-4.534,2.316-2.174a12.89,12.89,0,0,1-.471-3.395l-2.823-1.46L388.6,93.5l3.177.1a12.893,12.893,0,0,1,2.066-2.735l-.964-3.028,4.534-2.661,2.173,2.316a12.861,12.861,0,0,1,3.4-.471l1.46-2.823,5.088,1.324-.1,3.177a12.918,12.918,0,0,1,2.735,2.066l3.027-.963,2.662,4.534Zm-7.5.817a5.64,5.64,0,1,0-2.009,7.72,5.641,5.641,0,0,0,2.009-7.72" transform="translate(-51.696 -11.24)" fill="#e0e0e0"/><path d="M409.594,98.907a4.26,4.26,0,0,1,.606,1.259,5.616,5.616,0,0,1-.151,3.778,5.69,5.69,0,0,1-1.529,2.171,5.771,5.771,0,0,1-2.738,1.335,5.788,5.788,0,0,1-3.344-.367,5.754,5.754,0,0,1-3.47-5.911,5.786,5.786,0,0,1,1.308-3.1,5.774,5.774,0,0,1,2.5-1.74,5.7,5.7,0,0,1,6.012,1.433,4.258,4.258,0,0,1,.8,1.142c-.033.023-.265-.427-.894-1.054a5.618,5.618,0,0,0-3.31-1.571,5.509,5.509,0,0,0-4.884,1.98,5.5,5.5,0,0,0-1.224,2.942,5.465,5.465,0,0,0,3.281,5.587,5.51,5.51,0,0,0,3.165.366,5.511,5.511,0,0,0,4.108-3.3,5.617,5.617,0,0,0,.242-3.656c-.24-.854-.52-1.276-.484-1.295" transform="translate(-53.252 -12.816)" fill="#e0e0e0"/><path d="M415.507,96.492a1.287,1.287,0,0,1,.136-.144l.43-.421,1.716-1.646-.01.063-2.688-4.518.1.036-3.023.976-.055.017-.041-.041a12.882,12.882,0,0,0-2.721-2.041l-.055-.031,0-.065c.029-.99.06-2.061.092-3.177l.086.115L404.38,84.3l.145-.065c-.45.875-.946,1.838-1.454,2.826l-.037.072h-.081a12.816,12.816,0,0,0-3.359.472l-.081.023-.058-.062-2.177-2.314.178.026-4.531,2.667.068-.175c.3.943.632,1.977.966,3.026l.029.089-.066.066a12.8,12.8,0,0,0-2.039,2.7l-.046.082-.1,0-3.176-.1.158-.119c-.418,1.611-.867,3.338-1.321,5.089l-.082-.184,2.823,1.459.088.045v.1a12.78,12.78,0,0,0,.464,3.35v0l.026.1-.071.066q-1.167,1.094-2.316,2.174l.029-.2,2.661,4.534-.187-.072,3.028-.962.092-.029.068.068a12.682,12.682,0,0,0,2.7,2.041l.082.047,0,.1q-.053,1.61-.1,3.176l-.115-.154,5.086,1.329-.17.075,1.464-2.821.041-.078h.088a12.8,12.8,0,0,0,3.359-.461l.081-.023.058.062,2.17,2.32-.166-.023,4.54-2.653-.055.145-.956-3.029-.021-.068.049-.049a12.815,12.815,0,0,0,2.056-2.705l.032-.056.064,0,3.176.112-.1.071c.522-1.969.965-3.646,1.346-5.082l.037.082-2.814-1.478-.029-.015v-.031a13.3,13.3,0,0,0-.244-2.564c-.057-.268-.1-.473-.133-.624a1.3,1.3,0,0,1-.042-.207,1.484,1.484,0,0,1,.068.2c.039.135.1.341.159.62a12.4,12.4,0,0,1,.3,2.574L416,99.841l2.833,1.441.051.027-.015.056c-.367,1.439-.8,3.12-1.3,5.094l-.019.074-.076,0-3.177-.09.1-.054a13.018,13.018,0,0,1-2.076,2.764l.028-.116c.309.963.629,1.961.97,3.024l.03.094-.085.05-4.529,2.671-.092.055-.075-.078-2.177-2.313.139.039a13.012,13.012,0,0,1-3.432.481l.128-.078-1.457,2.824-.054.106-.116-.029-5.089-1.319-.119-.031,0-.123q.048-1.566.1-3.177l.079.141a13.012,13.012,0,0,1-2.769-2.089l.159.038-3.027.964-.121.039-.065-.11-2.663-4.534-.066-.111.094-.088,2.316-2.174-.045.161v0a13.038,13.038,0,0,1-.476-3.435l.087.142-2.822-1.46-.114-.059.033-.125c.456-1.75.906-3.476,1.326-5.087l.032-.122.126,0,3.177.1-.141.079a13.118,13.118,0,0,1,2.093-2.766l-.037.155-.96-3.028-.036-.114.1-.061,4.537-2.657.1-.058.078.084,2.171,2.319-.139-.038a13.047,13.047,0,0,1,3.432-.471l-.118.072,1.465-2.82.048-.09.1.025,5.085,1.336.089.023,0,.092c-.039,1.114-.075,2.186-.11,3.176l-.054-.1a12.991,12.991,0,0,1,2.749,2.09l-.1-.023,3.031-.951.062-.019.033.056,2.636,4.549.021.036-.03.028-1.737,1.593-.452.407a1.674,1.674,0,0,1-.162.136" transform="translate(-51.667 -11.217)" fill="#e0e0e0"/><rect width="52.286" height="54.504" transform="translate(293.318 0.016)" fill="#e0e0e0"/><rect width="52.286" height="54.504" transform="translate(289.778 0.016)" fill="#fafafa"/><path d="M386.717,54.536H334.4V0h52.318ZM334.431,54.5h52.253V.032H334.431Z" transform="translate(-44.638 0)" fill="#e0e0e0"/><rect width="38.229" height="39.85" transform="translate(296.806 7.343)" fill="#fafafa"/><path d="M341.454,54.769a6.249,6.249,0,0,1-.944,1.1c-.61.644-1.468,1.516-2.43,2.463s-1.846,1.791-2.5,2.391a6.15,6.15,0,0,1-1.1.92,6.072,6.072,0,0,1,.938-1.093c.611-.644,1.471-1.518,2.436-2.469s1.85-1.8,2.5-2.394a5.954,5.954,0,0,1,1.1-.916" transform="translate(-44.648 -7.311)" fill="#e0e0e0"/><path d="M386.647,54.656a6.245,6.245,0,0,1,1.1.944c.644.61,1.516,1.468,2.464,2.43s1.791,1.846,2.391,2.5a6.149,6.149,0,0,1,.92,1.1,6.062,6.062,0,0,1-1.093-.938c-.644-.61-1.518-1.47-2.469-2.435s-1.8-1.851-2.394-2.5a5.955,5.955,0,0,1-.916-1.1" transform="translate(-51.612 -7.296)" fill="#e0e0e0"/><path d="M386.526,7.538a6.244,6.244,0,0,1,.944-1.1c.61-.644,1.468-1.516,2.43-2.463s1.846-1.791,2.5-2.391a6.144,6.144,0,0,1,1.1-.92,6.076,6.076,0,0,1-.938,1.093c-.611.644-1.471,1.518-2.436,2.469s-1.85,1.8-2.5,2.394a5.96,5.96,0,0,1-1.1.916" transform="translate(-51.596 -0.089)" fill="#e0e0e0"/><path d="M341.35,7.635a6.233,6.233,0,0,1-1.1-.944c-.643-.61-1.516-1.468-2.463-2.43S336,2.416,335.4,1.764a6.149,6.149,0,0,1-.92-1.1,6.089,6.089,0,0,1,1.094.938c.643.611,1.517,1.471,2.469,2.436s1.795,1.85,2.394,2.5a6.05,6.05,0,0,1,.916,1.1" transform="translate(-44.648 -0.088)" fill="#e0e0e0"/><path d="M380.627,48.3s-.005-.068-.009-.194,0-.319-.008-.555q-.006-.75-.017-2.152c-.009-1.888-.022-4.634-.039-8.122-.018-6.98-.044-16.922-.075-28.827l.147.147-38.12.022h0l.169-.169c-.009,14.627-.017,28.31-.023,39.85l-.146-.146,27.6.075,7.754.038,2.051.016.53.009a1.783,1.783,0,0,1,.185.008,1.271,1.271,0,0,1-.168.008l-.515.009-2.023.016-7.721.038-27.7.075h-.146V48.3c-.007-11.54-.015-25.223-.024-39.85v-.17h.173l38.12.023h.148v.147c-.031,11.944-.056,21.919-.075,28.922-.016,3.473-.03,6.209-.039,8.089-.008.92-.013,1.629-.017,2.122,0,.23-.006.408-.008.541a1.492,1.492,0,0,1-.009.177" transform="translate(-45.697 -1.105)" fill="#e0e0e0"/><rect width="12.756" height="12.756" transform="translate(309.543 20.89)" fill="#ebebeb"/></g><g transform="translate(915 4439.645)"><g transform="translate(0 221.865)"><path d="M400,256.268c0,.125-89.55.225-199.99.225-110.478,0-200.01-.1-200.01-.225s89.531-.225,200.01-.225c110.44,0,199.99.1,199.99.225" transform="translate(0 -256.043)" fill="#263238"/></g></g><g transform="translate(911 4439.645)"><path d="M71.839,347.2S42.815,325.78,43.382,301.865l-.009-88.792,163.272-5.481,1.664,64.85Z" transform="translate(-5.79 -27.711)" fill="#263238"/><path d="M76.038,354.879c-.125,0-.486-20.1-.807-44.889s-.48-44.9-.355-44.9.485,20.094.807,44.893.48,44.893.355,44.895" transform="translate(-9.989 -35.386)" fill="#455a64"/><path d="M85.616,350.718a1.117,1.117,0,0,1,.029-.256c.033-.192.075-.437.128-.743.129-.682.308-1.635.536-2.847.48-2.5,1.163-6.069,2.005-10.463,1.68-8.838,3.917-21.061,6.164-34.6s4.07-25.838,5.332-34.745c.621-4.43,1.125-8.026,1.479-10.55.174-1.221.312-2.18.411-2.867l.118-.744a1.135,1.135,0,0,1,.055-.252,1.091,1.091,0,0,1-.01.257l-.074.75c-.079.69-.188,1.653-.328,2.879-.29,2.5-.744,6.111-1.336,10.571-1.181,8.92-2.959,21.225-5.2,34.775s-4.535,25.763-6.3,34.587c-.879,4.412-1.614,7.979-2.146,10.438-.263,1.2-.471,2.152-.62,2.83-.071.3-.127.544-.172.734a1.052,1.052,0,0,1-.074.247" transform="translate(-11.428 -33.725)" fill="#455a64"/><path d="M117.785,340.133a1.02,1.02,0,0,1,.028-.257l.128-.743c.129-.682.308-1.635.536-2.846.48-2.5,1.163-6.07,2.005-10.464,1.68-8.837,3.917-21.061,6.164-34.6s4.07-25.838,5.332-34.745c.622-4.43,1.125-8.026,1.479-10.55.174-1.221.312-2.18.411-2.867l.118-.744a1.134,1.134,0,0,1,.055-.252,1.111,1.111,0,0,1-.009.257c-.02.194-.044.441-.075.75-.079.69-.188,1.653-.328,2.879-.29,2.5-.744,6.111-1.336,10.571-1.181,8.92-2.959,21.225-5.2,34.775s-4.535,25.763-6.3,34.588c-.879,4.411-1.614,7.978-2.145,10.437-.263,1.2-.471,2.152-.62,2.83-.071.3-.127.544-.172.734a1.15,1.15,0,0,1-.073.247" transform="translate(-15.722 -32.312)" fill="#455a64"/><path d="M149.953,329.548a1.115,1.115,0,0,1,.029-.256c.033-.192.075-.437.128-.743.129-.682.308-1.635.536-2.847.48-2.5,1.163-6.069,2.005-10.463,1.68-8.837,3.917-21.061,6.163-34.6s4.07-25.838,5.332-34.745c.621-4.43,1.125-8.027,1.479-10.55.174-1.221.312-2.18.411-2.867l.118-.744a1.131,1.131,0,0,1,.055-.252,1.093,1.093,0,0,1-.01.257l-.074.75c-.079.69-.188,1.653-.328,2.879-.29,2.5-.744,6.111-1.336,10.571-1.181,8.92-2.959,21.225-5.2,34.775s-4.535,25.763-6.3,34.588c-.879,4.411-1.614,7.978-2.145,10.437-.263,1.2-.471,2.152-.62,2.83-.071.3-.127.544-.172.734a1.052,1.052,0,0,1-.074.247" transform="translate(-20.016 -30.9)" fill="#455a64"/><path d="M182.121,318.963a1.119,1.119,0,0,1,.029-.256l.128-.743c.129-.681.308-1.634.536-2.846.48-2.5,1.163-6.069,2.005-10.463,1.68-8.837,3.917-21.062,6.164-34.6s4.07-25.837,5.332-34.745c.621-4.43,1.125-8.027,1.479-10.55.174-1.219.312-2.179.411-2.866l.118-.745a1.148,1.148,0,0,1,.055-.252,1.1,1.1,0,0,1-.01.258c-.019.194-.043.44-.074.75-.079.689-.188,1.653-.327,2.878-.291,2.5-.745,6.111-1.337,10.571-1.181,8.921-2.959,21.225-5.2,34.776s-4.535,25.762-6.3,34.588c-.879,4.411-1.614,7.977-2.145,10.437-.263,1.2-.471,2.152-.62,2.829-.071.3-.127.544-.172.734a1.014,1.014,0,0,1-.074.247" transform="translate(-24.31 -29.487)" fill="#455a64"/><path d="M214.29,308.379a1.118,1.118,0,0,1,.029-.256c.033-.192.075-.437.128-.743.129-.682.309-1.635.536-2.847.48-2.5,1.163-6.069,2.005-10.463,1.68-8.837,3.917-21.061,6.164-34.6s4.07-25.838,5.332-34.745c.621-4.43,1.125-8.027,1.479-10.55.174-1.221.312-2.18.411-2.867l.118-.744a1.134,1.134,0,0,1,.055-.252,1.093,1.093,0,0,1-.01.257l-.074.75c-.079.69-.188,1.653-.327,2.879-.291,2.5-.745,6.111-1.337,10.571-1.181,8.92-2.959,21.225-5.2,34.775s-4.535,25.763-6.3,34.587c-.88,4.412-1.615,7.979-2.146,10.438-.263,1.2-.471,2.152-.62,2.83-.071.3-.127.544-.172.734a1.055,1.055,0,0,1-.074.247" transform="translate(-28.604 -28.074)" fill="#455a64"/><path d="M70.678,245.473s-83.092-65.268,40.674-109.61c0,0,62.755-23.417,127.252-16.441L206.646,195.65Z" transform="translate(-5.791 -15.768)" fill="#455a64"/><path d="M246.323,60.706,231.8,135.44l92.388-59.788S296.876,61.2,246.323,60.706" transform="translate(-30.942 -8.103)" fill="#e8505b"/><path d="M231.8,276.151V137.743l92.389-59.788V208.641Z" transform="translate(-30.942 -10.406)" fill="#e8505b"/><g transform="translate(200.854 52.603)" opacity="0.3"><g clip-path="url(#a)"><path d="M246.323,60.706,231.8,135.44l92.388-59.788S296.876,61.2,246.323,60.706" transform="translate(-231.796 -60.706)"/></g></g><path d="M241.855,300.675V253.842S392.93,268.788,394.093,271.28s0,52.314,0,52.314Z" transform="translate(-32.284 -33.885)" fill="#e8505b"/><path d="M241.855,244.018l95.294-63.774s41.255,9.467,54.619,36.371,2.325,44.84,2.325,44.84Z" transform="translate(-32.284 -24.06)" fill="#e8505b"/><g transform="translate(209.571 156.184)" opacity="0.2"><g clip-path="url(#b)"><path d="M241.855,244.018l95.294-63.774s41.255,9.467,54.619,36.371,2.325,44.84,2.325,44.84c-44.743-6.547-96.6-12.225-152.238-17.438" transform="translate(-241.855 -180.244)" fill="#fff"/></g></g><path d="M421.829,247.962s1.743,56.019,0,61.416-4.284,13.431-4.284,13.431V270.494Z" transform="translate(-55.737 -33.1)" fill="#e8505b"/><g transform="translate(209.571 219.957)" opacity="0.3"><g clip-path="url(#c)"><path d="M241.855,300.675V253.842S392.93,268.788,394.093,271.28s0,52.314,0,52.314Z" transform="translate(-241.855 -253.842)"/></g></g><path d="M373.13,270.382c.091.085-6.884,7.692-15.576,16.988s-15.816,16.766-15.907,16.681,6.882-7.69,15.577-16.99,15.815-16.764,15.906-16.68" transform="translate(-45.605 -36.092)" fill="#263238"/><path d="M408.393,273.6a1.775,1.775,0,0,1-.257.385l-.8,1.049c-.7.906-1.741,2.2-3.039,3.788-2.594,3.176-6.248,7.506-10.4,12.184s-8.029,8.818-10.878,11.767c-1.424,1.475-2.587,2.658-3.4,3.463l-.947.92a.232.232,0,1,1-.065-.063l.886-.979,3.3-3.56c2.788-3,6.618-7.173,10.773-11.848s7.841-8.968,10.5-12.089l3.148-3.7.868-.995a1.809,1.809,0,0,1,.327-.328" transform="translate(-50.499 -36.522)" fill="#263238"/><path d="M337.841,266.387a1.937,1.937,0,0,1-.286.385c-.235.278-.528.624-.885,1.044-.775.9-1.913,2.191-3.334,3.772-2.841,3.16-6.828,7.472-11.332,12.137s-8.679,8.8-11.739,11.748c-1.53,1.476-2.779,2.658-3.652,3.463l-1.013.921a1.991,1.991,0,0,1-.375.3,1.937,1.937,0,0,1,.312-.365l.954-.982c.884-.886,2.086-2.093,3.55-3.565,3-3,7.135-7.171,11.639-11.833s8.522-8.937,11.422-12.04l3.439-3.674.947-.986a2.028,2.028,0,0,1,.354-.325" transform="translate(-40.743 -35.559)" fill="#263238"/><path d="M308.606,260.825c.1.075-5.457,7.531-12.409,16.65s-12.67,16.453-12.769,16.378,5.456-7.529,12.41-16.652,12.669-16.452,12.768-16.376" transform="translate(-37.834 -34.817)" fill="#263238"/><path d="M284.43,258.329c.1.078-4.769,6.249-10.865,13.781s-11.12,13.576-11.217,13.5,4.767-6.248,10.866-13.782,11.118-13.575,11.216-13.5" transform="translate(-35.02 -34.483)" fill="#263238"/><path d="M260.029,256.3a4.28,4.28,0,0,1-.585.81l-1.7,2.115c-1.436,1.783-3.4,4.266-5.473,7.072s-3.879,5.407-5.166,7.3l-1.527,2.243a4.288,4.288,0,0,1-.6.8,4.238,4.238,0,0,1,.455-.889c.317-.558.8-1.353,1.409-2.324,1.221-1.942,2.987-4.578,5.07-7.394s4.089-5.273,5.591-7.008c.75-.867,1.37-1.56,1.811-2.025a4.25,4.25,0,0,1,.717-.7" transform="translate(-32.701 -34.213)" fill="#263238"/><path d="M368.856,374.462s33.072-18.357,41.521-39.5l-.265-17.293-41.837,36.37-6.416-4.6,1.742,20.408Z" transform="translate(-48.303 -42.404)" fill="#455a64"/><path d="M359.009,352.288s22.661-8.47,41.836-36.371l-108.4-11.343Z" transform="translate(-39.038 -40.657)" fill="#263238"/><path d="M369.248,359.638c.125,0,.322,4.6.44,10.287s.114,10.3-.01,10.3-.322-4.6-.441-10.288-.114-10.294.011-10.3" transform="translate(-49.277 -48.007)" fill="#263238"/><path d="M86.953,326.6v43.067s34.283,29.4,115.05,31.886,125.508-25.908,125.508-25.908l-3.486-40.854L208,307.89Z" transform="translate(-11.607 -41.099)" fill="#e8505b"/><g transform="translate(75.346 266.791)" opacity="0.3"><g clip-path="url(#d)"><path d="M86.953,326.6v43.067s34.283,29.4,115.05,31.886,125.508-25.908,125.508-25.908l-3.486-40.854L208,307.89Z" transform="translate(-86.953 -307.89)"/></g></g><path d="M86.953,322.076l125.508-48.11,111.564,56.3s-62.755,31.887-131.319,24.456c-67.868-7.354-105.753-32.647-105.753-32.647" transform="translate(-11.607 -36.571)" fill="#e8505b"/><path d="M250.474,367.556a2.459,2.459,0,0,1-.276.47l-.863,1.3c-.756,1.124-1.874,2.731-3.28,4.7-2.808,3.943-6.8,9.314-11.4,15.094s-8.95,10.867-12.166,14.486c-1.607,1.81-2.924,3.26-3.85,4.247l-1.072,1.132a2.54,2.54,0,0,1-.4.373,2.53,2.53,0,0,1,.329-.435l1.009-1.187,3.741-4.34c3.152-3.671,7.452-8.786,12.053-14.558s8.621-11.108,11.493-15l3.394-4.616.932-1.249a2.5,2.5,0,0,1,.35-.418" transform="translate(-28.989 -49.064)" fill="#263238"/><path d="M277.309,364.513c.1.071-6.664,10.05-15.113,22.286s-15.382,22.1-15.486,22.031,6.663-10.047,15.115-22.288,15.381-22.1,15.484-22.029" transform="translate(-32.932 -48.658)" fill="#263238"/><path d="M305.439,358.5c.1.071-7.163,10.759-16.225,23.871s-16.494,23.688-16.6,23.617,7.161-10.758,16.226-23.873,16.493-23.685,16.6-23.614" transform="translate(-36.391 -47.855)" fill="#263238"/><path d="M334.175,347.524a3.414,3.414,0,0,1-.281.583l-.88,1.627c-.771,1.41-1.914,3.436-3.347,5.925-2.866,4.982-6.93,11.8-11.611,19.218s-9.1,14.018-12.366,18.746c-1.633,2.365-2.97,4.267-3.912,5.569-.452.62-.815,1.117-1.091,1.494a3.366,3.366,0,0,1-.406.5,3.568,3.568,0,0,1,.331-.555l1.022-1.542,3.793-5.648c3.2-4.772,7.565-11.4,12.247-18.808s8.783-14.2,11.718-19.139l3.47-5.852.954-1.585a3.444,3.444,0,0,1,.36-.538" transform="translate(-40.083 -46.39)" fill="#263238"/><path d="M357.185,343.573c.112.055-5.2,11.1-11.873,24.672s-12.168,24.531-12.279,24.475,5.2-11.1,11.875-24.675,12.166-24.528,12.278-24.473" transform="translate(-44.455 -45.862)" fill="#263238"/><path d="M361.1,371.586c.112.055-1.679,3.879-4,8.539s-4.292,8.394-4.4,8.338,1.679-3.879,4-8.54,4.292-8.393,4.4-8.338" transform="translate(-47.079 -49.602)" fill="#263238"/><path d="M225.971,369.3c.093.083-7.747,8.949-17.506,19.8s-17.751,19.579-17.844,19.5,7.745-8.946,17.508-19.8,17.75-19.576,17.842-19.494" transform="translate(-25.445 -49.297)" fill="#263238"/><path d="M203.057,367.757c.09.086-7.729,8.494-17.464,18.779s-17.7,18.557-17.793,18.471,7.728-8.493,17.465-18.782,17.7-18.555,17.791-18.469" transform="translate(-22.399 -49.091)" fill="#263238"/><path d="M172.823,362.66c.094.081-6.911,8.461-15.647,18.714s-15.9,18.5-15.992,18.423,6.91-8.459,15.649-18.716,15.9-18.5,15.991-18.421" transform="translate(-18.846 -48.41)" fill="#263238"/><path d="M149.18,358.574a1.794,1.794,0,0,1-.275.371l-.853,1c-.747.867-1.845,2.1-3.216,3.622-2.742,3.034-6.592,7.172-10.948,11.642s-8.4,8.423-11.361,11.241c-1.482,1.41-2.691,2.539-3.539,3.307l-.982.878a1.747,1.747,0,0,1-.364.284,1.811,1.811,0,0,1,.3-.35l.924-.939,3.437-3.409c2.906-2.875,6.905-6.862,11.26-11.328s8.236-8.565,11.036-11.543l3.32-3.523.915-.948a1.783,1.783,0,0,1,.342-.309" transform="translate(-15.704 -47.865)" fill="#263238"/><path d="M127.95,350.861c.01.012-.094.124-.3.326l-.925.869-3.431,3.158c-2.893,2.671-6.852,6.4-11.109,10.639s-8,8.185-10.686,11.068l-3.173,3.418-.872.921a1.676,1.676,0,0,1-.328.3,1.682,1.682,0,0,1,.259-.361l.809-.978c.708-.845,1.756-2.048,3.068-3.517,2.625-2.94,6.34-6.924,10.6-11.172s8.262-7.942,11.214-10.556c1.475-1.307,2.682-2.349,3.529-3.054l.982-.806a1.638,1.638,0,0,1,.362-.257" transform="translate(-12.965 -46.835)" fill="#263238"/><path d="M107.735,343.42c.082.094-4.6,4.366-10.463,9.543s-10.68,9.3-10.762,9.206,4.6-4.366,10.464-9.544,10.679-9.3,10.761-9.2" transform="translate(-11.548 -45.842)" fill="#263238"/></g><g transform="translate(911 4439.645)"><path d="M159.538,86.632a5.44,5.44,0,0,0,2.644,6.79c1.255.576,2.708.646,3.917,1.31a4.529,4.529,0,0,1,2.3,3.652c.075,1.373-.475,2.829.086,4.086.694,1.555,2.655,1.961,4.127,2.816a7.025,7.025,0,0,1,3.339,5.454,8.436,8.436,0,0,1-2.1,6.122,9.572,9.572,0,0,1-11.123,2.234,12.076,12.076,0,0,1-5.512-6.265,28.016,28.016,0,0,1-1.795-8.3,84.758,84.758,0,0,1-.072-15.187" transform="translate(-20.696 -11.564)" fill="#263238"/><path d="M139.116,68.235a8.526,8.526,0,0,0-8.027,3.384,14.153,14.153,0,0,0-2.7,9,25.782,25.782,0,0,0,2.209,9.3,6.3,6.3,0,0,0,2.074,3c1.661,1.078,3.834.324,5.482-.778a17.491,17.491,0,0,0,7.418-14.011,12.329,12.329,0,0,0-1.651-6.761,6.724,6.724,0,0,0-5.548-3.345" transform="translate(-17.137 -9.08)" fill="#263238"/><path d="M185.337,179.755l-43.479-2.546c-.276-.62-.459-.983-.459-.983l-11.782.267-3.834-.225s-.058.117-.151.315l-39.549.894c-7.885.022-16.162,4.854-16.146,11-.084,5.851,2.767,12.194,9.831,12.031l53.886-.325,53.888.036c7.066.125,8.922-4.141,8.92-9.2.8-9.416-5.1-11.207-11.125-11.27" transform="translate(-9.336 -23.524)" fill="#263238"/><path d="M86.992,201.7s.088-.01.259-.016l.762-.016,2.936-.036,10.843-.076,36.183-.145-.152.161c-.077-1.181-.159-2.444-.243-3.718-.169-2.606-.335-5.17-.494-7.61l.134.14-33.342-3.62-9.88-1.1-2.662-.311-.689-.088a1.371,1.371,0,0,1-.233-.039,1.411,1.411,0,0,1,.236.011l.692.06,2.667.259,9.889,1.013,33.353,3.519.127.014.008.126c.159,2.438.327,5,.5,7.609.082,1.274.165,2.537.242,3.719l.01.161h-.162l-36.183.049-10.843-.018-2.935-.019-.763-.013c-.172,0-.259-.014-.259-.014" transform="translate(-11.612 -24.725)" fill="#455a64"/><path d="M97.983,185.819c-.033.041-.574-.393-1.526-.97a16.182,16.182,0,0,0-8.241-2.346c-1.113-.01-1.8.073-1.808.021a1.524,1.524,0,0,1,.477-.112,9.893,9.893,0,0,1,1.328-.124,14.3,14.3,0,0,1,8.359,2.38,9.986,9.986,0,0,1,1.064.8c.237.208.36.33.347.347" transform="translate(-11.534 -24.332)" fill="#455a64"/><path d="M193.322,183.428c.019.081-8.549,2.178-19.136,4.682S155,192.578,154.977,192.5s8.548-2.178,19.139-4.682,19.187-4.468,19.206-4.386" transform="translate(-20.687 -24.485)" fill="#455a64"/><path d="M189.922,182.482a12.4,12.4,0,0,0-6.079,4.159,2.981,2.981,0,0,1,.582-.951,8.925,8.925,0,0,1,4.4-3.01,2.982,2.982,0,0,1,1.1-.2" transform="translate(-24.54 -24.357)" fill="#455a64"/><path d="M145.22,192.417l8.12,1.112.023,8.822-7.465-.172Z" transform="translate(-19.385 -25.685)" fill="#b78876"/><path d="M154.591,193.7l3.649-.01a4.048,4.048,0,0,1,2.025.536l1.927,1.107a30.005,30.005,0,0,0,3.367,1.594c2.221.707,5.956,1.657,6.744,2.261,2.249,1.725,1.573,3.774.34,3.991-1.082.191-18.029-.657-18.029-.657Z" transform="translate(-20.636 -25.855)" fill="#e8505b"/><path d="M161.472,202.313a8.348,8.348,0,0,1-.151-4.606,20.123,20.123,0,0,1,.055,2.3,20.218,20.218,0,0,1,.1,2.3" transform="translate(-21.5 -26.391)" fill="#263238"/><path d="M163.51,202.311a14.608,14.608,0,0,1,.023-4.21,14.69,14.69,0,0,1-.023,4.21" transform="translate(-21.808 -26.444)" fill="#263238"/><path d="M165.831,202.689a15.661,15.661,0,0,1-.35-4.341,15.663,15.663,0,0,1,.35,4.341" transform="translate(-22.082 -26.477)" fill="#263238"/><path d="M159.143,199.751a2.528,2.528,0,0,1-.749-.233,7.044,7.044,0,0,1-1.827-1.122c-.173-.147-.348-.309-.523-.488a2.075,2.075,0,0,1-.467-.657.919.919,0,0,1,.1-.906.684.684,0,0,1,.452-.25,1.18,1.18,0,0,1,.493.054,3.634,3.634,0,0,1,.781,6.462,2.3,2.3,0,0,1-.835.378.961.961,0,0,1-.477-.022.636.636,0,0,1-.369-.323.921.921,0,0,1,.1-.841,2.581,2.581,0,0,1,.468-.565,5.611,5.611,0,0,1,1.791-1.18,2.357,2.357,0,0,1,.755-.216c.007.024-.259.107-.706.324a6.022,6.022,0,0,0-1.687,1.224,2.425,2.425,0,0,0-.415.527.7.7,0,0,0-.084.615.482.482,0,0,0,.57.194,2.077,2.077,0,0,0,.727-.347,3.374,3.374,0,0,0-.707-5.963.576.576,0,0,0-.653.1.664.664,0,0,0-.072.647,3.555,3.555,0,0,0,.9,1.074,9.823,9.823,0,0,0,2.434,1.517" transform="translate(-20.758 -26.175)" fill="#263238"/><path d="M173.3,203.194a2.128,2.128,0,0,0,.443-.555,2.087,2.087,0,0,0-.243-1.84,4.1,4.1,0,0,0-2.259-1.694c-1.033-.368-2.264-.544-3.508-.928a24.437,24.437,0,0,1-6.036-2.731c-.717-.454-1.271-.862-1.646-1.152a3.308,3.308,0,0,1-.555-.487,3.518,3.518,0,0,1,.624.391c.394.26.963.638,1.689,1.065a27.279,27.279,0,0,0,6.011,2.624c1.224.379,2.444.559,3.517.957a4.238,4.238,0,0,1,2.351,1.853,2.162,2.162,0,0,1,.161,2,1.246,1.246,0,0,1-.374.416c-.108.068-.17.094-.174.086" transform="translate(-21.29 -25.87)" fill="#263238"/><path d="M169.414,125.119l13.834,23.932a10.184,10.184,0,0,1-9.078,15.278l-21.145-.54-.578-7.688,18.612-3.616-12.613-21.7Z" transform="translate(-20.35 -16.702)" fill="#b78876"/><path d="M111.22,166.294l19.456,5.1.407-5.832L113.139,155.2l13.02-24.325-11-5.612-13.706,24.007a11.226,11.226,0,0,0,6.525,16Z" transform="translate(-13.365 -16.721)" fill="#b78876"/><path d="M157.873,138.637l13.27-7.033a67.176,67.176,0,0,0-5.718-9.479,29.159,29.159,0,0,0-17.777-11.139h0l-15.285.222a20.233,20.233,0,0,0-5.448,1.269l.011-.059c-8.291,1.851-17.447,19.969-17.447,19.969l12.11,6.333.272,1.9a12.92,12.92,0,0,0,3.171,6.769l-3.46,23.171,39.25.706-5.041-16.574Z" transform="translate(-14.614 -14.815)" fill="#a3314f"/><path d="M144.822,115a7.466,7.466,0,0,0,7.306-7.378l.345-29.688a2.364,2.364,0,0,0-2.114-2.4l-12.539-3.169c-4.016-.425-6.686,4.52-6.94,8.55-.283,4.478-.451,9.955.081,13.3,1.067,6.718,6.215,7.573,6.215,7.573,0-.018,0,2.6.019,5.783A7.468,7.468,0,0,0,144.822,115Z" transform="translate(-17.435 -9.657)" fill="#b78876"/><path d="M133.256,86.324a.862.862,0,0,0,.831.869.824.824,0,0,0,.888-.776.862.862,0,0,0-.83-.87.825.825,0,0,0-.889.777" transform="translate(-17.788 -11.419)" fill="#263238"/><path d="M132.289,85.385c.107.113.76-.37,1.687-.368s1.606.466,1.707.354c.049-.051-.06-.254-.356-.47a2.372,2.372,0,0,0-1.366-.421,2.267,2.267,0,0,0-1.342.433c-.285.218-.382.422-.329.472" transform="translate(-17.657 -11.277)" fill="#263238"/><path d="M143.774,86.523a.861.861,0,0,0,.831.869.824.824,0,0,0,.888-.776.862.862,0,0,0-.83-.87.825.825,0,0,0-.889.777" transform="translate(-19.192 -11.446)" fill="#263238"/><path d="M142.806,85.586c.107.113.761-.371,1.687-.368s1.607.466,1.707.353c.049-.05-.058-.253-.356-.469a2.359,2.359,0,0,0-1.366-.421,2.273,2.273,0,0,0-1.342.433c-.284.218-.381.422-.329.472" transform="translate(-19.061 -11.304)" fill="#263238"/><path d="M138.561,92.47a6.123,6.123,0,0,0-1.506-.272c-.237-.024-.461-.071-.5-.232a1.2,1.2,0,0,1,.159-.7q.333-.859.7-1.8a30.869,30.869,0,0,0,1.572-4.716,31.154,31.154,0,0,0-1.948,4.578l-.671,1.814a1.376,1.376,0,0,0-.123.93.594.594,0,0,0,.389.346,1.623,1.623,0,0,0,.4.055,6.012,6.012,0,0,0,1.527,0" transform="translate(-18.181 -11.312)" fill="#263238"/><path d="M138.186,105.951a17.092,17.092,0,0,0,9-2.4s-2.183,4.615-8.907,3.987Z" transform="translate(-18.446 -13.823)" fill="#aa6550"/><path d="M139.364,96.142a1.67,1.67,0,0,1,1.5-.62,1.525,1.525,0,0,1,1.054.565.967.967,0,0,1,.074,1.1,1.122,1.122,0,0,1-1.216.308,3.51,3.51,0,0,1-1.185-.707,1.033,1.033,0,0,1-.264-.275.31.31,0,0,1,0-.345" transform="translate(-18.591 -12.75)" fill="#aa6550"/><path d="M141.619,94.4c-.151-.009-.152,1-1.014,1.712s-1.933.6-1.941.744c-.014.063.239.195.692.207a2.5,2.5,0,0,0,1.62-.564,2.185,2.185,0,0,0,.786-1.436c.038-.42-.075-.67-.143-.664" transform="translate(-18.51 -12.601)" fill="#263238"/><path d="M142.326,83.745c.091.252,1.017.133,2.1.263,1.09.11,1.968.428,2.112.2.065-.108-.088-.345-.443-.589a3.683,3.683,0,0,0-3.213-.354c-.4.16-.6.359-.561.478" transform="translate(-18.998 -11.086)" fill="#263238"/><path d="M132.436,83.4c.163.211.8-.007,1.57-.018.767-.037,1.418.142,1.568-.079.066-.107-.036-.317-.321-.517a2.275,2.275,0,0,0-2.529.078c-.271.217-.36.433-.289.536" transform="translate(-17.675 -11.005)" fill="#263238"/><path d="M136.167,69.6a7.874,7.874,0,0,0,4.988,6.664c1.228.458,2.556.6,3.791,1.035a4.092,4.092,0,0,1,2.768,2.567,6.656,6.656,0,0,1-.436,3.288,3.458,3.458,0,0,0,.347,3.2c.658.731,1.839.931,2.295,1.8.464.889-.073,1.939-.453,2.868a7.018,7.018,0,0,0-.4,4.4,4.857,4.857,0,0,0,2.8,3.3,1.389,1.389,0,0,0,1.546-.157c.279-.323.055-.837.235-1.224,2.926-6.326,4.262-8.695,4.27-15.16a14.4,14.4,0,0,0-2.491-8.65,6.856,6.856,0,0,0-3.1-2.758,31.268,31.268,0,0,0-8.224-2.465,15.867,15.867,0,0,0-4.27-.465,5.344,5.344,0,0,0-3.8,1.769" transform="translate(-18.159 -9.054)" fill="#263238"/><path d="M137,71.63a3.606,3.606,0,0,0-2.014,2.539,10.942,10.942,0,0,1-1.152,3.149,19.149,19.149,0,0,1-2.035,2,5.853,5.853,0,0,0-1.283,5.768,9.433,9.433,0,0,1,6.346-13.974" transform="translate(-17.256 -9.493)" fill="#263238"/><path d="M150.389,83.064a6.779,6.779,0,0,0-1.065-2.648,5.147,5.147,0,0,0-2.4-1.839,12.578,12.578,0,0,0-3.791-.414,8.3,8.3,0,0,1-2.044-.3,6.41,6.41,0,0,1-1.743-.844,6.754,6.754,0,0,1-2.159-2.414,5.9,5.9,0,0,1-.67-2.072,1.99,1.99,0,0,1,0-.8,9.209,9.209,0,0,0,.951,2.711,6.753,6.753,0,0,0,2.113,2.224,6.184,6.184,0,0,0,1.638.766,8.157,8.157,0,0,0,1.94.276,12.2,12.2,0,0,1,3.915.476,5.3,5.3,0,0,1,2.516,2.048,5.08,5.08,0,0,1,.8,2.031,1.9,1.9,0,0,1,.005.8" transform="translate(-18.219 -9.575)" fill="#263238"/><path d="M160.756,89.882a3.3,3.3,0,0,0,5.926,1.86,4.828,4.828,0,0,0,.811-3.034,5.089,5.089,0,0,0-.612-2.476,3.57,3.57,0,0,0-6.618,1.379" transform="translate(-21.393 -11.277)" fill="#263238"/><path d="M160.644,85.352a6.737,6.737,0,0,1-.159,5.976c-.127-.045.293-1.337.328-2.982.053-1.644-.3-2.957-.169-2.995" transform="translate(-21.419 -11.393)" fill="#e8505b"/><path d="M158.11,82.622c.01.012-.059.076-.2.189a2.586,2.586,0,0,1-.717.341,4.03,4.03,0,0,1-2.865-.3,7.8,7.8,0,0,1-3.006-3.041,12.8,12.8,0,0,0-3.155-3.947c-1.484-.985-3.3-1.083-4.837-1.593a11.679,11.679,0,0,1-3.771-2.018,10.729,10.729,0,0,1-1.992-2.079,3.554,3.554,0,0,1-.534-.909A16.529,16.529,0,0,0,139.753,72a11.948,11.948,0,0,0,3.7,1.873c1.475.479,3.327.543,4.968,1.617a12.685,12.685,0,0,1,3.253,4.1,7.728,7.728,0,0,0,2.8,2.977,4.019,4.019,0,0,0,2.678.417,6.247,6.247,0,0,0,.964-.36" transform="translate(-18.292 -9.246)" fill="#455a64"/><path d="M157.751,80.608c.007.011-.056.07-.2.152a1.8,1.8,0,0,1-.693.2,3.147,3.147,0,0,1-2.417-.971,29.957,29.957,0,0,1-2.271-3.1,11.373,11.373,0,0,0-3.437-3,23.782,23.782,0,0,0-4.3-1.711,32.656,32.656,0,0,1-3.613-1.313,10.518,10.518,0,0,1-2.234-1.334,3.2,3.2,0,0,1-.682-.666,16.835,16.835,0,0,0,3.043,1.707c1,.415,2.229.794,3.609,1.209a22.323,22.323,0,0,1,4.4,1.715,11.371,11.371,0,0,1,3.547,3.144,37.113,37.113,0,0,0,2.166,3.124,3.072,3.072,0,0,0,2.182,1.021,3.714,3.714,0,0,0,.9-.178" transform="translate(-18.408 -9.192)" fill="#455a64"/><path d="M174.47,116.768a8.218,8.218,0,0,1-.023-1.241,9.566,9.566,0,0,0-.464-3.28,4.353,4.353,0,0,0-1.277-1.818,16.893,16.893,0,0,0-2.219-1.44,6.716,6.716,0,0,1-2.239-2.036,6.446,6.446,0,0,1-1.073-3.076,6.114,6.114,0,0,1,.1-1.667c.107-.538.271-1.039.4-1.529a3.428,3.428,0,0,0-.089-2.717,4.424,4.424,0,0,0-1.892-1.671c-.733-.371-1.474-.623-2.136-.906a5.3,5.3,0,0,1-2.7-2.055,2.611,2.611,0,0,1-.332-.877.71.71,0,0,1-.013-.325A4.5,4.5,0,0,0,161,93.237a5.345,5.345,0,0,0,2.676,1.853c.658.26,1.409.494,2.184.867a4.751,4.751,0,0,1,2.087,1.8,2.982,2.982,0,0,1,.394,1.488,6,6,0,0,1-.24,1.547,8.094,8.094,0,0,0-.477,3.047,6.064,6.064,0,0,0,.991,2.866,6.348,6.348,0,0,0,2.09,1.929,16.336,16.336,0,0,1,2.246,1.512,4.633,4.633,0,0,1,1.331,1.99,8.907,8.907,0,0,1,.34,3.394,5.459,5.459,0,0,1-.153,1.236" transform="translate(-21.424 -12.298)" fill="#455a64"/><path d="M167.626,89.648c-.065.012-.143-.376-.652-.675a6.442,6.442,0,0,0-2.212-.7,13.129,13.129,0,0,0-3.343.168c-.022-.052.313-.269.925-.452a5.981,5.981,0,0,1,2.481-.163,5.141,5.141,0,0,1,2.336.891c.551.433.529.955.465.934" transform="translate(-21.547 -11.715)" fill="#455a64"/><path d="M167.159,91.97c.029.048-.264.3-.841.531a4.767,4.767,0,0,1-4.608-.665c-.488-.383-.7-.709-.657-.747a6.34,6.34,0,0,0,6.106.88" transform="translate(-21.498 -12.158)" fill="#455a64"/><path d="M132.031,173.241c-.393-.7-2.074-34.126-1.44-34.126h25.692l-1.535,33.015Z" transform="translate(-17.413 -18.57)" fill="#263238"/><path d="M120.785,182.2,118.5,156.374l47.807-.128-3.1,26.163Z" transform="translate(-15.818 -20.857)" fill="#e0e0e0"/><path d="M148.7,171.741a3.044,3.044,0,1,1-3.053-3.036,3.044,3.044,0,0,1,3.053,3.036" transform="translate(-19.037 -22.52)" fill="#fafafa"/><path d="M132.627,111.678s1.516,15.361,2.331,23.629a1.917,1.917,0,0,1-.278,1.514,1.3,1.3,0,0,1-1.82-.161,3.182,3.182,0,0,1-.768-1.871c-.549-5.346-1.715-15.49-2.186-22.327,0,0,1.818-1.016,2.721-.783" transform="translate(-17.341 -14.903)" fill="#263238"/><path d="M157.4,111.678s-1.516,15.361-2.331,23.629a1.917,1.917,0,0,0,.278,1.514,1.3,1.3,0,0,0,1.82-.161,3.182,3.182,0,0,0,.768-1.871c.55-5.346,1.715-15.49,2.186-22.327,0,0-1.818-1.016-2.721-.783" transform="translate(-20.695 -14.903)" fill="#263238"/><path d="M135.222,139.459c.031-.046.338.237.229.808a1.3,1.3,0,0,1-.537.808,1.444,1.444,0,0,1-1.181.166,1.7,1.7,0,0,1-.957-.675,1.947,1.947,0,0,1-.324-.873c-.055-.526.084-.828.136-.816.069.008.053.315.177.755a1.607,1.607,0,0,0,1.086,1.173,1.116,1.116,0,0,0,.841-.081,1.1,1.1,0,0,0,.453-.543c.159-.4.016-.691.078-.721" transform="translate(-17.679 -18.538)" fill="#455a64"/><path d="M134,138.941c.034.055-.057.172-.026.356s.172.339.389.231.185-.306.045-.45-.278-.131-.3-.191c-.038-.044.155-.219.472-.08a.627.627,0,0,1,.355.468.672.672,0,0,1-1.111.562.628.628,0,0,1-.167-.564c.075-.338.332-.39.345-.333" transform="translate(-17.839 -18.522)" fill="#455a64"/><path d="M157.729,138.949c.051-.008.192.354.134.979a2.137,2.137,0,0,1-.4,1.044,1.708,1.708,0,0,1-1.241.67,1.321,1.321,0,0,1-1.249-.691,1.955,1.955,0,0,1-.226-1.1c.059-.619.211-.954.263-.948.072.008.03.386.056.948a1.847,1.847,0,0,0,.264.886.927.927,0,0,0,.866.454,1.382,1.382,0,0,0,.941-.477,2.105,2.105,0,0,0,.408-.841c.13-.544.11-.919.18-.924" transform="translate(-20.656 -18.542)" fill="#455a64"/><path d="M156.36,139.6c.02.061-.054.147-.042.281.023.154.08.214.222.17s.144-.139.062-.272c-.075-.111-.187-.131-.211-.19s.133-.2.4-.068a.519.519,0,0,1,.277.422.567.567,0,0,1-1,.361.516.516,0,0,1-.055-.5c.12-.27.347-.262.35-.2" transform="translate(-20.82 -18.617)" fill="#455a64"/><path d="M153.517,150.834a2.291,2.291,0,0,1-.646.341,15.225,15.225,0,0,1-1.866.682,21.77,21.77,0,0,1-12.958-.162,15.14,15.14,0,0,1-1.849-.728,2.285,2.285,0,0,1-.637-.357c.03-.072.983.332,2.579.78a24.69,24.69,0,0,0,12.78.159c1.607-.408,2.569-.788,2.6-.716" transform="translate(-18.095 -20.103)" fill="#455a64"/><path d="M125.652,135.306a31.819,31.819,0,0,0-1.522,3.631,32.014,32.014,0,0,0-.618,3.888,8.752,8.752,0,0,1,2.139-7.519" transform="translate(-16.462 -18.061)" fill="#263238"/><path d="M112.777,144.613a1.751,1.751,0,0,1-.19.619,9.744,9.744,0,0,1-.847,1.543,11.145,11.145,0,0,1-4.381,3.77,13.563,13.563,0,0,1-3.043.989,8.926,8.926,0,0,0-2.379.832,4.5,4.5,0,0,0-1.637,1.606c-.023-.007.008-.244.214-.617a3.71,3.71,0,0,1,1.257-1.262,8.35,8.35,0,0,1,2.443-.962,14.582,14.582,0,0,0,2.95-.993,11.95,11.95,0,0,0,4.318-3.548c.87-1.163,1.224-2.009,1.3-1.977" transform="translate(-13.388 -19.304)" fill="#263238"/><path d="M106.984,151.246a11.13,11.13,0,0,0,.867-1.237,3.9,3.9,0,0,0,.061-3.414l-.079-.156.349.052a4.627,4.627,0,0,0-1.392,3.069c-.05.893.14,1.438.067,1.46a2.419,2.419,0,0,1-.38-1.465,4.565,4.565,0,0,1,1.4-3.392l.217-.207.133.259c.029.056.061.117.091.178a3.976,3.976,0,0,1-.185,3.771c-.531.86-1.133,1.124-1.146,1.083" transform="translate(-14.213 -19.483)" fill="#263238"/><path d="M110.279,150.049a2.182,2.182,0,0,1,1.453-.43,3.985,3.985,0,0,1,3.278,1.58c.03.043.062.086.09.125l.19.257-.316.085a4.567,4.567,0,0,1-3.52-.506c-.791-.489-1.089-1-1.051-1.021.053-.053.428.36,1.2.745a4.664,4.664,0,0,0,3.247.347l-.129.342-.081-.108a3.929,3.929,0,0,0-2.917-1.526,13.777,13.777,0,0,0-1.449.11" transform="translate(-14.721 -19.972)" fill="#263238"/><path d="M112.952,147.166c-.04-.017.231-.581,1.061-1.083a3.984,3.984,0,0,1,3.632-.216l.139.064.29.133-.235.229a4.569,4.569,0,0,1-3.32,1.271,2.351,2.351,0,0,1-1.417-.38c.022-.073.551.107,1.415.064a4.659,4.659,0,0,0,3.005-1.277l.055.361-.123-.055a3.935,3.935,0,0,0-3.291.087,14.093,14.093,0,0,0-1.212.8" transform="translate(-15.077 -19.426)" fill="#263238"/><path d="M103.8,152.557a2.185,2.185,0,0,1,1.488-.293,3.984,3.984,0,0,1,3.117,1.876l.079.133.165.274-.323.055a4.566,4.566,0,0,1-3.457-.83c-.743-.56-.994-1.093-.953-1.113.058-.049.393.4,1.13.853a4.66,4.66,0,0,0,3.2.646l-.159.329-.07-.115a3.934,3.934,0,0,0-2.763-1.79,13.778,13.778,0,0,0-1.453-.024" transform="translate(-13.856 -20.324)" fill="#263238"/></g><g transform="translate(911 4439.645)"><path d="M17.842,230.363c-.942,1.346-2.774.9-3.623.079a6.844,6.844,0,0,1-1.535-3.147c-.747-2.594-1.5-5.316-.944-7.957a4.428,4.428,0,0,1,1.016-2.164,2.311,2.311,0,0,1,2.189-.728,3.377,3.377,0,0,1,1.912,2.009,18.968,18.968,0,0,1,1.874,8.14,6.577,6.577,0,0,1-.89,3.768" transform="translate(17.458 -28.885)" fill="#e8505b"/><g transform="translate(29.007 187.501)" opacity="0.2"><g clip-path="url(#e)"><path d="M17.842,230.363c-.942,1.346-2.774.9-3.623.079a6.844,6.844,0,0,1-1.535-3.147c-.747-2.594-1.5-5.316-.944-7.957a4.428,4.428,0,0,1,1.016-2.164,2.311,2.311,0,0,1,2.189-.728,3.377,3.377,0,0,1,1.912,2.009,18.968,18.968,0,0,1,1.874,8.14,6.577,6.577,0,0,1-.89,3.768" transform="translate(-11.549 -216.386)"/></g></g><path d="M13.492,240.264a8.165,8.165,0,0,0-5.067-.615,4.207,4.207,0,0,0-2.5,1.117,1.8,1.8,0,0,0-.026,2.5,2.393,2.393,0,0,0,1.578.4c1.34-.016,2.826-.251,3.9.555.61.46,1.016,1.224,1.746,1.451a1.726,1.726,0,0,0,1.9-.845,2.948,2.948,0,0,0,.215-2.177,3.32,3.32,0,0,0-1.738-2.384" transform="translate(18.278 -31.971)" fill="#e8505b"/><path d="M21.645,232.961a4.893,4.893,0,0,1-.762-4.506,8.683,8.683,0,0,1,2.669-3.872,14.365,14.365,0,0,1,4.78-2.82,5.077,5.077,0,0,1,2.149-.366,2.253,2.253,0,0,1,1.8,1.092c.5.958.021,2.122-.5,3.071a36.234,36.234,0,0,1-3.139,4.781,8.487,8.487,0,0,1-3.452,2.958c-1.434.549-2.924.484-3.684-.51" transform="translate(16.243 -29.552)" fill="#e8505b"/><path d="M17.8,254.039a2.976,2.976,0,0,1-.085-.612l-.163-1.669a24.205,24.205,0,0,0-.375-2.448,18.871,18.871,0,0,0-.89-2.889,10.635,10.635,0,0,0-1.476-2.614,5.506,5.506,0,0,0-1.865-1.551,5.225,5.225,0,0,0-1.571-.489,2.931,2.931,0,0,1-.609-.088,2.906,2.906,0,0,1,.62-.01,4.772,4.772,0,0,1,1.639.426,5.5,5.5,0,0,1,1.967,1.564,10.389,10.389,0,0,1,1.529,2.667,17.7,17.7,0,0,1,.884,2.937,20.62,20.62,0,0,1,.325,2.478c.054.709.074,1.283.083,1.679a2.865,2.865,0,0,1-.013.618" transform="translate(17.562 -32.259)" fill="#263238"/><path d="M18.271,250.213a1.232,1.232,0,0,1-.016-.284c0-.213,0-.481,0-.811,0-.7,0-1.723-.036-2.982-.062-2.516-.279-5.991-.7-9.81s-.981-7.256-1.49-9.721c-.12-.618-.241-1.174-.355-1.66s-.2-.909-.291-1.25c-.077-.321-.14-.581-.19-.789a1.181,1.181,0,0,1-.049-.281,1.268,1.268,0,0,1,.1.267c.062.2.14.461.236.777.1.337.211.756.334,1.241s.262,1.04.393,1.657a91.946,91.946,0,0,1,1.566,9.731c.419,3.827.608,7.311.626,9.834.015,1.262-.012,2.283-.044,2.988-.02.329-.036.6-.049.811a1.233,1.233,0,0,1-.035.282" transform="translate(16.978 -29.718)" fill="#263238"/><path d="M18.731,243.809a5.377,5.377,0,0,1,.006-.847c.031-.545.106-1.332.26-2.3a30.123,30.123,0,0,1,.746-3.346,29.709,29.709,0,0,1,1.4-3.959,21.088,21.088,0,0,1,4.109-6.4,10.4,10.4,0,0,1,.967-.9c.148-.125.279-.25.412-.349l.375-.258A5.46,5.46,0,0,1,27.72,225a25.28,25.28,0,0,0-2.34,2.087,22.215,22.215,0,0,0-4.006,6.375,31.483,31.483,0,0,0-1.407,3.923c-.367,1.23-.611,2.36-.8,3.313s-.276,1.734-.337,2.274a5.431,5.431,0,0,1-.1.84" transform="translate(16.501 -30.034)" fill="#263238"/><path d="M440.878,224.2c.37-1.467-.6-2.932-1.682-3.989s-2.375-2-2.944-3.4c-.92-2.271.283-5.226-1.277-7.117-.917-1.112-2.553-1.476-3.368-2.666a6.1,6.1,0,0,1-.74-2.129,21.672,21.672,0,0,0-5.447-10.054,18.8,18.8,0,0,0,2.17,9.707,12.368,12.368,0,0,1,1.626,3.682c.349,2.163-.846,4.4-.3,6.521.621,2.427,3.361,4.038,3.5,6.539.122,2.114-1.712,3.981-1.562,6.094a5.7,5.7,0,0,0,.955,2.5,8.4,8.4,0,0,0,7.7,4.487l4.461.131Z" transform="translate(-68.785 -14.154)" fill="#e8505b"/><g transform="translate(356.614 180.685)" opacity="0.3"><g transform="translate(0)"><g clip-path="url(#f)"><path d="M440.878,224.2c.37-1.467-.6-2.932-1.682-3.989s-2.375-2-2.944-3.4c-.92-2.271.283-5.226-1.277-7.117-.917-1.112-2.553-1.476-3.368-2.666a6.1,6.1,0,0,1-.74-2.129,21.672,21.672,0,0,0-5.447-10.054,18.8,18.8,0,0,0,2.17,9.707,12.368,12.368,0,0,1,1.626,3.682c.349,2.163-.846,4.4-.3,6.521.621,2.427,3.361,4.038,3.5,6.539.122,2.114-1.712,3.981-1.562,6.094a5.7,5.7,0,0,0,.955,2.5,8.4,8.4,0,0,0,7.7,4.487l4.461.131Z" transform="translate(-425.399 -194.839)"/></g></g></g><path d="M454.72,225.738a3.552,3.552,0,0,0,1.228-.034,7.447,7.447,0,0,0,1.448-.373,6.148,6.148,0,0,0,1.784-.991,2.494,2.494,0,0,0,.731-.985,4.6,4.6,0,0,0,.2-1.334,13.033,13.033,0,0,1,.1-1.443,3.981,3.981,0,0,1,.537-1.437,10.908,10.908,0,0,0,1.664-3.062,10.106,10.106,0,0,0-.144-3.909,8.294,8.294,0,0,1,.081-4.19c.47-1.4,1.441-2.663,1.921-4.238.478-1.591.242-3.3.335-4.983a6.616,6.616,0,0,1,.567-2.48c.356-.791.853-1.539,1.239-2.372a17.334,17.334,0,0,0,1.117-5.458q.15-1.412.3-2.852a13.982,13.982,0,0,1,.48-2.855,25.133,25.133,0,0,1,1.051-2.767,9.174,9.174,0,0,0,.51-1.445A14.563,14.563,0,0,0,470,177a18.065,18.065,0,0,0-.136-3.086c-.127-1.029-.319-2.048-.435-3.079-.007-.06-.015-.121-.021-.177l-.024-.205-.182.092a6.892,6.892,0,0,0-2.39,2.04,10.917,10.917,0,0,0-1.46,2.728A33.472,33.472,0,0,0,464,181.155a15.885,15.885,0,0,1-1.8,5.4c-.485.8-1.072,1.526-1.585,2.3a6.31,6.31,0,0,0-1.092,2.548c-.253,1.888.8,3.54.589,5.211a5.787,5.787,0,0,1-.8,2.319c-.4.715-.873,1.378-1.321,2.046a13.1,13.1,0,0,0-1.186,2.065,6.525,6.525,0,0,0-.535,2.239c-.1,1.5.121,2.93.019,4.278a9.855,9.855,0,0,1-1.08,3.672c-.533,1.1-1.128,2.1-1.625,3.061a15.589,15.589,0,0,0-.668,1.425,7,7,0,0,0-.384,1.412,8.9,8.9,0,0,0-.018,2.546,6.413,6.413,0,0,0,1.294,3.24,3.1,3.1,0,0,0,.363.389,1.782,1.782,0,0,0,.294.247c.167.121.256.177.256.177a5.657,5.657,0,0,1-.868-.849,6.458,6.458,0,0,1-1.23-3.218,8.878,8.878,0,0,1,.043-2.509,6.888,6.888,0,0,1,.387-1.379c.187-.461.42-.929.672-1.406.5-.957,1.1-1.948,1.647-3.056a10.007,10.007,0,0,0,1.118-3.736c.109-1.376-.106-2.808,0-4.277a6.3,6.3,0,0,1,.525-2.164,12.96,12.96,0,0,1,1.172-2.023c.448-.662.925-1.328,1.338-2.058a6.026,6.026,0,0,0,.837-2.415c.205-1.781-.836-3.443-.578-5.2a6.042,6.042,0,0,1,1.055-2.437c.505-.763,1.1-1.493,1.594-2.31a16.1,16.1,0,0,0,1.844-5.5,33.356,33.356,0,0,1,1.347-5.8,10.649,10.649,0,0,1,1.422-2.655,6.605,6.605,0,0,1,2.289-1.956l-.206-.113c.007.056.014.118.021.179.118,1.043.31,2.065.436,3.081a17.727,17.727,0,0,1,.135,3.04,14.544,14.544,0,0,1-.128,1.488,8.973,8.973,0,0,1-.492,1.394,25.342,25.342,0,0,0-1.06,2.8,14.221,14.221,0,0,0-.485,2.9q-.152,1.441-.3,2.854a17.12,17.12,0,0,1-1.085,5.376c-.372.81-.868,1.559-1.235,2.376a6.859,6.859,0,0,0-.583,2.572c-.087,1.722.146,3.4-.311,4.93s-1.42,2.792-1.9,4.234a8.479,8.479,0,0,0-.071,4.295,9.983,9.983,0,0,1,.166,3.835,10.878,10.878,0,0,1-1.626,3.024,4.122,4.122,0,0,0-.544,1.495,12.943,12.943,0,0,0-.085,1.46,4.54,4.54,0,0,1-.183,1.3,2.4,2.4,0,0,1-.686.943,6.126,6.126,0,0,1-1.742.995,7.688,7.688,0,0,1-1.427.4,5.718,5.718,0,0,1-.907.092c-.2-.006-.312,0-.312,0" transform="translate(-78.622 -5.277)" fill="#263238"/><path d="M469.824,174.639a.519.519,0,0,0-.043.135c-.025.107-.057.239-.1.4-.086.352-.187.883-.352,1.546s-.572,1.411-.913,2.335-.713,1.978-1.042,3.17-.628,2.514-.935,3.931a16.537,16.537,0,0,1-1.4,4.364c-.362.726-.769,1.462-1.091,2.266a10.541,10.541,0,0,0-.628,2.563,51.711,51.711,0,0,1-.931,5.4c-.874,3.66-1.706,7.146-2.464,10.32-.777,3.164-1.476,6.014-2.066,8.417-.574,2.382-1.039,4.316-1.368,5.681-.151.655-.271,1.172-.358,1.548l-.086.4a.539.539,0,0,0-.02.14.512.512,0,0,0,.048-.133c.031-.106.068-.237.114-.4l.41-1.535,1.457-5.659,2.126-8.4c.765-3.175,1.6-6.662,2.487-10.323a50.9,50.9,0,0,0,.929-5.424,10.294,10.294,0,0,1,.6-2.5c.311-.784.712-1.515,1.074-2.25a16.652,16.652,0,0,0,1.4-4.431c.3-1.42.578-2.739.9-3.928s.658-2.249,1-3.166c.323-.92.71-1.679.87-2.363s.233-1.2.3-1.563c.028-.165.05-.3.068-.408a.51.51,0,0,0,.014-.141" transform="translate(-79.932 -6.803)" fill="#263238"/><path d="M447.848,217.759c2.9-1.748,3.71-7.009,2.476-10.166s-3.376-6.036-3.724-9.407c-.267-2.591.567-5.258-.052-7.788-.834-3.416-4.189-6.046-4.17-9.562.011-1.973,1.123-3.836,1.022-5.805-.123-2.417-1.989-4.324-3.151-6.447-1.777-3.25-1.915-7.1-2.537-10.754s-2.037-7.557-5.286-9.334c-.46,3.105-1.265,5.235-.985,9.437.1,1.509,1.871,4.389,2.128,7.7.154,1.976.264,3.956.4,5.935a19.044,19.044,0,0,0,.965,5.683c.537,1.377,1.394,2.626,1.794,4.05.754,2.677-.2,5.587.412,8.3.518,2.3,2.123,4.271,2.461,6.6.476,3.276-1.626,6.7-.523,9.817.548,1.549,1.832,2.789,2.2,4.389.288,1.242-.011,2.56.251,3.808.422,2.01,4.269,3.551,6.319,3.415" transform="translate(-70.963 2.711)" fill="#e8505b"/><path d="M434.312,153.329a.809.809,0,0,0,.013.176c.018.13.041.3.069.51.069.448.148,1.105.3,1.955s.614,1.815.973,2.975c.378,1.156.756,2.49,1.091,3.983s.628,3.146.931,4.924a20.661,20.661,0,0,0,1.525,5.566c.414.929.878,1.859,1.228,2.85a12.817,12.817,0,0,1,.632,3.145,63.5,63.5,0,0,0,.893,6.781l2.589,12.949,2.228,10.545c.641,2.986,1.162,5.408,1.527,7.1l.429,1.929c.049.207.088.371.118.5a.088.088,0,1,0,.029-.006c-.023-.13-.053-.3-.091-.507-.09-.462-.216-1.112-.377-1.939-.343-1.7-.833-4.13-1.437-7.123-.619-3.011-1.353-6.588-2.168-10.558l-2.566-12.943a64.4,64.4,0,0,1-.9-6.76,13.086,13.086,0,0,0-.653-3.208c-.361-1.011-.831-1.944-1.245-2.866a20.564,20.564,0,0,1-1.532-5.5c-.312-1.776-.613-3.434-.967-4.929s-.742-2.833-1.137-3.989c-.377-1.163-.836-2.116-1.016-2.948s-.269-1.5-.356-1.94l-.1-.505a.838.838,0,0,0-.043-.171" transform="translate(-72.028 0.952)" fill="#263238"/></g><path d="M40.684,66.756a3.658,3.658,0,0,0,.065-.514c.033-.367.078-.866.136-1.507a17.7,17.7,0,0,1,.36-2.425c.1-.473.148-1,.31-1.531s.317-1.106.49-1.709a28.921,28.921,0,0,1,4.027-8.095A28.211,28.211,0,0,1,71.929,39.487c.647.049,1.286.209,1.936.309a13.171,13.171,0,0,1,1.944.429,26.712,26.712,0,0,1,7.59,3.263A28.148,28.148,0,0,1,94.79,57.233,27.5,27.5,0,0,1,96.625,66.8a26.973,26.973,0,0,1-1.567,9.91l-.36.968-.049.128.054.118c2.206,4.818,4.366,9.543,6.462,14.122l.345-.409L88.819,87.039l-.157-.056-.119.12a28.176,28.176,0,0,1-11.762,7.1A27.992,27.992,0,0,1,54,91.121a28.833,28.833,0,0,1-7.222-6.466A31.04,31.04,0,0,1,42.767,77.7a31.279,31.279,0,0,1-1.618-5.838q-.173-1.228-.308-2.182-.043-.944-.072-1.607c-.023-.413-.04-.738-.053-.984a1.819,1.819,0,0,0-.033-.334,1.694,1.694,0,0,0-.015.334c0,.246,0,.572.007.987.009.445.016.984.029,1.617q.116.961.265,2.2a30.659,30.659,0,0,0,1.554,5.912,30.956,30.956,0,0,0,4,7.074,29.021,29.021,0,0,0,7.274,6.605,28.342,28.342,0,0,0,23.127,3.231,28.617,28.617,0,0,0,12-7.2l-.276.065,12.684,4.613.639.233-.293-.642c-2.093-4.58-4.253-9.305-6.455-14.125l.007.245.368-.989a27.551,27.551,0,0,0,1.6-10.132,28.069,28.069,0,0,0-1.886-9.773,28.65,28.65,0,0,0-11.642-14,27.191,27.191,0,0,0-7.736-3.3,13.489,13.489,0,0,0-1.979-.429c-.662-.1-1.312-.26-1.969-.308a28.352,28.352,0,0,0-26.167,11.8A28.811,28.811,0,0,0,41.832,59l-.467,1.73c-.155.54-.195,1.07-.288,1.548a16.869,16.869,0,0,0-.308,2.447c-.034.645-.06,1.147-.079,1.516a3.258,3.258,0,0,0-.007.516" transform="translate(905.571 4434.464)" fill="#263238"/><path d="M71.29,70.179l10.156-.2a10.158,10.158,0,1,1-10.59-9.951Z" transform="translate(902.84 4431.631)" fill="#e8505b"/><path d="M75.892,67.26l-.428-10.152a10.712,10.712,0,0,1,7.369,2.735A10.446,10.446,0,0,1,86.042,66.9Z" transform="translate(900.927 4432.021)" fill="#e8505b"/></g></svg>