<svg xmlns="http://www.w3.org/2000/svg" xmlns:xlink="http://www.w3.org/1999/xlink" width="505" height="274.763" viewBox="0 0 505 274.763"><defs><clipPath id="a"><rect width="56.802" height="14.952" fill="none"/></clipPath><clipPath id="b"><rect width="68.817" height="18.114" fill="none"/></clipPath><clipPath id="c"><rect width="91.357" height="15.863" fill="none"/></clipPath><clipPath id="d"><rect width="181.714" height="125.563" fill="none"/></clipPath></defs><g transform="translate(0 0)"><g transform="translate(0 0)"><g transform="translate(125.357 116.462)" opacity="0.5"><g clip-path="url(#a)"><path d="M723.994,661.345s2.84-8.255,9.631-7.338c0,0,9.86-13.759,20.374-1.834,0,0,11.177-2.955,19.454,2.558,5.519,3.675,7.342,7.531,7.342,7.531Z" transform="translate(-723.994 -647.31)" fill="#f8fcff"/></g></g><g transform="translate(84.235 84.666)" opacity="0.5"><g clip-path="url(#b)"><path d="M486.5,487.579s3.441-10,11.669-8.89c0,0,11.946-16.669,24.684-2.222,0,0,13.541-3.579,23.569,3.1,6.686,4.453,8.895,9.124,8.895,9.124Z" transform="translate(-486.5 -470.576)" fill="#f8fcff"/></g></g><g transform="translate(199.519 78.199)" opacity="0.5"><g clip-path="url(#c)"><path d="M1152.316,449.533a16,16,0,0,1,15.491-7.784s15.859-14.6,32.77-1.946c0,0,17.977-3.135,31.289,2.714,8.876,3.9,11.808,7.99,11.808,7.99Z" transform="translate(-1152.317 -434.643)" fill="#f8fcff"/></g></g><path d="M514.668,251.974c-.326,1.442-.692,2.924-1.1,4.406-.368,1.484-.857,3.052-1.386,4.619-.245.761-.531,1.526-.774,2.286-.857,2.416-1.834,4.914-3.017,7.5-.368.846-.734,1.737-1.142,2.586-.1.264-.221.531-.344.8-.074.158-.152.315-.228.473H458.2l-14.189-.039H316.965l-17.951-.021h-.056l-18.913-.023h-98l-40.853-.042H67.315s-.025-.07-.076-.206c-.013-.042-.029-.088-.049-.141-.06-.165-.141-.388-.243-.67l-.04-.083v-.042a.158.158,0,0,1-.04-.086,12.023,12.023,0,0,1-.449-1.185c-.082-.213-.163-.468-.286-.721v-.086l-.04-.042c-.56-1.512-1.254-3.48-2.055-5.86q-.107-.323-.221-.654c-.6-1.8-1.261-3.81-1.964-6.027-1.672-5.38-3.589-11.947-5.463-19.361-.734-2.924-1.468-5.974-2.162-9.153-.408-1.834-.819-3.745-1.212-5.675q-.171-.849-.337-1.7c-.721-3.613-1.4-7.335-2.011-11.138-.806-5-1.5-10.129-2.024-15.342q-.392-3.837-.658-7.727c0-.067-.011-.137-.013-.2s-.011-.139-.016-.209c-.241-3.65-.393-7.325-.437-11q-.054-4.435.1-8.863c.08-1.992.2-3.984.326-5.976.326-4.237.815-8.473,1.509-12.583.449-2.8,1.018-5.593,1.672-8.3a96.685,96.685,0,0,1,6.6-19.022c1.02-2.076,2.08-4.109,3.263-6.1,2.649-4.534,5.341-8.77,8.074-12.752h.04c1.426-2.117,2.854-4.109,4.28-6.018A155.767,155.767,0,0,1,89.618,78.864c67.068-65.2,143.965-2.287,191.549-46.052,46.519-42.747,133.57-43.383,172.506-3.94.734.763,1.509,1.526,2.243,2.372a66.247,66.247,0,0,1,14.153,24.344,72.549,72.549,0,0,1,3.361,23.465q-.02,1.339-.083,2.7a93.762,93.762,0,0,1-1.364,12.035q-.726,4.118-1.839,8.415a143.726,143.726,0,0,1-7.664,21.608q-.492,1.078-.98,2.161c-10.641,23.131-1.875,36.985,11.54,49.653,8.275,7.838,18.266,15.21,26.584,24.022,1.1,1.185,2.16,2.372,3.221,3.6.406.489.805.979,1.2,1.475,1.111,1.394,2.18,2.818,3.2,4.285q.777,1.141,1.5,2.319a52.594,52.594,0,0,1,3.758,7.312,48.607,48.607,0,0,1,3.432,13.29,61.193,61.193,0,0,1-1.27,20.04" transform="translate(-39.278 0.003)" fill="#dceaff"/><path d="M391.293,1134.321H243.916l-61.438-.042H71.372s-.065-.116-.19-.348c-.089-.165-.21-.388-.366-.67l-.06-.083v-.042s-.06-.044-.06-.086a9.938,9.938,0,0,1-.674-1.185,7.5,7.5,0,0,0-.431-.722v-.086l-.06-.042c-.841-1.512-1.886-3.48-3.091-5.86l-.33-.654c-.6-1.8-1.261-3.81-1.964-6.027-1.671-5.38-3.588-11.947-5.463-19.361-.734-2.924-1.468-5.974-2.162-9.153-.408-1.834-.819-3.745-1.212-5.674q-.171-.848-.337-1.7c-.721-3.613-1.4-7.334-2.011-11.138-1.2-7.446-2.149-15.2-2.683-23.069,47.722,2.556,139.714,9.282,208.909,25.341,97.638,22.658,121.767,26.318,163.128,30.382,23.147,2.275-3.265,17.365-31.023,30.214" transform="translate(-41.573 -859.762)" fill="#ffcf83"/><path d="M1520.5,975.86l-3.46,70.318h3.46l1.557-70.318Z" transform="translate(-1254.373 -800.287)" fill="#adc8fe"/><path d="M1538.61,871.716l.879,4.33,15.742-19.414Z" transform="translate(-1272.206 -702.509)" fill="#adc8fe"/><path d="M1551,967.864l-4.247-.329,13.555,21.121Z" transform="translate(-1278.941 -793.459)" fill="#adc8fe"/><path d="M1416.356,972.105l2.465-3.608-24.406,1.149Z" transform="translate(-1152.978 -794.248)" fill="#adc8fe"/><path d="M1529.951,958.521a1.9,1.9,0,1,1,1.9,1.977,1.942,1.942,0,0,1-1.9-1.977" transform="translate(-1265.046 -784.446)" fill="#adc8fe"/><path d="M597.592,1126.831s-126.3-35.987-166.12-39.612-1.674,4.847-1.674,4.847,108.089,29.547,133.376,41.73,34.417-6.964,34.417-6.964" transform="translate(-341.764 -890.87)" fill="#f7c274"/><path d="M484.6,1159.537s-109.207-54.447-144.87-64.668-2.3,4.067-2.3,4.067,93.659,45.47,114.727,60.848,32.442-.247,32.442-.247" transform="translate(-267.287 -894.862)" fill="#f7c274"/><path d="M1011.827,1049.037,1009,1106.594h2.832l1.274-57.557Z" transform="translate(-834.292 -860.298)" fill="#adc8fe"/><path d="M1026.648,963.793l.719,3.544,12.885-15.891Z" transform="translate(-848.889 -780.265)" fill="#adc8fe"/><path d="M1036.792,1042.491l-3.476-.27,11.1,17.288Z" transform="translate(-854.402 -854.708)" fill="#adc8fe"/><path d="M926.581,1045.964l2.018-2.953-19.977.94Z" transform="translate(-751.298 -855.356)" fill="#adc8fe"/><path d="M1019.561,1034.844a1.559,1.559,0,1,1,1.557,1.618,1.589,1.589,0,0,1-1.557-1.618" transform="translate(-843.028 -847.331)" fill="#adc8fe"/><path d="M542.255,1163.692q-.388,5.263-1.27,10.957c-.013.086-.027.17-.042.258-.315,1.941-.667,3.93-1.058,5.92-.368,2.08-.857,4.276-1.386,6.475-.245,1.066-.531,2.137-.775,3.2-.857,3.388-1.834,6.887-3.017,10.512-.368,1.187-.734,2.435-1.142,3.624-.1.371-.221.745-.344,1.116H93.506l-.243-.939-.04-.118v-.058a.264.264,0,0,1-.04-.12c-.163-.473-.286-1.011-.449-1.66-.082-.3-.163-.656-.285-1.011v-.121l-.04-.058c-.56-2.12-1.254-4.879-2.055-8.214-.661-2.748-1.395-5.878-2.185-9.366-1.672-7.541-3.589-16.745-5.463-27.138-.734-4.1-1.468-8.374-2.162-12.828-.408-2.572-.819-5.25-1.212-7.954,40.306,15.91,143.963,51.663,217.989,31.67,13.3-3.592,27.981-6.809,43.382-9.684q5.162-.968,10.426-1.879c39.931-6.943,83.587-11.755,120.171-15.071h.009l1.263-.114,1.237-.111,1.5-.134c1.036-.09,2.064-.183,3.089-.272l.4-.035q1.178-.1,2.345-.2,4.312-.376,8.456-.719l1.854-.153q1.025-.087,2.033-.169,1.362-.111,2.7-.22l1.649-.132,2.908-.232,1.41-.111,1.921-.151c.051,0,.1-.01.156-.012l3.093-.241.971-.074c.018,0,.031,0,.042,0l.025,0c8.251-.635,15.66-1.173,22-1.63q1.667,2.09,3.2,4.285.777,1.141,1.5,2.319a52.585,52.585,0,0,1,3.758,7.312,48.616,48.616,0,0,1,3.432,13.289" transform="translate(-65.595 -931.755)" fill="#82b378"/><path d="M1358.135,1247.928c-10.449,6.1-32.977,21.73-46.82,49.479-.1.191-.195.387-.291.582l-10.525-.582-3.292-.182c.317-.927,15-24.051,50.5-47.419q5.161-.965,10.426-1.879" transform="translate(-1072.602 -1023.405)" fill="#6e9e63"/><path d="M1424.68,1283.407c.335-.975,17.406-27.96,59.583-52.378l3.32,2.7s-32.441,14.814-49.848,50.406Z" transform="translate(-1178.003 -1009.546)" fill="#6e9e63"/><path d="M1600.784,1283.407c.335-.975,17.406-27.96,59.583-52.378l3.32,2.7s-32.442,14.814-49.848,50.406Z" transform="translate(-1323.615 -1009.546)" fill="#6e9e63"/><path d="M1987.573,1146.988s-59.095,6.248-96,45.751l-23.283-6.933c.643-.975,25.921-21.441,82.217-35.727h.009c13.493-1.222,26.026-2.243,37.055-3.091" transform="translate(-1544.806 -940.626)" fill="#6e9e63"/><path d="M2083.117,1181.943c-26.545,6.66-69.041,21.921-100.818,55.355h-20.344l-14.95-4.5c.949-1.523,41.464-36.748,132.354-58.171a52.514,52.514,0,0,1,3.757,7.312" transform="translate(-1609.89 -963.296)" fill="#6e9e63"/><path d="M1508.539,1434.113l.3-.081c-.122-.562-.425-11.883,2.993-18.485l-.276-.154c-3.464,6.689-3.138,18.254-3.021,18.719" transform="translate(-1247.288 -1160.741)" fill="#6e9e63"/><path d="M1529.451,1382.544s1.076,2.345.42,3.4-1.2-1.948-.42-3.4" transform="translate(-1264.317 -1133.801)" fill="#ffcf83"/><path d="M1532.13,1421.059s-1.076-2.345-.42-3.4,1.2,1.948.42,3.4" transform="translate(-1266.326 -1162.422)" fill="#ffcf83"/><path d="M1518.827,1386.525s1.995,1.567,1.879,2.813-1.925-1.157-1.879-2.813" transform="translate(-1255.848 -1137.066)" fill="#ffcf83"/><path d="M1538.6,1419.157s-1.995-1.567-1.879-2.813,1.925,1.157,1.879,2.813" transform="translate(-1270.641 -1161.237)" fill="#ffcf83"/><path d="M1509.726,1395.9s2.462.456,2.9,1.621-2.22-.123-2.9-1.621" transform="translate(-1248.323 -1144.754)" fill="#ffcf83"/><path d="M1542.6,1415.308s-2.461-.456-2.9-1.621,2.22.123,2.9,1.621" transform="translate(-1273.069 -1158.971)" fill="#ffcf83"/><path d="M1506.781,1413.124s1.972-1.6,3.1-1.159-1.573,1.633-3.1,1.159" transform="translate(-1245.888 -1157.866)" fill="#ffcf83"/><path d="M1544.147,1406.276s-2.206,1.222-3.246.589,1.819-1.329,3.246-.589" transform="translate(-1273.917 -1153.002)" fill="#ffcf83"/><path d="M1513.06,1418.13s1.226-2.264,2.43-2.312-.844,2.138-2.43,2.313" transform="translate(-1251.08 -1161.088)" fill="#ffcf83"/><path d="M1542.457,1393.848s-1.226,2.264-2.43,2.312.844-2.137,2.43-2.312" transform="translate(-1273.077 -1143.071)" fill="#ffcf83"/><path d="M1522.38,1421.254s.161-2.593,1.226-3.178.13,2.306-1.226,3.178" transform="translate(-1258.786 -1162.877)" fill="#ffcf83"/><path d="M1537.752,1386.192s-.161,2.593-1.226,3.178-.13-2.306,1.226-3.178" transform="translate(-1270.102 -1136.793)" fill="#ffcf83"/><path d="M1506.05,1407.333s2.335-.927,3.291-.165-1.964,1.083-3.291.165" transform="translate(-1245.284 -1153.749)" fill="#ffcf83"/><path d="M1526.641,1402.084a1.742,1.742,0,1,0-1.74,1.808,1.775,1.775,0,0,0,1.74-1.808" transform="translate(-1259.432 -1148.343)" fill="#12263f"/><path d="M1512.311,1453.483a5.963,5.963,0,0,1,3.6-1.709,15.458,15.458,0,0,1,2.731,0,6.087,6.087,0,0,1-2.817,1.709,12.4,12.4,0,0,1-3.516,0" transform="translate(-1250.461 -1190.536)" fill="#6e9e63"/><path d="M1490.965,1438c-.264-.239-.463-2.19-2.082-2.679a14.761,14.761,0,0,0-2.767-.582s1.4,2.535,2.424,2.915a7.759,7.759,0,0,0,2.424.346" transform="translate(-1228.802 -1176.602)" fill="#6e9e63"/><path d="M1461.239,1419.025l.357-.1c-.144-.662-.5-13.985,3.522-21.753l-.325-.181c-4.076,7.872-3.692,21.482-3.555,22.03" transform="translate(-1208.168 -1145.652)" fill="#6e9e63"/><path d="M1485.848,1358.336s1.266,2.76.495,4-1.407-2.292-.495-4" transform="translate(-1228.208 -1113.949)" fill="#ffcf83"/><path d="M1489,1403.662s-1.266-2.759-.495-4,1.407,2.292.495,4" transform="translate(-1230.572 -1147.631)" fill="#ffcf83"/><path d="M1473.345,1363.021s2.347,1.844,2.21,3.31-2.265-1.361-2.21-3.31" transform="translate(-1218.241 -1117.791)" fill="#ffcf83"/><path d="M1496.615,1401.424s-2.347-1.844-2.21-3.311,2.265,1.362,2.21,3.311" transform="translate(-1235.65 -1146.236)" fill="#ffcf83"/><path d="M1462.634,1374.054s2.9.536,3.416,1.908-2.613-.145-3.416-1.908" transform="translate(-1209.385 -1126.839)" fill="#ffcf83"/><path d="M1501.328,1396.895s-2.9-.536-3.416-1.907,2.613.145,3.416,1.907" transform="translate(-1238.507 -1143.57)" fill="#ffcf83"/><path d="M1459.169,1394.324s2.32-1.88,3.648-1.364-1.851,1.922-3.648,1.364" transform="translate(-1206.52 -1142.269)" fill="#ffcf83"/><path d="M1503.144,1386.265s-2.6,1.438-3.82.693,2.14-1.563,3.82-.693" transform="translate(-1239.505 -1136.545)" fill="#ffcf83"/><path d="M1466.558,1400.216s1.443-2.665,2.86-2.722-.994,2.515-2.86,2.722" transform="translate(-1212.63 -1146.061)" fill="#ffcf83"/><path d="M1501.154,1371.639s-1.443,2.665-2.86,2.721.994-2.515,2.86-2.721" transform="translate(-1238.518 -1124.858)" fill="#ffcf83"/><path d="M1477.527,1403.892s.19-3.051,1.443-3.74.153,2.714-1.443,3.74" transform="translate(-1221.699 -1148.167)" fill="#ffcf83"/><path d="M1495.617,1362.63s-.189,3.051-1.443,3.74-.153-2.715,1.443-3.74" transform="translate(-1235.015 -1117.47)" fill="#ffcf83"/><path d="M1458.309,1387.51s2.749-1.091,3.873-.193-2.312,1.274-3.873.193" transform="translate(-1205.809 -1137.424)" fill="#ffcf83"/><path d="M1482.542,1381.332a2.049,2.049,0,1,0-2.048,2.128,2.089,2.089,0,0,0,2.048-2.128" transform="translate(-1222.459 -1131.062)" fill="#12263f"/><path d="M1462.364,1471.683a7.016,7.016,0,0,1,4.24-2.011,18.179,18.179,0,0,1,3.213,0,7.159,7.159,0,0,1-3.315,2.011,14.583,14.583,0,0,1-4.137,0" transform="translate(-1209.162 -1205.207)" fill="#6e9e63"/><path d="M1437.243,1453.459c-.311-.281-.545-2.578-2.45-3.153a17.414,17.414,0,0,0-3.256-.685s1.651,2.983,2.853,3.43a9.142,9.142,0,0,0,2.853.407" transform="translate(-1183.672 -1188.811)" fill="#6e9e63"/><path d="M1518.381,1459.188l.214-.057c-.086-.4-.3-8.391,2.114-13.052l-.2-.109c-2.445,4.723-2.216,12.889-2.133,13.218" transform="translate(-1255.442 -1185.816)" fill="#6e9e63"/><path d="M1533.148,1422.775s.76,1.656.3,2.4-.844-1.375-.3-2.4" transform="translate(-1267.467 -1166.794)" fill="#ffcf83"/><path d="M1535.039,1449.971s-.76-1.656-.3-2.4.844,1.375.3,2.4" transform="translate(-1268.885 -1187.004)" fill="#ffcf83"/><path d="M1525.646,1425.585s1.409,1.106,1.326,1.986-1.359-.817-1.326-1.986" transform="translate(-1261.486 -1169.098)" fill="#ffcf83"/><path d="M1539.608,1448.628s-1.409-1.106-1.326-1.986,1.359.817,1.326,1.986" transform="translate(-1271.931 -1186.167)" fill="#ffcf83"/><path d="M1519.219,1432.205s1.738.322,2.049,1.145-1.568-.087-2.049-1.145" transform="translate(-1256.173 -1174.527)" fill="#ffcf83"/><path d="M1542.435,1445.91s-1.738-.322-2.05-1.145,1.568.087,2.05,1.145" transform="translate(-1273.646 -1184.566)" fill="#ffcf83"/><path d="M1517.14,1444.367s1.393-1.128,2.189-.818-1.11,1.153-2.189.818" transform="translate(-1254.453 -1183.786)" fill="#ffcf83"/><path d="M1543.526,1439.533s-1.558.863-2.292.415,1.284-.938,2.292-.415" transform="translate(-1274.246 -1180.352)" fill="#ffcf83"/><path d="M1521.574,1447.9s.866-1.6,1.716-1.633-.6,1.509-1.716,1.633" transform="translate(-1258.12 -1186.062)" fill="#ffcf83"/><path d="M1542.331,1430.756s-.865,1.6-1.715,1.633.6-1.509,1.715-1.633" transform="translate(-1273.653 -1173.339)" fill="#ffcf83"/><path d="M1528.155,1450.108s.114-1.83.866-2.244.092,1.629-.866,2.244" transform="translate(-1263.561 -1187.324)" fill="#ffcf83"/><path d="M1539.009,1425.351s-.114,1.831-.866,2.244-.092-1.629.866-2.244" transform="translate(-1271.551 -1168.906)" fill="#ffcf83"/><path d="M1516.625,1440.278s1.649-.655,2.324-.116-1.387.764-2.324.116" transform="translate(-1254.028 -1180.878)" fill="#ffcf83"/><path d="M1531.165,1436.572a1.23,1.23,0,1,0-1.229,1.277,1.254,1.254,0,0,0,1.229-1.277" transform="translate(-1264.018 -1177.062)" fill="#12263f"/><path d="M1519.057,1490.785a4.211,4.211,0,0,1,2.544-1.207,10.872,10.872,0,0,1,1.928,0,4.3,4.3,0,0,1-1.989,1.207,8.754,8.754,0,0,1-2.483,0" transform="translate(-1256.039 -1221.551)" fill="#6e9e63"/><path d="M1503.984,1479.849c-.187-.169-.327-1.547-1.47-1.892a10.494,10.494,0,0,0-1.954-.411s.99,1.79,1.712,2.058a5.476,5.476,0,0,0,1.712.244" transform="translate(-1240.744 -1211.712)" fill="#6e9e63"/><path d="M1586.973,1419.025l.357-.1c-.143-.662-.5-13.985,3.523-21.753l-.325-.181c-4.076,7.872-3.692,21.482-3.555,22.03" transform="translate(-1312.132 -1145.652)" fill="#6e9e63"/><path d="M1611.583,1358.336s1.266,2.76.495,4-1.407-2.292-.495-4" transform="translate(-1332.173 -1113.949)" fill="#ffcf83"/><path d="M1614.737,1403.662s-1.266-2.759-.495-4,1.407,2.292.495,4" transform="translate(-1334.537 -1147.631)" fill="#ffcf83"/><path d="M1599.08,1363.021s2.347,1.844,2.21,3.31-2.265-1.361-2.21-3.31" transform="translate(-1322.205 -1117.791)" fill="#ffcf83"/><path d="M1622.35,1401.424s-2.347-1.844-2.211-3.311,2.266,1.362,2.211,3.311" transform="translate(-1339.614 -1146.236)" fill="#ffcf83"/><path d="M1588.37,1374.054s2.9.536,3.416,1.908-2.613-.145-3.416-1.908" transform="translate(-1313.35 -1126.839)" fill="#ffcf83"/><path d="M1627.062,1396.895s-2.9-.536-3.415-1.907,2.612.145,3.415,1.907" transform="translate(-1342.471 -1143.57)" fill="#ffcf83"/><path d="M1584.9,1394.324s2.321-1.88,3.649-1.364-1.851,1.922-3.649,1.364" transform="translate(-1310.485 -1142.269)" fill="#ffcf83"/><path d="M1628.879,1386.265s-2.6,1.438-3.82.693,2.141-1.563,3.82-.693" transform="translate(-1343.47 -1136.545)" fill="#ffcf83"/><path d="M1592.293,1400.216s1.443-2.665,2.859-2.722-.994,2.515-2.859,2.722" transform="translate(-1316.594 -1146.061)" fill="#ffcf83"/><path d="M1626.888,1371.639s-1.443,2.665-2.86,2.721.994-2.515,2.86-2.721" transform="translate(-1342.482 -1124.858)" fill="#ffcf83"/><path d="M1603.262,1403.892s.189-3.051,1.443-3.74.152,2.714-1.443,3.74" transform="translate(-1325.664 -1148.167)" fill="#ffcf83"/><path d="M1621.352,1362.63s-.19,3.051-1.444,3.74-.153-2.715,1.444-3.74" transform="translate(-1338.979 -1117.47)" fill="#ffcf83"/><path d="M1584.044,1387.51s2.749-1.091,3.873-.193-2.312,1.274-3.873.193" transform="translate(-1309.773 -1137.424)" fill="#ffcf83"/><path d="M1608.277,1381.332a2.05,2.05,0,1,0-2.048,2.128,2.089,2.089,0,0,0,2.048-2.128" transform="translate(-1326.424 -1131.062)" fill="#12263f"/><path d="M1591.412,1441.819a7.018,7.018,0,0,1,4.24-2.011,18.1,18.1,0,0,1,3.214,0,7.165,7.165,0,0,1-3.316,2.011,14.6,14.6,0,0,1-4.138,0" transform="translate(-1315.866 -1180.716)" fill="#6e9e63"/><path d="M1566.291,1423.6c-.311-.281-.545-2.578-2.449-3.152a17.453,17.453,0,0,0-3.257-.685s1.651,2.983,2.853,3.43a9.13,9.13,0,0,0,2.853.407" transform="translate(-1290.376 -1164.32)" fill="#6e9e63"/><path d="M1548.9,1410.8l.357-.1c-.144-.716-.5-15.13,3.523-23.535l-.325-.2c-4.076,8.517-3.693,23.242-3.555,23.834" transform="translate(-1280.65 -1137.427)" fill="#6e9e63"/><path d="M1573.508,1345.14s1.266,2.986.495,4.323-1.407-2.48-.495-4.323" transform="translate(-1300.69 -1103.127)" fill="#ffcf83"/><path d="M1576.661,1394.178s-1.266-2.986-.495-4.323,1.407,2.48.495,4.323" transform="translate(-1303.054 -1139.568)" fill="#ffcf83"/><path d="M1561.005,1350.208s2.347,2,2.211,3.582-2.265-1.473-2.211-3.582" transform="translate(-1290.723 -1107.283)" fill="#ffcf83"/><path d="M1584.275,1391.758s-2.347-1.995-2.21-3.582,2.265,1.473,2.21,3.582" transform="translate(-1308.132 -1138.06)" fill="#ffcf83"/><path d="M1550.294,1362.145s2.9.58,3.416,2.064-2.613-.157-3.416-2.064" transform="translate(-1281.867 -1117.072)" fill="#ffcf83"/><path d="M1588.988,1386.856s-2.9-.581-3.416-2.064,2.613.157,3.416,2.064" transform="translate(-1310.989 -1135.174)" fill="#ffcf83"/><path d="M1546.829,1384.074s2.32-2.034,3.649-1.475-1.851,2.079-3.649,1.475" transform="translate(-1279.002 -1133.767)" fill="#ffcf83"/><path d="M1590.8,1375.356s-2.6,1.555-3.82.749,2.141-1.691,3.82-.749" transform="translate(-1311.988 -1127.574)" fill="#ffcf83"/><path d="M1554.218,1390.45s1.443-2.883,2.86-2.944-.994,2.721-2.86,2.944" transform="translate(-1285.112 -1137.87)" fill="#ffcf83"/><path d="M1588.813,1359.532s-1.442,2.883-2.859,2.945.994-2.722,2.859-2.945" transform="translate(-1311 -1114.929)" fill="#ffcf83"/><path d="M1565.187,1394.427s.189-3.3,1.443-4.046.153,2.936-1.443,4.046" transform="translate(-1294.182 -1140.147)" fill="#ffcf83"/><path d="M1583.277,1349.785s-.19,3.3-1.443,4.047-.153-2.937,1.443-4.047" transform="translate(-1307.497 -1106.936)" fill="#ffcf83"/><path d="M1545.969,1376.7s2.749-1.18,3.873-.209-2.311,1.379-3.873.209" transform="translate(-1278.291 -1128.524)" fill="#ffcf83"/><path d="M1570.2,1370.02a2.062,2.062,0,1,0-2.048,2.3,2.187,2.187,0,0,0,2.048-2.3" transform="translate(-1294.941 -1121.642)" fill="#12263f"/><path d="M1550.024,1467.772a6.866,6.866,0,0,1,4.239-2.176,16.76,16.76,0,0,1,3.213,0,7.133,7.133,0,0,1-3.315,2.176,13.5,13.5,0,0,1-4.138,0" transform="translate(-1281.644 -1201.861)" fill="#6e9e63"/><path d="M1524.9,1448.054c-.311-.3-.545-2.788-2.45-3.41a16.281,16.281,0,0,0-3.257-.741s1.651,3.228,2.853,3.712a8.492,8.492,0,0,0,2.853.44" transform="translate(-1256.154 -1184.121)" fill="#6e9e63"/><path d="M1598.556,1448.535l.252-.067c-.1-.468-.353-9.875,2.488-15.36l-.229-.128c-2.878,5.559-2.607,15.169-2.51,15.556" transform="translate(-1321.728 -1175.162)" fill="#6e9e63"/><path d="M1615.934,1405.681s.894,1.949.349,2.822-.994-1.619-.349-2.822" transform="translate(-1335.88 -1152.775)" fill="#ffcf83"/><path d="M1618.159,1437.687s-.894-1.949-.35-2.822.994,1.619.35,2.822" transform="translate(-1337.547 -1176.559)" fill="#ffcf83"/><path d="M1607.105,1408.988s1.657,1.3,1.561,2.338-1.6-.962-1.561-2.338" transform="translate(-1328.841 -1155.488)" fill="#ffcf83"/><path d="M1623.536,1436.106s-1.657-1.3-1.561-2.337,1.6.961,1.561,2.337" transform="translate(-1341.133 -1175.574)" fill="#ffcf83"/><path d="M1599.542,1416.779s2.046.379,2.412,1.347-1.845-.1-2.412-1.347" transform="translate(-1322.588 -1161.877)" fill="#ffcf83"/><path d="M1626.864,1432.908s-2.046-.379-2.412-1.347,1.845.1,2.412,1.347" transform="translate(-1343.151 -1173.692)" fill="#ffcf83"/><path d="M1597.095,1431.092s1.638-1.327,2.576-.963-1.307,1.357-2.576.963" transform="translate(-1320.564 -1172.773)" fill="#ffcf83"/><path d="M1628.147,1425.4s-1.834,1.016-2.7.489,1.512-1.1,2.7-.489" transform="translate(-1343.857 -1168.73)" fill="#ffcf83"/><path d="M1602.313,1435.253s1.019-1.882,2.019-1.922-.7,1.776-2.019,1.922" transform="translate(-1324.879 -1175.45)" fill="#ffcf83"/><path d="M1626.742,1415.074s-1.019,1.882-2.019,1.921.7-1.775,2.019-1.921" transform="translate(-1343.16 -1160.478)" fill="#ffcf83"/><path d="M1610.058,1437.848s.134-2.155,1.019-2.641.108,1.917-1.019,2.641" transform="translate(-1331.283 -1176.937)" fill="#ffcf83"/><path d="M1622.832,1408.713s-.134,2.154-1.019,2.641-.108-1.917,1.019-2.641" transform="translate(-1340.686 -1155.262)" fill="#ffcf83"/><path d="M1596.488,1426.28s1.941-.77,2.735-.136-1.632.9-2.735.136" transform="translate(-1320.063 -1169.351)" fill="#ffcf83"/><path d="M1613.6,1421.919a1.447,1.447,0,1,0-1.446,1.5,1.475,1.475,0,0,0,1.446-1.5" transform="translate(-1331.82 -1164.859)" fill="#12263f"/><path d="M1599.351,1485.718a4.953,4.953,0,0,1,2.993-1.421,12.8,12.8,0,0,1,2.27,0,5.059,5.059,0,0,1-2.341,1.421,10.324,10.324,0,0,1-2.922,0" transform="translate(-1322.43 -1217.214)" fill="#6e9e63"/><path d="M1581.612,1472.849c-.22-.2-.385-1.82-1.73-2.226a12.3,12.3,0,0,0-2.3-.484s1.166,2.107,2.015,2.423a6.45,6.45,0,0,0,2.015.287" transform="translate(-1304.431 -1205.636)" fill="#6e9e63"/><path d="M1651.888,1468.389l.182-.048c-.073-.336-.254-7.11,1.791-11.059l-.165-.092c-2.072,4-1.877,10.921-1.807,11.2" transform="translate(-1365.839 -1195.016)" fill="#6e9e63"/><path d="M1664.4,1437.535s.644,1.4.252,2.031-.716-1.165-.252-2.031" transform="translate(-1376.027 -1178.898)" fill="#ffcf83"/><path d="M1666,1460.579s-.644-1.4-.251-2.032.715,1.165.251,2.032" transform="translate(-1377.228 -1196.023)" fill="#ffcf83"/><path d="M1658.042,1439.916s1.193.937,1.124,1.683-1.151-.692-1.124-1.683" transform="translate(-1370.959 -1180.851)" fill="#ffcf83"/><path d="M1669.873,1459.441s-1.194-.938-1.124-1.683,1.151.693,1.124,1.683" transform="translate(-1379.81 -1195.313)" fill="#ffcf83"/><path d="M1652.6,1445.525s1.473.273,1.736.97-1.328-.074-1.736-.97" transform="translate(-1366.457 -1185.451)" fill="#ffcf83"/><path d="M1672.269,1457.137s-1.473-.273-1.736-.97,1.328.074,1.736.97" transform="translate(-1381.263 -1193.957)" fill="#ffcf83"/><path d="M1650.835,1455.83s1.18-.956,1.855-.693-.941.977-1.855.693" transform="translate(-1365 -1193.296)" fill="#ffcf83"/><path d="M1673.192,1451.734s-1.32.731-1.942.352,1.089-.795,1.942-.352" transform="translate(-1381.77 -1190.387)" fill="#ffcf83"/><path d="M1654.592,1458.828s.734-1.355,1.454-1.384-.505,1.279-1.454,1.384" transform="translate(-1368.106 -1195.225)" fill="#ffcf83"/><path d="M1672.181,1444.3s-.734,1.355-1.454,1.384.505-1.279,1.454-1.384" transform="translate(-1381.268 -1184.444)" fill="#ffcf83"/><path d="M1660.168,1460.7s.1-1.551.734-1.9.078,1.38-.734,1.9" transform="translate(-1372.717 -1196.294)" fill="#ffcf83"/><path d="M1669.365,1439.718s-.1,1.551-.734,1.9-.078-1.38.734-1.9" transform="translate(-1379.487 -1180.688)" fill="#ffcf83"/><path d="M1650.4,1452.366s1.4-.554,1.969-.1-1.175.648-1.969.1" transform="translate(-1364.639 -1190.833)" fill="#ffcf83"/><path d="M1662.717,1449.225a1.042,1.042,0,1,0-1.041,1.082,1.062,1.062,0,0,0,1.041-1.082" transform="translate(-1373.103 -1187.598)" fill="#12263f"/><path d="M1654.144,1479.978a3.567,3.567,0,0,1,2.156-1.023,9.211,9.211,0,0,1,1.633,0,3.645,3.645,0,0,1-1.685,1.023,7.437,7.437,0,0,1-2.1,0" transform="translate(-1367.736 -1212.843)" fill="#6e9e63"/><path d="M1641.373,1470.712c-.158-.144-.277-1.311-1.245-1.6a8.857,8.857,0,0,0-1.656-.348s.839,1.517,1.45,1.744a4.646,4.646,0,0,0,1.451.207" transform="translate(-1354.777 -1204.506)" fill="#6e9e63"/><path d="M1623.587,1459.362l.214-.057c-.085-.4-.3-8.367,2.108-13.015l-.194-.109c-2.439,4.71-2.209,12.853-2.127,13.181" transform="translate(-1342.432 -1185.989)" fill="#6e9e63"/><path d="M1638.312,1423.052s.757,1.651.3,2.391-.842-1.371-.3-2.391" transform="translate(-1354.422 -1167.021)" fill="#ffcf83"/><path d="M1640.2,1450.171s-.758-1.651-.3-2.391.842,1.371.3,2.391" transform="translate(-1355.836 -1187.174)" fill="#ffcf83"/><path d="M1630.831,1425.855s1.4,1.1,1.323,1.981-1.356-.814-1.323-1.981" transform="translate(-1348.459 -1169.32)" fill="#ffcf83"/><path d="M1644.753,1448.832s-1.4-1.1-1.323-1.981,1.355.815,1.323,1.981" transform="translate(-1358.875 -1186.339)" fill="#ffcf83"/><path d="M1624.423,1432.455s1.733.321,2.043,1.141-1.563-.087-2.043-1.141" transform="translate(-1343.161 -1174.733)" fill="#ffcf83"/><path d="M1647.572,1446.121s-1.733-.321-2.044-1.141,1.563.087,2.044,1.141" transform="translate(-1360.583 -1184.743)" fill="#ffcf83"/><path d="M1622.349,1444.582s1.388-1.125,2.183-.816-1.108,1.15-2.183.816" transform="translate(-1341.446 -1183.965)" fill="#ffcf83"/><path d="M1648.659,1439.761s-1.553.86-2.285.415,1.281-.935,2.285-.415" transform="translate(-1361.182 -1180.54)" fill="#ffcf83"/><path d="M1626.77,1448.108s.863-1.595,1.711-1.628-.595,1.5-1.711,1.628" transform="translate(-1345.102 -1186.234)" fill="#ffcf83"/><path d="M1647.469,1431.011s-.863,1.594-1.711,1.628.595-1.5,1.711-1.628" transform="translate(-1360.591 -1173.548)" fill="#ffcf83"/><path d="M1633.333,1450.307s.113-1.826.863-2.238.092,1.624-.863,2.238" transform="translate(-1350.529 -1187.493)" fill="#ffcf83"/><path d="M1644.155,1425.62s-.113,1.825-.863,2.238-.092-1.624.863-2.238" transform="translate(-1358.495 -1169.127)" fill="#ffcf83"/><path d="M1621.834,1440.506s1.645-.652,2.318-.116-1.383.762-2.318.116" transform="translate(-1341.02 -1181.066)" fill="#ffcf83"/><path d="M1636.334,1436.81a1.226,1.226,0,1,0-1.225,1.273,1.25,1.25,0,0,0,1.225-1.273" transform="translate(-1350.983 -1177.259)" fill="#12263f"/><path d="M1624.26,1490.867a4.2,4.2,0,0,1,2.537-1.2,10.913,10.913,0,0,1,1.922,0,4.286,4.286,0,0,1-1.983,1.2,8.742,8.742,0,0,1-2.476,0" transform="translate(-1343.026 -1221.62)" fill="#6e9e63"/><path d="M1609.231,1479.963c-.186-.168-.326-1.542-1.466-1.886a10.422,10.422,0,0,0-1.948-.41s.988,1.785,1.707,2.052a5.469,5.469,0,0,0,1.707.243" transform="translate(-1327.777 -1211.81)" fill="#6e9e63"/><path d="M1657.777,1483.391l.128-.034c-.051-.238-.179-5.021,1.265-7.809l-.116-.065c-1.463,2.826-1.326,7.712-1.276,7.908" transform="translate(-1370.717 -1210.019)" fill="#6e9e63"/><path d="M1666.611,1461.6s.455.991.178,1.435-.5-.823-.178-1.435" transform="translate(-1377.911 -1198.638)" fill="#ffcf83"/><path d="M1667.743,1477.876s-.455-.991-.177-1.435.505.823.177,1.435" transform="translate(-1378.759 -1210.729)" fill="#ffcf83"/><path d="M1662.123,1463.286s.842.662.793,1.188-.813-.489-.793-1.188" transform="translate(-1374.334 -1200.017)" fill="#ffcf83"/><path d="M1670.476,1477.073s-.843-.662-.794-1.188.813.489.794,1.188" transform="translate(-1380.582 -1210.228)" fill="#ffcf83"/><path d="M1658.278,1467.247s1.04.192,1.226.685-.938-.052-1.226-.685" transform="translate(-1371.154 -1203.265)" fill="#ffcf83"/><path d="M1672.168,1475.447s-1.041-.192-1.226-.685.938.052,1.226.685" transform="translate(-1381.608 -1209.271)" fill="#ffcf83"/><path d="M1657.034,1474.523s.833-.675,1.309-.49-.664.69-1.309.49" transform="translate(-1370.126 -1208.804)" fill="#ffcf83"/><path d="M1672.82,1471.63s-.932.516-1.371.249.769-.561,1.371-.249" transform="translate(-1381.967 -1206.749)" fill="#ffcf83"/><path d="M1659.686,1476.639s.518-.957,1.027-.977-.357.9-1.027.977" transform="translate(-1372.318 -1210.165)" fill="#ffcf83"/><path d="M1672.105,1466.38s-.518.957-1.027.977.357-.9,1.027-.977" transform="translate(-1381.612 -1202.554)" fill="#ffcf83"/><path d="M1663.624,1477.959s.067-1.1.518-1.343.055.974-.518,1.343" transform="translate(-1375.575 -1210.922)" fill="#ffcf83"/><path d="M1670.117,1463.146s-.068,1.1-.518,1.343-.055-.974.518-1.343" transform="translate(-1380.354 -1199.902)" fill="#ffcf83"/><path d="M1656.725,1472.078s.986-.392,1.39-.07-.83.457-1.39.07" transform="translate(-1369.87 -1207.065)" fill="#ffcf83"/><path d="M1665.425,1469.86a.736.736,0,1,0-.736.764.75.75,0,0,0,.736-.764" transform="translate(-1375.847 -1204.781)" fill="#12263f"/><path d="M1658.18,1502.3a2.518,2.518,0,0,1,1.522-.722,6.5,6.5,0,0,1,1.154,0,2.572,2.572,0,0,1-1.19.722,5.242,5.242,0,0,1-1.485,0" transform="translate(-1371.073 -1231.399)" fill="#6e9e63"/><path d="M1649.162,1495.753c-.111-.1-.2-.925-.88-1.132a6.206,6.206,0,0,0-1.169-.246s.593,1.071,1.024,1.231a3.265,3.265,0,0,0,1.024.146" transform="translate(-1361.923 -1225.512)" fill="#6e9e63"/><path d="M1698.815,1459.362l.214-.057c-.086-.4-.3-8.367,2.107-13.015l-.194-.109c-2.439,4.71-2.209,12.853-2.127,13.181" transform="translate(-1404.635 -1185.989)" fill="#6e9e63"/><path d="M1713.539,1423.052s.757,1.651.3,2.391-.842-1.371-.3-2.391" transform="translate(-1416.625 -1167.021)" fill="#ffcf83"/><path d="M1715.425,1450.171s-.757-1.651-.3-2.391.842,1.371.3,2.391" transform="translate(-1418.038 -1187.174)" fill="#ffcf83"/><path d="M1706.058,1425.855s1.4,1.1,1.322,1.981-1.354-.814-1.322-1.981" transform="translate(-1410.661 -1169.32)" fill="#ffcf83"/><path d="M1719.98,1448.832s-1.4-1.1-1.323-1.981,1.355.815,1.323,1.981" transform="translate(-1421.076 -1186.339)" fill="#ffcf83"/><path d="M1699.65,1432.455s1.733.321,2.044,1.141-1.563-.087-2.044-1.141" transform="translate(-1405.363 -1174.733)" fill="#ffcf83"/><path d="M1722.8,1446.121s-1.734-.321-2.044-1.141,1.563.087,2.044,1.141" transform="translate(-1422.786 -1184.743)" fill="#ffcf83"/><path d="M1697.577,1444.582s1.388-1.125,2.183-.816-1.107,1.15-2.183.816" transform="translate(-1403.649 -1183.965)" fill="#ffcf83"/><path d="M1723.885,1439.761s-1.554.86-2.285.415,1.281-.935,2.285-.415" transform="translate(-1423.383 -1180.54)" fill="#ffcf83"/><path d="M1702,1448.108s.863-1.595,1.711-1.628-.595,1.5-1.711,1.628" transform="translate(-1407.304 -1186.234)" fill="#ffcf83"/><path d="M1722.7,1431.011s-.863,1.594-1.711,1.628.595-1.5,1.711-1.628" transform="translate(-1422.792 -1173.548)" fill="#ffcf83"/><path d="M1708.56,1450.307s.113-1.826.863-2.238.092,1.624-.863,2.238" transform="translate(-1412.73 -1187.493)" fill="#ffcf83"/><path d="M1719.383,1425.62s-.113,1.825-.863,2.238-.092-1.624.863-2.238" transform="translate(-1420.697 -1169.127)" fill="#ffcf83"/><path d="M1697.062,1440.506s1.644-.652,2.317-.116-1.383.762-2.317.116" transform="translate(-1403.223 -1181.066)" fill="#ffcf83"/><path d="M1711.561,1436.81a1.226,1.226,0,1,0-1.226,1.273,1.251,1.251,0,0,0,1.226-1.273" transform="translate(-1413.185 -1177.259)" fill="#12263f"/><path d="M1701.47,1473a4.2,4.2,0,0,1,2.537-1.2,10.864,10.864,0,0,1,1.922,0,4.281,4.281,0,0,1-1.983,1.2,8.73,8.73,0,0,1-2.476,0" transform="translate(-1406.868 -1206.968)" fill="#6e9e63"/><path d="M1686.441,1462.1c-.186-.169-.326-1.542-1.466-1.886a10.389,10.389,0,0,0-1.948-.41s.988,1.785,1.707,2.052a5.472,5.472,0,0,0,1.707.244" transform="translate(-1391.618 -1197.157)" fill="#6e9e63"/><path d="M1676.034,1454.44l.214-.062c-.086-.429-.3-9.052,2.107-14.081l-.194-.118c-2.438,5.1-2.209,13.906-2.127,14.26" transform="translate(-1385.798 -1181.068)" fill="#6e9e63"/><path d="M1690.758,1415.156s.758,1.786.3,2.587-.842-1.484-.3-2.587" transform="translate(-1397.788 -1160.546)" fill="#ffcf83"/><path d="M1692.644,1444.5s-.758-1.786-.3-2.587.842,1.484.3,2.587" transform="translate(-1399.202 -1182.349)" fill="#ffcf83"/><path d="M1683.278,1418.189s1.4,1.194,1.323,2.143-1.356-.882-1.323-2.143" transform="translate(-1391.825 -1163.033)" fill="#ffcf83"/><path d="M1697.2,1443.048s-1.4-1.194-1.323-2.143,1.355.881,1.323,2.143" transform="translate(-1402.241 -1181.446)" fill="#ffcf83"/><path d="M1676.87,1425.33s1.733.347,2.043,1.235-1.563-.094-2.043-1.235" transform="translate(-1386.527 -1168.889)" fill="#ffcf83"/><path d="M1700.02,1440.116s-1.734-.347-2.044-1.235,1.563.094,2.044,1.235" transform="translate(-1403.95 -1179.72)" fill="#ffcf83"/><path d="M1674.8,1438.451s1.388-1.217,2.183-.883-1.107,1.244-2.183.883" transform="translate(-1384.812 -1178.877)" fill="#ffcf83"/><path d="M1701.106,1433.235s-1.554.931-2.286.448,1.281-1.012,2.286-.448" transform="translate(-1404.547 -1175.173)" fill="#ffcf83"/><path d="M1679.217,1442.266s.863-1.725,1.711-1.761-.595,1.628-1.711,1.761" transform="translate(-1388.468 -1181.333)" fill="#ffcf83"/><path d="M1699.915,1423.767s-.863,1.725-1.711,1.762.594-1.628,1.711-1.762" transform="translate(-1403.957 -1167.608)" fill="#ffcf83"/><path d="M1685.78,1444.645s.113-1.975.863-2.421.092,1.757-.863,2.421" transform="translate(-1393.894 -1182.695)" fill="#ffcf83"/><path d="M1696.6,1417.936s-.113,1.975-.863,2.421-.092-1.757.863-2.421" transform="translate(-1401.861 -1162.825)" fill="#ffcf83"/><path d="M1674.282,1434.04s1.645-.706,2.317-.125-1.383.825-2.317.125" transform="translate(-1384.387 -1175.741)" fill="#ffcf83"/><path d="M1688.78,1430.041a1.234,1.234,0,1,0-1.225,1.378,1.308,1.308,0,0,0,1.225-1.378" transform="translate(-1394.349 -1171.624)" fill="#12263f"/><path d="M1676.708,1488.527a4.106,4.106,0,0,1,2.536-1.3,10,10,0,0,1,1.922,0,4.267,4.267,0,0,1-1.983,1.3,8.072,8.072,0,0,1-2.476,0" transform="translate(-1386.393 -1219.618)" fill="#6e9e63"/><path d="M1661.678,1476.73c-.186-.182-.326-1.668-1.466-2.041a9.728,9.728,0,0,0-1.948-.443s.987,1.931,1.707,2.22a5.078,5.078,0,0,0,1.707.263" transform="translate(-1371.142 -1209.005)" fill="#6e9e63"/><path d="M1705.744,1477.017l.151-.041c-.061-.279-.211-5.908,1.488-9.19l-.137-.077c-1.723,3.326-1.56,9.076-1.5,9.307" transform="translate(-1410.375 -1203.645)" fill="#6e9e63"/><path d="M1716.141,1451.378s.535,1.166.209,1.688-.595-.969-.209-1.688" transform="translate(-1418.842 -1190.251)" fill="#ffcf83"/><path d="M1717.473,1470.527s-.535-1.166-.209-1.688.594.969.209,1.688" transform="translate(-1419.84 -1204.481)" fill="#ffcf83"/><path d="M1710.86,1453.357s.992.779.934,1.4-.957-.575-.934-1.4" transform="translate(-1414.631 -1191.874)" fill="#ffcf83"/><path d="M1720.69,1469.581s-.991-.779-.934-1.4.957.575.934,1.4" transform="translate(-1421.986 -1203.891)" fill="#ffcf83"/><path d="M1706.334,1458.018s1.224.227,1.443.806-1.1-.061-1.443-.806" transform="translate(-1410.889 -1195.696)" fill="#ffcf83"/><path d="M1722.681,1467.667s-1.224-.226-1.443-.806,1.1.061,1.443.806" transform="translate(-1423.193 -1202.765)" fill="#ffcf83"/><path d="M1704.87,1466.581s.98-.794,1.541-.576-.782.812-1.541.576" transform="translate(-1409.679 -1202.215)" fill="#ffcf83"/><path d="M1723.448,1463.177s-1.1.607-1.614.293.9-.661,1.614-.293" transform="translate(-1423.615 -1199.797)" fill="#ffcf83"/><path d="M1707.992,1469.071s.609-1.126,1.208-1.15-.42,1.063-1.208,1.15" transform="translate(-1412.26 -1203.817)" fill="#ffcf83"/><path d="M1722.607,1457s-.61,1.126-1.208,1.15.42-1.062,1.208-1.15" transform="translate(-1423.197 -1194.859)" fill="#ffcf83"/><path d="M1712.625,1470.624s.08-1.289.609-1.58.065,1.146-.609,1.58" transform="translate(-1416.091 -1204.707)" fill="#ffcf83"/><path d="M1720.268,1453.192s-.08,1.289-.609,1.579-.065-1.147.609-1.579" transform="translate(-1421.718 -1191.739)" fill="#ffcf83"/><path d="M1704.507,1463.7s1.161-.461,1.636-.082-.977.538-1.636.082" transform="translate(-1409.379 -1200.168)" fill="#ffcf83"/><path d="M1714.745,1461.093a.866.866,0,1,0-.865.9.883.883,0,0,0,.865-.9" transform="translate(-1416.413 -1197.481)" fill="#12263f"/><path d="M1706.219,1499.264a2.966,2.966,0,0,1,1.791-.85,7.7,7.7,0,0,1,1.357,0,3.031,3.031,0,0,1-1.4.85,6.173,6.173,0,0,1-1.748,0" transform="translate(-1410.794 -1228.804)" fill="#6e9e63"/><path d="M1695.607,1491.564c-.131-.119-.23-1.089-1.035-1.332a7.356,7.356,0,0,0-1.376-.289s.7,1.26,1.205,1.45a3.855,3.855,0,0,0,1.205.171" transform="translate(-1400.027 -1221.877)" fill="#6e9e63"/><path d="M87.625,1047.25v85.893H69.39c-.009-.025-.018-.055-.029-.086l-.02-.055c-.06-.165-.141-.387-.243-.67l-.04-.083v-.042a.156.156,0,0,1-.04-.085,12.052,12.052,0,0,1-.449-1.185c-.083-.213-.163-.469-.286-.721v-.085l-.04-.042c-.56-1.512-1.254-3.481-2.056-5.86q-.107-.323-.221-.654c-.6-1.8-1.261-3.81-1.964-6.027q-.485-1.562-1-3.258c-1.415-4.7-2.955-10.124-4.466-16.1-.734-2.924-1.469-5.973-2.163-9.153-.408-1.834-.819-3.745-1.212-5.675q-.171-.848-.337-1.7c-.721-3.613-1.4-7.335-2.011-11.138-.806-5-1.5-10.129-2.024-15.342q-.392-3.837-.658-7.727c0-.067-.011-.137-.014-.2Z" transform="translate(-41.442 -858.832)" fill="#fff3e9"/><path d="M180.173,848.918l19.317,41.321h58.688l-30.6-41.171Z" transform="translate(-148.977 -696.183)" fill="#ed9f4a"/><path d="M244.8,890.24l-1.745-2.347-28.852-38.823-47.408-.151,17.3,37.012v84.56h58.958V890.24Z" transform="translate(-137.917 -696.183)" fill="#f9ddbf"/><path d="M402.527,963.754h1.233a7.734,7.734,0,0,1,7.581,7.878v20.017h-16.15V971.376a7.483,7.483,0,0,1,7.335-7.622" transform="translate(-326.766 -790.358)" fill="#efcdaf"/><path d="M118.038,848.914l-.132.183-1.143,1.582L89.168,888.9l-2.616,3.625H48.628q-.392-3.837-.658-7.727c0-.067-.011-.137-.013-.2s-.011-.139-.016-.209c-.241-3.65-.393-7.326-.437-11l18.181-24.467h7.707l26.921,0Z" transform="translate(-39.278 -696.18)" fill="#ed9f4a"/><path d="M477.548,1142.737l13.753,29.419h41.782L511.3,1142.844Z" transform="translate(-394.862 -937.139)" fill="#ed9f4a"/><path d="M525.852,1172.155l-21.783-29.312-33.752-.108,13.753,29.419h.091v39.209l41.691.085v-39.294Z" transform="translate(-388.884 -937.138)" fill="#f9ddbf"/><rect width="35.304" height="39.209" transform="translate(59.974 235.016)" fill="#fff3e9"/><path d="M323.972,1174.381H361.9l22.418-31.052-11.3,0-25.977.006Z" transform="translate(-267.878 -937.625)" fill="#ed9f4a"/><path d="M621.758,1301.646v32.763h17.564v-32.461a9.411,9.411,0,0,0-2.89-6.833,8.7,8.7,0,0,0-6.037-2.443,8.432,8.432,0,0,0-5.922,2.443,9.107,9.107,0,0,0-2.715,6.531" transform="translate(-514.103 -1060.098)" fill="#efcdaf"/><path d="M665.039,1224.774a1.972,1.972,0,1,0-1.971,2.048,2.011,2.011,0,0,0,1.971-2.048" transform="translate(-546.631 -1002.737)" fill="#efcdaf"/><path d="M323.972,1174.391h7.2l41.848-31.05-25.977.006Z" transform="translate(-267.878 -937.635)" fill="#e58638"/><path d="M120.252,903.754H85.591l18.285-23.3h34.661Z" transform="translate(-70.771 -722.044)" fill="#12263f"/><path d="M198.589,913.317H163.928l.215-.274H198.8Z" transform="translate(-135.544 -748.771)" fill="#aec3ff"/><path d="M149.671,880.45l-18.285,23.3h-.264l18.285-23.3Z" transform="translate(-108.419 -722.042)" fill="#aec3ff"/><path d="M202.71,880.45l-18.285,23.3h-.264l18.285-23.3Z" transform="translate(-152.275 -722.042)" fill="#aec3ff"/><path d="M253.748,880.45l-18.285,23.3H235.2l18.285-23.3Z" transform="translate(-194.475 -722.042)" fill="#aec3ff"/><path d="M172.432,944.721H137.771l.215-.274h34.661Z" transform="translate(-113.917 -774.525)" fill="#aec3ff"/><path d="M144.81,978.6H110.148l.215-.274h34.661Z" transform="translate(-91.077 -802.307)" fill="#aec3ff"/><path d="M203.976,909.916l-.2-1.122,1.961-1.122.2,1.122Z" transform="translate(-168.494 -744.366)" fill="#aec3ff"/><path d="M256.444,909.916l-.2-1.122,1.961-1.122.2,1.122Z" transform="translate(-211.877 -744.366)" fill="#aec3ff"/><path d="M308.243,909.916l-.2-1.122L310,907.672l.2,1.122Z" transform="translate(-254.707 -744.366)" fill="#aec3ff"/><path d="M178.455,941.215l-.2-1.122,1.961-1.122.2,1.122Z" transform="translate(-147.391 -770.034)" fill="#aec3ff"/><path d="M230.924,941.215l-.2-1.122,1.96-1.122.2,1.122Z" transform="translate(-190.776 -770.034)" fill="#aec3ff"/><path d="M282.723,941.215l-.2-1.122,1.96-1.122.2,1.122Z" transform="translate(-233.606 -770.034)" fill="#aec3ff"/><path d="M150.833,975.091l-.2-1.122,1.961-1.122.2,1.122Z" transform="translate(-124.552 -797.815)" fill="#aec3ff"/><path d="M203.3,975.091l-.2-1.122,1.961-1.122.2,1.122Z" transform="translate(-167.936 -797.815)" fill="#aec3ff"/><path d="M255.1,975.091l-.2-1.122,1.961-1.122.2,1.122Z" transform="translate(-210.765 -797.815)" fill="#aec3ff"/><path d="M2241.562,409.927q-.019,1.339-.083,2.7a93.636,93.636,0,0,1-1.363,12.035l-54.227-.74s4.907-12.037,16.645-10.7c0,0,17.041-20.066,35.211-2.676,0,0,1.437-.32,3.816-.624" transform="translate(-1807.412 -330.87)" fill="#f8fcff"/><path d="M1488.845,177.807s2.542-6.357,8.619-5.65c0,0,8.824-10.6,18.234-1.413,0,0,10-2.275,17.41,1.97,4.939,2.83,6.57,5.8,6.57,5.8Z" transform="translate(-1231.058 -136.953)" fill="#f8fcff"/><path d="M308.086,687.539s2.716-6.792,9.209-6.037c0,0,9.428-11.32,19.481-1.509,0,0,10.687-2.431,18.6,2.1,5.277,3.024,7.02,6.2,7.02,6.2Z" transform="translate(-254.742 -554.369)" fill="#f8fcff"/><path d="M226.358,584.406s2.078-5.2,7.048-4.62c0,0,7.215-8.663,14.908-1.155,0,0,8.178-1.86,14.235,1.611,4.038,2.314,5.372,4.742,5.372,4.742Z" transform="translate(-187.165 -472.015)" fill="#f8fcff"/><path d="M2375.026,1353.763a70.332,70.332,0,0,1-1.328,8.413c-.014.061-.027.121-.043.183-14.334,5.4-29.11,12.555-42.266,22.009h-35.57c5.155-3.446,30.281-17.9,79.206-30.605" transform="translate(-1898.308 -1110.198)" fill="#6e9e63"/><path d="M2287.26,1305s27.3-2.487,34.716,0,11.13,14.052,10.07,22.5-3.533,15.6-8.3,15.42-38.514,0-38.514,0Z" transform="translate(-1889.552 -1069.306)" fill="#edbd77"/><path d="M2329.155,1300.419s5.778-1.118,9.708-1.531a19.764,19.764,0,0,0-3.474.995s8.391-1.316,11.454-.995,7.258.86,7.258.86l4.667-.325s-3.887.489-3.68.551,3.8.52,4.947,1.285c0,0,3.562,1.163,4.328,1.867,0,0-2.856-1.5-3.975-1.408,0,0,6.472,4.665,6.49,9.109s-27.838-6.693-27.838-6.693Z" transform="translate(-1925.871 -1065.155)" fill="#edbd77"/><path d="M2219.987,1308.7s-10.865-.858-17.754,8.228-1.325,30.128,7.685,30.208,20.107-1.358,22.508-13.58-2.634-24.548-12.438-24.856" transform="translate(-1818.375 -1073.228)" fill="#ffcf83"/><path d="M2191.017,1382.516s3.886-4.651,4.3-5.936l.589,1.285Z" transform="translate(-1811.652 -1128.91)" fill="#ffcf83"/><path d="M2207.218,1350.528s.493-3.334,1.906-4.558a7.335,7.335,0,0,0-.953,4.1c.332,1.865-.953.458-.953.458" transform="translate(-1825.047 -1103.807)" fill="#ffcf83"/><path d="M2210.938,1469.16c.071.179-2.091-6.1-1.384-7.3l.411,0s.281,5.549.973,7.293" transform="translate(-1826.862 -1198.849)" fill="#ffcf83"/><path d="M2196.1,1455.9a3.716,3.716,0,0,0-2.532,0,2.652,2.652,0,0,1,2.414.49c.914.926.118-.49.118-.49" transform="translate(-1813.761 -1193.76)" fill="#ffcf83"/><path d="M2227.128,1366.742a15.069,15.069,0,0,1-8.072-2.073,12.53,12.53,0,0,1-5.387-8.456c-1.362-6.549-.693-11.921,1.988-15.969,2.506-3.785,6.739-6.249,12.24-7.126a9.454,9.454,0,0,1,9.3,3.605c3.422,4.265,4.406,11.469,2.391,17.52-1.423,4.275-5.225,6.916-10.169,7.064-.141,0-.282.006-.422.006-4.98,0-9.47-2.646-11.011-6.533-1.572-3.963-1.49-7.84.229-10.917,1.747-3.124,5.044-5.156,9.284-5.722a6.656,6.656,0,0,1,6.971,2.992c2.047,3.18,2.042,8.344.67,10.838-1.322,2.4-4.98,4.256-8.157,4.141a5.346,5.346,0,0,1-4.928-3.1,7.165,7.165,0,0,1,.2-6.984,4.958,4.958,0,0,1,4.2-2.473,2.9,2.9,0,0,1,2.616,2.9c.095,1.124-.274,2.376-1.163,2.591-1.653.4-2.24-.537-2.264-.577,0,0-.893-1.531.218-1.751,1.272-.252.938.774.938.774.018.028-.314,1.415,1.005,1.095.543-.131.9-1.05.814-2.09a2.426,2.426,0,0,0-2.188-2.472,4.494,4.494,0,0,0-3.8,2.264,6.69,6.69,0,0,0-.173,6.517,4.894,4.894,0,0,0,4.535,2.837c3.024.107,6.5-1.639,7.746-3.9,1.155-2.1,1.466-7.05-.653-10.341a6.265,6.265,0,0,0-6.536-2.786c-4.1.547-7.275,2.5-8.948,5.49-1.647,2.947-1.719,6.676-.2,10.5s6.041,6.384,11,6.235c4.748-.142,8.394-2.664,9.753-6.747,1.965-5.9,1.015-12.918-2.311-17.063a9.047,9.047,0,0,0-8.878-3.441c-5.374.858-9.5,3.253-11.935,6.928-2.607,3.936-3.252,9.185-1.918,15.6a12.078,12.078,0,0,0,5.181,8.154c5.384,3.424,13.877,1.351,13.951,1.331l-.961.54a21.775,21.775,0,0,1-5.156.605" transform="translate(-1829.814 -1093.149)" fill="#edbd77"/><path d="M2527.793,1230.06s36.7-3.344,46.682,0,14.966,18.895,13.54,30.25-4.75,20.982-11.165,20.735-51.788,0-51.788,0Z" transform="translate(-2087.859 -1007.533)" fill="#edbd77"/><path d="M2584.128,1223.894s7.768-1.5,13.054-2.059c0,0-4.157.884-4.672,1.337,0,0,11.283-1.769,15.4-1.337s9.76,1.156,9.76,1.156l6.275-.436s-5.227.658-4.949.741,5.107.7,6.652,1.728c0,0,4.791,1.563,5.82,2.51,0,0-3.841-2.016-5.345-1.892,0,0,8.7,6.273,8.726,12.249s-37.431-9-37.431-9Z" transform="translate(-2136.697 -1001.951)" fill="#edbd77"/><path d="M2437.335,1235.032s-14.609-1.154-23.874,11.064-1.781,40.512,10.334,40.62,27.037-1.826,30.266-18.261-3.542-33.009-16.726-33.423" transform="translate(-1992.151 -1012.805)" fill="#ffcf83"/><path d="M2398.381,1334.285s5.227-6.253,5.781-7.981l.792,1.728Z" transform="translate(-1983.111 -1087.679)" fill="#ffcf83"/><path d="M2420.167,1291.271s.662-4.483,2.562-6.129c0,0-1.727,3.006-1.281,5.513s-1.281.616-1.281.616" transform="translate(-2001.125 -1053.923)" fill="#ffcf83"/><path d="M2425.168,1450.793c.1.241-2.811-8.207-1.861-9.812l.552.005s.377,7.462,1.308,9.807" transform="translate(-2003.564 -1181.725)" fill="#ffcf83"/><path d="M2405.216,1432.964s-2.177-.741-3.405,0a3.568,3.568,0,0,1,3.247.658c1.229,1.245.159-.658.159-.658" transform="translate(-1985.947 -1174.88)" fill="#ffcf83"/><path d="M2446.938,1313.076a20.265,20.265,0,0,1-10.854-2.787c-3.731-2.373-6.169-6.2-7.244-11.371-1.831-8.805-.932-16.03,2.673-21.473,3.37-5.088,9.062-8.4,16.458-9.582a12.71,12.71,0,0,1,12.5,4.848c4.6,5.735,5.924,15.422,3.216,23.558-1.914,5.748-7.026,9.3-13.674,9.5-.189.006-.379.009-.568.009-6.7,0-12.733-3.557-14.806-8.785-2.113-5.329-2-10.542.309-14.679,2.347-4.2,6.781-6.932,12.483-7.693,5.162-.691,7.947,1.808,9.373,4.023,2.752,4.276,2.746,11.22.9,14.573-1.777,3.23-6.7,5.724-10.969,5.569a7.189,7.189,0,0,1-6.626-4.174,9.637,9.637,0,0,1,.275-9.392,6.667,6.667,0,0,1,5.651-3.325c2.365.133,3.372,2.185,3.517,3.9.128,1.512-.368,3.195-1.563,3.485-2.223.538-3.011-.722-3.044-.776,0,0-1.2-2.059.293-2.355,1.711-.339,1.261,1.04,1.261,1.04.025.038-.422,1.9,1.352,1.472.73-.177,1.212-1.412,1.094-2.81-.13-1.534-.97-3.212-2.942-3.323a6.044,6.044,0,0,0-5.11,3.043,9,9,0,0,0-.233,8.764,6.58,6.58,0,0,0,6.1,3.815c4.066.144,8.74-2.2,10.417-5.25,1.554-2.824,1.971-9.479-.878-13.905-1.908-2.963-4.946-4.26-8.788-3.747-5.51.735-9.783,3.357-12.033,7.383-2.215,3.962-2.311,8.976-.272,14.118s8.124,8.585,14.792,8.384c6.385-.192,11.286-3.583,13.114-9.072,2.643-7.936,1.365-17.371-3.107-22.944a12.165,12.165,0,0,0-11.937-4.627c-7.225,1.153-12.775,4.374-16.047,9.315-3.506,5.293-4.373,12.351-2.579,20.979,1.039,5,3.382,8.685,6.965,10.964,7.24,4.6,18.66,1.817,18.759,1.789l-1.292.726a29.3,29.3,0,0,1-6.932.814" transform="translate(-2007.534 -1039.593)" fill="#edbd77"/><path d="M945.748,1309.853s-6.3,25.256-5.734,27.252,3.729,8.779,3.729,8.779H940.7a2.391,2.391,0,0,1-1.18-2.192c.05-1.566-4.218-7.671-4.218-7.671s1.675-9.7,0-13.515c-7.211-16.447,4.867-16.291,10.448-12.653" transform="translate(-771.51 -1072.554)" fill="#cca283"/><path d="M1157.185,1367.514s-1.808,13.567-1.908,14.4-.954,1.878-.9,3.235.5,5.949,1.908,7.1a4.2,4.2,0,0,1,1.556,2.556h-3.816a5.46,5.46,0,0,1-.553-2.3c.1-.939-1.054-1.931-1.1-3.861s0-5.531-.5-6.784-.351-9.862-2.008-11.793,7.332-2.557,7.332-2.557" transform="translate(-950.593 -1121.476)" fill="#cca283"/><path d="M940.426,1270.345c-.041.626-.062,1.208-.062,1.791.1,14.688,14.094,10.288,14.592,9.9a2.9,2.9,0,0,1,1.515-.345c6.995,2.89,16.792.237,18.826-.625s7.452,1.272,9.963,1.078c1.017-.087,1.868-1.187,2.512-2.567a20.026,20.026,0,0,0,1.515-5.371,34.964,34.964,0,0,1,1.557-4.723c.353-.906.747-1.9,1.162-2.912.083-.173.145-.366.228-.539-.207-.238-.394-.5-.581-.755a32.123,32.123,0,0,1-2.719-5.047,25.527,25.527,0,0,0-3.2-5.457c-2.055-.669-4.5.539-5.521.475a27.211,27.211,0,0,1-3.4-.432c-.436-.086-.83-.151-1.2-.216-2.076-.324-14.654,1.359-23.538,1.618-1.827.065-3.487.043-4.878-.043-.1,0-.208-.022-.311-.022-3.716-.216-5.687.022-6.725.367-1.142.367-1.162.82-1.162.82-3.549,3.6,1.432,13.006,1.432,13.006" transform="translate(-775.356 -1028.843)" fill="#efcdaf"/><path d="M1183.6,1367.514s-1.808,13.567-1.908,14.4-.954,1.878-.9,3.235.5,5.949,1.909,7.1a4.2,4.2,0,0,1,1.556,2.556h-3.817a5.457,5.457,0,0,1-.552-2.3c.1-.939-1.055-1.931-1.1-3.861s0-5.531-.5-6.784-.352-9.862-2.009-11.793,7.332-2.557,7.332-2.557" transform="translate(-972.433 -1121.476)" fill="#efcdaf"/><path d="M969.2,1345.449s-5.084,19.606-4.519,21.6,3.728,8.779,3.728,8.779h-3.044a2.391,2.391,0,0,1-1.18-2.192c.05-1.566-4.218-7.67-4.218-7.67s-.345-11.067-2.856-14.355,6.508-9.8,12.089-6.164" transform="translate(-791.036 -1102.5)" fill="#efcdaf"/><path d="M1325.352,1370.183c.206.287.386.491.386.491a7.649,7.649,0,0,0,.905.047,2.384,2.384,0,0,0,1.217-.344,1.574,1.574,0,0,0,.6-.737s-.173-.463-1.077-.585c-.666-.09-1.321-.571-1.878-.632h0a.783.783,0,0,0-.561.138c-.42.307.038,1.1.414,1.622" transform="translate(-1095.392 -1122.217)" fill="#efcdaf"/><path d="M1329.069,1378.112c.026-.013.343.051.758.048a1.948,1.948,0,0,0,1.961-1.083s-.173-.463-1.077-.585a.884.884,0,0,1-.095-.016c-.582-.107-1.155-.488-1.655-.594a.828.828,0,0,0-.691.115.393.393,0,0,0-.162.285c-.083.647.962,1.829.962,1.829" transform="translate(-1098.147 -1128.316)" fill="#efcdaf"/><path d="M1213.906,1259.8c.249,6.729,1.453,19.606,2.2,20.749a27.928,27.928,0,0,1,4.5.518c3.736.8,4.774,2.264,5.127,2.955.664,1.38,3.778,4.529,4.317,4.637.56.107.892.862,1.474,2.092a2.676,2.676,0,0,0,2.615,1.38c.934.043,1.7-1.121,1.723-1.4a8.982,8.982,0,0,1-.395-2.416c.063-1.208-.685-4.81-.062-5.781.395-.625.166-1.963-.041-2.869-.125-.539-.249-.906-.249-.906a2.454,2.454,0,0,0-.187-.431c-.124-.281-.27-.6-.436-.949-.187-.41-.436-.864-.706-1.36a56.286,56.286,0,0,0-5-7.592,50.537,50.537,0,0,0-8.1-8.368,35.786,35.786,0,0,0-6.622-4.314c-.207.086-.249,1.7-.166,4.054" transform="translate(-1003.69 -1029.819)" fill="#efcdaf"/><path d="M1069.181,1295.935c-.131-.348-.063-6.251-4.165-7.464s-6.346.653-11.464-1.493-10.506-3.919-11.044-1.586.449,8.864,0,11.85,9.268,4.043,13.254,2.208,14.862.311,13.42-3.515" transform="translate(-861.865 -1053.224)" fill="#12263f"/><path d="M929.776,1270.062a10.823,10.823,0,0,0-3.1,6.554c-.449,4.2.808,22.645.808,22.645l1.025-.059,1.1-20.409Z" transform="translate(-766.142 -1041.557)" fill="#12263f"/><path d="M932.56,1431.057s-2.215-2.477-.838-3.036.838,1.12.838,1.773Z" transform="translate(-770.026 -1171.004)" fill="#12263f"/><path d="M951.8,1256.52c2.574,1.316,5.418,2.524,7.1,2.567,3.674.065,12.6-2.135,16.232-2.373s18.349,3.3,21.815,2.157a.551.551,0,0,1,.27-.043c.768-.065,1.93.5,3.362,1.4.809.54,1.7,1.186,2.636,1.919a171.712,171.712,0,0,1,13.886,12.9,56.228,56.228,0,0,0-5-7.592,50.534,50.534,0,0,0-8.095-8.368,35.821,35.821,0,0,0-6.622-4.314c-2.054-.669-4.5.539-5.521.475a27.262,27.262,0,0,1-3.4-.432c-.436-.085-.83-.15-1.2-.215-2.076-.324-14.654,1.359-23.538,1.617-1.827.065-3.487.044-4.878-.043-.1,0-.207-.022-.311-.022-3.716-.216-5.687.022-6.725.367" transform="translate(-787.001 -1028.843)" fill="#ffe7d7"/><path d="M1020.631,1256.254c1.606,1.362,4.688,1.9,9.043,1.061,5.3-1.026,6.555,1.4,10.955,1.586a4.453,4.453,0,0,0,4.737-4.051c-.427-.074-.833-.146-1.208-.2-2.063-.325-14.652,1.344-23.526,1.608" transform="translate(-843.913 -1028.88)" fill="#12263f"/><path d="M1248.421,1285.915a9.963,9.963,0,0,0,.353,1.294,10.835,10.835,0,0,0,.685,1.4c2.346,3.882.124,8.541-.416,12.122,3.736.8,4.774,2.264,5.127,2.955.664,1.38,3.777,4.529,4.317,4.637.56.107.892.863,1.473,2.092a2.677,2.677,0,0,0,2.615,1.38c.934.043,1.7-1.121,1.723-1.4a8.99,8.99,0,0,1-.395-2.416c.063-1.208-.685-4.81-.062-5.78.394-.625.166-1.962-.041-2.869a1.971,1.971,0,0,0,1.972-1.078s-.187-.475-1.079-.6h-.1a1.675,1.675,0,0,0,.6-.755s-.187-.453-1.079-.582c-.664-.087-1.328-.561-1.889-.626a56.282,56.282,0,0,0-5-7.593,50.561,50.561,0,0,0-8.1-8.368,13.309,13.309,0,0,0-.789,3.062,9.94,9.94,0,0,0,.083,3.128" transform="translate(-1032.123 -1049.481)" fill="#12263f"/><path d="M940.424,1277.215c-.039.626-.056,1.221-.052,1.789,4.558,3.513,12.552,1.74,13.153-2.486.691-4.868-5.6-5.555-5.143-9.566a4.783,4.783,0,0,0-1.5-3.924c-7.818-.482-7.891,1.194-7.891,1.194-3.54,3.6,1.431,12.993,1.431,12.993" transform="translate(-775.358 -1035.717)" fill="#12263f"/><g transform="translate(114.221 56.748)" opacity="0.6"><g clip-path="url(#d)"><path d="M831.073,440.972H670.007a10.532,10.532,0,0,1-10.324-10.728V326.137a10.532,10.532,0,0,1,10.324-10.728H831.073A10.531,10.531,0,0,1,841.4,326.137V430.245a10.531,10.531,0,0,1-10.324,10.728" transform="translate(-659.683 -315.409)" fill="#f8fcff"/></g></g><path d="M794.144,418.8c0,15.007-11.7,27.168-26.145,27.168S741.853,433.8,741.853,418.8,753.557,391.63,768,391.63a24.986,24.986,0,0,1,4.807.461c-3.264,12.358-7.595,28.724-7.885,29.745.539-.882,16.439-8.288,27.3-13.28a27.924,27.924,0,0,1,1.926,10.242" transform="translate(-613.404 -321.169)" fill="#12263f"/><path d="M917.066,395.812c-9.589,4.391-25.473,11.748-25.981,12.581.276-.97,4.669-17.566,7.613-28.69a29.043,29.043,0,0,1,18.369,16.109" transform="translate(-736.797 -311.388)" fill="#ffb500"/><path d="M1407.782,350.829a2.174,2.174,0,1,1,2.172,2.258,2.216,2.216,0,0,1-2.172-2.258" transform="translate(-1164.03 -285.857)" fill="#12263f"/><path d="M1472.911,350.829a2.174,2.174,0,1,1,2.172,2.258,2.217,2.217,0,0,1-2.172-2.258" transform="translate(-1217.883 -285.857)" fill="#12263f"/><path d="M1540.131,350.829a2.174,2.174,0,1,1,2.172,2.258,2.216,2.216,0,0,1-2.172-2.258" transform="translate(-1273.464 -285.857)" fill="#ffb500"/><path d="M776.905,885.081h-50.59V868.353h50.59Zm-49.97-.645h49.349V869H726.936Z" transform="translate(-600.557 -712.122)" fill="#12263f"/><rect width="19.569" height="1.325" transform="translate(129.424 160.727)" fill="#12263f"/><rect width="13.886" height="1.325" transform="translate(151.054 160.727)" fill="#12263f"/><rect width="10.8" height="1.325" transform="translate(129.424 164.513)" fill="#12263f"/><rect width="13.886" height="1.325" transform="translate(142.051 164.513)" fill="#12263f"/><rect width="13.886" height="1.325" transform="translate(157.374 164.513)" fill="#12263f"/><path d="M1265.687,876.636h-25.047v-8.282h25.047Zm-24.739-.32h24.432v-7.643h-24.432Z" transform="translate(-1025.829 -712.122)" fill="#12263f"/><rect width="9.688" height="0.656" transform="translate(216.626 158.457)" fill="#12263f"/><rect width="6.874" height="0.656" transform="translate(227.335 158.457)" fill="#12263f"/><rect width="5.347" height="0.656" transform="translate(216.626 160.332)" fill="#12263f"/><rect width="6.874" height="0.656" transform="translate(222.878 160.332)" fill="#12263f"/><rect width="6.874" height="0.656" transform="translate(230.464 160.332)" fill="#12263f"/><path d="M1438.178,876.636h-25.046v-8.282h25.046Zm-24.739-.32h24.432v-7.643h-24.432Z" transform="translate(-1168.454 -712.122)" fill="#12263f"/><rect width="9.688" height="0.656" transform="translate(246.493 158.457)" fill="#12263f"/><rect width="6.874" height="0.656" transform="translate(257.201 158.457)" fill="#12263f"/><rect width="5.347" height="0.656" transform="translate(246.493 160.332)" fill="#12263f"/><rect width="6.874" height="0.656" transform="translate(252.744 160.332)" fill="#12263f"/><rect width="6.874" height="0.656" transform="translate(260.33 160.332)" fill="#12263f"/><path d="M1265.687,671.9h-25.047v-8.281h25.047Zm-24.739-.319h24.432v-7.643h-24.432Z" transform="translate(-1025.829 -544.226)" fill="#12263f"/><rect width="9.688" height="0.656" transform="translate(216.626 121.623)" fill="#12263f"/><rect width="6.874" height="0.656" transform="translate(227.335 121.623)" fill="#12263f"/><rect width="5.347" height="0.656" transform="translate(216.626 123.497)" fill="#12263f"/><rect width="6.874" height="0.656" transform="translate(222.878 123.497)" fill="#12263f"/><rect width="6.874" height="0.656" transform="translate(230.464 123.497)" fill="#12263f"/><path d="M1438.178,671.9h-25.046v-8.281h25.046Zm-24.739-.319h24.432v-7.643h-24.432Z" transform="translate(-1168.454 -544.226)" fill="#12263f"/><rect width="9.688" height="0.656" transform="translate(246.493 121.623)" fill="#12263f"/><rect width="6.874" height="0.656" transform="translate(257.201 121.623)" fill="#aec3ff"/><rect width="5.347" height="0.656" transform="translate(246.493 123.497)" fill="#12263f"/><rect width="6.874" height="0.656" transform="translate(252.744 123.497)" fill="#aec3ff"/><rect width="6.874" height="0.656" transform="translate(260.33 123.497)" fill="#aec3ff"/><path d="M1265.687,493.69h-25.047v-8.282h25.047Zm-24.739-.319h24.432v-7.643h-24.432Z" transform="translate(-1025.829 -398.075)" fill="#12263f"/><rect width="9.688" height="0.656" transform="translate(216.626 89.559)" fill="#12263f"/><rect width="6.874" height="0.656" transform="translate(227.335 89.559)" fill="#12263f"/><rect width="5.347" height="0.656" transform="translate(216.626 91.434)" fill="#12263f"/><rect width="6.874" height="0.656" transform="translate(222.878 91.434)" fill="#12263f"/><rect width="6.874" height="0.656" transform="translate(230.464 91.434)" fill="#12263f"/><path d="M1438.178,493.69h-25.046v-8.282h25.046Zm-24.739-.319h24.432v-7.643h-24.432Z" transform="translate(-1168.454 -398.075)" fill="#12263f"/><rect width="9.688" height="0.656" transform="translate(246.493 89.559)" fill="#12263f"/><rect width="6.874" height="0.656" transform="translate(257.201 89.559)" fill="#12263f"/><rect width="5.347" height="0.656" transform="translate(246.493 91.434)" fill="#12263f"/><rect width="6.874" height="0.656" transform="translate(252.744 91.434)" fill="#12263f"/><rect width="6.874" height="0.656" transform="translate(260.33 91.434)" fill="#12263f"/><path d="M1145.346,443.232a2.836,2.836,0,1,1,2.833,2.945,2.891,2.891,0,0,1-2.833-2.945" transform="translate(-947.034 -361.072)" fill="#ffb500"/><path d="M1159.384,403.373h-.276a.465.465,0,0,1-.454-.472v-5.495a.465.465,0,0,1,.454-.472h.276a.465.465,0,0,1,.454.472V402.9a.465.465,0,0,1-.454.472" transform="translate(-958.038 -325.518)" fill="#ffb500"/><path d="M1159.384,488.083h-.276a.465.465,0,0,1-.454-.472v-5.495a.465.465,0,0,1,.454-.472h.276a.465.465,0,0,1,.454.472v5.495a.465.465,0,0,1-.454.472" transform="translate(-958.038 -394.988)" fill="#ffb500"/><path d="M1180.95,470.308l.162-.231a.445.445,0,0,1,.635-.1l4.272,3.239a.486.486,0,0,1,.1.66l-.163.231a.445.445,0,0,1-.635.1l-4.272-3.238a.485.485,0,0,1-.1-.66" transform="translate(-976.401 -385.343)" fill="#ffb500"/><path d="M1112.519,420.378l.162-.232a.444.444,0,0,1,.635-.1l4.272,3.239a.485.485,0,0,1,.1.659l-.162.232a.445.445,0,0,1-.635.1l-4.272-3.239a.485.485,0,0,1-.1-.66" transform="translate(-919.819 -344.396)" fill="#ffb500"/><path d="M1120.329,472.175l.184.214a.487.487,0,0,1-.036.667l-3.943,3.661a.444.444,0,0,1-.641-.037l-.184-.214a.487.487,0,0,1,.036-.667l3.942-3.662a.444.444,0,0,1,.642.037" transform="translate(-922.434 -387.094)" fill="#ffb500"/><path d="M1183.489,415.724l.184.214a.487.487,0,0,1-.036.667l-3.942,3.662a.444.444,0,0,1-.642-.037l-.184-.214a.486.486,0,0,1,.036-.667l3.943-3.662a.444.444,0,0,1,.641.037" transform="translate(-974.658 -340.799)" fill="#ffb500"/><path d="M1107.292,453.122l0,.286a.465.465,0,0,1-.459.467l-5.287-.062a.465.465,0,0,1-.449-.477l0-.287a.465.465,0,0,1,.46-.467l5.288.062a.465.465,0,0,1,.449.477" transform="translate(-910.443 -371.155)" fill="#ffb500"/><path d="M1192,454.077l0,.286a.464.464,0,0,1-.459.467l-5.288-.062a.465.465,0,0,1-.449-.477l0-.286a.464.464,0,0,1,.459-.467l5.288.062a.465.465,0,0,1,.449.477" transform="translate(-980.482 -371.938)" fill="#ffb500"/><path d="M1297.11,445.46h-56.469V440.7h56.469Zm-55.933-.557h55.4v-3.645h-55.4Z" transform="translate(-1025.829 -361.412)" fill="#12263f"/><rect width="43.832" height="4.202" transform="translate(215.08 79.569)" fill="#12263f"/><path d="M1139.449,589.424c0-3.845,5.675-11.094,5.675-11.094s5.675,7.249,5.675,11.094-2.54,6.962-5.675,6.962-5.675-3.117-5.675-6.962" transform="translate(-942.158 -474.278)" fill="#12263f"/><path d="M1297.11,620.043h-56.469v-4.758h56.469Zm-55.933-.557h55.4v-3.645h-55.4Z" transform="translate(-1025.829 -504.585)" fill="#ffb500"/><rect width="26.786" height="4.202" transform="translate(215.08 110.979)" fill="#ffb500"/><path d="M1162.462,780.575V765.182h-3.2v15.393a3.525,3.525,0,0,0-1.774,3.087,3.376,3.376,0,1,0,6.746,0,3.525,3.525,0,0,0-1.775-3.087" transform="translate(-957.075 -627.513)" fill="#12263f"/><path d="M1297.11,817.815h-56.469v-4.758h56.469Zm-55.933-.557h55.4v-3.645h-55.4Z" transform="translate(-1025.829 -666.774)" fill="#12263f"/><path d="M0,0H36.752V4.2H0Z" transform="translate(215.08 146.561)" fill="#12263f"/><path d="M1164.334,857.448a2.19,2.19,0,1,1,2.188,2.274,2.233,2.233,0,0,1-2.188-2.274" transform="translate(-962.734 -701.314)" fill="#ffb500"/><rect width="1.304" height="7.122" transform="translate(203.087 147.991)" fill="#ffb500"/><rect width="5.276" height="7.623" transform="translate(126.069 143.503)" fill="#12263f"/><rect width="5.276" height="12.675" transform="translate(135.107 138.45)" fill="#12263f"/><rect width="5.276" height="16.815" transform="translate(144.145 134.31)" fill="#ffb500"/><rect width="5.276" height="13.456" transform="translate(153.183 137.67)" fill="#12263f"/><rect width="5.276" height="20.617" transform="translate(162.221 130.509)" fill="#12263f"/><rect width="5.276" height="24.295" transform="translate(171.26 126.83)" fill="#ffb500"/><rect width="11.133" height="1.061" transform="translate(142.051 109.639)" fill="#fff"/><rect width="17.06" height="1.061" transform="translate(142.051 112.07)" fill="#fff"/><rect width="11.133" height="1.061" transform="translate(161.811 77.544)" fill="#fff"/><rect width="6.969" height="1.061" transform="translate(161.811 79.975)" fill="#fff"/><path d="M2128,560.762s21.113,24.934,28.48,40.324c0,0-8.858,20.038-37.57,36.317a9.8,9.8,0,0,1-3.224-1.736c-3.038-2.255.328-3.906.993-4.354,7.285-4.9,20.013-26.023,20.381-27.856s-15.954-18.268-20.913-24.345,4.142-21.481,11.852-18.351" transform="translate(-1748.33 -459.53)" fill="#ffb27d"/><path d="M1551.841,558.731s-27.634,27.337-34.024,26.612-31.384-7-31.384-7l-2.084,4.976s25.081,15.3,37.126,15.081,27.81-12.143,27.81-12.143Z" transform="translate(-1227.34 -458.206)" fill="#ffb27d"/><path d="M1916.291,358.847s.138,3.074-1.636,3.675,1.828,7.235,1.546,11.715-2.191,6.279-2.191,6.279.916-2.464.4-3.988c0,0,.082,3.17-2.145,4.769s-1.629,2.981-1.629,2.981-5.034-1.566-5.175-5.49a10.755,10.755,0,0,0-.042,2.508s-4.347-3.392-4.555-7.3,3.422-7.206,5.075-7.265,5.342-3.432,5.242-4.707,5.107-3.177,5.107-3.177" transform="translate(-1571.732 -294.284)" fill="#2c3a64"/><path d="M1906.414,226.328c2.93-4.622,14.56-2.035,25.977,5.778s18.3,17.894,15.369,22.516-14.559,2.035-25.977-5.778-18.3-17.894-15.369-22.516" transform="translate(-1575.769 -183.728)" fill="#e2af64"/><path d="M1845.406,1044.047c-3.167,17.438-7.244,41.161-10.391,59.72-.372,2.191-.732,4.308-1.076,6.335-.078.468-.156.934-.234,1.391h-31.451q-.067-.7-.127-1.391a252.579,252.579,0,0,1-.337-41.381c.337-4.5.783-8.645,1.276-12.406,2.069-22.213,2.765-31.626,2.975-34.738l.045-.686c0-.042,0-.081.007-.116l.007-.1c0-.062.009-.118.011-.167l.007-.137c0-.046,0-.067,0-.067l10.721,3.314,5.244,1.621,1.236,4.082,2.473,8.16,17.949,6.018Z" transform="translate(-1489.248 -836.73)" fill="#233862"/><path d="M1902.876,1022.479c-.542,9.06-1.435,41.008-2.432,61.662q-.034.706-.067,1.392H1867.77q-.151-.693-.3-1.392c-3.461-16.174-6.3-34.336-8.326-49.078-.357.016-4.08-26.327-13.408-37.94-.085-.1-.1-.188-.044-.25.462-.617,6.383.45,6.383.45a12.737,12.737,0,0,0,1.614.329c4.477.638,10.978-.39,17.427-1.953h0c1.743-.422,3.479-.884,5.173-1.361,4.776-1.347,9.2-2.827,12.35-3.94.783-.276,1.486-.531,2.1-.753.5-.181.93-.343,1.3-.48h0c.88-.329,1.371-.522,1.371-.522s.22.2.6.619a33.274,33.274,0,0,1,6.4,11.708,56.737,56.737,0,0,1,2.471,21.508" transform="translate(-1526.091 -810.769)" fill="#2b478b"/><path d="M1946.765,187.1l20.523,32.356s2.346-4.777,4.953-3.063c4.066,2.669,12.8-6.468,10.979-19.369-.121-.844-.263-1.645-.421-2.406-4.095-6.13-8.642-12.956-11.906-17.755-9.425-5.915-24.129,10.237-24.129,10.237" transform="translate(-1609.691 -143.976)" fill="#2c3a64"/><path d="M1894.672,439.393a34.818,34.818,0,0,0,11.437,7.084c18.123,7.137,27.445-8.283,31.614-19.183a15.94,15.94,0,0,0-6.074-2.92c-1.065-.286-2.179-.542-3.182-.749a2.018,2.018,0,0,1-1.3-.891c-1.729-2.71-3.477-9.579-2.849-19.234l-.912.121-15.3,2.11s.038,4.967-.234,9.617a49.639,49.639,0,0,1-.558,5.4,3.129,3.129,0,0,1-2.733,2.6h0a.039.039,0,0,1-.01.013,100.04,100.04,0,0,0-9.908,16.026" transform="translate(-1566.617 -330.903)" fill="#ffb27d"/><path d="M1971.177,406.3s.041,4.963-.234,9.617c8.469.311,13.427-7.406,15.53-11.726Z" transform="translate(-1629.683 -331.469)" fill="#ed985f"/><path d="M1929.033,281.394s19.979,1.665,20.786-11.279,3.928-21.447-8.794-23.058-15.511,3.162-16.792,7.414-.377,26.156,4.8,26.923" transform="translate(-1590.632 -202.344)" fill="#ffb27d"/><path d="M1919.854,235.705c3.33-3.689,5.614-2.68,6.852-1.423,11.314-5.522,17.793,4.177,17.793,4.177a25.1,25.1,0,0,0,6.889,15.124s-3.789,2.1-12.055-.7a14.407,14.407,0,0,1-6.508-5.331,48.494,48.494,0,0,0,7.406,10.723c-9.743-5.486-12.886-20.26-13.194-21.821-1.29,1.059-3.849,3.374-4.731,5.752-1.2,3.231-2.063,9.987-3.953,9.631,0,0-3.493-10.6,1.5-16.129" transform="translate(-1585.216 -190.736)" fill="#2c3a64"/><path d="M2000.637,188.375s9.292-19.218-3.692-26.815-22.488-4.614-29.631,4.677Z" transform="translate(-1626.682 -128.954)" fill="#edbd77"/><path d="M1833.564,552.336c.711.77,1.156,1.2,1.156,1.2,15.135-1.958,15.844-18.107,15.844-18.107s-11.846-16.233-22.906-19.8a56.154,56.154,0,0,0-6.729-1.516c-3.46,2.982-7.447,7.351-11.2,10.9-4.323,4.1-11.761,5.488-14.513-1.778-1.1-2.91,1.548-8.951,1.82-9.385a.055.055,0,0,0,.009-.015c-.284.019-.56.041-.831.06-1.356.113-2.577.285-3.687.4-5.4.563-12.853,4.28-27.916,24.092,0,0,8.14,10.446,16.409,11.054-.332,16.549,1.378,43.5,1.378,43.5-3.612,7.381,50.052,24.479,52.368,17.438,3.474-5.507.007-16.053-3-24.135-.736-1.973-.9-4.076-1.553-5.6a18.731,18.731,0,0,1-1-3.017,18.543,18.543,0,0,1-.173-7.926,175.865,175.865,0,0,1,4.516-17.372" transform="translate(-1459.079 -421.39)" fill="#a3314f"/><path d="M1907.438,203.754c-.391-.417-.792-.837-1.208-1.259l0,0a89.683,89.683,0,0,0-14.977-12.028,91.732,91.732,0,0,0-13.827-7.43h0q-1.308-.56-2.582-1.041c-10.109-3.842-18.257-4.135-20.723-.028-2.6,4.332,1.8,12.4,10.424,20.583l0,0c-.007-.072-.016-.141-.022-.211s-.011-.141-.018-.213-.013-.165-.02-.248l-.013-.183c0-.1-.011-.2-.018-.309-.007-.13-.014-.26-.018-.392,0-.014,0-.03,0-.046,0-.1-.007-.192-.009-.29v-.09c0-.063,0-.125,0-.19,0-.227,0-.459,0-.689,0-.081,0-.165.007-.246,0-.046,0-.093,0-.139,0-.076.007-.153.014-.227.007-.141.016-.281.027-.42s.025-.278.038-.42c0-.007,0-.016,0-.023,0-.051.011-.1.016-.151,0-.033.007-.065.011-.1.013-.1.025-.195.037-.292.021-.16.045-.318.074-.475,0-.026.009-.053.013-.079.031-.188.067-.373.109-.559.018-.093.04-.185.063-.276,0-.012,0-.023.007-.035-.921-2.017-1.089-3.761-.337-5.014.87-1.452,2.852-2.038,5.541-1.855h0c.073,0,.147.012.223.019h0a20.9,20.9,0,0,1,3.236.54h0c.272.065.547.135.828.211,1.018.278,2.087.624,3.193,1.039h.014a56.058,56.058,0,0,1,10.607,5.456c1.52.986,2.96,2.011,4.3,3.052h0c.134.1.268.209.4.313,6.22,4.9,10.328,10.169,10.8,13.807a3.825,3.825,0,0,1-.429,2.521,1.818,1.818,0,0,1-.109.162.19.19,0,0,1-.013.023,3.3,3.3,0,0,1-1.082.967s0,0,0,0a1.985,1.985,0,0,1-.183.1s0,0,0,0a5.559,5.559,0,0,1-1.585.5h0c-.058.049-.116.1-.174.141-.042.035-.087.07-.132.1s-.084.065-.129.1c-.013.009-.026.019-.04.03-.076.051-.149.1-.223.155-.116.079-.234.153-.35.225-.058.035-.116.07-.174.1s-.116.065-.174.1c-.078.042-.154.081-.232.118a.692.692,0,0,1-.087.042l-.087.039s0,0,0,0l-.02.009-.107.046c-.054.021-.1.044-.158.063s-.132.051-.2.072-.125.042-.185.058l-.018.007c-.052.014-.1.028-.152.039a.4.4,0,0,1-.056.016c-.047.012-.094.023-.143.032s-.116.023-.176.032c-.036.007-.072.012-.108.016s-.084.012-.127.016-.11.012-.165.014a.645.645,0,0,1-.067,0h-.027a.262.262,0,0,1-.042,0h-.016a.478.478,0,0,1-.058,0,3.312,3.312,0,0,1-.431-.028,3.031,3.031,0,0,1-.413-.086c-.067-.021-.134-.042-.2-.065-.049-.019-.1-.039-.145-.06a1.038,1.038,0,0,1-.107-.049c-.029-.014-.058-.028-.087-.044a.575.575,0,0,1-.076-.042c-.052-.028-.1-.058-.15-.091a2.391,2.391,0,0,0-.305-.172l-.1-.044-.04-.016a1.193,1.193,0,0,0-.147-.051,1.93,1.93,0,0,0-.576-.088h-.027a.056.056,0,0,0-.02,0h-.027c-.024,0-.047,0-.071,0a.314.314,0,0,0-.047,0c-.043,0-.083.009-.123.016l-.013,0a.467.467,0,0,0-.056.012.632.632,0,0,0-.1.021c-.031.007-.063.016-.1.026a.992.992,0,0,0-.112.035l-.073.028a1.022,1.022,0,0,0-.11.044h0c-.029.012-.055.023-.084.037s-.054.026-.078.04-.06.032-.091.049l-.087.049-.089.056-.085.056c-.029.018-.058.037-.087.058a.726.726,0,0,0-.085.063c-.056.039-.111.083-.165.13a.845.845,0,0,0-.08.067c-.027.023-.053.046-.08.072-.054.046-.1.1-.156.144s-.1.1-.152.151c-.024.026-.049.051-.073.079s-.049.051-.072.076-.053.056-.078.084h0q1.466.63,2.886,1.164a50.878,50.878,0,0,0,8.46,2.449c5.966,1.115,10.431.39,12.147-2.467,2.285-3.81-.844-10.5-7.491-17.633" transform="translate(-1532.469 -146.792)" fill="#ffb500"/><path d="M2080.741,755.923c7.729,2.573,4.12-1.83,10.09-1.383-.735-1.973-1.28-3.76-1.935-5.286a18.856,18.856,0,0,1-1-3.017,18.544,18.544,0,0,1-.173-7.926,158.983,158.983,0,0,1,4.516-17.371c-1.708-4.663-9,2.982-9,2.982s-6.75,7.368-4.983,19.9c1.646,11.673-4.187,9.883,2.482,12.1" transform="translate(-1717.754 -589.994)" fill="#a3314f"/><path d="M2035.862,519.758a41.235,41.235,0,0,0-15.672,25.759l-3.774-1.245s1.59-12.589,16.026-25.4c0,0,1.088.224,1.452.318.49.127,1.968.567,1.968.567" transform="translate(-1667.282 -425.519)" fill="#2b478b"/><path d="M1874.148,542.112l3.951.27a42.665,42.665,0,0,1,8.688-28.2c-1.356.113-2.584.249-3.687.4-8.021,12.726-8.953,27.531-8.953,27.531" transform="translate(-1549.647 -421.671)" fill="#2b478b"/><path d="M1865.369,645.294c.245-1.079,2.663-11.567,2.663-11.567s.557-3.279-4.988-3.6-25.219-1.4-25.219-1.4a6.4,6.4,0,0,0-2.72,5.131c-.04,3.45-2.717,23.188-2.717,23.188l-2.754,43.41,59.993,26.862s4.114-21.94-.493-37.232c-2.686-8.919-6.149-18.231-6.149-18.231s-21.348-10.071-17.615-26.554" transform="translate(-1512.84 -515.603)" fill="#2b478b"/><path d="M2023.652,648.268a1.736,1.736,0,0,0-1.078-2.163,1.646,1.646,0,0,0-2.081,1.12,1.736,1.736,0,0,0,1.078,2.163,1.646,1.646,0,0,0,2.081-1.12" transform="translate(-1670.588 -529.793)" fill="#ed7d2b"/><path d="M2022.013,647.748a1.737,1.737,0,0,0-1.078-2.163,1.646,1.646,0,0,0-2.081,1.12,1.736,1.736,0,0,0,1.078,2.163,1.646,1.646,0,0,0,2.081-1.12" transform="translate(-1669.233 -529.367)" fill="#a3314f"/><path d="M2031.982,653.929a.241.241,0,1,0-.241.251.246.246,0,0,0,.241-.251" transform="translate(-1679.754 -536.071)" fill="#2b478b"/><path d="M2022.9,653.945a.241.241,0,1,0-.241.251.246.246,0,0,0,.241-.251" transform="translate(-1672.245 -536.084)" fill="#2b478b"/><path d="M1882.765,636.108a1.736,1.736,0,0,0-1.078-2.162,1.646,1.646,0,0,0-2.081,1.12,1.736,1.736,0,0,0,1.078,2.163,1.646,1.646,0,0,0,2.081-1.12" transform="translate(-1554.096 -519.821)" fill="#ed7d2b"/><path d="M1881.126,635.588a1.736,1.736,0,0,0-1.078-2.162,1.645,1.645,0,0,0-2.081,1.12,1.735,1.735,0,0,0,1.078,2.163,1.647,1.647,0,0,0,2.081-1.12" transform="translate(-1552.74 -519.394)" fill="#a3314f"/><path d="M1891.1,641.769a.241.241,0,1,0-.24.251.245.245,0,0,0,.24-.251" transform="translate(-1563.262 -526.099)" fill="#2b478b"/><path d="M1882.013,641.783a.241.241,0,1,0-.241.251.246.246,0,0,0,.241-.251" transform="translate(-1555.752 -526.11)" fill="#2b478b"/><path d="M2070.138,372.554s.137,3.074-1.637,3.675,1.828,7.235,1.545,11.715-2.19,6.279-2.19,6.279.916-2.464.4-3.988c0,0,.083,3.17-2.145,4.769s-1.629,2.981-1.629,2.981-5.034-1.567-5.176-5.49a10.756,10.756,0,0,0-.042,2.508s-4.347-3.392-4.554-7.3,3.422-7.206,5.075-7.265,5.341-3.432,5.242-4.707,5.107-3.177,5.107-3.177" transform="translate(-1698.941 -305.525)" fill="#2c3a64"/><path d="M1950.19,393.27s-2.977,1.875-5.1,1.657c-2.1-.216-3.241-2.846-3.241-2.846a16.976,16.976,0,0,1,8.337,1.189" transform="translate(-1605.629 -321.454)" fill="#fff2e9"/><path d="M1837.8,873.816h-40.1a5.088,5.088,0,0,1-4.274-3.158l-10.094-25.82c-.682-1.744.126-3.158,1.8-3.158h40.1a5.088,5.088,0,0,1,4.274,3.158l10.094,25.82c.682,1.744-.126,3.158-1.8,3.158" transform="translate(-1474.356 -690.247)" fill="#a4c9ff"/><path d="M1823.978,873.816h-40.1a5.086,5.086,0,0,1-4.273-3.158l-10.094-25.82c-.682-1.744.126-3.158,1.8-3.158h40.1a5.087,5.087,0,0,1,4.273,3.158l10.094,25.82c.682,1.744-.126,3.158-1.8,3.158" transform="translate(-1462.93 -690.247)" fill="#71a4ff"/><path d="M1789.338,852.686h0a2.331,2.331,0,0,1,1.952,1.442c.31.793-.061,1.442-.824,1.442a2.332,2.332,0,0,1-1.952-1.442c-.31-.793.061-1.442.824-1.442" transform="translate(-1478.75 -699.273)" fill="#2b478b"/><path d="M1816.649,856.025h0a1.362,1.362,0,0,1,1.139.842c.18.463-.036.841-.481.841a1.36,1.36,0,0,1-1.139-.841c-.181-.463.035-.842.481-.842" transform="translate(-1501.653 -702.011)" fill="#2b478b"/><path d="M1908.713,912.318c-.669-1.712.124-3.1,1.771-3.1a4.992,4.992,0,0,1,4.193,3.1c.67,1.712-.124,3.1-1.771,3.1a4.992,4.992,0,0,1-4.194-3.1" transform="translate(-1578.031 -745.635)" fill="#a4c9ff"/><path d="M2089.8,933.1s-5.514-3.266-6.843-4.776c-.858-.974-.909.279-.854.631a4.9,4.9,0,0,0,1.781,3.438c2.259,1.918,5.916.707,5.916.707" transform="translate(-1721.579 -761.003)" fill="#ffb27d"/><path d="M2029.967,943.53s-9.945-3.1-12.236-2.835-7.521,1.963-7.943,2.405,1.379.908,2.749.492a11.294,11.294,0,0,1,4.521.066,67.844,67.844,0,0,0-6.971,1.9.217.217,0,0,0-.045.36,3.482,3.482,0,0,0,2.426.269,40.979,40.979,0,0,1,4.878-.21l-6.338,1.431a.174.174,0,0,0-.135.175c.01.313.517.648,2,.718a46.746,46.746,0,0,0,5.006-.539l-3.442,1.888a2.9,2.9,0,0,0,2.592.018c1.206-.414,4.8-1.349,5.633-1.168s4.974,1.7,6.931,1.443a10.879,10.879,0,0,0,2.741-.629Z" transform="translate(-1661.751 -771.435)" fill="#ffb27d"/><path d="M1423.787,631.257s-4.99-5.539-6.823-6.2-8.379-1.808-8.379-1.808.026,1.628,2.956,2.751,3.542,6.4,5.275,7.9,6.312,2.786,6.312,2.786Z" transform="translate(-1164.694 -511.116)" fill="#ffb27d"/><path d="M1435.836,673.183s-4.861-.221-6.441-1.252-4.152-2.379-3.656-3.2,5.857-.2,5.857-.2Z" transform="translate(-1178.827 -548.066)" fill="#ffb27d"/><path d="M1421.784,617.6c-.255-.119-6.738-4.623-6.738-4.623s-.546,2.135.409,2.54,6.328,2.083,6.328,2.083" transform="translate(-1169.909 -502.69)" fill="#ffb27d"/><path d="M2144.189,880.569a108.834,108.834,0,0,1-25.276,19.444,9.8,9.8,0,0,1-3.225-1.737c-3.037-2.254.329-3.905.993-4.353,3.3-2.222,7.722-7.775,11.6-13.355Z" transform="translate(-1748.332 -722.14)" fill="#ffb27d"/><path d="M179.474,1431.728H130.893l-.02-.056c-.06-.165-.141-.387-.243-.67l-.04-.084v-.041a.159.159,0,0,1-.04-.086,12.1,12.1,0,0,1-.449-1.185c-.083-.214-.163-.468-.286-.721v-.086l-.04-.042c-.56-1.512-1.254-3.48-2.056-5.86q-.107-.323-.221-.654c-.6-1.8-1.261-3.81-1.964-6.027q-.485-1.562-1-3.258c4.8-1.389,11.077-2.347,16.666-.462a20.961,20.961,0,0,1,7.955,4.817c3.845,3.636,5.434,7.23,9.912,5.832a15.554,15.554,0,0,1,3.879-.619c7.207-.336,17.172,2.825,16.527,9.2" transform="translate(-102.973 -1157.502)" fill="#82b378"/><path d="M505,1520.032v.2a.584.584,0,0,1-.571.593H.571a.584.584,0,0,1-.571-.593v-.2a.586.586,0,0,1,.571-.6H504.429a.586.586,0,0,1,.571.6" transform="translate(0 -1246.064)" fill="#2e3552"/></g></g></svg>