<svg xmlns="http://www.w3.org/2000/svg" xmlns:xlink="http://www.w3.org/1999/xlink" width="531.32" height="538" viewBox="0 0 531.32 538"><defs><clipPath id="a"><rect width="531.32" height="538" fill="none"/></clipPath><clipPath id="b"><rect width="237.917" height="349.305" fill="none"/></clipPath><clipPath id="c"><rect width="37.203" height="24.192" fill="none"/></clipPath><clipPath id="d"><rect width="3.898" height="4.074" fill="none"/></clipPath><clipPath id="e"><rect width="4.128" height="4.372" fill="none"/></clipPath><clipPath id="f"><rect width="76.215" height="35.045" fill="none"/></clipPath><clipPath id="g"><rect width="17.429" height="16.123" fill="none"/></clipPath></defs><path d="M349.546,339.479a36.473,36.473,0,0,0-15.6-5.369c-2.548-.261-5.333-.187-7.378,1.358a1.515,1.515,0,0,0-.759,1.347,1.643,1.643,0,0,0,.722.922c6.346,4.842,15.946,5.454,23.015,1.743" transform="translate(65.645 67.297)" fill="#e0e0e0"/><path d="M348.01,342.293a76.1,76.1,0,0,1-10.075-8.865,25.472,25.472,0,0,1-6.316-11.681,4.71,4.71,0,0,1,.5-3.91c8.031,6.273,14.34,14.384,15.892,24.455" transform="translate(66.78 64.041)" fill="#e0e0e0"/><path d="M345.579,342.558a36.457,36.457,0,0,1,.186-13.227,17.882,17.882,0,0,1,7.047-10.916c1.388,3.244.791,6.981-.186,10.37a50.416,50.416,0,0,1-6.987,14.71" transform="translate(69.528 64.158)" fill="#e0e0e0"/><path d="M355.344,350.249c-4.778.58-8.941,3.1-12.51,6.332a23.657,23.657,0,0,0-7.155,12.283c4.687-.29,8.664-3.595,11.549-7.3s4.883-7.774,8.051-11.241" transform="translate(67.636 70.572)" fill="#e0e0e0"/><path d="M353.83,357.021a30.852,30.852,0,0,1,3.562-29.184c2.723,9.685,1.723,20.624-3.562,29.184" transform="translate(70.86 66.056)" fill="#e0e0e0"/><path d="M365.759,362.443a22.312,22.312,0,0,0-21.333,12.279c-.264.529-.5,1.2-.143,1.672a1.589,1.589,0,0,0,1.414.417c4.2-.273,7.93-2.8,11-5.683s5.753-6.207,9.151-8.7" transform="translate(69.334 73.021)" fill="#e0e0e0"/><path d="M362.15,366.832a39.73,39.73,0,0,1-.4-22.194c.782-2.856,2.094-5.863,4.736-7.2a.93.93,0,0,1,.724-.127.954.954,0,0,1,.458.53,13.387,13.387,0,0,1,1.117,6.368,40.016,40.016,0,0,1-1,6.445c-.831,3.94-1.275,8.174-3.435,11.57a23.451,23.451,0,0,0-1.373,2.542c-.41.863-.412,1.167-.787,1.854" transform="translate(72.61 67.958)" fill="#e0e0e0"/><path d="M384.9,369.389c-2.04-7.759.125-17.167,5.015-23.528.36-.469.837-.971,1.426-.917.9.084,1.133,1.283,1.093,2.187a42.51,42.51,0,0,1-7.535,22.258" transform="translate(77.399 69.502)" fill="#e0e0e0"/><path d="M386.833,368.065c9.427,2.453,20.243.068,28.084-5.712a22.743,22.743,0,0,0-15.2-1.866c-5.079,1.162-9.72,3.437-12.881,7.578" transform="translate(77.943 72.523)" fill="#e0e0e0"/><path d="M388.576,364.872c5.281-8.609,15.4-14.227,25.488-14.737-1.162,4.1-4.533,7.289-8.337,9.217s-8.049,2.765-12.235,3.578c-1.628.316-3.86.663-4.917,1.943" transform="translate(78.295 70.549)" fill="#e0e0e0"/><path d="M385.818,346.514c1.43-4.9,2.867-9.839,3.26-14.927s-.333-10.4-2.973-14.765c-4.932,9.544-5.432,20.695-.435,30.2" transform="translate(77.001 63.837)" fill="#e0e0e0"/><path d="M399.024,337.909c5.767-10.482,17.535-18.855,29.441-20.029-4.593,11.436-17.119,20.274-29.441,20.029" transform="translate(80.4 64.05)" fill="#e0e0e0"/><path d="M396,336.547c8.6,1.31,15.931,6.8,23.969,10.135a10.728,10.728,0,0,0,5.419,1.037,4.241,4.241,0,0,0,2.655-7.5,11.581,11.581,0,0,0-3.936-2.387c-8.755-3.645-18.144-3.735-27.366-1.526" transform="translate(79.791 67.465)" fill="#e0e0e0"/><path d="M391.861,341.351c1.948.557,2.612,1.566,4.155,2.879a44.816,44.816,0,0,0,18.175,9.337c.694.173,1.605.241,1.95-.386.3-.548-.08-1.211-.471-1.7a25.008,25.008,0,0,0-10.973-7.449c-4.194-1.562-7.829-3.445-12.836-3.041" transform="translate(78.956 68.695)" fill="#e0e0e0"/><path d="M387.186,311.11a34.4,34.4,0,0,0,26.372,8.972,1.8,1.8,0,0,0,1.2-.43c.663-.722-.132-1.837-.906-2.44-7.753-6.045-17.145-8.55-26.666-6.1" transform="translate(78.014 62.498)" fill="#e0e0e0"/><path d="M392.729,310.127a36.757,36.757,0,0,1,32.906-5.43c-4.144,4.084-9.893,6.281-15.681,6.885a49.637,49.637,0,0,1-17.226-1.455" transform="translate(79.131 61.045)" fill="#e0e0e0"/><path d="M391.271,298.893c-.762-7.739-.268-13.847-.805-21.622-.042-.621-.175-1.368-.757-1.593-.809-.311-1.484.684-1.749,1.509a24.787,24.787,0,0,0,3.3,21.535" transform="translate(77.942 55.535)" fill="#e0e0e0"/><path d="M390.062,299.782a45.491,45.491,0,0,0,12.819-12.459c2.533-3.464,4.667-7.614,4.091-11.867a12.27,12.27,0,0,0-9.247,4.592,25.8,25.8,0,0,0-4.713,9.485c-1.027,3.405-1.746,6.9-2.95,10.25" transform="translate(78.594 55.501)" fill="#e0e0e0"/><path d="M400.573,296.041a103.349,103.349,0,0,0,31.548-18.6c-3.768-1.517-8.082-.609-11.85.912-8.607,3.475-15.64,9.339-19.862,17.607" transform="translate(80.679 55.744)" fill="#e0e0e0"/><path d="M393.01,300.756c5.824.637,11.74,1.051,17.518.085,5.679-.949,11.047-3.2,16.354-5.434a1.914,1.914,0,0,0,1.111-.843,1.278,1.278,0,0,0-.4-1.4,3.367,3.367,0,0,0-1.394-.654c-5.77-1.614-12-.859-17.674,1.056a81.987,81.987,0,0,0-15.516,7.189" transform="translate(79.188 58.761)" fill="#e0e0e0"/><path d="M365.822,315.475c-3.973-8.02-3.715-17.38-.282-25.646,2.416,3.681,2.711,8.37,2.268,12.751s-1.775,8.89-1.861,13.293" transform="translate(73.122 58.398)" fill="#e0e0e0"/><path d="M356.579,304.512A35.769,35.769,0,0,0,330,315.835c4.951.777,10.05-.5,14.554-2.7a73.926,73.926,0,0,0,12.473-8.348" transform="translate(66.492 61.355)" fill="#e0e0e0"/><path d="M347.433,301.619c-4.853-.393-9.523-.995-14.188.436s-8.913,4.675-10.815,9.169a25.639,25.639,0,0,0,13.3-2.511,76.5,76.5,0,0,0,11.7-7.094" transform="translate(64.967 60.679)" fill="#e0e0e0"/><path d="M361.163,302.926c-4.366-2.861-8.85-5.773-13.934-6.959s-10.974-.309-14.519,3.523c4.115,2.415,9.107,2.7,13.878,2.7s10.62-.058,15.118,1.534" transform="translate(67.038 59.536)" fill="#e0e0e0"/><path d="M357.833,306.986c-7.464-7.329-10.293-20.5-7.291-30.515a46.5,46.5,0,0,1,7.291,30.515" transform="translate(70.393 55.706)" fill="#e0e0e0"/><path d="M373.494,288.624c1.408-3.273,2.4-6.707,3.661-10.038a28.857,28.857,0,0,1,5.218-9.254,13.747,13.747,0,0,1,9.244-4.79,37.233,37.233,0,0,1-17.941,24.136" transform="translate(75.256 53.303)" fill="#e0e0e0"/><path d="M373.641,290.393c-2.33-3.207-5.021-7.559-8.18-9.952s-7.273-3.841-11.127-2.922a25.919,25.919,0,0,0,19.307,12.874" transform="translate(71.395 55.861)" fill="#e0e0e0"/><path d="M371.684,288.84A55.343,55.343,0,0,1,368,276.916a18.6,18.6,0,0,1,1.867-12.125c4.1,7.745,5.416,16.059,2.025,24.137" transform="translate(74.095 53.353)" fill="#e0e0e0"/><path d="M373.525,267.545c2.32-7.678,9.351-13.331,16.94-15.925a6.323,6.323,0,0,1,2.971-.445A2.578,2.578,0,0,1,395.625,253c.276,1.306-.8,2.477-1.817,3.345a57.682,57.682,0,0,1-20.284,11.2" transform="translate(75.262 50.601)" fill="#e0e0e0"/><path d="M373.615,263.893c.3-4.95.6-9.972,2.214-14.662s4.712-9.091,9.227-11.143c.768,5-1.438,9.974-4.1,14.275s-5.867,8.364-7.465,13.162" transform="translate(75.256 47.973)" fill="#e0e0e0"/><path d="M375.908,266.916c-1.918-5.6-2.116-12.7-5.467-17.577-2.342-3.407-6.093-5.729-8.11-9.338a14.2,14.2,0,0,0,.471,10.6,30.688,30.688,0,0,0,6.2,8.873c2.48,2.648,4.6,4.64,6.907,7.441" transform="translate(72.841 48.358)" fill="#e0e0e0"/><path d="M373.573,427.505c-.149,0-.279-37.326-.288-83.358-.011-46.05.1-83.368.251-83.368s.278,37.318.288,83.367-.1,83.359-.251,83.359" transform="translate(75.213 52.545)" fill="#e0e0e0"/><path d="M406.151,306.488a7.977,7.977,0,0,1-1.4.526c-1.008.341-2.306.779-3.863,1.3-3.256,1.109-7.729,2.715-12.584,4.705-4.808,2.063-9.342,3.738-11.924,5.974a8.752,8.752,0,0,0-2.4,3.171c-.37.876-.436,1.412-.487,1.4a1.1,1.1,0,0,1,.017-.392,5.85,5.85,0,0,1,.274-1.087,8.425,8.425,0,0,1,2.338-3.379A20.928,20.928,0,0,1,381.3,315.5c2.069-.966,4.363-1.973,6.8-2.974,4.871-2,9.379-3.55,12.672-4.569,1.646-.513,2.989-.892,3.92-1.141a7.9,7.9,0,0,1,1.463-.326" transform="translate(75.254 61.753)" fill="#e0e0e0"/><path d="M416.413,284.629a2.3,2.3,0,0,1-.393.419l-1.2,1.126-4.472,4.062-14.882,13.251c-5.809,5.17-10.83,10.112-14.31,13.832-1.742,1.859-3.114,3.4-4.05,4.472l-1.081,1.235a2.385,2.385,0,0,1-.4.41,2.3,2.3,0,0,1,.32-.478c.226-.3.555-.747,1-1.3.889-1.119,2.22-2.7,3.931-4.6a188.2,188.2,0,0,1,14.23-13.976c5.83-5.16,11.134-9.795,14.989-13.135l4.585-3.934c.512-.424.929-.771,1.265-1.049a2.319,2.319,0,0,1,.465-.339" transform="translate(75.684 57.35)" fill="#e0e0e0"/><path d="M386.922,306.868c-.153-.068,1.061-2.87,2.271-6.414s1.794-6.534,1.949-6.508a21.858,21.858,0,0,1-1.438,6.681,43.666,43.666,0,0,1-1.807,4.485,6.974,6.974,0,0,1-.974,1.755" transform="translate(77.959 59.227)" fill="#e0e0e0"/><path d="M377.181,328.075a6.745,6.745,0,0,1-.9-1.039c-.608-.779-1.377-1.765-2.294-2.941-1.926-2.49-4.59-5.927-7.574-9.688s-5.73-7.137-7.718-9.578l-2.343-2.9a6.6,6.6,0,0,1-.809-1.108,6.8,6.8,0,0,1,.968.971c.6.649,1.444,1.6,2.475,2.792,2.064,2.38,4.858,5.72,7.849,9.487s5.606,7.245,7.456,9.8c.925,1.275,1.662,2.315,2.158,3.045a6.7,6.7,0,0,1,.726,1.164" transform="translate(71.639 60.612)" fill="#e0e0e0"/><path d="M368.223,317.754a13.152,13.152,0,0,1-3-5.609,16,16,0,0,1-.679-5.655l.238.019c-.107.433-.185.66-.227.652s-.044-.247-.01-.691l.238.019a25.827,25.827,0,0,0,.958,5.5,41.754,41.754,0,0,0,2.479,5.762" transform="translate(73.446 61.751)" fill="#e0e0e0"/><path d="M362.625,306.58a9.639,9.639,0,0,0-2.092-1.215,14,14,0,0,0-5.808-.463,35.845,35.845,0,0,0-5.849.944,17.5,17.5,0,0,1-2.407.577,8.394,8.394,0,0,1,2.3-.944,26.764,26.764,0,0,1,5.91-1.115,12.685,12.685,0,0,1,5.992.646,3.7,3.7,0,0,1,1.949,1.569" transform="translate(69.81 61.311)" fill="#e0e0e0"/><path d="M361.9,304.427c-.041.084-1.218-.489-3.206-1.167a32.252,32.252,0,0,0-16.15-1.232c-2.067.37-3.316.757-3.345.668a3.056,3.056,0,0,1,.851-.363,19.986,19.986,0,0,1,2.42-.68,28.514,28.514,0,0,1,16.356,1.247,20.026,20.026,0,0,1,2.29,1.039,3.051,3.051,0,0,1,.785.487" transform="translate(68.346 60.648)" fill="#e0e0e0"/><path d="M374.193,296.69a66.334,66.334,0,0,1-2.337-8.118,65.928,65.928,0,0,1-1.814-8.252,66.244,66.244,0,0,1,2.337,8.12,66.413,66.413,0,0,1,1.814,8.251" transform="translate(74.557 56.482)" fill="#e0e0e0"/><path d="M374.692,295.422a39.241,39.241,0,0,0-2.59-4.861,21.428,21.428,0,0,0-3.812-3.935,3.571,3.571,0,0,1,1.471.759,11.833,11.833,0,0,1,2.783,2.867,10.768,10.768,0,0,1,2.149,5.17" transform="translate(74.207 57.751)" fill="#e0e0e0"/><path d="M379.259,392.12c-.058.008-.168-.9-.589-2.482a35.4,35.4,0,0,0-2.494-6.463c-2.578-5.27-7.271-11.951-13.234-18.644-2.954-3.376-5.82-6.56-8.253-9.61a67.374,67.374,0,0,1-5.9-8.513,40.908,40.908,0,0,1-2.98-6.317c-.274-.779-.475-1.387-.585-1.807a3,3,0,0,1-.153-.644c.048-.016.32.854.934,2.375a46.4,46.4,0,0,0,3.113,6.2,71.4,71.4,0,0,0,5.961,8.392c2.443,3.018,5.313,6.185,8.273,9.566,5.977,6.71,10.66,13.477,13.171,18.833a32.276,32.276,0,0,1,2.355,6.578,18.434,18.434,0,0,1,.33,1.872,3.135,3.135,0,0,1,.054.661" transform="translate(69.528 68.032)" fill="#e0e0e0"/><path d="M403,355.276a13.526,13.526,0,0,1-1.545.867,33.88,33.88,0,0,0-4.007,2.648,46.015,46.015,0,0,0-5.261,4.8c-1.847,1.951-3.75,4.217-5.691,6.644-3.882,4.871-7.513,9.182-9.688,12.623-1.1,1.706-1.907,3.146-2.432,4.155a13.032,13.032,0,0,1-.851,1.555,1.494,1.494,0,0,1,.143-.439c.115-.278.272-.694.519-1.21a39.5,39.5,0,0,1,2.3-4.265c2.111-3.524,5.713-7.893,9.589-12.756,1.945-2.432,3.871-4.7,5.753-6.65a42.713,42.713,0,0,1,5.392-4.762,28.222,28.222,0,0,1,4.138-2.529c.512-.257.93-.415,1.206-.533a1.47,1.47,0,0,1,.436-.148" transform="translate(75.261 71.584)" fill="#e0e0e0"/><path d="M401.953,364.271a22.5,22.5,0,0,1-3.266.475,43.074,43.074,0,0,0-7.744,1.525,23.289,23.289,0,0,0-6.933,3.638c-1.6,1.235-2.353,2.258-2.427,2.2a2.512,2.512,0,0,1,.484-.751,12.337,12.337,0,0,1,1.7-1.742,21,21,0,0,1,7.009-3.856,34.926,34.926,0,0,1,7.871-1.391,18.039,18.039,0,0,1,3.3-.095" transform="translate(76.885 73.389)" fill="#e0e0e0"/><path d="M382.38,371.653c-.171-.1,1.3-2.344,2.443-5.367,1.07-3.051,1.322-5.726,1.514-5.7a5.2,5.2,0,0,1-.054,1.752,18.819,18.819,0,0,1-.953,4.127,20,20,0,0,1-1.894,3.785,5.286,5.286,0,0,1-1.056,1.4" transform="translate(77.043 72.656)" fill="#e0e0e0"/><path d="M412.544,331.143a2.471,2.471,0,0,1-.523.278l-1.534.7c-.672.287-1.487.654-2.407,1.138s-2,.966-3.12,1.639l-1.781,1.013c-.618.356-1.229.777-1.879,1.185-1.313.8-2.629,1.777-4.032,2.779a69.164,69.164,0,0,0-15.532,16.071c-.953,1.438-1.889,2.786-2.64,4.126-.384.663-.786,1.288-1.12,1.918l-.95,1.815c-.634,1.143-1.087,2.235-1.532,3.173s-.791,1.764-1.055,2.445c-.262.631-.475,1.146-.645,1.557a2.4,2.4,0,0,1-.26.531,2.5,2.5,0,0,1,.157-.568l.552-1.6c.236-.7.545-1.539.974-2.49s.851-2.064,1.467-3.225q.443-.883.926-1.842c.326-.638.72-1.272,1.1-1.946.739-1.358,1.668-2.725,2.616-4.181a66.727,66.727,0,0,1,15.645-16.189c1.423-1,2.757-1.972,4.09-2.757.66-.4,1.28-.817,1.907-1.164l1.809-.989c1.139-.656,2.234-1.125,3.172-1.576s1.769-.8,2.455-1.06l1.578-.606a2.411,2.411,0,0,1,.562-.177" transform="translate(75.263 66.722)" fill="#e0e0e0"/><path d="M386.588,344.8a3.744,3.744,0,0,1,1.282-1.91,8.1,8.1,0,0,1,5.169-1.982,14.129,14.129,0,0,1,5.439,1.062,7.709,7.709,0,0,1,2.056,1,12.777,12.777,0,0,1-2.182-.639,16.436,16.436,0,0,0-5.3-.884,8.411,8.411,0,0,0-4.936,1.734,15.2,15.2,0,0,0-1.532,1.621" transform="translate(77.893 68.69)" fill="#e0e0e0"/><path d="M383.687,348.782a13.8,13.8,0,0,0,1.139-9.758,3.176,3.176,0,0,1,.606,1.39,9.873,9.873,0,0,1-.835,7.155c-.455.825-.858,1.251-.91,1.214" transform="translate(77.307 68.31)" fill="#e0e0e0"/><path d="M352.069,387.435c.8,14.264,5.1,28.771,11.715,43.439h28.752c6.3-14.521,10.306-29.006,11.018-43.439Z" transform="translate(70.939 78.065)" fill="#e0e0e0"/><path d="M398.131,406.692c0,.149-9.467.269-21.141.269s-21.143-.12-21.143-.269,9.464-.27,21.143-.27,21.141.121,21.141.27" transform="translate(71.7 81.89)" fill="#fafafa"/><path d="M397.154,410.992c0,.149-8.874.27-19.819.27s-19.821-.121-19.821-.27,8.872-.269,19.821-.269,19.819.12,19.819.269" transform="translate(72.036 82.757)" fill="#fafafa"/><path d="M362.25,395.23a81.249,81.249,0,0,1,0,13.245,81.625,81.625,0,0,1,0-13.245" transform="translate(72.936 79.635)" fill="#fafafa"/><path d="M375.071,395.23a87.13,87.13,0,0,1,0,13.716,87.514,87.514,0,0,1,0-13.716" transform="translate(75.519 79.635)" fill="#fafafa"/><path d="M387.107,395.134a90.65,90.65,0,0,1,0,13.99,91.039,91.039,0,0,1,0-13.99" transform="translate(77.944 79.616)" fill="#fafafa"/><path d="M402.476,395.275c0,.149-11.1.269-24.8.269s-24.8-.12-24.8-.269,11.1-.27,24.8-.27,24.8.121,24.8.27" transform="translate(71.103 79.59)" fill="#fafafa"/><rect width="23.661" height="141.966" transform="translate(18.12 347.063)" fill="#e0e0e0"/><rect width="23.661" height="141.966" transform="translate(56.146 347.063)" fill="#e0e0e0"/><rect width="23.661" height="141.966" transform="translate(94.173 347.063)" fill="#e0e0e0"/><rect width="23.661" height="141.966" transform="translate(132.199 347.063)" fill="#e0e0e0"/><rect width="23.661" height="141.966" transform="translate(170.226 347.063)" fill="#e0e0e0"/><rect width="23.661" height="141.966" transform="translate(208.252 347.063)" fill="#e0e0e0"/><rect width="23.661" height="141.966" transform="translate(246.279 347.063)" fill="#e0e0e0"/><path d="M264.221,309.828H4.834a1.708,1.708,0,0,1-1.709-1.709v-4.188a1.708,1.708,0,0,1,1.709-1.709H264.221a1.709,1.709,0,0,1,1.708,1.709v4.188a1.708,1.708,0,0,1-1.708,1.709" transform="translate(0.63 60.895)" fill="#e0e0e0"/><path d="M264.221,400.4H4.834a1.708,1.708,0,0,1-1.709-1.709v-4.188A1.708,1.708,0,0,1,4.834,392.8H264.221a1.709,1.709,0,0,1,1.708,1.709v4.188a1.708,1.708,0,0,1-1.708,1.709" transform="translate(0.63 79.145)" fill="#e0e0e0"/><rect width="131.876" height="218.292" transform="translate(366.503 0)" fill="#e0e0e0"/><rect width="131.876" height="218.292" transform="translate(362.117 0)" fill="#ebebeb"/><rect width="120.644" height="209.438" transform="translate(367.733 4.427)" fill="#fafafa"/><rect width="74.186" height="155.008" transform="translate(390.701 31.642)" fill="#ebebeb"/><path d="M325.18,119.285c-.172-14.48,12.848-28.616,27.187-30.637,6.836-.965,14.1.393,20.49-2.228,11.4-4.676,15.032-19.827,26.508-24.321l.524,112.038H325.18Z" transform="translate(65.52 12.513)" fill="#e0e0e0"/><g clip-path="url(#a)"><path d="M492.146,424.839c0,.173-108.692.312-242.74.312-134.094,0-242.762-.139-242.762-.312s108.669-.312,242.762-.312c134.048,0,242.74.139,242.74.312" transform="translate(1.339 85.538)" fill="#263238"/></g><path d="M247.419,33.567l57.807-2.441a18.746,18.746,0,0,1,19.531,18.3l2.043,89.29a18.747,18.747,0,0,1-16.794,19.072,6.228,6.228,0,0,0-5.576,6.434l7.262,188.591a23.4,23.4,0,0,1-22.34,24.272l-220.838,9.8a6.228,6.228,0,0,1-6.5-6.036L52.241,53.484a6.228,6.228,0,0,1,5.782-6.4Z" transform="translate(10.526 6.268)" fill="#ff725e"/><g transform="translate(72.352 37.817)" opacity="0.3"><g clip-path="url(#b)"><path d="M60.219,374.591l.185,6.189,237.732-21.859L293.592,31.475s-57.708,8.746-58.757,8.746S60.219,374.591,60.219,374.591" transform="translate(-60.219 -31.475)"/></g></g><path d="M223.591,19.233l68.991-4.208L299.7,354.416,56.882,379.043,21.121,41.434Z" transform="translate(4.256 3.027)" fill="#ebebeb"/><path d="M223.635,19.258s-1.211.156-3.576.427l-10.5,1.185-40.33,4.485L21.189,41.692l.208-.257c9.6,90.455,22.076,207.959,35.838,337.6l-.341-.278,54.428-5.521,188.4-19.092-.267.3c-3.047-148.391-5.546-270.1-6.969-339.394l.151.141c-22.455,1.338-39.7,2.368-51.341,3.063l-13.191.767c-2.96.168-4.467.234-4.467.234s1.5-.118,4.46-.31l13.186-.841,51.336-3.2.149-.01,0,.15c1.485,69.292,4.095,191,7.275,339.386l.006.274-.273.029L111.384,373.86l-54.428,5.518-.309.031-.032-.309C42.912,249.453,30.492,131.945,20.931,41.485l-.024-.233.232-.025L169.208,25.1l40.342-4.361,10.5-1.117c2.367-.249,3.582-.358,3.582-.358" transform="translate(4.213 3.002)" fill="#263238"/><path d="M11.078,31.6,43.95,373.164l254.312-23.955L261.588,7.9Z" transform="translate(2.232 1.591)" fill="#fff"/><path d="M11.078,31.644,261.564,7.69l.251-.024.026.251c10.312,95.815,23.013,213.831,36.732,341.305l.034.316-.315.029-1.8.171L43.976,373.494l-.281.026-.026-.281C24.372,170.994,11.316,34.134,11.078,31.644c.242,2.487,13.524,139.327,33.153,341.541l-.308-.255,252.508-23.816,1.8-.169-.282.345C284.275,221.81,271.614,103.79,261.334,7.971l.278.227L11.078,31.644" transform="translate(2.232 1.545)" fill="#263238"/><path d="M173.406,249.5a37.485,37.485,0,1,1,37.4,37.572,37.527,37.527,0,0,1-37.4-37.572m74.281.174A36.8,36.8,0,1,0,210.8,286.387a36.837,36.837,0,0,0,36.882-36.709" transform="translate(34.94 42.738)" fill="#e0e0e0"/><path d="M176.964,248.71a32.693,32.693,0,1,1,32.616,32.768,32.73,32.73,0,0,1-32.616-32.768m60.562.142a27.87,27.87,0,1,0-27.936,27.8,27.9,27.9,0,0,0,27.936-27.8" transform="translate(35.657 43.541)" fill="#e0e0e0"/><path d="M183.66,245.458a23.942,23.942,0,0,1,2.59-10.845l4.3,2.177a19.157,19.157,0,0,0-2.071,8.678,19.366,19.366,0,0,0,29.451,16.576l2.517,4.114a24.189,24.189,0,0,1-36.791-20.7" transform="translate(37.006 47.272)" fill="#e0e0e0"/><path d="M194.5,226.282a24.191,24.191,0,0,1,31.632,34.347l-4.079-2.572a19.37,19.37,0,0,0-25.324-27.5Z" transform="translate(39.19 45.045)" fill="#e0e0e0"/><path d="M250.524,81.033c.017.172-47.974,4.844-107.177,10.434C84.125,97.058,36.118,101.45,36.1,101.278s47.965-4.843,107.187-10.435c59.2-5.589,107.219-9.982,107.235-9.81" transform="translate(7.274 16.326)" fill="#263238"/><path d="M134.326,78.8c.017.172-22.131,2.4-49.459,4.984s-49.509,4.534-49.525,4.361,22.128-2.4,49.465-4.984,49.5-4.533,49.519-4.361" transform="translate(7.121 15.875)" fill="#263238"/><path d="M251.3,92.617c.017.172-47.974,4.843-107.177,10.434C84.9,108.642,36.9,113.034,36.879,112.862s47.965-4.843,107.187-10.435c59.2-5.589,107.219-9.982,107.235-9.81" transform="translate(7.431 18.66)" fill="#263238"/><path d="M252.08,104.2c.017.172-47.974,4.844-107.177,10.434-59.223,5.592-107.229,9.983-107.246,9.811S85.622,119.6,144.844,114.01c59.2-5.589,107.22-9.982,107.235-9.81" transform="translate(7.588 20.994)" fill="#263238"/><path d="M252.858,115.783c.017.172-47.974,4.844-107.177,10.434-59.223,5.592-107.229,9.983-107.246,9.811s47.965-4.843,107.187-10.435c59.2-5.589,107.22-9.982,107.235-9.81" transform="translate(7.744 23.328)" fill="#263238"/><path d="M253.636,127.366c.017.172-47.974,4.844-107.177,10.434-59.223,5.592-107.229,9.983-107.246,9.811s47.965-4.843,107.187-10.435c59.2-5.589,107.219-9.982,107.235-9.81" transform="translate(7.901 25.662)" fill="#263238"/><path d="M254.414,138.949c.016.172-47.974,4.844-107.177,10.434-59.223,5.592-107.229,9.983-107.246,9.811s47.965-4.843,107.187-10.435c59.2-5.589,107.219-9.982,107.235-9.81" transform="translate(8.058 27.996)" fill="#263238"/><path d="M254.722,150.533c.016.172-47.348,4.784-105.777,10.3C90.5,166.353,43.116,170.685,43.1,170.514s47.338-4.784,105.786-10.3c58.43-5.516,105.819-9.85,105.836-9.678" transform="translate(8.684 30.33)" fill="#263238"/><path d="M171.892,172.813c.016.172-28.576,2.887-63.854,6.063s-63.9,5.613-63.916,5.44,28.57-2.886,63.86-6.063,63.894-5.612,63.91-5.44" transform="translate(8.89 34.819)" fill="#263238"/><path d="M134.613,268.553c.014.172-17.387,1.79-38.861,3.614s-38.9,3.162-38.919,2.991,17.383-1.79,38.865-3.614,38.9-3.162,38.915-2.991" transform="translate(11.451 54.108)"/><path d="M101.074,279.615c.014.172-9.748,1.141-21.8,2.165s-21.842,1.715-21.856,1.542,9.745-1.141,21.8-2.165,21.841-1.713,21.855-1.542" transform="translate(11.569 56.335)"/><path d="M100.136,198.091c.017.172-11.469,1.444-25.652,2.843s-25.7,2.391-25.716,2.219,11.467-1.444,25.654-2.843,25.7-2.391,25.713-2.219" transform="translate(9.827 39.91)" fill="#ff725e"/><g transform="translate(40.138 292.771)" opacity="0.3"><g clip-path="url(#c)"><path d="M34.211,267.865l23.345-4.513L70.61,243.673l-37.2,12.218Z" transform="translate(-33.407 -243.673)"/></g></g><path d="M0,243.863l62.333-5.9,15.008,6.862L65.362,258.3,2.044,265.126Z" transform="translate(0 47.947)" fill="#ff725e"/><path d="M24.521,246.136l.8,7.994-1.85.186-.328-3.278-3.631.365.328,3.276-1.85.186-.8-7.995,1.85-.185.316,3.153,3.631-.365-.316-3.153Z" transform="translate(3.463 49.594)" fill="#fff"/><path d="M31.289,250.568l-4.647.466a1.647,1.647,0,0,0,1.883,1.057,2.1,2.1,0,0,0,1.481-.75l1.051.932a3.235,3.235,0,0,1-2.435,1.25,3.206,3.206,0,0,1-3.823-2.811,3.144,3.144,0,0,1,2.959-3.493,3.057,3.057,0,0,1,3.518,2.864c.014.137.011.335.013.484M26.515,250l3.027-.3a1.543,1.543,0,0,0-3.027.3" transform="translate(4.993 49.808)" fill="#fff"/><path d="M34.722,246.531l.166,1.645c-.15,0-.266,0-.4.018a1.516,1.516,0,0,0-1.462,1.876l.291,2.9-1.781.179-.616-6.143,1.7-.171.082.811a2.491,2.491,0,0,1,2.022-1.115" transform="translate(6.23 49.674)" fill="#fff"/><path d="M41.3,249.564l-4.647.465a1.646,1.646,0,0,0,1.882,1.059,2.094,2.094,0,0,0,1.481-.75l1.051.932a3.233,3.233,0,0,1-2.435,1.25,3.206,3.206,0,0,1-3.822-2.813,3.141,3.141,0,0,1,2.959-3.492,3.056,3.056,0,0,1,3.517,2.864c.014.137.011.335.014.484m-4.775-.572,3.024-.3a1.541,1.541,0,0,0-3.024.3" transform="translate(7.01 49.606)" fill="#fff"/><path d="M174.09,196.807s.073.019.214.071a2.953,2.953,0,0,1,.607.286,8.6,8.6,0,0,1,2.005,1.7,28.678,28.678,0,0,1,5.051,8.71,36.455,36.455,0,0,1,2.619,15.683,23.634,23.634,0,0,1-.851,4.778,31.871,31.871,0,0,1-8.573,13.791,33.275,33.275,0,0,1-10.3,6.737,28.2,28.2,0,0,1-13.152,2.069,28.854,28.854,0,0,1-23.1-16.494,23.566,23.566,0,0,1-2.091-7.634,17.945,17.945,0,0,1,.841-8.056,12.953,12.953,0,0,1,4.8-6.724,9.291,9.291,0,0,1,4-1.495,9.572,9.572,0,0,1,4.276.5,12.632,12.632,0,0,1,6.59,5.467,20.257,20.257,0,0,1,2.613,8.328,36.366,36.366,0,0,1-2.565,17.486,34.4,34.4,0,0,1-10.566,14.152,31.72,31.72,0,0,1-15.9,6.4,29.815,29.815,0,0,1-16.323-2.658,27.884,27.884,0,0,1-11.61-10.787,27.042,27.042,0,0,1-3.929-14.567,19.742,19.742,0,0,1,1.4-7.169,14.214,14.214,0,0,1,4.107-5.767,8.5,8.5,0,0,1,6.516-1.927,9.758,9.758,0,0,1,5.746,3.2,12.239,12.239,0,0,1,2.882,5.639,15.871,15.871,0,0,1-.008,6.062,31.478,31.478,0,0,1-4.276,10.339,49.7,49.7,0,0,1-6,7.98,54.252,54.252,0,0,1-6.39,5.887,55.1,55.1,0,0,1-6.081,4.043,46.818,46.818,0,0,1-9.227,4.072c-2.2.7-3.391.943-3.391.943s.286-.1.852-.274,1.419-.383,2.5-.788a48.53,48.53,0,0,0,9.146-4.164,55.66,55.66,0,0,0,6.019-4.067,54.529,54.529,0,0,0,6.314-5.889,49.569,49.569,0,0,0,5.92-7.949,31.126,31.126,0,0,0,4.18-10.213,15.43,15.43,0,0,0-.008-5.887,11.791,11.791,0,0,0-2.786-5.409,9.276,9.276,0,0,0-5.456-3.027,7.989,7.989,0,0,0-6.124,1.836,13.707,13.707,0,0,0-3.936,5.564A19.2,19.2,0,0,0,89.3,234.56a26.514,26.514,0,0,0,3.872,14.257,27.313,27.313,0,0,0,11.377,10.544,29.216,29.216,0,0,0,15.994,2.587,31.13,31.13,0,0,0,15.588-6.28,33.805,33.805,0,0,0,10.369-13.9,35.769,35.769,0,0,0,2.526-17.181,19.652,19.652,0,0,0-2.524-8.075,12.007,12.007,0,0,0-6.261-5.208,8.965,8.965,0,0,0-4.006-.475,8.7,8.7,0,0,0-3.731,1.393,12.363,12.363,0,0,0-4.57,6.414,17.336,17.336,0,0,0-.822,7.8,23.02,23.02,0,0,0,2.029,7.455,28.336,28.336,0,0,0,22.617,16.217,27.745,27.745,0,0,0,12.924-2,32.887,32.887,0,0,0,10.174-6.609,31.551,31.551,0,0,0,8.519-13.577,23.327,23.327,0,0,0,.861-4.7,36.435,36.435,0,0,0-2.5-15.568,29.2,29.2,0,0,0-4.918-8.713,9.013,9.013,0,0,0-1.944-1.725c-.5-.32-.8-.382-.788-.412" transform="translate(14.916 39.655)"/><path d="M195.7,62.605s-.034-.2-.081-.59c-.047-.4-.113-.97-.2-1.709-.169-1.517-.416-3.731-.737-6.6-.626-5.765-1.539-14.162-2.694-24.783l.208.168L62.447,42.766H62.44l.279-.342c1.205,11.564,2.381,22.849,3.513,33.7l-.335-.273,92.592-9.531,27.276-2.761,7.353-.728,1.913-.18c.433-.038.664-.049.664-.049s-.2.035-.621.085l-1.872.215-7.279.8-27.187,2.928L65.959,76.464l-.3.032-.032-.305c-1.135-10.855-2.316-22.139-3.526-33.7l-.032-.311.311-.032h.007L192.154,28.712l.19-.019.018.189c1.071,10.678,1.916,19.119,2.5,24.915.279,2.86.493,5.061.64,6.572.067.726.119,1.283.155,1.678.034.375.04.557.04.557" transform="translate(12.505 5.781)" fill="#455a64"/><path d="M294.257,111.9a3.109,3.109,0,0,1,1.129-1.811c1.35-1.073,3.108-1.139,4.775-1.182a20.277,20.277,0,0,0,1.956-6.338,4.045,4.045,0,0,1-2.252-.642,2.254,2.254,0,0,1-.37-.113c-1.6-.735-1.763-3.131-.751-4.578s2.745-2.169,4.387-2.819c-1.209.074-2.241.873-3.4,1.233s-2.784-.038-2.921-1.241A2.624,2.624,0,0,1,297,93.323q.337-1.067.678-2.134a2.379,2.379,0,0,1,.94-1.489,5.585,5.585,0,0,1,1.232-.3c1.352-.364,2.051-2.005,3.4-2.384.992-.279,2.016.21,3.019.447s2.331.041,2.642-.942a9.62,9.62,0,0,1-3.436-2.905,3.3,3.3,0,0,1,.326-4.155,4.854,4.854,0,0,1,3.4-.7c1.322.058,2.964.358,3.314,1.634a3.438,3.438,0,0,1,4.22,2.7l3.4-.345c-.952-1.022-2.3-1.645-3.121-2.774s-.669-3.165.7-3.457a9.415,9.415,0,0,0,1.517-.133c.342-.136.625-.446.992-.459a1.317,1.317,0,0,1,.735.288l7.19,4.691q-.971-2.26-1.944-4.519c-.6-1.389-1.062-3.3.183-4.164,1.2-.831,2.959.369,3.214,1.809a2.336,2.336,0,0,1,2.842,2.151,2.369,2.369,0,0,1,2.784,3.616,6.725,6.725,0,0,1,3.421,1.021,2.061,2.061,0,0,1,3.331-1.419,3.586,3.586,0,0,1,.527-2.05,1.241,1.241,0,0,1,1.855-.207,2.408,2.408,0,0,1,3.9-2.357l1.186-1.435a3.169,3.169,0,0,1,3.055,1.586c.5,1.11-.336,2.708-1.549,2.6.852-.014.658,1.346.161,2.039q-1.04,1.445-2.081,2.892a2.664,2.664,0,0,1,3.3-.292,2.062,2.062,0,0,1,2.981.023,1.67,1.67,0,0,1,3,.506c.211-.556.976-.59,1.568-.526a3.886,3.886,0,0,1,2.377.817c.608.6.6,1.845-.2,2.142.728-.409,1.666.394,1.678,1.228a2.987,2.987,0,0,1-1.2,2.112,6.975,6.975,0,0,0-1.713,1.8,3.519,3.519,0,0,1,2.4-.507,9.126,9.126,0,0,1,4.351.867c.255-.588,1.074-.615,1.7-.487a10.184,10.184,0,0,1,5.186,2.821c.662.673,1.256,1.682.8,2.51a2.53,2.53,0,0,1-.953.847L369.7,99.2a12.566,12.566,0,0,1,6.309,4.471c.923.535,2.094.592,2.928,1.258s.774,2.425-.294,2.423a1.958,1.958,0,0,1,.567,2.271,1.862,1.862,0,0,1-.721.794,2.623,2.623,0,0,1-.5.572,3.617,3.617,0,0,1-1.24.65,2.415,2.415,0,0,1-2.063.952,9.819,9.819,0,0,1,2.194,2.6,4.118,4.118,0,0,1,0,4.234,2.284,2.284,0,0,1-.163.179,2.011,2.011,0,0,1-.883,1.28,1.7,1.7,0,0,1,.163,1.125A4.5,4.5,0,0,1,377,129.9c-1.062.75-3.03.612-3.129-.684a3.5,3.5,0,0,1-2.663,1.937,3.4,3.4,0,0,1-1.777,4.677,3.619,3.619,0,0,1-1.138,5.921,2.772,2.772,0,1,1-5.237,1.818,5.888,5.888,0,0,1-2.075,2.6,2.035,2.035,0,0,1-2.869-.75,3.806,3.806,0,0,1-5.6,1.811,2.462,2.462,0,0,1-4.895.434q-3.179-.032-6.358-.061a22.748,22.748,0,0,1-4.2-.3,11.384,11.384,0,0,1-4.844-2.242,3.844,3.844,0,0,0-1.468-.893,3.948,3.948,0,0,0-1.944.3,10.293,10.293,0,0,1-9.773-2.31,5.129,5.129,0,0,0-1.288-1.028,4.644,4.644,0,0,0-1.877-.26,18.608,18.608,0,0,1-4.621-.666,4.912,4.912,0,0,1-3.26-2.139c-.609-1.193.106-3.035,1.445-3.013a2.877,2.877,0,0,0-.71-2.415,1.73,1.73,0,0,0-2.348-.1,1.246,1.246,0,0,0,.572,2.031c-1.438.991-3.672-.4-3.708-2.147a3.438,3.438,0,0,1,3.446-3.208,7.908,7.908,0,0,1-.1-3.846,2.827,2.827,0,0,1-3.852.437,4.875,4.875,0,0,1-3.154,2.267,2.921,2.921,0,0,1-3.224-1.76,2.1,2.1,0,0,1,2-2.707,2.512,2.512,0,0,1,2.232-3.635,3.908,3.908,0,0,1,2.385-4.149,2.057,2.057,0,0,1-2.926-1.129c-.81,1.276-2.78.964-4.084.2-1.024-.6-2-1.455-1.7-2.987" transform="translate(59.279 14.499)" fill="#263238"/><path d="M294.261,111.937a1.921,1.921,0,0,0-.073.519,2.251,2.251,0,0,0,.485,1.465,4.981,4.981,0,0,0,2.115,1.451,4.3,4.3,0,0,0,1.648.28,2.055,2.055,0,0,0,1.677-.886l-.138-.02a2.142,2.142,0,0,0,3.047,1.187l-.081-.163a4.019,4.019,0,0,0-2.461,4.252l.118-.126a2.424,2.424,0,0,0-2.186,1.174,2.474,2.474,0,0,0-.161,2.634l.119-.187a2.117,2.117,0,0,0-2.13,1.6,2.319,2.319,0,0,0,1.074,2.636,3.356,3.356,0,0,0,3.064.284,5.428,5.428,0,0,0,2.484-2.116l-.221.035a2.99,2.99,0,0,0,4.072-.457l-.281-.133a8.1,8.1,0,0,0,.095,3.925l.159-.211a3.858,3.858,0,0,0-2.367.879,3.241,3.241,0,0,0-1.245,2.29,2.7,2.7,0,0,0,1.253,2.359,2.43,2.43,0,0,0,2.725.144l.406-.28-.485-.052a1.007,1.007,0,0,1-.709-1.194,1.1,1.1,0,0,1,1.205-.878,1.706,1.706,0,0,1,1.451.882,2.959,2.959,0,0,1,.321,1.831l.2-.169a1.653,1.653,0,0,0-1.265.588,2.556,2.556,0,0,0-.39,2.64,3.254,3.254,0,0,0,.852,1.092,6.6,6.6,0,0,0,2.447,1.191,18.7,18.7,0,0,0,2.676.553c1.8.376,3.875-.354,5.05,1.313a10.36,10.36,0,0,0,5.13,2.64,10.582,10.582,0,0,0,2.976.175,15.111,15.111,0,0,0,2.922-.639,1.793,1.793,0,0,1,1.3.145,10.732,10.732,0,0,1,1.187.876,11.765,11.765,0,0,0,2.711,1.515,16.278,16.278,0,0,0,6.206.894l6.379.066-.234-.2a2.7,2.7,0,0,0,5.378-.476l-.389.2a4.057,4.057,0,0,0,5.977-1.932l-.473.007a1.849,1.849,0,0,0,1.358,1.129,2.65,2.65,0,0,0,1.791-.205,5.944,5.944,0,0,0,2.255-2.739l-.465-.035a3.027,3.027,0,1,0,5.72-1.985l-.165.33a3.611,3.611,0,0,0,2.308-2.751,3.655,3.655,0,0,0-1.083-3.616l-.081.449a3.664,3.664,0,0,0,1.921-5.055l-.195.392a3.781,3.781,0,0,0,2.867-2.086l-.5-.094a1.376,1.376,0,0,0,.412.881,1.825,1.825,0,0,0,.833.433,3.011,3.011,0,0,0,1.772-.148A4.494,4.494,0,0,0,378.9,127.8a4.618,4.618,0,0,0-.185-3.544,4.875,4.875,0,0,0-2.634-2.458l.168.306a1.98,1.98,0,0,0-.186-1.3l-.1.352a2.287,2.287,0,0,0,1.008-1.449l-.061.117a4.008,4.008,0,0,0,.514-4.017,8.754,8.754,0,0,0-2.56-3.375l-.205.472a2.688,2.688,0,0,0,2.3-1.059l-.135.1a3.4,3.4,0,0,0,1.89-1.33l-.079.077a2.036,2.036,0,0,0,.995-1.659,2.232,2.232,0,0,0-.821-1.849l-.168.488a1.041,1.041,0,0,0,.86-.435,1.586,1.586,0,0,0,.275-.865,1.986,1.986,0,0,0-.676-1.614c-.942-.728-2.107-.773-2.956-1.277l.082.073a12.878,12.878,0,0,0-6.447-4.569l.064.5,2.113-1.308,1.6-.992a13.318,13.318,0,0,0,1.61-1.072,1.629,1.629,0,0,0,.513-.973,2.04,2.04,0,0,0-.167-1.056,4.613,4.613,0,0,0-1.2-1.567A10.5,10.5,0,0,0,371.1,90.47a10.3,10.3,0,0,0-1.829-.544,2.809,2.809,0,0,0-1.024-.017,1.207,1.207,0,0,0-.922.674l.388-.127a7.77,7.77,0,0,0-3.5-.863c-.592-.028-1.163-.062-1.773-.044a2.948,2.948,0,0,0-1.794.573l.415.334c.517-1.022,1.773-1.562,2.515-2.7a2.033,2.033,0,0,0,.244-2.028,1.767,1.767,0,0,0-.761-.769,1.211,1.211,0,0,0-1.141,0l.226.49a1.226,1.226,0,0,0,.726-.782,1.8,1.8,0,0,0,.018-1,1.737,1.737,0,0,0-.509-.859,2.559,2.559,0,0,0-.811-.5,6.637,6.637,0,0,0-1.745-.351,3.015,3.015,0,0,0-.935.042,1.117,1.117,0,0,0-.835.664l.519.065a1.935,1.935,0,0,0-3.508-.592l.445-.058a2.322,2.322,0,0,0-3.383-.025l.359-.037a2.928,2.928,0,0,0-3.641.311l.4.35q.887-1.231,1.764-2.453a3.466,3.466,0,0,0,.735-1.417,1.807,1.807,0,0,0,0-.871.842.842,0,0,0-.286-.446.831.831,0,0,0-.517-.163l-.019.527A1.8,1.8,0,0,0,352.63,76.8a2.228,2.228,0,0,0,.078-1.976,3.452,3.452,0,0,0-3.276-1.684l-.117,0-.076.091-1.185,1.433.368-.034a2.668,2.668,0,0,0-4.318,2.612l.454-.214a1.246,1.246,0,0,0-1.228-.4,1.706,1.706,0,0,0-1.052.643,3.881,3.881,0,0,0-.56,2.165l.436-.167a2.312,2.312,0,0,0-3.763,1.605l.387-.22a6.962,6.962,0,0,0-3.55-1.057l.2.4A2.618,2.618,0,0,0,332.347,76l.339.229a2.575,2.575,0,0,0-3.155-2.386l.308.192a2.886,2.886,0,0,0-.966-1.628,2.463,2.463,0,0,0-1.778-.645,1.888,1.888,0,0,0-1.523,1.131,3.227,3.227,0,0,0-.145,1.827,15.205,15.205,0,0,0,1.179,3.244q.667,1.552,1.326,3.079l.342-.288-4.442-2.892-2.172-1.415a5.641,5.641,0,0,0-1.173-.67,1.043,1.043,0,0,0-.775.121c-.208.114-.374.24-.533.31a3.416,3.416,0,0,1-1.17.1,1.663,1.663,0,0,0-1.258.61,2.753,2.753,0,0,0-.254,2.588,4.764,4.764,0,0,0,1.648,1.925,15.5,15.5,0,0,1,1.833,1.513l.136-.358-3.4.348.229.18a3.64,3.64,0,0,0-4.486-2.863l.256.141a2.344,2.344,0,0,0-1.733-1.514,8.434,8.434,0,0,0-2.193-.28,6.205,6.205,0,0,0-2.17.242,2.673,2.673,0,0,0-1.63,1.447,3.958,3.958,0,0,0,.706,4,11.429,11.429,0,0,0,3.127,2.434l-.078-.209a1.4,1.4,0,0,1-1.185.866,3.466,3.466,0,0,1-1.609-.136,11.612,11.612,0,0,0-1.65-.41,2.552,2.552,0,0,0-1.689.326c-.983.6-1.556,1.573-2.452,2a14.184,14.184,0,0,1-1.483.383,1.978,1.978,0,0,0-1.007,1.239q-.454,1.433-.892,2.805a1.744,1.744,0,0,0,.112,1.491,1.986,1.986,0,0,0,1.228.8,3.227,3.227,0,0,0,1.409.02,6.412,6.412,0,0,0,1.269-.477,6.763,6.763,0,0,1,2.353-.824l-.058-.258a16,16,0,0,0-2.79,1.337,5.187,5.187,0,0,0-1.956,2.087,3.819,3.819,0,0,0-.189,2.625,2.354,2.354,0,0,0,1.691,1.683l-.028-.012a4.087,4.087,0,0,0,2.309.649l-.1-.108a20.3,20.3,0,0,1-1.922,6.321l.06-.038a12,12,0,0,0-3.19.387,4.465,4.465,0,0,0-1.931,1.132,3.068,3.068,0,0,0-.685,1.123,1.918,1.918,0,0,0-.1.419,3.185,3.185,0,0,1,.833-1.493,4.447,4.447,0,0,1,1.91-1.08,12.005,12.005,0,0,1,3.164-.35h.041l.019-.037a20.1,20.1,0,0,0,1.988-6.357l.016-.109h-.114a3.909,3.909,0,0,1-2.194-.633l-.016-.01-.012,0a2.138,2.138,0,0,1-1.532-1.549,3.587,3.587,0,0,1,.193-2.461,4.946,4.946,0,0,1,1.876-1.974,15.947,15.947,0,0,1,2.751-1.3l.786-.31-.843.052a6.972,6.972,0,0,0-2.455.837,6.26,6.26,0,0,1-1.209.452,2.938,2.938,0,0,1-1.281-.025,1.693,1.693,0,0,1-1.044-.674,1.431,1.431,0,0,1-.072-1.245q.438-1.361.9-2.78a1.669,1.669,0,0,1,.834-1.051,12.016,12.016,0,0,0,1.5-.384c1.013-.493,1.594-1.479,2.483-2,.894-.579,2.005-.192,3.072.129a3.817,3.817,0,0,0,1.765.149,1.756,1.756,0,0,0,1.468-1.108l.042-.136L309,86.411a11.091,11.091,0,0,1-3.024-2.357,3.589,3.589,0,0,1-.646-3.612,2.285,2.285,0,0,1,1.407-1.235,5.878,5.878,0,0,1,2.032-.214,8.115,8.115,0,0,1,2.087.268,1.945,1.945,0,0,1,1.455,1.238l.054.2.2-.062a3.235,3.235,0,0,1,3.951,2.532l.031.2.2-.019,3.4-.341.43-.042-.3-.316a15.572,15.572,0,0,0-1.88-1.563,4.382,4.382,0,0,1-1.505-1.737,2.334,2.334,0,0,1,.191-2.157,1.207,1.207,0,0,1,.931-.442,3.574,3.574,0,0,0,1.329-.131c.446-.217.727-.506,1.018-.4a5.8,5.8,0,0,1,1.037.614l2.17,1.418,4.436,2.9.648.423-.305-.711q-.656-1.53-1.322-3.081a14.9,14.9,0,0,1-1.14-3.136,2.76,2.76,0,0,1,.113-1.554,1.407,1.407,0,0,1,1.128-.846,2.33,2.33,0,0,1,2.219,1.877l.049.269.258-.077a2.1,2.1,0,0,1,2.527,1.915V76.6l.34-.138a2.121,2.121,0,0,1,2.491,3.237l-.294.39.49.011a6.48,6.48,0,0,1,3.291.984l.407.256-.019-.475a1.812,1.812,0,0,1,2.9-1.234l.407.41.029-.577a3.422,3.422,0,0,1,.46-1.885c.321-.46,1.153-.644,1.465-.226l.711.958-.257-1.171a2.15,2.15,0,0,1,3.481-2.1l.2.168.167-.2,1.186-1.432-.191.095a2.941,2.941,0,0,1,2.784,1.389c.467.9-.246,2.367-1.264,2.271l-.019.527c.166.01.231.053.287.227a1.329,1.329,0,0,1-.012.613,2.93,2.93,0,0,1-.649,1.218q-.88,1.222-1.765,2.453l.4.35a2.4,2.4,0,0,1,2.957-.273l.2.15.161-.187a1.8,1.8,0,0,1,2.576.02l.275.328.171-.386a1.41,1.41,0,0,1,2.49.421l.12,1.346.4-1.281c.106-.341.7-.416,1.217-.36a6.245,6.245,0,0,1,1.6.315,1.492,1.492,0,0,1,1,.989c.126.463-.019,1.01-.409,1.14l.226.489c.369-.227.934.093,1.155.548a1.5,1.5,0,0,1-.217,1.487c-.6.983-1.868,1.508-2.541,2.749l-.639,1.18L361,90.541c.792-.636,2.057-.429,3.189-.4a7.256,7.256,0,0,1,3.255.791l.278.161.109-.29c.147-.383.805-.446,1.344-.336a9.768,9.768,0,0,1,1.725.514,9.943,9.943,0,0,1,3.051,1.927,4.086,4.086,0,0,1,1.065,1.377,1.183,1.183,0,0,1-.219,1.423,14.062,14.062,0,0,1-1.52,1l-1.6.991-2.113,1.308-.512.317.574.177a12.336,12.336,0,0,1,6.171,4.372l.035.047.048.026c1.018.573,2.149.631,2.891,1.233a1.454,1.454,0,0,1,.47,1.163c-.016.442-.238.8-.59.777l-.863-.05.7.538a1.691,1.691,0,0,1,.612,1.393,1.483,1.483,0,0,1-.745,1.228l-.049.03-.03.048a2.852,2.852,0,0,1-1.6,1.114l-.084.025-.052.07a2.151,2.151,0,0,1-1.824.846l-.818-.077.613.549a8.26,8.26,0,0,1,2.416,3.155,3.481,3.481,0,0,1-.41,3.476l-.046.049-.016.068a1.754,1.754,0,0,1-.759,1.11l-.216.127.115.225a1.447,1.447,0,0,1,.141.948l-.049.225.217.082a4.344,4.344,0,0,1,2.339,2.186,4.078,4.078,0,0,1,.165,3.139,4,4,0,0,1-1.97,2.325,2.486,2.486,0,0,1-1.449.125.97.97,0,0,1-.841-.836l-.061-1.038-.442.944a3.259,3.259,0,0,1-2.457,1.79l-.39.047.195.345a3.147,3.147,0,0,1-1.632,4.3l-.458.143.376.306a3.145,3.145,0,0,1,.907,3.1,3.1,3.1,0,0,1-1.958,2.369l-.255.078.089.252a2.515,2.515,0,1,1-4.752,1.651l-.19-.568-.275.533a5.52,5.52,0,0,1-2.035,2.526,1.779,1.779,0,0,1-2.449-.645l-.241-.716-.232.725a3.385,3.385,0,0,1-2.3,2.093,3.346,3.346,0,0,1-2.912-.4l-.4-.3.014.5a2.22,2.22,0,0,1-4.413.39l-.029-.2h-.207l-6.379-.058a15.848,15.848,0,0,1-6.041-.851A11.254,11.254,0,0,1,332.6,145.1a10.759,10.759,0,0,0-1.248-.911,2.249,2.249,0,0,0-1.609-.186,14.929,14.929,0,0,1-2.869.637,10.153,10.153,0,0,1-2.851-.163,9.926,9.926,0,0,1-4.923-2.518,5.458,5.458,0,0,0-1.128-.919,3.243,3.243,0,0,0-1.437-.333,22.284,22.284,0,0,1-2.726-.163,18.065,18.065,0,0,1-2.617-.535,6.187,6.187,0,0,1-2.3-1.1,2.245,2.245,0,0,1-.9-2.109,1.607,1.607,0,0,1,1.435-1.517l.175,0,.02-.175a3.342,3.342,0,0,0-.377-2.071,2.091,2.091,0,0,0-1.772-1.066,1.484,1.484,0,0,0-1.581,1.2,1.37,1.37,0,0,0,1.028,1.614l-.079-.333a2.073,2.073,0,0,1-2.318-.138,2.349,2.349,0,0,1-1.1-2.044,3.314,3.314,0,0,1,3.264-2.856h.219l-.06-.21a7.775,7.775,0,0,1-.1-3.764l.154-.685-.435.551a2.684,2.684,0,0,1-3.631.418l-.127-.108-.094.142a5.138,5.138,0,0,1-2.335,2.012,3.074,3.074,0,0,1-2.811-.245,2.048,2.048,0,0,1-.973-2.331,1.868,1.868,0,0,1,1.851-1.431l.246.03-.127-.219a2.4,2.4,0,0,1,2.117-3.459l.139.014-.022-.141a3.828,3.828,0,0,1,2.31-4.047l-.081-.163a1.981,1.981,0,0,1-2.8-1.073l-.044-.173-.094.153a1.909,1.909,0,0,1-1.555.833,4.186,4.186,0,0,1-1.6-.254,4.94,4.94,0,0,1-2.092-1.39,2.247,2.247,0,0,1-.508-1.417c0-.345.049-.517.034-.519" transform="translate(59.276 14.459)" fill="#455a64"/><path d="M349.794,113.135a20.268,20.268,0,0,0-19.882-21.358,20.868,20.868,0,0,0-21.143,19.069c-.833,9.438-1.457,18.951-1.192,22.374.8,10.323,7.216,13.948,9.79,14.995a13.81,13.81,0,0,0,2.813.5.069.069,0,0,1,.064.077l-1.57,12.011c-.557,7.839-2.277,34.495,5.7,35.115,8,.624,20.4-25.756,21.1-33.611Z" transform="translate(61.962 18.491)" fill="#ffbe9d"/><path d="M311.157,114.1a1.648,1.648,0,0,0,1.473,1.781,1.6,1.6,0,0,0,1.845-1.346A1.651,1.651,0,0,0,313,112.754a1.6,1.6,0,0,0-1.847,1.347" transform="translate(62.693 22.716)" fill="#263238"/><path d="M310.733,110.1c.19.231,1.532-.591,3.328-.447,1.8.119,3.041,1.131,3.254.929.1-.088-.075-.49-.615-.946a4.633,4.633,0,0,0-2.582-1.009,4.489,4.489,0,0,0-2.672.624c-.588.374-.806.746-.712.849" transform="translate(62.606 21.885)" fill="#263238"/><path d="M325.137,115.213a1.648,1.648,0,0,0,1.473,1.781,1.6,1.6,0,0,0,1.846-1.346,1.651,1.651,0,0,0-1.472-1.782,1.6,1.6,0,0,0-1.847,1.347" transform="translate(65.51 22.94)" fill="#263238"/><path d="M325.416,111.517c.19.229,1.533-.591,3.329-.447,1.8.119,3.041,1.131,3.254.929.1-.088-.073-.49-.615-.946a4.641,4.641,0,0,0-2.583-1.009,4.488,4.488,0,0,0-2.671.624c-.586.374-.807.746-.714.849" transform="translate(65.564 22.17)" fill="#263238"/><path d="M319.829,124.2a12.106,12.106,0,0,0-2.876-.745c-.455-.082-.883-.205-.934-.519a2.265,2.265,0,0,1,.417-1.312l1.642-3.328c2.291-4.741,3.99-8.654,3.794-8.743s-2.21,3.683-4.5,8.425q-.831,1.754-1.587,3.352a2.585,2.585,0,0,0-.386,1.751,1.141,1.141,0,0,0,.7.719,3.2,3.2,0,0,0,.77.167,11.96,11.96,0,0,0,2.959.234" transform="translate(63.54 22.074)" fill="#263238"/><path d="M318.188,139.73s6.894,1.1,16-3.35c-.55.272-3.182,10.418-16.423,6.587Z" transform="translate(64.027 27.479)" fill="#eb996e"/><path d="M319.453,125.5a3.288,3.288,0,0,1,3-.955,2.956,2.956,0,0,1,1.952,1.234,1.82,1.82,0,0,1-.031,2.116,2.216,2.216,0,0,1-2.405.4,6.8,6.8,0,0,1-2.186-1.526,1.976,1.976,0,0,1-.47-.562.584.584,0,0,1,.056-.657" transform="translate(64.324 25.084)" fill="#eb996e"/><path d="M324.422,123.1c-.291-.04-.454,1.877-2.237,3.107s-3.842.858-3.88,1.125c-.037.118.433.409,1.308.5a4.946,4.946,0,0,0,3.23-.83,4.173,4.173,0,0,0,1.751-2.614c.141-.8-.037-1.287-.172-1.287" transform="translate(64.135 24.804)" fill="#263238"/><path d="M325.462,106.693c.137.494,1.951.406,4.039.821,2.1.372,3.746,1.111,4.062.7.142-.2-.118-.67-.767-1.189a6.9,6.9,0,0,0-2.948-1.28,6.979,6.979,0,0,0-3.224.12c-.8.246-1.221.592-1.163.827" transform="translate(65.577 21.281)" fill="#263238"/><path d="M311.5,106.26c.284.425,1.556.106,3.046.2,1.495.046,2.729.484,3.053.088.144-.195-.02-.612-.541-1.034a4.486,4.486,0,0,0-4.914-.232c-.56.371-.768.77-.644.977" transform="translate(62.758 21.088)" fill="#263238"/><path d="M306.408,99.278a12.853,12.853,0,0,1,.255-1.715,5.192,5.192,0,0,1,1.523-2.14c2.183-2.143,4.486-4.358,7.234-5.068,1.68-.433,3.422-.272,5.1-.688a29.4,29.4,0,0,0,3.052-1.108c4.191-1.555,8.665-1.429,12.958-.7a20.579,20.579,0,0,1,6.961,2.259,24.927,24.927,0,0,1,6.241,5.678,38.037,38.037,0,0,1,6.954,11.2,18.617,18.617,0,0,1,1,10.572c-.828,3.523-3.319,6.683-6.368,7.17q-.53-.724-1.062-1.448l-1.7-2.145c.281.855,0,.793-.715,1.2a1.459,1.459,0,0,1-2.016-.75c-.614.694-1.813-.167-1.558-1.119-.714.324-1.531-.668-1.239-1.507-.818.238-1.181-1.081-1.523-1.973a13.617,13.617,0,0,0-.7-1.371,8.9,8.9,0,0,1-.9-4.868c-.932-1.259-1.04-3.09-1.107-4.786q-.061-1.586-.123-3.173c-.175-.258-.35-.518-.525-.777a1.712,1.712,0,0,1-1.266,1.536,3.658,3.658,0,0,1-1.9-.187l-1.847-.52-1.2.244a4.764,4.764,0,0,1-.6,3.029,2.96,2.96,0,0,1-1.226,1.617.889.889,0,0,1-1.158-1.051.987.987,0,0,1-1.5-.365,3.233,3.233,0,0,1-.264-1.969,8.28,8.28,0,0,1,1.878-4.429q-1.754,1.395-3.51,2.789a1.533,1.533,0,0,1-.839.424.865.865,0,0,1-1,.876,2.248,2.248,0,0,1-1.14-.917c-.726-.9-1.45-2.386-.666-3.268a.709.709,0,0,1-.23-1.06l-3.931,2.512c.387-.184.749.424.627.9a1.967,1.967,0,0,1-.86,1.034,2.9,2.9,0,0,1,.282,1.789c.715-.543,1.624.646,1.331,1.586a2.1,2.1,0,0,1-2.081,1.367,1.46,1.46,0,0,1-1.561-1.214c-.827.106-1.519-1.077-1.153-1.969-.619.345-1.048-.753-1.016-1.555a11.539,11.539,0,0,1,.929-4.071.215.215,0,0,1-.306.061.242.242,0,0,1-.066-.162q-1.171,2.3-2.342,4.593a11.908,11.908,0,0,0-1.49,4.14c-.061.606-.2,1.433-.712,1.447a.767.767,0,0,1-.393-.139,7.637,7.637,0,0,1-3.018-4.154,5.769,5.769,0,0,1-.364-1.83c-.008-1.312.638-2.524.839-3.822" transform="translate(61.569 17.598)" fill="#263238"/><path d="M341.22,114.608c.18-.065,7.213-1.65,6.545,5.383s-7.59,4.91-7.583,4.707,1.038-10.09,1.038-10.09" transform="translate(68.544 23.053)" fill="#ffbe9d"/><path d="M342.182,121.839c.032-.019.113.1.311.213a1.241,1.241,0,0,0,.916.106,3.051,3.051,0,0,0,1.659-2.587,4.019,4.019,0,0,0-.177-1.787,1.419,1.419,0,0,0-.83-1.027.627.627,0,0,0-.756.267c-.113.187-.082.333-.119.341-.022.016-.141-.132-.058-.418a.785.785,0,0,1,.321-.413.928.928,0,0,1,.694-.115,1.727,1.727,0,0,1,1.175,1.212,4.19,4.19,0,0,1,.239,2c-.181,1.412-1.031,2.67-2.077,2.867a1.318,1.318,0,0,1-1.1-.293c-.2-.193-.224-.354-.2-.365" transform="translate(68.945 23.453)" fill="#eb996e"/><path d="M319.925,96.911a1.759,1.759,0,0,1-.4-.947,1.247,1.247,0,0,1,.407-1.032,1.334,1.334,0,0,1,1.376-.231l.285.124-.1-.294A1.394,1.394,0,0,1,322,93a1.367,1.367,0,0,1,1.743.211l.251-.2a.616.616,0,0,1-.082-.185.788.788,0,0,1,.169-.652.9.9,0,0,1,.6-.314,1.518,1.518,0,0,1,.7.091,1.883,1.883,0,0,0,.774.243c.342-.031.513-.268.694-.365a2.637,2.637,0,0,1,.574-.291,3.04,3.04,0,0,1,1.152-.162,3.1,3.1,0,0,1,1.605.535c.335.234.482.417.5.4a1.391,1.391,0,0,0-.429-.5,3.012,3.012,0,0,0-1.665-.662,3.192,3.192,0,0,0-1.253.137,2.881,2.881,0,0,0-.643.306c-.216.13-.384.309-.557.306a1.851,1.851,0,0,1-.648-.233,1.8,1.8,0,0,0-.849-.118,1.219,1.219,0,0,0-.812.424,1.1,1.1,0,0,0-.233.926.907.907,0,0,0,.131.294l.251-.2a1.621,1.621,0,0,0-2.744,1.617l.181-.169a1.556,1.556,0,0,0-1.633.317,1.456,1.456,0,0,0-.089,1.963c.127.142.22.187.226.179" transform="translate(64.348 18.365)" fill="#455a64"/><path d="M313.265,98.784a2.161,2.161,0,0,1-.524-.932,1.578,1.578,0,0,1,.174-1.185,1.652,1.652,0,0,1,1.314-.794l.228-.011-.138-.185a1.973,1.973,0,0,1-.39-1.765,1.057,1.057,0,0,1,.693-.656.84.84,0,0,1,.923.2l.815,1.031L315.8,93.3a1.635,1.635,0,0,1,.03-1.381A1.506,1.506,0,0,1,317,91.078a1.6,1.6,0,0,1,1.043.2l.353.21-.119-.394c-.168-.56.436-1.141.99-1.167a2.7,2.7,0,0,1,1.632.56l.29.19-.067-.336a1.167,1.167,0,0,1,.476-1.092,2.171,2.171,0,0,1,1.121-.388,5.477,5.477,0,0,1,2.017.222,8.865,8.865,0,0,1,1.645.753,1.542,1.542,0,0,0-.372-.309,5.245,5.245,0,0,0-1.22-.609,5.451,5.451,0,0,0-2.089-.3,2.392,2.392,0,0,0-1.263.415,1.432,1.432,0,0,0-.6,1.359l.222-.148a2.953,2.953,0,0,0-1.818-.627,1.486,1.486,0,0,0-.97.473,1.136,1.136,0,0,0-.3,1.095l.234-.184a1.907,1.907,0,0,0-1.254-.239,1.824,1.824,0,0,0-1.407,1.016,1.942,1.942,0,0,0-.022,1.651l.258-.162a1.138,1.138,0,0,0-1.254-.292,1.344,1.344,0,0,0-.866.843,2.208,2.208,0,0,0,.464,2.008l.09-.2a1.846,1.846,0,0,0-1.471.94,1.745,1.745,0,0,0,.284,2.041c.137.135.23.18.234.173" transform="translate(62.973 17.854)" fill="#455a64"/><path d="M298.937,98.681a1.194,1.194,0,0,1,.483-.83,1.521,1.521,0,0,1,1.08-.287,4.5,4.5,0,0,1,1.474.485l.169.079-.008-.189a1.369,1.369,0,0,1,1.222-1.233,3.975,3.975,0,0,1,2.208.551l.953.451-.789-.7a1.124,1.124,0,0,1,.224-1.6,2.549,2.549,0,0,1,2.006-.3l.095.017.616.111-.488-.394a1.205,1.205,0,0,1,.3-1.888,1.825,1.825,0,0,1,2.006.369l.6.568-.372-.741a2.732,2.732,0,0,1,.246-2.768,2.548,2.548,0,0,1,1.968-1.031,2.877,2.877,0,0,1,1.471.32c.315.167.46.3.475.285s-.026-.043-.095-.111a1.846,1.846,0,0,0-.333-.256,2.812,2.812,0,0,0-1.522-.416,2.724,2.724,0,0,0-2.161,1.062,2.977,2.977,0,0,0-.309,3.048l.232-.173a2.115,2.115,0,0,0-2.355-.434,1.532,1.532,0,0,0-.782,1.095,1.351,1.351,0,0,0,.432,1.323l.129-.284-.1-.017a2.825,2.825,0,0,0-2.259.366,1.631,1.631,0,0,0-.567,1,1.174,1.174,0,0,0,.339,1.069l.163-.248a4.175,4.175,0,0,0-2.38-.545,1.607,1.607,0,0,0-1.4,1.509l.161-.109a4.561,4.561,0,0,0-1.555-.458,1.639,1.639,0,0,0-1.171.37,1.141,1.141,0,0,0-.41.658.484.484,0,0,0,.006.27" transform="translate(60.229 17.968)" fill="#455a64"/><path d="M307.478,84.3a.942.942,0,0,0,.4.185,5.435,5.435,0,0,0,1.226.171,3.668,3.668,0,0,1,1.748.418,1.126,1.126,0,0,1,.553.823.819.819,0,0,1-.4.9l.2.172c.1-.4.626-.615,1.1-.845a5.277,5.277,0,0,1,1.539-.512,1.921,1.921,0,0,1,1.489.362,1.275,1.275,0,0,1,.551,1.227l-.083.384.318-.234a3.544,3.544,0,0,1,2.142-.675,3.985,3.985,0,0,1,1.751.409,5.068,5.068,0,0,1,1.286.985,1.266,1.266,0,0,0-.24-.369,3.381,3.381,0,0,0-.96-.779,4,4,0,0,0-1.831-.5,3.738,3.738,0,0,0-2.326.687l.236.15a1.569,1.569,0,0,0-.651-1.536,2.228,2.228,0,0,0-1.722-.431,5.491,5.491,0,0,0-1.633.544,6.686,6.686,0,0,0-.726.384,1.16,1.16,0,0,0-.533.675l-.07.3.274-.123a1.1,1.1,0,0,0,.561-1.217,1.391,1.391,0,0,0-.694-1,3.71,3.71,0,0,0-1.876-.388,6.905,6.905,0,0,1-1.21-.082,3.818,3.818,0,0,0-.428-.09" transform="translate(61.954 16.984)" fill="#455a64"/><path d="M321,80.361a3.381,3.381,0,0,1,.822.187,2.012,2.012,0,0,1,.75.571,1.733,1.733,0,0,1,.416,1.11V82.4l.167-.042a1.051,1.051,0,0,1,1.1.751,3.181,3.181,0,0,1-.089,1.755l-.15.614.43-.477.069-.075a1.351,1.351,0,0,1,1.128-.358,1.514,1.514,0,0,1,1,.541,2.408,2.408,0,0,1,.477,1.928,4.435,4.435,0,0,1-.473,1.34,2.5,2.5,0,0,0-.238.481c.017.012.151-.127.346-.417a3.938,3.938,0,0,0,.588-1.364,2.593,2.593,0,0,0-.473-2.158,1.776,1.776,0,0,0-2.583-.215c-.03.034-.06.066-.086.1l.28.137A3.39,3.39,0,0,0,324.544,83a1.321,1.321,0,0,0-1.455-.906l.168.131a1.947,1.947,0,0,0-.519-1.254,2.065,2.065,0,0,0-.86-.572,1.685,1.685,0,0,0-.652-.095c-.151.017-.227.041-.226.053" transform="translate(64.679 16.181)" fill="#455a64"/><path d="M331.848,90.744a.836.836,0,0,0,.425-.059,2.641,2.641,0,0,0,1.015-.594,2.831,2.831,0,0,0,.861-1.529,1.451,1.451,0,0,1,.284-.847c.2-.208.6-.315.869-.662a1.6,1.6,0,0,0-.225-2.177l-.006.233a5.129,5.129,0,0,0,1.516-1.767,2.035,2.035,0,0,0,.3-.848c-.035-.013-.156.292-.449.761a5.614,5.614,0,0,1-1.533,1.617l-.161.113.155.121a1.317,1.317,0,0,1,.156,1.749c-.185.258-.542.353-.84.638a1.671,1.671,0,0,0-.353,1.018,2.716,2.716,0,0,1-.728,1.419,4.044,4.044,0,0,1-1.283.815" transform="translate(66.864 16.622)" fill="#455a64"/><path d="M335.047,92.669c0,.013.089.037.262.06a3.643,3.643,0,0,0,.759,0,4.254,4.254,0,0,0,2.458-1.131l-.205-.022a2.744,2.744,0,0,0,1.782,1.147,2.863,2.863,0,0,0,1.2-.038,1.745,1.745,0,0,0,1.079-.705,3.732,3.732,0,0,0,.165-.446.632.632,0,0,1,.223-.279,2,2,0,0,1,.761-.262,2.542,2.542,0,0,0,.846-.263.907.907,0,0,0,.518-.744l-.213.123a2.812,2.812,0,0,0,1.934.211,3.05,3.05,0,0,0,1.341-.688,2.5,2.5,0,0,0,.595-.771.809.809,0,0,0,.107-.329,3.977,3.977,0,0,1-.813.967,3,3,0,0,1-1.281.586,2.6,2.6,0,0,1-1.746-.231l-.205-.108-.008.231a.619.619,0,0,1-.375.489,2.3,2.3,0,0,1-.757.221,2.233,2.233,0,0,0-.887.31.957.957,0,0,0-.335.415c-.066.165-.09.311-.149.413a1.472,1.472,0,0,1-.881.554,2.558,2.558,0,0,1-1.061.042,2.489,2.489,0,0,1-1.612-.994l-.091-.133-.114.112a4.311,4.311,0,0,1-2.292,1.169c-.627.106-1,.058-1,.094" transform="translate(67.509 17.838)" fill="#455a64"/><path d="M358.313,103.583c.007,0,.023-.034.047-.106a1.954,1.954,0,0,0,.081-.326,3.383,3.383,0,0,0-.043-1.276,7.582,7.582,0,0,0-.7-1.856,7.015,7.015,0,0,0-.62-1.066,1.871,1.871,0,0,0-.517-.473.843.843,0,0,0-.779-.066l.189.148a2.121,2.121,0,0,0-3.286-2.135l.245.148a1.461,1.461,0,0,0-.488-1.241,1.406,1.406,0,0,0-1.341-.282,1.444,1.444,0,0,0-.664.419l.278.132a.913.913,0,0,0-.27-.776,1.246,1.246,0,0,0-.692-.36,2.878,2.878,0,0,0-1.388.231l.187.077a2.268,2.268,0,0,0-1.293-1.078,3.174,3.174,0,0,0-1.557-.133,8.023,8.023,0,0,0-2.5.986l.155.157a.562.562,0,0,0-.016-.558.974.974,0,0,0-.368-.333,1.641,1.641,0,0,0-.836-.2,4.568,4.568,0,0,0-1.3.274,4.237,4.237,0,0,0-.752.36.865.865,0,0,0-.233.174c.016.028.35-.2,1.026-.413a4.783,4.783,0,0,1,1.263-.213,1.473,1.473,0,0,1,.727.2c.232.13.419.375.282.6l-.2.335.358-.178a8.06,8.06,0,0,1,2.431-.917,2.928,2.928,0,0,1,1.417.136,1.982,1.982,0,0,1,1.116.938l.061.121.127-.044a2.641,2.641,0,0,1,1.236-.211c.377.054.762.413.7.773l-.1.555.375-.424a1.142,1.142,0,0,1,.515-.323,1.088,1.088,0,0,1,1.039.214,1.158,1.158,0,0,1,.387.967l-.041.344.286-.2a1.874,1.874,0,0,1,2.109.024,1.9,1.9,0,0,1,.733,1.8l-.046.261.234-.113c.357-.172.746.141.99.447a7.021,7.021,0,0,1,.618,1.014,7.831,7.831,0,0,1,.744,1.789,4.267,4.267,0,0,1,.068,1.672" transform="translate(68.478 18.844)" fill="#455a64"/><path d="M355.561,111.709c.008.006.07-.058.177-.189a4.848,4.848,0,0,0,.428-.606,2.268,2.268,0,0,0,.353-1.143,1.649,1.649,0,0,0-.178-.747,1.193,1.193,0,0,0-.651-.595l.052.177a1.489,1.489,0,0,0-1.389-2.411l.127.238a1.2,1.2,0,0,0,.074-1.419,1.776,1.776,0,0,0-1.3-.747,6.766,6.766,0,0,1-.71-.064.61.61,0,0,1-.407-.418,2.6,2.6,0,0,0-.352-.721,1.367,1.367,0,0,0-.712-.477,7.876,7.876,0,0,0-1.691-.186,1.847,1.847,0,0,1-1.337-.515c-.144-.177-.237-.416-.383-.645a1.585,1.585,0,0,0-.6-.55,1.681,1.681,0,0,0-1.495-.048l.169.214a1.266,1.266,0,0,0-.047-1.479,1.789,1.789,0,0,0-1.139-.691,5.654,5.654,0,0,0-2.1.08,6.9,6.9,0,0,0-1.288.39,1.644,1.644,0,0,0-.424.216,16.492,16.492,0,0,1,1.741-.446,5.754,5.754,0,0,1,2.021-.018,1.563,1.563,0,0,1,.978.612,1.008,1.008,0,0,1,.04,1.161l-.38.47.55-.257a1.4,1.4,0,0,1,1.233.056,1.3,1.3,0,0,1,.484.452,6.418,6.418,0,0,0,.4.676,1.669,1.669,0,0,0,.72.484,3.707,3.707,0,0,0,.833.154,7.912,7.912,0,0,1,1.617.174,1.063,1.063,0,0,1,.56.369,2.423,2.423,0,0,1,.311.65.928.928,0,0,0,.618.6,5.877,5.877,0,0,0,.753.067,1.48,1.48,0,0,1,1.085.6.913.913,0,0,1-.029,1.066l-.279.3.406-.066a1.259,1.259,0,0,1,1.306.67,1.288,1.288,0,0,1-.138,1.318l-.1.125.15.052a1.212,1.212,0,0,1,.723,1.134,2.22,2.22,0,0,1-.284,1.078c-.3.556-.521.837-.5.854" transform="translate(68.655 19.871)" fill="#455a64"/><path d="M354.555,126.415a.732.732,0,0,0,.317-.073,2.208,2.208,0,0,0,.775-.509,2.283,2.283,0,0,0,.65-1.3,2.423,2.423,0,0,0-.5-1.83v.171a4.407,4.407,0,0,0,.962-1.51,1.793,1.793,0,0,0,.013-1.022,1.308,1.308,0,0,0-.685-.852l.007.282a1.85,1.85,0,0,0,.936-1.591,2.068,2.068,0,0,0-.238-1.065,1.748,1.748,0,0,0-.767-.727c-.292-.16-.419-.315-.4-.622a2.53,2.53,0,0,0-.133-.949,3.217,3.217,0,0,0-1.075-1.37c-.4-.346-.77-.672-1.123-.959a5.328,5.328,0,0,0-1.862-1.079,2.447,2.447,0,0,0-.58-.1c-.136,0-.205,0-.205.017,0,.031.282.029.747.2a5.69,5.69,0,0,1,1.755,1.133l1.093.984a3.007,3.007,0,0,1,.972,1.268,2.25,2.25,0,0,1,.107.854.914.914,0,0,0,.131.538,1.231,1.231,0,0,0,.417.352,1.652,1.652,0,0,1,.083,2.834l-.285.145.293.137a1.268,1.268,0,0,1,.517,1.5,4.259,4.259,0,0,1-.883,1.423l-.07.087.07.084a2.221,2.221,0,0,1,.49,1.634,2.161,2.161,0,0,1-.548,1.221,3.163,3.163,0,0,1-.979.688" transform="translate(70.652 22.428)" fill="#455a64"/><path d="M331.706,101.38a2.394,2.394,0,0,0,.973-.3,2.691,2.691,0,0,0,.918-.668,1.762,1.762,0,0,0,.429-1.354,1.391,1.391,0,0,0-.1-.344l-.085.214a1.522,1.522,0,0,0,.872-.983A1.388,1.388,0,0,0,334.6,96.9c-.3-.538-.71-.624-.71-.591-.03.042.306.2.515.684a1.226,1.226,0,0,1,.037.872,1.28,1.28,0,0,1-.719.771l-.145.059.06.155a1.032,1.032,0,0,1,.074.26,1.523,1.523,0,0,1-.341,1.12,2.777,2.777,0,0,1-.793.654,4.822,4.822,0,0,0-.869.5" transform="translate(66.836 19.404)" fill="#455a64"/><path d="M325.854,97.878a1.871,1.871,0,0,1-.124-1.181,1.32,1.32,0,0,1,.834-.931,1.428,1.428,0,0,1,1.5.366l.183.2.076-.266a2.615,2.615,0,0,1,.442-.906,1.2,1.2,0,0,1,.842-.5c.514-.026,1.043.494.869.9l.294.087a2.429,2.429,0,0,1,1.007-1.509,2.381,2.381,0,0,1,1.407-.406,3.685,3.685,0,0,1,1.312.354c.008-.012-.083-.111-.294-.237a2.433,2.433,0,0,0-1.006-.312,2.5,2.5,0,0,0-1.564.378,2.664,2.664,0,0,0-1.164,1.67l.3.087a.894.894,0,0,0-.237-.949,1.271,1.271,0,0,0-.929-.386,1.5,1.5,0,0,0-1.08.625,2.853,2.853,0,0,0-.485,1.021l.257-.06a1.681,1.681,0,0,0-1.812-.406,1.507,1.507,0,0,0-.926,1.129,1.54,1.54,0,0,0,.1.949c.1.2.192.282.2.274" transform="translate(65.589 18.847)" fill="#455a64"/><path d="M276.966,401.378,272.922,421.3,259.6,422.558l-5.611-6.608,5.135-23.792Z" transform="translate(51.176 79.016)" fill="#ffbe9d"/><path d="M256.132,410.117l-.048,1.557s-25.5,9.845-25.909,14.847l50.066,1.241-.286-17.466c-7.525,3.425-15.325,3.639-23.823-.179" transform="translate(46.378 82.635)" fill="#ff725e"/><g transform="translate(318.651 498.284)" opacity="0.6"><g clip-path="url(#d)"><path d="M267.7,414.822a2.155,2.155,0,0,1,1.358,2.479,1.958,1.958,0,0,1-2.333,1.432A2.278,2.278,0,0,1,265.3,416.1a2.012,2.012,0,0,1,2.586-1.207" transform="translate(-265.213 -414.721)" fill="#fff"/></g></g><path d="M280.313,425.507l-.069-4.2-47.96.347s-2.7,1.4-2.449,4.119Z" transform="translate(46.306 84.89)" fill="#263238"/><path d="M251.589,411.569c0,.256,1.222.4,2.407,1.255,1.205.821,1.8,1.945,2.028,1.85.226-.044-.1-1.585-1.555-2.592s-2.928-.751-2.88-.514" transform="translate(50.693 82.883)" fill="#263238"/><path d="M247.176,413.333c-.061.246.988.709,1.794,1.812.836,1.079,1.02,2.255,1.263,2.25.229.046.433-1.45-.595-2.8s-2.451-1.5-2.462-1.26" transform="translate(49.803 83.263)" fill="#263238"/><path d="M244.882,419.483c.221.06.59-1.211-.006-2.629s-1.727-2-1.835-1.793c-.143.207.582.977,1.055,2.149.5,1.159.543,2.241.786,2.272" transform="translate(48.967 83.623)" fill="#263238"/><path d="M340.815,395.937c.19.651,0,25.5,0,25.5l-7.474,4.644-9.763-6.129-2.064-24.012Z" transform="translate(64.782 79.778)" fill="#ffbe9d"/><path d="M323.038,414.115s13.3,9.885,19.733,1.328l1.682,4.146,7.561,29.54a4.021,4.021,0,0,1-2.127,4.742,3.529,3.529,0,0,1-3.869-.775c-5.47-5.45-25.494-25.6-25.3-28.334l.078-7.253a3.685,3.685,0,0,1,2.241-3.394" transform="translate(64.622 83.44)" fill="#ff725e"/><path d="M349.239,452.708l-28.526-31.831.006,1.585a4.224,4.224,0,0,0,1.353,3.5,309.145,309.145,0,0,0,23.964,26.823c.881.885,2.552.109,3.2-.073" transform="translate(64.618 84.803)" fill="#263238"/><g transform="translate(386.295 500.602)" opacity="0.6"><g clip-path="url(#e)"><path d="M324.728,417.01a2.389,2.389,0,0,1,.618,3.024,2.069,2.069,0,0,1-2.857.668,2.521,2.521,0,0,1-.638-3.207,2.14,2.14,0,0,1,3.046-.35" transform="translate(-321.513 -416.65)" fill="#fff"/></g></g><path d="M337.614,434.524c.2.1,1-1.86,3.119-2.922,2.088-1.128,4.062-.609,4.107-.841.031-.091-.422-.381-1.258-.5a5.476,5.476,0,0,0-3.2.606,5.819,5.819,0,0,0-2.392,2.3c-.413.77-.467,1.323-.378,1.353" transform="translate(68.019 86.685)" fill="#263238"/><path d="M339.745,438.409c.171.161,1.311-1.06,3.155-1.622,1.833-.6,3.429-.252,3.486-.485.1-.191-1.62-.977-3.713-.3-2.1.654-3.114,2.308-2.928,2.408" transform="translate(68.451 87.796)" fill="#263238"/><path d="M333.65,429.22c.168.177,1.914-1.71,4.709-2.846,2.779-1.183,5.284-1.067,5.291-1.316.056-.2-2.6-.708-5.581.552-2.994,1.228-4.592,3.506-4.419,3.61" transform="translate(67.225 85.591)" fill="#263238"/><path d="M333.122,421.26c.1.223,2.065-.648,4.631-.756,2.565-.145,4.6.529,4.679.3.1-.184-1.958-1.266-4.715-1.117-2.757.124-4.709,1.4-4.595,1.576" transform="translate(67.12 84.56)" fill="#263238"/><path d="M339.181,421.437a3.37,3.37,0,0,0-.2-1.4,10.016,10.016,0,0,0-1.706-3.434,4.2,4.2,0,0,0-2.119-1.7,1.44,1.44,0,0,0-1.568.657,2.608,2.608,0,0,0-.258,1.767,5.206,5.206,0,0,0,5.335,4.051,6.065,6.065,0,0,0,5.212-4.365,2.266,2.266,0,0,0-.222-1.8,1.4,1.4,0,0,0-1.623-.495,5.169,5.169,0,0,0-2.087,1.712,11.087,11.087,0,0,0-1.884,3.326,3.5,3.5,0,0,0-.312,1.376,17.654,17.654,0,0,1,2.608-4.313,4.806,4.806,0,0,1,1.854-1.445.749.749,0,0,1,.887.264,1.559,1.559,0,0,1,.079,1.193,5.405,5.405,0,0,1-4.561,3.729,4.512,4.512,0,0,1-4.575-3.37,1.889,1.889,0,0,1,.131-1.242.781.781,0,0,1,.86-.376,3.782,3.782,0,0,1,1.819,1.406,14.788,14.788,0,0,1,2.332,4.461" transform="translate(67.153 83.545)" fill="#263238"/><path d="M368.965,225.5a124.848,124.848,0,0,1,9.319,25.133c4.113,15.524,8.732,23.32,7.052,51.934-.858,14.6-12.934,54.234-15.716,68.182-2.29,11.479-9.45,65.422-13.079,79.679H335.746l-2.117-159.675S300.58,383.933,296.345,394.7s-18.895,53.446-18.895,53.446l-25.861-6.88,19.73-95.394c3.932-19.009,14.616-72.679,19.154-88.837s8.841-33.2,8.841-33.2Z" transform="translate(50.693 45.102)" fill="#263238"/><path d="M347.176,248.747c-.037.016.041.294.214.792a12.328,12.328,0,0,0,.936,2.014,17.2,17.2,0,0,0,4.816,5.379,16.262,16.262,0,0,0,6.5,2.831,10.871,10.871,0,0,0,2.129.209c.506,0,.782-.026.783-.067,0-.109-1.108-.143-2.831-.559a18.185,18.185,0,0,1-6.255-2.91,19.063,19.063,0,0,1-4.8-5.11c-.978-1.543-1.4-2.62-1.495-2.578" transform="translate(69.951 50.12)" fill="#455a64"/><path d="M282.187,259.847c-.007.041.263.119.761.225a11.322,11.322,0,0,0,2.14.231,13.365,13.365,0,0,0,3.19-.32,14.727,14.727,0,0,0,3.693-1.408,18.145,18.145,0,0,0,5.43-4.763,10.43,10.43,0,0,0,1.609-2.565,29.693,29.693,0,0,0-1.918,2.288,20.455,20.455,0,0,1-5.389,4.507,14.888,14.888,0,0,1-6.619,1.835c-1.776.055-2.881-.139-2.9-.029" transform="translate(56.858 50.623)" fill="#455a64"/><path d="M319.765,250.9a5.674,5.674,0,0,0-.225,1.288c-.111.834-.234,2.044-.357,3.542-.248,3-.448,7.151-.411,11.742s.311,8.743.609,11.735c.149,1.5.292,2.7.417,3.534a5.789,5.789,0,0,0,.246,1.284,5.732,5.732,0,0,0-.024-1.31q-.1-1.449-.233-3.544c-.193-2.993-.4-7.13-.44-11.7s.1-8.712.241-11.707q.1-2.1.173-3.549a5.693,5.693,0,0,0,0-1.31" transform="translate(64.229 50.554)" fill="#455a64"/><path d="M354.452,148.768l18.83,8.98-2.625,34.336s-2.219,2.6-5.828,21,8.454,54.208,8.454,54.208l-88.617,2.218s10.4-74.268,11.6-84.1l4.424-37.55,17.815-.973h5.136l4.427,32.009,22.3-31.041Z" transform="translate(57.357 29.597)" fill="#455a64"/><path d="M275.32,205.971a5.093,5.093,0,0,0,.274-2.023,14.381,14.381,0,0,0-.819-4.861,13.946,13.946,0,0,0-2.392-4.256c-.8-.952-1.419-1.4-1.462-1.352-.142.126,2.092,2.261,3.315,5.815,1.274,3.534.9,6.677,1.085,6.677" transform="translate(54.587 38.983)" fill="#263238"/><path d="M246.419,206.68l31.562-.275,11.938-35.253a137.424,137.424,0,0,1,6.243-12.432c6.325-11.628,14.358-11.018,14.358-11.018l9.689,15.069L309.923,185.85s-9.844,43.523-21.248,45.434c-18.939,3.176-52.833-9.915-52.833-9.915Z" transform="translate(47.52 29.759)" fill="#455a64"/><g transform="translate(349.278 243.784)" opacity="0.2"><g clip-path="url(#f)"><path d="M290.766,206.361c-.03-1.2-.328-2.745.708-3.26a3.5,3.5,0,0,1,2.683.2c26.152,9.271,41.284-1.491,67.436,7.781l5.326,26.859c-11.6.095-16.91-2.618-28.32-6.269-11.638-3.723-23.282-7.45-34.7-11.867a31.653,31.653,0,0,1-8.975-4.7,11.406,11.406,0,0,1-4.161-8.747" transform="translate(-290.704 -202.901)"/></g></g><path d="M296.5,168.806a9.056,9.056,0,0,1-.609,1.781,29.96,29.96,0,0,0-1.093,4.358c-.618,3.471-.741,6.35-.918,6.346s-.327-2.915.3-6.458a19.022,19.022,0,0,1,1.3-4.409,4.284,4.284,0,0,1,1.02-1.617" transform="translate(59.183 34.013)" fill="#263238"/><path d="M437.01,213.541l-7.234-.186.409-15.884,7.234.186a7.5,7.5,0,0,1,7.3,7.687l-.023.894a7.5,7.5,0,0,1-7.688,7.3" transform="translate(86.596 39.789)" fill="#ff725e"/><path d="M166.611,192.882l64.619-6.522,242.8,6.247A4.281,4.281,0,0,1,478.2,197l-.586,22.789a4.28,4.28,0,0,1-4.389,4.169L229.5,217.683l-63.194-12.965Z" transform="translate(33.509 37.55)" fill="#ff725e"/><path d="M168.364,194.587l-5.939-.153-5.045,1.71c-.417.314-.311.712-.029,1.141l5.076,1.653,5.821.15Z" transform="translate(31.655 39.177)" fill="#263238"/><rect width="31.357" height="5.04" transform="matrix(0.026, -1, 1, 0.026, 263.932, 255.257)" fill="#263238"/><path d="M448.78,194.2h0a5.582,5.582,0,0,1-5.724,5.437l-121.191-3.118a5.583,5.583,0,0,1,.287-11.162l121.191,3.119a5.582,5.582,0,0,1,5.437,5.724" transform="translate(63.757 37.347)" fill="#ff725e"/><path d="M448.833,194.249a6.294,6.294,0,0,0-.685-2.689,5.53,5.53,0,0,0-2.371-2.322,5.423,5.423,0,0,0-2.046-.579c-.763-.049-1.6-.041-2.476-.067l-29.732-.666-44.092-1.067-26.038-.652-13.771-.35-3.51-.089a12.766,12.766,0,0,0-3.428.135,5.269,5.269,0,0,0-.27,10.09,12.749,12.749,0,0,0,3.417.312l3.511.091,13.775.359,26.041.688,44.094,1.2,29.724.864c.875.019,1.712.071,2.477.061a5.447,5.447,0,0,0,2.073-.475,5.543,5.543,0,0,0,2.486-2.2,6.286,6.286,0,0,0,.822-2.649,4.24,4.24,0,0,1-.037.717,5.342,5.342,0,0,1-.675,2,5.658,5.658,0,0,1-4.661,2.822c-.792.019-1.61-.023-2.491-.032l-29.73-.666-44.1-1.068-26.042-.651-13.776-.35-3.51-.09-1.765-.044a6.435,6.435,0,0,1-1.831-.3,5.893,5.893,0,0,1,.3-11.287,6.367,6.367,0,0,1,1.843-.2l1.764.046,3.51.09,13.771.359,26.036.688,44.09,1.2,29.726.865c.879.035,1.7.035,2.49.095a5.647,5.647,0,0,1,4.509,3.058,5.351,5.351,0,0,1,.573,2.029,4.326,4.326,0,0,1,0,.718" transform="translate(63.704 37.295)" fill="#263238"/><path d="M426.032,193.925l6.225,3.164-.464,18.01-6.4,3.59Z" transform="translate(85.713 39.074)" fill="#263238"/><path d="M368.365,214.345,354.61,193.151l-1.233-1.9,0,0-1.853-2.867,8.076-32.9s6.9,3.168,10.694,8.456c3.82,5.325,8.428,15.015,8.428,15.015s13.456,30.783,15.667,35.378,5.785,13.1,0,17.865-44.5,4.924-44.5,4.924l-2.608-19.45Z" transform="translate(69.975 31.328)" fill="#455a64"/><path d="M350.859,184.038c.1-.02-.2-1.443-.326-3.765a29.922,29.922,0,0,1,4.417-17.307c1.223-1.978,2.169-3.082,2.088-3.149-.029-.026-.287.229-.728.719a19.321,19.321,0,0,0-1.7,2.211,27.192,27.192,0,0,0-4.479,17.556,19.3,19.3,0,0,0,.435,2.756,3.524,3.524,0,0,0,.3.98" transform="translate(70.525 32.201)" fill="#263238"/><path d="M349.627,212.165a13.322,13.322,0,0,0-3.487-4.6c-2.536-2.2-8.1-3.907-8.823-6.017s-2.831-.472-2.337,2.157c.314,1.674,3.761,6.06,3.761,6.06s-4.047,1.014-6.739-.538-12.127-4.341-13.134-3.023c-1.14,1.492,1.329,1.988,2.389,2.59.807.457,7.074,3.566,7.074,3.566s-12.475-.425-14.045.168c-1.709.645.041,2.154.827,2.186.5.02,2.632,1.928,4.148,3.339a5.663,5.663,0,0,0,3.779,1.517l2.9.042-8.807.925s-1.522,1.393.6,2.118c.944.323,25.353,2.53,27.425,2.461,4.7-.156,11.24-.481,11.24-.481l-1.146-13.22Z" transform="translate(63.18 40.415)" fill="#ffbe9d"/><path d="M314.667,212.474a26.365,26.365,0,0,0,12.119,2.163c0-.171-2.751-.328-6.087-.931-3.338-.588-5.979-1.393-6.033-1.232" transform="translate(63.402 42.807)" fill="#eb996e"/><g transform="translate(285.988 239.86)" opacity="0.3"><g clip-path="url(#g)"><path d="M238.028,199.741c2.4-.525,4.713,1.008,6.69,2.462a30.092,30.092,0,0,1,3.54,2.89c3.04,3.04,4.641,7.21,7.2,10.666l-14.376-2.19Z" transform="translate(-238.028 -199.635)"/></g></g><path d="M261.4,216.571l-6.281-1.308s-5.648-9.014-8.617-10.1l-1.671-.745s-2.181-4.777-5.144-4.169c-1.761-1.153-3.34-.692-3.51,1.066,0,0-.873-4-4.146-2.353s4.525,15.5,4.525,15.5,2.733,7.1,6.136,4.725c0,0,3.394.793,5.669-.476,0,0,2.105,2.963,7.082.7Z" transform="translate(46.591 40.008)" fill="#ffbe9d"/><path d="M244.988,214.08c-.03,0-.1.234-.04.669a2.983,2.983,0,0,0,.871,1.615,4.1,4.1,0,0,0,2.465,1.158,8.457,8.457,0,0,0,3.279-.356,20.621,20.621,0,0,0,5.391-2.361,7.154,7.154,0,0,0,1.922-1.5c-.094-.159-3.094,2.11-7.467,3.3a8.545,8.545,0,0,1-3.066.383,3.851,3.851,0,0,1-2.246-.928,3.671,3.671,0,0,1-1.11-1.987" transform="translate(49.35 42.979)" fill="#eb996e"/><path d="M240.964,213.552c.145-.1-1.739-2.819-3.355-6.53-1.641-3.7-2.368-6.929-2.541-6.889a6.851,6.851,0,0,0,.328,2.151,30.231,30.231,0,0,0,4.205,9.572,6.842,6.842,0,0,0,1.362,1.7" transform="translate(47.359 40.325)" fill="#eb996e"/><path d="M243.919,213.283c.147-.086-1.443-2.915-2.991-6.588s-2.488-6.776-2.653-6.732a34.839,34.839,0,0,0,5.643,13.32" transform="translate(48.006 40.291)" fill="#eb996e"/><path d="M238.961,213.718c-.156.007-.019,1.152,1.006,2s2.169.8,2.148.642c.018-.166-.925-.348-1.778-1.083-.871-.712-1.216-1.609-1.376-1.563" transform="translate(48.138 43.062)" fill="#eb996e"/><path d="M246.933,210.56a22.336,22.336,0,0,0-2.034-3.5,22.247,22.247,0,0,0-2.177-3.415,16.905,16.905,0,0,0,4.211,6.917" transform="translate(48.902 41.032)" fill="#eb996e"/></svg>